<svg xmlns="http://www.w3.org/2000/svg" viewBox="0 0 298.02 27.51"><title>modesto-bee</title><g id="Layer_2" data-name="Layer 2"><g id="mod"><path d="M17.42,2.36c-1.3,0-1.63.43-1.63,1.85V23c0,1.46.29,1.89,1.85,1.89h1.78v1.93H5.66V24.93H7.48C9,24.93,9.29,24.5,9.29,23V4.21C9.29,2.79,9,2.36,7.7,2.36c-2.91,0-5.19,2.94-5.88,8.17H0L.58.65H24.5l.58,9.88H23.3C22.61,5.3,20.33,2.36,17.42,2.36Z"/><path d="M24.86,25l1.56,0c.94,0,1.27-.29,1.27-1.35V3.59c0-1.2-.4-1.41-1.89-1.41-.33,0-.72,0-1.16,0V.43L33.42,0V12.41a7.32,7.32,0,0,1,6.24-3.19c4.14,0,6,2.14,6,6.46v8c0,1.06.29,1.31,1.23,1.35l1.49,0v1.82H37.45V25l1.2-.07c.91,0,1.23-.25,1.23-1.34V16c0-2.43-.76-3.59-2.72-3.59-2.76,0-3.81,2-3.81,5.84v5.37c0,1.06.33,1.31,1.27,1.35l1.31,0v1.82H24.86Z"/><path d="M67,21.63c-1.13,3.81-4,5.81-8.42,5.81-6.1,0-10.06-3.78-10.06-9.19s4-9.21,10-9.21C63.85,9,67,12.3,67,18v.48H54.82v.25c0,4.21,1.71,6.35,5,6.35,2.44,0,4.29-1.41,5.52-4.17Zm-6.57-5.08c.8,0,1-.33,1-1.16,0-3.05-.84-4.47-2.91-4.47-2.32,0-3.52,1.85-3.7,5.63Z"/><path d="M82.37,20.29c0,3.37.77,4.61,4.14,4.64v1.93H76.06V24.93c3.27-.14,3.85-1.41,3.85-4.64V4.5c0-1.38-.26-2-1.82-2H76.24V.65H88l5.67,15.68L99,.65h11.5V2.54h-1.81c-1.56,0-1.85.47-1.85,1.92V23c0,1.46.29,1.89,1.85,1.89h1.81v1.93H97V24.93H98.6c1.56,0,1.85-.43,1.85-1.89V3.41L92.57,26.86H90.76L82.37,3.56Z"/><path d="M120.88,9c5.88,0,10,3.84,10,9.21s-4.06,9.19-10,9.19-9.95-3.78-9.95-9.19S115,9,120.88,9Zm0,16.26c2.62,0,3.71-2.26,3.71-7s-1.06-7.07-3.67-7.07-3.66,2.28-3.66,7.07S118.27,25.3,120.84,25.3Z"/><path d="M143.56,2.29H142V.43L150.85,0V23.84c0,1.2.44,1.46,2,1.46.32,0,.69,0,1.08,0V27l-8.52.4v-3a6.86,6.86,0,0,1-6,3c-4.35,0-7.73-3.6-7.73-8.89,0-5.49,3.67-9.37,8.42-9.37a6.71,6.71,0,0,1,5.16,2.36V3.63C145.23,2.39,144.79,2.29,143.56,2.29Zm-2,9.32c-2.53,0-3.73,2.18-3.73,6.61s1.2,6.64,3.52,6.64c2.54,0,4-2.18,4-6.5C145.33,13.82,144.17,11.61,141.59,11.61Z"/><path d="M172.29,21.63c-1.12,3.81-4,5.81-8.42,5.81-6.1,0-10.06-3.78-10.06-9.19s4-9.21,9.95-9.21c5.41,0,8.57,3.26,8.57,8.92v.48h-12.2v.25c0,4.21,1.71,6.35,5.05,6.35,2.43,0,4.28-1.41,5.51-4.17Zm-6.57-5.08c.8,0,1-.33,1-1.16,0-3.05-.84-4.47-2.91-4.47-2.32,0-3.51,1.85-3.7,5.63Z"/><path d="M174.82,20.47c1.52,3.34,3.88,5.08,6.68,5.08,1.88,0,3-.91,3-2.25,0-1.49-1.23-1.89-3.77-2.4-5-1-7.3-2.5-7.3-6.06s2.5-5.8,7-5.8a8,8,0,0,1,4.43,1.23l1.41-1h1.49L188,15.1h-1.7c-1.31-2.8-3.45-4.36-5.7-4.36-1.81,0-3,.91-3,2.07,0,1.82,1.7,2,5.08,2.58,4.06.76,6.09,2.75,6.09,5.91,0,3.71-2.61,6.21-7.18,6.21a9.81,9.81,0,0,1-5.23-1.38l-1.56,1.09h-1.45l-.11-6.75Z"/><path d="M203,20.76c0,4.28-2.39,6.75-6.38,6.75s-5-1.89-5-5.85v-9.9h-2.61v-2c3.56-.22,5.62-2.8,5.8-7.48h2.51v7.3h4.9v2.14h-4.9v9.61c0,2,.18,3.06,1.52,3.06s2.11-1.5,2.18-4.43h2C202.92,20.25,203,20.5,203,20.76Z"/><path d="M213.65,9c5.88,0,10,3.84,10,9.21s-4.07,9.19-10,9.19-10-3.78-10-9.19S207.73,9,213.65,9Zm0,16.26c2.61,0,3.7-2.26,3.7-7s-1.05-7.07-3.66-7.07S210,13.46,210,18.25,211,25.3,213.61,25.3Z"/><path d="M233,24.93h2c1.56,0,1.85-.43,1.85-1.89V4.46c0-1.45-.25-1.92-1.85-1.92h-2V.65h15.53c6.07,0,9.26,2.25,9.26,6.24,0,3.6-2.43,5.63-7.37,6.21,5.52.4,8.64,3,8.64,6.79,0,4.5-3.74,7-11,7H233Zm10.24-12.59a11.38,11.38,0,0,0,1.45.07c4.72,0,6.64-1.13,6.64-5s-1.6-4.9-5.55-4.9c-2.21,0-2.54.22-2.54,2Zm2.94,12.56c4.21,0,6.13-1.35,6.13-5.37a5,5,0,0,0-1.67-4c-1.31-1.06-3.12-1.09-5.63-1.09h-.51a7.61,7.61,0,0,0-1.26.07v7.84C243.24,24.72,243.67,24.9,246.18,24.9Z"/><path d="M278.72,21.63c-1.12,3.81-4,5.81-8.42,5.81-6.09,0-10.05-3.78-10.05-9.19s4-9.21,9.94-9.21c5.41,0,8.57,3.26,8.57,8.92v.48h-12.2v.25c0,4.21,1.71,6.35,5.05,6.35,2.43,0,4.28-1.41,5.52-4.17Zm-6.57-5.08c.8,0,1-.33,1-1.16,0-3.05-.84-4.47-2.9-4.47-2.33,0-3.53,1.85-3.71,5.63Z"/><path d="M298,21.63c-1.12,3.81-4,5.81-8.42,5.81-6.1,0-10.05-3.78-10.05-9.19s4-9.21,9.94-9.21C294.86,9,298,12.3,298,18v.48h-12.2v.25c0,4.21,1.71,6.35,5.05,6.35,2.43,0,4.28-1.41,5.52-4.17Zm-6.57-5.08c.8,0,1-.33,1-1.16,0-3.05-.83-4.47-2.9-4.47-2.33,0-3.53,1.85-3.71,5.63Z"/></g></g></svg>