<svg xmlns="http://www.w3.org/2000/svg" xmlns:xlink="http://www.w3.org/1999/xlink" viewBox="0 0 296.43 52.93"><defs><style>.cls-1{fill:#231f20;}.cls-2{fill:url(#radial-gradient);}.cls-3{fill:url(#radial-gradient-2);}.cls-4{fill:url(#linear-gradient);}.cls-5{fill:url(#radial-gradient-3);}.cls-6{fill:url(#radial-gradient-4);}.cls-7{fill:url(#radial-gradient-5);}.cls-8{fill:url(#radial-gradient-6);}.cls-9{fill:url(#radial-gradient-7);}.cls-10{fill:url(#linear-gradient-2);}.cls-11{fill:url(#radial-gradient-8);}.cls-12{fill:url(#radial-gradient-9);}.cls-13{fill:#fff;}.cls-14{fill:#52a6dc;}</style><radialGradient id="radial-gradient" cx="192.12" cy="14.35" r="27.1" gradientUnits="userSpaceOnUse"><stop offset="0" stop-color="#b8d7f1"/><stop offset="0.53" stop-color="#5e9acd"/><stop offset="1" stop-color="#1367ae"/></radialGradient><radialGradient id="radial-gradient-2" cx="204.05" cy="16.7" r="22.39" xlink:href="#radial-gradient"/><linearGradient id="linear-gradient" x1="193.97" y1="16.56" x2="213.7" y2="-12" gradientUnits="userSpaceOnUse"><stop offset="0" stop-color="#427bbe"/><stop offset="0.44" stop-color="#6ac4ef"/><stop offset="1" stop-color="#076997"/></linearGradient><radialGradient id="radial-gradient-3" cx="195.22" cy="16.41" r="16.65" gradientUnits="userSpaceOnUse"><stop offset="0" stop-color="#f6f7f7"/><stop offset="0.32" stop-color="#fff"/><stop offset="0.87" stop-color="#bbb"/><stop offset="1" stop-color="#959595"/></radialGradient><radialGradient id="radial-gradient-4" cx="196.65" cy="14.97" r="24.38" xlink:href="#radial-gradient-3"/><radialGradient id="radial-gradient-5" cx="-280.69" cy="-276.94" r="0.22" gradientTransform="matrix(122.68, 0, 0, -122.68, 34628.5, -33960.96)" gradientUnits="userSpaceOnUse"><stop offset="0" stop-color="#b8d7f1"/><stop offset="0.21" stop-color="#92c5ea"/><stop offset="0.63" stop-color="#47a3db"/><stop offset="1" stop-color="#1367ae"/></radialGradient><radialGradient id="radial-gradient-6" cx="-280.4" cy="-276.83" r="0.22" gradientTransform="matrix(101.38, 0, 0, -101.38, 28630.7, -28048.24)" xlink:href="#radial-gradient-5"/><radialGradient id="radial-gradient-7" cx="-275.83" cy="-276.56" r="0.22" gradientTransform="matrix(48.5, 0, 0, -48.5, 13574.33, -13396.14)" gradientUnits="userSpaceOnUse"><stop offset="0" stop-color="#f6f7f7"/><stop offset="0.44" stop-color="#fff"/><stop offset="0.96" stop-color="#bbb"/><stop offset="1" stop-color="#959595"/></radialGradient><linearGradient id="linear-gradient-2" x1="-281.81" y1="-278.61" x2="-281.59" y2="-278.61" gradientTransform="matrix(89.33, -129.33, -129.33, -89.33, -10665.29, -61319.58)" gradientUnits="userSpaceOnUse"><stop offset="0" stop-color="#5b98d2"/><stop offset="0.48" stop-color="#88d3f5"/><stop offset="1" stop-color="#488ab0"/></linearGradient><radialGradient id="radial-gradient-8" cx="-278.73" cy="-276.78" r="0.22" gradientTransform="matrix(75.38, 0, 0, -75.38, 21206.65, -20848.1)" gradientUnits="userSpaceOnUse"><stop offset="0" stop-color="#f6f7f7"/><stop offset="0.44" stop-color="#fff"/><stop offset="0.92" stop-color="#bbb"/><stop offset="1" stop-color="#959595"/></radialGradient><radialGradient id="radial-gradient-9" cx="-280.46" cy="-276.9" r="0.22" gradientTransform="matrix(110.37, 0, 0, -110.37, 31150.73, -30546.39)" gradientUnits="userSpaceOnUse"><stop offset="0" stop-color="#f6f7f7"/><stop offset="0.44" stop-color="#fff"/><stop offset="0.87" stop-color="#bbb"/><stop offset="1" stop-color="#959595"/></radialGradient></defs><title>myrtle-beach-online</title><g id="Layer_2" data-name="Layer 2"><g id="myb"><path class="cls-1" d="M216.1,19.08c0-2.94-.17-5.5-.22-8H222l.33,3h.1A7.65,7.65,0,0,1,229,10.63c5.07,0,7.09,4,7.09,10V37.73h-7.14V21.05c0-2.24-.55-4.42-2.62-4.42-1.2,0-2.18.82-2.67,2.4a6.89,6.89,0,0,0-.38,2.45V37.73H216.1Z"/><path class="cls-1" d="M237.86,0H245V37.73h-7.14Z"/><path class="cls-1" d="M254.06,4a3.64,3.64,0,0,1-3.77,3.87A3.59,3.59,0,0,1,246.75,4a3.66,3.66,0,1,1,7.31,0Zm-7.15,33.75V11.07h7.15V37.73Z"/><path class="cls-1" d="M255.86,19.08c0-2.94-.16-5.5-.22-8h6.17l.33,3h.1a7.65,7.65,0,0,1,6.49-3.49c5.07,0,7.09,4,7.09,10V37.73h-7.14V21.05c0-2.24-.55-4.42-2.62-4.42-1.2,0-2.18.82-2.67,2.4a6.86,6.86,0,0,0-.39,2.45V37.73h-7.14Z"/><path class="cls-1" d="M283.57,26.94c.11,4.14,2.5,5.67,5.66,5.67a15.69,15.69,0,0,0,5.08-.88l1,5.13a22.13,22.13,0,0,1-7.36,1.2c-7.25,0-11.24-4.8-11.24-13.14,0-8.94,4.64-14.29,10.69-14.29,5.73,0,9.05,4.53,9.05,12.6a18.46,18.46,0,0,1-.22,3.71Zm6.38-5c0-3.44-.88-6.11-3-6.11-2.35,0-3.27,3.44-3.33,6.11Z"/><path class="cls-2" d="M215.2,24.64a13.92,13.92,0,0,0-.26-2.68c-1.47-3-6.53-10.51-19.24-7.61,0,0,14.91,16.21,13.34,22A14.17,14.17,0,0,0,215.2,24.64Z"/><path class="cls-3" d="M195.72,14.35c-6.05,1.91-8.25,5.78-8.87,9.38,0,.3,0,.6,0,.91a14.2,14.2,0,0,0,11.94,14l-.14-.1C186.75,30.25,195.72,14.35,195.72,14.35Z"/><path class="cls-4" d="M201.66,10.47l-.65,0a14.15,14.15,0,0,0-8,2.48,6.12,6.12,0,0,1,2.71,1.45A10.14,10.14,0,0,1,201.66,10.47Z"/><path class="cls-5" d="M201.81,10.47c-2.83.33-4.68,2.21-6.09,3.88,0,0,15-3.93,19.44,9.34A14.19,14.19,0,0,0,201.81,10.47Z"/><path class="cls-6" d="M204.61,25.34c-1.83-2.63-3.9-5.2-5.58-7.2-1.91-2.27-3.33-3.79-3.33-3.79a30.13,30.13,0,0,0-2.39,6.07,22.9,22.9,0,0,0-.87,7.36,13.43,13.43,0,0,0,6.28,10.86,14.44,14.44,0,0,0,2.29.18,14.16,14.16,0,0,0,8.06-2.51C209.89,33.93,207.55,29.56,204.61,25.34Z"/><path class="cls-7" d="M200.63,13.81a21.06,21.06,0,0,0-4.9.54h0c.16.17,1.52,1.64,3.32,3.78s3.75,4.57,5.58,7.2c.14.19.27.39.41.59,3.35-2.49,5.58-5.61,6.17-8.53a15.59,15.59,0,0,0-10.56-3.59Z"/><path class="cls-8" d="M195.68,14.36l-.71.24c-1.75.68-7.58,2.91-8.09,8.8,0,.19,0,.12,0,.33s0,.6,0,.91A14.11,14.11,0,0,0,187.87,30a13.5,13.5,0,0,0,4,.56q.49,0,1,0a16.16,16.16,0,0,1-.41-2.75,22.9,22.9,0,0,1,.87-7.36,30.1,30.1,0,0,1,2.38-6.05Zm0,0h0Z"/><path class="cls-9" d="M193,12.92h0a14.22,14.22,0,0,0-6.14,10.5c0-.11.07-.22.11-.32a13.71,13.71,0,0,1,8-8.5c.37-.14.62-.21.71-.24A6,6,0,0,0,193,12.93Z"/><path class="cls-10" d="M201,10.45a14.11,14.11,0,0,0-8,2.47h0a6,6,0,0,1,2.69,1.43h0v0h0a.46.46,0,0,1,.07-.07c.1-.13.21-.25.32-.37a9.33,9.33,0,0,1,5-3.32c.21-.05.56-.09.72-.12l-.81,0Z"/><path class="cls-11" d="M201.81,10.47c-.24,0-.48.07-.71.12a9.33,9.33,0,0,0-5,3.32c-.11.12-.22.24-.32.37a.46.46,0,0,0-.07.07h0a21.06,21.06,0,0,1,4.9-.54,15.59,15.59,0,0,1,10.56,3.59,7,7,0,0,0,.07-2.57,14.16,14.16,0,0,0-9.45-4.36Z"/><path class="cls-12" d="M195.7,14.35v0a30.1,30.1,0,0,0-2.38,6.05,22.9,22.9,0,0,0-.87,7.36,16.16,16.16,0,0,0,.41,2.75,22.31,22.31,0,0,0,8.33-2.27A23.76,23.76,0,0,0,205,25.93c-.14-.2-.27-.4-.41-.59-1.83-2.63-3.9-5.2-5.58-7.2s-3.16-3.61-3.32-3.78h0Z"/><path class="cls-13" d="M199.24,13.46c.61,1.18-.38,2.91-2.22,3.86s-3.81.76-4.42-.42.38-2.9,2.21-3.85S198.63,12.28,199.24,13.46Z"/><path class="cls-14" d="M194.89,13.2a4.12,4.12,0,0,0-2.09,2.23,1.62,1.62,0,0,0,1.12,2.16,4.12,4.12,0,0,0,3-.43c1.69-.87,2.59-2.47,2-3.56h0a1.74,1.74,0,0,0-1.05-.82A4.09,4.09,0,0,0,194.89,13.2ZM194,17.47a1.58,1.58,0,0,1-1-.76,1.56,1.56,0,0,1-.06-1.24,4.48,4.48,0,0,1,5-2.58,1.62,1.62,0,0,1,1,.77,1.46,1.46,0,0,1,.16.66,3.52,3.52,0,0,1-2.13,2.73A4,4,0,0,1,194,17.47Z"/><path class="cls-1" d="M33,14.07c-.31.86-.68,2-1.11,3.5s-.83,3-1.2,4.69-.68,3.31-1,5a27.08,27.08,0,0,0-.41,4.33A19.87,19.87,0,0,0,29.44,34a12.43,12.43,0,0,0,.34,1.84,4.25,4.25,0,0,1-1.35.91,4.07,4.07,0,0,1-1.66.44,3.91,3.91,0,0,1-.47-.41,4,4,0,0,1-.52-.68,8.68,8.68,0,0,1-.21-1.32,10.44,10.44,0,0,1,0-1.37,25.37,25.37,0,0,1,.32-3.79c.2-1.38.45-2.76.75-4.13s.6-2.66.93-3.89.6-2.27.81-3.13a.23.23,0,0,0-.16-.29.31.31,0,0,0-.36.08q-3.12,3.16-5.24,5.7a54.41,54.41,0,0,0-3.43,4.49,21.84,21.84,0,0,0-1.89,3.35,7.32,7.32,0,0,0-.65,2.28,7.06,7.06,0,0,1-2.54,1.3,1.72,1.72,0,0,1-.67-.52c-.25-.28-.47-.56-.68-.83.07-.8.1-1.39.1-1.77V31.13c0-.9,0-2-.07-3.24s-.12-2.54-.21-3.84-.19-2.51-.31-3.63-.24-2-.34-2.57c0-.14-.11-.19-.23-.15a.47.47,0,0,0-.29.21A58.31,58.31,0,0,0,8.33,23c-.92,1.69-1.72,3.33-2.39,4.9a38.6,38.6,0,0,0-1.61,4.44A20.27,20.27,0,0,0,3.58,36a3.52,3.52,0,0,1-.78.75,4.43,4.43,0,0,1-1,.6,3.63,3.63,0,0,1-1-.45,2.56,2.56,0,0,1-.8-.7,13,13,0,0,1,.83-3c.45-1.18,1-2.38,1.53-3.61S3.53,27.14,4.15,26s1.16-2.09,1.61-2.86l3.5-6.07a13.21,13.21,0,0,0,1.74-4,5.58,5.58,0,0,1,1-.8,4.86,4.86,0,0,1,1.2-.55,5.68,5.68,0,0,1,1.71,1.14c.1.94.21,2.05.31,3.35s.21,2.64.31,4.05.2,2.77.29,4.12S16,27,16,28c0,.17.07.26.21.26a.43.43,0,0,0,.31-.1,40.33,40.33,0,0,1,2.88-3.56c1.16-1.29,2.35-2.63,3.58-4s2.4-2.73,3.52-4.1a28.75,28.75,0,0,0,2.73-3.86A4.15,4.15,0,0,1,30.5,12,9.06,9.06,0,0,1,32,11.73a5.4,5.4,0,0,1,.68,1.07A2.8,2.8,0,0,1,33,14.07Z"/><path class="cls-1" d="M46.48,20a8.1,8.1,0,0,1,1.17-.75c.36-.19.73-.37,1.11-.55a5.3,5.3,0,0,1,.7.26.88.88,0,0,1,.44.37c-1,2.24-2.31,4.83-3.84,7.75a106.69,106.69,0,0,1-6,9.88c-1.32,1.94-2.62,3.74-3.92,5.4s-2.55,3.16-3.76,4.51S30.06,49.38,29,50.4A38.24,38.24,0,0,1,26,52.92a4.71,4.71,0,0,1-1.56-.16,4.47,4.47,0,0,1-1.14-.46,1.48,1.48,0,0,1-.23-.62A6.28,6.28,0,0,0,23,50.9c1.11-.69,2.33-1.54,3.68-2.54a45.58,45.58,0,0,0,4.05-3.43,53.71,53.71,0,0,0,3.92-4.15,31.11,31.11,0,0,0,3.29-4.67c-.14-1-.32-2.27-.54-3.71s-.51-2.84-.83-4.22a37.8,37.8,0,0,0-1.07-3.71,4.74,4.74,0,0,0-1.24-2.16,6.48,6.48,0,0,1,.28-.85,2.05,2.05,0,0,1,.44-.7,5.36,5.36,0,0,1,1.22-.34,8.62,8.62,0,0,1,1.53-.13,10.22,10.22,0,0,1,.6,1.82c.22.86.46,1.87.7,3s.49,2.4.75,3.71.49,2.59.7,3.84c.55-.9,1.15-1.95,1.79-3.17S43.49,27.1,44,25.89s1.05-2.34,1.48-3.39S46.27,20.6,46.48,20Z"/><path class="cls-1" d="M62.2,21.9c-.56.17-1.61,1.11-3.17,2.8a51.65,51.65,0,0,0-5.44,7.63c-.18.27-.49.83-.94,1.66a21.89,21.89,0,0,0-1.14,2.43,3.53,3.53,0,0,1-.91.52l-1.06.47a3.55,3.55,0,0,1-1-.23,3.37,3.37,0,0,1-.75-.44c.52-1.18,1-2.37,1.45-3.56s.86-2.32,1.22-3.4.66-2,.88-2.88a8,8,0,0,0,.34-2,8.73,8.73,0,0,0-.16-1.84A3.86,3.86,0,0,0,51.2,22a4.64,4.64,0,0,1,1.48-1.45,3.89,3.89,0,0,1,2.2-.47,3.74,3.74,0,0,1,.24,1c0,.3,0,.67,0,1.12a12.74,12.74,0,0,1-.23,2,24.14,24.14,0,0,1-.75,2.91c-.07.17,0,.27.1.31a.32.32,0,0,0,.31,0,54.81,54.81,0,0,1,5.66-6.51c1.62-1.54,2.8-2.31,3.52-2.31A6.75,6.75,0,0,1,65,19a5.63,5.63,0,0,1,1.14.75A9.19,9.19,0,0,1,66,20.94a3.11,3.11,0,0,1-.36,1.17,5.86,5.86,0,0,1-1,.57,2.73,2.73,0,0,1-1,.26,2.43,2.43,0,0,1-.68-.37A4,4,0,0,1,62.2,21.9Z"/><path class="cls-1" d="M73.82,11.52a7.52,7.52,0,0,1,1.4-.88A8.38,8.38,0,0,1,76.88,10a4.84,4.84,0,0,1,.77.6,1.58,1.58,0,0,1,.47.64c-.34.59-.72,1.26-1.11,2s-.8,1.52-1.2,2.31S75,17.17,74.65,18s-.73,1.57-1,2.26h1.24l1.56,0c.55,0,1.1,0,1.63-.07L79.57,20a1.88,1.88,0,0,1-.28.78,3.36,3.36,0,0,1-.55.78,28,28,0,0,1-2.95.59c-1,.16-2.11.29-3.22.39C72,24.06,71.43,25.36,71,26.46s-.75,2.07-1,2.88-.45,1.5-.57,2.05a6.86,6.86,0,0,0-.18,1.4c0,.76.17,1.14.52,1.14q1.61-.1,5.45-3.06a3.39,3.39,0,0,1,.46,1.77c-.83.59-1.67,1.16-2.51,1.73s-1.66,1.08-2.44,1.51a22.21,22.21,0,0,1-2.15,1.06,4.39,4.39,0,0,1-1.61.42,1.2,1.2,0,0,1-1-.6,2.87,2.87,0,0,1-.41-1.63,18.23,18.23,0,0,1,1-4.7,76.66,76.66,0,0,1,2.91-7.6l-1.87,0c-.69,0-1.28,0-1.76,0a1.89,1.89,0,0,1,.31-.9,2.1,2.1,0,0,1,.47-.65,13.21,13.21,0,0,1,1.81-.39c.62-.09,1.3-.22,2-.39.35-.73.72-1.57,1.12-2.54s.77-1.9,1.11-2.8.64-1.69.86-2.36A3.72,3.72,0,0,0,73.82,11.52Z"/><path class="cls-1" d="M87.3,6.08a3.37,3.37,0,0,1,1-.78,8.3,8.3,0,0,1,.94-.42A3.36,3.36,0,0,1,90,4.7a2.53,2.53,0,0,0,.59-.08,1.91,1.91,0,0,1,.44.58c.19.31.31.5.34.57-.45,1-1,2.14-1.63,3.52l-2.08,4.54C87,15.48,86.2,17.2,85.46,19s-1.44,3.58-2.1,5.35c-.45,1.21-.8,2.25-1.06,3.11s-.46,1.63-.6,2.31a14.05,14.05,0,0,0-.26,1.81c0,.54,0,1,0,1.53a4.89,4.89,0,0,0,.36,2,6.41,6.41,0,0,1-.47,1.4,5.31,5.31,0,0,1-1.49.7c-.62.19-1.12.35-1.5.49a1.59,1.59,0,0,1-.79-1.56,18.29,18.29,0,0,1,.24-2.82,27.54,27.54,0,0,1,.78-3.43c.37-1.26.84-2.67,1.4-4.22s1.24-3.32,2-5.3q2.17-5.44,3.71-9.2A21.65,21.65,0,0,0,87.3,6.08Z"/><path class="cls-1" d="M94.2,19.46l1.09-.26a5.81,5.81,0,0,1,1.25-.15,8.2,8.2,0,0,1,3,.49,2,2,0,0,1,1.37,1.89,3.27,3.27,0,0,1-.69,2.13,6.57,6.57,0,0,1-2.09,1.81,12.48,12.48,0,0,1-3.18,1.25,15.79,15.79,0,0,1-3.9.47,13.43,13.43,0,0,0-1.29,5.29A6.72,6.72,0,0,0,89.92,34a1,1,0,0,0,1.06.72,4.45,4.45,0,0,0,1.7-.39,12.55,12.55,0,0,0,1.88-1,22,22,0,0,0,1.83-1.27c.59-.45,1.12-.89,1.6-1.3a2,2,0,0,1,.39.83,5.94,5.94,0,0,1,.08,1,24.68,24.68,0,0,1-2.08,1.58,27.1,27.1,0,0,1-2.59,1.58A21,21,0,0,1,91.12,37a6.69,6.69,0,0,1-2.26.49q-3,0-3-3a11.94,11.94,0,0,1,.7-3.83,25,25,0,0,1,1.84-4.13A26.44,26.44,0,0,1,91,22.65,21.7,21.7,0,0,1,94.2,19.46Zm1,1.35a16.93,16.93,0,0,0-1.71,1.89,17.19,17.19,0,0,0-1.72,2.62,12.41,12.41,0,0,0,2.1-.18,8.33,8.33,0,0,0,1.9-.54,3.88,3.88,0,0,0,1.35-1,2.08,2.08,0,0,0,.52-1.38A1.15,1.15,0,0,0,97,21.15,3.88,3.88,0,0,0,95.19,20.81Z"/><path class="cls-1" d="M123.1,29.73a4.79,4.79,0,0,1-1.53,3.35,17.49,17.49,0,0,1-4.39,3.08,19.64,19.64,0,0,1-4.07,1.43,18.41,18.41,0,0,1-4.28.55c-.86,0-1.92-.06-3.16-.16a4.25,4.25,0,0,1-.89-1.5c-.34,0-.7.05-1.06.05h-1a4.5,4.5,0,0,1-.65-.83c-.19-.31-.37-.62-.54-.94.13-.51.31-1.11.52-1.79s.47-1.46.8-2.36L104,27.45c.45-1.21,1-2.59,1.6-4.15.32-.76.69-1.61,1.12-2.54s.87-1.88,1.32-2.83.9-1.87,1.35-2.77.87-1.72,1.25-2.44c-.59-.1-1.27-.17-2.05-.23l-2.21-.19a2.09,2.09,0,0,1,.7-1.32,4.31,4.31,0,0,1,1.27-1c.59,0,1.27.09,2,.18l2.36.28c.8.11,1.59.23,2.36.37s1.46.27,2.05.41a11.8,11.8,0,0,1,4.1,1.69,3.19,3.19,0,0,1,1.61,2.62,3.64,3.64,0,0,1-.75,2.1,11.71,11.71,0,0,1-1.87,2,18,18,0,0,1-2.39,1.74,13.39,13.39,0,0,1-2.36,1.19c-.14.07-.18.16-.13.26a.36.36,0,0,0,.24.21,23.91,23.91,0,0,1,3.6,1.5,11,11,0,0,1,2.28,1.59,4.6,4.6,0,0,1,1.22,1.71A5.09,5.09,0,0,1,123.1,29.73ZM108.42,24.8q-1.24,3.32-2,5.92a19.47,19.47,0,0,0-.75,4.57,5.41,5.41,0,0,0,2.85.51,25.18,25.18,0,0,0,3.09-.21,11.69,11.69,0,0,0,3.08-.77,9.61,9.61,0,0,0,1.56-.8,8.14,8.14,0,0,0,1.4-1.11,5.66,5.66,0,0,0,1-1.32,2.77,2.77,0,0,0,.39-1.36,3.68,3.68,0,0,0-1.32-2.66,10,10,0,0,0-4-2.1,15.68,15.68,0,0,0-2.39-.43C110.37,24.92,109.38,24.84,108.42,24.8Zm10.89-8.61q0-1.14-1.56-1.89a15.18,15.18,0,0,0-4-1.17q-1.2,2.17-2.34,4.67t-2.07,4.83a15.51,15.51,0,0,0,3-.58,14.29,14.29,0,0,0,3.5-1.55,9.72,9.72,0,0,0,1.22-.83,10.75,10.75,0,0,0,1.12-1,5.11,5.11,0,0,0,.83-1.17A2.86,2.86,0,0,0,119.31,16.19Z"/><path class="cls-1" d="M133.63,19.46l1.09-.26a5.66,5.66,0,0,1,1.24-.15,8.16,8.16,0,0,1,3,.49,2,2,0,0,1,1.38,1.89,3.34,3.34,0,0,1-.7,2.13,6.57,6.57,0,0,1-2.09,1.81,12.34,12.34,0,0,1-3.18,1.25,15.76,15.76,0,0,1-3.89.47,13.46,13.46,0,0,0-1.3,5.29,6.72,6.72,0,0,0,.18,1.61,1,1,0,0,0,1.06.72,4.41,4.41,0,0,0,1.7-.39,13.14,13.14,0,0,0,1.89-1c.63-.4,1.24-.82,1.83-1.27s1.11-.89,1.6-1.3a2.06,2.06,0,0,1,.38.83,5.94,5.94,0,0,1,.08,1,23.15,23.15,0,0,1-2.08,1.58,27.1,27.1,0,0,1-2.59,1.58A21,21,0,0,1,130.54,37a6.64,6.64,0,0,1-2.26.49,2.66,2.66,0,0,1-3-3,12.22,12.22,0,0,1,.7-3.83,24.26,24.26,0,0,1,1.85-4.13,27.18,27.18,0,0,1,2.64-3.89A21.75,21.75,0,0,1,133.63,19.46Zm1,1.35a16.93,16.93,0,0,0-1.71,1.89,17.94,17.94,0,0,0-1.71,2.62,12.59,12.59,0,0,0,2.1-.18,8.1,8.1,0,0,0,1.89-.54,3.88,3.88,0,0,0,1.35-1,2,2,0,0,0,.52-1.38,1.15,1.15,0,0,0-.65-1.11A3.85,3.85,0,0,0,134.61,20.81Z"/><path class="cls-1" d="M151.94,19.72a2,2,0,0,1,1,.31c.36.21.73.43,1.11.68.28-.18.56-.33.83-.47a7.64,7.64,0,0,0,.83-.47,6.09,6.09,0,0,0,.7.26,1.45,1.45,0,0,1,.65.47c-.41.9-.87,1.91-1.37,3s-1,2.27-1.38,3.43-.77,2.27-1.06,3.34a10.78,10.78,0,0,0-.44,2.86c0,.76.2,1.14.62,1.14a2.62,2.62,0,0,0,1.19-.47,15,15,0,0,0,1.51-1,2.76,2.76,0,0,1,.26.68,5.93,5.93,0,0,1,.15.78,15,15,0,0,1-1.35,1.06c-.55.4-1.13.78-1.73,1.14a14.93,14.93,0,0,1-1.77.91,3.8,3.8,0,0,1-1.37.36.9.9,0,0,1-.65-.39,1.89,1.89,0,0,1-.34-1.27c0-.21,0-.53.05-1a13.63,13.63,0,0,1,.21-1.4c.1-.5.23-1,.36-1.56a15,15,0,0,1,.47-1.47c0-.07,0-.14-.13-.21s-.23,0-.34.1a33.17,33.17,0,0,1-2.56,2.6c-.89.79-1.74,1.49-2.57,2.1a14.32,14.32,0,0,1-2.36,1.42,4.79,4.79,0,0,1-2,.52,1.06,1.06,0,0,1-.8-.46,2.38,2.38,0,0,1-.39-1.51,11.39,11.39,0,0,1,.49-3.16,16.1,16.1,0,0,1,1.51-3.5A19.91,19.91,0,0,1,143.84,25a23.43,23.43,0,0,1,3.79-3.35,16.54,16.54,0,0,1,2.26-1.32A4.83,4.83,0,0,1,151.94,19.72ZM150.8,21.9a3.65,3.65,0,0,0-2,1,16.85,16.85,0,0,0-2.52,2.59A18.12,18.12,0,0,0,144.13,29a8.22,8.22,0,0,0-.91,3.53c0,.59.14.88.42.88a3.31,3.31,0,0,0,1.63-.64,13.15,13.15,0,0,0,2.23-1.92,29.77,29.77,0,0,0,5.06-7.4,3.69,3.69,0,0,0-.86-1A1.67,1.67,0,0,0,150.8,21.9Z"/><path class="cls-1" d="M167.81,21.8A16.12,16.12,0,0,0,165.74,24a23.14,23.14,0,0,0-2.08,2.88,15.5,15.5,0,0,0-1.48,3.11,8.89,8.89,0,0,0-.54,2.75,1.82,1.82,0,0,0,.52,1.35,1.71,1.71,0,0,0,1.24.52,5,5,0,0,0,2.78-1.22,30.57,30.57,0,0,0,4.07-4,1.67,1.67,0,0,1,.44.62,2.35,2.35,0,0,1,.18.94,37.52,37.52,0,0,1-5.16,4.87A7.93,7.93,0,0,1,161,37.72a3,3,0,0,1-2.08-.78,3.53,3.53,0,0,1-.88-2.75,10.18,10.18,0,0,1,1-4,23.09,23.09,0,0,1,2.51-4.33,27.4,27.4,0,0,1,3.53-3.94,20.14,20.14,0,0,1,4-2.91,8.8,8.8,0,0,1,1,.08,4.74,4.74,0,0,1,.93.18,7.17,7.17,0,0,1,.63.78,5.54,5.54,0,0,1,.41.78,4.53,4.53,0,0,1-.41,1.4q-.47.25-1.14.57a2.77,2.77,0,0,1-1.09.31,1.87,1.87,0,0,1-.68-.78A.9.9,0,0,0,167.81,21.8Z"/><path class="cls-1" d="M170.72,36.42c.34-.76.77-1.79,1.29-3.11s1.07-2.76,1.66-4.33,1.2-3.2,1.82-4.88,1.19-3.27,1.71-4.79c1.11-3.29,2-6.09,2.75-8.41A17.35,17.35,0,0,0,181,6a9.83,9.83,0,0,1,1.24-1,3,3,0,0,1,1.2-.59,2.27,2.27,0,0,1,1.06.25,6.47,6.47,0,0,0,.91.42l-1,2.65-1,2.56-1.06,2.86-1.3,3.5c-.21.52-.48,1.26-.83,2.23s-.71,1.95-1.09,3-.74,1.95-1.09,2.85-.6,1.55-.78,2c0,.17,0,.28.13.34a.25.25,0,0,0,.29,0c1-.86,2-1.74,3.06-2.65s2.11-1.71,3.11-2.43a22.75,22.75,0,0,1,2.83-1.79,5,5,0,0,1,2.2-.7.89.89,0,0,1,.76.39,1.4,1.4,0,0,1,.28.85,8.93,8.93,0,0,1-.54,2.91c-.37,1-.76,2.09-1.2,3.16s-.82,2.12-1.16,3.14a7.38,7.38,0,0,0-.47,2.72,1.5,1.5,0,0,0,.29.86,1.69,1.69,0,0,0,.59.6,5.38,5.38,0,0,0-.23.75,2.71,2.71,0,0,1-.34.8,6.19,6.19,0,0,1-1.61.78,7.33,7.33,0,0,1-1.81.42c-.18,0-.35-.13-.52-.39a2,2,0,0,1-.26-1.07,9.56,9.56,0,0,1,.52-3c.34-1.06.72-2.08,1.11-3.06l1.12-2.75a6,6,0,0,0,.52-2.1,1.58,1.58,0,0,0-.11-.55.37.37,0,0,0-.36-.28,3.69,3.69,0,0,0-1.74.72,22.38,22.38,0,0,0-2.44,1.92,29.14,29.14,0,0,0-2.64,2.75,23.88,23.88,0,0,0-2.31,3.22c-.48.83-.86,1.5-1.12,2s-.59,1.19-1,2a5.57,5.57,0,0,1-1.48.6c-.39.09-.78.17-1.16.23a.7.7,0,0,1-.42-.23A2.33,2.33,0,0,0,170.72,36.42Z"/></g></g></svg>