<svg xmlns="http://www.w3.org/2000/svg" viewBox="0 0 301.49 27.58"><defs><style>.cls-1{fill:#231f20;}</style></defs><title>island-packet</title><g id="Layer_2" data-name="Layer 2"><g id="hhi"><path class="cls-1" d="M32.1,8.71h-.79c0-2,0-3.45-.13-4.24.93,0,2.39.08,4.37.13l3.23.05c.58,0,1.92,0,4-.07,1.52,0,2.64-.07,3.33-.11-.1,1-.17,2.37-.2,4.24h-.82L45,7.48c-.07-.74-.12-1.17-.14-1.27A.5.5,0,0,0,44.77,6a.69.69,0,0,0-.21-.1c-.12,0-.55-.06-1.28-.1S42,5.73,41.54,5.73H40A31.93,31.93,0,0,0,39.85,9v7.47c0,1.16,0,2.29,0,3.39a4.05,4.05,0,0,0,.19,1.44.78.78,0,0,0,.47.34,8.59,8.59,0,0,0,1.85.14v.81c-1.53-.06-2.68-.1-3.44-.1l-4,.1v-.81a8.59,8.59,0,0,0,1.85-.14.78.78,0,0,0,.45-.3,3.32,3.32,0,0,0,.2-1.24q0-.27.06-3.63V9.06c0-.36,0-.75,0-1.17l-.08-2.16H35.51a22.58,22.58,0,0,0-2.62.12A.59.59,0,0,0,32.5,6a4.35,4.35,0,0,0-.26,1.39Z"/><path class="cls-1" d="M47.31,5.29V4.47l3.91.09,3.61-.09v.82A8.54,8.54,0,0,0,53,5.43a.81.81,0,0,0-.45.3A3.18,3.18,0,0,0,52.35,7q0,.25-.06,3.63v1.78q2.52.09,6.13.09,2.78,0,4.44-.09V10.6c0-1.16,0-2.3-.06-3.4a4.44,4.44,0,0,0-.18-1.44.88.88,0,0,0-.47-.33,8.62,8.62,0,0,0-1.84-.14V4.47c1.83.06,3.09.09,3.77.09l3.73-.09v.82A8.5,8.5,0,0,0,66,5.43a.75.75,0,0,0-.44.29A3.14,3.14,0,0,0,65.33,7c0,.17,0,1.39-.06,3.63v5.92q0,1.74.06,3.39a4.27,4.27,0,0,0,.17,1.44.83.83,0,0,0,.48.34,8.5,8.5,0,0,0,1.83.14v.81c-1.64-.05-3-.08-4-.08s-2.27,0-3.46.08v-.81a8.47,8.47,0,0,0,1.84-.14.84.84,0,0,0,.46-.3,3,3,0,0,0,.19-1.24c0-.17,0-1.38.06-3.61V13.62c-2.38-.06-4.2-.09-5.43-.09s-3.06,0-5.14.09v2.91c0,1.15,0,2.28,0,3.37a4.05,4.05,0,0,0,.19,1.44.84.84,0,0,0,.47.34,8.59,8.59,0,0,0,1.85.14v.81c-1.15-.05-2.34-.08-3.56-.08s-2.65,0-4,.08v-.81a8.5,8.5,0,0,0,1.83-.14.84.84,0,0,0,.46-.3,3.18,3.18,0,0,0,.19-1.24q0-.27.06-3.63V10.59c0-1.16,0-2.29,0-3.4a4,4,0,0,0-.19-1.43.88.88,0,0,0-.47-.33A8.67,8.67,0,0,0,47.31,5.29Z"/><path class="cls-1" d="M69.37,22.63v-.81a5.2,5.2,0,0,0,1.77-.21.51.51,0,0,0,.26-.24A4.94,4.94,0,0,0,71.58,20c0-1.13.07-2.1.07-2.91V10.59c0-1.16,0-2.29,0-3.4a3.88,3.88,0,0,0-.18-1.43A.93.93,0,0,0,71,5.42a9.58,9.58,0,0,0-1.84-.13V4.47l3.64.08,3.86-.07,4,0a18.24,18.24,0,0,1,2.4.14,10.86,10.86,0,0,0-.29,1.26c0,.08-.09,1-.22,2.66h-.81a13.59,13.59,0,0,0-.17-2.38A6.07,6.07,0,0,0,80,5.74a22.88,22.88,0,0,0-2.86-.18l-1.37.05c-.71,0-1.21.06-1.52.09,0,.94-.06,1.83-.08,2.65l0,4.31c1,.06,1.91.09,2.75.09a21.19,21.19,0,0,0,2.6-.14A.77.77,0,0,0,80,12.4a2.9,2.9,0,0,0,.21-1.05l.07-.89H81v.24L81,13.36l.06,3h-.9l0-.87a2.84,2.84,0,0,0-.18-1.17.79.79,0,0,0-.55-.32,15.7,15.7,0,0,0-2.83-.16q-.85,0-2.43.06c0,.86-.06,2.13-.06,3.8s0,2.78.06,3.6c1.23.09,2.6.14,4.13.14a17.7,17.7,0,0,0,2.31-.1A5.25,5.25,0,0,0,81.84,21a7.91,7.91,0,0,0,.3-1.07c.19-.76.31-1.33.37-1.72h.86A34.94,34.94,0,0,0,83,22.46a17.15,17.15,0,0,1-2.68.17l-7.63-.08Z"/><path class="cls-1" d="M99.15,21.82v.81c-1.81-.05-3-.08-3.57-.08l-4,.08v-.81a8.5,8.5,0,0,0,1.83-.14.81.81,0,0,0,.46-.3,3.18,3.18,0,0,0,.19-1.24c0-.18,0-1.39.07-3.63V10.59c0-1.16,0-2.29,0-3.4A4,4,0,0,0,94,5.76a.84.84,0,0,0-.47-.33,8.59,8.59,0,0,0-1.85-.14V4.47c1.63.06,2.88.09,3.77.09s2.1,0,3.75-.09v.82a8.54,8.54,0,0,0-1.84.14.9.9,0,0,0-.45.29A3.49,3.49,0,0,0,96.67,7c0,.17,0,1.39-.06,3.63v5.92c0,1.16,0,2.29,0,3.39a3.91,3.91,0,0,0,.18,1.44.84.84,0,0,0,.47.34A8.67,8.67,0,0,0,99.15,21.82Z"/><path class="cls-1" d="M100.56,22a28.34,28.34,0,0,0,.24-4h.86a9.33,9.33,0,0,0,.21,2.21,2.05,2.05,0,0,0,.71.72,5.72,5.72,0,0,0,1.52.68,6,6,0,0,0,1.83.3,4.86,4.86,0,0,0,2.38-.59,3.76,3.76,0,0,0,1.59-1.57,4.46,4.46,0,0,0,.5-2.07,3.76,3.76,0,0,0-.25-1.45,2.28,2.28,0,0,0-.76-1,3.19,3.19,0,0,0-1.27-.54l-1.89-.25c-1-.13-1.75-.26-2.42-.4a5.65,5.65,0,0,1-2-1,4,4,0,0,1-1-1.45,4.76,4.76,0,0,1-.4-1.93,5.56,5.56,0,0,1,.79-2.84,5.25,5.25,0,0,1,2.33-2.07,7.54,7.54,0,0,1,3.35-.74,11.49,11.49,0,0,1,4.77,1.13,13.15,13.15,0,0,0-.26,1.5c0,.46-.09,1.15-.11,2.05h-.86a14.87,14.87,0,0,0-.12-2.15,3.15,3.15,0,0,0-.87-.83,5.59,5.59,0,0,0-2.75-.74,3.85,3.85,0,0,0-4.08,4.05,3,3,0,0,0,.4,1.68,2.7,2.7,0,0,0,1.42,1,13.33,13.33,0,0,0,2.3.45c1.07.15,2,.3,2.88.46a5.17,5.17,0,0,1,1.78.85,3.67,3.67,0,0,1,.94,1.3,4.33,4.33,0,0,1,.38,1.87,5.81,5.81,0,0,1-2.11,4.44,7.85,7.85,0,0,1-5.47,1.9A10.44,10.44,0,0,1,100.56,22Z"/><path class="cls-1" d="M115.23,22.63V22a3.78,3.78,0,0,0,1-.59.52.52,0,0,0,.18-.29,6.6,6.6,0,0,0,.15-1.54c0-1.16.07-1.86.07-2.08V10.59c0-1.16,0-2.29,0-3.4a4,4,0,0,0-.19-1.43.84.84,0,0,0-.47-.33,8.59,8.59,0,0,0-1.85-.14V4.47c2.08.06,3.37.09,3.86.09s1.77,0,3.68-.09v.82a8.51,8.51,0,0,0-1.85.14.89.89,0,0,0-.46.29A3.49,3.49,0,0,0,119.12,7c0,.17,0,1.39-.06,3.63v8.59q0,1.35.06,2.19c1,.06,1.94.09,2.89.09a19.13,19.13,0,0,0,5-.46,5.44,5.44,0,0,0,.3-.89l.51-2.12h.86c-.19,1.27-.37,2.76-.55,4.48-.35.07-.63.11-.83.13-.45,0-1.13,0-2,0l-7.57-.08C116.91,22.55,116.08,22.58,115.23,22.63Z"/><path class="cls-1" d="M130.05,22.63v-.86a6.45,6.45,0,0,0,1.26-.09,1.1,1.1,0,0,0,.46-.27,4.14,4.14,0,0,0,.61-1c.15-.31.7-1.51,1.66-3.59l3.2-7.22q.52-1.19,2.25-5.29h.81l5.48,12.83c.88,2.08,1.47,3.39,1.76,3.91a1.3,1.3,0,0,0,.53.59,3.66,3.66,0,0,0,1.3.16v.86q-2-.12-2.79-.12l-4.12.12v-.86a15.65,15.65,0,0,0,1.74-.09.75.75,0,0,0,.41-.19.4.4,0,0,0,.11-.3,2.07,2.07,0,0,0-.18-.73L143,16.55h-7.41l-1.39,3.28a4,4,0,0,0-.37,1.3.44.44,0,0,0,.11.29.74.74,0,0,0,.43.23,9.44,9.44,0,0,0,1.66.12v.86c-1.44-.07-2.52-.11-3.24-.11S131,22.56,130.05,22.63ZM136,15.46h6.45l-3.18-7.7Z"/><path class="cls-1" d="M150.72,22.63v-.81a5.2,5.2,0,0,0,1.77-.21.47.47,0,0,0,.26-.24,4.94,4.94,0,0,0,.18-1.34c0-1.13.06-2.09.06-2.91V6.72a1.68,1.68,0,0,0-.05-.55,1.83,1.83,0,0,0-.46-.55,1.15,1.15,0,0,0-.53-.26,10,10,0,0,0-1.34-.07V4.47c1.48,0,2.4,0,2.78,0,.65,0,1.29,0,1.92,0l1.58,2.09,2.62,3.26,3.81,4.64c1.22,1.48,2.2,2.65,2.94,3.49.47.57.87,1,1.19,1.33V10c0-.84,0-1.81-.09-2.93a5,5,0,0,0-.17-1.32.53.53,0,0,0-.27-.24,5.55,5.55,0,0,0-1.75-.19V4.47c1,0,2,0,3.06,0s1.85,0,2.65,0v.82a5.66,5.66,0,0,0-1.77.19.46.46,0,0,0-.25.26,4.1,4.1,0,0,0-.18,1.34c-.05,1.12-.07,2.09-.07,2.9v6.14c0,1.24,0,3.57.07,7l-1.32-.38-.31-.07a.27.27,0,0,1-.14-.07c-.06,0-.22-.22-.49-.52-.7-.81-1.23-1.42-1.56-1.83l-1.65-2.11-9.06-11v9.91c0,.84,0,1.84.08,3a4.82,4.82,0,0,0,.17,1.32.53.53,0,0,0,.27.26,5.46,5.46,0,0,0,1.75.2v.81c-.75-.05-1.58-.08-2.48-.08S151.88,22.58,150.72,22.63Z"/><path class="cls-1" d="M172.92,22.63V22c.49-.28.9-.54,1.23-.77,0-.57.09-1.38.13-2.41.06-1.75.09-3,.09-3.65V10c0-.84,0-1.82-.07-2.94a4.16,4.16,0,0,0-.18-1.32.53.53,0,0,0-.27-.24,5.63,5.63,0,0,0-1.76-.19V4.47c1.25,0,2.35.07,3.3.07.73,0,1.73,0,3,0s2.25,0,3,0a13.31,13.31,0,0,1,5,.79,7.61,7.61,0,0,1,3.24,2.68A7.78,7.78,0,0,1,191,12.51a10.45,10.45,0,0,1-.63,3.65,9.84,9.84,0,0,1-1.7,3,9.49,9.49,0,0,1-2.3,2,10.14,10.14,0,0,1-2.58,1.12,14.43,14.43,0,0,1-3.7.37c-.52,0-1.22,0-2.11,0l-2.27,0C175.14,22.55,174.23,22.58,172.92,22.63Zm4-1.39a17.48,17.48,0,0,0,3,.24,12.73,12.73,0,0,0,2.85-.28,7.25,7.25,0,0,0,2.11-.79,6.3,6.3,0,0,0,1.69-1.51,6.77,6.77,0,0,0,1.26-2.55,11.42,11.42,0,0,0,.45-3.21,9.18,9.18,0,0,0-.85-4.09,6,6,0,0,0-2.57-2.61,10.21,10.21,0,0,0-4.71-.91,20.45,20.45,0,0,0-3.19.25c0,.41,0,1.16-.07,2.22l-.05,1.85V15l0,4C176.81,19.52,176.83,20.3,176.88,21.24Z"/><path class="cls-1" d="M199.27,5.29V4.47c1.72.06,3.07.09,4.07.09l2.12,0,2-.07h.62a9.11,9.11,0,0,1,3.19.44,3.72,3.72,0,0,1,1.82,1.43,4,4,0,0,1,.65,2.23,5.09,5.09,0,0,1-.54,2.24,5.2,5.2,0,0,1-1.58,1.89,6.91,6.91,0,0,1-2.16,1.1,5.82,5.82,0,0,1-1.74.23,10.35,10.35,0,0,1-1.77-.17l-.26-.95a8.16,8.16,0,0,0,1.79.27,3.8,3.8,0,0,0,1.82-.47,3.21,3.21,0,0,0,1.34-1.41,4.52,4.52,0,0,0,.48-2.08,4.21,4.21,0,0,0-.47-2,3,3,0,0,0-1.41-1.36,5.4,5.4,0,0,0-2.31-.46,8.81,8.81,0,0,0-2.61.44c-.08.9-.12,2.31-.12,4.24v6.44c0,1.16,0,2.29,0,3.39a3.91,3.91,0,0,0,.18,1.44.83.83,0,0,0,.48.34,8.51,8.51,0,0,0,1.85.14v.81c-1.58-.05-2.74-.08-3.48-.08l-4,.08v-.81a8.7,8.7,0,0,0,1.84-.14.78.78,0,0,0,.45-.3,3.12,3.12,0,0,0,.2-1.24q0-.27.06-3.63V10.59c0-1.16,0-2.29,0-3.4a4.13,4.13,0,0,0-.18-1.43.87.87,0,0,0-.48-.33A8.59,8.59,0,0,0,199.27,5.29Z"/><path class="cls-1" d="M212.44,22.63v-.86a6.45,6.45,0,0,0,1.26-.09,1.1,1.1,0,0,0,.46-.27,4.14,4.14,0,0,0,.61-1c.15-.31.71-1.51,1.66-3.59l3.2-7.22q.52-1.19,2.25-5.29h.81l5.48,12.83c.88,2.08,1.47,3.39,1.76,3.91a1.3,1.3,0,0,0,.53.59,3.66,3.66,0,0,0,1.3.16v.86q-2-.12-2.79-.12l-4.12.12v-.86a15.65,15.65,0,0,0,1.74-.09.75.75,0,0,0,.41-.19.4.4,0,0,0,.11-.3,2.07,2.07,0,0,0-.18-.73l-1.57-3.91H218l-1.38,3.28a3.86,3.86,0,0,0-.38,1.3.44.44,0,0,0,.11.29.71.71,0,0,0,.43.23,9.44,9.44,0,0,0,1.66.12v.86c-1.44-.07-2.52-.11-3.24-.11S213.42,22.56,212.44,22.63Zm5.95-7.17h6.45l-3.18-7.7Z"/><path class="cls-1" d="M250.22,20.38l-.5,1.19a13,13,0,0,1-2.93,1.1,13.81,13.81,0,0,1-3.12.34,13.09,13.09,0,0,1-3.68-.5,9.42,9.42,0,0,1-3-1.43A8.73,8.73,0,0,1,234.94,19a9,9,0,0,1-1.23-2.5,10,10,0,0,1-.42-3,8.88,8.88,0,0,1,2.84-6.76,10.87,10.87,0,0,1,7.77-2.68,16.08,16.08,0,0,1,2.16.13,19.62,19.62,0,0,1,2.42.52l1.74.44a7.27,7.27,0,0,0-.42,1.38,18.42,18.42,0,0,0-.28,2.52h-.81V7.57a2.27,2.27,0,0,0-1.39-1.87,8.7,8.7,0,0,0-3.69-.61,9.75,9.75,0,0,0-3.08.46A5.86,5.86,0,0,0,238.31,7a7.21,7.21,0,0,0-1.58,2.41A9.73,9.73,0,0,0,236.1,13a8.42,8.42,0,0,0,2.37,6.24,8.46,8.46,0,0,0,6.25,2.36,10.59,10.59,0,0,0,3.25-.48,7.43,7.43,0,0,0,2-1.05Z"/><path class="cls-1" d="M259.09,21.82v.81l-3.87-.08-3.62.08v-.81a8.7,8.7,0,0,0,1.84-.14.78.78,0,0,0,.45-.3,3.12,3.12,0,0,0,.2-1.24c0-.18,0-1.39.06-3.63V10.59c0-1.16,0-2.29,0-3.4a3.79,3.79,0,0,0-.19-1.43.81.81,0,0,0-.47-.33,8.59,8.59,0,0,0-1.85-.14V4.47c1.66.06,2.92.09,3.8.09s2.1,0,3.69-.09v.82a9.86,9.86,0,0,0-1.84.13.85.85,0,0,0-.44.3A3.1,3.1,0,0,0,256.6,7q0,.25-.06,3.63v2.63a7.6,7.6,0,0,0,1.64-1.31l1.61-1.58,2.85-2.89c1.1-1.11,1.78-1.83,2-2.15V4.47c1,0,1.81,0,2.39,0s1.29,0,2,0v.82a9.22,9.22,0,0,0-1.64.1,2.5,2.5,0,0,0-.83.39,32.24,32.24,0,0,0-2.51,2.15L259,12.59l7.67,7.19c1.24,1.16,1.94,1.79,2.11,1.9a2.3,2.3,0,0,0,1,.16v.79l-1.68-.05-2,.05L264,20.58l-1.32-1.27-5.8-5.45-.3.17v2.48q0,1.74.06,3.39a3.91,3.91,0,0,0,.18,1.44.78.78,0,0,0,.47.34A8.7,8.7,0,0,0,259.09,21.82Z"/><path class="cls-1" d="M270.87,22.63v-.81a5.17,5.17,0,0,0,1.76-.21.47.47,0,0,0,.26-.24,4.94,4.94,0,0,0,.18-1.34c.05-1.13.07-2.1.07-2.91V10.59c0-1.16,0-2.29,0-3.4a3.88,3.88,0,0,0-.18-1.43.94.94,0,0,0-.47-.34,9.82,9.82,0,0,0-1.85-.13V4.47l3.64.08,3.87-.07,4,0a18.19,18.19,0,0,1,2.39.14,8.94,8.94,0,0,0-.28,1.26c0,.08-.1,1-.23,2.66h-.81A13.59,13.59,0,0,0,283,6.13a6,6,0,0,0-1.54-.39,23,23,0,0,0-2.87-.18l-1.37.05c-.71,0-1.21.06-1.52.09,0,.94-.06,1.83-.08,2.65l-.05,4.31c1,.06,1.92.09,2.75.09a21.19,21.19,0,0,0,2.6-.14c.27,0,.45-.1.52-.21a2.9,2.9,0,0,0,.21-1.05l.07-.89h.77v.24l-.06,2.66.06,3h-.89l0-.87a3.11,3.11,0,0,0-.17-1.17.83.83,0,0,0-.56-.32,15.7,15.7,0,0,0-2.83-.16q-.85,0-2.43.06c0,.86-.06,2.13-.06,3.8s0,2.78.06,3.6c1.23.09,2.61.14,4.13.14a17.7,17.7,0,0,0,2.31-.1,5.25,5.25,0,0,0,1.28-.35,7.91,7.91,0,0,0,.3-1.07c.19-.76.31-1.33.37-1.72h.86a34.94,34.94,0,0,0-.33,4.28,17.1,17.1,0,0,1-2.67.17l-7.64-.08Z"/><path class="cls-1" d="M287.44,8.71h-.79c0-2,0-3.45-.13-4.24.94,0,2.39.08,4.38.13l3.22.05c.58,0,1.92,0,4-.07,1.53,0,2.64-.07,3.34-.11-.1,1-.17,2.37-.2,4.24h-.82l-.11-1.23a11.61,11.61,0,0,0-.14-1.27.42.42,0,0,0-.11-.22.51.51,0,0,0-.21-.1c-.12,0-.54-.06-1.28-.1s-1.31-.06-1.73-.06h-1.56A31.93,31.93,0,0,0,295.2,9v7.47q0,1.74,0,3.39a4.05,4.05,0,0,0,.19,1.44.84.84,0,0,0,.47.34,8.67,8.67,0,0,0,1.85.14v.81c-1.52-.06-2.67-.1-3.44-.1l-4,.1v-.81a8.47,8.47,0,0,0,1.84-.14.75.75,0,0,0,.45-.3,2.94,2.94,0,0,0,.2-1.24c0-.18,0-1.39.07-3.63V9.06q0-.54,0-1.17l-.07-2.16h-1.91a22.46,22.46,0,0,0-2.62.12.6.6,0,0,0-.4.17,4.48,4.48,0,0,0-.25,1.39Z"/><path d="M25.83,0h-15l1.79,2.4L8.7,4.4,6.1.93,7.81,0H1.75A1.75,1.75,0,0,0,0,1.75V25.84a1.74,1.74,0,0,0,1.75,1.74H5.48L11.9,6.79l4.49.86-.87,2.79.06,0a5.43,5.43,0,0,1,5.5-1.36c4.46,1.37,6.28,6.43,5,10.64A8.5,8.5,0,0,1,15.82,25.3c-1.52-.46-3.15-1.39-3.56-3l-.06,0-1.64,5.31H25.83a1.75,1.75,0,0,0,1.76-1.74V1.75A1.75,1.75,0,0,0,25.83,0ZM5.94,21.47l-4.78-.95L5.89,5.19l4.78,1Zm15.54-3.33A4.15,4.15,0,0,0,18.93,13a4.17,4.17,0,0,0-2.45,8A4.13,4.13,0,0,0,21.48,18.14Z"/></g></g></svg>