<svg xmlns="http://www.w3.org/2000/svg" viewBox="0 0 512 512">
  <title>herald-leader</title>
  <g id="Layer_2" data-name="Layer 2">
    <g id="Art">
      <rect width="512" height="512" fill="#064d73"/>
      <g>
        <rect x="247.7" y="244.4" width="49" height="31.26" fill="#fff"/>
        <g>
          <path d="M45.3,356.6c7.5-.4,12.8-1.6,15.8-3.6,5.2-3.3,7.8-9.7,7.8-19.1V177.6c0-9.2-2.3-15.4-6.9-18.7-2.9-1.9-8.4-3.3-16.7-4.2v-8.2h94.5v8.2c-8.2.5-13.8,1.8-17,3.8-5.3,3.3-7.9,9.7-7.9,19.1v66.9h66.5V177.6c0-9.4-2.5-15.7-7.5-19-3.1-2-8.9-3.3-17.3-3.9v-8.2h95v8.2c-8.2.7-13.7,2.1-16.7,4.1-5,3.2-7.5,9.5-7.5,18.8V333.9c0,9.5,2.7,15.9,8.3,19.3,3.1,2,8.5,3.1,15.9,3.4v8.2h-95v-8.2c8-.3,13.7-1.5,17-3.7,5.2-3.4,7.8-9.7,7.8-19V259.4H114.9v74.5c0,9.6,2.8,16.1,8.4,19.4q5,2.8,16.5,3.3v8.2H45.3Z" fill="#fff"/>
          <path d="M293.6,357.3c7.7-.3,13.1-1.4,16.4-3.4,5.6-3.4,8.3-9.8,8.3-19.3V178.2c0-9.4-2.6-15.8-7.9-19.1-3.1-2-8.7-3.2-16.8-3.8v-8.2h97.7v8.2c-11.4.5-19,2.3-22.8,5.6s-5.6,11.3-5.6,24.1V337.6c0,7.2,1.6,11.9,4.8,14.2s9.6,3.5,18.9,3.5c16.8,0,30.9-4.3,42.3-12.8s21.3-25.4,29.6-50.2h8.2l-11.4,73.2H293.6Z" fill="#fff"/>
        </g>
      </g>
    </g>
  </g>
</svg>
