<?xml version="1.0" encoding="utf-8"?>
<!-- Generator: Adobe Illustrator 23.0.6, SVG Export Plug-In . SVG Version: 6.00 Build 0)  -->
<svg version="1.1" id="Art" xmlns="http://www.w3.org/2000/svg" xmlns:xlink="http://www.w3.org/1999/xlink" x="0px" y="0px"
	 viewBox="0 0 512 512" style="enable-background:new 0 0 512 512;" xml:space="preserve">
<style type="text/css">
	.st0{fill:#002A5C;}
	.st1{fill:#93B1D7;}
	.st2{fill:#FFFFFF;}
</style>
<g>
	<rect class="st0" width="512" height="512"/>
	<g>
		<path class="st1" d="M316.2,88.6c39.7,28.9,79.1,57.4,117.6,86.9l78.2-36.8V0H316.4L316.2,88.6z"/>
		<path class="st1" d="M0,25.1c10.8,31,21.1,62.3,31.6,93.9l119.1,56.7c39.3-30.1,79.6-59.1,120.9-89L271.8,0H0V25.1z"/>
		<path class="st1" d="M111.3,441l69.4-77.2c-18.1-48.1-33.6-97.3-47.7-146.7L22.7,164.4c-7.6,5.7-15.2,11.4-22.7,17v249
			C36.6,433.5,73.5,437.3,111.3,441z"/>
		<path class="st1" d="M446.5,480.7L367.4,392c-50.4,2.5-101.1,2.2-151.4-0.5l0,0l-87.6,97.4c1.7,7.7,3.4,15.4,5.1,23.1h305.9
			C441.7,501.6,444.1,491.1,446.5,480.7z"/>
		<path class="st1" d="M512,188.2l-59.2,27.9c0,0.1,0,0.1,0,0.2c-14.7,50.3-30.2,100.5-48.8,149.4l67,75.1
			c13.8-1.3,27.5-2.6,41.1-3.9L512,188.2L512,188.2z"/>
	</g>
	<g>
		<path class="st2" d="M69.1,239.5h46.3v14.7H88.7v14.9h24.2v14.7H88.7v16.9h27.2v14.7H69.1V239.5z"/>
		<path class="st2" d="M123.5,315.4l23.5-39.7l-21.4-36.2h21.2l12.2,20.6l11.8-20.6h17.6L167.8,275l23.8,40.4h-21.2l-14.7-24.9
			l-14.6,24.9H123.5z"/>
		<path class="st2" d="M214.6,254.2h-19.2v-14.7h58.1v14.7h-19.2v61.2h-19.6L214.6,254.2L214.6,254.2z"/>
		<path class="st2" d="M263.3,239.5h31.1c13.7,0,24.8,7.9,24.8,23.8c0,10.6-6.3,17.5-14,21l17.4,31.1h-20.8l-16-28.6h-3v28.6h-19.6
			v-75.9H263.3z M282.8,254.1v20.4h7.8c5.9,0,9.6-3.9,9.6-10.5s-3.8-9.8-9.6-9.8L282.8,254.1L282.8,254.1z"/>
		<path class="st2" d="M352.5,239h14.1l27.8,76.4h-19.7l-3.7-11.1h-25.4l-3.7,11.1h-17L352.5,239z M358.2,266.9l-8.1,23.9h16.2
			L358.2,266.9z"/>
		<path class="st2" d="M82.8,352.9H63.5v-14.7h58.1v14.7h-19.2v61.2H82.8V352.9z"/>
		<path class="st2" d="M131.4,338.2H151v75.9h-19.6V338.2z"/>
		<path class="st2" d="M161.5,414.1l7.5-75.9h15.8l17.4,47.6l18.2-47.6h5.8v0.1l0.1-0.1h8.3l7.5,75.9h-18.7l-2.6-38.1l-15.2,38.1
			h-10l-14.4-38.3l-3,38.3H161.5z"/>
		<path class="st2" d="M252.7,338.2H299v14.7h-26.7v14.9h24.2v14.7h-24.2v16.9h27.2v14.7h-46.7v-75.9H252.7z"/>
		<path class="st2" d="M335.2,414.1v-75.9h19.6v33l21.7-33H396l-23.8,35.9l26.1,40h-21.9l-21.7-34v34H335.2z"/>
		<path class="st2" d="M460,410c-5.5,3.6-13.3,5.3-21.4,5.3c-20.8,0-38.4-12.5-38.4-38.3c0-25.9,17.2-39.9,38.5-39.9
			c9.5,0,16,1.5,20.6,3.8l-4.8,15.4c-3.3-1.9-8.8-3.1-13.1-3.1c-13,0-21.3,8.5-21.3,23.7c0,15.3,8.8,22.5,20.2,22.5
			c6.1,0,11.2-1.8,14.7-3.8L460,410z"/>
	</g>
</g>
</svg>
