<?xml version="1.0" encoding="utf-8"?>
<!-- Generator: Adobe Illustrator 23.0.6, SVG Export Plug-In . SVG Version: 6.00 Build 0)  -->
<svg version="1.1" id="Art" xmlns="http://www.w3.org/2000/svg" xmlns:xlink="http://www.w3.org/1999/xlink" x="0px" y="0px"
	 viewBox="0 0 512 512" style="enable-background:new 0 0 512 512;" xml:space="preserve">
<style type="text/css">
	.st0{fill:#98002E;}
	.st1{fill:#FFFFFF;}
	.st2{fill:#0021A5;}
	.st3{fill:none;stroke:#FFFFFF;stroke-width:5.3333;stroke-miterlimit:10;}
	.st4{fill:#F04C24;stroke:#FFFFFF;stroke-width:5.3333;stroke-miterlimit:10;}
	.st5{fill:#FA4616;}
	.st6{fill:#782F40;}
	.st7{fill:none;stroke:#FFFFFF;stroke-width:5.3378;stroke-miterlimit:10;}
	.st8{fill:#F04C24;stroke:#FFFFFF;stroke-width:5.3378;stroke-miterlimit:10;}
	.st9{fill:#CEB888;}
	.st10{fill:#0077C8;}
	.st11{fill:none;stroke:#000000;stroke-width:10.6667;stroke-miterlimit:10;}
	.st12{fill-rule:evenodd;clip-rule:evenodd;}
	.st13{fill-rule:evenodd;clip-rule:evenodd;stroke:#000000;stroke-width:2.6667;stroke-miterlimit:10;}
	.st14{fill:#005030;}
	.st15{fill:#F47321;}
	.st16{fill:#FCEE21;}
	.st17{fill:#E8E7E7;}
	.st18{fill:#A21D3E;}
	.st19{fill:#D98227;}
	.st20{fill:#72BE44;}
	.st21{fill:#231F20;}
	.st22{fill:#CAC8C8;}
	.st23{fill:#0033A0;}
	.st24{fill:#3A578C;}
	.st25{fill:#69BE28;}
	.st26{fill:#80A27B;}
	.st27{fill:#F7C421;}
	.st28{fill:#0039A6;}
	.st29{fill:#F9461C;}
	.st30{fill:#F2F2F2;}
	.st31{fill:#0085CA;}
	.st32{fill:#008CA8;}
	.st33{fill:#FFFFFF;stroke:#FFFFFF;stroke-width:5.3378;stroke-miterlimit:10;}
	.st34{fill:#1D1160;}
	.st35{fill:#FF0000;}
	.st36{fill:#DA291C;}
	.st37{fill:#1E4971;}
	.st38{fill:#5DA423;}
	.st39{fill:#C41230;}
	.st40{fill:#004B8D;}
	.st41{fill:#E4E416;}
	.st42{fill:none;stroke:#FFFF00;stroke-width:10.6667;stroke-miterlimit:10;}
	.st43{fill:url(#SVGID_1_);}
	.st44{fill-rule:evenodd;clip-rule:evenodd;fill:#FCD6C2;}
	.st45{fill-rule:evenodd;clip-rule:evenodd;fill:#FFFFFF;}
	.st46{clip-path:url(#SVGID_3_);}
	.st47{fill-rule:evenodd;clip-rule:evenodd;fill:#231F20;}
	.st48{fill-rule:evenodd;clip-rule:evenodd;fill:none;}
	.st49{fill-rule:evenodd;clip-rule:evenodd;fill:url(#SVGID_4_);}
	.st50{fill:url(#SVGID_5_);}
	.st51{filter:url(#Adobe_OpacityMaskFilter);}
	.st52{fill-rule:evenodd;clip-rule:evenodd;fill:url(#SVGID_7_);}
	.st53{mask:url(#SVGID_6_);}
	.st54{fill-rule:evenodd;clip-rule:evenodd;fill:#FBE5D5;}
	.st55{fill:url(#SVGID_8_);}
	.st56{fill:url(#SVGID_9_);}
	.st57{fill:url(#SVGID_10_);}
	.st58{fill:url(#SVGID_11_);}
	.st59{opacity:0.55;fill:url(#SVGID_12_);}
	.st60{opacity:0.55;fill:url(#SVGID_13_);}
	.st61{opacity:0.55;fill:url(#SVGID_14_);}
	.st62{opacity:0.55;fill:url(#SVGID_15_);}
	.st63{clip-path:url(#SVGID_17_);fill:url(#SVGID_18_);}
	.st64{opacity:0.46;fill:#FFFFFF;}
	.st65{opacity:0.61;fill:url(#SVGID_19_);}
	.st66{filter:url(#Adobe_OpacityMaskFilter_1_);}
	.st67{opacity:0.49;mask:url(#SVGID_20_);}
	.st68{fill:url(#SVGID_21_);}
	.st69{fill:#007980;}
	.st70{fill:#219DA7;}
	.st71{fill:#F04C24;}
	.st72{fill:#7AB2DD;}
	.st73{fill:#004687;}
	.st74{fill:#002A5C;}
	.st75{fill:#93B1D7;}
	.st76{fill:#CA2430;}
	.st77{fill:#9E1721;}
	.st78{fill:#0050BA;}
	.st79{fill:#E8000D;}
	.st80{clip-path:url(#SVGID_23_);fill:#E4A710;}
	.st81{clip-path:url(#SVGID_25_);}
	.st82{fill:#FFDD15;}
	.st83{filter:url(#Adobe_OpacityMaskFilter_2_);}
	.st84{opacity:0.3;mask:url(#SVGID_26_);}
	.st85{fill:#FAAF40;}
	.st86{opacity:0.2;clip-path:url(#SVGID_25_);}
	.st87{opacity:0.5;clip-path:url(#SVGID_25_);fill:#FAAF40;}
	.st88{clip-path:url(#SVGID_25_);fill:#FFCA05;}
</style>
<g>
	<rect y="0" class="st78" width="512" height="512"/>
	<path class="st79" d="M222,0c-5.6,17.5-3,36.9,7.7,58.8C275.2,33,326.6,13.4,383.4,0H222z"/>
	<path class="st79" d="M162.8,512h301.6C263,428.2,150.1,330,86.9,244.4c-9.4,15.9-17.7,31.9-24.8,47.9
		C124.4,344,150.7,424.1,162.8,512z"/>
	<path class="st79" d="M37.6,161.7C9,99,2.2,44.5,2.2,7C1.5,7.8,0.7,8.6,0,9.4v254.8c11.1,0.4,22.2,3.4,33.4,8.8
		c9.1-19.7,19.9-39.6,32.4-59.3C54.4,195.5,45.1,178.1,37.6,161.7z"/>
	<path class="st79" d="M187.1,0H36.3c-0.8,33.8,4.2,87.5,33.2,149.9c5,10.7,10.8,21.8,17.5,33.4c6.7-8.8,13.7-17.5,21.2-26.1
		c27-30.8,57.8-57.6,92.3-80.5C186.8,49.5,182.3,23.9,187.1,0z"/>
	<path class="st79" d="M512,15.3c-103.4,7.4-191.8,31.7-264.4,72.5C306.3,164.7,424,193.8,512,204V15.3z"/>
	<path class="st79" d="M512,238.2c-97.8-11.3-228.8-45.6-293.5-132.6c-31.8,21.1-60.1,45.9-84.9,74.1c-9.8,11.2-18.7,22.6-26.9,34.2
		c61.3,87.8,179,192.6,404,280c0.4-0.5,0.9-1,1.3-1.4V238.2z"/>
	<path class="st79" d="M0,298.3v69.2c5.2-20.2,11.7-41.4,20.1-63.1C13.2,300.7,6.5,298.8,0,298.3z"/>
	<path class="st79" d="M128.6,512c-10.7-74.6-32.6-141.9-80.1-186.4c-29.8,82.2-33,156.4-32.9,186.1c0.1,0.1,0.2,0.1,0.2,0.2H128.6z
		"/>
	<g>
		<path class="st1" d="M113.3,309.2v-77.9h20.1v33.9l22.3-33.9h20.1l-24.5,36.8l26.9,41.1h-22.5l-22.3-34.9v34.9H113.3z"/>
		<path class="st1" d="M217.4,294.9c6.8,0,11.7-3.5,11.7-13.5v-50.1h18.4v48.4c0,20-11.8,31.1-31.1,31.1
			c-18.8,0-31.1-10.1-31.1-31.1v-48.4h20.1v50.1C205.3,291.9,210.6,294.9,217.4,294.9z"/>
		<path class="st1" d="M113.3,329.9h20.1v30.4h24.7v-30.4h20.1v77.9h-20.1v-32.4h-24.7v32.4h-20.1V329.9z"/>
		<path class="st1" d="M228.9,409.6c-19.5,0-38.4-13.9-38.4-40.2c0-26,18.9-41.1,38.4-41.1c19.6,0,38.5,15.1,38.5,41.1
			C267.4,395.4,248.6,409.6,228.9,409.6z M228.9,393.2c10.2,0,18-7.8,18-24c0-16.2-7.7-24.4-18-24.4c-10.1,0-17.8,8.2-17.8,24.4
			C211.1,385.5,218.8,393.2,228.9,393.2z"/>
		<path class="st1" d="M314.6,409.6c-19.5,0-38.4-13.9-38.4-40.2c0-26,18.9-41.1,38.4-41.1c19.6,0,38.5,15.1,38.5,41.1
			C353.1,395.4,334.2,409.6,314.6,409.6z M314.6,393.2c10.2,0,18-7.8,18-24c0-16.2-7.7-24.4-18-24.4c-10.1,0-17.8,8.2-17.8,24.4
			C296.8,385.5,304.5,393.2,314.6,393.2z"/>
		<path class="st1" d="M365.4,329.9H395c15.1,0,26.4,8.6,26.4,25.8c0,17-13.2,24.6-26.4,24.6h-9.6v27.5h-19.9V329.9z M385.4,345.1
			v20.8h6.8c6.2,0,10-3.5,10-10.4c0-6.8-3.9-10.4-10-10.4H385.4z"/>
		<path class="st1" d="M457.1,344.8c-5,0-9.1,1.6-9.1,6c0,4.9,8.7,6.7,16.4,10c8.6,3.7,17.3,9.8,17.3,22.8c0,16.2-11.1,25.6-29,25.6
			c-12.3,0-19.2-2.8-24.8-6.8l5.3-15.8c5.2,3.4,10.4,6.1,19,6.1c7.5,0,11-2.4,11-6.4c0-6.4-6.9-7.7-15.1-11.2
			c-7.7-3.3-18-9.3-18-22.4c0-14.6,9.7-24,27.4-24c10.3,0,17.2,2.6,22,5.4l-4.8,15.4C471,347.2,464,344.8,457.1,344.8z"/>
	</g>
</g>
</svg>
