<?xml version="1.0" encoding="utf-8"?>
<!-- Generator: Adobe Illustrator 23.0.6, SVG Export Plug-In . SVG Version: 6.00 Build 0)  -->
<svg version="1.1" id="Art_1_" xmlns="http://www.w3.org/2000/svg" xmlns:xlink="http://www.w3.org/1999/xlink" x="0px" y="0px"
	 viewBox="0 0 512 512" style="enable-background:new 0 0 512 512;" xml:space="preserve">
<style type="text/css">
	.st0{clip-path:url(#SVGID_2_);}
	.st1{fill:#E4A710;}
	.st2{fill:#AD8631;}
	.st3{fill:#FFFFFF;}
</style>
<g>
	<defs>
		<rect id="SVGID_1_" width="512" height="512"/>
	</defs>
	<clipPath id="SVGID_2_">
		<use xlink:href="#SVGID_1_"  style="overflow:visible;"/>
	</clipPath>
	<g class="st0">
		<g>
			<rect x="-2.6" y="-2.6" class="st1" width="517" height="517.1"/>
			<path id="tiger" class="st2" d="M392.6,114c-0.2,1.5-0.4,3.1-0.7,4.7c-1.1,5.1-2.7,10.1-4.8,14.9c-0.8,1.9-1.8,3.7-2.6,5.6
				c-0.5,1-0.8,2.1-0.9,3.2c-0.2,2.3-0.3,4.5-0.4,6.8c-0.3,8.3-0.4,16.6-0.8,24.9s-0.7,14.4-1.3,21.5c-0.9,11.8-2.4,23.6-4.7,35.3
				c-1,5.3-2.5,10.5-4.5,15.5c-1.2,2.8-2.8,5.4-4.9,7.6c-8.9,9.6-19.2,17.3-30.2,24.3c-7.6,4.8-15.6,8.9-24,12.3
				c-4.2,1.8-8.6,3.1-13.1,3.9l-4,0.4c0-0.7-0.1-1.3-0.1-1.8v-47.6c0-1.7,0-1.7,1.8-2.2l5.3-1.4c0.8-0.2,1.6-0.7,2-1.4
				c7.3-10.2,13-21.4,16.9-33.3c2.2-7,3.7-14.1,4.5-21.4c0.9-7.2,0.7-14.4,0.6-21.7c0-0.7-0.3-1.4-0.7-2
				c-3.8-5.7-7.3-11.5-10.5-17.6l-15.8-30.6c-0.4-1-1.3-1.7-2.3-2c-1.8-0.4-1.8-0.5-1.8-2.3V86.3c0-0.5,0.1-1,0.1-1.6l1.6,0.4
				l17.3,7.5c2.1,1.8,4.6,1.8,7.2,1.6l13.6-0.7c1,0,1.9-0.2,2.7-0.8l-5.2-2.1c-11.7-4.3-23.6-8.3-35.7-11.6c-1.5-0.4-1.6-0.5-1.6-2
				V60.5c0-0.3,0.1-0.7,0.1-1.3l1.8,0.4c6.2,1.8,12.4,3.4,18.6,5.4c10.3,3.3,20.5,6.6,30.7,10.1c10.1,3.4,19.9,7.2,29.6,11.6
				c3.2,1.3,6.2,3.1,8.9,5.4c3.8,3.6,6.4,8.4,7.1,13.6c0,0.5,0.1,1,0.2,1.5V114z M322.7,247.8c0.5-0.4,0.9-0.8,1.3-1.2l3.4-3.6
				c7.4-7.9,12.9-17.5,15.8-27.9c1.7-6.3,3.5-12.7,4.9-19.1c2.6-11.1,4.3-22.4,5.8-33.7c0.1-1.2,0.2-2.3,0.3-3.7l-0.9,0.4
				c-1.9,1.5-3.8,3-5.6,4.7c-1.5,1.3-2.5,3.1-2.7,5.1c-0.3,2.9-0.8,5.7-1.5,8.5c-2,10.5-4.6,20.8-7.6,31
				c-2.7,9.7-6.2,19.1-10.6,28.2l-3.5,6.6c-0.5,0.8-0.6,1.9-0.1,2.8L322.7,247.8z M99.4,524.4c0-0.8-0.1-1.4-0.1-2
				c0-8.5,0-17-0.1-25.5c-0.1-1.2,0.6-2.3,1.7-2.6c0.8-0.3,1.6-0.8,2.3-1.3c0.7-0.5,1.7-0.4,2.3,0.2c3,2.2,5.2,5.3,6.4,8.8
				c0.1,0.5,0.3,1,0.5,1.4c0,0.1,0.1,0.1,0.3,0.2c0.5-0.4,1-0.9,1.5-1.4c2.8-3,4.8-6.5,6-10.4c0.2-0.9,1-1.6,1.9-1.5h1.2
				c8.1-0.1,16.2-0.6,24.2-1.4c7.8-0.7,15.5-1.9,23.2-3.4c7.1-1.6,14-3.7,20.7-6.5c7.1-2.9,14-6.3,20.9-9.8
				c6.3-3.4,12.5-7.1,18.4-11.2c3.6-2.4,4.6-6,5.1-10c0.6-6.6-1.6-12.3-4.8-17.8c-3.8-6.5-9-12-15.4-16c-3.3-2.3-7.3-3.5-11.3-3.5
				c-1.8,0-3.5,0.4-5.1,1.2c-10.2,5.1-20.9,8.8-31.8,12.2c-6,1.9-12.2,3.5-18.3,5.1c-5.4,1.4-10.9,2.4-16.4,2.9
				c-3.7,0.3-7.6,0.6-11.3-0.3c-2.9-0.9-5.8-1.9-8.6-3c-4.1-1.6-8.1-3.5-11.9-5.7c-1.1-0.5-1.8-1.6-1.7-2.8
				c0.1-21.8,0.2-43.5,0.1-65.2c0-2,0.4-4.1,1-6c3.6-12.1,8.9-23.6,15.8-34.1c2.4-3.7,5.1-7.3,7.5-10.9c-2.2,0.9-8,6-13.4,12.1
				c-4,4.6-7.6,9.7-10.5,15.1h-0.3c-0.1-0.6-0.1-1.1-0.1-1.7c0-30.7,0-61.5-0.1-92.3c-0.1-1.2,0.6-2.4,1.6-3.1
				c6.4-4.5,13.2-8.5,20.3-12c2.6-1.2,5.2-2.4,7.9-3.4c7.9-2.9,16.1-5.2,24.4-6.7c6.8-1.3,13.7-1.8,20.6-1.6
				c0.9,0.1,1.8,0.3,2.7,0.7l13.4,7.8c8.2,4.6,16.4,9.4,24.6,13.9s13.8,7.4,20.7,11c3.5,1.8,7.1,3.3,10.7,4.9
				c0.5,0.2,1.1,0.3,1.6,0.3l6.3-0.2c7.2-0.2,14.3-0.8,21.5-1.6s12.2-1.8,18.2-3.1h1.1c0.4,1.3,0.4,49,0.1,50.9l-1.6,0.4l-9.6,0.7
				l-13.2,0.7c-1.4,0.1-2.7,0.8-3.5,1.9c-4.5,5.8-9.4,11.3-14.9,16.2c-9.6,8.8-19.8,16.7-31.5,22.4c-2.8,1.5-5.9,2.6-9,3.1
				c-0.6,0.1-1.2,0.1-1.8,0c-1.6-0.3-2.3-1-2.3-2.7s0.3-5.2,0.5-7.8c0.4-4.2,0.9-8.4,1.3-12.6c0.2-2,0.2-4.1,0.3-6.1
				s-0.2-1.5-1.5-1.8c-3.1-0.7-3.1-0.7-5.4,1.7c-6.8,6.9-14.6,12.4-22.9,17.4c-4.7,3-9.7,5.4-15,7.1c-1.4,0.5-2.9,0.8-4.4,0.9
				c-2.3,0.1-3.1-1-2.6-3.2s1.6-6.6,2.3-9.9s0.8-5.3,1.2-7.9c0.1-0.6,0.1-1.1,0-1.7l-0.8,0.4c-6.2,5-12,10.3-17.4,16.1
				c-3.6,3.7-7,7.8-10,12c-2.6,3.8-5,7.7-5.8,12.3c-0.8,4.6-1.1,7.8-1.5,11.6s-0.7,6.7-0.9,10c-0.3,6.4-0.9,12.8-0.2,19.2
				c0.2,2.5,0.6,5.1,0.8,7.7s1.5,2.9,3.3,3.3c2.6,0.5,5.2,0.4,7.7-0.5c3.6-1,7.2-2.3,10.8-3.6c0.9-0.4,1.7-0.9,2.3-1.6
				c5.9-6.2,11-13.1,15.1-20.6c2.7-5,4.9-10.3,6.5-15.7c1.4-4.4,2.9-8.8,4.5-13.1c0.7-2.3,2-4.4,3.6-6.1c2-1.9,4-2.1,6.3-0.6
				c1.7,1.2,3.1,2.7,4.1,4.5c3.1,4.8,5.1,10.1,6,15.7c1,5.5,1.4,11.1,1.4,16.7c0,2.6,0.1,2.5,2.7,2.4s3.8-1.4,4.9-3.2s4-6.3,5.9-9.5
				c3.4-5.8,5.9-12,8.5-18.1c0.7-1.4,1.5-2.8,2.5-4c0.9-1.1,2.5-1.4,3.7-0.6c0.8,0.3,1.5,0.8,2.2,1.3c3.6,2.8,6.1,6.8,7.3,11.2
				c1.5,5.4,2.3,11,2.4,16.6c0,2.3,0.3,4.7,0.2,7.1s-0.3,7.4-0.5,11.2c-0.2,0.8,0.1,1.6,0.7,2.1c4.2,3.2,7.4,7.3,10.6,11.4
				c5.1,6.3,9.7,12.9,13.8,19.9c3.6,6.2,6.9,12.6,8.9,19.6c1.2,4.4,1.2,9.1-0.2,13.5c-1.8,5.5-4.3,10.7-7.4,15.6
				c-6,9.6-12.7,18.7-20.1,27.3c-5.2,6.2-10.6,12.2-16.4,17.9c-0.8,0.8-1.8,1.2-2.9,1.1H99.4z M256.8,268.5l-1.7-0.6l-7.5-1.4
				c-4.2-0.5-8.3-1.4-12.2-2.9c-4.2-1.8-8.5-3.4-12.6-5.4c-9.6-4.5-18.9-9.6-28.1-14.7l-23.1-13c-1.7-0.9-3.6-1.3-5.5-0.9
				c-3.7,0.6-7.4,1.6-10.9,3.1c-2.4,1-4.7,2.2-7,3.5c-0.7,0.4-1.3,1-1.5,1.8l0.9,0.2l5.2,0.7c8.1,1.1,15.9,3.9,22.9,8
				c3.7,2.3,7.2,4.9,10.8,7.3c0.5,0.4,0.9,0.9,1.1,1.5c0.6,1.9,1.3,3.9,1.7,5.8c1.3,6.7,0.6,13.5-0.2,20.1c-1,7.5-2.5,14.8-4.5,22.1
				c-0.1,0.5-0.2,1-0.3,1.8c0.6-0.2,1.2-0.4,1.8-0.7c1.6-1,3.1-2,4.5-3.2c5.3-4.8,9-10.7,12.2-16.8c4.1-7.9,7.5-16.2,10.3-24.7
				c0.2-0.6,0.5-1.1,0.7-1.7h0.3c1,5.3,1.1,10.8,0.1,16.2c1,0.2,2,0,2.8-0.6l6.3-4.2l1.1-0.6c0.1,2.6-0.9,4.8-0.9,7.1
				c1,0.3,2,0.1,2.8-0.5c3-1.5,5.5-3.7,7.5-6.4l1.1-1.2c0.2,0.2,0.3,0.3,0.3,0.4c0.1,0.1,0.2,0.3,0.2,0.5c-0.3,2.8-0.5,5.6-1.7,8.2
				c-0.3,0.9-0.5,1.8-0.6,2.8c-0.1,4-0.1,8-0.4,12s-0.9,9-1.5,13.5c-0.3,2.2-0.7,4.3-1.1,6.8l2-1.3c1.7-1.5,3.6-2.8,5.2-4.4
				c4.3-4.2,7.8-9,10.6-14.3c3.3-6,5.8-12.3,7.6-18.9C255.9,271.9,256.3,270.3,256.8,268.5z M184.7,369.1c-1.1,0.3-1.2,1.1-1.4,1.8
				c-0.8,2.3-1.5,4.6-2.4,6.9c-3.3,8.8-7.2,17.3-11.7,25.6c-0.5,1-1.3,1.8-2.3,2.3l-14.6,7.3c-1.5,0.7-2.9,1.6-4.4,2.4
				c0.6,0.1,1.1,0,1.7-0.1c14.9-4.4,29.7-9.4,44.4-14.5c3.2-1.2,6.4-2.2,9.7-3c3.7-0.8,7.5-0.7,10.9,1.6c1.3,0.9,2.6,1.9,3.8,3
				l1.8,1.4c0.5-0.8,0.9-1.7,1.2-2.6c1.2-4.7,2.5-9.4,3.4-14.2s1.5-8.7,0.7-13.1c-0.2-1.3-0.6-2.5-1.1-3.7c-0.4-0.9-1.1-0.9-1.7,0
				l-0.6,1.3c-2.7,6.8-6.3,13.2-10.7,19.1c-0.6,1-1.7,1.6-2.9,1.6c-2.8,0.1-5.6,0.4-8.3,0.9c-3.8,0.7-7.5,1.6-11.2,2.5l-1.8,0.3
				v-2.4c0.1-6.5-0.3-12.9-1.1-19.3C186,372.4,185.5,370.7,184.7,369.1z M194.5,55.9l-1-0.9c-10.6-6.5-21.5-12.4-32.7-17.6
				c-6.7-3.1-13.5-5.8-20.5-8.2c-10-3.6-20.4-6.1-30.9-7.6l-8.8-0.9l-1-0.2c-0.4-1.3-0.5-17.8,0-19.7h45.7c1.1,0,2.1,0.2,3.1,0.6
				c10,3.7,19.8,8,29.2,12.9l27.8,14.8c7.7,4.1,15.4,8.1,23.2,12c5.2,2.5,10.6,4.6,16.2,6.1c2.9,0.8,5.9,1.4,8.9,1.8
				c12.4,2.4,24.6,5.4,36.7,8.6l3.6,1c0.7,0.2,1.1,0.5,1.1,1.3c0,6,0,12-0.1,18l-0.2,0.3l-1.8-0.3c-7.9-1.8-15.7-3.8-23.6-5.4
				s-14.5-2.3-21.8-3.3c-4.1-0.5-8.1-0.7-12.2-1c-0.6-0.1-1.2-0.1-1.7,0.2l2.2,0.5c11.5,2.3,22.9,4.9,34.3,7.8
				c7.7,2,15.5,4.2,23,6.9c1.9,0.7,1.9,0.7,1.9,2.7v24.8l-1.8-0.4l-41.2-12l-17.5-4.9c-18.3-5.1-36.6-10.2-54.9-15.1
				s-33.9-9-50.9-13.3c-4.7-1.2-9.6-1.8-14.4-2.6l-13.2-2.2c-1.9-0.4-1.9-0.4-1.9-2.3v-18c0-1.8,0-1.8,1.7-2.4l5.4-2.1
				c4.7-1.7,9.8-1.8,14.6-0.4c7.1,2.1,13.8,5.4,19.7,9.8c4.4,3.1,8.6,6.5,12.5,10.2c0.7,0.7,1.7,0.9,2.6,0.8L175,56L194.5,55.9
				L194.5,55.9z M103.9,50.4l0.2,0.4c8.4,1.3,16.5,3.8,24.7,6.1c-0.8-1.7-1.7-3.3-2.6-4.9c-2.3-3.8-6.1-6.5-10.5-7.3
				c-1.8-0.5-3.7-0.3-5.2,0.7c-1.4,1-2.9,1.9-4.2,2.9C105.5,48.9,104.7,49.6,103.9,50.4z M97.4,236.5l-7.5,6.1
				c-6.1,5.2-11.6,10.8-16.7,17c-5.5,6.6-10.4,13.6-14.7,21c-3.8,6.4-7.1,13-10.1,19.8c-4.9,11.6-8.7,23.5-11.4,35.8
				c-1.6,7-2.6,14.1-2.9,21.2c-0.1,4.5,0.3,9,1.1,13.5c0.9,4.9,2.7,9.6,5.1,14c0.4,0.9,1.3,1.5,2.3,1.6l2.5,0.3
				c7.4,1.4,14.5,4.3,20.9,8.3c7.4,4.6,14.2,10.2,20.1,16.6c3.3,3.4,7,6.5,11,9.2l1.2,0.5c0.4-1.8,0.4-63.6,0-65
				c-1.3,5.7-2.1,11.6-2.4,17.5c-0.4,7.4,0.1,14.8,1.5,22c0.1,0.3-0.1,0.7-0.1,1.2s-0.8-0.5-1-0.8l-9.2-8.7c-0.7-0.6-1.1-1.5-1-2.4
				c0.1-2.7,0.1-5.3,0.4-8c0.6-4.6,1.2-9.3,1.9-13.9c1.7-9.7,4.7-19.2,9.1-28c0.7-1.5,1.1-3.1,1.1-4.7v-94.9L97.4,236.5z M96.1,186
				l-12.2,0.6L67,187.3L51.1,188l-19.7,1l-22.8,1.4l-0.9,0.3c0.6,0.2,1.3,0.4,1.9,0.4l13.4,0.3l18,0.3h11.5c1.1-0.1,2.2,0.1,3.2,0.6
				c-0.1,0.4-0.3,0.8-0.5,1.2c-2.1,4.7-4.6,9.2-7.3,13.6c-0.8,1.3-1.9,2.3-3.2,2.9c-17,8.3-31.7,20.6-42.9,35.8
				c-0.6,0.8-0.9,1.8-0.9,2.8v148c-0.1,1.1,0.5,2.1,1.4,2.6l15.4,10.2l1,0.4c-0.1-0.5-0.1-0.9-0.2-1.3c-2-7.8-3.5-15.8-4.6-23.8
				c-0.8-6.8-1.3-13.6-1.5-20.4c-0.1-6.9,0.2-13.8,0.9-20.7c0.6-6.1,1.6-12.2,3-18.2c2.5-10.2,5.8-20.3,9.9-30
				c3.4-8.3,7.4-16.4,12-24.1c9-15.7,20.4-29.8,33.8-42c7.6-6.9,16-13,25-18c1.1-0.5,1.7-1.6,1.6-2.8v-22.3L96.1,186z M98.6,522.9
				v-25.8c0-0.4-0.2-0.8-0.3-1.5c-9.9,4.3-20.5,6.8-31.3,7.1l4.1-4.4c2.8-3.1,5-6.8,6.3-10.8c0.6-1.8,1-3.7,1.2-5.6
				c0.2-0.9-0.2-1.9-0.9-2.5c-1-1.1-2-2.4-3.1-3.5c-7.2-7.3-14.3-14.7-22.2-21.2c-5.9-4.8-11.8-9.5-18-13.9
				c-6.2-4.3-12.6-8.3-19.2-11.9c-4.2-2.2-8.5-4.2-12.8-6.3L1,422.2v102.1h97.4C98.4,523.9,98.6,523.4,98.6,522.9z M98.6,146v-29
				c0-3.2,0.4-2.9-2.8-3.4L70,109.5l-25.2-3.7l-22-3.1l-11.1-1.4c1.1-0.1,2.1-0.2,3.2-0.1l15.9,1.3l12.8,1.1l14.5,1.6l19.4,2.1
				l18.3,2.3l2.6,0.2c0.1-0.5,0.2-1,0.2-1.5V73.8c0-1.5-0.2-1.7-1.7-1.9C90,71,83.1,70.4,76.2,70.3c-6.2-0.1-12.4,0.1-18.6,0.3
				c-3.3,0.1-6.6,0.3-9.8,0.7c-5.9,0.6-11.8,1.4-17.7,2.2c-9.3,1.2-18.4,3.1-27.5,5.1L1,79.1v36.1l2.4,0.5c4.1,0.6,8.1,1,12.1,1.8
				c9.2,1.8,18.1,4.7,26.1,9.6c7.6,4.4,13.6,10.9,17.4,18.8c0.3,0.9,1.2,1.5,2.1,1.4h6.7c5.4,0.1,10.7,0.4,16,0.6l12.8,0.6l2-0.2
				L98.6,146z M99.3,73.9v34.3c0,1.6,0.1,1.8,1.6,2l9,1.1l17.1,2.2l21.5,2.9l21.5,2.8l21,3l20.4,2.8l24.8,3.6l24.7,3.6l3.1,0.4
				c-12.9-3.9-25.9-7.6-38.9-11.1c-20.7-5.6-37.4-10.4-39-11.5l8.5-3.7l8.4-3.6c2.8-1.1,5.6-2.1,8.6-3.5l-1.4-0.9
				c-4.5-1.9-8.9-4.1-13.5-5.7s-11.8-3.8-17.8-5.4c-13.9-3.8-28.1-6.8-42.3-9.2c-9.7-1.7-19.5-3.2-29.3-4.7l-7.8-1.1
				C99.4,72.8,99.3,73.3,99.3,73.9z M0.9,1v30.4h1.9l11.5-1.2l16.8-1.8c7-0.9,14.1-1.7,21.1-2.7l20.3-2.9l9.2-1.5
				c4.9-0.6,9.9-0.9,14.9-0.7h1c0.5,0.1,0.9-0.3,1-0.8c0,0,0-0.1,0-0.1V2.5c0-0.5-0.1-1.1-0.1-1.7C94.7,0.4,2.3,0.6,0.9,1z
				 M99.3,116.5v30.6c0,1.3,0.1,1.5,1.4,1.5h2.9l18.6,0.9l11.9,0.4l7.6,0.4l17.1,0.9l10.4,0.4l7.3,0.4l17.9,1l7.8,0.4l15.4,0.9
				l8.8,0.4l7.8,0.6h2.9c-2.9-0.8-5.8-1.3-8.7-1.7l-32.5-5.1l-22.9-3.8c-5.4-0.9-10.8-2.1-16.2-3.1c-2-0.4-2.1-0.7-1.4-2.6
				c0-0.2,0.1-0.3,0.2-0.5c1.5-3.8,3.6-7.3,6.2-10.3l2.7-3.3l-2.7-0.5l-31.2-5.2l-29.1-4.8h-2.1C99.4,115.2,99.3,115.9,99.3,116.5z
				 M217.2,175.9h-1.5l-11.2-0.8l-11.8-0.9l-10.3-0.8l-12-0.9l-10.5-0.8c-2.4-0.3-2.4-0.3-2.9-2.7s-1.1-6.2-1.7-9.3
				c-0.3-1.5-0.4-1.7-1.6-1.8l-14.7-1.5l-9.9-0.8l-11.4-0.9l-10.3-0.9l-6.2-0.4c-1.8-0.1-1.9,0-1.9,1.7v25.6c0,0.9,0.4,1.3,1.2,1.2
				h2.8l17.7-1.3l16.6-1l18.1-1l20.2-1l15.9-0.7l17-0.4h6.6l1.8-0.2V175.9z M62.5,184.9l6.2-0.6l11-0.8l17.1-1.2
				c1.7-0.1,1.8-0.2,1.8-1.9v-25.7c0-1.4-0.2-1.6-1.4-1.6L83.5,152l-11-0.8L61,150.3l-12-0.7l-17.6-1.3l-14-0.8L9.6,147l-6.9-0.4
				c-0.5,0-1.1-0.2-1.6,0.5l1.1,0.3l10.6,1.6l23.5,3.5l23.8,3.6c2,0.3,2.2,0.5,2.4,2.5c0,0.3,0.1,0.6,0.1,0.9c0.5,8-0.6,16-3.2,23.6
				c-0.2,0.6-0.3,1.2-0.4,1.8H62.5z M165.7,200.1c-1.5-4.7-3.1-9.3-4.6-14c-0.6-1.8-0.5-1.9-2.4-1.8l-12.2,0.3l-20.5,0.6l-17.5,0.5
				l-7.8,0.3h-0.5c-0.5,0-0.9,0.4-0.9,0.9c0,0,0,0.1,0,0.1v21.4c0,0.4,0.1,0.8,0.1,1.5l2-0.9c6.9-3.6,14.2-6.4,21.7-8.5
				c5-1.4,10.1-2.4,15.3-2.9c7.7-0.5,15.4,0.4,22.8,2.6l5,1.6C166.1,201.2,165.9,200.6,165.7,200.1z M98.3,39.2
				c-3,0.2-30,13.3-31.6,15.4c1.6,0.6,30.3,5.4,31.6,5.2S98.7,40.6,98.3,39.2z"/>
		</g>
	</g>
</g>
<path id="text" class="st3" d="M186.4,325.7h-12.5l5.6-57.1h11.9l13.1,35.8l13.7-35.8h10.7l5.6,57.1h-14.1l-1.9-28.7L207,325.7h-7.5
	l-10.8-28.8L186.4,325.7z M242.5,325.7v-57.1h14.7v57.1L242.5,325.7z M266.2,325.7v-7.5l22.8-38.6h-21.7v-11h38.3v7.3l-23,38.7h23.3
	v11.1H266.2z M312.6,325.7v-7.5l22.8-38.6h-21.7v-11h38.4v7.3L329,314.6h23.3v11.1L312.6,325.7z M406,275.6
	c5.6,5.5,8.4,12.8,8.4,21.9s-2.8,16.3-8.4,21.6c-5.3,5.1-12.3,8-19.7,7.9c-3.6,0-7.1-0.7-10.4-2c-3.3-1.3-6.4-3.1-9-5.5
	c-2.7-2.6-4.9-5.8-6.3-9.3c-1.7-4-2.5-8.3-2.4-12.7c-0.1-5.7,1.3-11.3,4.1-16.2c4.8-8.8,14-14.1,24-13.9
	C393.7,267.3,400.8,270.3,406,275.6L406,275.6z M376.9,284.1c-2.5,3.1-3.7,7.5-3.7,13.2s1.2,10.1,3.7,13.1c2.2,2.9,5.7,4.6,9.4,4.5
	c3.7,0.1,7.2-1.6,9.5-4.5c2.4-3,3.6-7.3,3.6-13.1s-1.2-10.1-3.6-13.2c-2.2-3-5.8-4.7-9.5-4.7C382.6,279.3,379.1,281.1,376.9,284.1
	L376.9,284.1z M436,268.6v36.7c0,6.6,3,9.9,8.8,9.9s8.5-3.3,8.5-9.9v-36.7h13.5V304c0,7.3-2.1,12.9-6.1,16.9s-9.5,5.9-16.7,5.9
	s-12.6-1.9-16.6-5.7s-6.1-9.5-6.1-17.1v-35.4L436,268.6z M263.1,397.4v-7.5l22.8-38.5h-21.7v-11.1h38.4v7.3l-23,38.8h23.2v11
	L263.1,397.4z M357.3,347.3c5.6,5.5,8.4,12.8,8.4,21.9s-2.8,16.3-8.4,21.6c-5.2,5.2-12.3,8-19.7,7.9c-3.6,0-7.1-0.6-10.4-1.9
	c-3.3-1.3-6.4-3.2-9-5.6c-2.8-2.6-4.9-5.8-6.3-9.3c-1.7-4-2.5-8.3-2.4-12.7c-0.1-5.6,1.3-11.2,4.1-16.1c2.4-4.4,6-8,10.4-10.5
	C334.9,336.5,348.5,338.5,357.3,347.3L357.3,347.3z M328.2,355.8c-2.5,3.1-3.7,7.5-3.7,13.3s1.2,10.1,3.7,13.1
	c2.2,2.9,5.7,4.6,9.4,4.5c3.7,0.1,7.2-1.6,9.5-4.5c2.4-3,3.6-7.4,3.6-13.1s-1.2-10.2-3.6-13.3c-2.2-3-5.8-4.7-9.5-4.6
	C333.9,351.1,330.4,352.8,328.2,355.8L328.2,355.8z M387,397.4h-12.4v-57.1h14.6l19.2,33v-33h12.4v57.1h-13L387,361.7L387,397.4z
	 M432.3,397.4v-57.1h34.8v11.1H447v11.2h18.2v11H447v12.8h20.4v11H432.3z"/>
</svg>
