<?xml version="1.0" encoding="utf-8"?>
<!-- Generator: Adobe Illustrator 23.0.6, SVG Export Plug-In . SVG Version: 6.00 Build 0)  -->
<svg version="1.1" id="Art" xmlns="http://www.w3.org/2000/svg" xmlns:xlink="http://www.w3.org/1999/xlink" x="0px" y="0px"
	 viewBox="0 0 512 512" style="enable-background:new 0 0 512 512;" xml:space="preserve">
<style type="text/css">
	.st0{fill:#CA2430;}
	.st1{fill:#9E1721;}
	.st2{fill:#FFFFFF;}
</style>
<g>
	<rect class="st0" width="512" height="512"/>
	<path class="st1" d="M198.6,0c-47.5,40.4-93.9,94.6-130.3,167.2c0,0-75,153.5-43.7,344.7h403.6c30.8-38.9,59.8-81.2,83.9-126V0
		H198.6z M213.7,97.7c4.9,2.1,7.2,7.3,5.2,11.1c-0.5,1-1.1,2.1-1.6,3.1c-2,3.8-6.8,5.2-10.7,3.6c-5-2.1-10.2-3.5-15.4-4.6
		c-4.8,8.2-9.9,17.3-15.2,26.9c4.2,1.2,8.3,2.5,12.4,4.2c4.9,2.1,7.2,7.3,5.2,11.1c-0.5,1-1.1,2.1-1.6,3.1c-2,3.8-6.8,5.2-10.7,3.6
		c-4.7-2-9.6-3.4-14.6-4.5c-4.6,8.8-9.3,18-14,27.5c3.4,1,6.7,2,10,3.4c4.9,2.1,7.2,7.3,5.2,11.1c-0.5,1-1.1,2.1-1.6,3.1
		c-2,3.8-6.8,5.2-10.7,3.6c-3.7-1.5-7.4-2.8-11.2-3.8c-4,8.6-8,17.5-11.9,26.5c5.1,1.3,10,2.9,14.9,4.9c4.9,2.1,7.2,7.3,5.2,11.1
		c-0.5,1-1.1,2.1-1.6,3.1c-2,3.8-6.8,5.2-10.7,3.6c-5-2.1-10.1-3.5-15.3-4.6c-3.7,9-7.2,18.1-10.5,27.4c4.4,1.2,8.7,2.6,12.9,4.4
		c4.9,2.1,7.2,7.3,5.2,11.1c-0.5,1-1.1,2.1-1.6,3.1c-2,3.8-6.8,5.2-10.7,3.6c-4-1.7-8-3-12.2-4c-3.5,10.4-6.8,20.9-9.8,31.5
		c6.6,1.4,13.1,3.1,19.3,5.7c4.9,2.1,7.2,7.3,5.2,11.1c-0.5,1-1.1,2.1-1.6,3.1c-2,3.8-6.8,5.2-10.7,3.6c-5.5-2.3-11.3-3.8-17.1-5
		c-2.1,8.7-4,17.4-5.6,26.1c6,1.4,11.9,3,17.6,5.4c4.9,2.1,7.2,7.3,5.2,11.1c-0.5,1-1.1,2.1-1.6,3.1c-2,3.8-6.8,5.2-10.7,3.6
		c-4.4-1.9-9-3.2-13.7-4.3c-2.7,18.4-4.2,36.6-3.9,54.3L61.5,440c-0.2-18.6,1.3-37.7,4-56.8c-5-0.1-10.1,0.2-15.1,1
		c-4.2,0.7-8.5-1.8-9.6-6c-0.3-1.1-0.6-2.3-0.8-3.4c-1.1-4.2,2.3-8.7,7.5-9.6c7-1.1,14.1-1.3,21.2-1c1.6-8.4,3.3-16.9,5.3-25.3
		c-3.8,0.1-7.5,0.4-11.3,1c-4.2,0.7-8.5-1.8-9.6-6c-0.3-1.1-0.6-2.3-0.8-3.4c-1.1-4.2,2.3-8.7,7.5-9.6c6.3-1,12.7-1.3,19.1-1.1
		c2.9-10.7,6.1-21.3,9.6-31.8c-5.3-0.1-10.7,0.1-16,0.9c-4.2,0.7-8.5-1.8-9.6-6c-0.3-1.1-0.6-2.3-0.8-3.4c-1.1-4.2,2.3-8.7,7.5-9.6
		c8.5-1.4,17-1.5,25.5-0.8c3.2-8.8,6.5-17.6,9.9-26.2c-4.1,0.1-8.2,0.4-12.3,1.1c-4.2,0.7-8.5-1.8-9.6-6c-0.3-1.1-0.6-2.3-0.8-3.4
		c-1.1-4.2,2.3-8.7,7.5-9.6c7.6-1.2,15.3-1.4,23-0.9c3.8-9,7.8-17.8,11.7-26.4c-5.5-0.1-10.9,0-16.4,0.9c-4.2,0.7-8.5-1.8-9.6-6
		c-0.3-1.1-0.6-2.3-0.8-3.4c-1.1-4.2,2.3-8.7,7.5-9.6c9.4-1.5,18.8-1.7,28.2-0.7c4.3-8.9,8.6-17.4,12.9-25.7
		c-4.1,0.1-8.2,0.4-12.3,1.1c-4.2,0.7-8.5-1.8-9.6-6c-0.3-1.1-0.6-2.3-0.8-3.4c-1.1-4.2,2.3-8.7,7.5-9.6c8.4-1.3,16.8-1.5,25.2-0.8
		c4.9-9,9.6-17.5,14.2-25.5c-3.7,0.1-7.4,0.4-11.1,1c-4.2,0.7-8.5-1.8-9.6-6c-0.3-1.1-0.6-2.3-0.8-3.4c-1.1-4.2,2.3-8.7,7.5-9.6
		c8.3-1.3,16.7-1.5,25-0.8c15.9-26.5,27.4-43.3,29-45.7l15.7,11.3c-0.4,0.5-10,14.6-24.1,37.9C205.6,94.7,209.7,96,213.7,97.7z"/>
	<path class="st1" d="M512,440.1c-13.9,25.1-28.9,49.1-44.4,71.7H512V440.1z"/>
	<g>
		<path class="st2" d="M282.4,154.6h25.8c11.4,0,20.6,6.6,20.6,19.8c0,8.8-5.2,14.6-11.6,17.4l14.5,25.8h-17.3l-13.3-23.7h-2.5v23.7
			h-16.2V154.6z M298.6,166.7v16.9h6.5c4.9,0,8-3.2,8-8.8c0-5.5-3.1-8.2-8-8.2h-6.5V166.7z"/>
		<path class="st2" d="M338.6,154.6h38.5v12.2h-22.2v12.4H375v12.2h-20.1v14.1h22.6v12.2h-38.8v-63.1H338.6z"/>
		<path class="st2" d="M389.3,154.6h21.6c16.2,0,31,10.8,31,31.8c0,21.1-14.8,31.2-31,31.2h-21.6V154.6z M405.5,166.8v38.6h4.4
			c9,0,15.4-6.1,15.4-19.2c0-13-6.4-19.4-15.4-19.4H405.5z"/>
		<path class="st2" d="M214.6,293.5l25.2-42.6h-23.9v-12.2h42.3v8.1l-25.4,42.8h25.7v12.2h-43.9L214.6,293.5L214.6,293.5z"/>
		<path class="st2" d="M296.4,303.2c-15.7,0-31-11.3-31-32.6c0-21,15.2-33.3,31-33.3s31.1,12.2,31.1,33.3
			C327.5,291.8,312.3,303.2,296.4,303.2z M296.4,289.9c8.2,0,14.5-6.3,14.5-19.4s-6.2-19.8-14.5-19.8c-8.2,0-14.4,6.7-14.4,19.8
			C282,283.7,288.3,289.9,296.4,289.9z"/>
		<path class="st2" d="M337.3,301.8v-63.1h16.1l21.2,36.4v-36.4h13.7v63.1H374l-23-39.5v39.5H337.3z"/>
		<path class="st2" d="M401.1,238.7h38.5v12.2h-22.2v12.4h20.1v12.2h-20.1v14.1H440v12.2h-38.8v-63.1H401.1z"/>
		<path class="st2" d="M173.9,322.9h38.5v12.2h-22.2v12.4h20.1v12.2h-20.1v14.1h22.6V386H174v-63.1H173.9z"/>
		<path class="st2" d="M219.2,386l19.5-33l-17.8-30.1h17.6l10.1,17.1l9.8-17.1H273l-17.1,29.5l19.8,33.6h-17.6l-12.2-20.7L233.8,386
			H219.2z"/>
		<path class="st2" d="M294.8,335.1h-16v-12.2H327v12.2h-16V386h-16.2V335.1z"/>
		<path class="st2" d="M335.2,322.9H361c11.4,0,20.6,6.6,20.6,19.8c0,8.8-5.2,14.6-11.6,17.4l14.5,25.8h-17.3L354,362.2h-2.5V386
			h-16.2L335.2,322.9L335.2,322.9z M351.5,335v17h6.5c4.9,0,8-3.2,8-8.8c0-5.5-3.1-8.2-8-8.2H351.5z"/>
		<path class="st2" d="M409.4,322.5h11.7l23.1,63.5h-16.3l-3.1-9.3h-21.1l-3.1,9.3h-14.1L409.4,322.5z M414.1,345.6l-6.7,19.9h13.5
			L414.1,345.6z"/>
	</g>
</g>
</svg>
