<svg xmlns="http://www.w3.org/2000/svg" viewBox="0 0 512 512">
  <title>kansas-city-star</title>
  <g id="Layer_2" data-name="Layer 2">
    <g id="Art">
      <path d="M238.1,224.1l.8.6c.1.1.4.3,0,.5l-.8.6c-.2.2-.3.3-.6,0l-1-.6c-.2-.1-.2-.3.1-.4l.9-.7A.4.4,0,0,1,238.1,224.1Z" fill="#231f20" fill-rule="evenodd"/>
      <g>
        <rect width="512" height="512" fill="#115287"/>
        <polygon points="288.1 142.8 146.9 158 83.6 30.8 54.3 169.8 0 177.9 0 240.2 37 261.5 13.4 401.6 118.8 306.3 244.8 372 186.7 242.3 288.1 142.8" fill="#fff"/>
        <g>
          <path d="M104.5,468.2v2.3h-23v-2.3l4.4-.7A6,6,0,0,0,88,467a1.7,1.7,0,0,0,.5-1.4V413.9l-8.9.4a4.6,4.6,0,0,0-2.9.8,9.7,9.7,0,0,0-1.8,2.9l-3.2,6.3H69.5l2.1-12.9h42.5l2.1,12.9h-2L111,418a7.2,7.2,0,0,0-1.8-2.9,4.7,4.7,0,0,0-3-.8l-8.9-.4v51.7c0,.8.1,1.2.4,1.4a4.4,4.4,0,0,0,1.9.5Z" fill="#fff"/>
          <path d="M142.2,468.2v2.3H119.5v-2.3l3.5-.7a7.8,7.8,0,0,0,2.1-.5,2.1,2.1,0,0,0,.4-1.4V416.3a2.1,2.1,0,0,0-.4-1.4l-2.1-.6-3.5-.6v-2.3h22.7v2.3l-5.7.6a4.1,4.1,0,0,0-1.8.6c-.3.2-.4.7-.4,1.4v22.1h22.9V416.3a2.2,2.2,0,0,0-.3-1.4c-.2-.3-.9-.4-1.9-.6l-5.6-.6v-2.3h22.7v2.3l-3.6.6a5.1,5.1,0,0,0-2,.6c-.3.2-.4.7-.4,1.4v49.3c0,.7.1,1.2.4,1.4a5.9,5.9,0,0,0,2,.5l3.6.7v2.3H149.4v-2.3l5.6-.7a4,4,0,0,0,1.9-.5c.2-.2.3-.6.3-1.4V441.3H134.3v24.3c0,.8.1,1.2.4,1.4a4.4,4.4,0,0,0,1.8.5Z" fill="#fff"/>
          <path d="M218.7,455.5l-3,15H177v-2.3l3.8-.7a6.8,6.8,0,0,0,2-.5c.3-.2.4-.7.4-1.4V416.3c0-.7-.1-1.2-.4-1.4a5.9,5.9,0,0,0-2-.6l-3.8-.6v-2.3h37.4l2.8,12.9h-1.9l-3.1-5.8a10.5,10.5,0,0,0-1.9-2.7,5,5,0,0,0-2.9-.8l-15.3-1.1v24.7l13.7-.5c1.4,0,2.3-.2,2.5-.6a4.3,4.3,0,0,0,.8-2l1.1-5.9h2v20.7l-2,.2-1.1-5.9a5.7,5.7,0,0,0-.7-2,1.2,1.2,0,0,0-1-.6,6.6,6.6,0,0,0-1.9-.2l-13.4-.4V468l15.6-1.1a5.5,5.5,0,0,0,5.7-3.8l3.3-7.6Z" fill="#fff"/>
          <path d="M243.4,425.5c0-4.9,1.5-8.8,4.6-11.7s7.2-4.3,12.4-4.3a25.3,25.3,0,0,1,8,1.2c2.5.8,4.1,1.5,4.8,2.3l1.3,11.4h-2.1c-2.2-8-6.3-12-12.4-12a8.8,8.8,0,0,0-7,2.8,10.6,10.6,0,0,0-2.5,7.1,9.9,9.9,0,0,0,1.5,5.3,12.9,12.9,0,0,0,3.6,4.1c1.5,1.1,3.2,2.2,5,3.3s3.6,2.2,5.4,3.4a38.1,38.1,0,0,1,4.9,3.9,17.3,17.3,0,0,1,3.7,5.3,18.9,18.9,0,0,1,1.4,7.2,16.6,16.6,0,0,1-4.8,12.2c-3.1,3.1-8,4.7-14.4,4.7s-9.9-.9-13.5-2.7l-2-13.5h2a23.5,23.5,0,0,0,5.4,9.8c2.2,2.3,5.2,3.4,9,3.4a10.1,10.1,0,0,0,7.5-2.7c1.9-1.9,2.8-4.4,2.8-7.8a13.2,13.2,0,0,0-1.3-6,12.9,12.9,0,0,0-3.6-4.4,28.9,28.9,0,0,0-4.8-3.3l-5.2-3.3a30.1,30.1,0,0,1-4.8-3.6,15.7,15.7,0,0,1-3.6-5.1A17.5,17.5,0,0,1,243.4,425.5Z" fill="#fff"/>
          <path d="M316.1,468.2v2.3H293v-2.3l4.5-.7a7.8,7.8,0,0,0,2.1-.5c.3-.2.4-.7.4-1.4V413.9l-8.8.4a4.4,4.4,0,0,0-2.9.8,8,8,0,0,0-1.9,2.9l-3.2,6.3h-2.1l2.1-12.9h42.4l2.2,12.9h-2.1l-3.2-6.3a7.2,7.2,0,0,0-1.8-2.9,4.4,4.4,0,0,0-2.9-.8l-9-.4v51.7a1.9,1.9,0,0,0,.4,1.4,4.6,4.6,0,0,0,2,.5Z" fill="#fff"/>
          <path d="M344.3,468.2v2.3H329.9v-2.3l2-.6a8.8,8.8,0,0,0,2.7-1.2,5.4,5.4,0,0,0,1.1-2.2l17.8-53.9h1.3l19,54.5a6.4,6.4,0,0,0,1.2,2.1,9.8,9.8,0,0,0,2.2.9l2.1.4v2.3H358.7v-2.3l4.1-.4c1.1-.1,1.8-.5,2-1a2.4,2.4,0,0,0-.2-2l-5.3-15.3H343.8l-4.5,15a2.5,2.5,0,0,0-.1,1.9,4,4,0,0,0,2.2,1.1Zm14.1-21.5-7.5-21.6-6.4,21.6Z" fill="#fff"/>
          <path d="M405.3,468.2v2.3H383v-2.3l3.8-.7a7.9,7.9,0,0,0,2-.5c.3-.2.4-.7.4-1.4V416.3c0-.7-.1-1.2-.4-1.4a6.8,6.8,0,0,0-2-.6l-3.8-.6v-2.3h21.3c5.2,0,9.4,1.1,12.5,3.4s4.6,6,4.6,11c0,7.8-3.5,12.8-10.6,15l11,21.4a12.5,12.5,0,0,0,2.8,4,16.2,16.2,0,0,0,4.9,2v2.3H416.6L402,442.2h-3.9v23.4c0,.8.1,1.2.3,1.4a4,4,0,0,0,1.9.5ZM403,413.7h-4.9v26.1h.6c4.9,0,8.4-1,10.6-3.1s3.2-5.6,3.2-10.3C412.5,418,409.3,413.7,403,413.7Z" fill="#fff"/>
          <path d="M435.1,469.6a4.5,4.5,0,0,1-1.4-3.6,4.8,4.8,0,0,1,1.4-3.7,4.3,4.3,0,0,1,3.3-1.5,4.5,4.5,0,0,1,3.4,1.4,5.3,5.3,0,0,1,1.3,3.8,4.8,4.8,0,0,1-1.3,3.6,4.6,4.6,0,0,1-3.4,1.5A4.3,4.3,0,0,1,435.1,469.6Z" fill="#fff"/>
        </g>
      </g>
    </g>
  </g>
</svg>
