<?xml version="1.0" encoding="utf-8"?>
<!-- Generator: Adobe Illustrator 23.0.6, SVG Export Plug-In . SVG Version: 6.00 Build 0)  -->
<svg version="1.1" id="Art" xmlns="http://www.w3.org/2000/svg" xmlns:xlink="http://www.w3.org/1999/xlink" x="0px" y="0px"
	 viewBox="0 0 512 512" style="enable-background:new 0 0 512 512;" xml:space="preserve">
<style type="text/css">
	.st0{fill:#98002E;}
	.st1{fill:#FFFFFF;}
	.st2{fill:#0021A5;}
	.st3{fill:none;stroke:#FFFFFF;stroke-width:5.3333;stroke-miterlimit:10;}
	.st4{fill:#F04C24;stroke:#FFFFFF;stroke-width:5.3333;stroke-miterlimit:10;}
	.st5{fill:#FA4616;}
	.st6{fill:#782F40;}
	.st7{fill:none;stroke:#FFFFFF;stroke-width:5.3378;stroke-miterlimit:10;}
	.st8{fill:#F04C24;stroke:#FFFFFF;stroke-width:5.3378;stroke-miterlimit:10;}
	.st9{fill:#CEB888;}
	.st10{fill:#0077C8;}
	.st11{fill:none;stroke:#000000;stroke-width:10.6667;stroke-miterlimit:10;}
	.st12{fill-rule:evenodd;clip-rule:evenodd;}
	.st13{fill-rule:evenodd;clip-rule:evenodd;stroke:#000000;stroke-width:2.6667;stroke-miterlimit:10;}
	.st14{fill:#005030;}
	.st15{fill:#F47321;}
	.st16{fill:#FCEE21;}
	.st17{fill:#E8E7E7;}
	.st18{fill:#A21D3E;}
	.st19{fill:#D98227;}
	.st20{fill:#72BE44;}
	.st21{fill:#231F20;}
	.st22{fill:#CAC8C8;}
	.st23{fill:#0033A0;}
	.st24{fill:#3A578C;}
	.st25{fill:#69BE28;}
	.st26{fill:#80A27B;}
	.st27{fill:#F7C421;}
	.st28{fill:#0039A6;}
	.st29{fill:#F9461C;}
	.st30{fill:#F2F2F2;}
	.st31{fill:#0085CA;}
	.st32{fill:#008CA8;}
	.st33{fill:#FFFFFF;stroke:#FFFFFF;stroke-width:5.3378;stroke-miterlimit:10;}
	.st34{fill:#1D1160;}
	.st35{fill:#FF0000;}
	.st36{fill:#DA291C;}
	.st37{fill:#1E4971;}
	.st38{fill:#5DA423;}
	.st39{fill:#C41230;}
	.st40{fill:#004B8D;}
	.st41{fill:#E4E416;}
	.st42{fill:none;stroke:#FFFF00;stroke-width:10.6667;stroke-miterlimit:10;}
	.st43{fill:url(#SVGID_1_);}
	.st44{fill-rule:evenodd;clip-rule:evenodd;fill:#FCD6C2;}
	.st45{fill-rule:evenodd;clip-rule:evenodd;fill:#FFFFFF;}
	.st46{clip-path:url(#SVGID_3_);}
	.st47{fill-rule:evenodd;clip-rule:evenodd;fill:#231F20;}
	.st48{fill-rule:evenodd;clip-rule:evenodd;fill:none;}
	.st49{fill-rule:evenodd;clip-rule:evenodd;fill:url(#SVGID_4_);}
	.st50{fill:url(#SVGID_5_);}
	.st51{filter:url(#Adobe_OpacityMaskFilter);}
	.st52{fill-rule:evenodd;clip-rule:evenodd;fill:url(#SVGID_7_);}
	.st53{mask:url(#SVGID_6_);}
	.st54{fill-rule:evenodd;clip-rule:evenodd;fill:#FBE5D5;}
	.st55{fill:url(#SVGID_8_);}
	.st56{fill:url(#SVGID_9_);}
	.st57{fill:url(#SVGID_10_);}
	.st58{fill:url(#SVGID_11_);}
	.st59{opacity:0.55;fill:url(#SVGID_12_);}
	.st60{opacity:0.55;fill:url(#SVGID_13_);}
	.st61{opacity:0.55;fill:url(#SVGID_14_);}
	.st62{opacity:0.55;fill:url(#SVGID_15_);}
	.st63{clip-path:url(#SVGID_17_);fill:url(#SVGID_18_);}
	.st64{opacity:0.46;fill:#FFFFFF;}
	.st65{opacity:0.61;fill:url(#SVGID_19_);}
	.st66{filter:url(#Adobe_OpacityMaskFilter_1_);}
	.st67{opacity:0.49;mask:url(#SVGID_20_);}
	.st68{fill:url(#SVGID_21_);}
	.st69{fill:#007980;}
	.st70{fill:#219DA7;}
	.st71{fill:#F04C24;}
	.st72{fill:#7AB2DD;}
	.st73{fill:#004687;}
	.st74{fill:#002A5C;}
	.st75{fill:#93B1D7;}
	.st76{fill:#CA2430;}
	.st77{fill:#9E1721;}
	.st78{fill:#0050BA;}
	.st79{fill:#E8000D;}
	.st80{clip-path:url(#SVGID_23_);fill:#E4A710;}
	.st81{clip-path:url(#SVGID_25_);}
	.st82{fill:#FFDD15;}
	.st83{filter:url(#Adobe_OpacityMaskFilter_2_);}
	.st84{opacity:0.3;mask:url(#SVGID_26_);}
	.st85{fill:#FAAF40;}
	.st86{opacity:0.2;clip-path:url(#SVGID_25_);}
	.st87{opacity:0.5;clip-path:url(#SVGID_25_);fill:#FAAF40;}
	.st88{clip-path:url(#SVGID_25_);fill:#FFCA05;}
</style>
<g>
	<rect x="4.4" class="st72" width="507.6" height="512"/>
	<path class="st73" d="M94.4,491.2l35.6,1.1l10.8,19.6l-35.7-1.4l-0.8,1.5H512V0H358l0,11.1l-18.9,11.6L339.3,0h-22.1l0.2,0.1
		l1.6,36.1l-18.4,12.4l-1.3-36.3L272.7,0H0v512h82.8L94.4,491.2z M244.7,13.3l33.1,13.8l3.3,36l-17.8,13.3l-3.1-36.2l-33.4-13.6
		L244.7,13.3z M205.6,44.3l33.8,11.9l5.3,35.7l-17,14.3l-5.1-35.9l-34.1-11.7L205.6,44.3z M168.1,78l34.5,9.5l7.7,35.3l-16,15.5
		l-7.5-35.5l-34.8-9.3L168.1,78z M130.7,117.5l35.6,4l12.9,33.7L165.7,173l-12.7-33.9l-35.8-3.8L130.7,117.5z M97,161.3l35.7-2.1
		l18.3,31L140.7,210l-18.2-31.3l-35.9,2.4L97,161.3z M70.8,203.6l35.7-2.7l18.8,30.7l-10,20l-18.7-31l-35.8,3L70.8,203.6z M50,254.9
		l34.8-8.6l23.5,27.1l-6.7,21.4l-23.4-27.4l-34.9,8.9L50,254.9z M37.7,308.8l32.9-14.3l27.6,22.9l-3.1,22.2l-27.5-23.2l-33,14.6
		L37.7,308.8z M34.3,364.1l30.2-19.5l30.9,18l0.5,22.4L65,366.7l-30.2,19.9L34.3,364.1z M39.9,419.2l26.6-24.3l33.4,12.6l4.1,22.1
		l-33.4-12.9L44,441.3L39.9,419.2z M76.6,444.2l34.9,6.9l7.5,21.1L84,465l-22.3,28.7l-7.5-21.1L76.6,444.2z"/>
	<g>
		<path class="st1" d="M200.6,224.3h-22.1v-16.9h66.8v16.9h-22.1v70.4h-22.5V224.3z"/>
		<path class="st1" d="M256.5,207.4h35.8c15.7,0,28.5,9.1,28.5,27.4c0,12.2-7.2,20.2-16.1,24.1l20,35.8h-23.9l-18.4-32.9H279v32.9
			h-22.5V207.4z M279,224.2v23.4h9c6.8,0,11.1-4.4,11.1-12.1c0-7.6-4.3-11.3-11.1-11.3H279z"/>
		<path class="st1" d="M368.2,278.7c7.6,0,13-4,13-15.1v-56.2h20.5v54.2c0,22.4-13.2,34.8-34.7,34.8c-21,0-34.7-11.3-34.7-34.8
			v-54.2h22.5v56.2C354.8,275.3,360.6,278.7,368.2,278.7z"/>
		<path class="st1" d="M418.5,207.4h53.2v16.9H441v17.1h27.8v16.9H441v19.5h31.2v16.9h-53.7V207.4z"/>
		<path class="st1" d="M187.9,316.7h32c15.8,0,28.8,7.2,28.8,23.8c0,8.9-4.8,14.7-12.3,17.9c9.7,3.1,16,9.7,16,20.2
			c0,16.3-14.3,25.4-30.2,25.4h-34.2V316.7z M210.3,331.6v20.3h7.2c6.3,0,10.3-3.5,10.3-10.4c0-6.8-4-9.9-10.3-9.9H210.3z
			 M210.3,366.6v22.5h9c6.4,0,11.2-4.4,11.2-11.7c0-7.1-4.8-10.8-11.2-10.8H210.3z"/>
		<path class="st1" d="M265.2,316.7h22.5v70.4h31.7V404h-54.2V316.7z"/>
		<path class="st1" d="M365.2,388c7.6,0,13-4,13-15.1v-56.2h20.5v54.2c0,22.4-13.2,34.8-34.7,34.8c-21,0-34.7-11.3-34.7-34.8v-54.2
			h22.5v56.2C351.8,384.6,357.6,388,365.2,388z"/>
		<path class="st1" d="M415.5,316.7h53.2v16.9H438v17.1h27.8v16.9H438v19.5h31.2V404h-53.7V316.7z"/>
	</g>
</g>
</svg>
