<svg xmlns="http://www.w3.org/2000/svg" viewBox="0 0 684 119.2"><title>los-banos-enterprise</title><path d="M477.8,58.3s1.6,4.2,2.2,6.1,1.8,5.5,2,5.8c4.9,9.6,12.8,31.4,12.4,31.4l34.8-10,13-1.1,13.5,4.4c.6.1,11.8-4.1,11.8-4.1l7.5-6.2,9.2.5,4.5,4,23.9-10.2,10-1.2,9.3,3.4,5.1-1-3.9-2.8a6.9,6.9,0,0,1-1.7-1.5s-5.2-4.6-6.7-6.4a41.5,41.5,0,0,1-3.4-4.9s-4-6.2-4.1-6.7a7,7,0,0,0-1.4-2.1,15.4,15.4,0,0,0-1.9-1.2l-6.6-3.6a8.7,8.7,0,0,0-2.8-1.9c-2.3-1.1-2.8-2.3-2.8-2.3l-4.6-2.6.5-1.9-.2-3.6-.3-4.9.2-5.9-11.1-5.6-9-9.2-21.3-1.2-20,3.7-14.2-.7-8.6-.5-4.7,1.5-5.6.8-8.5,1.1-6.2-.9-10.7-2.2-12.6.9-1.6,2.8Z" transform="translate(-12.4 -5.8)" style="fill:#fff"/><path d="M496.4,106.6c.5.8-1.8-.5,8.2-2.9,3.8-.9,5.9-3.6,9.6-5.2a16.8,16.8,0,0,1,10.9-1.6c4.2.8,7.5,2.6,11.7.2s5.7-4.7,10.4-2,5.4,4.4,9.6,4.8c9,.8,11.4-8,18-11.4s6.3,2,9.9,4.5,8.8,1.7,12.4-.1c7.4-3.7,15-13,23.7-13.5s14.9,9.4,23.6,4.7a37,37,0,0,1-9-5.2c-2.1,3.6-6.1-1.4-8.4-2.3s-7-2.8-10.5-2.7c-8.1.2-11.2,6.4-17.6,10a12.6,12.6,0,0,1-11.2.8c-3.3-1.5-4-5.8-7.6-6.5-6.2-1.3-14.5,7.7-18.7,11.2-7.5,6.4-11.6-6.3-19.8-5.3-3.8.4-5.9,2.8-10.1,3s-7.4-.1-11.1,1.5-8.2,4.7-12.7,6.3-12.1,4.6-15.2,1.9Z" transform="translate(-12.4 -5.8)" style="fill:#da1e40"/><path d="M490.8,91.5c6.5,1,15.7-4.6,22.2-6.5s16.4-6.3,24.5-6.4,16.1,5,24.8.3c3.2-1.8,5.3-5.9,9.4-5.7,2.6.1,1.8,1.2,4,2.1s4.5.6,6.3.5a32.6,32.6,0,0,0,11.6-2.1c3.3-1.3,6.1-3.7,9.6-4.4A26.5,26.5,0,0,1,625,74.2c2.1,1.7,3.6,2.4,6.4,1.6a13.7,13.7,0,0,0-3.4-3.4c-1.8-1.5-2.6-1.2-4.3-1.8-3.6-1.2-4.7-4.6-8.5-5.9-7.7-2.6-16.3-1-23.5,1.7a71.2,71.2,0,0,1-18.8,4.2c-1.1-3.6-4.5-4.9-8-3.2s-5.7,4.3-10.7,4.9c-8.6.9-17.4.5-25.8,2s-14.5,2.4-21.4,3.9-14.8,2.1-19.1,5.4Z" transform="translate(-12.4 -5.8)" style="fill:#da1e40"/><path d="M484.9,76.6c4.3-.1,9-2.8,13.2-3.6s8.6-1,12.8-2.1c8.4-2.2,16.5-1.5,25.4-1.9a50.7,50.7,0,0,0,12.9-2.4c3.5-1.2,6.1-3.6,9.4-5,1.4-.6,3.9-1.5,5.4-1.2s1.2,1.6,2.9,2.7,9.4.5,12.2.2c10.9-1.1,20.4-4.4,31.8-4.4-4.6-6.7-13.4-5.4-20.9-4.4-4.6.7-9.1,1.8-13.6,2.4s-9.7,2.6-12.6,1.8-2.8-5.2-8.5-3.6c-3.6,1.1-7.1,3.2-10.8,4.3a110.6,110.6,0,0,1-26.3,3.8c-6.7.3-13.7-.5-20.1,1.1s-10.5,5.8-16.1,5.9Z" transform="translate(-12.4 -5.8)" style="fill:#da1e40"/><path d="M539,54c2.8-.3,5.3-2,8-2.7s5.7-2.7,8.2-2.7.8.8,2.4,1.9,3,.7,4.3.8a41.8,41.8,0,0,0,10-.1c9.4-1.5,20.6-6.5,29.4-.6-.8-1.5-3.8-4.2-5.3-5.4a15.6,15.6,0,0,0-8.4-2.8c-6.2-.4-12.7,2.3-18.6,4a32.6,32.6,0,0,1-8.8,1.6,7.3,7.3,0,0,1-4.2-1.1c-.9-.8-1.2-2.6-2.2-3.2s-6.5,1.2-8.8,1.7-6.1,1.3-8.8,2.7a17.6,17.6,0,0,0-2,.9,7.9,7.9,0,0,0,4.1,4.5" transform="translate(-12.4 -5.8)" style="fill:#da1e40"/><path d="M530.5,42.8c3.5.2,6,0,9-1.7s4.4-2,7.7-1.3a67.1,67.1,0,0,0,19.5.2c4.2-.6,8.1-2.3,12.4-2.5s7.8,1.1,11.7,1.6c-.4-3.7-1.4-4.4-5.1-5.2s-5.6-2.2-9-2.3c-6-.1-12.5,3.7-18.4,4.9-4.4.9-9.6-1.3-13.9,0-1.1-1.4-1.1-2.3-2.8-2.2s-3.1,1.4-4.3,1.7c-3.3,1.1-7.7,1.1-10.8,2.5" transform="translate(-12.4 -5.8)" style="fill:#da1e40"/><path d="M524.7,32.5c6.2-2.3,10.7-3.8,17.4-2.1,3.2.8,7.1,2,10.5,1.9s5.9-1.3,8.8-2.5c8.8-3.7,18.1-5.3,25.6,1.8-.1-6.2-6-9.7-11.6-11-3.2-.7-6.2-1.2-9.4.1s-5.6,2.8-8.8,3.8-6.1,1.7-9.2,1.3-3.2-.9-5-1-4.3.2-5.9-.1c-3.5-.8-1.2-1.9-6.1-1.1a42.7,42.7,0,0,0-9.9,2.7l-.7.4" transform="translate(-12.4 -5.8)" style="fill:#da1e40"/><path d="M516.4,20.7c6-1.9,10.4-5.4,16.8-3.2,3.4,1.1,5.1,1.4,8.4.7s5.6.9,8.9.7c5.8-.5,10.7-4,16.3-5.1a20.8,20.8,0,0,1,8.6.1c2.5.8,3.9,3,6.1,4.3.2-1.9-1.6-5.6-2.5-7.3s-4.2-4.1-7.6-4.7a30.4,30.4,0,0,0-18.3,3c-2.8,1.4-5.4,2.9-8.7,2.4s-5.8-1.5-9.3-1c-1.4.1-3.3.7-4.8.2s-1.5-2-3.3-2.1-6.4,2.1-8.5,3a47.2,47.2,0,0,1-6.1,2.7" transform="translate(-12.4 -5.8)" style="fill:#da1e40"/><path d="M581,18c2.3,2.4,2.2,5.4,5.6,7.1a23.3,23.3,0,0,0,10.7,2.7,33.2,33.2,0,0,0-.2-6.3c-6.6-.5-14,1.3-16.1-6.5" transform="translate(-12.4 -5.8)" style="fill:#da1e40"/><path d="M586.4,30.9c1.8,1.7,2,4.4,3.6,6.2s5.3,1.8,7.4,1.5c-.1-1.7-.1-3.2-.3-4.9-2.3,0-5,.5-7.1-.3s-3.1-3.3-4.2-5" transform="translate(-12.4 -5.8)" style="fill:#da1e40"/><path d="M590.2,37.7c2.5-.6,3.5,6.6,7.4,4.5.3,1.8,2.6,3.6,4.1,4.5-3.1,1.4-5.1-.3-6.9-2.8a20.7,20.7,0,0,0-3.1-4.2,24.3,24.3,0,0,1-2-1.4" transform="translate(-12.4 -5.8)" style="fill:#da1e40"/><path d="M600.8,50.4c2,.7,3.1,3.4,5.1,4.3s6.4.7,8-.2a12.3,12.3,0,0,1-3.6-2.3c-.4-.3-.9-1.1-1.4-1.3s-1.4,0-2.3.1c-3.4.5-5.1-.7-7.5-2.9-.2-.1-.4-.4-.6-.6" transform="translate(-12.4 -5.8)" style="fill:#da1e40"/><path d="M611.7,59.5c1.8.9,5,.8,6.9.3a26.8,26.8,0,0,0,3.6,5.8c-4.6,1.3-7.7-3.6-10.5-6.1" transform="translate(-12.4 -5.8)" style="fill:#da1e40"/><path d="M461.5,13.8c3.2-.1,5.6.4,8.8-.4a16.5,16.5,0,0,1,9.1.2c6.2,2,11.2,4,18,3.6a77.5,77.5,0,0,0,15.7-2.9L539,54s-12.9,4.4-21.3,3.6c0,0-35.6.6-37.7,6.8Z" transform="translate(-12.4 -5.8)" style="fill:#0e2044"/><polygon points="456.9 13.7 455.3 13.8 454.6 15.1 454 13.8 452.5 13.4 453.7 12.5 453.5 11 454.8 11.7 456.2 11.1 455.8 12.6 456.9 13.7" style="fill:#fff"/><polygon points="460.9 23.4 459.4 23.6 458.9 25 458.1 23.7 456.6 23.5 457.6 22.4 457.2 20.9 458.6 21.6 459.8 20.8 459.7 22.3 460.9 23.4" style="fill:#fff"/><polygon points="464.3 32 462.8 32.2 462.2 33.5 461.5 32.2 460 31.9 461 30.9 460.7 29.4 462.1 30.1 463.4 29.4 463.2 30.9 464.3 32" style="fill:#fff"/><polygon points="468.1 42.1 466.6 42.1 465.8 43.3 465.3 41.8 463.8 41.4 465 40.5 464.9 38.9 466.1 39.9 467.5 39.4 467.1 40.8 468.1 42.1" style="fill:#fff"/><polygon points="471.6 51.8 470.1 52.1 469.6 53.5 468.8 52.2 467.3 52 468.2 50.9 467.8 49.4 469.2 50.1 470.5 49.3 470.4 50.8 471.6 51.8" style="fill:#fff"/><polygon points="482.8 49 481.4 49.4 481.1 50.9 480.1 49.7 478.6 49.8 479.4 48.5 478.7 47.1 480.2 47.5 481.4 46.6 481.5 48.1 482.8 49" style="fill:#fff"/><polygon points="486.1 43.7 484.7 44.2 484.3 45.7 483.3 44.5 481.8 44.6 482.6 43.3 482 41.9 483.5 42.3 484.6 41.4 484.7 42.9 486.1 43.7" style="fill:#fff"/><polygon points="488.7 38.4 487.3 38.9 487 40.3 486 39.1 484.4 39.2 485.2 38 484.6 36.5 486.1 37 487.3 36 487.4 37.6 488.7 38.4" style="fill:#fff"/><polygon points="491.6 34 490.1 34.5 489.8 36 488.8 34.7 487.3 34.8 488.1 33.6 487.5 32.1 489 32.6 490.1 31.6 490.2 33.2 491.6 34" style="fill:#fff"/><polygon points="493.6 29.9 492.1 30.4 491.8 31.9 490.8 30.7 489.3 30.7 490.1 29.5 489.5 28.1 491 28.5 492.1 27.6 492.2 29.1 493.6 29.9" style="fill:#fff"/><polygon points="496 26 494.6 26.5 494.3 27.9 493.3 26.7 491.8 26.8 492.6 25.5 492 24.1 493.5 24.6 494.6 23.6 494.7 25.1 496 26" style="fill:#fff"/><polygon points="498.5 22.3 497.1 22.8 496.8 24.2 495.8 23 494.3 23.1 495.1 21.8 494.4 20.4 495.9 20.9 497.1 19.9 497.2 21.4 498.5 22.3" style="fill:#fff"/><polygon points="501.1 18.8 499.7 19.3 499.3 20.8 498.4 19.6 496.8 19.6 497.6 18.4 497 17 498.5 17.4 499.6 16.5 499.8 18 501.1 18.8" style="fill:#fff"/><polygon points="501.2 13.6 499.8 14.1 499.5 15.5 498.5 14.3 497 14.4 497.8 13.1 497.2 11.7 498.6 12.2 499.8 11.2 499.9 12.7 501.2 13.6" style="fill:#fff"/><polygon points="506.2 21.7 504.8 22.2 504.5 23.7 503.5 22.5 501.9 22.5 502.7 21.3 502.1 19.9 503.6 20.3 504.7 19.4 504.9 20.9 506.2 21.7" style="fill:#fff"/><polygon points="504.3 25.9 502.9 26.4 502.6 27.9 501.6 26.7 500 26.7 500.8 25.5 500.2 24.1 501.7 24.5 502.8 23.6 503 25.1 504.3 25.9" style="fill:#fff"/><polygon points="501.8 30.2 500.4 30.7 500.1 32.2 499.1 31 497.6 31 498.3 29.8 497.7 28.4 499.2 28.8 500.4 27.9 500.5 29.4 501.8 30.2" style="fill:#fff"/><polygon points="500 34.4 498.6 34.9 498.3 36.4 497.3 35.2 495.8 35.2 496.6 34 496 32.6 497.4 33 498.6 32.1 498.7 33.6 500 34.4" style="fill:#fff"/><polygon points="497.5 38.4 496.1 38.9 495.8 40.4 494.8 39.2 493.3 39.2 494.1 38 493.5 36.6 494.9 37 496.1 36.1 496.2 37.6 497.5 38.4" style="fill:#fff"/><polygon points="495.5 43.3 494.1 43.8 493.7 45.3 492.7 44.1 491.2 44.1 492 42.9 491.4 41.5 492.9 41.9 494 41 494.1 42.5 495.5 43.3" style="fill:#fff"/><polygon points="492.8 48.3 491.4 48.8 491.1 50.3 490.1 49.1 488.6 49.1 489.4 47.9 488.8 46.5 490.2 46.9 491.4 46 491.5 47.5 492.8 48.3" style="fill:#fff"/><polygon points="502.2 46.9 500.8 47.4 500.5 48.9 499.5 47.7 498 47.7 498.8 46.5 498.2 45.1 499.6 45.5 500.8 44.6 500.9 46.1 502.2 46.9" style="fill:#fff"/><polygon points="504.5 42.4 503.1 42.9 502.8 44.3 501.8 43.1 500.2 43.2 501 41.9 500.4 40.5 501.9 41 503.1 40 503.2 41.5 504.5 42.4" style="fill:#fff"/><polygon points="506.3 37.8 504.9 38.3 504.6 39.8 503.6 38.5 502 38.6 502.8 37.4 502.2 35.9 503.7 36.4 504.8 35.4 505 37 506.3 37.8" style="fill:#fff"/><polygon points="508.5 33.6 507.1 34.1 506.8 35.6 505.8 34.4 504.3 34.4 505.1 33.2 504.5 31.8 506 32.2 507.1 31.3 507.2 32.8 508.5 33.6" style="fill:#fff"/><polygon points="510.3 29.4 508.9 29.9 508.6 31.4 507.6 30.1 506.1 30.2 506.9 29 506.2 27.5 507.7 28 508.9 27 509 28.6 510.3 29.4" style="fill:#fff"/><polygon points="510.6 46.8 509.2 47.3 508.9 48.7 507.9 47.5 506.3 47.6 507.1 46.4 506.5 44.9 508 45.4 509.1 44.4 509.3 45.9 510.6 46.8" style="fill:#fff"/><polygon points="512.7 41.3 511.3 41.8 511 43.3 510 42.1 508.5 42.2 509.3 40.9 508.7 39.5 510.2 39.9 511.3 39 511.4 40.5 512.7 41.3" style="fill:#fff"/><polygon points="514.9 36.1 513.5 36.5 513.2 38 512.2 36.8 510.7 36.9 511.5 35.6 510.8 34.2 512.3 34.6 513.5 33.7 513.6 35.2 514.9 36.1" style="fill:#fff"/><polygon points="519 44.1 517.5 44.6 517.2 46 516.2 44.8 514.7 44.9 515.5 43.6 514.9 42.2 516.4 42.7 517.5 41.7 517.6 43.2 519 44.1" style="fill:#fff"/><polygon points="475.6 45.5 474.1 45.8 473.6 47.2 472.8 45.8 471.3 45.6 472.3 44.5 471.9 43 473.3 43.7 474.5 42.9 474.4 44.5 475.6 45.5" style="fill:#fff"/><polygon points="478.6 39.5 477.1 39.8 476.6 41.2 475.8 39.9 474.2 39.7 475.2 38.6 474.8 37.1 476.2 37.8 477.5 37 477.4 38.5 478.6 39.5" style="fill:#fff"/><polygon points="481.4 35.4 479.9 35.7 479.4 37.1 478.6 35.7 477.1 35.5 478.1 34.4 477.7 32.9 479.1 33.6 480.3 32.8 480.2 34.4 481.4 35.4" style="fill:#fff"/><polygon points="484.3 30.8 482.8 31 482.3 32.4 481.5 31.1 480 30.9 480.9 29.8 480.5 28.3 481.9 29 483.2 28.2 483.1 29.7 484.3 30.8" style="fill:#fff"/><polygon points="487.1 26.4 485.6 26.7 485.1 28.1 484.3 26.8 482.8 26.6 483.8 25.5 483.4 24 484.8 24.7 486 23.9 485.9 25.4 487.1 26.4" style="fill:#fff"/><polygon points="489.7 22.3 488.3 22.6 487.7 24 486.9 22.6 485.4 22.5 486.4 21.4 486 19.9 487.4 20.5 488.7 19.8 488.6 21.3 489.7 22.3" style="fill:#fff"/><polygon points="492.6 18 491.1 18.3 490.6 19.7 489.8 18.3 488.3 18.2 489.2 17.1 488.8 15.6 490.2 16.2 491.5 15.5 491.4 17 492.6 18" style="fill:#fff"/><polygon points="495 13.5 493.5 13.7 493 15.1 492.2 13.8 490.6 13.6 491.6 12.5 491.2 11 492.6 11.7 493.9 10.9 493.8 12.4 495 13.5" style="fill:#fff"/><polygon points="471.3 36.7 469.8 36.6 468.9 37.9 468.5 36.4 467.1 35.8 468.3 35 468.3 33.4 469.5 34.4 470.9 34 470.4 35.5 471.3 36.7" style="fill:#fff"/><polygon points="474.7 31.3 473.2 31.4 472.4 32.7 471.8 31.2 470.4 30.8 471.5 29.9 471.4 28.3 472.6 29.2 474 28.6 473.7 30.1 474.7 31.3" style="fill:#fff"/><polygon points="477.6 27.5 476.1 27.3 475.2 28.5 474.8 27 473.4 26.4 474.6 25.6 474.7 24.1 475.8 25.1 477.3 24.7 476.7 26.1 477.6 27.5" style="fill:#fff"/><polygon points="480.5 22.9 479 22.9 478.2 24.1 477.7 22.6 476.3 22.2 477.5 21.3 477.4 19.7 478.6 20.7 480 20.2 479.6 21.7 480.5 22.9" style="fill:#fff"/><polygon points="483.6 19.2 482.1 19.2 481.3 20.5 480.8 19 479.4 18.5 480.5 17.6 480.4 16.1 481.7 17 483.1 16.5 482.7 18 483.6 19.2" style="fill:#fff"/><polygon points="487 15.2 485.5 15.4 484.8 16.7 484.2 15.3 482.7 14.9 483.8 13.9 483.6 12.4 484.9 13.2 486.2 12.6 485.9 14.1 487 15.2" style="fill:#fff"/><polygon points="467.6 27 466.2 27.5 465.9 29 464.9 27.8 463.4 27.9 464.2 26.6 463.5 25.2 465 25.6 466.1 24.7 466.3 26.2 467.6 27" style="fill:#fff"/><polygon points="471 22.2 469.5 22.5 469 23.9 468.2 22.6 466.7 22.5 467.6 21.4 467.1 19.9 468.6 20.5 469.8 19.7 469.7 21.2 471 22.2" style="fill:#fff"/><polygon points="473.4 18 471.9 18.3 471.4 19.7 470.6 18.4 469.1 18.2 470.1 17.1 469.6 15.6 471.1 16.3 472.3 15.5 472.2 17 473.4 18" style="fill:#fff"/><polygon points="476.9 13.6 475.5 14.1 475.3 15.6 474.2 14.4 472.7 14.5 473.5 13.3 472.8 11.9 474.3 12.3 475.4 11.3 475.6 12.8 476.9 13.6" style="fill:#fff"/><polygon points="464.5 17.9 463 18.1 462.4 19.5 461.7 18.1 460.2 17.9 461.2 16.8 460.9 15.3 462.3 16 463.6 15.3 463.4 16.9 464.5 17.9" style="fill:#fff"/><polygon points="468.1 12.5 466.6 12.8 466.1 14.2 465.3 12.9 463.8 12.8 464.7 11.6 464.3 10.1 465.7 10.8 467 10 466.9 11.5 468.1 12.5" style="fill:#fff"/><text transform="translate(67.5 34.2)" style="font-size:38px;fill:#1c94d2;font-family:McClatchySerif-Semibold, McClatchy Serif;font-weight:700;letter-spacing:0.05999434621710526em">LOS BANOS</text><text transform="translate(0 94.2)" style="font-size:92px;fill:#1c94d2;font-family:McClatchySerif-Medium, McClatchy Serif;letter-spacing:-0.02499787703804348em">E<tspan x="52.4" y="0" style="font-size:78px;letter-spacing:-0.014998998397435898em">N</tspan><tspan x="109.4" y="0" style="font-size:78px;letter-spacing:-0.025002504006410256em">TER</tspan><tspan x="247.7" y="0" style="font-size:78px;letter-spacing:-0.044996995192307696em">P</tspan><tspan x="292.3" y="0" style="font-size:78px;letter-spacing:0.01300205328525641em">R</tspan><tspan x="343" y="0" style="font-size:78px;letter-spacing:-0.045009515224358976em">I</tspan><tspan x="363.3" y="0" style="font-size:78px;letter-spacing:-0.05500050080128205em">S</tspan><tspan x="402.2" y="0" style="font-size:78px;letter-spacing:-0.024989983974358976em">E</tspan></text><path d="M658.5,45.5H650V43.8h.8V36H650V34.4h8v3h-1.6V37c-.1-.7-.3-1-1.8-1h-.9v3h.4c.8,0,.9-.2.9-.6v-.5h1.6v3.5H655V41c0-.4-.1-.6-.9-.6h-.4v3.4h1.2c1.5,0,1.7-.3,1.8-1v-1h1.7Z" transform="translate(-12.4 -5.8)" style="fill:#1c94d2"/><path d="M661.7,44.4v1.1h-1.6V41.3h1.4c.7,1.9,1.8,2.6,3,2.6s1.4-.6,1.4-1.2-1-1.4-2.1-1.7-3.5-1.4-3.5-3.8,1.3-3.1,3.3-3.1a3,3,0,0,1,2.4,1v-.7h1.5v3.3h-1.3c-.5-1.5-1.4-2-2.3-2s-1.2.4-1.2,1,.9,1.1,1.9,1.4,3.7,1.3,3.7,4-1.2,3.6-3.5,3.6A3.9,3.9,0,0,1,661.7,44.4Z" transform="translate(-12.4 -5.8)" style="fill:#1c94d2"/><path d="M671.2,45.5V43.8h1V36h-.1c-1,0-1.2.2-1.2.9v.8h-1.6V34.4h9v3.3h-1.7v-.8c-.1-.7-.3-.9-1.3-.9h-.1v7.8h1v1.7Z" transform="translate(-12.4 -5.8)" style="fill:#1c94d2"/><path d="M679.4,42.8V41.6h.7V35.7h-.7V34.5h3.1c2.9,0,4.8,1.5,4.8,4s-1.9,4.3-4.8,4.3Zm2.9-7.1v5.9h.2c1.7,0,2.5-1.2,2.5-3.1s-.8-2.8-2.5-2.8Z" transform="translate(-12.4 -5.8)" style="fill:#1c94d2"/><path d="M679.4,45.5V44.2h7.9v1.3Z" transform="translate(-12.4 -5.8)" style="fill:#1c94d2"/><path d="M649.6,59.5l-2.9,2.8V58.7l3.8-3.9h3V75.9h-3.9Z" transform="translate(-12.4 -5.8)" style="fill:#1c94d2"/><path d="M656.5,70.6a6.1,6.1,0,0,1,3-5.2,6.8,6.8,0,0,1-2.6-5.2c0-3.3,2.2-5.6,5.3-5.6a5,5,0,0,1,5.3,5.3,6.1,6.1,0,0,1-2.6,5,6.4,6.4,0,0,1,3,5.4c0,3.6-2.2,6-5.7,6A5.3,5.3,0,0,1,656.5,70.6Zm7.6,0a4.8,4.8,0,0,0-2.3-3.9,5.1,5.1,0,0,0-1.8,3.8c0,1.7.7,2.8,2.1,2.8S664.1,72.2,664.1,70.6Zm-1.6-7.2a4.4,4.4,0,0,0,1.7-3.5c0-1.3-.6-2.4-1.9-2.4s-1.8,1.1-1.8,2.4S661.4,62.4,662.5,63.4Z" transform="translate(-12.4 -5.8)" style="fill:#1c94d2"/><path d="M671.2,75.6c2.7-2.2,5.1-4.7,6.1-8.6a4,4,0,0,1-3,1.5c-2.5,0-4.5-2.1-4.5-6.6s2.3-7.4,5.8-7.4,6,2.8,6,8.4-3.2,11-5.8,13h-4.6Zm6.5-11.1c0-.6.1-1.2.1-1.8,0-4-.8-5.2-2.2-5.2s-2,1.4-2,4.4.9,3.8,2.1,3.8A2.5,2.5,0,0,0,677.7,64.5Z" transform="translate(-12.4 -5.8)" style="fill:#1c94d2"/><path d="M686.7,59.5l-2.9,2.8V58.7l3.9-3.9h3V75.9h-4Z" transform="translate(-12.4 -5.8)" style="fill:#1c94d2"/><line x1="629.1" y1="44.7" x2="683.4" y2="44.7" style="fill:#1c94d2"/><line x1="629.1" y1="44.7" x2="629.1" y2="44.7" style="fill:none;stroke:#fff;stroke-linecap:round;stroke-miterlimit:10;stroke-width:1.2000000000000002px"/><line x1="631.1" y1="44.7" x2="682.4" y2="44.7" style="fill:none;stroke:#fff;stroke-linecap:round;stroke-miterlimit:10;stroke-width:1.2000000000000002px;stroke-dasharray:0,2.0127689838409424"/><line x1="683.4" y1="44.7" x2="683.4" y2="44.7" style="fill:none;stroke:#fff;stroke-linecap:round;stroke-miterlimit:10;stroke-width:1.2000000000000002px"/></svg>