<svg xmlns="http://www.w3.org/2000/svg" viewBox="0 0 512.4 512.4">
  <title>news-and-observer</title>
  <g id="Layer_2" data-name="Layer 2">
    <g id="Art">
      <g>
        <path d="M173.6,344.9v51.7a31.8,31.8,0,0,1-31.5,31.8H109.4a31.8,31.8,0,0,1-31.9-31.8V115.8a31.9,31.9,0,0,1,31.9-31.9h32.7c17.2,0,31.5,14.3,31.5,31.9v35.8H142.1V111.5H109.4V400.9h32.7v-56Z" fill="#fff"/>
        <path d="M211.2,83.9h64.2a31.8,31.8,0,0,1,31.8,31.9V396.6a31.8,31.8,0,0,1-31.8,31.8H211.2Zm31.4,317h32.8V111.5H242.6Z" fill="#fff"/>
        <path d="M371.6,111.5H339.7V83.9h95.2v27.6H403V428.4H371.6Z" fill="#fff"/>
      </g>
      <rect x="0.2" y="0.2" width="512" height="512" fill="#761113"/>
      <path d="M233.3,217.7c-18-34.3-28.1-61.4-28.1-83.2,0-29.5,18.1-47.9,42-47.9,25.5,0,47.3,21.3,47.3,53.7,0,36.3-21.8,64.4-61.2,77.4m-34,21.3,73.9,142.3c-18.6,20.8-34.5,30.9-49.4,30.9s-35.1-13-50.5-38.2c-17-27.6-25-54.7-25-74.5,0-27.6,16.5-46.9,51-60.5M278,388.1c13.8,29.5,37.2,45.4,62.1,45.4,35.1,0,57.4-27.1,57.4-75.9H389c-.5,37.2-14.3,57.1-31.9,57.1s-31.3-21.3-53.6-63.9c11.7-25.7,13.3-53.7,16.5-84.7s7.9-49.3,28.1-53.7c-6.9,5.8-10.1,12.1-10.1,19.4,0,13,9.1,21.3,22.3,21.3s23.9-9.2,23.9-22.3c0-16.5-11.6-25.6-30.8-25.6-24.4,0-37.7,15.9-41.4,49.8-4.3,37.7-4.3,66.8-13.8,85.6L237.6,225c42.5-15.5,65.9-46,65.9-85.2,0-36.3-26.1-60.9-55.3-60.9-39.8,0-70.6,30.9-70.6,80.3,0,23.7,6.3,47.4,18.6,72.6-53.7,21.7-81.3,56.1-81.3,99.2,0,37.2,19.6,73,53.1,93.8,7.4,4.9,20.2,8.2,32.4,8.2,27.1,0,52.1-15,77.6-44.9" fill="#fff"/>
    </g>
  </g>
</svg>
