<svg xmlns="http://www.w3.org/2000/svg" viewBox="0 0 297.62 63.33"><defs><style>.cls-1{fill:#231f20;}.cls-2{fill:#fff;}</style></defs><title>the-state</title><g id="Layer_2" data-name="Layer 2"><g id="col"><path class="cls-1" d="M41.43,13.7a19.24,19.24,0,0,1-10.17.58c5.09,3.64,14.1,28.42-18.47,28.42,11.78-2.61,18.32-14,9.09-29.44-6-2.54-17.23-2-20.28.8C-.51,9.34,6.47,4.91,12.36,4.76A55,55,0,0,1,23,5.71s-.14-1.17,2.69-2.55a5,5,0,0,0,1.23,3.13C32.78,7.74,44.48,7,47.17,4.18a9,9,0,0,1-5.74,9.52"/><path class="cls-1" d="M35.11,58.33C25.87,58.84,0,53.83,0,36.23S17.44,14.36,21.37,13.78C12.57,18.43,8.5,24.9,8.94,35.73c.44,10.61,13.81,15,22.17,14.9,6.11-.08,6.47-1.75,7.27-3.35l1.52-3.05,1.68.66L35.11,58.33"/><path class="cls-1" d="M52.71,21.55l.07,10.39C57,29,58.45,28.17,61.87,21.77,86.8,39.36,65.65,54.26,58.3,59.06l-.58-.73C74,42.49,62.23,32.24,59.39,29.62l-6.68,4.87V45.32c0,4.94,4.14,4.14,7.26,0l1.46,1c-1.67,1.6-7.12,7.85-9.81,10.76-1.82-4-6.91-7.42-9.75-7.93a4.32,4.32,0,0,0,2.7-4.07V21.77c0-17.44,16-19.34,19.26-19.55l.14.5c-9,2-11.26,11.49-11.26,18.83"/><path class="cls-1" d="M91.23,56.46c-5.08.51-15.7-4.14-15.7-13.73S85.78,23.39,90.15,21.36a44.19,44.19,0,0,0,9.59,9.81c-2.91,2.62-12.94,11.7-16,14.1a12.8,12.8,0,0,0,8.87,4.07c2,0,4.79-2.62,5.81-4.58l1.6.87c-2.33,2.77-6.25,7.56-8.8,10.83M85.64,27.68c-6.91,8.07-5.23,14.46-3.27,15.92C90.8,36.33,93,34.51,93,34.51a27.93,27.93,0,0,1-7.34-6.83"/><path class="cls-1" d="M207.72,56.9c-1.82-4-8.51-7.71-11.34-8.22,1.38-.94,2.4-1.81,2.54-3.27V27.32s.08-1.82-4.65-2.4c9.38-2.25,17.16-12.51,17.74-14l1.52.58c-2.91,3.63-4.51,10.32-4.8,12.94h6.91v2.4h-6.91v18c0,5,4.22,4.36,7.35.22l1.45,1.09c-1.67,1.6-7.12,7.85-9.81,10.76"/><path class="cls-1" d="M242.37,56.54c-4.08-1.53-7.86-4.29-8.15-8.36L226,56.61c-12.07-6.25-8.65-25.59,2.1-35.11,5.09,3,12.58,3.78,16.65,2.18l.36.58c-1.89.95-2.25,2.18-2.25,4.22V44.76c0,4.73,3.78,4.94,7.34.29l1.53,1a112,112,0,0,0-9.37,10.47m-8.22-27s-4.58-.22-7.41-2.4c-8.51,11.63.79,20,5.59,20.72l1.82-1.38Z"/><path class="cls-1" d="M262.58,56.9c-1.81-4-8.5-7.71-11.33-8.22,1.38-.94,2.4-1.81,2.54-3.27V27.32s.08-1.82-4.65-2.4c9.38-2.25,17.16-12.51,17.74-14l1.52.58c-2.91,3.63-4.51,10.32-4.79,12.94h6.9v2.4h-6.9v18c0,5,4.21,4.36,7.34.22l1.45,1.09c-1.67,1.6-7.12,7.85-9.82,10.76"/><path class="cls-1" d="M288.82,56.46c-5.09.51-15.7-4.14-15.7-13.73s10.25-19.34,14.61-21.37a44.41,44.41,0,0,0,9.59,9.81c-2.9,2.62-12.93,11.7-16,14.1a12.79,12.79,0,0,0,8.86,4.07c2,0,4.8-2.62,5.82-4.58l1.6.87c-2.33,2.77-6.25,7.56-8.8,10.83m-5.59-28.78C276.32,35.75,278,42.14,280,43.6c8.44-7.27,10.62-9.09,10.62-9.09a27.93,27.93,0,0,1-7.34-6.83"/><path class="cls-1" d="M188.73,14.67a19.58,19.58,0,0,1-2,0L182.92,23c5.81.08,10.18,2.18,11.92,7.13,3.63,10.32-7,22.75-11.05,26.16-2.9-3.19-6-7.05-17.95-8.06-5.89-.51-11.77-.08-13.59,5.23-1.53,4.51,3.27,9.09,9.81,9.23a21.43,21.43,0,0,0,5.6-.44l-.08.58c-9,2-17.37-1.45-17.59-9.3A11.12,11.12,0,0,1,154.94,44c4.43-2.83,10.61-3.49,17.15-2.54l4-8.58c-4.44.07-9.6-.15-13.59-2.54-10.69-6.33-5.38-16.94-2-19.41,2.69-2,7-4.94,8-7,18.31,4,23.76.8,26.31-1.82l1.09.65-7.13,12M171,12.05c-7.63-2.1-11.05,2-11.05,6.11,0,5.89,10.54,4.72,16.43,4.79h4.29l3.92-8.57A109.65,109.65,0,0,1,171,12.05M186,33.5c-1.67-.59-4.94-.66-7.7-.59l-4.14,8.87a33.2,33.2,0,0,1,13.59,6.11c3.85-5,4.21-12.29-1.75-14.39"/><path class="cls-1" d="M128.07,54.65c-.32.37-.47.51-.47.51s0-.32-.26-.06a1.56,1.56,0,0,1-.69.25.48.48,0,0,1-.53-.3.93.93,0,0,1,.07-.69c-.48.15-.73.8-1,.86a1,1,0,0,1-.44-.06c-.19-.06-.25-.19-.37-.5s-.13-.38-.26-.26-.25.26-.44.44-.56.38-.75-.06c-.07-.14-.16-.23-.27,0l-.41.18c-.17.07-.35-.14-.45-.22l.21-.18A3.59,3.59,0,0,0,123.07,53c.12-1.07.08-2,.15-3a12,12,0,0,0,1.12-6.77,6.24,6.24,0,0,0-1.26-2.83c.06-8.86.21-10.25.21-10.25.21-1.17.41-1.29.41-1.29.27-.08.51,2.09.76,2.65,0,.06.22.75.22-.63A9.08,9.08,0,0,1,124.8,29c.18-.25.46,1.71.71,2.38.07.19-.05-2.11.41-2.21.73-.15.46,1.31.83,2.29l.49-2.09c0,1,.1,7.2,0,10.22-.25-1.38-.94-.88-1.51-.25a.45.45,0,0,0,.38.76c.37,0,.44-.38.63-.51s.5-.06.44.32c0,.06,0,.64,0,.7a5.56,5.56,0,0,0-1.17,2.61,11.46,11.46,0,0,0,1.19,6.62c0,.2,0,2,0,2.33a3.52,3.52,0,0,0,.86,2.44l-.07.07"/><path class="cls-2" d="M126.84,50.63c-.13,0-.06.51-.25.51,0-.13-.19-.82-.51-.51-.12.13.26.44.13.63-.13-.12-.13-.06-.25-.06-.38.19-.25.5.06.63s.63-.13.88,0,.51-1-.06-1.2"/><path class="cls-2" d="M124.7,50.26c-.19-.13-.19.56-.31.37-.32-.44-.32-.06-.44-.06,0,.19-.07.38.12.57s.19-.26.32-.13a.34.34,0,0,0,.12.31c.32.13.25-.18.38-.31,0-.31.12-.63-.19-.75"/><path class="cls-2" d="M125.45,53.78c-.31.06,0-.31-.37-.44-.19-.06-.25.69-.13,1s.32-.18.44-.06.13.25.32.25c0,0,.12-.88-.26-.75"/><path class="cls-2" d="M126.65,32.2c-.38-.19-.63.19-1-.56-.12-.19-.06.25-.19.37s0,.57.13.7.38.06.38.44.31-.32.5-.19c0,.19.06.63.25.5.51-.25.26-1.07-.06-1.26"/><path class="cls-2" d="M126.78,35.66c.44-.06.31-1.13.12-1.13s-.38,1.2-.12,1.13"/><path class="cls-2" d="M125.58,33.52c0-.06-.38-.06-.5.07a1.63,1.63,0,0,0,.19,1.13c.37.5,0,.75.31,1.26.88-.57-.31-1.45,0-2.46"/><path class="cls-2" d="M126.4,37c-.13,0-.07.19-.13.44s-.5.13-.31.51.44-.07.63-.38.06-.57-.19-.57"/><path class="cls-2" d="M125.45,40.51c-.31,0-.25.44-.37.63-.13-.13-.32-.13-.38.18a.34.34,0,0,0,.32.32c0,.38,0,.82.37,1,.13,0,.19-.32.13-.32-.19-.57.19-1.07.19-1.64,0-.12-.13-.18-.26-.18"/><path class="cls-2" d="M125.52,45.73c.31,0,.38-2,.06-1.95s-.44,1.95-.06,1.95"/><path class="cls-2" d="M125.82,46.35c-.57.19-.13,1.06.07,1.06s.25-1.19-.07-1.06"/><path class="cls-1" d="M118.27,55.58c-1,.56-4.46,2.5-6.44-.23-.24-.33-.4-.44-.65-.19s.06.38-.32.25c-.87-.25-.31.32-.57.25s-.44-.56-.62-.44.06.44-.19.51a1.29,1.29,0,0,1-.5,0c.06-.44-.07-.32-.07-.32-.37.38-.56.19-.63.07-.25-.51-.88-1.14-1.13-.7s-.31.76.19.7.44.06.38.5-.13.5-1.32.25c-.63-.12-1.51.13-1.51.69,0,0,0,.57.19.76h41.44c-.18-.76-.5-1-.5-1-.25-.12-.06.26-.69.19s-.82-.69-1.13-.63-.44.19-.63.25.31-1,.06-1,0,1.32-.37.94,0-1.26-.32-.94c-.44.5-.25.69-.56.75s-.76-.63-.95-.88c-.75,1-1.07.19-1.32.07s-.5,1.06-.75.69-.19-1.14-.38-.82-.48.71-.69.29c-2,2.43-5.18.75-6.08.23a3,3,0,0,1-1.66.05c-1-.07-.94-.7-1.13-.76s-.13.25-.38.19-.38-.82-.44-.63-.19.69-.44.5.1,0,0-.67a6.89,6.89,0,0,1-.52.58c-.07-.13,0-.32-.25-.06a1.71,1.71,0,0,1-.69.27.48.48,0,0,1-.53-.28,1.09,1.09,0,0,1,.08-.73c-.57.16-.76.81-1.08.88a.8.8,0,0,1-.43-.07c-.19-.06-.24-.18-.37-.49s-.14-.39-.27-.27l-.44.45c-.19.19-.56.37-.75-.07-.06-.19-.2-.18-.26-.06s.12,0-.38.19c-.25.19-.54-.4-.54-.15s.11.55-.14.55-.69-.32-.82,0,.13.25-.25.25-.07-.25-.32-.13-.31.32-.88.07a1.08,1.08,0,0,1-1,.1"/><path class="cls-1" d="M138.33,45.11c-2.43-4.71-7-7.25-9.69-5.74-3.38,1.9-3.54,6.53-1,11.32,3.15,5.94,7.57,7.12,9.71,5.85,2.67-1.58,3.29-6.94,1-11.43"/><path class="cls-2" d="M137.84,45.36c-2.25-4.53-6.48-7-9.05-5.57-3.11,1.75-3.07,6.17-.68,10.63s6.31,7,8.92,5.66,3.13-6.06.81-10.72"/><path class="cls-1" d="M135.53,46.51c-1.36-3.06-3.56-5.11-5-4.46s-1.62,3.79-.25,6.85,3.54,5.17,5.23,4.42c1.46-.65,1.41-3.75,0-6.81"/><path class="cls-2" d="M131.37,49.31c-.35-.06-.47.19-.43.29a3.16,3.16,0,0,0,1,1.27c.1.09.6-.41.89-.61a3.07,3.07,0,0,0-.79-.87c-.2-.14-.36,0-.64-.08"/><path class="cls-2" d="M135.17,49.36c-.37,0-.22.33-.08.29s.3-.26.08-.29"/><path class="cls-2" d="M132.48,51.89c1.17,1.2,2.28,1.49,2.83,1.22.91-.43,1.12-1.66.95-3.27l-1.55.74c.15.21-.26.56-.34.64s1.2-.62,1.2-.62l.17.21c-.17.15-1.81.95-1.92,1s-.26-.13-.26-.13l.5-.29s-.28.07-.23-.28-.15.35-.52.16a.94.94,0,0,0-.67-.1c-.11,0-.11.16,0,.18s.25-.1.28,0-.11.26-.14.38-.27.19-.27.19"/><path class="cls-2" d="M129.88,43.19a1,1,0,0,1,.2.4v.24a1,1,0,0,0,.76.62c.19.09.72.14.58-.2-.1-.14-.41-.13-.43-.33s-.06-.47-.28-.49.1-.66.4-.69c.8-.1.95.58,1.07.87s.5.12.67.45a5.74,5.74,0,0,0,.47,1.06,5.13,5.13,0,0,0,.62.61c1,1.05,1.66,2.68,2,2.56a7.85,7.85,0,0,0-.67-1.78c-1.49-3.14-3.4-4.83-4.64-4.18a1.65,1.65,0,0,0-.71.86"/><path class="cls-2" d="M133.56,48.43c-.59-.86-.86-2.9-1.9-3.26-.42-.14-.93.21-1.13,0s-.59-1.14-.71-1.17-.2-.2-.2,0a9,9,0,0,0,.71,4.36l.5.73-.48-1.88.1-.08.76,1.71-.3-1.77H131l.46,1.71.13-1.38.06,0,.17,1.21.31-.83h0l0,1.15.44-.68h.05l-.11.84.44-.53.11.12-.36.72.48-.23.06.08-.27.54.47-.4,0,.1-.35.52,1-.52-.61-1.1"/><path class="cls-2" d="M136,48.93c-.19-.1-.94,1-.71.92s1.19-.22.71-.92"/><path class="cls-2" d="M135.14,48.21a5.43,5.43,0,0,1-.72-1.05,1.48,1.48,0,0,0-.76-.62c-.24.1-.1.65,0,.81s.27.48.47.77.41.94.87.89c.15,0,.59-.22.13-.8"/><path class="cls-2" d="M133.56,50.47c.07,0,.31-.52.38-.48s-.19.39.12.37.19-.54.5-.33-.13.5-.41.54-.47.27-.61.36-.24-.23-.52-.2-.16-.37,0-.34.32.18.49.08"/><path class="cls-2" d="M132.12,44c-.21,0-.24.67,0,.74.11,0,0,.3.2.41s0-.51.08-.53c.32,0,.21.73.36,1s.28,0,.34.12a2.15,2.15,0,0,0,.72.72c.22.08.28-.13.12-.31s-.74-.54-.82-.75-.25-1.1-.61-1.33-.31-.11-.44-.1"/><path class="cls-2" d="M131.2,43.37c-.29.18.07.28.1.41s0,.37.39.2c.2-.1.07-.37-.11-.47s-.22-.24-.38-.14"/><path class="cls-2" d="M133.92,52c-.1,0-.18.3.12.22s.18-.33-.12-.22"/><path class="cls-2" d="M134.63,51.61c-.18,0-.44.34-.12.31s.71-.41.12-.31"/><path class="cls-2" d="M135.69,51.18c-.19.11-.24.49.13.25s.29-.48-.13-.25"/><path class="cls-2" d="M132.2,51c0,.15.2.27.28,0s-.25-.13-.28,0"/><path class="cls-1" d="M128.4,47.87l.63-.13,0-.12c0-.25-.18-.24-.61-.15s-.47.13-.44.3l0,.17.42-.08.05.27-.63.14-.11-.57a.38.38,0,0,1,.11-.33,1.11,1.11,0,0,1,.49-.18c.29,0,.63-.12.8.08a.33.33,0,0,1,.08.19l.11.51-.86.17,0-.27"/><path class="cls-1" d="M127.48,46.52l0-.28,1-.13c.34,0,.51,0,.55.41s-.1.5-.42.54l-1,.13,0-.28,1-.13c.14,0,.28,0,.26-.23s-.17-.17-.31-.16l-1,.13"/><path class="cls-1" d="M128.79,45.6v.28h-1.5v-.44l.7-.16a2,2,0,0,1,.34,0h0l-.34,0-.7-.14V44.6h1.5v.28h-1.37l1.37.29v.17l-1.36.31h0c.3,0,.59,0,.89,0h.47"/><path class="cls-1" d="M128,43.14c-.13,0-.26-.07-.3.08s0,.16.08.19.18,0,.26-.09a1.91,1.91,0,0,1,.33-.25.37.37,0,0,1,.34,0,.41.41,0,0,1,.28.56.41.41,0,0,1-.57.31l-.1,0,.08-.26.08,0c.14,0,.25,0,.29-.1s0-.18-.12-.21a.21.21,0,0,0-.22,0,2.51,2.51,0,0,1-.46.32.39.39,0,0,1-.24,0c-.24-.07-.33-.25-.25-.53a.41.41,0,0,1,.6-.28l-.08.26"/><path class="cls-1" d="M128.48,42.32l0,0c.05-.12,0-.21-.14-.28s-.21,0-.27.13l0,.12.39.17,0-.1.21.07,0,.11.58.24-.11.25-1.39-.56.22-.53c.1-.25.33-.25.53-.17a.5.5,0,0,1,.28.27.5.5,0,0,1,0,.32l0,.08-.21-.07"/><path class="cls-1" d="M135.81,54.74l.06,0c.11,0,.17-.12.1-.29s-.13-.17-.28-.11l-.12,0,.16.4.09,0,.09.2-.1,0,.22.58-.26.1-.53-1.4.53-.2c.25-.1.4.08.48.27a.42.42,0,0,1,0,.38.47.47,0,0,1-.26.2l-.08,0-.09-.2"/><path class="cls-1" d="M134.2,42.28l.05,0c.08.09.17.11.3,0s.09-.19,0-.3l-.09-.09-.3.31.06.07-.14.16-.08-.07-.43.45-.2-.2,1-1.07.41.4c.19.18.1.4-.05.55a.42.42,0,0,1-.35.15.51.51,0,0,1-.28-.15l-.06-.06.14-.17"/><polygon class="cls-1" points="129.4 42.23 128.36 41.14 128.57 40.95 129.6 42.03 129.4 42.23"/><path class="cls-1" d="M129.9,41l.1,0c.08,0,.13-.12.08-.26s-.13-.16-.23-.13l-.2.07.14.39.12,0,.07.2-.12,0,.21.61-.27.1-.48-1.42.5-.17c.23-.08.43-.06.52.2s.07.33-.1.41h0a.23.23,0,0,1,.29.19c0,.05.14.41.21.43v0l-.29.1a1.54,1.54,0,0,1-.15-.35c0-.08-.07-.2-.17-.2a.36.36,0,0,0-.17,0l-.07-.2"/><path class="cls-1" d="M131.82,41v.1c0,.4,0,.69-.51.68s-.48-.31-.47-.71v-.22c0-.37.06-.66.5-.64s.47.29.47.67V41h-.28v-.21c0-.12,0-.36-.19-.37s-.21.26-.21.37l0,.42c0,.12,0,.32.2.33s.21-.2.21-.34V41h.28"/><path class="cls-1" d="M133.64,41.53c.09-.1.17-.21.05-.31s-.14-.07-.2,0-.05.16,0,.26a3,3,0,0,1,.09.41.37.37,0,0,1-.11.32.41.41,0,0,1-.63,0,.4.4,0,0,1,0-.64l.08-.08.21.18-.06.07c-.1.1-.14.21,0,.3a.15.15,0,0,0,.25,0,.22.22,0,0,0,0-.22,2.07,2.07,0,0,1-.11-.55.44.44,0,0,1,.1-.22.37.37,0,0,1,.59,0,.4.4,0,0,1,0,.66l-.2-.18"/><polygon class="cls-1" points="134.02 43.29 135.18 42.34 135.68 42.96 135.5 43.1 135.19 42.7 134.9 42.94 135.19 43.3 135.02 43.44 134.72 43.08 134.36 43.37 134.69 43.76 134.51 43.9 134.02 43.29"/><path class="cls-1" d="M134.94,54.64c0-.13,0-.26-.15-.27s-.16,0-.16.13.06.16.14.22a2.16,2.16,0,0,1,.33.27.39.39,0,0,1,.11.32.41.41,0,0,1-.48.41.4.4,0,0,1-.43-.48v-.12l.28,0v.09c0,.14,0,.25.17.26s.18-.05.18-.17a.21.21,0,0,0-.1-.2,1.86,1.86,0,0,1-.42-.37.33.33,0,0,1-.06-.23c0-.26.16-.4.46-.38s.41.37.41.52l-.27,0"/><polygon class="cls-1" points="137.16 54.94 136.1 53.88 136.66 53.32 136.81 53.48 136.45 53.84 136.72 54.11 137.06 53.77 137.21 53.93 136.88 54.26 137.2 54.59 137.57 54.23 137.72 54.38 137.16 54.94"/><path class="cls-1" d="M137.46,52.88c-.12-.07-.24-.13-.32,0a.13.13,0,0,0,0,.2.29.29,0,0,0,.27,0,2.71,2.71,0,0,1,.39-.17.38.38,0,0,1,.33,0,.42.42,0,0,1,.15.62.42.42,0,0,1-.63.17l-.09-.06.13-.24.08,0c.13.07.24.09.31,0a.16.16,0,0,0-.07-.24.24.24,0,0,0-.23,0,2.36,2.36,0,0,1-.52.21.46.46,0,0,1-.23-.06c-.22-.13-.27-.32-.12-.58a.41.41,0,0,1,.64-.13l-.13.24"/><path class="cls-1" d="M135.5,43.81l.06.09c.06.07.15.09.27,0s.12-.17.06-.26l-.12-.17-.34.24.08.1-.18.13-.08-.1-.52.37-.16-.24,1.22-.85.31.43c.14.2.17.39,0,.56s-.3.15-.43,0h0a.23.23,0,0,1-.09.33c-.05,0-.36.24-.36.32l0,0-.18-.26a1.44,1.44,0,0,1,.3-.24c.07-.05.17-.12.14-.22a.37.37,0,0,0-.08-.15l.18-.13"/><path class="cls-1" d="M136.33,45.28l-.08,0c-.34.21-.61.34-.85-.06s0-.57.34-.77l.18-.12c.33-.19.59-.31.82.07s0,.56-.31.77l-.1.06-.16-.23.17-.11c.1-.07.32-.19.21-.37s-.33,0-.43,0l-.35.22c-.11.07-.27.18-.17.34s.27.07.4,0l.17-.11.16.24"/><path class="cls-1" d="M122.88,50.75c2.63-4.78,2-9.88-.85-11.24-3.4-1.6-7.31.7-9.85,5.68-2.41,4.73-2,9.88.81,11.29s7.45-1.31,9.89-5.73"/><path class="cls-2" d="M122.44,50.53c2.42-4.44,2-9.34-.63-10.61-3.22-1.55-7,1-9.29,5.49s-1.89,9.28.73,10.62,6.83-1.16,9.19-5.5"/><path class="cls-1" d="M116.17,41.66l.2-.19.71.77c.22.25.24.44,0,.68s-.46.21-.68,0l-.7-.77.21-.19.68.76c.1.1.2.2.35.07s0-.23-.06-.34l-.68-.75"/><path class="cls-1" d="M114.84,43.74c-.1-.09-.22-.15-.31,0a.13.13,0,0,0,0,.2c.09.07.17,0,.27,0s.29-.1.4-.12a.4.4,0,0,1,.33.09.41.41,0,0,1,.06.63.4.4,0,0,1-.64.09l-.08-.07.16-.22.07,0c.12.09.23.12.31,0a.15.15,0,0,0,0-.24.22.22,0,0,0-.23,0,2,2,0,0,1-.54.14.4.4,0,0,1-.28-.67.4.4,0,0,1,.65,0l-.16.22"/><path class="cls-1" d="M120.15,42.27c-1.71-.69-3.69,1.22-5,4.09s-1.78,6.11-.09,7c1.93,1,4.14-2,5.43-4.87,1.05-2.36,1.2-5.57-.31-6.18"/><path class="cls-2" d="M120,42.49c-1.61-.65-3.42,1.31-4.68,4s-1.77,5.75-.18,6.55c1.82.91,3.8-1.88,5-4.6,1-2.23,1.27-5.39-.16-6"/><path class="cls-1" d="M114.88,50.29l-.31-.15.08-.18a.38.38,0,0,0,.49-.06l.19.09-.64,1.36-.26-.12.45-.94"/><path class="cls-1" d="M115.45,50.1l.77.36-.09.18a2.88,2.88,0,0,0-.56.54,2.91,2.91,0,0,0-.32.46l-.26-.12a3.29,3.29,0,0,1,.61-.73,2.09,2.09,0,0,1,.3-.24l-.55-.25.1-.2"/><path class="cls-1" d="M116.35,50.52l.77.36-.08.19a2.87,2.87,0,0,0-.57.53,4.63,4.63,0,0,0-.31.46l-.26-.12a3.53,3.53,0,0,1,.61-.73,2.09,2.09,0,0,1,.3-.24l-.55-.25.09-.2"/><path class="cls-1" d="M117,52.2c.15.08.19-.06.28-.24s.12-.24,0-.3-.19.08-.24.19-.16.29,0,.36l-.1.19c-.29-.14-.28-.37-.13-.69l.15-.33c.2-.43.38-.49.65-.36s.31.25.2.46l-.24-.11s0-.12-.06-.16-.21.11-.25.19l0,.09a.28.28,0,0,1,.24,0c.22.1.24.29.11.57s-.35.47-.64.34l.1-.2"/><path class="cls-1" d="M117.8,50.84a7.12,7.12,0,0,1-.47-1c-.08-.31,0-.55.2-.42a1.11,1.11,0,0,1,.27.47s.43-.36.34-.5-.37-.51-.37-.51.67-.26.64-.27a3.82,3.82,0,0,1-.09-.44s-.61.22-.63.24l.62-1.62c.77,1.79,2.27.4,1-1.43a1.77,1.77,0,0,0,.9-.2c.32-.2.33-.61.11-1s-.18-1-.42-1.21l-.36-.12c-.31,0-.87.4-1.21.52s-.74.44-.65.81a1.65,1.65,0,0,0,.49.78c-2.18.4-2.1,2.45-.29,1.74l-.71,1.58s-.28-.62-.28-.62a3.41,3.41,0,0,1-.37.25s.27.64.27.64l-.63.1c-.16,0-.11.59-.11.59a1,1,0,0,1,.52-.14c.22,0,.12.28-.16.43a4.15,4.15,0,0,1-1,.28l2.35,1.05"/><path class="cls-2" d="M119.06,46c.18,0,.3.32.3.61s-.09.56-.27.56-.33-.29-.33-.57.12-.6.3-.6"/><path class="cls-2" d="M118.05,45.54c-.12-.14-.46,0-.68.17s-.38.44-.26.59.44.07.67-.13.39-.49.27-.63"/><polygon class="cls-1" points="116.52 41.37 117.29 40.83 117.41 41.01 117.14 41.2 117.88 42.25 117.65 42.41 116.92 41.36 116.65 41.55 116.52 41.37"/><polygon class="cls-1" points="118.06 42.12 117.42 40.75 117.67 40.63 117.92 41.17 118.28 41.01 118.03 40.47 118.28 40.35 118.92 41.71 118.67 41.83 118.37 41.21 118.02 41.37 118.31 41.99 118.06 42.12"/><path class="cls-1" d="M120.17,41.11s0,0,0,.08c0,.28-.14.48-.45.46s-.47-.33-.44-.73v-.21c0-.38.09-.67.54-.63a.37.37,0,0,1,.38.41v.12l-.28,0c0-.1,0-.28-.12-.29s-.22.25-.23.37l0,.41c0,.12,0,.33.18.34s.16-.24.17-.33l.28,0"/><polygon class="cls-1" points="121.8 43.92 123.3 43.92 123.3 44.2 122.02 44.2 122.02 44.73 121.8 44.73 121.8 43.92"/><rect class="cls-1" x="122.42" y="44.24" width="0.28" height="1.5" transform="translate(71.1 164.98) rotate(-86.94)"/><path class="cls-1" d="M123.23,46.05l0,.29-1.49-.16,0-.29.55-.16a4.1,4.1,0,0,1,.62-.14h-.43c-.15,0-.3,0-.42,0l-.28,0,0-.28,1.49.16,0,.29-.56.16a6,6,0,0,1-.62.13h.43l.42,0,.29,0"/><path class="cls-1" d="M120.7,41.57l.15.1-.14.36.25.16.53-1.44-.31-.21-1.13,1.07.26.16.26-.28.14.09.13-.18-.11-.07L121,41l.14-.16s0,0,.06-.08h0a.56.56,0,0,0,0,.08l-.09.19-.16.4-.11-.07-.13.18"/><path class="cls-1" d="M122,46.79l0,.19h-.39l0,.3,1.54-.11.06-.37-1.43-.59,0,.3.36.13,0,.15.21.05,0-.12.41.15.2.06.1,0h-.74l0-.13-.22-.05"/><path class="cls-1" d="M121.69,50.07l.08-.17.38.09.13-.26-1.51-.33-.16.34,1.21,1,.13-.27-.31-.23.06-.14-.2-.11,0,.12-.35-.26a1.08,1.08,0,0,0-.18-.11l-.08-.05h0l.1,0,.2.07.41.11,0,.11.19.11"/><path class="cls-1" d="M113.65,45.4l-.07.17-.38-.1-.13.28,1.51.32.16-.34-1.22-1-.12.27.31.22-.06.15.2.11,0-.12.36.26.17.11.09,0h0l-.1,0-.2-.06-.41-.11,0-.12-.2-.1"/><path class="cls-1" d="M114.18,47.05l-.09.26-1.42-.51.1-.28.58,0c.19,0,.39,0,.63,0h0l-.41-.12-.4-.13-.27-.1.1-.26,1.41.52-.1.26-.58,0a4.7,4.7,0,0,1-.64,0h0l.41.12.41.13.27.11"/><rect class="cls-1" x="113.09" y="46.61" width="0.28" height="1.5" transform="matrix(0.34, -0.94, 0.94, 0.34, 30.01, 137.57)"/><path class="cls-1" d="M112.33,47.73l.08-.27,1.45.39-.12.43-.71,0-.35,0h0l.32.13.64.33-.12.43-1.45-.39.07-.27.46.12c.29.08.58.16.86.26h0l-1.24-.64,0-.17,1.4.07h0l-.87-.21-.46-.12"/><polygon class="cls-1" points="111.98 48.97 113.45 49.28 113.39 49.55 111.92 49.24 111.98 48.97"/><path class="cls-1" d="M112.73,50.23c.13,0,.26.06.3-.09s0-.16-.09-.18-.17,0-.25.1a2.91,2.91,0,0,1-.33.26.35.35,0,0,1-.33,0,.46.46,0,0,1,.26-.88l.11,0-.08.27-.08,0c-.14,0-.26,0-.29.1a.16.16,0,0,0,.12.22.22.22,0,0,0,.22-.06,2.42,2.42,0,0,1,.45-.34.4.4,0,0,1,.24,0c.25.07.35.24.27.53s-.44.33-.58.29l.06-.26"/><polygon class="cls-1" points="112.03 53.45 113.39 52.81 113.51 53.06 112.15 53.7 112.03 53.45"/><path class="cls-1" d="M114.67,54.15l.24.14-.52.91c-.17.29-.34.37-.66.18s-.33-.37-.17-.66l.53-.91.24.15-.51.88c-.07.13-.14.26,0,.35s.24,0,.31-.15l.51-.89"/><path class="cls-1" d="M115.56,54.73c0-.13,0-.26-.12-.28s-.16,0-.17.11,0,.17.12.24a2.83,2.83,0,0,1,.3.3.37.37,0,0,1,.07.32.46.46,0,0,1-.9-.16l0-.11.27,0v.09c0,.14,0,.25.13.28a.16.16,0,0,0,.2-.15.21.21,0,0,0-.08-.21,2.53,2.53,0,0,1-.38-.42.37.37,0,0,1,0-.23c0-.26.21-.37.5-.33.44.07.38.41.36.56l-.27-.05"/><path class="cls-1" d="M116.62,54.66l.11.37a.77.77,0,0,1,0,.15h0l-.11.17.07,0-.07,0c-.19.05-.25-.14-.28-.26l-.11-.4c0-.12-.12-.37.1-.42s.26.2.3.35l.27-.09c-.1-.36-.2-.6-.63-.48s-.39.4-.3.77l0,.21c.11.38.21.66.66.54a.49.49,0,0,0,.24-.12l.19.11.1-.16-.19-.11a1.09,1.09,0,0,0,0-.52l-.07-.25-.28.09"/><path class="cls-1" d="M117.36,53.69l.24-.14.53.91c.17.28.15.47-.17.66s-.49.1-.66-.19l-.52-.9.24-.15.51.89c.08.13.16.25.32.15s.1-.22,0-.34l-.51-.89"/><polygon class="cls-1" points="118.72 54.55 117.66 53.48 118.22 52.93 118.38 53.08 118.02 53.44 118.28 53.71 118.62 53.38 118.77 53.53 118.44 53.87 118.77 54.19 119.13 53.83 119.28 53.99 118.72 54.55"/><polygon class="cls-1" points="120.83 49.28 121.23 48.43 121.43 48.53 121.29 48.82 122.45 49.37 122.33 49.62 121.17 49.08 121.03 49.38 120.83 49.28"/><rect class="cls-1" x="121.9" y="47.72" width="0.28" height="1.5" transform="translate(31.37 143.45) rotate(-67.99)"/><path class="cls-1" d="M121.9,42.12l0,.09c.06.08.15.1.27,0s.13-.16.08-.25l-.11-.17-.35.21.06.11-.18.12-.07-.11-.55.34-.15-.23,1.28-.8.28.45c.13.21.15.41-.08.55s-.31.14-.43,0h0c.08.15,0,.25-.11.33s-.37.22-.37.3l0,0-.17-.26a1.66,1.66,0,0,1,.31-.23c.08,0,.18-.12.16-.21a.56.56,0,0,0-.07-.16l.18-.12"/><path class="cls-1" d="M116,42.76l.08.05c.32.24.53.44.26.8s-.53.23-.85,0l-.17-.13c-.3-.24-.51-.43-.25-.79s.52-.21.83,0l.1.08-.16.23-.17-.12c-.09-.07-.29-.22-.41,0s.09.31.18.38l.33.25c.1.07.27.19.39,0s0-.28-.16-.37l-.16-.12.16-.23"/><path class="cls-1" d="M122.43,43.79h-.09c-.39.09-.68.12-.78-.33s.18-.54.57-.62l.21-.05c.37-.07.66-.1.75.34s-.17.52-.54.62l-.13,0-.06-.28.2,0c.11,0,.36-.07.31-.28s-.3-.14-.41-.11l-.4.09c-.13,0-.32.08-.28.27s.24.15.38.12l.2,0,.07.28"/><path class="cls-1" d="M120.71,50.85l.05-.09a.18.18,0,0,0-.1-.25c-.14-.09-.2,0-.26,0l-.11.18.35.21.07-.1.18.11-.06.11.55.34-.15.24L120,50.85l.29-.45c.13-.21.29-.32.53-.18s.26.22.18.39h0a.24.24,0,0,1,.35,0s.36.23.43.2h0l-.17.26a1.29,1.29,0,0,1-.33-.17c-.08-.05-.19-.12-.26-.05a.28.28,0,0,0-.11.13l-.18-.11"/><path class="cls-1" d="M120.57,51.93l.11-.15.35.16.18-.25-1.43-.58-.22.31,1,1.16.17-.25-.27-.28.09-.13-.18-.14-.06.11-.3-.32-.16-.14-.08-.07h0l.08,0,.19.1.39.18-.07.1.17.14"/><path class="cls-1" d="M119.58,52.48l0,0c.07-.1.09-.19-.05-.31s-.2-.08-.3,0l-.08.1.33.28.07-.08.17.14-.07.08.48.41-.19.21-1.14-1,.37-.43c.17-.21.39-.13.55,0a.41.41,0,0,1,.18.33.46.46,0,0,1-.13.3l0,.06-.18-.13"/><path class="cls-1" d="M112.9,54l-.16.12,0,.05a.35.35,0,0,0,.11.13c.07,0,.16,0,.22-.06s.17-.16.06-.3l-.06-.09-.23.16-.16-.22.6-.44.16.24-.19.13,0,.05s.09.12.16.13a.29.29,0,0,0,.15-.07c.09-.07.12-.12.05-.23l-.08-.1-.14.1-.16-.24.32-.22.26.37c.07.1.14.2.1.32a.41.41,0,0,1-.17.22.31.31,0,0,1-.37,0h0c.08.14,0,.27-.15.38l-.16.1a.35.35,0,0,1-.44-.14L112.4,54l.33-.24.17.22"/><path class="cls-1" d="M112.39,51.89h-.1c-.4,0-.69,0-.68-.49s.3-.49.7-.48h.21c.38,0,.66.05.66.49s-.29.48-.67.49h-.13V51.6h.22c.11,0,.36,0,.37-.2s-.27-.2-.38-.2h-.42c-.12,0-.32,0-.32.2s.2.21.34.21h.2v.29"/><path class="cls-1" d="M112.63,52.44v.05c0,.12.12.18.29.12s.17-.13.11-.28l0-.12-.41.14,0,.1-.21.09,0-.11-.58.21-.1-.26,1.41-.51.19.54c.1.25-.08.4-.28.47a.46.46,0,0,1-.38,0,.49.49,0,0,1-.19-.26l0-.08.21-.09"/><path class="cls-1" d="M119.14,3c.4,0,1.08,1.65,2.1,2.11.1,0,.1-.09.1-.18l-.74-.75a2.4,2.4,0,0,0,.64.38.35.35,0,0,0,.1-.19c-.74-.93-1.49-1.67-2.14-2.61-.09-.18.18-.09.28-.09,1,.56,1.21,1.77,2.14,2.51.09,0,.09-.18.09-.28-.47-1.3-1.67-2.05-2.14-3.25,1.3.46,1.67,1.77,2.42,2.79.28-.65-.56-1.3-.65-1.95,1.3.83,1.58,2.32,1.86,3.72,0-.19-.19-.47-.28-.37s-.19.46-.09.55a2.44,2.44,0,0,1,.83,1.3c.38-1.67-.46-3.16-.93-4.65,1.15.41,1.21,3,1.4,3.54A13,13,0,0,0,124,1.88c0-.09.28-.09.28-.09.46,1.31,0,2.61.27,3.91.47-1.39.1-2.79.38-4.18.37.55,0,1.23.18,2s.56-.12.38-2.14c0-.09.18-.28.27-.18.19.37,0,.83.28,1.21.19-.38.38-.84.56-1.21.09,0,.28.18.37.18.47-.28.38-1.39.84-1.21s-.19.74-.37,1.21c-.19.28-.47.56-.65.84a1.3,1.3,0,0,0-.1,1.3C127,3.19,128,.77,128.6,0c.09-.1.18.09.27.18A13.32,13.32,0,0,0,127,3.75c0,.09,0,.37.1.37.46-.56.46-1.39.93-1.95.09-.1.18-.38.46-.29-.28.85-1.11,1.59-1,2.52,0,.19.18-.09.28-.19a18.49,18.49,0,0,1,1.67-3c.19-.19.28-.56.65-.56-.18.84-1,1.3-1.21,2.05-.09.18.56,0,1.68-1.78.07-.1.28.29.37.19-.84,1.31-2.42,2.14-2.79,3.73a24.35,24.35,0,0,1,3-3.35c.09,0,.24.09.34.09-.56,1-1.74,1.39-2.39,2.42a17.92,17.92,0,0,0-.93,1.86c0,.09.15.18.25.28a9.87,9.87,0,0,1,3.19-4.1l.19.19a9.73,9.73,0,0,0-2.55,2.64,14.81,14.81,0,0,1,1.59-1.4,2.44,2.44,0,0,0,1.33-1l.19.18a17.75,17.75,0,0,0-1.86,2.89c0,.18.18.37.37.27,1-1.11,1.2-2.69,2.42-3.62.09.18-.1.37-.1.56-.46.55-1,1.11-1,1.76,0,.19.37-.18.56,0s-.09.65.09.65.46-.21.81-.52.21.62,1.89-1.34c.06-.07.19.09.19.09-1.4,1.5-5.12,5.59-4.94,6.33.28-.28.38-.65.65-.83-.09.18-.37.55-.18.83a3.66,3.66,0,0,1,.81-.9,2.31,2.31,0,0,0-.44,1.4,1.33,1.33,0,0,0,.4-.81c.28-.46.57-.4.91-.9s-.66.22-.56-.09c.49-.44-.29-.37-.47-.09a6.47,6.47,0,0,1,1.58-1.9,18.28,18.28,0,0,1,3.07-2.85c.15-.11.56,0,.47.09-.56.84-1.74,1-2.33,1.87,0,.07.28.27.19.37-.47.46-1.06.52-1.15,1.08,0,.28.12.34.53.22-.28.37-.41.74-.68,1.12,0,0,.09.18.18.09A8.4,8.4,0,0,1,137,5.61c.18-.09.18.09.28.18-.93.75-2,1.49-2.89,2.33-.09.19.22.71.31.53.93-.84,1.83-1.46,2.76-2.21.1,0,.25,0,.25.13a10,10,0,0,0-2.3,2c-.08.1.38.09.47.09a10.06,10.06,0,0,1,3.16-2c.1,0,.47.41-.93.81-.2.06-.93.33-.93.59s.56.19.84.09.65-.65,1.12-.65c-.1.28-.37.37-.47.56s.1.47-.19.65c0,.1,0,.37.1.37.93-1,1.58-2.14,2.51-3.16.09-.09.28.09.47.09a5.11,5.11,0,0,1-1.09,1.37,15.87,15.87,0,0,1,2.39-1.09c.09,0,.09.09.18.19a22.38,22.38,0,0,1-2.17,1c-.28.09-.06.19-.06.28a1.9,1.9,0,0,0,1-.4A14.24,14.24,0,0,1,144,6.82c.09,0,.34.31.25.31a9.64,9.64,0,0,0-5,2.11c0,.09,0,.28.1.28,1.11-.47,2-1.31,3.06-1.68.1,0,0,.28.19.28a7.45,7.45,0,0,0-1.49.65c-.09.1-.37.19-.18.47-.28.09-.84.09-.75.37s.75-.09,1.12-.19c.19,0-.1-.18-.1-.28H142c-.37.47-1,.63-1.21,1.21s1.58-1.39,2.51-1.3c-.09.09-.18.19-.28.28a6.19,6.19,0,0,0-2.14,1.58c1.31.18,2.52-.84,3.54-1.49,0,.1.22.34.09.37a5.57,5.57,0,0,0-2.6,1.77c-.47.65,1.27-.81,2.6-1a1.26,1.26,0,0,0-.18.28,7.39,7.39,0,0,0-2.7,1.39c.65.19,1.12-.37,1.77-.46a7.17,7.17,0,0,0,1.39,0c-.19,0,0,.28-.19.28a6,6,0,0,0-3.35.84c.84.37,1.68-.47,2.52-.1a5.74,5.74,0,0,0-1.12.28c1.4.37,3.07-.28,4.37.56-.37.09-.74-.09-1,.09a6.94,6.94,0,0,0,1.49,1.39c-1,.1-2.38-.47-3.16-.09,1.11.19,2.32,0,3.16.93a15.25,15.25,0,0,0-2-.49,5.26,5.26,0,0,0-1.7.15c-.54.28.93.53,1.39.44a1.17,1.17,0,0,1,.66.37c-.29.09-.57-.09-.75.09a2.32,2.32,0,0,0,1.58.28c0,.19.84.56,1,.84-.28-.09-.47-.28-.75-.09a2.32,2.32,0,0,1,.65.74c-.09,0-.09.09-.09.18-.65-.36-.93-1-1.58-1.3a.36.36,0,0,0-.19.09c.65.85,1.58,1.59,1.4,2.7-.47-.28-.47-.83-.84-1.2a11.79,11.79,0,0,0-1.49-1.59c-.28-.18-.65-.46-1-.18a12.67,12.67,0,0,1,1.86,2.51c-.75-.56-1.1-2-2.05-1.92-.68.09.26.78-.09,1a4.71,4.71,0,0,0-1.58,1c-.1.18.21.28.46.18.56-.37.84-1.11,1.58-.65a2.9,2.9,0,0,1-1.11.75,3.32,3.32,0,0,0,1.58.84c0-.19.09-.38-.09-.47.27-.19.46-.09.74,0-.09.09-.28.19-.19.28.56.56,1.59.19,2,.93-.46.28-1-.09-1.49-.19,0,.47.56.47.65.93-.65-.09-.74-.74-1.21-1a5,5,0,0,0-1.08-.46c-.28,0-.59-.28-.87-.1a6.29,6.29,0,0,1,2.23,1.68c.09.18-.18.09-.18.09-.56-.09-.93-1-1.49-.75a5.89,5.89,0,0,0,.65.94c-.65-.56-1.21-1.31-1.95-1.86-.1,0-.28,0-.28.09a8.34,8.34,0,0,1,1.39,1.77c-.43-.16-.83-1.28-1.49-1.25s1,1.34,1.68,1.89c.09.1.19-.18.19-.36.55.18-.1.74-.1,1s.47,0,.75.18a17.48,17.48,0,0,0-2,.75c.56.28,1.21-.28,1.86-.19.1.09.37.09.28.37-.46-.46-1,.1-1.49.19-.27.09.1.19.1.28a1.68,1.68,0,0,1,1.48.09,4.73,4.73,0,0,0-2.23.56A5.14,5.14,0,0,0,144,28c.09.09.65-.19.74.18,0,.1-.37.19-.37.28.18.28.65.37.83.65,0,.09-.18.09-.27.09-.28.38.09.84.09,1.22a2.66,2.66,0,0,0-.74-1c-.19.75.46,1.21.46,1.86-.09,0-.28.1-.37-.09-.37-.93-.19-2.14-.93-2.88-.09.09-.19.09-.19.18a23.12,23.12,0,0,1,.56,2.51c0,.1-.18.1-.28.1-.18-.38-.09-.84-.37-1.21-.19.28-.09.74-.19,1-.09,0-.18,0-.18-.09a23.26,23.26,0,0,0-.09-3.54c0-.28-.29,0-.38.09-.28,1.12.38,2.14,0,3.26h-.18c-.19-1.49.37-3.26-.38-4.56-.37,1.4.28,3-.27,4.38-.1-1.4.27-2.89-.29-4.29-.37.29-.27,3.64-.46,3.64a.21.21,0,0,1-.19-.19c.19-.84.1-2.33-.92-2.05-.47.19.46.75.37,1.3-.84-.65-.93-2-2-2.41a.28.28,0,0,0-.19.37c.94,1.3,2,2.51,2,4.09-.37-.09-.47-.56-.65-.84-.37-.84-.28-1.95-1-2.32-.09-.1.66,2.79.93,3.91-.83-1.31-.83-2.8-1.48-4.19-.1-.19.37,2.7.55,4.09a9.16,9.16,0,0,1-.74-2.7l-.28-.28c-.47.65.19,1.68.09,2.52-.83-1.4-.28-3-.74-4.47-.74,1.3.09,2.6-.28,3.91-.46-1.86-.18-3.72-.28-5.58-.84,1.67-.28,3.44-.37,5.21-.65-.94-.19-2.14-.65-3.07-.38.83.18,1.76,0,2.6-.68-3-.93-1.21-.93-.84,0-.28-.19-.83-.37-.74-.65.19.18,1.11.27,1.68,0,.09-.09.09-.18.18-.19-.37-.68-1.55-.68-1.08a2.09,2.09,0,0,0,.31.8,2.74,2.74,0,0,1,.15.51,15.31,15.31,0,0,0-1.77-2.1c-.19,0,.15,1.05,1.56,2.92.07.09.27-.33.28-.21a7.39,7.39,0,0,0,.15,1c.09.28.37.56.37.93-.37-.19-.37-.74-.74-.74-.19,0,0,.37-.1.65-.37-.28-.18-.84-.37-1.21a5.18,5.18,0,0,0-1.4-1.15c.1.65.75,1.15.94,1.71,0,.09-.19.27-.19.46-.19,0-.19-.19-.28-.27-.28-.56-.47-1.5-1.12-1.31-.37.19.56.65.19,1.12a1.42,1.42,0,0,0-.65-1.12c-.09,0-.28,0-.28.09,0,.38.28.56.28.93a.35.35,0,0,1-.28-.09c-.19-.56-.19-1.12-.56-1.39s-.56-.75-.93-1c-.09.93.65,1.68.56,2.61,0,.09-.34.49-.46-1.21a1.74,1.74,0,0,0-.94-1.21c-.09,0,0,.6.12.66,1.3,1,.31,2.8.27,1.88a2.34,2.34,0,0,0-.83-1.82v-.85s-.11.58-.45,2c-.21,0-.27-1.92-.5-2.18s-.42-.16-.51.05c-.27.52-.11,2.09-.24,2.05S125,29,124.84,29s-.07,2.83-.27,2.73-.59-2.92-.86-2.87a20.07,20.07,0,0,0-.79,2.92,12,12,0,0,0,0-3.17c-.47,1,0,2.24-.56,3.26-.09-.37.09-.74-.09-1.12-.47.56-.19,1.31-.47,1.86a10.27,10.27,0,0,1,.19-3.72c0-.09-.09-.09-.19-.18-.18.28-.09.8-.27,1s-.1-.44-.29-.44c-.27.19-.21.83-.18.84a.77.77,0,0,1,.37.9c-.19.75,0,1.46-.37,1.9-.19-.57-.09-1.12-.46-1.59-.56.56.18,1.4.09,2,0,.09-.65.62-.47-2.11,0-.09-.37-.77-.59,2.85a10.25,10.25,0,0,1,0-3.62.11.11,0,0,0-.18-.1c-.56.65-.28,1.49-.65,2.23,0-1.95,1-3.72,1.49-5.67,0-.09-.28,0-.38.09,0-.09-.09-.46-.18-.46-.28.19-.75.46-.93.09a7.44,7.44,0,0,0-1,2.6c.38-.27.84-1.76,1.12-2-.37,1-.74,1.95-1.12,3,0,.09.28,0,.28.18.19-.37.28-.93.66-1.21-.28.56-.83,2.64-1,1.77-.09-.59-1.24-2.88-.8-1.37.21.77.09,1.56.37,2.3a6.66,6.66,0,0,1-.49-2,2.51,2.51,0,0,0-.35-.5c0,.07.43,2.64.47,2.79-.28-.19-.28-.56-.28-.93,0-.09-.38-.19-.38-.09v.74a3.08,3.08,0,0,0-.37-.84c-.18.47.1.93,0,1.4a2.78,2.78,0,0,0-.74-1.86,23.5,23.5,0,0,0,.28,2.51,11,11,0,0,0-.56-2.33c-.09.1-.19.1-.19.19a22.51,22.51,0,0,0,.38,2.42c.09.28-.19.37-.19.56-.19-.65,0-1.31-.37-2a13,13,0,0,1-.19,2.42c-.18-.46.1-.93-.28-1.3-.18.37,0,.74-.18,1.12a.34.34,0,0,0-.28.09c0-1,.46-2,.28-3.07A11.8,11.8,0,0,1,113,33.7c0-1.3.94-2.42.75-3.72a15.34,15.34,0,0,0-1.21,2.89c-.09.09-.19,0-.19-.1.1-.74.94-1.49.75-2.23,0-.19-.71,1.15-1,1.52-.28-.47,1.27-2.25,1.52-2.79s-1.09.83-1.46,1.21a21.93,21.93,0,0,1,1.67-2.17c0-.65-1.11,1.11-1.76,1.58.18-1.21,2.36-2.53,2.23-2.79s-1.49,1-2,1.67a6.17,6.17,0,0,1,.84-1.3s-.1-.19-.19-.1c-.46.47-.59,1-1.48.81-.37-.07-.75.5-.66,1,.28,1.31.38,2.52.66,3.82-.28,0-.28-.38-.28-.47a30.3,30.3,0,0,1-.66-4.74,26.08,26.08,0,0,0,0,5.3c-.65-1.3-.18-2.79-.56-4.09-.36,1.21.29,2.51-.27,3.72-.47-1.77.27-5.36.18-5.36a9.48,9.48,0,0,0-.55,1.73c-.19,1.12.09,2.23-.28,3.35a.67.67,0,0,1-.19-.56,7.2,7.2,0,0,1-.09-2c.09-.66.56-1.31.37-2-.93,1.21-.65,2.79-.75,4.28,0,.1-.27-.09-.37-.28-.18-.93.16-3-.18-2.7-.61.61-.1,1.68-.19,2.42,0,.19-.28,0-.37,0a3.54,3.54,0,0,1-.19-1.95c.62-1.22,2-2.17,2.95-3.47.09,0,.22-.07.31-.07.28-.46.37-.93.84-1.21.37-.09.65.56.93.47s-.28-.56-.19-.93.56-.47.46-.84-.55-.56-.83-.47-.29.75-.44,1-1,.43-1.33.9c.09,0,.18.09.09.18-1,.93-2,2-3.07,2.89.28-1.12,1.9-2,2.55-2.86a12.08,12.08,0,0,1-1.12.75,8.55,8.55,0,0,0-1.43,1.18,18.49,18.49,0,0,1-1.39,2.32c-.1,0-.1-.19-.1-.28a14.16,14.16,0,0,1,1.4-2.6c-.09-.09-.19-.28-.28-.19A9.68,9.68,0,0,0,104.69,29c-.09-1,1-1.59,1-2.61-.65.65-1.18,1.4-1.74,2-.09.09,0-.19-.18-.19a14.55,14.55,0,0,1,3.34-3.35c-.46-.28-.83.19-1.2.38-.93.74-1.68,1.67-2.61,2.41-.19.1-.09-.28-.09-.28a11.06,11.06,0,0,1,4-3.16c-.56-.46-1.4,0-2,.28a15.83,15.83,0,0,0-2.6,2.42.11.11,0,0,1-.19-.09c.44-1.21,1.86-2.14,3-2.79s2.33-.28,3.54-.56c.46-.19,1.39-.19,1.39-.74s-.83-.47-1-.19c-.75,1.12-2,.65-2.89.74.47-.28,1.12-.28,1.31-.74.09-.09-.28-.09-.47-.09.1-.28.37-.38.37-.56a.2.2,0,0,0-.18-.19c-1.49.47-2.42,1.77-3.54,2.79a1.2,1.2,0,0,0,.09-.56,25.2,25.2,0,0,1,2.52-2.79c0-.09-.19-.09-.28-.09a11.6,11.6,0,0,0-3.07,3,.35.35,0,0,1-.1-.19c.75-1.58,2.39-2.14,3.42-3.44h-.38a30,30,0,0,0-3.59,3.26c.09-.1-.19-.19-.1-.28A19.07,19.07,0,0,1,104.87,21c-1.39.18-2,1.58-3.25,1.95.93-1.3,2.6-1.95,3.81-3-1.46-.15-2.88,1.31-4.19,2.24,0-.1-.09-.1-.18-.1.47-.74,1.7-1.17,2.36-1.82-.59,0-1.43.61-2.08.52-.1,0-.19-.09-.1-.18,1-1.12,2.89-.75,4.19-1.31-.93-1.11-2.23.37-3.44.19v-.28a18.43,18.43,0,0,1,4.46-1.11,5.4,5.4,0,0,1,1.31.18c.09,0,.19-.1.09-.18-1.49-1.24-3.72.09-5.49.27,0-.18.28-.37.37-.46a12.58,12.58,0,0,1,4.84-.56c.74.1,1.3,1,2.14,1.49a.32.32,0,0,0,.09-.19A4.29,4.29,0,0,0,107,16.77c-1.3-.18-2.32.53-3.81.37.91-.58,2.5-.62,3.13-.89,0,0-.53-.22-.43-.41.09-.37.74-.28,1-.65a3.75,3.75,0,0,1,.74-.93c1.21-.84,2.71-.82,4-1.2,0,.94-.44,1-.81,2.07,0,.08,0,.49.12.4.47-.84,1.15-1.83.87-2.85a6.77,6.77,0,0,0-3.54-.75,5.67,5.67,0,0,0-2.6,1c-.09,0-.18-.19-.28-.28.56-.28,1.3-.37,1.49-.84s-.65,0-1-.19c.37-.18.09-.37,0-.56a6.18,6.18,0,0,1,2.23,0,31.19,31.19,0,0,0,3.26,1.12c.37.1.65.47,1,.19-1.3-.65-2.7-1.12-4.1-1.68-.92-.37-1.89.22-2.82-.06-.46-.09-1.36-.22-1.55-.87.37,0,.84.1,1.12-.09a23.15,23.15,0,0,0,2.14-1.21c-.28-.18-1.21.19-1.67.47-.1-.28.27-.28.37-.47-.66-.28-1.21.65-2,.65a6.69,6.69,0,0,1,1.59-.93,15.74,15.74,0,0,0,2-.74c-.38-.38-1,.18-1.4-.28a3.5,3.5,0,0,1,1.4-.1,20.4,20.4,0,0,1,3.91.84c.09,0,.09-.18.09-.28a3.75,3.75,0,0,0-2-.93c-.09,0-.37.28-.56.19a15.38,15.38,0,0,1-2.14-.37c.09-.19.19-.37.37-.37.84,0,1.59.37,2.33-.19a15.67,15.67,0,0,1,4.16,1.61c-1-1.3-2.86-1.33-4.16-2.07a5.36,5.36,0,0,1,2.7.65c.65.27,1.3.65,2,.92.1-.55-.34-.55-.62-.83-.83-.56-1.89-.56-2.82-1,0-.1,0-.28.09-.28a18.67,18.67,0,0,1,4.9,2.23,19.73,19.73,0,0,0-3.69-2.42c1.77,0,3,1.67,4.47,2.42.09,0,.28,0,.28-.1-.93-1.3-2.61-1.57-3.63-2.69.28-.09.56.09.74.09,1.12.47,1.86,1.49,3.07,1.77a21.07,21.07,0,0,0-2.26-2c-.4-.28-1.65-.37-2.2-.93,1.55-.15,3.9,1.68,5.21,2.51,0,0,.18-.09.09-.18-.74-.84-2.36-2.51-4.28-2.79V2.63c2.23-.09,3.72,2,5.31,3.16-.19-1.76-2.52-1.95-3.17-3.44,1.3.38,2.05,1.58,3.17,2.42a.31.31,0,0,0,.09-.18,5.91,5.91,0,0,1-1.3-2c.46.19,2.63,3.84,2.91,4.22.19-.28-2.26-3.85-2.08-4.13.19.1.31.39.78.4"/><path class="cls-1" d="M110.18,25.17a30.27,30.27,0,0,0-3.2,3.45c-.4.71.11.4.31.09s2.67-3,2.92-3.26.21-.49,0-.28"/><path class="cls-1" d="M142.92,26.32c.09-.46,2.08-.44,1.8-.22a3.41,3.41,0,0,1-1.8.22"/><path class="cls-1" d="M143.39,26.94c.09-.47,1.61-.34,1.33-.12s-.62.12-1.33.12"/><path class="cls-1" d="M143.85,27.5c.09-.47,1.24-.22,1,0s-.24,0-1,0"/><path class="cls-1" d="M143.57,19.78c.13-.22,1.11-.56,1-.31-.13.42-1,.65-1,.31"/><path class="cls-1" d="M135.38,5.45a5.34,5.34,0,0,1,2-1.45c.93-.35.4.31.09.43s-1.67.81-2.05,1"/><path class="cls-1" d="M123.66,2c-.16-.19-.18.34,0,.69s.38-.32,0-.69"/><path class="cls-2" d="M109.3,8.21c-1,.39-2.17.46-2.73,1.3.09.09.19.28.28.18s.37-.18.56-.28c.74-.64,1.89-.64,2.82-1a.77.77,0,0,0-.93-.18"/><path class="cls-2" d="M109.49,9.53c-.55-.55-1.58-.19-2.14.28.46.46,1.11,0,1.67.28a11.3,11.3,0,0,0,2.61,1.21c.37.18.84.46,1.12.28.46-.28.18-1.4-.56-1.59-.09,0-.09.1-.19.19.28.28.19.65.37.93-.18,0-.37.1-.46,0a15.05,15.05,0,0,1-2.42-1.58"/><path class="cls-2" d="M113,13.67c-.14-.36-.54-.39-.54,0,0,1.13-.49,1.23-.86,2-.09.19.09,1.05.28.77.45-.45.09-1,1.12-1.93.15-.14.07-.62,0-.81"/><path class="cls-2" d="M114,12.66c-.75,0-.19.74-.19.74a15.06,15.06,0,0,0,2.61.06c-.1.1.91-.27.9-.18-.13.59.71,0,.24-.25-.07,0,.28-.19.47-.37s-.13-.25-.22-.25a5.44,5.44,0,0,1-2,.37c-.93,0-1.86-2-2.17-1.61-.18.22.61,1,1,1.49H114"/><path class="cls-2" d="M114.77,10.66c-1-1.43-2-2.17-3.57-2,.65.46,1.49.46,2,1.11-.09.1,0,.28,0,.38.1.27.28,0,.47.09s.15.68.34.68c.37.09.4.25.77.43.1,0,.28.1.38-.09-.19-.09-.27-.51-.34-.62"/><path class="cls-2" d="M114.83,8.08s-.61-.57-.68-.34c-.13.46.81,1.43,1.3,1.92.22.22.22,0,.22-.18a2.55,2.55,0,0,0-.84-1.4"/><path class="cls-2" d="M112.75,7.75c-.31.12-1.93-.78-1.46-.75a3.34,3.34,0,0,1,1.36.56l.1.19"/><path class="cls-2" d="M118.94,9.17c-1,.34-1.53,1.36-2,2.2,0,.08.18.09.28.09.74-.47,1.11-1.71,2-1.8a21,21,0,0,1-1,1.86.24.24,0,0,0,0,.31,33.78,33.78,0,0,1,2-3L120,8.67c-.28.37-.75.4-1,.5"/><path class="cls-2" d="M120.22,10.79a7.6,7.6,0,0,0-1.42,2.76c-.13.93.39.45.52-.07a5.91,5.91,0,0,1,1.31-2.66c.08-.1-.19-.25-.41,0"/><path class="cls-2" d="M117.73,26.92c-.19,0-.64,1-.4.93.39-.14.64-1,.4-.93"/><path class="cls-2" d="M118.05,27.29c-.34.07-.79,1.4-.56,1.31.39-.15.81-1.36.56-1.31"/><path class="cls-2" d="M122.4,28.5c-.18,0-.42,1.19-.19,1.1.39-.15.44-1.16.19-1.1"/><path class="cls-2" d="M131.17,28.87c-.18.05.88,1.74,1.12,1.66.55-.17-.87-1.72-1.12-1.66"/><path class="cls-2" d="M139.85,24.36c-.2,0-.37,2.19.05,2.1s.51-2.16-.05-2.1"/><path class="cls-2" d="M140.88,22.66c-.13.05-.42,2.4-.07,2.17s.4-2.28.07-2.17"/><path class="cls-2" d="M116.08,25.68c-.44.16.12.68.84.4.38-.15-.37-.57-.84-.4"/><path class="cls-2" d="M116.62,7.89c-.16,0,0,1.15.71,1.11.59,0-.46-1.1-.71-1.11"/><path class="cls-1" d="M106.64,13.27a3.32,3.32,0,0,1,3-.78,14.13,14.13,0,0,0-3,.78"/><path class="cls-1" d="M110.7,12.68c-.62.06-3.31.56-4.28,1.52-.15.15.2.2.5,0,1.42-1,3.88-1.28,3.78-1.52"/><path class="cls-2" d="M119.32,27.37c0-.36-.46.81-.46,1.12s.43-.34.46-1.12"/><path class="cls-2" d="M119.57,27.93a20.22,20.22,0,0,0-1,3.32c0,.41.06.34.18,0a22.58,22.58,0,0,0,.87-3.32"/><path class="cls-2" d="M124.66,8.12c-.34-.31-.37-1.58-3.13-1-.65.28-1.65.77.1.56,1.55-.18,1.8-.12,2.23.25a3.76,3.76,0,0,0-2.48.71c-.82.9,1-.21,1.92,0,1.21.28.81.09,1-.22s.34-.31.34-.31"/><path class="cls-2" d="M119.51,4c.06.38,1.38,3.2,1.43,2.42A6.12,6.12,0,0,0,119.51,4"/><path class="cls-2" d="M117.79,7.4a1.81,1.81,0,0,1,2.29.47c.25.31-.17.14-.87,0s-1.4-.12-1.42-.43"/><path class="cls-2" d="M126.05,8.25c.22-.44,1.06-1.06,2.89-.5.77.34-.19.46-.59.46a3.14,3.14,0,0,0-1.68.32c-.69.41-.71,0-.62-.28"/><path class="cls-2" d="M126.48,9.58c.18-.22,1.27-1.4,2.41.37.19.31-.17.23-.65,0-.9-.5-2.1.06-1.76-.34"/><path class="cls-2" d="M123.84,9.39c-.18-.15-1.21-.83-2.26.62,1.08-.34,2.61-.31,2.26-.62"/><path class="cls-2" d="M125.15,9.79c-.81-.1-2.08,1.05-2.17,2.29-.06.87.62-.46,1.18-1.14s.86-.75,1-1.15"/><path class="cls-2" d="M126.64,10.37c.38,0,2,.06,2,1.8,0,.49-.22.37-.44,0A2.25,2.25,0,0,0,127,11c-.72-.28-.63-.53-.38-.62"/><path class="cls-2" d="M126.86,11.8c-.19-.49-1.25-1.39-.84-.43a12.44,12.44,0,0,1,.71,1.86c.09.46.42.69.5.19.12-.87-.07-.81-.37-1.62"/><path class="cls-2" d="M124.93,10.94c.29-.4.66-.87.62,0a19.53,19.53,0,0,1-.31,2.54c-.08.57-.43.69-.43.22s-.42-2,.12-2.79"/><path class="cls-2" d="M126.42,6c0-.16.17-.54-.15-.31-.65.47-.31,1.27-.65,1.46s-1.27.52-.81.59,1-.38,1.34-.31.4-.13.27-1.43"/><path class="cls-2" d="M127.19,4.9c-.19.34-.59,1.62,0,2a.44.44,0,0,0,.22-.69,1.44,1.44,0,0,1-.18-1.27"/><path class="cls-2" d="M130,5.17c-.25,0-.37.57-.25,1.3.09.53.59-1.24.25-1.3"/><path class="cls-2" d="M130.73,7.44c-.13-.27-.59.43-.43.93s.52-.77.43-.93"/><path class="cls-2" d="M132.44,4.92a2.12,2.12,0,0,0-1.12,1.65c.41,0,1.4-1.37,1.12-1.65"/><path class="cls-2" d="M133.43,5.24c-.22.09-1.64,1.17-1.8,2.13.53-.49,2.27-2.17,1.8-2.13"/><path class="cls-2" d="M127.73,18.83c-.72.5-.56,1.43.06,2.55a5.82,5.82,0,0,0-.06-2.55"/><path class="cls-2" d="M127.2,16.79a6,6,0,0,0,2.48.68c.77.09.12-.55-.19-.62s-1.33-.46-.37-.4.93-.31.25-.47c-.9-.15-2.51-.56-2.17.81"/><path class="cls-2" d="M127.36,14.26a2.82,2.82,0,0,1,2.32.46c.54.43.45-.43.68-1,.5-1.11.1-1.11-.24-.31s-.25.78-.47.69.59-1,.62-1.49-.2-.27-.39.1-.32,1.35-1,1c-.21-.11-2.36.09-1.55.53"/><path class="cls-2" d="M130.19,10c-.3-.18-1.13,2-.68,1.89,1.29-.22,1.26-1.08,1.24-.87,0-.28-.52-1-.56-1"/><path class="cls-2" d="M116.05,13.81c-.45,0-2,.45-.1.61.72.06,1.49-.56.1-.61"/><path class="cls-2" d="M109.06,14c-.44,0-2.61,1.38-1.26,1.3.35,0,2.17-1.37,1.26-1.3"/><path class="cls-2" d="M110.71,14.33c-.31.08-1.42,1.45-.77,1.51.35,0,1.14-1.6.77-1.51"/><path class="cls-2" d="M118.62,14.38c-.12,0-1.37.92-.37.67.76-.19,1.16-.51.37-.67"/><path class="cls-2" d="M113.66,15.62c-.33.4-1.12,1.56-.49,1.74.16.05,1.18-2.07.49-1.74"/><path class="cls-2" d="M117.41,14.26c.54-.54.92-.26.54.14-.6.61-1.1,1-3.17,1.23-.85.1-.42-.46.3-.51a4.23,4.23,0,0,0,2.33-.86"/><path class="cls-2" d="M121,11.7a3.24,3.24,0,0,0-.4,2.37c.35.07.44-1.07.49-1.37s.39.4.74.68.14-.14,0-.33c0,.06-.39-.74-.21-.56s.28.21.28.21.14.07,0-.23-.49-1-.9-.77"/><path class="cls-2" d="M121,10.41a8.12,8.12,0,0,1,.92,1.26c.17.35.34.25.33,0a2.32,2.32,0,0,0-.84-1.42c-.28-.21-.51-.05-.41.18"/><path class="cls-2" d="M107.93,16.2c.44,0,3.16-.33,4.09,1,.14.21,0,.24-.42,0s-.7-.56-1-.58.67.72.91,1.12.07.47-.14.37-1.49-1.47-1.84-1.49c-.74-.05,1.53,1.26,2,2.05s.21.51-.16.23-1.7-2-3.44-2.28a2.54,2.54,0,0,1,0-.39"/><path class="cls-2" d="M114.87,16.86c-.32,0-2.18,1.87-1.44,2.21.95-1.72,1.82-2.18,1.44-2.21"/><path class="cls-2" d="M114.78,18.54c.07-.33-1,1.27-.53,1.42.06,0,.55.11.72-.28s.46-1,.11-.93-.32-.09-.3-.21"/><path class="cls-2" d="M111.39,19.66c0,.12,1.58,3.23,1.61,4.12.83-.12-.86-4.14-1.61-4.12"/><path class="cls-2" d="M113.06,19.56c.42,1,.71,2,.93,2.1,1.09-.05-.58-2-.93-2.1"/><path class="cls-2" d="M106.59,18.58c-.34.05,1.14,1.17,1.19,1.1.3-.1-.56-1.21-1.19-1.1"/><path class="cls-2" d="M110.5,24.05c-.49-.28-2.65,1-3,2,1.42-.88,3.21-1.79,3-2"/><path class="cls-2" d="M107.53,21.19a14.93,14.93,0,0,1,2.28-.25c.3,0-.32-.1-.49-.21s0-.33.89-.33c1,0,1.41.14,1.32,1.1,0,.28-.46.29-.49-.07a.64.64,0,0,0-.79-.54c.35.3.64,1.09.4.9-.93-.69-3-.39-3.12-.6"/><path class="cls-2" d="M113.13,25.65c-.56.45.22.88.37.63.4-.63.93-.44.84-.53a.9.9,0,0,0-1.21-.1"/><path class="cls-2" d="M116.69,24.79c.54-.14,1-.09,1.77-.23s1.25.7,1.39,1.26a11,11,0,0,0-3.16-1"/><path class="cls-2" d="M115.19,23.73c-.39,0-1.09,1.21-.14.93.54-.16.4,0,.68,0s0-.39.49-.39.27-.41-1-.54"/><path class="cls-2" d="M115.81,28.76c.85-.4.67-2,.42-2,0,0-.64,2.09-.42,2"/><path class="cls-2" d="M119.22,15.12c-.35,0-2,.49-1.88,1.26.55-.12,1-.66,1.63-.59-.31.26-1.12,1.07-.31.75s.47-.37.47-.37-.37.79-.65.86-1.71-.41-2,0c-.21.25,1.8.45,2.86,1,.79.44,0-.39.24-.81a3.22,3.22,0,0,1,.83-1,7.41,7.41,0,0,0-.58,1.3c0,.32.23,0,.72-.82s0-.84-.39-.93c-.21,0,.21-.11.46-.2s-.56-.45-1.35-.54"/><path class="cls-2" d="M122.34,18.41a1.7,1.7,0,0,0-.76,1.16c-.15.72-.68,1-.08,1s1.07.63,1.28.26a3.65,3.65,0,0,0-.44-2.44"/><path class="cls-2" d="M115.3,18.19c1-.55,3.06-.61,3.88.42.23.4-.14.42-.93.05a6.92,6.92,0,0,0-3-.47"/><path class="cls-2" d="M115.22,20.72c-.25.34-.65.82-.56,1.28.1.1.08.17.26.08s.19-.47.37-.75.75.05,1,.05c-.27.37-.83.16-1,.53.56.28,2.26-.23,2.23-.49,0-.55.71-.81.43-1.46-.47.28-.47.93-.84,1.11s-1-.3-1.45-.11c-.18-.56.91-1,.63-1.19s-.79.58-1.07.95"/><path class="cls-2" d="M126.36,19.73c-.46,0,.1-.65,0-1,0-.09-.09-.09-.18-.09s-.1.09-.1.19v-.56c0-.1-.09-.1-.18-.19s-.19.28-.28.09,0-.18-.09-.18c-.56,0-.28.65-.47.93-.09-.28.09-.84-.28-.75s-.28.63-.09,1c-.56-.09-.47.49-.47.77s.88,0,.88.33c-.16.11-1.24-.27-1.16.32s1.42.21,2,.46c.43.18-.18-.27-.09-.65.09.1.28.28.46.19a.59.59,0,0,0,.19-.75.32.32,0,0,0-.19-.09"/><path class="cls-2" d="M119,19.27c-.47,0-1.19-.26-1.56.21.56.37,1.61-.08,1.74.2.25.55-.74,1.66-.81,2.21.46,0,.65-.46.74-.65a5.58,5.58,0,0,0,.63-1.3c.47.75.32,1.91.56,2.42s.3-.47.3-.74a1.88,1.88,0,0,0-1.6-2.35"/><path class="cls-2" d="M127.29,23.46c-1.13.23-2.4,1.84-2.23,2.44.11.43,1-1,1.65-1.3,0,.63-.93.7-.75,1.12,0,.08.38,0,.38-.1-.21.4-.55.65-.58,1.21,0,.37.39.19.48,0a4.65,4.65,0,0,1,1.65-1.9c-.18.46-1,1.07-.71,1.62a6.56,6.56,0,0,0,.67-.81c-.19.75-1.16,1.93-.33,2.58a12,12,0,0,0,.77-2.14c-.19.28-.07,1.14.09,1.12s.26-.25.26-.44c.09.55-.33,1.65.23,1.83.28.1,0-1.9.63-3.25.65.84.79,2.12,1.37,2.72.65-1-.72-2.16-1.09-3.19a3.05,3.05,0,0,1,1.79,1.23c.09.1.44.08.35-.11a2.6,2.6,0,0,0-1.77-1.77c-.37-.09-1,0-1,.54-.79-.07-.72-.52-.67-1.07s-.75-.42-1.21-.33"/><path class="cls-2" d="M119.6,23.24c.27-.08.89-.11.89-.29-.1-.47-.86,0-1.33-.29s-1,.1-1.49.19c-.18.1-.57.19-.55.39s.87.44,1.16.52.77-.33,1.32-.52"/><path class="cls-2" d="M121.22,23.18c-.37.3-.35.38-.77.38-.13,0,.28.2.19.3s-.33.09-.33.18c0,.37-.35.82.12,1a3.09,3.09,0,0,0,1,0c.72,0,.27,1,.64.86s.13-1-.32-1.18a3.74,3.74,0,0,0-.81,0c0-.44.93-.06,1.09,0s.21.31.3.58c.09.1.1.45.21.52a.16.16,0,0,0,.26-.17c-.28-.67-.26-1.44-1.47-1.51.1-.46.44-.53,1-.39.36.09,0-.72-.26-.82a2,2,0,0,0-.81.28"/><path class="cls-2" d="M125.55,21.7c-.26-.13-1-.33-.93,0s.86.24.77.52a1,1,0,0,0,.34.88.34.34,0,0,0,.47-.19c0-.18-.12-.35,0-.53a1.36,1.36,0,0,0-.63-.72"/><path class="cls-2" d="M123.28,23.68c.49,1.22.51.33.66.44.92.75.16-.79-.12-1.16-.1-.09-.1.63-.1.72-.09-.37-.3-1.05-.67-1.23a5.06,5.06,0,0,0,.23,1.23"/><path class="cls-2" d="M123.42,25.88c-.68.2-.73,1-1.19,1.53,0,.19-.2.63,0,.52a14.13,14.13,0,0,0,1.27-1.66c0,.68-.81,1-.53,1.31.06.06.28-.49.56-.4-.09.26-.21.84-.21.84.37-.19.37-.66.58-1.21.15-.39.23-.4.14-.68a.42.42,0,0,0-.6-.25"/><path class="cls-2" d="M123.49,13.35c.17.34,0,1,.54,1,.19,0,.1-1.86-.46-2.13-.19-.1-.5.34-.5.52s.33.4.42.59"/><path class="cls-2" d="M124.49,15a4.22,4.22,0,0,0-2.12.29c.65.65,1.72.13,2.47.41a6.34,6.34,0,0,1-1.63.51c-.38,0-1-.63-1.6-.59-.09,0-.23.12-.15.23s.72.19,1.1.38c-.19.18-.36,0-.57.07-.41.1.46.41.41.48-.54.81.2.67.62,1.49.13.26.46-.28.38-.46a1.43,1.43,0,0,0-.74-.56,6.25,6.25,0,0,1,2.79-1c-.18.37-.83,1.09-.46,1.18s1.1-.87,1.1-1.53c0-.09-.19-.09-.19-.18.1-.74-.85-.76-1.41-.76"/><path class="cls-2" d="M126,13.56c-.2.2-.43.78.22,1,.26,0,.06-.86-.22-1"/><path class="cls-2" d="M132.1,15.56c-.2.2-.48.85.17,1,.54-.32.11-.94-.17-1"/><path class="cls-2" d="M133,16.51c-.2.21-.37.83.4.73.27,0,0-.73-.4-.73"/><path class="cls-2" d="M133.59,20.24c-.2.2-.42.63.45.4.26,0,.78-.54-.45-.4"/><path class="cls-2" d="M139,22.73c-.31.18.55,1,.74.82s0-.88-.74-.82"/><path class="cls-2" d="M141.62,23.44c-.06,0,.5.88.7.73.14,0-.22-.77-.7-.73"/><path class="cls-2" d="M141.16,21.88c-.21.1,1,1.63,1.26,1.4.26,0-.47-1.46-1.26-1.4"/><path class="cls-2" d="M134,20.82c-.2.2-.44.75.87.31.26,0,1.76-.71-.87-.31"/><path class="cls-2" d="M134.85,21.94c-.29.41,1.34.45,2.69.56.59.06.43-.86-2.69-.56"/><path class="cls-2" d="M136.51,24.21c-.22.31,1.18.41,2.31,1.63.59.06-.84-2-2.31-1.63"/><path class="cls-2" d="M136.32,25c-.13.22,1.94,1.05,2.69,1.91.58.05-1.45-2.08-2.69-1.91"/><path class="cls-2" d="M135.11,23.07c-.05.05-.19.4.31.31-.08.63.49.62,1.27.53.25,0,.14-.37.08-.41.45.09,1,.22,1.63.39.26,0-.66-1.22-3.29-.82"/><path class="cls-2" d="M137.11,11.26c-.05.18-.89.27-1.05.29-.44-.21-.07-.83.21-.84s.89.36.84.55"/><path class="cls-2" d="M140.37,12.2c-.05-.16,0-.63.3-.63.09.1,0,.59-.3.63"/><path class="cls-2" d="M139.83,13.46c-.05-.17,0-1.07.3-1.07.21.18-.26,1-.3,1.07"/><path class="cls-2" d="M145.75,14.65c-.84-.41-1.24-1-.94-1,.35-.19,1.24.95.94,1"/><path class="cls-2" d="M144.45,14.37c-.72.56-2.59-.93-2-.93.35-.18,2.28.89,2,.93"/><path class="cls-2" d="M139.89,18.44c-.84-.41-1.79-1.81-1.6-1.86s2,1.61,1.6,1.86"/><path class="cls-2" d="M138.15,18.75c-.83-.42-.53-.82-.35-.86.59-.1.65.81.35.86"/><path class="cls-2" d="M135.52,18.77c-1.29.12-1.76-1.25.12-1,.58-.09.19,1-.12,1"/><path class="cls-2" d="M134,25.38c-.62.05-1.06-.49-1.53-.05a.69.69,0,0,1,.17-1.12c.07,0,.55.12.64.1.69-.11,1.13,1,.72,1.07"/><path class="cls-2" d="M136.15,20.31c-.25.27-1.27-1-.28-1,.59-.09.35.93.28,1"/><path class="cls-2" d="M139.85,22.08c-.21-.08-.21-.61,0-.66s.32.61,0,.66"/><path class="cls-2" d="M140.38,19.45c-.2-.07.15-.51.33-.56.42.07.12.51-.33.56"/><path class="cls-2" d="M142.26,18.8a6.24,6.24,0,0,1-.9.43c-.21-.06.63-.79.82-.83,1.18-.22.75.18.08.4"/><path class="cls-2" d="M140.92,17.74c-.31-.35-1-1.37-.72-1.37.58.05,1,1.32.72,1.37"/><path class="cls-2" d="M134.55,16.08c.16-.12.09-.44.54-.51.34.09-.33.65-.54.51"/><path class="cls-2" d="M137.15,15.21c-.74-.53-1-1.53-.67-1.53.21.35,1,1.49.67,1.53"/><path class="cls-2" d="M135.71,16.61c0-.16.35-.82.65-.82s-.32.91-.65.82"/><path class="cls-2" d="M136.37,9.79a12.88,12.88,0,0,0-1.67.53,2.78,2.78,0,0,1,1.76-1.05c1.64.11.69.5-.09.52"/><path class="cls-2" d="M138.19,9.42c-.55.19-.7,1.25-.16,1.29s.05-1.24.16-1.29"/><path class="cls-2" d="M132.8,10.74c-.2,0-.29.29-.2.47.65.75,1.7.78,2.25,1.43.19.28-.45.55-.35.82.09.47.09,1,.46,1.2s.7-.28.61-.65-.56-.37-.56-.84c.09-.28.37-.09.56-.09s.09-.1.09-.19c-.56-1-2.15-2.23-2.86-2.15"/><path class="cls-2" d="M132,11.93c-.67-.17-.52.38-.52.48.18.55.67.26,1.2,1.08a9.59,9.59,0,0,1,1.15,2.14.2.2,0,0,0,.37,0c-.09-1.31-1.48-3.55-2.2-3.72"/><path class="cls-2" d="M131,13.55c-.4,0-.24,2.1.11,2.29s.17-2.29-.11-2.29"/><path class="cls-2" d="M131.17,17.3c-.68.34-2.15.71-1.69,1.64h.34c-.28.28-.06.5.26.68s.64-.15.93-.19a8.35,8.35,0,0,0,1.85-.35c-.47-.46-1.19-.2-1.76-.2.66-.56,1.68-.06,2.33-.62-.7-.51-1.78,0-2.71,0,.73-.83,1.44-.51,1.5-.88s-.71-.23-1.05-.06"/><path class="cls-2" d="M131.89,20.55c-.39.52.44,1.18.76.88.63-.59-.54-1.19-.76-.88"/><path class="cls-2" d="M132.25,22.3c-.31.3,1.26,1.53,1.42,1.4s-1.1-1.72-1.42-1.4"/><path class="cls-2" d="M129,21c.07-.58,1.77-.34,1.72.07s-1.63.37-1.72-.07"/><path class="cls-2" d="M128.71,22.86c-.29,0-.25-.26-.18-.27.88-.88,2.7-.21,3.11,1a3.49,3.49,0,0,0-2.93-.71"/><path class="cls-2" d="M138.88,11c-.32-.21-1.49,2.19-.74,3.31a18.09,18.09,0,0,0,.3-2c.19-.47.59-1.15.44-1.26"/><path class="cls-2" d="M139.63,11.65c-.32-.22-1.56,2.39-.81,3.51.39-.21.18-1.6.37-2.25.18-.47.59-1.16.44-1.26"/><path class="cls-2" d="M142.81,15.4a4.55,4.55,0,0,1-.57-.67c-.42-.64-.9-1.48-1.47-1.6.12.7.79,1,1.07,1.77s.9,1.06,1,.5"/><path class="cls-2" d="M141.66,16.77c.63,0-1.21-2.73-1.37-2.48-.33.3.7,1.24.89,1.89.1.49.3.6.48.59"/><path class="cls-2" d="M142.48,16.38c-.23,0-.49.75.14.82.44.05.39-.82-.14-.82"/><path class="cls-2" d="M138.05,19.94c-.41-.07-.05.51-.19.49s-.56.19-.16.47.52-.1.72.3.89-.41.33-.53-.42-.68-.7-.73"/></g></g></svg>