<svg xmlns="http://www.w3.org/2000/svg" xmlns:xlink="http://www.w3.org/1999/xlink" viewBox="0 0 3990.2 466.4">
  <defs>
    <linearGradient id="linear-gradient" x1="68.3" y1="398.11" x2="398.11" y2="68.3" gradientUnits="userSpaceOnUse">
      <stop offset="0" stop-color="#0d5171"/>
      <stop offset="1" stop-color="#316b86"/>
    </linearGradient>
  </defs>
  <title>nc-insider</title>
  <g id="Layer_2" data-name="Layer 2">
    <g id="Layer_1-2" data-name="Layer 1">
      <g>
        <path d="M561.9,449.4V16.5H673.2L872.4,297.9V16.5h94.8V449.4H866.9L656.8,151.1V449.4Z" fill="#0d5171"/>
        <path d="M1410,428.9c-19.1,10-46.1,17.6-70.2,22.2s-50.1,5.8-77.9,5.8a343.4,343.4,0,0,1-97.5-13.6c-31-9-58.1-22.7-81.6-41s-41.9-41.3-55.6-68.8-20.4-59.6-20.4-96.2,6.8-69.7,20.4-98,32.2-52.1,55.6-71.4,50.9-33.8,82.3-43.6,64.8-14.8,100.2-14.8c30.5,0,56.7,2,78.5,5.8a283.4,283.4,0,0,1,56.7,16l-27.4,74.2c-12.7-5.8-27.5-10.3-44.3-13.6A257.8,257.8,0,0,0,1279,87q-34.8,0-63.8,9.8t-49.8,28.9a130.1,130.1,0,0,0-32.4,46.8c-7.8,18.5-11.6,39.7-11.6,63.6s3.8,45.4,11.6,63.3,18.4,32.7,32.1,44.5a139.1,139.1,0,0,0,47.7,26.6,183.9,183.9,0,0,0,58,8.9q34,0,59.7-6.3a229.1,229.1,0,0,0,45.4-16.2Z" fill="#0d5171"/>
      </g>
      <g>
        <g>
          <path d="M1504.9,14.1h113V451.7h-113Z" fill="#a82b2d"/>
          <path d="M1682.8,451.7V14.1h112.4l201.3,284.5V14.1h95.9V451.7H1991L1778.6,150.2V451.7Z" fill="#a82b2d"/>
          <path d="M2422,110.5q-18.6-9.9-50-17.5a282.9,282.9,0,0,0-67.2-7.6c-20.3,0-37,3.4-50.4,10.1s-20,17.6-20,32.7c0,7.7,3.1,14.4,9.3,20.2s14.4,11,24.5,15.6,21.9,9.1,35.2,13.6,26.9,9.1,40.7,14.1q23.4,8.9,45.2,19.6a171.4,171.4,0,0,1,38.2,25.7,114.9,114.9,0,0,1,26.6,35.1c6.6,13.4,10,29.3,10,47.6,0,22.2-4.4,41.8-13.1,59a129.1,129.1,0,0,1-36.9,43.8q-23.8,18.2-58.3,27.4t-76.5,9.4a493.7,493.7,0,0,1-53.1-2.6,330.9,330.9,0,0,1-43.1-7.6,243.7,243.7,0,0,1-35.6-11.7,263.8,263.8,0,0,1-29.6-14.9l30.3-75.4c8.8,4.7,17.7,9.2,26.9,13.5a208.6,208.6,0,0,0,29,10.8,262.1,262.1,0,0,0,32.8,7,271.7,271.7,0,0,0,38.9,2.6q83.4,0,83.5-48.8c0-10.1-2.7-18.4-8-25s-12.5-12.3-21.7-17.1a237.1,237.1,0,0,0-33.1-14c-12.9-4.4-26.9-9.4-42.1-14.8a390.2,390.2,0,0,1-43.8-18.2,180,180,0,0,1-38.9-25.4,122.1,122.1,0,0,1-27.9-34.9c-7.2-13.3-10.7-28.9-10.7-46.8,0-19.6,3.9-37.3,11.7-53.3A112.1,112.1,0,0,1,2178.6,42c14.7-11.2,33-19.7,54.8-25.8s46.6-9.1,74.1-9.1c33.1,0,61.1,2.9,83.8,8.6s42.2,12.6,58.3,20.5Z" fill="#a82b2d"/>
          <path d="M2502,14.1h113.1V451.7H2502Z" fill="#a82b2d"/>
          <path d="M2680.6,14.1h166.9a320.3,320.3,0,0,1,95.2,14.1q45.5,14,80.6,41.7a204.7,204.7,0,0,1,56.2,69c14.1,27.4,21.1,59.5,21.1,96.1s-7,68.5-21.1,95.8-32.7,49.8-56.2,67.7-50.3,31.3-80.6,40.1a344.2,344.2,0,0,1-95.2,13.1H2680.6Zm113.1,71.3v295h46.9c20.7,0,39.7-2.9,57.2-8.8a123.1,123.1,0,0,0,45.5-26.8q19.3-18,30.4-45.3t11-65.1q0-37.1-11-65.1t-30.4-46.5a125.7,125.7,0,0,0-45.5-28c-17.5-6.3-36.5-9.4-57.2-9.4Z" fill="#a82b2d"/>
          <path d="M3139.9,14.1h308.9V85.4H3253V190.6h178.6v71.2H3253V380.4h198.6v71.3H3139.9Z" fill="#a82b2d"/>
          <path d="M3508.1,14.1h197.2a240.9,240.9,0,0,1,65.2,8.5c20,5.7,37.4,14.1,52.1,25.4a122.4,122.4,0,0,1,34.8,41.8q12.8,24.8,12.8,58.1a111.2,111.2,0,0,1-8,42.7,120.6,120.6,0,0,1-21.4,34.4,133.5,133.5,0,0,1-31.7,26.3,191.5,191.5,0,0,1-38.9,18.1l124.1,182.3H3773.6L3657.1,280.5h-35.9V451.7H3508.1Zm113.1,71.3V219.2H3684q35.9,0,56.2-17.9c13.5-11.9,20.3-29.1,20.3-51.4s-6.8-37.6-20.3-48.4-32.3-16.1-56.2-16.1Z" fill="#a82b2d"/>
        </g>
        <path d="M3918.5,422.2a25.9,25.9,0,0,1,2.7-11.8,29,29,0,0,1,7.6-9.2,34.7,34.7,0,0,1,11.4-6.1,46.3,46.3,0,0,1,28.2,0,32.8,32.8,0,0,1,11.4,6.1,30.4,30.4,0,0,1,7.6,9.2,24.8,24.8,0,0,1,2.8,11.8,25.2,25.2,0,0,1-2.8,11.9,29.6,29.6,0,0,1-7.6,9.3,34.6,34.6,0,0,1-11.4,6.1,46.3,46.3,0,0,1-28.2,0,36.7,36.7,0,0,1-11.4-6.1,28.3,28.3,0,0,1-7.6-9.3A26.3,26.3,0,0,1,3918.5,422.2Zm63.3,0a19.8,19.8,0,0,0-2.1-9,23.3,23.3,0,0,0-5.7-7.5,30.9,30.9,0,0,0-8.7-5,34.8,34.8,0,0,0-22.1,0,29,29,0,0,0-8.6,5,23.1,23.1,0,0,0-5.6,7.5,20.6,20.6,0,0,0,0,18.1,24.2,24.2,0,0,0,5.6,7.5,27,27,0,0,0,8.6,5,33.1,33.1,0,0,0,22.1,0,28.7,28.7,0,0,0,8.7-5,24.5,24.5,0,0,0,5.7-7.5A20,20,0,0,0,3981.8,422.2Zm-40.5-15.4h15.1a15.3,15.3,0,0,1,8.5,2.4,7.9,7.9,0,0,1,3.6,7.1,7.6,7.6,0,0,1-1.8,5.1,12.1,12.1,0,0,1-4.3,3.2l7.6,12.2h-10.3l-6.9-10.8h-1.7v10.8h-9.8Zm9.8,6.2v7.7h3.6c2.9,0,4.4-1.3,4.4-4s-1.4-3.7-4.2-3.7Z" fill="#a82b2d"/>
      </g>
      <circle cx="233.2" cy="233.2" r="233.2" fill="url(#linear-gradient)"/>
      <g>
        <g>
          <path d="M234,43.2c18.7,2.4,34.6,8,47.6,17.3,11.4,8.1,19.7,17.4,24.6,28.1-5.7-4.8-10.7-10-17.1-14.4-9.3-6.4-18.8-13-29.7-18.2-21.8-10.4-45.4-9.2-66.1,2.1-12,6.6-21.1,14.8-29.5,23.4a16.6,16.6,0,0,1-3.7,3c3.6-9.4,10.2-17.8,19.4-25.4S204,45.4,220.4,43.2Z" fill="#fff"/>
          <path d="M234,43.2a124.9,124.9,0,0,1,21.7,4.5,95.3,95.3,0,0,1,20.5,8.8A92.8,92.8,0,0,1,294,70a65.4,65.4,0,0,1,7.4,8.4,57.1,57.1,0,0,1,5.9,9.7l2.6,5.4-4.6-3.9c-5.5-4.5-10.5-9.4-16.2-13.2s-11.6-7.8-17.6-11.3a121.5,121.5,0,0,0-18.4-9.2,68.3,68.3,0,0,0-40-2.8A77.4,77.4,0,0,0,194,60.3a113.9,113.9,0,0,0-17.2,11.4q-4.1,3.3-7.8,6.9a42.7,42.7,0,0,0-3.8,3.6,22.6,22.6,0,0,1-4.4,3.5l-3.3,1.8,1.4-3.5a54.1,54.1,0,0,1,4.5-8.6,57.7,57.7,0,0,1,6-7.8,82,82,0,0,1,14.7-12.5,77.1,77.1,0,0,1,8.5-4.5,66,66,0,0,1,9-3.4,112.5,112.5,0,0,1,18.8-4H234Zm0,0H220.4c-3.2.4-6.3,1-9.4,1.7a88.9,88.9,0,0,0-9.2,2.6A63.3,63.3,0,0,0,184.7,56a70.7,70.7,0,0,0-14,12.8,59.1,59.1,0,0,0-5.4,7.7,54.3,54.3,0,0,0-3.9,8.5l-1.9-1.6a22,22,0,0,0,3.6-3.3c1.2-1.3,2.4-2.6,3.7-3.8s5-5,7.7-7.3a106.4,106.4,0,0,1,17.4-12.5A76.3,76.3,0,0,1,212,48.4l2.6-.6,2.7-.5,2.7-.4,2.7-.2,2.8-.2h2.7a32.5,32.5,0,0,1,5.4.2,73.4,73.4,0,0,1,21.2,4.8,127.1,127.1,0,0,1,19,10c6,3.8,11.7,7.9,17.4,12.1S301.8,83,307,87.7l-2,1.5a74.4,74.4,0,0,0-5.2-9.6,71.1,71.1,0,0,0-6.9-8.5,72,72,0,0,0-8.1-7.5,98.2,98.2,0,0,0-9-6.5,93.6,93.6,0,0,0-20.1-9.2A135.5,135.5,0,0,0,234,43.2Z" fill="#fff"/>
        </g>
        <path d="M377.7,206.5c-7.9-9.8-15.4-19.6-23.4-28.9-21.2-24.8-44.3-47.4-73.2-63.2A117.3,117.3,0,0,0,241,100.6c-21.6-3.1-42,1-61.3,11.1-17.1,8.9-31.5,21.1-44.8,34.9s-26.2,31-37.4,48a9.9,9.9,0,0,1-2.4,2.7c.2-.7.3-1.3.5-1.9,7.8-23.7,18.8-45.7,35.1-64.9,19.6-23.1,44-38.4,74.2-43.6,24.1-4.3,47.6-1,70.2,8.1,35.7,14.4,62.5,39.4,83,71.5a216.2,216.2,0,0,1,19.5,39.1A2.2,2.2,0,0,1,377.7,206.5Z" fill="#fff" stroke="#fff" stroke-miterlimit="10"/>
        <path d="M402.3,378.9c-109.7-35.6-220.6-37-332.6-12.9,6.7-2.9,13.4-5.9,20.2-8.6a342.9,342.9,0,0,1,69.7-19.2c13.2-2.2,26.6-3.6,40-4.8,10.2-.8,20.4-1.1,30.5-1.1a361.8,361.8,0,0,1,47.7,3.3,333.1,333.1,0,0,1,83.3,21.7C374.4,362.8,394.7,373.3,402.3,378.9Z" fill="#fff" stroke="#fff" stroke-miterlimit="10"/>
        <path d="M91.4,210.7c5.1-2.5,10.1-5.1,15.2-7.4a284.3,284.3,0,0,1,72.5-22.2,306.8,306.8,0,0,1,33.1-3.4,319.5,319.5,0,0,1,37.9,0c47.8,3.3,92.1,17.2,131.5,45.2a5.9,5.9,0,0,1,1,1.1A447.6,447.6,0,0,0,238,194.8C188.5,193,139.6,198.8,91.4,210.7Z" fill="#fff" stroke="#fff" stroke-miterlimit="10"/>
        <path d="M93.9,247.1a241.9,241.9,0,0,1,45.9-19.8c18.4-5.9,37.2-10.3,56.5-12,13.9-1.3,27.9-2.5,41.8-2.2,49.8,1.2,96.6,13.5,138.7,41.2a90,90,0,0,1,7.3,5.3C288.7,224.1,191.9,222.6,93.9,247.1Z" fill="#fff" stroke="#fff" stroke-miterlimit="10"/>
        <path d="M180.3,310.5a44.9,44.9,0,0,1-5.5-14.4,69.9,69.9,0,0,1,0-28.8,44.9,44.9,0,0,1,5.5-14.4,47.4,47.4,0,0,1,5.5,14.4,69.9,69.9,0,0,1,0,28.8A47.4,47.4,0,0,1,180.3,310.5Z" fill="#fff"/>
      </g>
      <path d="M100.7,339.2a47.4,47.4,0,0,1-5.5-14.4,69.5,69.5,0,0,1-1.5-14.3,70.4,70.4,0,0,1,1.5-14.4,47.4,47.4,0,0,1,5.5-14.4,44.9,44.9,0,0,1,5.5,14.4,64.1,64.1,0,0,1,1.5,14.4,63.2,63.2,0,0,1-1.5,14.3A47.4,47.4,0,0,1,100.7,339.2Z" fill="#fff"/>
      <path d="M276.7,311.6a44.9,44.9,0,0,1-5.5-14.4,69.9,69.9,0,0,1,0-28.8,44.9,44.9,0,0,1,5.5-14.4,47.4,47.4,0,0,1,5.5,14.4,69.9,69.9,0,0,1,0,28.8A47.4,47.4,0,0,1,276.7,311.6Z" fill="#fff"/>
      <path d="M360.1,339.2a47.4,47.4,0,0,1-5.5-14.4,63.2,63.2,0,0,1-1.5-14.3,64.1,64.1,0,0,1,1.5-14.4,44.9,44.9,0,0,1,5.5-14.4,47.4,47.4,0,0,1,5.5,14.4,70.4,70.4,0,0,1,1.5,14.4,69.5,69.5,0,0,1-1.5,14.3A47.4,47.4,0,0,1,360.1,339.2Z" fill="#fff"/>
    </g>
  </g>
</svg>
