<svg xmlns="http://www.w3.org/2000/svg" viewBox="0 0 512 512">
  <title>the-news-tribune</title>
  <g id="Layer_2" data-name="Layer 2">
    <g id="Art">
      <rect width="512" height="512" fill="#006ba6"/>
      <path d="M.1,191.4H17.3l16.1-10.4,21-10.5H72.9c.2,0,16.3-.1,20-10.5,2.2-6.4,5-8.8,8.8-12.2a71.1,71.1,0,0,0,8.5-8.7c8.3-10.3,17.8-10.4,17.9-10.4h0c.3-.3,20.5-20.9,27.8-20.9s27.1-19.5,28.5-21l33.4,10.5h18.6c.3.1,31.2,10.3,57,0,1.5.5,34.6,10.7,37,20.8s23.4,20.9,23.6,21l20.4,10.5L398.6,160l23.5,20.9h12.4l21,10.5c.2,0,13.7.1,17.3,10.3s37.6,10.6,39.1,10.6h.1V.1H0V191.2" fill="#4e9fd9"/>
      <g>
        <path d="M464,343.9V290.7H330.3v53.2H357V323.1h23.8v88H363.5v34.2h67.4V411.1H413.5v-88h23.9v20.8Zm-139.9-19V290.7H262.9v34.2h17.7v47.4l-54.4-81.6H189.3v34.2h17.4v86.2H189.3v34.2h64.2V411.1H235.3V365.7l52,79.6h19V324.9Zm-142.4,19V290.7H48v53.2H74.6V323.1H98.5v88H81.1v34.2h67.4V411.1H131.2v-88H155v20.8Z" fill="#fff"/>
        <g>
          <path d="M465.2,343.6V290.3H347.9c-5.4,0-10.8-.1-16.2,0h-.2c-.3,0-2.4.4-2.4.7v53.2h26.7c.3,0,2.3-.4,2.3-.7V322.8l-2.3.6h23.3c.6,0,.5-.1.5.4v82a48.6,48.6,0,0,0,0,5.4c.1.1,0,.2,0,.3l2.4-.7H364.6c-.3,0-2.3.4-2.3.7v34.2h67.4c.3,0,2.3-.4,2.3-.7V410.8H415.2c-.6,0-.5.2-.5-.3a46.8,46.8,0,0,1,0-5.3V327.8a38.4,38.4,0,0,0,0-4.8v-.2l-2.4.6h23.3c.7,0,.6,0,.6.7v20.1h26.7a3.3,3.3,0,0,0,1.4-.4l.8-.3H438.7c-.3-.1,0,.1-.2-.2a6.5,6.5,0,0,1,0-1.4V322.8H414.6c-.2,0-2.3.3-2.3.6v86.7a4.8,4.8,0,0,0,0,1.2v.2h16.6c.8,0,.8-.2.8.6v33.6l2.3-.7H365c-.5,0-.3.1-.4-.3-.2-3.1,0-6.2,0-9.3V410.8l-2.3.7h17.4c.3,0,2.3-.4,2.3-.7V324.1a4.8,4.8,0,0,0,0-1.2H358.1c-.3,0-2.3.3-2.3.6v20.8l2.3-.6H331.5a4.8,4.8,0,0,1,0-1.2V290.3l-2.3.7H462.1c.7,0,.7-.2.7.6v52.6S465.2,344,465.2,343.6Z" fill="#fff"/>
          <path d="M325.3,324.5V290.3H264c-.2,0-2.3.4-2.3.7v34.2h17.2c.4,0,.4-.1.5.1a4.8,4.8,0,0,1,0,1.2v46.1l2.4-.6L272,357.3l-20.5-30.8-18.9-28.3-4.7-7.1c-.2-.2-.3-.7-.6-.8a4.8,4.8,0,0,0-1.2,0H190.5c-.3,0-2.4.4-2.4.7v34.2h17.4c.1,0,0,.2,0,.3a10.8,10.8,0,0,1,0,1.8v79.1a38.4,38.4,0,0,0,0,4.8v.3l2.3-.7H190.5c-.3,0-2.4.4-2.4.7v34.2h64.2c.3,0,2.4-.4,2.4-.7V410.8H236.5c-.1-.1,0-.7,0-.8V365.4l-2.4.6,7.2,11.1,16.4,25.1,17.4,26.6,10.4,16c.2.2.4.7.6.8s.6.1.9.1h18.1c.3,0,2.4-.4,2.4-.7V329.5a36.9,36.9,0,0,0,0-4.7v-.3l-2.4.7H323a8,8,0,0,0,1.5-.3l.8-.4H307.4c-.2,0-2.3.4-2.3.7V440.7a36.9,36.9,0,0,0,0,4.7v.3l2.3-.7H289.2c-.6,0-.6.1-.9-.3a46.3,46.3,0,0,1-3.1-4.6l-6-9.3-16.9-25.9L245.4,379l-5.9-9-1.9-2.9a5.6,5.6,0,0,0-1-1.5.3.3,0,0,0-.1-.2,5,5,0,0,0-2.4.6v45.5H251c.2,0,1.2-.2,1.3,0v.4c-.1,3.3,0,6.7,0,10v23.8l2.3-.7H192.3a4.9,4.9,0,0,1-1.7,0c-.2-.1,0,.1-.1,0a2.1,2.1,0,0,1,0-.8V420.4c0-3,.2-6.1,0-9.1v-.5l-2.3.7h17.4c.2,0,2.3-.4,2.3-.7V325.9a4.8,4.8,0,0,0,0-1.2v-.2H191.3c-.9,0-.8.2-.8-.6V290.3l-2.3.7h35.7c.5,0,.9-.1,1.2.2a9.1,9.1,0,0,1,1.3,1.9l2.4,3.6,17.8,26.6,21,31.5,7.8,11.7,2.5,3.8a9.6,9.6,0,0,0,1.4,2.1.3.3,0,0,1,.1.2,5,5,0,0,0,2.4-.6V324.5H265c-.8,0-.9.3-.9-.5V290.3l-2.3.7h59.9a5.7,5.7,0,0,1,1.3,0v25c0,2.9-.2,5.8,0,8.7v.5C323,325.1,325.3,324.9,325.3,324.5Z" fill="#fff"/>
          <path d="M182.9,343.6V290.3H65.6c-5.4,0-10.8-.1-16.2,0h-.3c-.2,0-2.3.4-2.3.7v53.2H73.5c.3,0,2.3-.4,2.3-.7V322.8l-2.3.6H96.8c.6,0,.5-.1.5.4v82a48.6,48.6,0,0,0,0,5.4v.3l2.4-.7H82.3c-.3,0-2.3.4-2.3.7v34.2h67.4c.3,0,2.3-.4,2.3-.7V410.8H132.9c-.6,0-.5.2-.5-.3a46.8,46.8,0,0,1,0-5.3V327.8a38.4,38.4,0,0,0,0-4.8c-.1-.1,0-.1,0-.2l-2.4.6h23.3c.7,0,.6,0,.6.7v20.1h26.7a3.7,3.7,0,0,0,1.4-.4l.8-.3H156.4c-.3-.1-.1.1-.2-.2a6.5,6.5,0,0,1,0-1.4V322.8H132.3c-.3,0-2.3.3-2.3.6v86.7a4.8,4.8,0,0,0,0,1.2v.2h16.6c.8,0,.8-.2.8.6v33.6l2.3-.7h-67c-.5,0-.3.1-.4-.3-.2-3.1,0-6.2,0-9.3V410.8l-2.3.7H97.4c.2,0,2.3-.4,2.3-.7V324.1a4.8,4.8,0,0,0,0-1.2H75.8c-.3,0-2.3.3-2.3.6v20.8l2.3-.6H49.2a4.8,4.8,0,0,1,0-1.2V290.3l-2.3.7H179.7c.8,0,.8-.2.8.6v52.6S182.9,344,182.9,343.6Z" fill="#fff"/>
        </g>
      </g>
    </g>
  </g>
</svg>
