<svg xmlns="http://www.w3.org/2000/svg" viewBox="0 0 300 39.11"><defs><style>.cls-1{fill:#010101;}.cls-2{fill:#b11f24;}</style></defs><title>mcclatchy-dc</title><g id="Layer_2" data-name="Layer 2"><g id="sac"><path class="cls-1" d="M8.44,29H0v-.86l1.72-.29C2.81,27.7,3,27.66,3,27L3.48,5.69C3,4.54,1.76,4.35,0,4.28v-1H7.11l8.71,19.59L24.29,3.27h7.27v1c-1.76.07-2.81.26-3.44,1.41V27c0,.63.16.67,1.17.82l2.11.29V29H20v-.86l2.34-.29c1.05-.15,1.25-.19,1.25-.82V8.29l-9,20.37H13.9L4.45,7.44,4.92,27c0,.63.16.67,1.17.82l2.35.29Z"/><path class="cls-1" d="M33,20.67c0-6.13,4.53-10.93,10.51-10.93,4.1,0,6.21,2.23,6.21,3.61a1.82,1.82,0,0,1-1.88,1.82c-3.47,0-2.54-4.28-5.7-4.28-2.34,0-4.92,2.35-4.92,8.18,0,4.46,2.11,7.85,6.33,7.85A7,7,0,0,0,49,24.54l.58.63a9.34,9.34,0,0,1-8,4.35C36.75,29.52,33,26.1,33,20.67Z"/><path class="cls-1" d="M75.11,10.26h-1c-1.33-4.65-3.91-6.54-7.77-6.54C61.24,3.72,57,7.44,57,15c0,9,4.57,13.27,9.81,13.27,3.43,0,6-1.86,7.34-6.51h1l-.67,5.91a15,15,0,0,1-7.61,1.9c-8.13,0-14.53-5.47-14.53-13.12A14.11,14.11,0,0,1,66.63,2.45a14.2,14.2,0,0,1,7.81,1.9Z"/><path class="cls-1" d="M76.12,29V28l.78-.12c1.21-.18,1.29-.26,1.29-1V4.24l-1.91-1V2.57A31.42,31.42,0,0,0,81.82,0h.51V27c0,.59.23.59,1.33.82l.7.15v1Z"/><path class="cls-1" d="M96,26.81h-.16c-2.3,1.78-3.63,2.71-5.74,2.71-2.42,0-4.65-1.23-4.65-3.35,0-3.75,5.43-5.68,10.63-7.28.08-1.56.12-3,.12-3.83,0-2.79-1.53-3.5-4-3.5-1.48,0-2.3.19-2.54,1.38a10.12,10.12,0,0,0-.11,1.78c-.82.41-3.56,1.19-3.56,0,0-2,4.53-5,9-5,3.47,0,5.31,1.53,5.31,4.13,0,5-.2,9.48-.2,11.34,0,1.37.47,1.74,1.45,1.74a4.69,4.69,0,0,0,2.26-.52l.2.6a6.66,6.66,0,0,1-4.81,2.49A2.78,2.78,0,0,1,96,26.81Zm-.2-1.71c0-.82.12-3,.2-5.14-3.44,1.27-4.69,1.83-5.43,2.42a2.65,2.65,0,0,0-1.25,2.34c0,1.49,1,2.49,2.81,2.49S95.8,26,95.8,25.1Z"/><path class="cls-1" d="M106.08,11.82h-2.66v-.7a13,13,0,0,0,6.13-5h.71v4.31h6.25v1.38h-6.29V24.05c0,2.9,1.29,3.13,2.5,3.13a4.63,4.63,0,0,0,2.69-.71l.39.71a7,7,0,0,1-5.35,2.34c-3.08,0-4.37-1.71-4.37-4.76Z"/><path class="cls-1" d="M117.32,20.67c0-6.13,4.54-10.93,10.51-10.93,4.1,0,6.21,2.23,6.21,3.61a1.81,1.81,0,0,1-1.87,1.82c-3.48,0-2.54-4.28-5.71-4.28-2.34,0-4.92,2.35-4.92,8.18,0,4.46,2.11,7.85,6.33,7.85a7,7,0,0,0,5.39-2.38l.59.63a9.37,9.37,0,0,1-8,4.35C121,29.52,117.32,26.1,117.32,20.67Z"/><path class="cls-1" d="M135.41,29V28l1.13-.19c1.25-.22,1.29-.26,1.29-.93V4.24l-2-1V2.57A31.78,31.78,0,0,0,141.46,0H142V12.57h.23a10.09,10.09,0,0,1,7-2.83c3.25,0,5.24,1.6,5.24,5.06V26.88c0,.74.11.74,1.29.93l1.13.19v1h-9.53V28l1.64-.19c1.09-.07,1.33-.11,1.33-.78V15.8c0-2.68-1.06-3.57-3.52-3.57a10.2,10.2,0,0,0-3.79.67c-.89.41-1.05,1.15-1.05,2.83V27c0,.67.23.71,1.33.78L145,28v1Z"/><path class="cls-1" d="M158.8,37.48a1.56,1.56,0,0,1,1.68-1.68A1.88,1.88,0,0,1,162.16,37a11.25,11.25,0,0,0,1.6-2.71L166,29l-7-16c-.35-.75-.39-1.12-1.45-1.38l-.9-.22v-1h9.22v1.15l-1.68.15c-.82.08-1,.67-.66,1.41l4.65,11,3.59-9.74c.86-2.3.74-2.64-.74-2.71l-1.64-.08V10.41h7.46v.93l-1.06.26c-1.13.3-1.21.48-2.26,3l-8.79,20.56c-1.37,3.24-2.66,4-4.1,4A1.71,1.71,0,0,1,158.8,37.48Z"/><path class="cls-1" d="M188.16,10.27h4.23c4.1,0,7.91,2.8,7.87,8.22s-3.73,8-7.85,8h-4.25Zm1,.84V25.67h3.19c3.55,0,6.72-2.26,6.76-7.18s-3.18-7.38-6.83-7.38Z"/><path class="cls-1" d="M214.47,26a9.46,9.46,0,0,1-4.41.93c-4.2,0-7.93-3-7.93-8.41s3.79-8.55,8.34-8.55a9.29,9.29,0,0,1,4,.83l-.26.8a8.58,8.58,0,0,0-3.71-.8c-4,0-7.24,2.79-7.24,7.72s3.17,7.59,6.83,7.59a8.68,8.68,0,0,0,4.1-.89Z"/><path class="cls-1" d="M221.38,10.27h5c2.8,0,4.38,1.41,4.38,4A3.53,3.53,0,0,1,228.19,18a3.87,3.87,0,0,1,3.23,4c0,2.69-1.86,4.51-4.92,4.51h-5.12Zm1,.84v6.55h3.84c2.15,0,3.45-1,3.45-3.36,0-2.08-1.19-3.19-3.45-3.19Zm0,7.38v7.18h4c2.49,0,3.94-1.33,3.94-3.67s-1.43-3.51-3.81-3.51Z"/><path class="cls-1" d="M235,20.94c0,3,1.56,5,4.92,5,2.8,0,4.56-1.61,4.56-4.88V10.27h1V20.92c0,3.81-2.16,5.92-5.63,5.92-3.86,0-5.86-2.43-5.86-5.92V10.27h1Z"/><path class="cls-1" d="M248.8,10.27h4.92c2.88,0,4.66,1.69,4.66,4.44a4.21,4.21,0,0,1-3.79,4.43l4.66,7.37h-1.17l-4.64-7.31h-3.6v7.31h-1Zm1,.84v7.27h3.71c2.42,0,3.77-1.35,3.77-3.71s-1.35-3.56-3.77-3.56Z"/><path class="cls-1" d="M261.81,10.27h8.91v.84h-7.87v6.53h7.35v.85h-7.35v7.18h8v.84h-9Z"/><path class="cls-1" d="M278.66,10.12h.87l6,16.39h-1l-1.88-5.16h-7.16l-1.89,5.16h-.93Zm.37,1.49-3.25,8.89h6.5Z"/><path class="cls-1" d="M288.31,20.94c0,3,1.56,5,4.92,5,2.8,0,4.56-1.61,4.56-4.88V10.27h1V20.92c0,3.81-2.16,5.92-5.63,5.92-3.87,0-5.86-2.43-5.86-5.92V10.27h1Z"/><rect class="cls-2" x="187.59" y="28.59" width="112.41" height="1.68"/></g></g></svg>