<svg xmlns="http://www.w3.org/2000/svg" viewBox="0 0 566 87.1"><title>Asset 1</title><path d="M393.2,18.3V17c-.9-9.2-.9-12.6-1.3-14.4s-.9-1.3-1.8-1.3A101.9,101.9,0,0,0,373.6,0C355.7,0,344,8.7,344.8,20.9s5.7,17,20.5,26.1l6.1,3.9c10.9,7,13.1,12.2,13.5,17.9s-5.2,12.6-16.5,12.6a19.5,19.5,0,0,1-19.2-11.3,15.8,15.8,0,0,1-1.3-5.7c0-.8,0-1.7-1.3-1.7s-1.3,1.3-1.3,3a131.4,131.4,0,0,0,0,14.4c.4,6.1.4,3.1,2.6,3.9A49.8,49.8,0,0,0,367,87.1a41.5,41.5,0,0,0,20.5-4.4,20.3,20.3,0,0,0,11.3-19.1c-.4-10.5-6.5-17.9-22.2-28.3l-3.9-2.2c-10.9-7-14.4-10.9-14.4-16.1s5.3-11.3,14.8-11.3a19.3,19.3,0,0,1,14.8,5.6,13.5,13.5,0,0,1,4,7.4C391,20,393.2,20,393.2,18.3Z" style="fill:#446896"/><path d="M48.4,18.3V17c-1.3-9.2-.9-12.6-1.3-14.4s-.9-1.3-1.8-1.3A101.1,101.1,0,0,0,28.8,0C10.9,0-.8,8.7,0,20.9S5.7,37.9,20.5,47l6.1,3.9c10.9,7,13.1,12.2,13.5,17.9S34.9,81.4,23.6,81.4A19.5,19.5,0,0,1,4.4,70.1a15.8,15.8,0,0,1-1.3-5.7c0-.8,0-1.7-1.3-1.7S.5,64,.5,65.7a131.4,131.4,0,0,0,0,14.4c.4,6.1.4,3.1,2.6,3.9a43.9,43.9,0,0,0,18.3,3.1,41.1,41.1,0,0,0,20.4-4.4A20.4,20.4,0,0,0,53.2,63.6C52.7,53.1,46.6,45.7,31,35.3l-4.4-2.6c-10.9-7-13.9-10.9-14.4-16.2S17.9,5.2,27.5,5.2a19.5,19.5,0,0,1,14.8,5.7,14,14,0,0,1,3.9,7.4A1.1,1.1,0,1,0,48.4,18.3Z" style="fill:#446896"/><path d="M82.8,84H78.4c-2.6-.4-3-1.7-3.5-3.9s-.4-9.6-.4-17V32.7c0-2.7.9-4,3-4.4h2.6c.9,0,1.4,0,1.4-.9H55.8c0,.5.4.9,1.3.9h3c1.8.4,2.6,1.7,3.1,4.4v30c0,7.4,0,13.5-.5,17s-.8,3.5-2.6,3.9H55.8c0,.4.4.9,1.7.9H81.9c.9,0,1.7-.5,1.7-.9Z" style="fill:#446896"/><path d="M129.8,77.1c-.5,2.3-1.5,4.4-3.6,5.5l-.7.2a26.2,26.2,0,0,1-7.9.8c-8.6,0-10-1.3-10.4-6.4a.4.4,0,0,1-.1-.3V62.1a4.2,4.2,0,0,1,4.2-4.2H120c2.9.5,4.1,1.4,4.6,3a8.4,8.4,0,0,1,.4,2.7c0,.4,0,.8.9.8s.8-.8.8-1.3a30.5,30.5,0,0,1,.5-5.2c.4-3.9.8-5.2.8-5.7h-.4l-1.3.9c-.8.8-2.1.9-4,1.3h-11a3.6,3.6,0,0,1-3.7-3.7V37.2a4.1,4.1,0,0,1,4.1-4.1h8.7c4.2.4,5,1.3,5.5,2.6a7.5,7.5,0,0,1,.4,2.6c0,.9,0,.9.9.9h0a4,4,0,0,0,.9-2c.1-1.4.4-3.5.4-4.1s.8-4.4.8-5.2,0-.9-.4-.9H89.7c-1.3,0-1.7,0-1.7.9s.4.8,1.3.8h3.5c2.9.5,3.4,1.7,3.8,4.1a1.3,1.3,0,0,1,.1.6V63.1c0,7,0,13.1-.4,16.6s-.9,3.9-2.7,4.3H89.3c0,.5.4.9,1.7.9h34.9c3.4,0,3.9,0,4.8-2.2s.9-5,1.2-7.5a7.3,7.3,0,0,0-.5-2c-.3-.6-.3-1-.6-1v2" style="fill:#446896"/><path d="M306.1,84h-3.5c-1.7-.4-4.3-1.3-7.4-8.2s-19.1-43.6-21.3-47.9-1.3-2.6-2.2-2.6-1.3.8-2.6,3L247.3,77.1a16.9,16.9,0,0,1-2.2,3.9l-2.6-2.2C237.3,74,231.7,67,223.8,58.3c8.7-6.5,11.3-11.7,11.3-17.4a12.9,12.9,0,0,0-5.6-10.4A27.7,27.7,0,0,0,213.8,27H189.9c-1.3,0-1.8,0-1.8.9s.5.8,1.3.8h3.5c3.1.5,3.5,1.8,3.9,4.4v30c0,7,0,13.1-.4,16.6s-.4,2.6-1.3,3.5a21.3,21.3,0,0,1-6.5-4.4C183.3,74,177.7,67,169.8,58.3c8.7-6.5,11.4-11.7,11.4-17.4a13.3,13.3,0,0,0-5.7-10.4A27.7,27.7,0,0,0,159.8,27H135.9c-1.3,0-1.8,0-1.8.9s.5.8,1.3.8h3.5c3.1.5,3.5,1.8,3.9,4.4v30c0,7,0,13.1-.4,16.6s-.9,3.9-2.6,4.3h-4.4c0,.5.5.9,1.8.9h23.1c1.3,0,1.7-.4,1.7-.9s-.4-.4-.9-.4h-4.3c-2.6-.4-3.1-2.2-3.5-4.4a151.5,151.5,0,0,1-.4-16.5V61.4c0-.5.4-.5.8-.5h9.2l8.7,10.9a38.5,38.5,0,0,0,11.7,11.4,21.6,21.6,0,0,0,8.3,1.3h23.1c1.3,0,1.7-.5,1.7-.9s-.4-.4-.9-.4h-4.3c-2.6-.5-3.1-2.2-3.5-4.4a151.5,151.5,0,0,1-.4-16.5V60.9h10L226,71.8a39.7,39.7,0,0,0,11.7,11.4,17.3,17.3,0,0,0,7.4,1.3h13.5c.9,0,1.3,0,1.3-.9h-2.6c-2.6,0-3.4-.9-3.4-2.6a13.2,13.2,0,0,1,1.3-4.8l4.7-10.9c0-.4.5-.4.9-.4H280c.4,0,.8,0,.8.4l7,16.5c.4.9,0,1.8-.9,1.8s-1.3.4-1.3.9.9.4,2.6.4h16.2c3,0,3.9,0,3.9-.9ZM165.9,56.6a10.7,10.7,0,0,1-6.1,1.3l-6.5-.9c-.4-.4-.9-.4-.9-1.3V31.8c0-.5,0-.9.9-.9h4.3A12.6,12.6,0,0,1,170.8,43a18.5,18.5,0,0,1-.1,2.3A12.5,12.5,0,0,1,165.9,56.6Zm54.4,0a10.5,10.5,0,0,1-6.1,1.3l-6.5-.9c-.4-.4-.9-.4-.9-1.3V31.8c0-.5,0-.9.9-.9h4.4A12.6,12.6,0,0,1,225.2,43a9.1,9.1,0,0,1-.1,2.3A13.3,13.3,0,0,1,220.3,56.6Zm56.6,4.8H261.3c-.5,0-.5,0-.5-.5l7.9-19.1v-.9c.4,0,.4.5.4.9l8.3,19.1C277.4,61.4,277.4,61.4,276.9,61.4Z" style="fill:#446896"/><path d="M564.7,84h-2.6a19.9,19.9,0,0,1-9.6-5.6c-5.2-4.8-10.9-11.8-18.7-20.5,8.7-6.5,11.3-11.8,11.3-17.4A13.1,13.1,0,0,0,539.4,30a28.2,28.2,0,0,0-15.6-3.4h-24c-1.3,0-1.7,0-1.7.8s.4.9,1.3.9h3.5c3,.4,3.5,1.7,3.9,4.4v30c0,7,0,13.1-.4,16.5s-.9,4-2.7,4.4h-2.6c-1.7-.4-4.3-1.3-7.4-8.3s-19.1-43.5-21.3-47.9-1.3-2.6-2.2-2.6-1.3.9-2.6,3.1L445.8,76.6c-1.7,3.9-3.4,6.6-7.4,7h-5.2c-2.6-.4-3-2.2-3.5-4.4s-.4-9.5-.4-16.5V31.3h19.6l2.2-1.7c.4-.4,3-3.5,1.3-3.5H396.6c-.8,0-1.3.5-.8.9s4.8,4.8,5.6,4.3h17.5V63.1c0,7,0,13.1-.5,16.6s-.9,3.9-2.6,4.3h-4.3c0,.5.4.9,1.7.9H455c.9,0,1.3,0,1.3-.9h-2.6c-2.6,0-3.5-.8-3.5-2.6a16.3,16.3,0,0,1,1.3-4.8l4.8-10.9c0-.4.4-.4.9-.4h19.1c.5,0,.9,0,.9.4l7,16.6c.4.9,0,1.7-.9,1.7s-1.3.5-1.3.9.8.4,2.6.4h39.2c1.3,0,1.7-.4,1.7-.8s-.4-.5-.9-.5h-4.3c-2.6-.4-3.1-2.2-3.5-4.3a153.3,153.3,0,0,1-.4-16.6V61.8h10l8.7,10.9A39.4,39.4,0,0,0,546.8,84a22.4,22.4,0,0,0,9.2,1.3h8.3c.8,0,1.7,0,1.7-.8ZM475,61.4H459.3a.5.5,0,0,1-.4-.5l7.8-19.1v-.9c.5,0,.5.5.5.9L475,60.9c0,.5,0,.5-.4.5Zm54.9-4.8a10.9,10.9,0,0,1-6.1,1.3l-6.6-.9c-.4-.4-.8-.4-.8-1.3V31.8c0-.5,0-.9.8-.9H522A12.6,12.6,0,0,1,535.2,43a18.5,18.5,0,0,1-.1,2.3A13.6,13.6,0,0,1,529.9,57Z" style="fill:#446896"/></svg>