<svg xmlns="http://www.w3.org/2000/svg" viewBox="0 0 292.77 60.02"><defs><style>.cls-1{fill:#0b79bf;}</style></defs><title>nuevo-herald</title><g id="Layer_2" data-name="Layer 2"><g id="enh"><path class="cls-1" d="M8.15,31.09H12V19.34c0-2.17-.77-2.33-1.95-2.33s-1.94.16-1.94,2.33Zm91.55,0h3.9V19.34c0-2.17-.76-2.33-1.95-2.33s-2,.16-2,2.33Zm48.83,21.24c0-.14,0-.3,0-.47V19.34c0-2.17-.76-2.33-2-2.33s-2,.16-2,2.33V51.86c0,.17,0,.33,0,.46h0c.11,1.71.84,1.85,1.94,1.85s1.81-.14,1.93-1.85Zm53.6-21.24H206V19.34c0-2.17-.76-2.33-1.95-2.33s-2,.16-2,2.33Zm47.36,21.69a2.45,2.45,0,0,0,.48-1.51V34.76c-2.29,1.34-3.9,2.33-3.9,4.84V51.27a4.14,4.14,0,0,0,.24,1,1.81,1.81,0,0,0,1.6,1c1.31,0,1.58-.55,1.58-.55m34.78-.48a4.46,4.46,0,0,0,.36-2V20.92c0-2.49-.94-2.91-2-2.91s-1.95.42-1.95,2.91V50.27a4.76,4.76,0,0,0,.36,2h0a1.6,1.6,0,0,0,1.58.87,1.62,1.62,0,0,0,1.6-.87Zm8.5,7.14h-8.14V56.61h-.18A7.64,7.64,0,0,1,278.61,60c-3.14,0-6-1.67-6-5.58V16.76c0-3.92,2.89-5.59,6-5.59a7.18,7.18,0,0,1,5.84,3.59h.18V.09h8.14Zm-23,0H261.6V.09h8.14Zm-11.64,0h-7.63a7.26,7.26,0,0,1-.5-3.26c-1.87,2.76-3.14,3.84-6.53,3.84-3.56,0-5.51-1.91-5.51-5.49v-16c0-9.67,11.78-4.58,11.78-16.74,0-1.42.33-4.76-1.61-4.76-2.37,0-1.95,3.83-1.95,5.51v6.24h-8.22V19.18c0-4.92,3.9-8,10.08-8s10.09,3.09,10.09,8ZM237,36.58h-8.12V20.82c0-1.33-.1-2.91-1.79-2.91-2,0-2.12,1.58-2.12,2.91V59.34h-8.14V11.66H225v2.75h.17a6.22,6.22,0,0,1,5.59-3.34c6.45,0,6.27,4.09,6.27,9.09ZM214.17,52v.28c-.15,4.75-4,7.71-10.08,7.71s-9.93-3-10.09-7.7h0V19.18c0-4.92,3.9-8,10.09-8s10.09,3.09,10.09,8v17.5h-12V51.86l0,.47c.11,1.71.84,1.85,1.93,1.85S205.9,54,206,52.33l0-.47V40.68h8.14Zm-22.94,7.41h-9V30.6h-5V59.44h-9V.09h9V22.84h5V.09h9Zm-34.55-7.13c-.16,4.75-4,7.71-10.08,7.71s-9.94-3-10.09-7.7c0,0,0-.63,0-1V19.18c0-4.92,3.9-8,10.09-8s10.08,3.09,10.08,8V52.31Zm-20.8-40.55-5.7,40.56-1,7.12H119l-.94-7.12-5.33-40.56h8.13l2,16.59a218.29,218.29,0,0,1,1.1,21.84c.76-5.51.68-11.09,1.35-16.59l2.54-21.84ZM103.6,51.86V40.68h8.13V52.31c-.15,4.75-4,7.71-10.08,7.71s-9.94-3-10.08-7.7V19.18c0-4.92,3.89-8,10.08-8s10.08,3.09,10.08,8v17.5h-12V52.33c.11,1.71.85,1.85,1.94,1.85s1.82-.14,1.93-1.85ZM89.3,59.44H81.17V56.69A6.68,6.68,0,0,1,75.4,60c-5.83,0-6.24-3.35-6.26-7.7V11.76h8.13V50.27a4.86,4.86,0,0,0,.3,2,1.49,1.49,0,0,0,1.48.87,1.84,1.84,0,0,0,1.76-.86,4.26,4.26,0,0,0,.36-2.06V11.76H89.3V59.44Zm-22.87.06H58.11l-2-7.18C54,44.33,50.65,32,49.75,27.53l-.28-.91V59.5H41.53V0h8.22l3.86,17c2.5,10.86,4.69,19.18,4.69,19.18C58.39,30.61,57.56,0,57.56,0h8.87Zm-36.09-.06H22.2V.09h8.14ZM12,51.86V40.68h8.13V52.31C20,57.06,16.16,60,10.09,60S.15,57.06,0,52.32V19.18c0-4.92,3.9-8,10.09-8s10.08,3.09,10.08,8v17.5h-12V52.33c.1,1.71.84,1.85,1.93,1.85S11.91,54,12,52.33Z"/></g></g></svg>