<svg xmlns="http://www.w3.org/2000/svg" viewBox="0 0 330.6 43.2">
  <title>mcclatchy</title>
  <g id="Layer_2" data-name="Layer 2">
    <g id="Logo">
      <g>
        <path d="M79.7,41.6c2.8-.2,4-1.4,4.8-4.1a111.1,111.1,0,0,0,1.8-11.7c.7-5.6,1-8.8,1-9.5,0-2.7-1.6-4-4.9-4.4v-.8h9.8v.7a1.4,1.4,0,0,0-.5.9c0,1.5,1.1,3.8,2.6,7.2l7,15.6,8.6-19a8.5,8.5,0,0,0,.9-3.4,1.6,1.6,0,0,0-.4-1.3v-.7h10.3v.8c-3.4.1-4.7,1.8-4.7,5.4,0,.5,0,1.5.1,3l.9,14.6c.3,4.7.6,6.3,5.2,6.7v.8H107.1v-.8c4.5-.5,5.7-1.6,5.7-5.1a5.7,5.7,0,0,0-.1-1.3l-1-18.7-7,15.3c-1.3,2.8-2.8,6.5-4.7,11h-.5q-1.9-4.8-2.7-6.3L88.5,17.7l-.7,6c-.7,7-.8,11.3-.8,12.8,0,3.6,1.1,4.5,5.6,5.1v.8H79.7Z" fill="#231f20"/>
        <path d="M145.2,34.4a31.1,31.1,0,0,1-2.2,6.9,19.4,19.4,0,0,1-8,1.7,16.1,16.1,0,0,1-10.2-3.2c-3.4-2.5-4.9-6-4.9-10.5a13.3,13.3,0,0,1,4.9-10.4,16.3,16.3,0,0,1,10.5-3.4,20.4,20.4,0,0,1,8.6,1.9v6.5h-.6c-.8-4.9-3.6-7.4-8.1-7.4-6.3,0-10.8,5-10.8,12.6a13.3,13.3,0,0,0,3.6,9.4,10.8,10.8,0,0,0,7.9,3.4c4,0,6.5-2.5,8.8-7.7Z" fill="#231f20"/>
        <path d="M176.4,32.9a37.6,37.6,0,0,1-2.7,8.2,23.2,23.2,0,0,1-9.5,2.1,19.1,19.1,0,0,1-12.1-3.9c-4-3-5.8-7.1-5.8-12.4a15.6,15.6,0,0,1,5.8-12.4,19,19,0,0,1,12.5-4.1,23.9,23.9,0,0,1,10.3,2.3v7.7h-.8c-.9-5.8-4.3-8.8-9.7-8.8-7.4,0-12.8,6-12.8,15a16,16,0,0,0,4.3,11.2,12.9,12.9,0,0,0,9.4,4c4.7,0,7.8-2.9,10.4-9.2Z" fill="#231f20"/>
        <path d="M176.3,41.7c4.5-.3,4.9-1.8,4.9-6.4V22.5c0-4.1-.5-5.3-4.9-5.7v-.7h13.2v.7c-4.2.3-4.8,1.6-4.8,5.7V35.3c0,2.6,0,4.3.4,5.2s1.9.8,4.5.8,4.3,0,5.8-1,2.9-2.7,4.3-5.3l.5.3L198,42.4H176.3Z" fill="#231f20"/>
        <path d="M198.9,41.7a5.3,5.3,0,0,0,3.3-1.4c.9-1,2.2-4.9,4.7-11.6l4.3-11.4v-.7a7.4,7.4,0,0,0,2.7-2.1L222.1,37c1.2,3.2,2.1,4.6,5,4.7v.7H215.8v-.7c2-.1,3.1-1,3.1-2.1a7.8,7.8,0,0,0-.6-2.6l-2-5.6h-9l-.7,2.2a22.2,22.2,0,0,0-1.4,5.7c0,1.7,1.4,2.4,4.3,2.4v.7H198.9Zm16.7-11.9-3.9-10.5-3.8,10.5Z" fill="#231f20"/>
        <path d="M237.9,40.2a7.8,7.8,0,0,0,4.1,1.5v.7H228.1v-.7a8.2,8.2,0,0,0,4.2-1.5c.9-.9,1-2.7,1-5.7V17.4h-2.6c-4.5,0-6.5,1-7.5,4.9h-.7l.7-7.3h.5l1.1,1.2h20.6l1.2-1.2h.3l.7,7.3H247c-.9-3.6-3-4.9-7.3-4.9h-2.8V34.5C236.9,37.5,237,39.3,237.9,40.2Z" fill="#231f20"/>
        <path d="M272.5,34.4a37.3,37.3,0,0,1-2.2,6.9,19.9,19.9,0,0,1-8.1,1.7,15.8,15.8,0,0,1-10.1-3.2c-3.4-2.5-5-6-5-10.5a13.4,13.4,0,0,1,5-10.4,16.1,16.1,0,0,1,10.5-3.4,20.4,20.4,0,0,1,8.6,1.9v6.5h-.6c-.8-4.9-3.6-7.4-8.2-7.4-6.2,0-10.8,5-10.8,12.6a13.4,13.4,0,0,0,3.7,9.4,10.7,10.7,0,0,0,7.9,3.4c4,0,6.5-2.5,8.7-7.7Z" fill="#231f20"/>
        <path d="M272.3,16.8v-.7H286v.7c-4.6.2-5.1,1.5-5.1,5.7v5.4h15.3V22.5c0-4.2-.4-5.5-5-5.7v-.7h13.6v.7c-4.3.2-4.9,1.5-4.9,5.7V36c0,4.1.6,5.5,4.9,5.7v.7H291.2v-.7c4.6-.2,5-1.6,5-5.7V29.4H280.9V36c0,4.2.5,5.5,5.1,5.7v.7H272.3v-.7c4.5-.2,5-1.7,5-5.7V22.5C277.3,18.4,276.8,17,272.3,16.8Z" fill="#231f20"/>
        <path d="M310.9,41.7c3.6-.3,5-1.6,5-4.8V33.4a9.5,9.5,0,0,0-1.1-4.1l-3.5-7.8c-1.4-3-2.7-4.5-5.6-4.7v-.7h10.6v.7c-1.6,0-2.4.5-2.4,1.4a6.1,6.1,0,0,0,.6,2.2l4.1,9c3.2-5.6,5.1-9.1,5.1-10.7s-1-1.9-2.8-1.9h-.2v-.7h9.9v.7h-.3c-3.8,0-5.1,2.7-7.8,7.8l-2.7,5.1a6.7,6.7,0,0,0-.4,2.4V37c0,3.1,1.5,4.4,5.2,4.7v.7H310.9Z" fill="#231f20"/>
      </g>
      <g>
        <polygon points="0 42.3 29 0 39.6 8.9 16.8 42.3 0 42.3 0 42.3" fill="#231f20"/>
        <polygon points="18.9 42.4 40.5 9.9 50.7 18.3 34.4 42.4 18.9 42.4 18.9 42.4" fill="#231f20"/>
        <polygon points="75.8 42.4 60.5 29.3 51.4 42.4 36.3 42.4 51.6 19.2 78.5 42.4 75.8 42.4 75.8 42.4" fill="#231f20"/>
      </g>
    </g>
  </g>
</svg>
