<svg xmlns="http://www.w3.org/2000/svg" viewBox="0 0 415.7 62.9"><title>fl-keys-news</title><path d="M329.5,428.1h13.4V409.4L358,428.1h12.1V387.5H356.6v17.9l-14.4-17.9H329.5v40.6Zm45.8,0h34.9V417H388.6v-4.4h19.9v-9.8H388.6v-4.2h21.3V387.5H375.3v40.6Zm50.1.3h11.8l7.2-20.2,7.1,20.2h11.8l13.3-40.9h-14L456.9,407l-6.6-19.6H438.6L432.1,407l-5.8-19.5H412.1l13.3,40.9Zm70.4.5c10.9,0,17.9-5.3,17.9-13.8h0c0-8.2-6.9-11.2-17.3-13.1-4.3-.8-5.4-1.5-5.4-2.6h0c0-1,.9-1.7,3-1.7a21,21,0,0,1,12.1,4l6.7-9.2c-4.7-3.7-10.5-5.6-18.4-5.6-11.2,0-17.2,6-17.2,13.7h0c0,8.6,8,11.2,17.1,13.1,4.4.9,5.6,1.5,5.6,2.7h0c0,1.1-1,1.7-3.4,1.7a24,24,0,0,1-14.3-4.7L475,422c5.2,4.5,12.6,6.9,20.8,6.9Z" transform="translate(-98 -366)" style="fill:#ffde40"/><path d="M174.8,428.1H182V416.3l6.3-6.5,13.9,18.3h8.6L193.2,405l16.9-17.5h-8.8L182,407.9V374.5h-7.2v53.6Zm42.1,0h30.4v-6.4H224V410.8h20.4v-6.4H224V393.9h23v-6.4H216.9v40.6Zm50.8,0h7.2V411.9L291,387.5h-8.2l-11.4,18-11.4-18h-8.4l16.1,24.6v16Zm41.8.6c8.5,0,14.5-4.5,14.5-12.1v-.2c0-6.7-4.5-9.8-13.1-11.8s-9.6-3.3-9.6-6.4h0c0-2.7,2.4-4.9,6.6-4.9s7.4,1.5,11,4.2l3.8-5.4a22.4,22.4,0,0,0-14.7-5.1c-8,0-13.8,4.8-13.8,11.8h0c0,7.5,4.8,10,13.5,12.1s9.1,3.3,9.1,6.2v.2c0,3-2.8,5.1-7.2,5.1s-8.9-2-12.8-5.3l-4.3,5.1a25.5,25.5,0,0,0,17,6.5Z" transform="translate(-98 -366)" style="fill:#2e3192"/><path d="M98,428.1h13.6V414.8h18.9V404.3H111.6v-5.2H132V387.5H98v40.6Zm37.8,0h32.6V416.5H149.3v-29H135.8v40.6Z" transform="translate(-98 -366)" style="fill:#ffde40"/><path d="M184.7,376.1l1.7,1c-1.2-1.1-2-1.7-1.7-1m1.3-4.4a10,10,0,0,1,2.4.4c-1.8-.6-3.1-.9-2.4-.4Zm-15.3.4-1.4.2c1.5-.6,2.5-.9,1.4-.2Zm6.6-.2c1-2.7,3.5-6.6,10.5-5.8l-3,.7h1l.7.2c.1,0,0,.1-.3.2s-4.5.5-2.8.6,1.9.2.2.6l-2,.6h1.1c3.7-1.7,9-2.1,15.6,2.8-2.4-.9-4.6-1.5-4.6-1.5l1.3,1a1.9,1.9,0,0,1,.8.7c.2.2,0,.2-.5.1s-6.6-3-4.4-1.5,2.5,1.8-.1,1a13.3,13.3,0,0,0-3.4-.9s4.7,2.5,2.8,2c3.6,1.3,7.2,4.3,10.2,10.3-2.1-2.3-4-4-4-4l.9,1.7a8.4,8.4,0,0,1,.4,1.2c0,.2-.1.2-.6-.2s-5.3-6.6-3.8-4,1.6,3.3-.7,1a21.6,21.6,0,0,0-3-2.6s4.1,5.7,1.3,3-5.1-4.8-2.2-.8a7.8,7.8,0,0,1,1.4,2.1H190c2.3,2.9,3.9,7.1,3.7,13.3a38.3,38.3,0,0,0-1.7-5.4,10.5,10.5,0,0,1,0,1.9c0,.5-.1.9-.1,1.2s-.3.2-.5-.4c-.8-2.4-1.6-8.3-1.5-5.3s-.1,3.7-1.1.6a15.6,15.6,0,0,0-1.4-3.8s.9,7.1-.2,3.4-2.3-6.7-1.6-1.8a9.2,9.2,0,0,1,.2,2.5c-.2.5-3.5-11.2-2.7-4.4.5,4.2-.1,2.7-.7-.1s-1.3-4.7-.9-1.5c.1,1.2-.9-2.1-3.9-5.1h-1.5c-.4,3.1.1,5.3-.3,4.3-1.3-2.9-.9-.9,0,1.9s1,4.3-.6.4c-2.8-6.3.3,5.5-.2,5.2s-.4-.8-1-2.3c-1.9-4.6-1.3-1.5-.5,2.3s-1.9-2.7-1.9-2.7a25.4,25.4,0,0,0,.7,4c.7,3.1.2,2.7-1.2,0s.8,2.9,1.3,5.3c.2.7.1.8-.1.7l-.8-1-1-1.7s.5,2.6,1.3,5.6c-5.6-8.9-3.9-15.5-1.1-19.7v-.3c1.2-3,.1-1.3-1.3,1.3s-2.1,3.9-.7-.1c2.4-6.5-3.5,4.3-3.6,3.7s.1-.9.7-2.4c1.9-4.7.1-2-1.9,1.4s.6-3.3.6-3.3-.7.5-2.3,3.3-1.7,2.1-.9-.8-1.4,2.7-2.7,4.8q-.6.8-.6.3a5.7,5.7,0,0,1,.1-1.2c.2-.9.5-1.9.5-1.9s-1.5,2.2-3,4.9c1.9-9,6.5-12.8,10.9-14.4l1.5-.9c5.2-2.8-4.6.7-4.3.3s.6-.5,1.8-1.1c3.8-1.9,1.2-1.2-2-.2s2.2-1.8,2.2-1.8a15,15,0,0,0-3.3.8c-2.6.9-2.3.4-.1-1s-2.4.9-4.4,1.5-.7.1-.6-.1l.8-.7a8.5,8.5,0,0,1,1.4-.9,35.2,35.2,0,0,0-4.7,1.5c11.1-8.3,18.6-1.5,21.1,1.4h1.4Z" transform="translate(-98 -366)" style="fill:#2e3192"/></svg>