<svg xmlns="http://www.w3.org/2000/svg" viewBox="0 0 156 15"><title>varsity-kansas</title><path d="M2,4.7H5.8L9,14l3.2-9.3h3.2L10,19.4H7.3Z" transform="translate(-2 -4.5)" style="fill:#7c1c23"/><path d="M18.8,4.6h2.7l5.3,14.6H23.1l-.7-2.1H17.5l-.7,2.1H13.5ZM19.9,10l-1.5,4.6h3.1Z" transform="translate(-2 -4.5)" style="fill:#7c1c23"/><path d="M27.9,4.7h6c2.6,0,4.8,1.5,4.8,4.6a4.5,4.5,0,0,1-2.7,4l3.3,5.9h-4l-3-5.4h-.6v5.4H27.9Zm3.8,2.8v3.9h1.5A1.7,1.7,0,0,0,35,9.7V9.4a1.8,1.8,0,0,0-1.5-1.9H31.7Z" transform="translate(-2 -4.5)" style="fill:#7c1c23"/><path d="M44.9,7.5c-.9,0-1.7.3-1.7,1.1s1.6,1.3,3,1.9,3.3,1.8,3.3,4.2-2.1,4.8-5.4,4.8a6.7,6.7,0,0,1-4.6-1.3l1-2.9A4.9,4.9,0,0,0,44,16.4c1.4,0,2-.4,2-1.2s-1.3-1.4-2.8-2.1S39.9,11.4,39.9,9,41.7,4.5,45,4.5a8.6,8.6,0,0,1,4.1,1l-.9,2.9A6.3,6.3,0,0,0,44.9,7.5Z" transform="translate(-2 -4.5)" style="fill:#7c1c23"/><path d="M51.2,4.7h3.7V19.2H51.2Z" transform="translate(-2 -4.5)" style="fill:#7c1c23"/><path d="M60,7.5H56.3V4.7H67.4V7.5H63.8V19.2H60Z" transform="translate(-2 -4.5)" style="fill:#7c1c23"/><path d="M71.9,13.4,67.6,4.7h3.9L74,10l2.5-5.2h3.3l-4.1,8.4v6.1H71.9Z" transform="translate(-2 -4.5)" style="fill:#7c1c23"/><path d="M84.5,19.2V4.7h3.7V11l4.2-6.3h3.7l-4.5,6.9,5,7.6H92.4l-4.2-6.5v6.5Z" transform="translate(-2 -4.5)" style="fill:#7c1c23"/><path d="M101.8,4.6h2.7l5.3,14.6h-3.7l-.8-2.1h-4.8l-.7,2.1H96.5Zm1.1,5.4-1.6,4.6h3.1Z" transform="translate(-2 -4.5)" style="fill:#7c1c23"/><path d="M110.9,19.2V4.7h3.7l4.9,8.4V4.7h3.1V19.2h-3.3l-5.3-9v9Z" transform="translate(-2 -4.5)" style="fill:#7c1c23"/><path d="M129.5,7.5c-.9,0-1.7.3-1.7,1.1s1.6,1.3,3.1,1.9,3.2,1.8,3.2,4.2-2.1,4.8-5.4,4.8a6.9,6.9,0,0,1-4.6-1.3l1-2.9a4.9,4.9,0,0,0,3.5,1.1c1.4,0,2-.4,2-1.2s-1.3-1.4-2.8-2.1-3.3-1.7-3.3-4.1,1.8-4.5,5.1-4.5a7.6,7.6,0,0,1,4.1,1l-.9,2.9a6.3,6.3,0,0,0-3.3-.9Z" transform="translate(-2 -4.5)" style="fill:#7c1c23"/><path d="M139.7,4.6h2.7l5.3,14.6H144l-.7-2.1h-4.9l-.7,2.1h-3.3Zm1.1,5.4-1.6,4.6h3.2Z" transform="translate(-2 -4.5)" style="fill:#7c1c23"/><path d="M153.4,7.5c-.9,0-1.7.3-1.7,1.1s1.7,1.3,3,1.9,3.3,1.8,3.3,4.2-2.1,4.8-5.4,4.8a6.9,6.9,0,0,1-4.6-1.3l1-2.9a5.1,5.1,0,0,0,3.5,1.1c1.4,0,2-.4,2-1.2s-1.3-1.4-2.8-2.1-3.3-1.7-3.3-4.1,1.8-4.5,5.1-4.5a8.6,8.6,0,0,1,4.1,1l-.9,2.9A6.3,6.3,0,0,0,153.4,7.5Z" transform="translate(-2 -4.5)" style="fill:#7c1c23"/></svg>