<svg xmlns="http://www.w3.org/2000/svg" viewBox="0 0 288.82 22.15"><defs><style>.cls-1{fill:#231f20;}.cls-2{fill:#0078b2;}.cls-3{fill:#fff;}</style></defs><title>belleville-news-democrat</title><g id="Layer_2" data-name="Layer 2"><g id="bnd"><path class="cls-1" d="M32.73,19.67H28V2.49h4.75c3.1,0,5,1.52,5,4.22a3.81,3.81,0,0,1-2.55,3.75v.09a4.08,4.08,0,0,1,3.05,4.34C38.21,18,36.16,19.67,32.73,19.67ZM32.37,4.75H31.29v4.8h1.05c1.34,0,2.18-.81,2.18-2.46S33.73,4.75,32.37,4.75Zm0,6.9h-1V17.4h1c1.65,0,2.62-.88,2.62-2.84S34.06,11.65,32.32,11.65Z"/><path class="cls-1" d="M39.6,19.67V2.49h8.61V5.23H43V9.48h3.89v2.6H43v4.84H48.4v2.75Z"/><path class="cls-1" d="M49.88,19.67V2.49h3.43V16.85h5v2.82Z"/><path class="cls-1" d="M59.54,19.67V2.49H63V16.85h5v2.82Z"/><path class="cls-1" d="M69.2,19.67V2.49h8.61V5.23H72.57V9.48h3.88v2.6H72.57v4.84H78v2.75Z"/><path class="cls-1" d="M86.76,19.78h-4l-4-17.29h3.63l2.41,12.69h.11L87.31,2.49h3.46Z"/><path class="cls-1" d="M91.63,19.67v-1.2h1.81V3.68H91.63V2.49h7V3.68H96.8V18.47h1.84v1.2Z"/><path class="cls-1" d="M100.31,19.67V2.49h3.44V16.85h5v2.82Z"/><path class="cls-1" d="M110,19.67V2.49h3.44V16.85h5v2.82Z"/><path class="cls-1" d="M119.63,19.67V2.49h8.62V5.23H123V9.48h3.89v2.6H123v4.84h5.44v2.75Z"/><path class="cls-1" d="M141.8,19.67,137.43,8.88h-.07V19.67h-2.79V2.49h3.29L142,12.63h.1V2.49h2.79V19.67Z"/><path class="cls-1" d="M146.83,19.67V2.49h8.61V5.23h-5.25V9.48h3.89v2.6h-3.89v4.84h5.44v2.75Z"/><path class="cls-1" d="M171.59,19.78h-4.22L165.44,7h-.1l-1.93,12.81h-4.22l-2.8-17.29h3.42l1.64,13h.1l1.74-13h4.27l1.77,13h.09l1.65-13h3.32Z"/><path class="cls-1" d="M180.16,19.9a5.44,5.44,0,0,1-5.3-3.36l2.24-1.86c.93,1.79,1.94,2.53,3.18,2.53a1.75,1.75,0,0,0,1.79-1.93c0-1.22-.72-1.94-2.82-2.82-3-1.24-4.05-2.67-4.05-5.46a4.5,4.5,0,0,1,4.7-4.75,5.1,5.1,0,0,1,4.93,3l-2.24,1.89c-.91-1.6-1.67-2.2-2.77-2.2a1.6,1.6,0,0,0-1.6,1.72c0,1.15.51,1.84,2.73,2.75,3.24,1.31,4.22,2.84,4.22,5.53A4.66,4.66,0,0,1,180.16,19.9Z"/><path class="cls-1" d="M186.29,14.15V11.41h5.25v2.74Z"/><path class="cls-1" d="M197.69,19.67h-4.6V2.49h4.63c3.55,0,5.79,2.43,5.79,7.37v2.43C203.51,17.23,201.25,19.67,197.69,19.67Zm2.36-10.6c0-2.69-.86-4.05-2.57-4.05h-1V17.14h1c1.69,0,2.55-1.36,2.55-4Z"/><path class="cls-1" d="M205.16,19.67V2.49h8.61V5.23h-5.25V9.48h3.89v2.6h-3.89v4.84H214v2.75Z"/><path class="cls-1" d="M227.13,19.67V6.47H227l-2.53,13.2h-3.43l-2.56-13.2h-.11v13.2h-2.94V2.49h5l2.46,12.81h.1l2.43-12.81h4.92V19.67Z"/><path class="cls-1" d="M237.41,20c-3.27,0-5.44-2.5-5.44-7.49V9.72c0-5,2.17-7.52,5.44-7.52s5.42,2.5,5.42,7.49v2.75C242.83,17.42,240.66,20,237.41,20Zm2-11.09c0-2.46-.55-4.13-2-4.13s-2,1.65-2,4.13v4.43c0,2.49.55,4.13,2,4.13s2-1.64,2-4.13Z"/><path class="cls-1" d="M249.39,20c-3.1,0-5.23-2.5-5.23-7.49V9.72c0-5,2.13-7.52,5.28-7.52s4.55,2.17,5,5.58l-3.22.77c-.22-2.7-.67-3.75-1.74-3.75-1.34,0-1.82,1.77-1.82,4.49v3.55c0,2.87.6,4.51,1.84,4.51,1.07,0,1.57-1,1.86-3.82l3.15.69C254,18,252.51,20,249.39,20Z"/><path class="cls-1" d="M262.77,19.67l-2.5-6.61h-1v6.61h-3.37V2.49h4.49c3.37,0,5.44,1.67,5.44,5.1a4.29,4.29,0,0,1-2.62,4.34l3.07,7.74ZM260.17,5h-.93v5.67h1c1.52,0,2.29-1,2.29-2.86S261.72,5,260.17,5Z"/><path class="cls-1" d="M276,19.67l-.81-3.89H271l-.79,3.89h-3.38l4.08-17.26h4.58l4.08,17.26ZM273.12,5.35H273l-1.67,8h3.43Z"/><path class="cls-1" d="M285.22,5.25V19.67h-3.39V5.25h-3.6V2.49h10.59V5.25Z"/><path class="cls-2" d="M0,0V20.13c0,1.53.12,2,1.79,2h17.8c1.67,0,1.79-.49,1.79-2V0H0"/><path class="cls-3" d="M3.88,19.09l-1.53,0c-.07,0-.09-.07-.09-.22s0-.22.09-.22a.41.41,0,0,0,.39-.42v-14a.4.4,0,0,0-.39-.42c-.07,0-.09-.07-.09-.22s0-.22.11-.22l1.7,0c1.8,0,3.06,1.19,3.06,3.33V7.4c0,1.74-.73,2.76-1.55,3.13,1.28.51,1.66,2.27,1.66,3.4v1.26C7.24,17.68,6.27,19.09,3.88,19.09ZM5.71,6.79c0-1.42-.4-2.14-1.54-2.14V10c.88,0,1.54-.55,1.54-2.53Zm0,7.14c0-1.7-.55-2.69-1.58-2.69v6.57c.86,0,1.58-.66,1.58-2.91Z"/><path class="cls-3" d="M13.14,3.83a.39.39,0,0,0-.4.4V19.11l-.63,0-.63,0L9.36,8V18.25a.41.41,0,0,0,.4.42c.08,0,.08.11.08.22s0,.22-.08.22c-.4,0-.38,0-.9,0l-1,0c-.09,0-.09-.11-.09-.22s0-.22.09-.22a.42.42,0,0,0,.4-.42v-14a.42.42,0,0,0-.4-.42c-.09,0-.09-.07-.09-.22s0-.22.09-.22l1,0c.53,0,.59,0,1,0l1.77,9.88v-9a.4.4,0,0,0-.4-.4c-.06,0-.09,0-.09-.22s0-.24.09-.24c.4,0,.38,0,.9,0l1,0c.08,0,.08.13.08.24S13.22,3.83,13.14,3.83Z"/><path class="cls-3" d="M15.24,19.09l-1.51,0c-.09,0-.09-.11-.09-.22s0-.22.09-.22a.42.42,0,0,0,.4-.42v-14a.42.42,0,0,0-.4-.42c-.09,0-.09-.11-.09-.22s0-.22.09-.22l1.7,0c2.14,0,3.19,1.08,3.19,4.81v5.88C18.6,18.67,17.21,19.09,15.24,19.09ZM17.07,8c0-2.8-.63-3.37-1.5-3.37V17.81c.89,0,1.5-.59,1.5-3.31Z"/></g></g></svg>