<svg xmlns="http://www.w3.org/2000/svg" viewBox="0 0 512 512">
  <title>charlotte-observer</title>
  <g id="Layer_2" data-name="Layer 2">
    <g id="Art">
      <rect width="512" height="512" fill="#1f70a9"/>
      <path d="M405.3,232.8c0,104.5-67.6,191.2-152.6,191.2-90.4,0-146-73.6-146-156.7,0-95.8,66-148.5,108-164.1l4.6,2.9c-34.2,27.5-54.4,74.4-54.4,149.7,0,32.9,10,60.1,26.8,80.6l9-4.5c11-5.5,12.8-14.5,12.8-25.5V154.6l-15.6,9.1-3-5.8L313.3,88c40.5,12.3,92,57.6,92,144.8m-44.9,8.6c-5.5-46.5-33.3-79.3-61.1-98.7v98.2a117.3,117.3,0,0,0,31.3,4.2c9.7,0,21.8-1.3,29.8-3.7m.8,16.9c0-4.3-.1-8.3-.4-12.4-7.8,2.2-19.7,3.7-30.2,3.7a131.2,131.2,0,0,1-31.3-4.1V273c7.3-2.2,20.4-4,31.3-4s22.6,1.2,30.2,3.6c.1-4.6.4-9.4.4-14.3m-.4,18.9a115,115,0,0,0-30.2-4.2,125.2,125.2,0,0,0-31.3,4.6V377.9c40.3-8,58.4-44,61.5-100.7m-66,101.5V139.4a135.8,135.8,0,0,0-28.1-14l-.8,1.2V271.4c0,29-4.3,30.8-26.8,45.3L197.9,343c22.4,23.5,48.9,36.6,83.3,36.6a98.1,98.1,0,0,0,13.6-.9" fill="#fff"/>
    </g>
  </g>
</svg>
