<?xml version="1.0" encoding="utf-8"?>
<!-- Generator: Adobe Illustrator 23.0.6, SVG Export Plug-In . SVG Version: 6.00 Build 0)  -->
<svg version="1.1" id="Art" xmlns="http://www.w3.org/2000/svg" xmlns:xlink="http://www.w3.org/1999/xlink" x="0px" y="0px"
	 viewBox="0 0 512 512" style="enable-background:new 0 0 512 512;" xml:space="preserve">
<style type="text/css">
	.st0{fill:#98002E;}
	.st1{fill:#FFFFFF;}
	.st2{fill:#0021A5;}
	.st3{fill:none;stroke:#FFFFFF;stroke-width:5.3333;stroke-miterlimit:10;}
	.st4{fill:#F04C24;stroke:#FFFFFF;stroke-width:5.3333;stroke-miterlimit:10;}
	.st5{fill:#FA4616;}
	.st6{fill:#782F40;}
	.st7{fill:none;stroke:#FFFFFF;stroke-width:5.3378;stroke-miterlimit:10;}
	.st8{fill:#F04C24;stroke:#FFFFFF;stroke-width:5.3378;stroke-miterlimit:10;}
	.st9{fill:#CEB888;}
	.st10{fill:#0077C8;}
	.st11{fill:none;stroke:#000000;stroke-width:10.6667;stroke-miterlimit:10;}
	.st12{fill-rule:evenodd;clip-rule:evenodd;}
	.st13{fill-rule:evenodd;clip-rule:evenodd;stroke:#000000;stroke-width:2.6667;stroke-miterlimit:10;}
	.st14{fill:#005030;}
	.st15{fill:#F47321;}
	.st16{fill:#FCEE21;}
	.st17{fill:#E8E7E7;}
	.st18{fill:#A21D3E;}
	.st19{fill:#D98227;}
	.st20{fill:#72BE44;}
	.st21{fill:#231F20;}
	.st22{fill:#CAC8C8;}
	.st23{fill:#0033A0;}
	.st24{fill:#3A578C;}
	.st25{fill:#69BE28;}
	.st26{fill:#80A27B;}
	.st27{fill:#F7C421;}
	.st28{fill:#0039A6;}
	.st29{fill:#F9461C;}
	.st30{fill:#F2F2F2;}
	.st31{fill:#0085CA;}
	.st32{fill:#008CA8;}
	.st33{fill:#FFFFFF;stroke:#FFFFFF;stroke-width:5.3378;stroke-miterlimit:10;}
	.st34{fill:#1D1160;}
	.st35{fill:#FF0000;}
	.st36{fill:#DA291C;}
	.st37{fill:#1E4971;}
	.st38{fill:#5DA423;}
	.st39{fill:#C41230;}
	.st40{fill:#004B8D;}
	.st41{fill:#E4E416;}
	.st42{fill:none;stroke:#FFFF00;stroke-width:10.6667;stroke-miterlimit:10;}
	.st43{fill:url(#SVGID_1_);}
	.st44{fill-rule:evenodd;clip-rule:evenodd;fill:#FCD6C2;}
	.st45{fill-rule:evenodd;clip-rule:evenodd;fill:#FFFFFF;}
	.st46{clip-path:url(#SVGID_3_);}
	.st47{fill-rule:evenodd;clip-rule:evenodd;fill:#231F20;}
	.st48{fill-rule:evenodd;clip-rule:evenodd;fill:none;}
	.st49{fill-rule:evenodd;clip-rule:evenodd;fill:url(#SVGID_4_);}
	.st50{fill:url(#SVGID_5_);}
	.st51{filter:url(#Adobe_OpacityMaskFilter);}
	.st52{fill-rule:evenodd;clip-rule:evenodd;fill:url(#SVGID_7_);}
	.st53{mask:url(#SVGID_6_);}
	.st54{fill-rule:evenodd;clip-rule:evenodd;fill:#FBE5D5;}
	.st55{fill:url(#SVGID_8_);}
	.st56{fill:url(#SVGID_9_);}
	.st57{fill:url(#SVGID_10_);}
	.st58{fill:url(#SVGID_11_);}
	.st59{opacity:0.55;fill:url(#SVGID_12_);}
	.st60{opacity:0.55;fill:url(#SVGID_13_);}
	.st61{opacity:0.55;fill:url(#SVGID_14_);}
	.st62{opacity:0.55;fill:url(#SVGID_15_);}
	.st63{clip-path:url(#SVGID_17_);fill:url(#SVGID_18_);}
	.st64{opacity:0.46;fill:#FFFFFF;}
	.st65{opacity:0.61;fill:url(#SVGID_19_);}
	.st66{filter:url(#Adobe_OpacityMaskFilter_1_);}
	.st67{opacity:0.49;mask:url(#SVGID_20_);}
	.st68{fill:url(#SVGID_21_);}
	.st69{fill:#007980;}
	.st70{fill:#219DA7;}
	.st71{fill:#F04C24;}
	.st72{fill:#7AB2DD;}
	.st73{fill:#004687;}
	.st74{fill:#002A5C;}
	.st75{fill:#93B1D7;}
	.st76{fill:#CA2430;}
	.st77{fill:#9E1721;}
	.st78{fill:#0050BA;}
	.st79{fill:#E8000D;}
	.st80{clip-path:url(#SVGID_23_);fill:#E4A710;}
	.st81{clip-path:url(#SVGID_25_);}
	.st82{fill:#FFDD15;}
	.st83{filter:url(#Adobe_OpacityMaskFilter_2_);}
	.st84{opacity:0.3;mask:url(#SVGID_26_);}
	.st85{fill:#FAAF40;}
	.st86{opacity:0.2;clip-path:url(#SVGID_25_);}
	.st87{opacity:0.5;clip-path:url(#SVGID_25_);fill:#FAAF40;}
	.st88{clip-path:url(#SVGID_25_);fill:#FFCA05;}
</style>
<g>
	<rect y="0" class="st32" width="512" height="512"/>
	<g>
		<line class="st33" x1="0" y1="82" x2="512" y2="82"/>
		<line class="st33" x1="0" y1="100" x2="512" y2="100"/>
		<line class="st33" x1="0" y1="117.9" x2="512" y2="117.9"/>
	</g>
	<circle class="st32" cx="257.4" cy="245.3" r="232"/>
	<g>
		<path class="st34" d="M54.5,374.2h18.9v24.1h17v-24.1h18.9v63.9H90.5v-25.6h-17v25.6H54.5V374.2z"/>
		<path class="st34" d="M149.1,439.6c-17.2,0-31.7-11.3-31.7-33c-0.1-21.3,14.4-33.7,31.7-33.7c17.2,0,31.7,12.4,31.7,33.7
			C180.8,428,166.3,439.6,149.1,439.6z M149.1,424c7.3,0,12.5-5.6,12.4-17.7c0-12.1-5-18-12.4-18c-7.3,0-12.4,5.9-12.4,18
			C136.7,418.5,141.7,424,149.1,424z"/>
		<path class="st34" d="M188.8,374.2h28.4c11.6,0,21.4,6.7,21.4,20.6c0,8.5-4.8,14.4-10.8,17.7l13.6,25.6h-20l-11.9-22.4h-1.9v22.4
			h-18.9V374.2z M207.8,388.3v14.8h6.1c4.3,0,6.8-2.8,6.8-7.7c0-4.9-2.7-7.2-6.7-7.2H207.8z"/>
		<path class="st34" d="M247.8,438.1v-63.9h19l18.9,32.6v-32.6h15.7v63.9h-16.9l-21-36.5v36.5H247.8z"/>
		<path class="st34" d="M312.1,374.2h40.9v14.2H331v9.9h19.8v14.2H331v11.4h22.3v14.2h-41.2V374.2z"/>
		<path class="st34" d="M374.4,388.4h-15.2v-14.2h49.3v14.2h-15.2v49.7h-18.9V388.4z"/>
		<path class="st34" d="M436.1,388.3c-4.2,0-6.6,1.1-6.6,3.8c0,4.3,10.8,4.5,20.2,10.3c5,3.2,7.8,7.7,7.8,15.3
			c0,13.5-8.9,21.5-25.4,21.5c-10.4,0-16.9-2-21.8-4.9l4.9-14.7c4.4,2.3,9.4,4.3,16.3,4.3c6.2,0,8.1-1.6,8.1-4.4
			c0-4.9-12.2-4.9-19.6-9.6c-3.8-2.4-7.8-7-7.8-16c0-13.1,8.9-20.6,24.1-20.6c8.8,0,15.4,2.3,19.4,4.3l-4.4,14.4
			C448.4,390.4,441.6,388.3,436.1,388.3z"/>
	</g>
	<g>
		<path class="st34" d="M92.9,251.3c11.4-3.4,22.9-2.3,34.3,3.3c5.4-11.5,11.7-23.1,19.1-34.5c-6.7-10.6-12.1-20.8-16.5-30.3
			c-16.7-36.6-20.7-68.3-20.6-90.1C63.3,147,41.3,215.3,55.2,283.7C63.9,270.4,76.5,256.3,92.9,251.3z"/>
		<path class="st34" d="M239.6,91.9c-5.1,11.2-4.1,23.7,3,38.1c41.4-23.2,90.8-37.8,147.8-43.5c-21.3-18.1-46.1-31.8-72.9-40.1
			C294.2,51.6,251.3,66,239.6,91.9z"/>
		<path class="st34" d="M158.8,202.3c3.9-5.1,8-10.2,12.5-15.2c15.9-17.9,34-33.5,54.2-46.8c-10.4-20.5-11.8-39.5-3.9-56.7
			c10.1-22.1,33.8-36.4,55.8-45.4c-24.5-2.5-49.8-0.6-74.9,6.3c-27,7.4-51.2,19.9-72,36.1c-2.1,15.3-4.1,54.4,18.2,102.3
			C151.4,189.1,154.8,195.6,158.8,202.3z"/>
		<path class="st34" d="M461,217.6c-1.2-9.7-3.1-19.4-5.8-29.1c-8.9-32.3-24.9-60.6-46-83.7c-61.1,4.1-113.3,18.2-156.2,42.1
			C302.3,211.1,422.7,218.4,461,217.6z"/>
		<path class="st34" d="M194.7,352h98.7c-65.9-37.9-108-77.9-134.8-114.1c-5.5,9.3-10.4,18.6-14.6,27.9
			C170.3,287.5,185.6,317.7,194.7,352z"/>
		<path class="st34" d="M335.3,352h96c21.1-33.7,32.3-73.5,31.2-114.5c-4.4,0.1-36.2-0.8-48.7-2.1c-57.8-6-138.7-25.7-177.8-78.2
			c-18.7,12.3-35.3,26.7-49.9,43.1c-5.8,6.5-11,13.2-15.8,19.9C199,261.2,248.9,308.5,335.3,352z"/>
		<path class="st34" d="M86.5,352h13c2.9-22.3,8.6-50.1,20-79.2c-7.3-3.7-14.1-4.6-20.7-2.5c-16.5,5.1-29.7,26.8-36.1,40.7
			c5.2,14.9,11.9,28.8,20,41.6C83.8,352.2,85.1,352,86.5,352z"/>
		<path class="st34" d="M174.1,352c-7.7-26.4-19.5-49.5-38-66.8c-9,24.4-13.8,47.6-16.5,66.8H174.1z"/>
	</g>
</g>
</svg>
