<?xml version="1.0" encoding="utf-8"?>
<!-- Generator: Adobe Illustrator 23.0.6, SVG Export Plug-In . SVG Version: 6.00 Build 0)  -->
<svg version="1.1" id="Art" xmlns="http://www.w3.org/2000/svg" xmlns:xlink="http://www.w3.org/1999/xlink" x="0px" y="0px"
	 viewBox="0 0 512 512" style="enable-background:new 0 0 512 512;" xml:space="preserve">
<style type="text/css">
	.st0{fill:#98002E;}
	.st1{fill:#FFFFFF;}
	.st2{fill:#0021A5;}
	.st3{fill:none;stroke:#FFFFFF;stroke-width:5.3333;stroke-miterlimit:10;}
	.st4{fill:#F04C24;stroke:#FFFFFF;stroke-width:5.3333;stroke-miterlimit:10;}
	.st5{fill:#FA4616;}
	.st6{fill:#782F40;}
	.st7{fill:none;stroke:#FFFFFF;stroke-width:5.3378;stroke-miterlimit:10;}
	.st8{fill:#F04C24;stroke:#FFFFFF;stroke-width:5.3378;stroke-miterlimit:10;}
	.st9{fill:#CEB888;}
	.st10{fill:#0077C8;}
	.st11{fill:none;stroke:#000000;stroke-width:10.6667;stroke-miterlimit:10;}
	.st12{fill-rule:evenodd;clip-rule:evenodd;}
	.st13{fill-rule:evenodd;clip-rule:evenodd;stroke:#000000;stroke-width:2.6667;stroke-miterlimit:10;}
	.st14{fill:#005030;}
	.st15{fill:#F47321;}
	.st16{fill:#FCEE21;}
	.st17{fill:#E8E7E7;}
	.st18{fill:#A21D3E;}
	.st19{fill:#D98227;}
	.st20{fill:#72BE44;}
	.st21{fill:#231F20;}
	.st22{fill:#CAC8C8;}
	.st23{fill:#0033A0;}
	.st24{fill:#3A578C;}
	.st25{fill:#69BE28;}
	.st26{fill:#80A27B;}
	.st27{fill:#F7C421;}
	.st28{fill:#0039A6;}
	.st29{fill:#F9461C;}
	.st30{fill:#F2F2F2;}
	.st31{fill:#0085CA;}
	.st32{font-family:'McClatchySans-Bold';}
	.st33{font-size:82.6665px;}
	.st34{fill:#008CA8;}
	.st35{fill:#FFFFFF;stroke:#FFFFFF;stroke-width:5.3378;stroke-miterlimit:10;}
	.st36{fill:#1D1160;}
	.st37{fill:#FF0000;}
	.st38{fill:#DA291C;}
	.st39{fill:#1E4971;}
	.st40{fill:#5DA423;}
	.st41{fill:#C41230;}
	.st42{fill:#004B8D;}
	.st43{fill:#E4E416;}
	.st44{fill:none;stroke:#FFFF00;stroke-width:10.6667;stroke-miterlimit:10;}
	.st45{fill:url(#SVGID_1_);}
	.st46{fill-rule:evenodd;clip-rule:evenodd;fill:#FCD6C2;}
	.st47{fill-rule:evenodd;clip-rule:evenodd;fill:#FFFFFF;}
	.st48{clip-path:url(#SVGID_3_);}
	.st49{fill-rule:evenodd;clip-rule:evenodd;fill:#231F20;}
	.st50{fill-rule:evenodd;clip-rule:evenodd;fill:none;}
	.st51{fill-rule:evenodd;clip-rule:evenodd;fill:url(#SVGID_4_);}
	.st52{fill:url(#SVGID_5_);}
	.st53{filter:url(#Adobe_OpacityMaskFilter);}
	.st54{fill-rule:evenodd;clip-rule:evenodd;fill:url(#SVGID_7_);}
	.st55{mask:url(#SVGID_6_);}
	.st56{fill-rule:evenodd;clip-rule:evenodd;fill:#FBE5D5;}
	.st57{fill:url(#SVGID_8_);}
	.st58{fill:url(#SVGID_9_);}
	.st59{fill:url(#SVGID_10_);}
	.st60{fill:url(#SVGID_11_);}
	.st61{opacity:0.55;fill:url(#SVGID_12_);}
	.st62{opacity:0.55;fill:url(#SVGID_13_);}
	.st63{opacity:0.55;fill:url(#SVGID_14_);}
	.st64{opacity:0.55;fill:url(#SVGID_15_);}
	.st65{clip-path:url(#SVGID_17_);fill:url(#SVGID_18_);}
	.st66{opacity:0.46;fill:#FFFFFF;}
	.st67{opacity:0.61;fill:url(#SVGID_19_);}
	.st68{filter:url(#Adobe_OpacityMaskFilter_1_);}
	.st69{opacity:0.49;mask:url(#SVGID_20_);}
	.st70{fill:url(#SVGID_21_);}
	.st71{fill:#007980;}
	.st72{fill:#219DA7;}
	.st73{fill:#F04C24;}
	.st74{fill:#7AB2DD;}
	.st75{fill:#004687;}
	.st76{fill:#002A5C;}
	.st77{fill:#93B1D7;}
	.st78{fill:#CA2430;}
	.st79{fill:#9E1721;}
	.st80{fill:#0050BA;}
	.st81{fill:#E8000D;}
	.st82{clip-path:url(#SVGID_23_);fill:#E4A710;}
	.st83{clip-path:url(#SVGID_25_);}
	.st84{fill:#FFDD15;}
	.st85{filter:url(#Adobe_OpacityMaskFilter_2_);}
	.st86{opacity:0.3;mask:url(#SVGID_26_);}
	.st87{fill:#FAAF40;}
	.st88{opacity:0.2;clip-path:url(#SVGID_25_);}
	.st89{opacity:0.5;clip-path:url(#SVGID_25_);fill:#FAAF40;}
	.st90{clip-path:url(#SVGID_25_);fill:#FFCA05;}
</style>
<g>
	<rect x="0" y="0" class="st31" width="512" height="512"/>
	<line class="st7" x1="0" y1="108.7" x2="512" y2="108.7"/>
	<line class="st8" x1="0" y1="126.6" x2="512" y2="126.6"/>
	<line class="st3" x1="0" y1="144" x2="512" y2="144"/>
	<path class="st31" d="M414.4,122.4c-6.2-39.1-22.4-77-48.8-113.2c-16.8-7.3-34.3-2.1-34.3-2.1S188.5,26.9,115,171
		c0,0-79.2,159,17.9,317.1c0,0,12.4,22.1,44.4,24c2.8-2,28-7.8,24.4-5.1c2.4-0.5,4.8-1,7.4-1.7C378.2,459,420.8,292.4,420.8,292.4
		C438.5,224.5,429.4,166,414.4,122.4z M231.7,483.2v-0.8c1.6-0.8,2.5-1.3,2.5-1.3C233.4,481.8,232.6,482.5,231.7,483.2z
		 M304.6,414.5v-1c2-1.6,3.2-2.5,3.2-2.5C306.8,412.2,305.7,413.3,304.6,414.5z"/>
	<g>
		<path class="st21" d="M401.8,197.5c-11.2,70.4-55.1,133.8-96.7,180H349c43.6-52.5,57.4-106.3,57.4-106.3
			c17.8-68.4,5.9-126.4-10.2-167C405,134.4,406.9,165.6,401.8,197.5z"/>
		<path class="st21" d="M287,377.5c46.6-49.1,92.9-114,104.3-185.4c9-56.6-5.2-110.8-41.9-161.4c-14.5-6.3-29.6-1.8-29.6-1.8
			S196.4,46,133,170.3c0,0-47.8,96-14.4,207.2H287z M122.2,269.5c3.6-0.6,7.2-0.7,10.8-0.5c0.8-4.2,1.7-8.5,2.7-12.7
			c-1.9,0.1-3.8,0.2-5.8,0.5c-2.2,0.3-4.4-0.9-4.9-3c-0.1-0.6-0.3-1.1-0.4-1.7c-0.6-2.1,1.2-4.4,3.8-4.8c3.2-0.5,6.5-0.6,9.8-0.6
			c1.5-5.4,3.1-10.7,4.9-16c-2.7-0.1-5.5,0-8.2,0.5c-2.2,0.3-4.4-0.9-4.9-3c-0.1-0.6-0.3-1.1-0.4-1.7c-0.6-2.1,1.2-4.4,3.8-4.8
			c4.3-0.7,8.7-0.7,13-0.4c1.6-4.4,3.3-8.8,5.1-13.1c-2.1,0-4.2,0.2-6.3,0.5c-2.2,0.3-4.4-0.9-4.9-3c-0.1-0.6-0.3-1.1-0.4-1.7
			c-0.6-2.1,1.2-4.4,3.8-4.8c3.9-0.6,7.8-0.7,11.8-0.5c2-4.5,4-8.9,6-13.3c-2.8-0.1-5.6,0-8.4,0.5c-2.2,0.3-4.4-0.9-4.9-3
			c-0.1-0.6-0.3-1.1-0.4-1.7c-0.6-2.1,1.2-4.4,3.8-4.8c4.8-0.8,9.6-0.8,14.4-0.3c2.2-4.4,4.4-8.7,6.6-12.9c-2.1,0-4.2,0.2-6.3,0.5
			c-2.2,0.3-4.4-0.9-4.9-3c-0.1-0.6-0.3-1.1-0.4-1.7c-0.6-2.1,1.2-4.4,3.8-4.8c4.3-0.7,8.6-0.7,12.9-0.4c2.5-4.5,4.9-8.8,7.2-12.8
			c-1.9,0.1-3.8,0.2-5.7,0.5c-2.2,0.3-4.4-0.9-4.9-3c-0.1-0.6-0.3-1.1-0.4-1.7c-0.6-2.1,1.2-4.4,3.8-4.8c4.3-0.7,8.5-0.7,12.8-0.4
			c8.1-13.3,14-21.7,14.8-22.9l8,5.7c-0.2,0.3-5.1,7.3-12.3,19c2.1,0.6,4.3,1.3,6.3,2.1c2.5,1,3.7,3.6,2.6,5.6
			c-0.3,0.5-0.5,1-0.8,1.6c-1,1.9-3.5,2.6-5.5,1.8c-2.6-1-5.2-1.8-7.9-2.3c-2.4,4.1-5.1,8.7-7.7,13.5c2.1,0.6,4.3,1.3,6.3,2.1
			c2.5,1,3.7,3.6,2.6,5.6c-0.3,0.5-0.5,1-0.8,1.6c-1,1.9-3.5,2.6-5.5,1.8c-2.4-1-4.9-1.7-7.5-2.3c-2.4,4.4-4.7,9-7.1,13.8
			c1.7,0.5,3.4,1,5.1,1.7c2.5,1,3.7,3.6,2.6,5.6c-0.3,0.5-0.5,1-0.8,1.6c-1,1.9-3.5,2.6-5.5,1.8c-1.9-0.8-3.8-1.4-5.7-1.9
			c-2.1,4.3-4.1,8.8-6.1,13.3c2.6,0.6,5.1,1.4,7.6,2.5c2.5,1,3.7,3.6,2.6,5.6c-0.3,0.5-0.5,1-0.8,1.6c-1,1.9-3.5,2.6-5.5,1.8
			c-2.5-1-5.2-1.8-7.8-2.3c-1.9,4.5-3.7,9.1-5.4,13.7c2.2,0.6,4.4,1.3,6.6,2.2c2.5,1,3.7,3.6,2.6,5.6c-0.3,0.5-0.5,1-0.8,1.6
			c-1,1.9-3.5,2.6-5.5,1.8c-2-0.8-4.1-1.5-6.2-2c-1.8,5.2-3.5,10.5-5,15.8c3.4,0.7,6.7,1.6,9.9,2.9c2.5,1,3.7,3.6,2.6,5.6
			c-0.3,0.5-0.5,1-0.8,1.6c-1,1.9-3.5,2.6-5.5,1.8c-2.8-1.2-5.8-1.9-8.7-2.5c-1.1,4.4-2,8.7-2.9,13.1c3.1,0.7,6.1,1.5,9,2.7
			c2.5,1,3.7,3.6,2.6,5.6c-0.3,0.5-0.5,1-0.8,1.6c-1,1.9-3.5,2.6-5.5,1.8c-2.3-0.9-4.6-1.6-7-2.2c-1.4,9.2-2.1,18.3-2,27.2l-9.8,0.1
			c-0.1-9.4,0.6-18.9,2-28.5c-2.6,0-5.2,0.1-7.7,0.5c-2.2,0.3-4.4-0.9-4.9-3c-0.1-0.6-0.3-1.1-0.4-1.7
			C117.8,272.2,119.5,270,122.2,269.5z"/>
	</g>
	<text transform="matrix(1 0 0 1 34.5828 457.1876)" class="st1 st32 st33">PANTHERS</text>
</g>
</svg>
