<svg xmlns="http://www.w3.org/2000/svg" viewBox="0 0 512 512">
  <title>the-wichita-eagle</title>
  <g id="Layer_2" data-name="Layer 2">
    <g id="Art">
      <rect width="512" height="512" fill="#045faa"/>
      <path d="M238.1,224.1l.8.6c.1.1.4.3,0,.5l-.8.6c-.2.2-.3.3-.6,0l-1-.6c-.2-.1-.2-.3.1-.4l.9-.7A.4.4,0,0,1,238.1,224.1Z" fill="#231f20" fill-rule="evenodd"/>
      <g>
        <path d="M474.7,256c0,118.1-97.9,213.7-218.7,213.7S37.3,374.1,37.3,256,135.2,42.3,256,42.3,474.7,138,474.7,256Z" fill="#fff"/>
        <g>
          <path d="M395.2,256.1c-5.1-4.5,8-6.6-44.5-6.6-29.2,0-42.7.5-42.7.5s33.9,2.2,52.1,3c10.5.6,38.2,5.8,35.1,3.1Z" fill="#007dc4"/>
          <path d="M260.2,203.6a8.3,8.3,0,1,1,8.3-8.5l25.7-.2s-8.1-15.1-16.9-16c-12.4-1.2-92,2.2-92,2.2s25.7,4.4,35,12.6A41.2,41.2,0,0,1,232,210.4c24.6,0,38.5-.2,54-1.6,0,0-11.5-6.3-18-10.7A8.2,8.2,0,0,1,260.2,203.6Z" fill="#007dc4"/>
          <path d="M165.9,444.6c.4-1.6.8-3.5,1.4-5.5,0-10.6,3.5-15.6,12.9-28.9l2.3-3.3,5.3-7.7c8.2-11.8,14.1-20.4,23.9-30.2A171.7,171.7,0,0,1,232,351.5c6.7-5.3,13.2-10,17.4-13.2l2.8-2,12.2-9.4,24.4-18.5h0a296.1,296.1,0,0,1,24.8-18.6l10.3-7.8a14.3,14.3,0,0,1,3.1-1.7l1-.9c2.9-2.5,5.2-3.6,7.6-3.6a13.5,13.5,0,0,1,2.9.4,9.3,9.3,0,0,0,2.4.4h2.5c3-.2,7.4-.8,13-1.6l11-1.4c10.2-1.3,22.3-3.4,30.3-8.5l-39.5-.6c-3.1,0-68.4,3.2-69,3.2l-10.9,1.5-76.4,9.8,58.2,8.1-4.5,2.5c-1,.6-23.6,12.9-34.7,15.1l-59.6,11.2c17.3,2.2,42.3,5.3,44.8,5.3h4.7l-3.6,3.1c-.6.6-15.7,13.6-18.9,16s-32.3,9.5-47.7,13.4l37.5,7.1-12,21.6-44.6,11.4,34.9,10.5-13.2,28.3A214.5,214.5,0,0,0,165.9,444.6Z" fill="#007dc4"/>
          <path d="M255.5,47.6c-75,0-144.9,39-183.1,102.1l44.3-1.3c37.3-1.2,69.5-2.2,108-2.2,49.7,0,80.5,15.1,100.9,25.1,10.1,4.9,18.1,8.8,24.7,9.3,11,.8,38.3,4.2,56.4,19.8s24.9,24.5,25.7,43.8c.5,9.9-5.2,38.2-12.5,46.4s-9.8,8.4-10.7,8.4h-1.3l-.4-1.3c-2.7-9.8-8.6-23.6-13-23.6h-.7a43.1,43.1,0,0,1-14.3,2.1,93,93,0,0,0-11.7.7l-10.9,1.3c-7.6,1.1-13.2,1.8-16,1.8s-8.3,1.5-12.1,3.1-6.3,4.7-10.9,7.9l-2.3,1.5-5.4,4.1-19.3,14.5h0c-12.6,10.7-34.6,26.8-46.4,35.4l-6.2,4.6-3.2,2.4-1,.7a226.7,226.7,0,0,0-19.9,17.1c-9.7,9.7-15.5,18.1-23.5,29.8l-5.4,7.7c-9.8,14.1-11.4,19.4-13.9,28.2l-.7,2.5a18,18,0,0,1-1,6.6,214,214,0,0,0,85.8,17.7c117.3,0,212.8-93.4,212.8-208.2S372.8,47.6,255.5,47.6Z" fill="#007dc4"/>
        </g>
      </g>
    </g>
  </g>
</svg>
