<?xml version="1.0" encoding="utf-8"?>
<!-- Generator: Adobe Illustrator 23.0.6, SVG Export Plug-In . SVG Version: 6.00 Build 0)  -->
<svg version="1.1" id="Art" xmlns="http://www.w3.org/2000/svg" xmlns:xlink="http://www.w3.org/1999/xlink" x="0px" y="0px"
	 viewBox="0 0 512 512" style="enable-background:new 0 0 512 512;" xml:space="preserve">
<style type="text/css">
	.st0{fill:#FF0000;}
	.st1{fill:#FFFFFF;}
</style>
<g>
	<rect class="st0" width="512" height="512"/>
	<g>
		<g>
			<path d="M83.8,162.2V85.1h137.7v77.2h-11.7L247.9,276L286,162.2h-11.2V85.1h141.1v77.2h-30.3l-62.5,188h17.6V427H158.6v-76.7
				h15.1l-62.5-188L83.8,162.2L83.8,162.2z M113.6,153.9L183,358.1h-16.1v60.6h165.5v-60.6h-19L383.2,154h24.9V93.4h-125V154h12.7
				l-47.9,137.7L200.5,154h12.7V93.4H92.1V154h21.5V153.9z M102.9,143.2v-39.1H203v39.1h-19l64,192.9l64.5-192.9h-18.6v-39.1h103.5
				v39.1h-24.9l-75.2,225.6h24.4v39.1H177.1v-39.1h22l-75.2-225.6L102.9,143.2L102.9,143.2z"/>
		</g>
		<g>
			<path class="st1" d="M82.8,301c-5.6-21.9-11.3-43.8-16.9-65.8c5.4-1.4,10.7-2.7,16.1-4c2.4,10.1,4.7,20.2,7.1,30.4
				c5.3-11.9,10.9-23.8,16.9-35.6c5.5-1.1,11-2.1,16.4-3.1c-6.5,12.1-12.7,24.3-18.5,36.6c11.2,9.7,22.1,19.7,32.5,29.9
				c-5.6,1-11.1,2-16.6,3.1c-9.6-9-19.4-17.8-29.6-26.4c2.4,10.4,4.9,20.8,7.3,31.2C92.6,298.5,87.7,299.7,82.8,301z"/>
			<path class="st1" d="M154.6,217.5c4-0.5,8-1,12-1.5c11.8,21.5,22.8,43.3,33.1,65.4c-5,0.4-10,0.9-15.1,1.4
				c-1.9-3.9-3.7-7.9-5.6-11.8c-8.3,0.9-16.5,2-24.7,3.2c-0.9,4.3-1.7,8.6-2.5,12.8c-4.3,0.7-8.6,1.4-13,2.1
				C143.2,265.2,148.5,241.3,154.6,217.5z M162,237.7c-2,8.5-3.9,17.1-5.7,25.6c5.9-0.8,11.8-1.6,17.7-2.3
				C170.1,253.3,166.1,245.5,162,237.7z"/>
			<path class="st1" d="M208.1,280.7c-1.6-22.6-3.2-45.2-4.8-67.7c5.4-0.4,10.9-0.7,16.3-1c10.5,14.2,20.4,28.7,29.8,43.3
				c-0.2-14.7-0.3-29.4-0.5-44.1c4.7-0.1,9.3-0.1,14,0c-0.2,22.6-0.3,45.3-0.5,67.9c-4.5,0-9,0-13.5,0
				c-9.6-15.5-19.8-30.8-30.6-45.8c0.8,15.6,1.6,31.1,2.4,46.7C216.6,280.1,212.3,280.4,208.1,280.7z"/>
			<path class="st1" d="M299.7,223.1c-5.7-0.3-10.2,1.5-10.4,6.2c-0.2,4.9,7.3,7.1,15,10.8c8.6,4.2,16.1,9.7,15.1,21
				c-1.2,13.7-11.4,20.7-26.3,19.9c-10.4-0.5-16.3-3-21.3-6.5c1.4-3.9,2.9-7.7,4.4-11.6c4.7,3.1,9.4,5.5,17.1,5.9
				c7.4,0.4,11.4-2,11.7-6.9c0.4-6.2-5.5-8-13.8-11.8c-7.9-3.6-16.6-8.9-16.3-20c0.2-12.1,9.7-19.8,25.9-18.9
				c9.5,0.5,15.9,3.1,20.3,5.9c-1.6,3.7-3.3,7.4-4.9,11.1C312.9,225.8,306.6,223.5,299.7,223.1z"/>
			<path class="st1" d="M356.4,217c4,0.5,8,1.1,12,1.6c5.8,23.9,10.8,47.8,15,71.7c-5-0.9-10-1.8-14.9-2.6
				c-0.8-4.3-1.6-8.6-2.4-12.9c-8.2-1.3-16.5-2.4-24.7-3.4c-1.9,3.9-3.8,7.8-5.7,11.7c-4.3-0.5-8.7-0.9-13-1.3
				C333.1,260,344.4,238.4,356.4,217z M358.4,238.4c-4.1,7.7-8.2,15.5-12.1,23.3c5.9,0.7,11.8,1.5,17.6,2.4
				C362.2,255.6,360.3,247,358.4,238.4z"/>
			<path class="st1" d="M423.8,240.4c-5.6-1.3-10.3-0.2-11.3,4.4c-1,4.8,6.1,8.2,13.1,13.1c7.8,5.5,14.4,12.3,11.5,23.3
				c-3.5,13.3-14.7,18.5-29.4,15.3c-10.2-2.2-15.7-5.7-20-9.9c2.1-3.6,4.1-7.2,6.2-10.7c4.1,3.9,8.4,7,15.9,8.7
				c7.3,1.6,11.6,0,12.8-4.9c1.4-6.1-4.2-8.8-11.7-14c-7.3-4.9-14.9-11.5-12.9-22.4c2.2-11.9,12.8-18,28.8-14.4
				c9.4,2.1,15.3,5.7,19.2,9.2c-2.2,3.4-4.5,6.7-6.7,10.1C436.4,245.2,430.5,241.9,423.8,240.4z"/>
		</g>
	</g>
</g>
</svg>
