<svg xmlns="http://www.w3.org/2000/svg" xmlns:xlink="http://www.w3.org/1999/xlink" viewBox="0 0 635.1 71.2"><defs><clipPath id="a" transform="translate(-0.9 -0.6)"><rect width="636" height="72.09" style="fill:none"/></clipPath></defs><title>chowchilla</title><g style="clip-path:url(#a)"><polyline points="73.3 39.1 60 39.1 60 40.6 71.7 40.6 71.7 69.2 87.4 69.2 87.4 67.7 73.3 67.7 73.3 39.1" style="fill:#231f20"/><rect x="71.7" y="1.2" width="1.6" height="26.69" style="fill:#231f20"/><polyline points="45.1 1.2 43.6 1.2 43.6 69.2 59.2 69.2 59.2 67.7 45.1 67.7 45.1 1.2" style="fill:#231f20"/><path d="M616.4,69.1c-6.3,0-11.1-1-15.9-3.5l-.6-.4,4-11.7-1.1-.6-4.6,13.5,1.2.7a33.4,33.4,0,0,0,16.2,3.6c12.4,0,20.4-8,20.4-20.3v-.3c-.2,11.6-7.8,19-19.6,19" transform="translate(-0.9 -0.6)" style="fill:#231f20"/><path d="M614.6,43l3.2,2.6c2.2,2,3.1,3.8,3.1,6s-2,5.4-5.9,5.5h.4c5.8,0,7.1-3.4,7.1-6.3s-1-4.4-3.4-6.6l-3.2-2.6a71.7,71.7,0,0,1-8-7.1c-3.4-3.5-6.6-7.6-6.6-15.4C601.3,8.3,608.8,1,619.9.9h-.6c-11.7,0-19.6,7.6-19.6,19,0,8.1,3.4,12.3,6.8,15.9a100.2,100.2,0,0,0,8.1,7.2" transform="translate(-0.9 -0.6)" style="fill:#231f20"/><path d="M614.7,18.1v.3c.2-2.7,2.2-4.3,5.3-4.3a20.6,20.6,0,0,1,9.2,2.4l1.2.6.5-1.8-.6-.3a21.6,21.6,0,0,0-9.6-2.5c-3.6,0-6,2.2-6,5.6" transform="translate(-0.9 -0.6)" style="fill:#231f20"/><polyline points="47.5 1.2 60 1.2 60 27.9 74.9 27.9 74.9 1.2 87.4 1.2 87.4 66.1 74.9 66.1 74.9 37.5 60 37.5 60 66.1 47.5 66.1 47.5 1.2" style="fill:#e31f26"/><polyline points="274 39.1 260.7 39.1 260.7 40.6 272.5 40.6 272.5 69.2 288.1 69.2 288.1 67.7 274 67.7 274 39.1" style="fill:#231f20"/><rect x="272.5" y="1.2" width="1.6" height="26.69" style="fill:#231f20"/><polyline points="246.7 1.2 245.1 1.2 245.1 69.2 260.7 69.2 260.7 67.7 246.7 67.7 246.7 1.2" style="fill:#231f20"/><polyline points="248.2 1.2 260.7 1.2 260.7 27.9 275.6 27.9 275.6 1.2 288.1 1.2 288.1 66.1 275.6 66.1 275.6 37.5 260.7 37.5 260.7 66.1 248.2 66.1 248.2 1.2" style="fill:#e31f26"/><path d="M118.1,58.1c5.6-.9,8.4-8.5,8.5-22.7.1-10.5-1.6-17.8-4.8-21a6.7,6.7,0,0,0-4.8-2c-5.2,0-8.3,5.2-9.3,15.4,1-9,3.8-13.6,8.4-13.6a5.8,5.8,0,0,1,4.2,1.8c3.1,3.1,4.7,10.2,4.6,20.5-.1,12.8-2.4,20-6.8,21.6" transform="translate(-0.9 -0.6)" style="fill:#231f20"/><path d="M117,69.9c-15,0-23.9-12.8-23.9-34.3,0-18.8,6.6-31.1,17.9-34.2C98.6,4,91.4,16.8,91.4,36.7c0,21.9,9.2,35.1,24.7,35.1,13.8,0,22.6-10.5,24.4-28.3-2,16.7-10.5,26.4-23.5,26.4" transform="translate(-0.9 -0.6)" style="fill:#231f20"/><path d="M118,58.1c6.7,0,10.3-7.5,10.4-23.4S124.8,10.8,118,10.8s-10.4,8-10.4,23.9,3.6,23.4,10.4,23.4m0,10.3c-13.9,0-23.1-11.3-23.1-33.6S104.1.6,118,.6s23.1,12.2,23.1,34.2S131.9,68.4,118,68.4Z" transform="translate(-0.9 -0.6)" style="fill:#e31f26"/><polyline points="159 41.1 160.5 31.6 166.5 1.2 164.9 1.2 158.8 32.2 158.5 33.9 159 41.1" style="fill:#231f20"/><polyline points="183.2 40.8 183.9 32.2 188.2 1.2 186.6 1.2 182.2 32.9 182.2 33 183.2 40.8" style="fill:#231f20"/><polyline points="177.9 67.7 171.2 33.5 170.6 28.9 170 33.4 163.4 67.7 151.1 67.7 140.7 1.2 138.9 1.2 149.5 69.2 163.1 69.2 169.7 35.2 176.4 69.2 189.9 69.2 190.2 67.7 177.9 67.7" style="fill:#231f20"/><polyline points="142.6 1.2 154.6 1.2 158.5 31.5 159.6 46.6 159.8 46.6 162.2 30.9 168.1 1.2 176.5 1.2 182.2 30.9 184.2 46.6 184.3 46.6 185.6 31.5 189.8 1.2 200.6 1.2 190.4 66.1 179.5 66.1 172.9 32.5 171.7 22.8 171.5 22.8 170.1 32.5 163.6 66.1 152.7 66.1 142.6 1.2" style="fill:#e31f26"/><polyline points="556.7 41.1 558.1 31.6 564.2 1.2 562.6 1.2 556.4 32.2 556.2 33.9 556.7 41.1" style="fill:#231f20"/><polyline points="580.9 40.8 581.6 32.2 585.9 1.2 584.3 1.2 579.9 32.9 579.9 33 580.9 40.8" style="fill:#231f20"/><polyline points="575.6 67.7 568.9 33.5 568.3 28.9 567.7 33.4 561 67.7 548.8 67.7 538.4 1.2 536.6 1.2 547.2 69.2 560.8 69.2 567.4 35.2 574 69.2 587.6 69.2 587.8 67.7 575.6 67.7" style="fill:#231f20"/><polyline points="540.2 1.2 552.3 1.2 556.2 31.5 557.3 46.6 557.5 46.6 559.8 30.9 565.7 1.2 574.1 1.2 579.9 30.9 581.8 46.6 582 46.6 583.3 31.5 587.5 1.2 598.2 1.2 588.1 66.1 577.2 66.1 570.6 32.5 569.4 22.8 569.2 22.8 567.8 32.5 561.3 66.1 550.4 66.1 540.2 1.2" style="fill:#e31f26"/><rect x="293.1" y="1.2" width="15.6" height="68.07" style="fill:#231f20"/><rect x="294.6" y="1.2" width="14.1" height="66.49" style="fill:#fff"/><rect x="296.2" y="1.2" width="12.5" height="64.92" style="fill:#e31f26"/><polyline points="313.8 69.2 313.8 1.2 329.4 1.2 329.4 56.5 345.7 56.5 345.7 69.2 313.8 69.2" style="fill:#231f20"/><polyline points="315.4 67.7 315.4 1.2 329.4 1.2 329.4 56.5 345.7 56.5 345.7 67.7 315.4 67.7" style="fill:#fff"/><polyline points="317 1.2 329.4 1.2 329.4 56.5 345.7 56.5 345.7 66.1 317 66.1 317 1.2" style="fill:#e31f26"/><polyline points="350.1 69.2 350.1 1.2 365.8 1.2 365.8 56.5 382.1 56.5 382.1 69.2 350.1 69.2" style="fill:#231f20"/><polyline points="351.7 67.7 351.7 1.2 365.8 1.2 365.8 56.5 382.1 56.5 382.1 67.7 351.7 67.7" style="fill:#fff"/><polyline points="353.3 1.2 365.8 1.2 365.8 56.5 382.1 56.5 382.1 66.1 353.3 66.1 353.3 1.2" style="fill:#e31f26"/><path d="M411.8,44.4l-3.6-16.8h0l-3.7,16.9h7.3m5.4,25.4-2.8-13.2H401.9l-2.8,13.2H385.2l16-68h15.7l16.1,68Z" transform="translate(-0.9 -0.6)" style="fill:#231f20"/><path d="M413.8,44.4,410,26.6l-.8-4.7-.8,4.7-3.9,17.8h9.3m5.1,23.8L416,55H402.3l-2.9,13.2H387.1L402.9,1.8h14.4L433,68.2Z" transform="translate(-0.9 -0.6)" style="fill:#fff"/><path d="M404.6,44.4h11.1l-3.9-18.7-1.4-8.9h-.2l-1.6,8.9-4,18.7m13,9H402.7l-2.9,13.3H389.1L404.5,1.8h13.1L433,66.7H420.5Z" transform="translate(-0.9 -0.6)" style="fill:#e31f26"/><polyline points="480.1 69.2 465.4 33.1 464.9 31.7 465.1 35.1 465.1 69.2 451.7 69.2 451.7 1.2 467.1 1.2 480.2 33.9 480.8 35.5 480.6 32 480.6 1.2 494 1.2 494 69.2 480.1 69.2" style="fill:#231f20"/><polyline points="481.4 67.7 466.9 32.1 464.7 25.4 465.1 34.3 465.1 67.7 453.3 67.7 453.3 1.2 467.3 1.2 480.3 33.4 482.5 40 482.2 31.2 482.2 1.2 494 1.2 494 67.7 481.4 67.7" style="fill:#fff"/><polyline points="454.8 66.1 454.8 1.2 467.6 1.2 480.3 32.9 484.1 43.9 484.3 43.9 483.8 30.4 483.8 1.2 494 1.2 494 66.1 482.7 66.1 468.4 31 464.6 19.7 464.5 19.7 465.1 33.6 465.1 66.1 454.8 66.1" style="fill:#e31f26"/><polyline points="499.1 69.2 499.1 1.2 532.4 1.2 532.4 13.8 514.7 13.8 514.7 27.9 530.7 27.9 530.7 40.6 514.7 40.6 514.7 56.6 532.7 56.6 532.7 69.2 499.1 69.2" style="fill:#231f20"/><polyline points="500.7 67.7 500.7 1.2 532.4 1.2 532.4 12.2 514.7 12.2 514.7 27.9 530.7 27.9 530.7 39.1 514.7 39.1 514.7 56.6 532.7 56.6 532.7 67.7 500.7 67.7" style="fill:#fff"/><polyline points="502.3 1.2 532.4 1.2 532.4 10.6 514.7 10.6 514.7 27.9 530.7 27.9 530.7 37.5 514.7 37.5 514.7 56.6 532.7 56.6 532.7 66.1 502.3 66.1 502.3 1.2" style="fill:#e31f26"/><path d="M621.5,11c-4.1,0-6.8,2.5-6.8,6.3s1.2,4.5,3.1,6.3c3.4,3.4,7.5,6.2,11.3,9.8s6.9,7.9,6.9,15.4c0,10.6-6.5,18.7-18.8,18.7-7,0-11.5-1.3-15.5-3.4l3.4-10a23.9,23.9,0,0,0,11.1,3c5.5,0,7.8-3,7.8-7.1s-1.5-5.2-3.6-7.2-7.4-5.7-11.2-9.7-6.3-7-6.3-14.8C602.9,8,610.1.9,620.9.9a30.1,30.1,0,0,1,13.5,2.9l-2.9,9.8a21.1,21.1,0,0,0-10-2.6" transform="translate(-0.9 -0.6)" style="fill:#e31f26"/><path d="M41.3,65c-2.5,1.5-5.8,2.7-11.1,2.7C14.5,67.7,4.4,56.9,4.4,34.8S15.5.8,29.9.8c5.3,0,8.7.7,11.4,2.3l-2.9,9.4a17.1,17.1,0,0,0-7.6-1.6c-8.7,0-13.6,8.6-13.7,23.8S22.3,57.5,31,57.5a14.8,14.8,0,0,0,7.4-1.8L41.3,65" transform="translate(-0.9 -0.6)" style="fill:#e31f26"/><path d="M41.6,66l-.9.5c-2,1.2-5.4,2.7-11.4,2.7C12.3,69.2,2.6,57,2.6,35.6S12.8,1,28.6.8h-.5C11.6.8.9,14.8.9,36.4s10,34.4,27.4,34.4c6.2,0,9.8-1.6,11.9-2.9l1.7-1.1-.3-.8" transform="translate(-0.9 -0.6)" style="fill:#231f20"/><path d="M17.6,27.2c1.6-8.5,5.5-13.1,11.3-13.1a15.7,15.7,0,0,1,6.9,1.4l1.5.7.6-1.9-.8-.3a15.7,15.7,0,0,0-7.2-1.5c-6.5,0-10.8,5.2-12.3,14.7" transform="translate(-0.9 -0.6)" style="fill:#231f20"/><path d="M241.2,65c-2.5,1.5-5.8,2.7-11.1,2.7-15.7,0-25.8-10.8-25.8-32.9S215.4.8,229.9.8c5.3,0,8.6.7,11.3,2.3l-2.8,9.4a17.2,17.2,0,0,0-7.7-1.6c-8.6,0-13.6,8.6-13.7,23.8s5.2,22.8,13.9,22.8a14.9,14.9,0,0,0,7.5-1.8l2.8,9.3" transform="translate(-0.9 -0.6)" style="fill:#e31f26"/><path d="M241.5,66l-.8.5c-2.1,1.2-5.5,2.7-11.5,2.7-16.9,0-26.6-12.2-26.6-33.6S212.8,1,228.5.8H228c-16.5,0-27.1,14-27.1,35.6s9.9,34.4,27.4,34.4c6.2,0,9.7-1.6,11.8-2.9l1.7-1.1-.3-.8" transform="translate(-0.9 -0.6)" style="fill:#231f20"/><path d="M217.5,27.2c1.6-8.5,5.6-13.1,11.4-13.1a16,16,0,0,1,6.9,1.4l1.4.7.6-1.9-.7-.3a16.4,16.4,0,0,0-7.3-1.5c-6.4,0-10.7,5.2-12.3,14.7" transform="translate(-0.9 -0.6)" style="fill:#231f20"/></g></svg>