<svg xmlns="http://www.w3.org/2000/svg" viewBox="0 0 293.9 49.06"><defs><style>.cls-1{fill:#231f20;}</style></defs><title>herald-sun</title><g id="Layer_2" data-name="Layer 2"><g id="dur"><path class="cls-1" d="M293.9,34a59.17,59.17,0,0,0-6.52,5.35c-1.64-1.58-3.79-2.71-3.79-6.79v-14c0-4.25-4.52-1.73-4.52-1.31,0,.78,0,9.92,0,14.52a3.14,3.14,0,0,0,1.48,2.88,25,25,0,0,0-5.51,4.47c-1.56-2-2-3-4.17-4.43,1.09-1,1.84-.51,1.84-3.73V17.45c0-1.89-1.79-2-3.27-1.05V16c2.38-2,3.32-3.32,5.81-5.53,2.18,1.43,3.85,2.68,3.85,6.07a94.77,94.77,0,0,0,7.59-6.08,34.71,34.71,0,0,0,5.41,5.36c-2.25.49-2.17,1.81-2.17,2.77s0,11.55,0,12.6c0,2.67,1.9,4,3.91,2.34Z"/><path class="cls-1" d="M260.92,13.25c1.15-1.2,1.53-2.09,2.2-2.84h.14a28.16,28.16,0,0,0,2.2,2.85,17.18,17.18,0,0,0,2.7,2.56s0,.12,0,.13a2.62,2.62,0,0,0-1.86,2.62v12c0,4.17,2.28,4.33,3.77,3a2.64,2.64,0,0,1,0,.42,50.32,50.32,0,0,0-6.14,5.15c-.15,0-.17,0-.17,0-.41-.43-3.83-2.14-3.84-6,0,0-1.78,1.34-4.66,3.32-1.2.83-2.84,2.14-3.51,2.72,0,0-.18,0-.18,0a21.12,21.12,0,0,0-4.72-4.61v-.18c.69-.43,1.82-.9,1.82-4.19V21c0-4.58-1.87-5.75-3.36-4.77v-.34c2.24-1.95,3.46-3.27,5.61-5.42h.18c.35.69,3.93.87,3.93,7.37v13.8s-.47,5.44,4.93.66V18.57A2.41,2.41,0,0,0,257.85,16v-.16a12.34,12.34,0,0,0,3.07-2.61"/><polygon class="cls-1" points="231.3 4.27 231.3 39.77 230.66 39.88 230.66 4.82 231.3 4.27"/><path class="cls-1" d="M223.26,43.79a6.11,6.11,0,0,1-5.7-5.4A7.73,7.73,0,0,1,230,30.92a23.36,23.36,0,0,1,6.55,8c2.86-3.3,3.51-10.83.35-13.93-4.51-4.43-10-.7-13,3.58-1.84-3-4.67-4.69-6-9.27-3.31-11.22,8.4-13.4,13.54-17.77,1,2.17,1.63,4,3.65,5.55a3.09,3.09,0,0,0,4.78-2.49A3.32,3.32,0,0,0,236.1,1.2L236,.8a5.1,5.1,0,0,1,3.75.82A5.91,5.91,0,0,1,242.27,6a8.09,8.09,0,0,1-4.88,8.12,7.84,7.84,0,0,1-6.7-.5c-2.51-1.23-4.22-4.68-5.71-7.07-1.85,2.69-1.45,7.63-.47,10.3a7.94,7.94,0,0,0,4.93,4.71c1.21.44,3.64-.26,4.65-1.08a17.09,17.09,0,0,0,4.6-6.06c1.83,3.13,5,4,6.57,8.34a13.7,13.7,0,0,1,.31,8.4c-2,7.69-8.83,8.31-14.82,12.57-2.28-3-4.62-8.07-8.95-7.31-1.94.34-2.81,2.16-2.38,4.17s2.6,2.75,3.84,2.74Z"/><path class="cls-1" d="M210.48,17.56a14.9,14.9,0,0,0,3.88,4.12,16.05,16.05,0,0,0-3.74,4,12.49,12.49,0,0,0-3.73-4.05,13.81,13.81,0,0,0,3.59-4.09"/><path class="cls-1" d="M108.66,27.21a15.27,15.27,0,0,0,.89,4.67,12.17,12.17,0,0,0,7.64,7c3.41-2.59,5.91-4.49,9.55-6.78l0-.4c-2.74,1.57-5.06,2.25-7.77.33-2-1.41-3-4.08-3.27-6.49-.4-3.4,0-9,0-12.84a29.21,29.21,0,0,1,2.56,4.58c.9,1.82,1.75,3.62,2.57,5.42-1.84,1-4.45,2.44-5.65,3.13l.18.58,5.33-3c1.81-1,3.31-1.88,5.8-3.07a86.23,86.23,0,0,0-4.93-10.21c-.09-.15-1.32.57-1.94.82-3.76,1.55-6.49,1.47-9,5.22-2.26,3.32-2.27,7.3-1.93,11"/><path class="cls-1" d="M94.56,2.88C94.45,5.6,92,6.53,90.26,5.1,88.37,3.51,87.7,2.2,85.44.92A7.84,7.84,0,0,0,77.89,1C73.77,3.15,73.54,7.2,75,9.43c1.52,2.4,4.82,2.73,6.44.89l-.09-.27a3.57,3.57,0,0,1-4.32.72c-1.74-1-2.33-4.67.19-5.58C80.8,3.88,82.89,8.32,86,9.75a5.52,5.52,0,0,0,7-1.82,9.15,9.15,0,0,0,1.86-5Z"/><path class="cls-1" d="M87.13,12.71c2.3-1.9,4.18-2,6.62-4.11,0,9,0,15.09,0,24.17,0,1.76,1.93,2.38,1.75,2.45-4,1.41-5.92,2.69-9.16,6.19C84.64,40,77.93,33.16,74,37.74c-1.25,1.47-1.19,4.61,1.5,6.45,2.26,1.53,5,2.13,9.37,2,5-.1,7.78-1.69,8.93-3.49a5,5,0,0,0,.77-3.38,1.1,1.1,0,0,0,.31,0c.51,3.66-1.4,6.21-4.39,7.93a12.78,12.78,0,0,1-13.67-.35,10.12,10.12,0,0,1-3.41-3.69,7.52,7.52,0,0,1,3.77-10.36c3.72-1.65,6.33-1,9.91,1Z"/><path class="cls-1" d="M109.84,1c-4.75-.74-8.1,1.82-10.53,5.76a12.59,12.59,0,0,0-2.26-4.61l-.14.39c1.6,2.58,1.7,6.8,1.69,9.05,0,1.08,0,18.28,0,19.15,0,2.2-.35,3.4-2.42,4.46,2.87,1,4.54,2.76,6.55,4.92a40.11,40.11,0,0,1,7-5.06l-.06-.25c-.91.39-4.19,1.43-4.19-2.6V5.65c0-2.14.58-4.32,4.39-4.33Z"/><rect class="cls-1" x="92.47" y="19.4" width="7.71" height="2.46"/><path class="cls-1" d="M168.75,32.68c-1.33.79-3.85.4-3.85-1.42,0-4.47,0-7.13,0-11.59,0-2.51,1-3.82,2.77-3.92V15.5c-2.28-.7-3.68-1.87-6.23-3.67-.77-.55-2.65-1.78-2.52-1.74-.09,0-.78.51-1.88,1.15-3.36,2-4.67,2.52-7.6,4.21C146.82,17,147,22.25,147,22.66v8c0,6.24,2.89,5.55,4.7,8.4A68.4,68.4,0,0,1,159,31.94l-.08-.76c0-.09-2.39,2-2.61,2.12-1.44.55-2.49-1.33-2.49-2.74V14c1.75,1.21,4.67,1.92,4.68,3.71s0,7.9,0,13.43a10,10,0,0,0,.6,3.35,5.19,5.19,0,0,0,1.38,2.22,16.71,16.71,0,0,1,2.88,2.21c2.27-2,3.05-3.61,5.35-5.77Z"/><path class="cls-1" d="M126.29,15.6c2.93-2.09,3.54-3.4,5.52-5.64,1.6,1.17,3,2.28,3.67,4a10,10,0,0,1,.33,3.57c2.65-1.84,4.39-3.89,6.88-5.92a33.42,33.42,0,0,1,3.49,6.81c-1.7,1.54-2.5,2.56-4.56,4.42-1.09-2.19-1.94-4.82-3.25-6.6,0,0-2.56,1.85-2.56,1.9V29.39c0,2.51,1.34,4,2.76,4.12s2.72-1.11,4.08-1.92v.53c-3.32,2.39-6.73,4.53-9.9,6.93-2.14-2.63-2.7-4.85-5.71-6.54,1.14-.4,2.44-1.72,2.44-2.85,0-2,0-7.58,0-11.15a4.57,4.57,0,0,0-.29-2.17c-.42-1.16-2.25-1-2.9-.42Z"/><path class="cls-1" d="M189,7.73a72.59,72.59,0,0,1,7.27,8.88V34.88c-1.48-1.36-3.38-2.77-4.87-4.11V11.5c-2.18,2.6-4.88,4.86-6.33,4.2V30.16a4.27,4.27,0,0,1-1.87,3.29c3.53.95,5,3.38,7.8,5.62,2.6-2.94,5.77-3.5,9.15-5.18a4.72,4.72,0,0,0,2.66-3.81c.2-3.12-.11-3-.09-5.94,0-3.5-.49-7.8,1.25-8.28,0,0-7.53-10-9.75-12.51C187.72-3.08,183.51,2,182,6.76l.19.52s1.43-4.9,6.76.45"/><path class="cls-1" d="M182.87,1.23c-3.73,0-4.62,2.2-4.62,4.35v26c0,4,3.8,2.1,4.39,1.79v.42A40.07,40.07,0,0,0,175.87,39c-2.66-1.65-3.81-3.61-6.69-4.92,2.66-.78,2.79-4.51,2.77-5.52,0-.8,0-17.93,0-19a13.75,13.75,0,0,0-2-7l.1-.25a10.3,10.3,0,0,1,2.4,4.36c2.46-4,5.76-6.24,10.42-5.72Z"/><path class="cls-1" d="M84.82,32.71V23.12c-3.25-.08-5.76.1-6.25,3.11h-.24a18,18,0,0,1,.45-5c.61-3.17,3.73-2.94,6.07-3V13h.65V33Z"/><path class="cls-1" d="M37.16,17.48c0,5.11,0,7.17,0,12.37A4.38,4.38,0,0,0,39.69,34c-2.56,1-3.89,2.83-5.44,5.13C32.05,35.84,31,35,29,33.75c1.41-.78,1.89-2.83,1.89-4,0-3.76,0-13.51,0-16.55,0-4-.34-6.33-1.71-8.75l.12-.23a9.4,9.4,0,0,1,1.65,3c2.46-5.49,7-7.45,11.87-6.64V.81a5.05,5.05,0,0,0-5.61,4.86c0,5.52,0,6,0,11,3-2,4.59-4.21,7.57-6.34,1.87,1.15,3.57,3,3.57,5.15,0,7.81,1.16,18.46-1.45,23.42-2.42,4-6.58,8.16-12,9.45l0-.28a9.67,9.67,0,0,0,5.85-5.49A23.35,23.35,0,0,0,42,35.12c0-6.09.09-11.14-.05-17.38a2.32,2.32,0,0,0-1.53-2.17c-.71-.19-1.27.34-3.22,1.91"/><path class="cls-1" d="M8.33,15.28A37.84,37.84,0,0,0,19,11.78c0,4.17,0,6.73,0,12.55.17,8.13-4.69,7.5-9.27,9.77l-.22-.42c2.68-1.4,3.13.08,3.13-6.66V15c0-.05-1.45.37-4.19.88Z"/><path class="cls-1" d="M2.26,4.72c5.3-10,18.79-.15,22.16.94s3.5-1.54,2.15-2.9c0-.15.12-.33.09-.35,3.21,2.5,1.62,8.73-3.45,9.06C16.89,11.88,11.8,6.14,6.6,6.81c-2.52.32-4,2.26-3.32,5.34,0,0-.22,0-.35,0C1.9,10,1.05,7,2.26,4.72"/><path class="cls-1" d="M28.25,26.66a3.46,3.46,0,0,1,.56,0c-.36,4.94-3.9,13.08-12.27,13.22-20.73.36-21.62-28.43-4.65-30.38a7.83,7.83,0,0,1,1.63-.09.55.55,0,0,1,0,.31,4.06,4.06,0,0,0-1.71.53,7.92,7.92,0,0,0-3,4.05c-1.24,3.38-2,16.27,1.79,20.36,1.85,2,3.42,3.3,6.36,3.56,8,.7,10.73-7,11.32-11.58"/><polygon class="cls-1" points="22.17 10.29 22.17 37.78 21.52 37.89 21.52 10.85 22.17 10.29"/><path class="cls-1" d="M50.61,27.33A14.93,14.93,0,0,0,51.5,32a12.18,12.18,0,0,0,7.63,7c3.41-2.59,5.92-4.49,9.55-6.78l0-.4c-2.74,1.57-5.07,2.25-7.77.33-2-1.41-3-4.08-3.28-6.48-.4-3.41,0-9,0-12.85a28.43,28.43,0,0,1,2.56,4.58c.9,1.82,1.75,3.62,2.58,5.42-1.84,1-4.46,2.44-5.66,3.13l.18.58,5.34-3c1.8-1,3.3-1.88,5.79-3.07a83.22,83.22,0,0,0-4.93-10.21c-.08-.15-1.31.57-1.93.82-3.77,1.55-6.49,1.47-9.05,5.22-2.26,3.32-2.27,7.3-1.93,11"/></g></g></svg>