<svg xmlns="http://www.w3.org/2000/svg" viewBox="0 0 289.55 35.79"><title>idaho-statesman</title><g id="Layer_2" data-name="Layer 2"><g id="boi"><path d="M0,35.3V1.56H8.11V35.3Z"/><path d="M25,35.3,24.64,33a8.13,8.13,0,0,1-5.82,2.79c-4.45,0-7.48-3.72-7.48-11.3,0-9.34,4.4-13.3,10.12-13.3a9.18,9.18,0,0,1,2.45.3V1.07L31,0V35.3Zm-1.07-18a3.09,3.09,0,0,0-1.42-.34c-2.55,0-4.16,2.06-4.16,6.85,0,4.35,1.27,5.67,3.13,5.67a3.85,3.85,0,0,0,2.45-1.17Z"/><path d="M45.22,35.3l-.39-2.45a8.11,8.11,0,0,1-5.92,2.88c-3.22,0-5.52-2.1-5.52-6.45,0-5.33,4.06-8,10.85-9.09v-.88c0-2.15-.88-2.93-2.93-2.93a13.32,13.32,0,0,0-5.67,1.81l-.88-5.48A21,21,0,0,1,43.26,11c5.58,0,8,2.3,8,8V35.3Zm-1-11.44c-3.18,1-4.3,2.54-4.3,4.49,0,1.47.73,2.3,1.76,2.3a3.83,3.83,0,0,0,2.54-1.27Z"/><path d="M65.85,35.3V18.92a1.55,1.55,0,0,0-1.57-1.76,4.94,4.94,0,0,0-2.83,1.27V35.3H54.36V1.07L61.45,0V13.3a8.93,8.93,0,0,1,5.72-2.45c4,0,5.77,2.2,5.77,6.11V35.3Z"/><path d="M85.4,35.79c-6,0-10.07-4.31-10.07-12.42s4.11-12.52,10.12-12.52,10.07,4.4,10.07,12.47S91.42,35.79,85.4,35.79Zm0-19.07c-2.1,0-3.08,2.49-3.08,6.6s1,6.6,3.13,6.6,3.08-2.45,3.08-6.55S87.55,16.72,85.4,16.72Z"/><path d="M116.3,35.69a22.9,22.9,0,0,1-9.87-2.15l1.07-6.85c3,1.57,5.53,2.44,8,2.44,2.1,0,3.27-1,3.27-2.63,0-1.91-1.22-3.13-4.89-5.53s-7-5.13-7-10.12c0-5.82,4-9.68,10.07-9.68A18,18,0,0,1,125,2.83l-1,6.9a12.16,12.16,0,0,0-6.4-2,2.45,2.45,0,0,0-2.69,2.35c0,1.61,1.18,2.69,4.65,4.89,3.76,2.39,7.28,5.47,7.28,10.8C126.81,32.07,122.56,35.69,116.3,35.69Z"/><path d="M138.25,35.69c-5.28,0-7.68-1.86-7.68-7.78V17.35h-2.73v-6h2.73V4.06l6.8-1.13v8.41h3.81l1,6h-4.79V27c0,1.71.63,2.5,2.25,2.5a9.7,9.7,0,0,0,1.76-.15l.93,5.82A17.25,17.25,0,0,1,138.25,35.69Z"/><path d="M155.46,35.3l-.4-2.45a8.11,8.11,0,0,1-5.91,2.88c-3.23,0-5.53-2.1-5.53-6.45,0-5.33,4.06-8,10.86-9.09v-.88c0-2.15-.88-2.93-2.94-2.93a13.36,13.36,0,0,0-5.67,1.81L145,12.71A21.06,21.06,0,0,1,153.5,11c5.58,0,8,2.3,8,8V35.3Zm-1-11.44c-3.18,1-4.31,2.54-4.31,4.49,0,1.47.74,2.3,1.76,2.3a3.83,3.83,0,0,0,2.55-1.27Z"/><path d="M173.69,35.69c-5.28,0-7.68-1.86-7.68-7.78V17.35h-2.73v-6H166V4.06l6.8-1.13v8.41h3.81l1,6h-4.79V27c0,1.71.63,2.5,2.25,2.5a9.62,9.62,0,0,0,1.76-.15l.93,5.82A17.25,17.25,0,0,1,173.69,35.69Z"/><path d="M197.59,25.42H185.81c.44,3.42,2.05,5,4.79,5a12.59,12.59,0,0,0,6.31-1.81l.78,5a16.62,16.62,0,0,1-8.36,2.11c-6.84,0-10.56-4.26-10.56-12.42,0-7,3.47-12.52,9.78-12.52s9.19,5,9.19,12C197.74,23.61,197.64,25,197.59,25.42Zm-9.14-9.78c-1.47,0-2.49,1.61-2.74,5.53h5.43C191.09,17.5,190,15.64,188.45,15.64Z"/><path d="M207.57,35.79a16.36,16.36,0,0,1-8.12-2.16l.93-5.72c3,1.62,5.13,2.4,7.09,2.4,1.41,0,2.1-.69,2.1-1.62,0-1.12-1.27-2-3.57-3.07-3.22-1.47-6.16-3.38-6.16-7.58,0-4,2.89-7.19,7.87-7.19a15.44,15.44,0,0,1,7,1.61l-.93,5.68c-2.83-1.33-4.35-1.76-5.77-1.76-1,0-1.66.53-1.66,1.36s1.18,1.81,3.33,2.79c3.27,1.56,6.35,3.62,6.35,7.73C216.07,32.85,212.85,35.79,207.57,35.79Z"/><path d="M240.71,35.3V18.87c0-1-.49-1.71-1.57-1.71a4.31,4.31,0,0,0-2.68,1.22V35.3h-7V18.87c0-1-.49-1.71-1.57-1.71a4.2,4.2,0,0,0-2.64,1.22V35.3h-7v-24h6l.44,2.49a9.17,9.17,0,0,1,6.26-3c2.58,0,4.25,1,5,2.84a9.28,9.28,0,0,1,6.16-2.84c3.91,0,5.67,2.2,5.67,6.11V35.3Z"/><path d="M261.83,35.3l-.39-2.45a8.11,8.11,0,0,1-5.92,2.88c-3.23,0-5.52-2.1-5.52-6.45,0-5.33,4.05-8,10.85-9.09v-.88c0-2.15-.88-2.93-2.93-2.93a13.32,13.32,0,0,0-5.67,1.81l-.88-5.48a21,21,0,0,1,8.5-1.76c5.58,0,8,2.3,8,8V35.3Zm-1-11.44c-3.18,1-4.3,2.54-4.3,4.49,0,1.47.73,2.3,1.76,2.3a3.83,3.83,0,0,0,2.54-1.27Z"/><path d="M282.46,35.3V18.92a1.55,1.55,0,0,0-1.56-1.76,4.92,4.92,0,0,0-2.84,1.27V35.3H271v-24h6l.44,2.54a9.48,9.48,0,0,1,6.36-3c4,0,5.77,2.2,5.77,6.11V35.3Z"/></g></g></svg>