<svg xmlns="http://www.w3.org/2000/svg" viewBox="0 0 299.67 45.33"><defs><style>.cls-1{fill:#231f20;}</style></defs><title>ledger-enquirer</title><g id="Layer_2" data-name="Layer 2"><g id="clb"><path class="cls-1" d="M138.18,21.28c-1.1,1.91-3,4.49-5.18,4.49-2.59,0-4.44-1.81-6.76-1.81A3.21,3.21,0,0,0,123.65,25l-.78-.7c1.66-2.52,3.33-4.39,5.69-4.39,2.17,0,3.86,1.8,6.38,1.8a3,3,0,0,0,2.5-1.15Z"/><path class="cls-1" d="M125.64,14.43,121.06,18a22.42,22.42,0,0,1-3.1-3.52l-2.08,1.8V31.51L119,33.4l1.71-1.66.79.69c-1.58,1.47-3.57,3.47-5.32,5.27A24,24,0,0,0,109,33.45v-.14c1.09-.68,1.57-2,1.57-3.79V17.44c0-1.57-.23-2.4-1.2-2.87l-1.3,1.3-.74-.83,5-4.68A5.39,5.39,0,0,1,115.74,15l5.42-4.68A21.79,21.79,0,0,0,125.64,14.43Z"/><path class="cls-1" d="M13.74,1.25C12.38,3,10.21,5.42,7.49,5.42c-1.33,0-3-.75-4-.75a2.82,2.82,0,0,0-3,2.13L0,6.57C.53,2.87,2.3.84,5.23.84,7.48.84,8.08,2,9.9,2A4.67,4.67,0,0,0,13.37.88Z"/><path class="cls-1" d="M106.72,18.64c-3.44,2.6-6.44,5.13-9.2,7.5v5.13l4.16,2.22,3.42-2.77.7.79c-2.32,1.84-4.8,3.94-7.45,6.19a23.14,23.14,0,0,0-7.63-3.28v-.09c1.14-.85,1.57-1.94,1.57-3.8v-15a39.29,39.29,0,0,0,8.37-5.14A83.6,83.6,0,0,0,106.72,18.64ZM102,21.05l-4.4-6.38,0,0v10Z"/><path class="cls-1" d="M90.07,38.67a3.44,3.44,0,0,1-1.85,3l-5.14,3.56a12,12,0,0,0-6.33-1.89,14.45,14.45,0,0,0-8,2l-.46-.41,6.89-8.37L69.9,33.4V14.94a47.41,47.41,0,0,0,8.33-4.67A86.9,86.9,0,0,0,86,14.9L88.26,13l.7.83L86.41,16V30.25A6.34,6.34,0,0,0,88,34.93C89.09,36.21,90.07,37.5,90.07,38.67Zm-8.84-9.2V17.86a55.13,55.13,0,0,1-6.1-3.7c0,2.69,0,12.62,0,16.84l3.05,2ZM86.6,41.4c0-1.44-1.47-2.49-3.24-4.16C82.09,36.05,81.28,34,81.28,31l-8.47,9.9a13.31,13.31,0,0,1,5.74-1.53,15.88,15.88,0,0,1,7.91,2.13Z"/><path class="cls-1" d="M67.26,13.14l-2.45,2.22v18a20.86,20.86,0,0,0-8.14,4.4,24.7,24.7,0,0,0-9.76-4.63c1.35-1.07,1.52-2.34,1.52-4.49V15.73A17.53,17.53,0,0,0,53.2,13L46.59,8.28V2.41l17.67,12,2.31-2.08ZM59.49,33V17.26L53.9,13.55l-.19,0V30.67C55.4,31.4,57.35,32.19,59.49,33Z"/><path class="cls-1" d="M45.52,18.64c-3.44,2.6-6.44,5.13-9.2,7.5v5.13l4.16,2.22,3.42-2.77.7.79c-2.32,1.84-4.8,3.94-7.45,6.19a23.14,23.14,0,0,0-7.63-3.28v-.09c1.14-.85,1.57-1.94,1.57-3.8v-15a39.29,39.29,0,0,0,8.37-5.14A83.6,83.6,0,0,0,45.52,18.64Zm-4.76,2.41-4.4-6.38,0,0v10Z"/><path class="cls-1" d="M29.1,30.49,24.24,38a17.22,17.22,0,0,0-9.9-2.73c-5.55,0-7.95.92-11.28,2.63l-.61-.74c3.06-2.26,4.49-4.82,4.49-8.32V21H5.83c-1.67,0-3.15.56-3.19,2.82H2.55A5.32,5.32,0,0,1,1.3,20c0-2.64,2.08-4.35,4.86-4.35h.78V13.88c0-6.62,4.3-9.07,11-13.18A16.81,16.81,0,0,0,24.47,3L20.73,7.17a15.42,15.42,0,0,1-4.86-2.45V30a10.19,10.19,0,0,1,2.31-.28,18.9,18.9,0,0,1,8.88,2.08l1.16-1.89Zm-14.25-.24c0-6.5,0-25.95,0-25.95-1.25,1.21-1.8,2.41-1.8,6.06V24c0,4-.92,6.39-4.21,8.79v.14A27.35,27.35,0,0,1,14.85,30.25Z"/><path class="cls-1" d="M299.67,14.43,295.09,18a22.36,22.36,0,0,1-3.15-3.52l-2.08,1.8V31.51L293,33.4l1.76-1.66.74.69c-1.59,1.47-3.57,3.47-5.32,5.27A23.93,23.93,0,0,0,283,33.45v-.14c1.09-.68,1.62-2,1.62-3.79V17.44c0-1.57-.28-2.4-1.25-2.87l-1.29,1.3-.7-.83,5-4.68A5.35,5.35,0,0,1,289.72,15l5.46-4.68A21.85,21.85,0,0,0,299.67,14.43Z"/><path class="cls-1" d="M244.66,3.75,241,7.17a16.74,16.74,0,0,1-3.33-3.65L241.33,0A37.74,37.74,0,0,0,244.66,3.75Z"/><path class="cls-1" d="M265.8,14.43,261.23,18a22.36,22.36,0,0,1-3.15-3.52L256,16.28V31.51l3.1,1.89,1.75-1.66.75.69C260,33.9,258,35.9,256.27,37.7a24,24,0,0,0-7.12-4.25v-.14c1.09-.68,1.62-2,1.62-3.79V17.44c0-1.57-.28-2.4-1.25-2.87l-1.29,1.3-.7-.83,5-4.68A5.35,5.35,0,0,1,255.86,15l5.46-4.68A21.79,21.79,0,0,0,265.8,14.43Z"/><path class="cls-1" d="M247.44,33.08l-4.67,4.62c-2.87-1.11-4-3.09-4-6.66V15.59l-1.85-1.53,4.17-3.74,4.3,4L244,15.59v15c0,1.85.27,2.55,1.29,3.06l1.39-1.34Z"/><path class="cls-1" d="M235.74,32.89l-4.68,4.81a6.23,6.23,0,0,1-3.88-5l-5.92,5c-2.5-1.06-5.19-3-5.19-6.89V15.45l-1.1-1-1.25,1.16-.75-.88,5.61-4.67L223,13.93l-1.58,1.34V29.84a3.83,3.83,0,0,0,2.78,4l3-2.45V15.31l-1.43-1.38,4-3.61,4.17,3.61-1.53,1.34V31.18a2.34,2.34,0,0,0,1.3,2.36L235,32.11Z"/><path class="cls-1" d="M191.51,32.94l-5.32,4.76c-2.82-1.69-3.38-3.75-3.38-7.08V17.07l-2.68-2.68L177,17V32.8l1.48,1.3-4.11,3.6-4.26-3.65,1.57-1.48V17.4c0-1.66-.41-2.41-1.29-2.78l-1.48,1.48-.79-.79,5.09-5c2.36.74,3.56,2.55,3.75,5.28,1.57-1.34,3.14-2.62,5.87-5.32l4.76,3.88,1.95-1.94.74.79-2.22,2.22V31a2.52,2.52,0,0,0,1.34,2.36l1.34-1.25Z"/><path class="cls-1" d="M154.92,1.11c-1.59,1.81-4.12,4.35-7.31,4.35-1.57,0-3.61-.79-4.76-.79a3.3,3.3,0,0,0-3.52,2.27l-.55-.23c.61-3.9,2.71-6.06,6.15-6.06,2.65,0,3.36,1.25,5.5,1.25A5.86,5.86,0,0,0,154.5.74Z"/><path class="cls-1" d="M281.12,18.64c-3.45,2.6-6.44,5.13-9.21,7.5v5.13l4.16,2.22,3.43-2.77.69.79c-2.31,1.84-4.8,3.94-7.45,6.19a23.14,23.14,0,0,0-7.63-3.28v-.09c1.14-.85,1.57-1.94,1.57-3.8v-15a39.34,39.34,0,0,0,8.38-5.14A82,82,0,0,0,281.12,18.64Zm-4.77,2.41L272,14.67l0,0v10Z"/><path class="cls-1" d="M211.73,42.84l-.1.09a3.79,3.79,0,0,1-3-2.31h-.09A6.92,6.92,0,0,1,202.43,45l-.05-.14a5.48,5.48,0,0,0,2.41-5v-7l-5.74,4.86a7.12,7.12,0,0,1-5.27-7V15.27a20.89,20.89,0,0,0,7.63-5c2.73,2,6.73,4.44,9.9,5.13v.05A3.43,3.43,0,0,0,210.06,18v21A4.46,4.46,0,0,0,211.73,42.84Zm-6.94-11.43V18.27L199,15V29.52a4.43,4.43,0,0,0,2.73,4.39Z"/><path class="cls-1" d="M170,30.49,165.1,38a17.24,17.24,0,0,0-9.9-2.73c-5.55,0-8,.92-11.29,2.63l-.65-.74c3.06-2.26,4.54-4.82,4.54-8.32V21h-1.11c-1.67,0-3.15.56-3.19,2.82h-.1A5.37,5.37,0,0,1,142.15,20c0-2.64,2.08-4.35,4.86-4.35h.79V13.88c0-6.62,5.18-9.44,11-13.18,1.84,1.06,4.71,2.26,9.9,2.59L163.62,8.7a24.28,24.28,0,0,1-6.9-3.56v10.5h6.94L161,20.86h-4.31V30A10.27,10.27,0,0,1,159,29.7a18.93,18.93,0,0,1,8.88,2.08l1.15-1.89Zm-14.3-14.76V4.3h-.09c-1.25,1.21-1.67,2.41-1.67,6.06v8.51Zm0,14.52V20.86H153.9c-.05.81,0,3.1,0,3.1,0,4-.91,6.39-4.21,8.79v.14A27.3,27.3,0,0,1,155.66,30.25Z"/></g></g></svg>