<?xml version="1.0" encoding="utf-8"?>
<!-- Generator: Adobe Illustrator 23.0.6, SVG Export Plug-In . SVG Version: 6.00 Build 0)  -->
<svg version="1.1" id="Layer_1" xmlns="http://www.w3.org/2000/svg" xmlns:xlink="http://www.w3.org/1999/xlink" x="0px" y="0px"
	 viewBox="0 0 573.7 114.2" enable-background="new 0 0 573.7 114.2" xml:space="preserve">
<path id="wording" fill="#034A78" d="M21.3,0.1c3.1,7.2,3.6,15.3,1.3,22.8c-1.2,4.4-0.5,8.6-0.2,12.9S22,41.6,22,44.4
	s0.3,4.6,0.6,6.9c0.5,4.5,1,9,1.8,13.4s2.2,8.8,3.3,13.1c0.5,2.1,1.1,4.2,1.9,6.3c0.4,1,1.3,2.5,1.9,2.4c1.2-0.2,2.2-0.8,2.9-1.8
	c2.2-3.4,4.2-6.9,6.1-10.4c5.4-10.5,11-20.8,15.9-31.5c1.9-4.1,2.5-8.8,3.1-13.3c0.8-6.1,2.7-8.8,9-10.6c1-0.2,1.9-0.6,2.8-1.1
	c2.9-1.6,5.4-0.3,5.5,3.2c0.2,5.4-0.7,10.7-2.7,15.7C72,42,70,47.4,67.6,52.5s-5.3,10.6-8.1,15.8c-5.5,10.1-11,20.3-16.6,30.3
	c-2.6,4.9-6.2,9.2-10.5,12.7c-4.2,3.2-8.4,2.9-12.9,2.8c-2.6-0.1-4.7-5.7-2.7-7.9s2.1-4.4,0.5-7.4c-4.4-8.6-6.7-17.9-7.9-27.5
	c-0.6-4.6-2-9-2.9-13.4S5,48.8,4.2,44.3s-1.1-7.6-2.4-11.1C-0.4,27.4,0.4,21.4,0,15.5C-0.2,11.7,2.5,9.7,4,7s4.3-4.3,7.6-4.9
	c1.5-0.3,2.8-1.6,4.2-1.9S19.3,0.1,21.3,0.1z M141,44.9c0-5.3,0-10.5-0.1-15.8c0-3-1.3-4-4.2-3.3s-6.9,1.7-10.2,2.7
	c-1,0.5-1.9,1.1-2.7,1.8c0.7,0.8,1.2,1.8,2,2.2c2.6,1.4,3.3,3.5,3.2,6.3s0.4,4,0.4,6s-0.4,2.5-1.1,2.9s-2.3,0.2-3.1-0.3
	c-8.8-5.5-19.1,1.1-22.3,7.8c-2,4.1-2.8,8.6-2.5,13.1c0.8,13.7,13.2,22,25.5,15.9c0.8-0.3,2.2,0.4,3.3,0.9s2.2,1.5,3.3,1.5
	c3.9-0.2,7.8-0.6,11.7-1.1c0.7-0.1,1.3-0.4,1.9-0.8c-0.2-0.7-0.6-1.3-1.1-1.8c-2.8-1.8-4.4-5-4.1-8.3c0.3-7.1,0.1-14.2,0.1-21.3
	L141,44.9z M128.9,74.4c0,2.9-1.9,5.8-4.4,6.6c-3.2,1.1-6.7-0.1-8.6-2.9c-4.8-7.7-4.8-15.8-1.1-23.8c1.1-2.6,3.6-4.7,6.3-4.1
	s5.1,2.6,7.6,4.2c0.3,0.2,0.2,1.2,0.2,1.9c0.1,3.2,0,6.4,0,9.6S129,71.6,128.9,74.4z M297,86.1c-0.6-0.8-1-2-1.7-2.4
	c-1.9-0.9-3-2.9-2.8-5c0.1-6,0.2-12,0-18c-0.1-2.5-0.5-4.9-1.3-7.3c-1.9-4.9-7.7-10.1-14.5-7.7c-2.6,1-5.1,2.3-7.4,3.8
	c-2.4,1.3-3.1,1-3.6-1.7s-1.3-3.3-3.5-2.7c-4,1.1-8.1,2.2-12,3.5c-0.9,0.2-2.1,1.1-2.1,1.6c0.1,1,0.7,1.8,1.5,2.4
	c3.8,2,3.7,5.7,3.9,9c0.3,4.8,0.3,9.5,0,14.3c-0.2,3,0.2,6.5-3.6,8.1c-0.5,0.2-0.7,1.1-1,1.7s1.2,1,1.8,1h16.9
	c0.7,0,1.4-0.6,2.1-0.9s-0.6-1.8-1.3-2.2c-1.9-1.2-2.9-3.4-2.7-5.6c0.1-6.2,0-12.4,0-18.6c0.1-3.3,2.3-5.8,6.3-6.9
	c2.7-0.6,5.4,0.7,6.6,3.1c0.8,1.6,1.2,3.3,1.3,5.1c0.2,5.4-0.1,10.7,0.1,16c0.3,2.7-0.8,5.4-3,7.1c-0.6,0.5-0.7,1.4-1,2.1
	c0.6,0.4,1.3,0.7,2,0.8h18.3L297,86.1z M475.1,75.5c0-6.2,0.1-12.3-0.1-18.4c-0.2-4.4-1.7-8.2-6.3-10.1s-12.1-2.5-18.3-0.9
	c-3.3,0.8-6.6,1.8-8.6,4.7c-1,1.5-1.6,3.3-1.6,5.2c-0.1,2,1.4,3.7,3.4,3.9c2.9,0.5,4.9-1.1,6.3-3.3s1.5-3.9,2.8-5.3
	c1.4-1.5,3.1-2.5,5.1-2.9c2.2-0.3,3.8,1.5,4.5,3.7c0.4,1.5,0.6,3,0.7,4.5c0.2,2.7-0.9,4.3-3.8,4.8c-6.1,1-12.1,2.8-17.3,6.4
	c-3.6,2.5-5.9,6.2-5.4,10.5c0.6,6.6,6.1,9.3,11.7,9.6s8.1-1.2,11.8-3.2c1.9-1.1,3.6-1.3,5.4,0.5c1.1,1.2,2.5,2,4.1,2.5
	c4,1.2,9.8-2.1,10.1-5.6C475.2,80.4,475.1,80.3,475.1,75.5z M456,82.6c-2.1,0.7-5.3-0.8-6-2.8c-2-6.4,0.1-10.8,6-13.3s7.6-3,7,5.5
	S460.2,81.1,456,82.6z M183.5,56.6c0-5-2.3-8.3-7.2-9.8c-6.5-2.1-13.6-1.9-20,0.8c-2.8,1.2-5.3,3.2-5.9,6.6
	c-0.2,1.4,0.2,2.8,1.1,3.9c1.1,1,2.5,1.6,4,1.5c3.1-0.3,4.2-2.9,5.3-5.4s4.1-6.2,6.3-5.9s4.9,3,5,6.4c0.1,5.3-0.4,5.9-4.5,6.6
	c-5.9,1-11.6,2.9-16.3,6.7s-5,6.9-3.7,11.8s3.5,5,6.4,5.8c5,1.4,10.4,0.8,15-1.8c1.8-1.4,4.3-1.2,6,0.3c3.6,2.8,8.6,2.7,12.2-0.1
	c1.3-1,1.4-2.2-0.1-3c-3.3-1.7-3.7-4.6-3.6-7.8s0-5.4,0-8.1V56.6z M159.8,78.4c-1.4-3-1.3-6.4,1-8.6c2.5-2.2,5.3-3.9,8.4-5.1
	c2-0.9,3.6,1,3.3,3.3c-0.2,1.9-0.4,3.9-0.4,5.8c0,4.7-2.7,7.4-7.8,7.3C162.2,81.6,160.7,80.4,159.8,78.4z M572.9,77.1
	c-1.5,0.8-3.2,1.4-4.6,2.3c-4.6,2.8-9.3,4.8-14.7,1.9s-6.2-5.9-7.9-9.9s-0.3-5,3.5-5.1c6.6,0,13.2,0.1,19.8,0c1.5,0,3-0.4,4.2-0.5
	c1.4-4-0.5-6.7-1.9-9.7c-4.2-9-16.1-14.2-25.5-9.1c-7.2,3.9-11.1,9.6-12.4,17.8s1.6,14.6,8,18.7c11.8,7.5,21.8,5.2,31.9-3.9
	c0.3-0.3,0.2-1.1,0.3-1.6L572.9,77.1z M547.9,62.5c-2.1,0.1-2.7-1.3-2.8-2.9c-0.3-3.3,4.1-9.2,7.1-10.2c5.4-1.6,9.1,2.6,9.9,6.8
	c0.2,0.7,0.3,1.5,0.5,2.2c0.5,2.4-0.5,3.9-3.1,4.1h-6.1C551.6,62.5,549.8,62.4,547.9,62.5z M241.4,66.3c2.3,0,3.3-1.5,2.8-3.7
	c-0.7-3.7-1.7-7.2-4.1-10.2c-4.7-6-14.4-9.6-22.5-5.8c-5.4,2.5-9.6,6.9-11.7,12.5c-2.3,5.8-2.7,11.9,0.3,17.5
	c4,7.7,11.3,10.8,19.7,11.2c6.4,0.3,11.8-2.5,16.5-6.7c0.6-0.6,0.5-2,0.8-3c-1.1,0.1-2.1,0.3-3.1,0.6c-3.4,1.3-6.6,3.7-10.1,4
	c-5.8,0.5-12.4-6.1-13.2-11.9c-0.5-3.7,0.1-4.5,3.9-4.5h9.7C234,66.3,237.7,66.4,241.4,66.3z M219.4,62.5c-2.1,0-3.3-1.4-3-3
	c0.4-3.3,1.4-6.6,4.3-8.8c3.3-2.6,8.2-2.1,10.8,1.3c0.5,0.6,0.9,1.4,1.2,2.1c0.7,1.6,1,3.3,1.1,5c0,1.8-0.8,3.4-3,3.4
	C230.8,62.5,219.4,62.5,219.4,62.5z M352,65.7c2.3,0,3.3-1.4,2.8-3.7s-1.7-7.1-4.1-10.2c-4.7-6-14.4-9.6-22.5-5.7
	c-5.4,2.4-9.6,6.9-11.7,12.4c-2.3,5.8-2.7,11.9,0.3,17.5c4,7.7,11.3,10.8,19.6,11.2c6.4,0.4,11.9-2.5,16.6-6.7c0.6-0.6,0.5-2,0.7-3
	c-1,0.1-2,0.3-3,0.6c-3.4,1.3-6.7,3.7-10.1,4c-5.8,0.5-12.4-6.1-13.2-11.9c-0.6-3.7,0.1-4.4,3.9-4.5C331.3,65.7,352,65.7,352,65.7z
	 M330,61.9c-2.1,0-3.3-1.4-3.1-3c0.5-3.3,1.5-6.6,4.3-8.8c3.3-2.6,8.2-2.1,10.8,1.3c0.5,0.6,0.9,1.4,1.2,2.1c0.7,1.6,1.1,3.3,1.2,5
	c0,1.8-0.8,3.4-3,3.4C341.4,61.9,330,61.9,330,61.9z M374.8,27.7c-0.1-2.7-1.3-4-3.3-3.4L359,28.1c-0.8,0.2-1.4,0.8-1.6,1.6
	c-0.1,0.8,0.3,1.6,1,2.1c4.1,1.5,4.3,5,4.3,8.5c0.1,12.2,0,24.3,0.1,36.4c0,3-0.5,5.5-3.4,7.1c-0.6,0.3-0.8,1.3-1.2,2.1
	c0.6,0.4,1.2,0.7,1.9,0.8h17.2c0.7,0,1.4-0.7,2.1-1.1s-0.8-1.2-1.3-1.6c-2.3-1.4-3.6-3.9-3.4-6.5c0.2-8,0.1-16.1,0.1-24.2
	L374.8,27.7z M508.3,31.8c4,1.8,4.3,5.2,4.3,8.9v35c0.1,3.4-0.2,6.5-3.7,8.3c-0.5,0.5-0.8,1.2-0.8,2c0.5,0.4,1.1,0.7,1.7,0.7h16.9
	c0.8,0,1.5-0.7,2.2-1.1c-0.3-0.7-0.8-1.3-1.3-1.8c-2.1-1.3-3.3-3.7-3-6.1c0.1-7.9,0-15.9,0-23.9V27.6c0-3.3-1.7-4.2-4.7-3
	c-1.8,0.7-3.6,1.2-5.4,1.7l-8.2,2.8C507.2,30.4,507.6,31.5,508.3,31.8z M484.8,86.7h16.9c0.7-0.1,1.4-0.4,1.8-1
	c0.2-0.3-0.3-1.4-0.8-1.6c-3.8-2-3.7-5.4-3.7-8.9c0-16.1-0.1-32.3,0-48.4c0-2.2-0.7-3.2-3.1-2.4l-12,3.7c-0.8,0.3-2,0.9-2,1.5
	c0,0.9,0.5,1.8,1.3,2.3c3.8,2.1,4.3,5.7,4.3,9.4c0.1,11.8,0.1,23.7-0.1,35.5c0,2-1.1,4.1-2.1,6s-1.8,1.6-3.4,2.8
	C483.3,86.2,484,86.7,484.8,86.7z M397.7,58.2c4.2,8.8,7.9,17.9,12,26.7c0.8,1.4,2.1,2.4,3.7,2.9c2.2,0.5,3.5-1.1,4.4-3
	c2.9-6.7,5.8-13.3,8.8-19.9s3.8-12.4,10.3-15.7c0.5-0.5,0.8-1.3,0.7-2c-0.5-0.6-1.3-1-2.1-1c-3.5-0.1-7-0.1-10.5,0
	c-1.3,0.1-2.6,0.3-3.8,0.7c0.6,1.2,1.3,2.4,2.2,3.4c2.1,1.5,2.8,4.3,1.6,6.6c-1.9,4.5-3.5,9.1-5.4,13.6c-0.3,0.7-1.2,1.7-1.9,1.7
	s-1.5-1-1.9-1.8c-1.9-4.2-3.6-8.6-5.5-12.8s-2.4-5.9,0.6-8.8c1.4-1.5,0.5-2.7-1.6-2.6c-5.4,0-10.8-0.1-16.3,0
	c-0.8,0.1-1.6,0.4-2.3,0.8C393.3,51.1,395.9,54.5,397.7,58.2z M80,85.5h16.9c0.5,0,1.4-0.4,1.5-0.8c0-0.6-0.2-1.2-0.7-1.6
	c-3.1-2.3-3.5-5.5-3.4-9c0.1-8.5-0.1-17.1,0.1-25.6c0-2.8-1.3-3.4-3.4-2.9c-3.9,1-7.7,2.1-11.4,3.5C77,50,77,51.4,79.3,52.9
	c2.4,1.5,3.8,4.2,3.6,7c-0.1,3.9-0.1,7.8,0,11.7c0.2,4.9,0.4,9.8-5.7,13C78.1,85,79,85.3,80,85.5z M87.9,24.7
	c-2.9,0.1-6.8,4.2-6.7,7.1s3.8,6.6,6.9,6.5c3.7-0.2,6.6-3.1,6.8-6.8C94.9,28.5,90.9,24.6,87.9,24.7z"/>
</svg>
