<svg xmlns="http://www.w3.org/2000/svg" viewBox="0 0 292.91 46.61"><defs><style>.cls-1{fill:#d02c34;fill-rule:evenodd;}</style></defs><title>herald</title><g id="Layer_2" data-name="Layer 2"><g id="rhl"><path class="cls-1" d="M23.05,6.09c5.46.41,8.58,3.66,10.47,9.69l1.11-.27L32.07.07c-.83,1.42-3.73,1.08-4.95,1.08h-20C6,1.15,3.4,1.56,2.73.07L0,15.51l1.17.27C2.51,9.62,6.4,6.23,11.64,6.09V36.92c0,4.88-.78,7-4.4,7.12v1.69H27.45V44c-3.62-.07-4.4-2.24-4.4-7.12Z"/><path class="cls-1" d="M65.93,22.83c0-2.71-.06-6-1.45-8.2a6.35,6.35,0,0,0-5.68-3.18c-4.34,0-8.52,2.71-11.47,6.57V0L34,1V2.64c2.06.14,3,1.9,3,5.42V38.61C37,42.14,36,43.9,34,44v1.7H50.39V44c-2.06-.13-3-1.89-3-5.42l-.05-8.26a22.5,22.5,0,0,1,1-7.73c.78-2.16,2.45-4,4.45-4,2.68,0,2.73,3.25,2.73,5.56V38.61c-.11,3.53-1,5.29-3.11,5.42v1.7H68.88V44c-2.06-.13-3-1.89-2.95-5.42Z"/><path class="cls-1" d="M99.26,25C98,15.65,91.74,11.45,84.39,11.45c-8.69,0-16.65,5.89-16.65,17.34a18.2,18.2,0,0,0,5.74,13.82,17.4,17.4,0,0,0,11.58,4,35.89,35.89,0,0,0,7.07-.88,7.53,7.53,0,0,1,1.23-.21,2.87,2.87,0,0,1,1.78.89l3.45-13-1.17-.54C95.75,37.67,92.08,41,87.67,41c-5.23,0-7.9-5.29-8.46-11Zm-20.38.81c-.11-3.66,1.11-9.15,4.79-9.15,2.61,0,4.45,2.72,4.45,5.76l-.05,1.15Z"/><path class="cls-1" d="M133.63,17.75h11.08V36.92c0,5-.78,7-3.28,7.11v1.7h17.76V44c-2.28.07-3.06-2-3.06-6.77V9.62c0-4.74.78-6.84,3.06-6.77V1.15H141.43v1.7c2.28-.07,3.28,2,3.28,6.77v3.66H133.63V9.62c0-4.74,1-6.84,3.29-6.77V1.15H119.15v1.7c2.29-.07,3.07,2,3.07,6.77V37.26c0,4.74-.78,6.84-3.07,6.77v1.7h17.77V44c-2.51-.06-3.29-2.1-3.29-7.11Z"/><path class="cls-1" d="M189.68,25c-1.28-9.35-7.52-13.55-14.87-13.55-8.69,0-16.65,5.89-16.65,17.34a18.23,18.23,0,0,0,5.73,13.82,17.44,17.44,0,0,0,11.59,4,35.89,35.89,0,0,0,7.07-.88,7.42,7.42,0,0,1,1.22-.21,2.87,2.87,0,0,1,1.79.89l3.45-13-1.17-.54c-1.67,4.81-5.34,8.13-9.75,8.13-5.23,0-7.9-5.29-8.46-11Zm-20.38.81c-.11-3.66,1.11-9.15,4.78-9.15,2.62,0,4.46,2.72,4.46,5.76l-.06,1.15Z"/><path class="cls-1" d="M202.12,30.42c0-2.65-.17-5,.89-7.39.89-2.17,2.5-3.52,4.56-3.52a4.82,4.82,0,0,1,4.07,2l2-9.28a13,13,0,0,0-2.79-.47c-3.51,0-7.35,3.72-8.68,7.59-.17-2.58-.39-5.29-1.68-7.52l-11.8.94v1.7c2.06.13,3,1.89,3.06,5.42v18.7c0,3.59-1,5.35-3.06,5.48v1.7H205.4V44c-2.06-.13-3.23-1.89-3.28-5.42Z"/><path class="cls-1" d="M230.21,23.44c-6.62,1.22-18.54,4.13-18.54,14.63A8.18,8.18,0,0,0,220,46.61c3.4,0,8.19-1.83,10.19-5.42a9.76,9.76,0,0,0,1.95,4.54h11.58V44c-3.39-.4-3.06-4.33-3.06-7.45V24.25c0-3.66,0-7.86-2.68-10.36-2.11-2-5.73-2.44-8.35-2.44-3.67,0-6.73.88-10.24,1.83a8.8,8.8,0,0,1-2.23.4c-.83,0-1.28-.47-1.84-1.15l-1.11,12.13,1.11.13c1.73-4.94,5.35-8.19,9.86-8.19a5,5,0,0,1,4.23,1.76c.95,1.29.83,2.91.78,4.54Zm0,3.86c.06,4.13-.55,12.54-5.17,12.54-1.9,0-3-2.11-3-4.21a8.88,8.88,0,0,1,3.4-6.37,10.18,10.18,0,0,1,4.78-2"/><path class="cls-1" d="M256.17,0,242.7,1V2.64c2.06.14,3,1.9,3.07,5.42V38.61c-.06,3.53-1,5.29-3.07,5.43v1.69h16.6V44c-2.07-.14-3-1.9-3.13-5.43Z"/><path class="cls-1" d="M292.91,45.73V44c-2.05-.2-3-2-3.06-5.48V0L275.76,1V2.64c4,.14,3.68,3.93,3.68,7.72v1.36l-3.79-.27c-9.69,0-17.43,5.89-17.43,18.7,0,5.08,1.56,10.09,5.13,13,3.34,2.71,7.68,2.92,11.58,2.78l5.12-.13ZM279.44,16.32v18.5c0,3.12.39,6.71-3.06,6.71-5,0-7-6.78-7-11.93a18.67,18.67,0,0,1,2.06-8.74c1.39-2.57,3.79-4.67,6.35-4.67Z"/></g></g></svg>