<?xml version="1.0" encoding="utf-8"?>
<!-- Generator: Adobe Illustrator 23.0.6, SVG Export Plug-In . SVG Version: 6.00 Build 0)  -->
<svg version="1.1" id="Art" xmlns="http://www.w3.org/2000/svg" xmlns:xlink="http://www.w3.org/1999/xlink" x="0px" y="0px"
	 viewBox="0 0 512 512" style="enable-background:new 0 0 512 512;" xml:space="preserve">
<style type="text/css">
	.st0{fill:#98002E;}
	.st1{fill:#FFFFFF;}
	.st2{fill:#0021A5;}
	.st3{fill:none;stroke:#FFFFFF;stroke-width:5.3333;stroke-miterlimit:10;}
	.st4{fill:#F04C24;stroke:#FFFFFF;stroke-width:5.3333;stroke-miterlimit:10;}
	.st5{fill:#FA4616;}
	.st6{fill:#782F40;}
	.st7{fill:none;stroke:#FFFFFF;stroke-width:5.3378;stroke-miterlimit:10;}
	.st8{fill:#F04C24;stroke:#FFFFFF;stroke-width:5.3378;stroke-miterlimit:10;}
	.st9{fill:#CEB888;}
	.st10{fill:#0077C8;}
	.st11{fill:none;stroke:#000000;stroke-width:10.6667;stroke-miterlimit:10;}
	.st12{fill-rule:evenodd;clip-rule:evenodd;}
	.st13{fill-rule:evenodd;clip-rule:evenodd;stroke:#000000;stroke-width:2.6667;stroke-miterlimit:10;}
	.st14{fill:#005030;}
	.st15{fill:#F47321;}
	.st16{fill:#FCEE21;}
	.st17{fill:#E8E7E7;}
	.st18{fill:#A21D3E;}
	.st19{fill:#D98227;}
	.st20{fill:#72BE44;}
	.st21{fill:#231F20;}
	.st22{fill:#CAC8C8;}
	.st23{fill:#0033A0;}
	.st24{fill:#3A578C;}
	.st25{fill:#69BE28;}
	.st26{fill:#80A27B;}
	.st27{fill:#F7C421;}
	.st28{fill:#0039A6;}
	.st29{fill:#F9461C;}
	.st30{fill:#F2F2F2;}
	.st31{fill:#0085CA;}
	.st32{fill:#008CA8;}
	.st33{fill:#FFFFFF;stroke:#FFFFFF;stroke-width:5.3378;stroke-miterlimit:10;}
	.st34{fill:#1D1160;}
	.st35{fill:#FF0000;}
	.st36{fill:#DA291C;}
	.st37{fill:#1E4971;}
	.st38{fill:#5DA423;}
	.st39{fill:#C41230;}
	.st40{fill:#004B8D;}
	.st41{fill:#E4E416;}
	.st42{fill:none;stroke:#FFFF00;stroke-width:10.6667;stroke-miterlimit:10;}
	.st43{fill:url(#SVGID_1_);}
	.st44{fill-rule:evenodd;clip-rule:evenodd;fill:#FCD6C2;}
	.st45{fill-rule:evenodd;clip-rule:evenodd;fill:#FFFFFF;}
	.st46{clip-path:url(#SVGID_3_);}
	.st47{fill-rule:evenodd;clip-rule:evenodd;fill:#231F20;}
	.st48{fill-rule:evenodd;clip-rule:evenodd;fill:none;}
	.st49{fill-rule:evenodd;clip-rule:evenodd;fill:url(#SVGID_4_);}
	.st50{fill:url(#SVGID_5_);}
	.st51{filter:url(#Adobe_OpacityMaskFilter);}
	.st52{fill-rule:evenodd;clip-rule:evenodd;fill:url(#SVGID_7_);}
	.st53{mask:url(#SVGID_6_);}
	.st54{fill-rule:evenodd;clip-rule:evenodd;fill:#FBE5D5;}
	.st55{fill:url(#SVGID_8_);}
	.st56{fill:url(#SVGID_9_);}
	.st57{fill:url(#SVGID_10_);}
	.st58{fill:url(#SVGID_11_);}
	.st59{opacity:0.55;fill:url(#SVGID_12_);}
	.st60{opacity:0.55;fill:url(#SVGID_13_);}
	.st61{opacity:0.55;fill:url(#SVGID_14_);}
	.st62{opacity:0.55;fill:url(#SVGID_15_);}
	.st63{clip-path:url(#SVGID_17_);fill:url(#SVGID_18_);}
	.st64{opacity:0.46;fill:#FFFFFF;}
	.st65{opacity:0.61;fill:url(#SVGID_19_);}
	.st66{filter:url(#Adobe_OpacityMaskFilter_1_);}
	.st67{opacity:0.49;mask:url(#SVGID_20_);}
	.st68{fill:url(#SVGID_21_);}
	.st69{fill:#007980;}
	.st70{fill:#219DA7;}
	.st71{fill:#F04C24;}
	.st72{fill:#7AB2DD;}
	.st73{fill:#004687;}
	.st74{fill:#002A5C;}
	.st75{fill:#93B1D7;}
	.st76{fill:#CA2430;}
	.st77{fill:#9E1721;}
	.st78{fill:#0050BA;}
	.st79{fill:#E8000D;}
	.st80{clip-path:url(#SVGID_23_);fill:#E4A710;}
	.st81{clip-path:url(#SVGID_25_);}
	.st82{fill:#FFDD15;}
	.st83{filter:url(#Adobe_OpacityMaskFilter_2_);}
	.st84{opacity:0.3;mask:url(#SVGID_26_);}
	.st85{fill:#FAAF40;}
	.st86{opacity:0.2;clip-path:url(#SVGID_25_);}
	.st87{opacity:0.5;clip-path:url(#SVGID_25_);fill:#FAAF40;}
	.st88{clip-path:url(#SVGID_25_);fill:#FFCA05;}
</style>
<g>
	<path class="st22" d="M1.3,511.9H512c0-0.3-0.1-0.7-0.1-1V0H0v512C0.4,512,0.9,511.9,1.3,511.9z"/>
	<path class="st1" d="M225.4,0c-5.7,17.6-3.1,37.2,7.8,59.2c46.3-26,98.4-45.8,156.1-59.2H225.4z"/>
	<path class="st1" d="M164.8,511.9h298.1c-199-83.6-311.4-180.9-374.6-265.8c-9.6,16-17.9,32.2-25.2,48.2
		C125.4,345.7,152.3,424.8,164.8,511.9z"/>
	<path class="st1" d="M38.2,162.9C9.1,99.7,2.3,44.8,2.2,7.1C1.5,7.9,0.8,8.7,0,9.5V266c11.3,0.4,22.6,3.4,33.9,8.8
		C43.2,255,54,235,66.8,215.2C55.2,196.9,45.8,179.3,38.2,162.9z"/>
	<path class="st1" d="M189.9,0H36.8C36,34,41.1,88.1,70.5,150.9c5,10.7,11,22,17.8,33.6c6.8-8.9,13.9-17.7,21.5-26.3
		c27.4-31,58.7-58,93.8-81.1C189.7,49.9,185.1,24,189.9,0z"/>
	<path class="st1" d="M511.9,16c-101.5,8.1-188.7,32.3-260.5,72.4c57.8,75.2,172.1,105,260.5,116V16z"/>
	<path class="st1" d="M511.9,238.9c-98.3-12.3-226.1-47.2-290-132.6c-32.3,21.3-61,46.2-86.2,74.7c-9.9,11.2-19,22.8-27.3,34.5
		C170,303,287.7,407.3,511.9,494.8V238.9z"/>
	<path class="st1" d="M0,300.4V370c5.2-20.4,11.9-41.7,20.4-63.6C13.4,302.9,6.6,300.9,0,300.4z"/>
	<path class="st1" d="M130,511.9c-11.1-73.7-33.3-140-80.7-184c-29.1,79.8-33.2,152-33.4,184H130z"/>
	<g>
		<path class="st23" d="M44.4,296.8v-63.9h19V259L79,232.9h18.9l-18.3,29.6l20.2,34.3H78.5l-15.2-26.7v26.7H44.4z"/>
		<path class="st23" d="M104.7,232.9h40.9V247h-21.9v9.9h19.8v14.2h-19.8v11.4h22.3v14.2h-41.2V232.9z"/>
		<path class="st23" d="M155.8,296.8v-63.9h19l18.9,32.6v-32.6h15.7v63.9h-16.9l-21-36.5v36.5H155.8z"/>
		<path class="st23" d="M231.4,247h-15.2v-14.2h49.3V247h-15.2v49.7h-19V247z"/>
		<path class="st23" d="M298.8,283.2c4.4,0,7.9-2.2,7.9-9.5v-40.9h17.2v39.2c0,17.6-9.5,25.9-26,25.9c-15.5,0-26-8-26-25.9v-39.2h19
			v41C290.9,281,294.8,283.2,298.8,283.2z"/>
		<path class="st23" d="M382.4,293.1c-2.7,2.2-10,4.6-17.6,4.6c-19.9,0-33.2-10.1-33.2-32.1c0-21.9,14.5-33.6,33.1-33.6
			c7.9,0,13.1,1.5,16.8,3.2l-4.4,14.7c-2.5-1.2-7.3-2.4-11.1-2.4c-9.4,0-15.1,6.4-15.1,17.9c0,11.5,6.1,16.7,15.3,16.7
			c4.9,0,8.9-1.6,11.4-3.2L382.4,293.1z"/>
		<path class="st23" d="M390,296.8v-63.9h19V259l15.7-26.1h18.9l-18.3,29.6l20.2,34.3h-21.3l-15.2-26.7v26.7H390z"/>
		<path class="st23" d="M462.7,271.3l-18.6-38.4h19.6l9.7,20.8l9.5-20.8h16.5l-17.8,37.2v26.7h-19V271.3z"/>
		<path class="st23" d="M191.5,333.6c-4.2,0-6.6,1.1-6.6,3.8c0,4.3,10.8,4.5,20.2,10.3c5,3.2,7.8,7.7,7.8,15.3
			c0,13.5-8.9,21.5-25.4,21.5c-10.4,0-16.9-2-21.8-4.9l5-14.7c4.4,2.3,9.4,4.3,16.3,4.3c6.2,0,8.1-1.6,8.1-4.4
			c0-4.9-12.2-4.9-19.6-9.6c-3.8-2.4-7.8-7-7.8-16c0-13.1,8.9-20.6,24.2-20.6c8.8,0,15.4,2.3,19.4,4.3l-4.4,14.4
			C203.9,335.8,197,333.6,191.5,333.6z"/>
		<path class="st23" d="M219.4,319.6h26.2c12.5,0,22.2,7.2,22.2,21.8c0,14.3-11.4,20.6-22.2,20.6h-7.5v21.6h-18.7V319.6z
			 M238.1,333.8v14.4h4.9c4.2,0,6.8-2.4,6.8-7.1c0-4.7-2.6-7.3-6.8-7.3H238.1z"/>
		<path class="st23" d="M304.4,384.9c-17.2,0-31.7-11.3-31.7-33c-0.1-21.3,14.4-33.7,31.7-33.7c17.2,0,31.7,12.4,31.8,33.7
			C336.2,373.3,321.7,384.9,304.4,384.9z M304.4,369.4c7.3,0,12.5-5.6,12.4-17.7c0-12.1-5-18-12.4-18c-7.3,0-12.4,5.9-12.4,18
			C292.1,363.9,297.1,369.4,304.4,369.4z"/>
		<path class="st23" d="M344.2,319.6h28.4c11.6,0,21.4,6.7,21.4,20.6c0,8.5-4.8,14.4-10.8,17.7l13.6,25.6h-20L365.1,361h-1.9v22.4
			h-19V319.6z M363.2,333.6v14.8h6.1c4.3,0,6.8-2.8,6.8-7.7c0-4.9-2.7-7.2-6.7-7.2H363.2z"/>
		<path class="st23" d="M414.5,333.7h-15.2v-14.2h49.3v14.2h-15.2v49.7h-19V333.7z"/>
		<path class="st23" d="M476.1,333.6c-4.2,0-6.6,1.1-6.6,3.8c0,4.3,10.8,4.5,20.2,10.3c5,3.2,7.8,7.7,7.8,15.3
			c0,13.5-8.9,21.5-25.4,21.5c-10.4,0-16.9-2-21.8-4.9l5-14.7c4.4,2.3,9.4,4.3,16.3,4.3c6.2,0,8.1-1.6,8.1-4.4
			c0-4.9-12.2-4.9-19.6-9.6c-3.8-2.4-7.8-7-7.8-16c0-13.1,8.9-20.6,24.2-20.6c8.8,0,15.4,2.3,19.4,4.3l-4.4,14.4
			C488.5,335.8,481.7,333.6,476.1,333.6z"/>
	</g>
</g>
</svg>
