<svg xmlns="http://www.w3.org/2000/svg" viewBox="0 0 512 512">
  <title>bradenton-herald</title>
  <g id="Layer_2" data-name="Layer 2">
    <g id="Art">
      <rect width="512" height="512" fill="#1e4971"/>
      <g>
        <path d="M398.9,234.4V185.8c0-35.8-2.6-39.8-29.2-43.4v-4.7H456v4.7c-27.9,3.6-30.5,7.6-30.5,43.4V304.9c0,35.8,2.6,39.8,29.8,43.4V353H367.1v-4.7c29.2-3.6,31.8-7.6,31.8-43.4V244.4H282.5v60.5c0,35.8,2.6,39.8,29.9,43.4V353H226.1v-4.7c27.2-3.6,29.9-7.6,29.9-43.4V185.8c0-35.8-2.7-39.8-31.2-43.4v-4.7H311v4.7c-25.9,3.6-28.5,7.6-28.5,43.4v48.6Z" fill="#f5f5f5"/>
        <path d="M112.8,239.1V310c0,21.7,4.2,29.2,27.8,28.9,27,0,50-13.7,50-48.1s-25.9-51.7-59.1-51.7Zm0-9.4h20.3c31,0,46.5-14.6,46.5-41.3,0-19.4-8.1-41.2-46.2-41.2-10.6,0-15.1,1-17.7,1.9s-2.9,2-2.9,8.5v72.1Zm31.6-92c23.2,0,36.5,4,47.1,11.4s16.8,19.5,16.8,35.8c0,28.6-26.8,42.5-42.3,46.4v.7c29.4,4.2,55.9,21.7,55.9,54.6,0,23-11.3,39.3-30,50-16.5,9.1-37.2,12.3-61.7,12.3H56v-7.4c27.1-2,29.7-4.3,29.7-39.7V184.9c-.3-35.4-2.3-37.7-27.8-39.7v-7.5Z" fill="#f5f5f5"/>
        <rect x="57.8" y="365" width="398.2" height="9.26" fill="#00a0e3"/>
      </g>
    </g>
  </g>
</svg>
