<svg xmlns="http://www.w3.org/2000/svg" width="709.3" height="67.8" viewBox="0 0 709.3 67.8"><title>FWSTlogo</title><path d="M271.5,61.6a19.2,19.2,0,0,1-8.1,1.6c-5.9,0-9.3-4.2-9.3-9.8V32.9h-3.8V26.3h3.9l3.3-9.4h5.7v9.4h6.6v6.6h-6.6V52.6a2.9,2.9,0,0,0,3,3.2,6.5,6.5,0,0,0,3.5-1l1.8,6.8Z" transform="translate(-11.1 -8.6)" fill="#231f20"/><path d="M720.4,63.3H702.3V57.6l4.6-.9V38.6c0-3.2-1.9-4.8-4.6-4.8a12.6,12.6,0,0,0-7.2,2.7V56.7l4.7.9v5.7H681.5V57.6l4.6-.9v-18c0-3.6-2.2-4.9-4.6-4.9s-6.1,1.6-7.1,2.8V56.7l4.5.9v5.7H660.8V57.6l4.6-.9V33.4l-4.6-.9V26.7h12.8v3.8h.2a15.4,15.4,0,0,1,10.1-4.2c5.1,0,7.4,1.8,8.7,3.9a19.2,19.2,0,0,1,12.2-4c6.8,0,11,4.4,11,10.8V56.7l4.6.9v5.7Z" transform="translate(-11.1 -8.6)" fill="#231f20"/><path d="M627.3,27.6,626,35.4a14.7,14.7,0,0,0-4.9-1.2c-3.6,0-6.9,3.6-6.9,8.3V56.7l5.1.9v5.7H600.5V57.6l4.7-.9V33.4l-4.7-.9V26.7h13.1v4.4h.2a9.4,9.4,0,0,1,8.3-4.7,12.4,12.4,0,0,1,5.2,1.2Z" transform="translate(-11.1 -8.6)" fill="#231f20"/><polygon points="517.8 54.7 499.7 54.7 499.7 49 504.2 48.1 504.2 7.5 499.7 6.6 499.7 0.9 513.3 0.9 513.3 48.1 517.8 49 517.8 54.7 517.8 54.7" fill="#231f20"/><polygon points="477.3 17.4 471.1 17.4 469.2 9 460.9 9 460.9 47.1 466.6 47.9 466.6 54.7 443.9 54.7 443.9 47.9 449.8 47.1 449.8 9 441.2 9 439.6 17.4 433.3 17.4 433.3 0.9 477.3 0.9 477.3 17.4 477.3 17.4" fill="#231f20"/><polygon points="440.3 38.8 426.1 38.8 426.1 31.8 440.3 31.8 440.3 38.8 440.3 38.8" fill="#231f20"/><path d="M440.1,27.6l-1.4,7.8a14.7,14.7,0,0,0-4.9-1.2c-3.6,0-6.9,3.6-6.9,8.3V56.7l5.1.9v5.7H413.2V57.6l4.7-.9V33.4l-4.7-.9V26.7h13.2v4.4h.1a9.6,9.6,0,0,1,8.3-4.7,13.4,13.4,0,0,1,5.3,1.2Z" transform="translate(-11.1 -8.6)" fill="#231f20"/><path d="M378.6,62.1a19.9,19.9,0,0,1-8.1,1.5c-6,0-9.3-4.1-9.3-9.8V33.4h-3.8V26.7h3.9l3.3-9.3h5.7v9.3h6.6v6.7h-6.6V53.1a2.9,2.9,0,0,0,3,3.2,6.5,6.5,0,0,0,3.5-1l1.8,6.8Z" transform="translate(-11.1 -8.6)" fill="#231f20"/><path d="M358.2,49.4c0,8.8-7,14.5-17,14.5A56.1,56.1,0,0,1,324.1,61V46.9h6.4l1.8,7.6a18.4,18.4,0,0,0,7.9,1.8c4.8,0,7.6-2.4,7.6-6.7s-1.3-5.2-6.7-8.6l-7.2-4.6c-5.5-3.4-9.7-7.8-9.7-14.2,0-9.1,7.2-13.6,16.8-13.6a54.1,54.1,0,0,1,14.5,2.6V24.9h-6.2l-1.8-7.1a12.2,12.2,0,0,0-6.4-1.5c-4.1,0-6.4,2.2-6.4,5.1s2.1,4.4,5.9,6.7l7,4.4c7.2,4.4,10.6,9.6,10.6,16.9Z" transform="translate(-11.1 -8.6)" fill="#231f20"/><path d="M658.9,63.3h-13l-.2-2h-.1a15.8,15.8,0,0,1-8.4,2.4c-6,0-11.7-4.5-11.7-12.2s6.4-12.2,13.2-12.2a23.9,23.9,0,0,1,6.6.9V38c0-2.7-1.7-4.5-5.6-4.5a15.7,15.7,0,0,0-8,2.8l-1.9-7.5a22.4,22.4,0,0,1,11.3-2.6c7.6,0,13.2,4.3,13.2,11.1V56.7l4.6.9v5.7Zm-13.6-7.8v-9a14.6,14.6,0,0,0-4.8-.9c-3.3,0-5.8,1.9-5.8,5.7s2.7,5.3,5.6,5.3a12.3,12.3,0,0,0,5-1.1Z" transform="translate(-11.1 -8.6)" fill="#231f20"/><path d="M598.7,32.5l-4.6.9V62.5c0,9.3-7.6,13.9-17.1,13.9a29.2,29.2,0,0,1-12.9-2.7l2.3-8.2a20.5,20.5,0,0,0,9.9,3.3c6.6,0,8.8-2.6,8.8-5.8V61.2a11.6,11.6,0,0,1-7.5,2.5c-10.1,0-16-7.3-16-18.9,0-9.8,5.3-18.7,15.3-18.7,4,0,7.1,1.3,8.9,3.1h.2V26.7h12.7v5.8ZM585.1,53.7V36.2a8.8,8.8,0,0,0-6.9-2.8c-4.1,0-6.9,3.9-6.9,11.5s2.5,11.5,7.1,11.5a10.7,10.7,0,0,0,6.7-2.7Z" transform="translate(-11.1 -8.6)" fill="#231f20"/><path d="M559.9,42.7c0,1.8,0,3.6-.1,4.8H538.3c.2,4.8,3.1,8.9,8.7,8.9a14.2,14.2,0,0,0,9.4-3.3l1.9,7.5c-2.2,1.5-5.8,3.1-11.7,3.1-12.1,0-18-7.2-18-18.7s5.9-18.9,16.3-18.9,15,7.6,15,16.6Zm-9.3-2.6c-.2-3.8-2.2-6.7-5.7-6.7a6.8,6.8,0,0,0-6.6,6.7Z" transform="translate(-11.1 -8.6)" fill="#231f20"/><path d="M510,42.7c0,1.8,0,3.6-.1,4.8H488.4c.2,4.8,3.1,8.9,8.7,8.9a14.2,14.2,0,0,0,9.4-3.3l1.9,7.5c-2.2,1.5-5.8,3.1-11.7,3.1-12.1,0-18-7.2-18-18.7s5.9-18.9,16.3-18.9,15,7.6,15,16.6Zm-9.3-2.6c-.2-3.8-2.2-6.7-5.7-6.7a6.8,6.8,0,0,0-6.6,6.7Z" transform="translate(-11.1 -8.6)" fill="#231f20"/><path d="M411.2,63.3H398.3l-.2-2h-.2a15.3,15.3,0,0,1-8.4,2.4c-6,0-11.6-4.5-11.6-12.2s6.4-12.2,13.1-12.2a24.1,24.1,0,0,1,6.7.9V38c0-2.7-1.7-4.5-5.6-4.5a16.1,16.1,0,0,0-8.1,2.8l-1.8-7.5a22.1,22.1,0,0,1,11.3-2.6c7.6,0,13.1,4.3,13.1,11.1V56.7l4.6.9v5.7Zm-13.5-7.8v-9a14.6,14.6,0,0,0-4.8-.9c-3.4,0-5.8,1.9-5.8,5.7s2.6,5.3,5.6,5.3a12.3,12.3,0,0,0,5-1.1Z" transform="translate(-11.1 -8.6)" fill="#231f20"/><path d="M271.5,63.2" transform="translate(-11.1 -8.6)" stroke="#000" stroke-width="0"/><path d="M312.8,63.2H294.6V57.6l4.7-.9V38.4c0-3.6-2.2-4.9-4.7-4.9s-6.7,2.6-7.7,3.7V56.7l4.6.9v5.6H273.2V57.6l4.7-.9V16.3l-4.7-.7V9.8h13.7V30.1a15.6,15.6,0,0,1,10.2-4c7.2,0,11.1,4.4,11.1,11.5V56.7l4.6.9Z" transform="translate(-11.1 -8.6)" stroke="#000" stroke-width="0"/><path d="M314.6,63.2" transform="translate(-11.1 -8.6)" stroke="#000" stroke-width="0"/><path d="M130.2,63.2" transform="translate(-11.1 -8.6)" stroke="#000" stroke-width="0"/><polygon points="185.6 8.2 180.8 9 168.6 54.6 158.6 54.6 153 33.9 147.3 54.6 137.4 54.6 125.2 9 120.1 8.3 120.1 2.3 139.9 2.3 139.9 8.2 135.5 9 143.3 42.4 149 18.5 146.4 9 142.3 8.3 142.3 2.3 161.9 2.3 161.9 8.2 156.8 9 164.6 42.2 172.5 9 167.2 8.3 167.2 2.3 185.6 2.3 185.6 8.2" stroke="#000" stroke-width="0"/><path d="M197.7,63.2" transform="translate(-11.1 -8.6)" stroke="#000" stroke-width="0"/><path d="M9.4,63.2" transform="translate(-11.1 -8.6)" stroke="#000" stroke-width="0"/><polygon points="39.4 16.6 33.9 16.6 32.3 9.1 16.5 9.1 16.5 26.2 22.6 26.2 23.5 21.6 28.7 21.6 28.7 37.6 23.5 37.6 22.6 32.7 16.5 32.7 16.5 47.7 22.3 48.5 22.3 54.6 0 54.6 0 48.5 5.8 47.7 5.8 9.1 0 8.3 0 2.3 39.4 2.3 39.4 16.6" stroke="#000" stroke-width="0"/><path d="M51.7,63.2" transform="translate(-11.1 -8.6)" stroke="#000" stroke-width="0"/><path d="M187.5,62.4" transform="translate(-11.1 -8.6)"/><path d="M222.8,43.7c0,11.9-6.9,19.5-17,19.5s-17.1-8.4-17.1-19.5,7.2-18.5,17.1-18.5S222.8,32.1,222.8,43.7Zm-9.1,0c0-7.8-4-11.2-7.9-11.2s-8,3.6-8,11.2,3,12.2,8,12.2S213.7,50.8,213.7,43.7Z" transform="translate(-11.1 -8.6)"/><path d="M224,62.4" transform="translate(-11.1 -8.6)"/><path d="M249,27.5l-1.4,7.8a11.8,11.8,0,0,0-4.9-1.2c-3.6,0-6.9,3.6-6.9,8.3V56.6l5.1.9v5.7H222.1V57.5l4.7-.9V33.3l-4.7-.9V26.6h13.2V31h.1a9.6,9.6,0,0,1,8.3-4.7,13.4,13.4,0,0,1,5.3,1.2Z" transform="translate(-11.1 -8.6)" fill="#231f20"/><path d="M125.3,61.5a19.1,19.1,0,0,1-8.1,1.5c-5.9,0-9.3-4.1-9.3-9.7V32.8h-3.7V26.1H108l3.3-9.3H117v9.3h6.6v6.7H117V52.5a2.9,2.9,0,0,0,3,3.2,6.3,6.3,0,0,0,3.5-1l1.8,6.8Z" transform="translate(-11.1 -8.6)" fill="#231f20"/><path d="M41.3,62.3" transform="translate(-11.1 -8.6)"/><path d="M76.6,43.6c0,11.8-6.9,19.4-17,19.4S42.5,54.7,42.5,43.6s7.2-18.5,17.1-18.5S76.6,31.9,76.6,43.6Zm-9.1,0c0-7.9-4-11.3-7.9-11.3s-8,3.7-8,11.3,3,12.2,8,12.2S67.5,50.7,67.5,43.6Z" transform="translate(-11.1 -8.6)"/><path d="M77.8,62.3" transform="translate(-11.1 -8.6)"/><path d="M102.8,27.4l-1.4,7.8a11.8,11.8,0,0,0-4.9-1.3c-3.6,0-6.9,3.6-6.9,8.4V56.4l5.1.9V63H75.9V57.3l4.7-.9V33.1l-4.7-.9V26.5H89.1v4.3h.1a9.6,9.6,0,0,1,8.3-4.7,12.8,12.8,0,0,1,5.3,1.3Z" transform="translate(-11.1 -8.6)" fill="#231f20"/></svg>