<svg xmlns="http://www.w3.org/2000/svg" viewBox="0 0 294.93 41.6"><title>centre-daily-times</title><g id="Layer_2" data-name="Layer 2"><g id="stc"><path d="M11.6,31.51v6.24A3.83,3.83,0,0,1,7.8,41.6H3.85A3.85,3.85,0,0,1,0,37.75V3.85A3.85,3.85,0,0,1,3.85,0h4a3.83,3.83,0,0,1,3.8,3.85V8.16H7.8V3.33H3.85V38.27h4V31.51Z"/><path d="M22.2,38.27h5.67V41.6H18.36V0h9.51V3.33H22.2V19.14H27v3.32H22.2Z"/><path d="M43.57,23.5,43.36,0H47V41.6H44L38.22,15.39l.26,26.21H34.89V0h3.59Z"/><path d="M57,3.33H53.19V0H64.68V3.33H60.84V41.6H57Z"/><path d="M70.92,0h7.8a3.83,3.83,0,0,1,3.8,3.85V18.72a3.85,3.85,0,0,1-3.07,3.79l3.8,19.09H79.4l-3.49-19H74.77v19H70.92Zm3.85,19.24h4V3.33h-4Z"/><path d="M93.39,38.27h5.66V41.6H89.54V0h9.51V3.33H93.39V19.14h4.83v3.32H93.39Z"/><path d="M119.8,0h7.75a3.85,3.85,0,0,1,3.85,3.85v33.9a3.85,3.85,0,0,1-3.85,3.85H119.8Zm3.8,38.27h4V3.33h-4Z"/><path d="M141.85,31.67l-1,9.93h-3.59L141.9,0h3.95l4.63,41.6h-3.85l-.93-9.93Zm3.53-3.33-1.61-16.43-1.61,16.43Z"/><path d="M156.72,0h3.84V41.6h-3.84Z"/><path d="M172.47,38.27h5.46V41.6h-9.31V0h3.85Z"/><path d="M189.63,22.51V41.6h-3.84V22.51L180.8,0h3.84l3.23,16.75,3-16.75h3.84Z"/><path d="M216.72,3.33h-3.84V0h11.49V3.33h-3.85V41.6h-3.8Z"/><path d="M230.87,0h3.85V41.6h-3.85Z"/><path d="M250.06,33.49l-4-18.1.26,26.21h-3.58V0h3.58l5.1,23.5L256.35,0h3.59V41.6h-3.59l.21-26.21-4,18.1Z"/><path d="M271.58,38.27h5.67V41.6h-9.52V0h9.52V3.33h-5.67V19.14h4.84v3.32h-4.84Z"/><path d="M283.59,3.85A3.83,3.83,0,0,1,287.39,0h3.74a3.83,3.83,0,0,1,3.8,3.85V9.72h-3.8V3.33h-3.74v7.9a6.08,6.08,0,0,0,.94,3.23l5.3,9a7.39,7.39,0,0,1,1.3,4.47v9.83a3.83,3.83,0,0,1-3.8,3.85h-3.95a3.85,3.85,0,0,1-3.85-3.85V31.51h3.85v6.76h3.95V28.39a6.12,6.12,0,0,0-.93-3.22l-5.3-9a7.24,7.24,0,0,1-1.31-4.47Z"/></g></g></svg>