<?xml version="1.0" encoding="utf-8"?>
<!-- Generator: Adobe Illustrator 23.0.6, SVG Export Plug-In . SVG Version: 6.00 Build 0)  -->
<svg version="1.1" id="Art" xmlns="http://www.w3.org/2000/svg" xmlns:xlink="http://www.w3.org/1999/xlink" x="0px" y="0px"
	 viewBox="0 0 512 512" style="enable-background:new 0 0 512 512;" xml:space="preserve">
<style type="text/css">
	.st0{fill:#98002E;}
	.st1{fill:#FFFFFF;}
	.st2{fill:#0021A5;}
	.st3{fill:none;stroke:#FFFFFF;stroke-width:5.3333;stroke-miterlimit:10;}
	.st4{fill:#F04C24;stroke:#FFFFFF;stroke-width:5.3333;stroke-miterlimit:10;}
	.st5{fill:#FA4616;}
	.st6{fill:#782F40;}
	.st7{fill:none;stroke:#FFFFFF;stroke-width:5.3378;stroke-miterlimit:10;}
	.st8{fill:#F04C24;stroke:#FFFFFF;stroke-width:5.3378;stroke-miterlimit:10;}
	.st9{fill:#CEB888;}
	.st10{fill:#0077C8;}
	.st11{fill:none;stroke:#000000;stroke-width:10.6667;stroke-miterlimit:10;}
	.st12{fill-rule:evenodd;clip-rule:evenodd;}
	.st13{fill-rule:evenodd;clip-rule:evenodd;stroke:#000000;stroke-width:2.6667;stroke-miterlimit:10;}
	.st14{fill:#005030;}
	.st15{fill:#F47321;}
	.st16{fill:#FCEE21;}
	.st17{fill:#E8E7E7;}
	.st18{fill:#A21D3E;}
	.st19{fill:#D98227;}
	.st20{fill:#72BE44;}
	.st21{fill:#231F20;}
	.st22{fill:#CAC8C8;}
	.st23{fill:#0033A0;}
	.st24{fill:#3A578C;}
	.st25{fill:#69BE28;}
	.st26{fill:#80A27B;}
	.st27{fill:#F7C421;}
	.st28{fill:#0039A6;}
	.st29{fill:#F9461C;}
	.st30{fill:#F2F2F2;}
	.st31{fill:#0085CA;}
	.st32{fill:#008CA8;}
	.st33{fill:#FFFFFF;stroke:#FFFFFF;stroke-width:5.3378;stroke-miterlimit:10;}
	.st34{fill:#1D1160;}
	.st35{fill:#FF0000;}
	.st36{fill:#DA291C;}
	.st37{fill:#1E4971;}
	.st38{fill:#5DA423;}
	.st39{fill:#C41230;}
	.st40{fill:#004B8D;}
	.st41{fill:#E4E416;}
	.st42{fill:none;stroke:#FFFF00;stroke-width:10.6667;stroke-miterlimit:10;}
	.st43{fill:url(#SVGID_1_);}
	.st44{fill-rule:evenodd;clip-rule:evenodd;fill:#FCD6C2;}
	.st45{fill-rule:evenodd;clip-rule:evenodd;fill:#FFFFFF;}
	.st46{clip-path:url(#SVGID_3_);}
	.st47{fill-rule:evenodd;clip-rule:evenodd;fill:#231F20;}
	.st48{fill-rule:evenodd;clip-rule:evenodd;fill:none;}
	.st49{fill-rule:evenodd;clip-rule:evenodd;fill:url(#SVGID_4_);}
	.st50{fill:url(#SVGID_5_);}
	.st51{filter:url(#Adobe_OpacityMaskFilter);}
	.st52{fill-rule:evenodd;clip-rule:evenodd;fill:url(#SVGID_7_);}
	.st53{mask:url(#SVGID_6_);}
	.st54{fill-rule:evenodd;clip-rule:evenodd;fill:#FBE5D5;}
	.st55{fill:url(#SVGID_8_);}
	.st56{fill:url(#SVGID_9_);}
	.st57{fill:url(#SVGID_10_);}
	.st58{fill:url(#SVGID_11_);}
	.st59{opacity:0.55;fill:url(#SVGID_12_);}
	.st60{opacity:0.55;fill:url(#SVGID_13_);}
	.st61{opacity:0.55;fill:url(#SVGID_14_);}
	.st62{opacity:0.55;fill:url(#SVGID_15_);}
	.st63{clip-path:url(#SVGID_17_);fill:url(#SVGID_18_);}
	.st64{opacity:0.46;fill:#FFFFFF;}
	.st65{opacity:0.61;fill:url(#SVGID_19_);}
	.st66{filter:url(#Adobe_OpacityMaskFilter_1_);}
	.st67{opacity:0.49;mask:url(#SVGID_20_);}
	.st68{fill:url(#SVGID_21_);}
	.st69{fill:#007980;}
	.st70{fill:#219DA7;}
	.st71{fill:#F04C24;}
	.st72{fill:#7AB2DD;}
	.st73{fill:#004687;}
	.st74{fill:#002A5C;}
	.st75{fill:#93B1D7;}
	.st76{fill:#CA2430;}
	.st77{fill:#9E1721;}
	.st78{fill:#0050BA;}
	.st79{fill:#E8000D;}
	.st80{clip-path:url(#SVGID_23_);fill:#E4A710;}
	.st81{clip-path:url(#SVGID_25_);}
	.st82{fill:#FFDD15;}
	.st83{filter:url(#Adobe_OpacityMaskFilter_2_);}
	.st84{opacity:0.3;mask:url(#SVGID_26_);}
	.st85{fill:#FAAF40;}
	.st86{opacity:0.2;clip-path:url(#SVGID_25_);}
	.st87{opacity:0.5;clip-path:url(#SVGID_25_);fill:#FAAF40;}
	.st88{clip-path:url(#SVGID_25_);fill:#FFCA05;}
</style>
<g>
	<rect class="st39" width="512" height="512"/>
	<g>
		<rect y="213.8" class="st1" width="512" height="178.2"/>
		<g>
			<path class="st1" d="M35.2,116.2h26c12.9,0,23.3,5.8,23.3,19.2c0,7.2-3.9,11.9-10,14.5c7.8,2.5,13,7.8,13,16.3
				c0,13.2-11.6,20.6-24.5,20.6H35.2V116.2z M53.3,128.2v16.4h5.9c5.1,0,8.3-2.8,8.3-8.4c0-5.5-3.2-8-8.3-8H53.3z M53.3,156.5v18.2
				h7.3c5.2,0,9.1-3.6,9.1-9.4c0-5.8-3.9-8.8-9.1-8.8H53.3z"/>
			<path class="st1" d="M125.5,173.9c6.1,0,10.6-3.2,10.6-12.3v-45.4h16.6V160c0,18.1-10.7,28.2-28.2,28.2c-17,0-28.2-9.1-28.2-28.2
				v-43.8h18.2v45.4C114.6,171.1,119.3,173.9,125.5,173.9z"/>
			<path class="st1" d="M166.3,116.2h18.2v56.9h25.7v13.7h-44V116.2z"/>
			<path class="st1" d="M220.8,116.2H239v56.9h25.7v13.7h-44V116.2z"/>
			<path class="st1" d="M275.3,116.2h24.3c18.1,0,34.8,12.1,34.8,35.6c0,23.7-16.6,35-34.8,35h-24.3V116.2z M293.6,129.8v43.3h4.9
				c10.1,0,17.3-6.8,17.3-21.5c0-14.5-7.2-21.8-17.3-21.8H293.6z"/>
			<path class="st1" d="M377,188.4c-17.7,0-34.8-12.6-34.8-36.5c0-23.6,17.1-37.2,34.8-37.2c17.8,0,34.9,13.7,34.9,37.2
				C411.9,175.6,394.8,188.4,377,188.4z M377,173.5c9.3,0,16.3-7.1,16.3-21.8c0-14.7-7-22.2-16.3-22.2c-9.2,0-16.2,7.4-16.2,22.2
				C360.9,166.5,367.9,173.5,377,173.5z"/>
			<path class="st1" d="M454,188.4c-18.8,0-34.7-12.2-34.7-36.3c0-24.2,17.4-37.4,37.8-37.4c8.1,0,15.1,1.4,19.5,3.1l-4.4,14.3
				c-2.8-1.2-9.3-2.5-13.8-2.5c-11.3,0-20.4,6.8-20.4,22.3c0,14.7,7.6,22.1,16.8,22.1c2.2,0,4.3-0.2,6.1-0.6v-13.6h-8.9v-13.7h26.1
				v35.5C474.1,185,465.5,188.4,454,188.4z"/>
			<path class="st40" d="M37.8,234.2h49.1c24.3,0,44.1,11,44.1,36.4c0,13.5-7.3,22.5-18.9,27.4c14.8,4.8,24.5,14.8,24.5,30.8
				c0,24.9-22,38.8-46.3,38.8H37.8V234.2z M72.1,257v31h11.1c9.6,0,15.7-5.3,15.7-15.9c0-10.3-6.1-15.1-15.7-15.1H72.1z M72.1,310.4
				v34.4h13.8c9.8,0,17.2-6.8,17.2-17.8c0-10.9-7.3-16.6-17.2-16.6H72.1z"/>
			<path class="st40" d="M208.4,343.2c11.6,0,20-6.1,20-23.2v-85.9h31.4V317c0,34.2-20.2,53.3-53.2,53.3
				c-32.2,0-53.2-17.3-53.2-53.3v-82.9h34.5v85.9C187.8,338.1,196.8,343.2,208.4,343.2z"/>
			<path class="st40" d="M277.7,350.2l53.4-90.2h-50.7v-25.8h89.9v17.1l-54,90.5h54.5v25.8h-93.1V350.2z"/>
			<path class="st40" d="M386.5,350.2l53.4-90.2h-50.7v-25.8h89.9v17.1l-54,90.5h54.5v25.8h-93.1V350.2z"/>
		</g>
	</g>
</g>
</svg>
