<svg xmlns="http://www.w3.org/2000/svg" viewBox="0 0 512 512">
  <title>fresno-bee</title>
  <g id="Layer_2" data-name="Layer 2">
    <g id="Art">
      <rect width="512" height="512" fill="#27395a"/>
      <g>
        <path d="M50.7,200V187h4.6c3.2,0,5.3-.5,6.2-1.5s1.4-3.4,1.4-7.2V121.8c0-3.9-.5-6.4-1.4-7.3s-3-1.4-6.2-1.4H50.7V100h78.2v40.9H118a85.4,85.4,0,0,0-2-14.9,20.2,20.2,0,0,0-4.1-8.3,11.2,11.2,0,0,0-5.7-3.6c-2.3-.7-6.8-1-13.3-1H86.3v28.5h.9c3.9,0,6.6-1.1,8.1-3.2s2.3-6.2,2.3-11.9v-.7H108v45.6H97.6c-.1-6.5-.8-10.9-2.2-13.3s-3.8-3.6-7.2-3.6H86.3v23.6c0,3.8.5,6.2,1.4,7.2s3,1.5,6.3,1.5h5.3v13Z" fill="#fff"/>
        <path d="M132,200V188h3.7c2.4,0,4-.5,4.8-1.4s1.2-2.8,1.2-5.6V148.7c0-2.8-.4-4.7-1.2-5.6s-2.4-1.4-4.8-1.4H132v-12h29.5v7a23.6,23.6,0,0,1,7-6.8,15.6,15.6,0,0,1,7.9-2.3,13.4,13.4,0,0,1,10.5,4.4c2.5,3,3.8,7,3.8,12s-1,7.8-3,10.4a9.8,9.8,0,0,1-8.1,3.9,8,8,0,0,1-6.4-3,11.2,11.2,0,0,1-2.6-7.6,9.4,9.4,0,0,1,1.6-5.7,8.3,8.3,0,0,1,4.5-3.4l-2-.9a4.7,4.7,0,0,0-1.6-.2c-3.1,0-5.6,1.9-7.6,5.9s-3,9-3,15.2V181c0,2.8.4,4.7,1.1,5.6s2.3,1.4,4.7,1.4h5v12Z" fill="#fff"/>
        <path d="M236.3,176.3h14.8c-1.8,8.8-5.3,15.3-10.3,19.8s-10,6.6-18,6.6-18.5-3.4-24.3-10.2-8.6-15.7-8.6-26.8,2.8-21.1,8.3-27.9,13.1-10.2,22.7-10.2,17.5,3.3,23,10,8.2,15.9,8.2,27.8V168H211.7v1.2c0,6.5,1,11.3,3,14.5a10,10,0,0,0,9,4.9,12.2,12.2,0,0,0,8.8-3.2C234.7,183.2,235.9,180.2,236.3,176.3ZM212,155.9h19.1v-.6c0-5-.8-8.7-2.5-11.2a7.9,7.9,0,0,0-7.2-3.9,7.7,7.7,0,0,0-6.9,4C212.9,147,212.1,150.9,212,155.9Z" fill="#fff"/>
        <path d="M264.1,200.8h-8.8V174.6h9.8a23.2,23.2,0,0,0,7,11.2,17.3,17.3,0,0,0,11.2,4,11.6,11.6,0,0,0,6.7-1.7,5.8,5.8,0,0,0,2.4-4.9,4.7,4.7,0,0,0-1.6-3.7c-1-.9-3.7-2.1-7.9-3.4l-2.9-.9c-9.5-3-15.8-5.9-19-8.7a17.2,17.2,0,0,1-4.8-6.7,23.9,23.9,0,0,1-1.7-8.9c0-7.2,2.5-13,7.3-17.3s11.4-6.6,19.5-6.6a34,34,0,0,1,10.2,1.5,35.7,35.7,0,0,1,9.8,4.5l1.3-4h8.9v22.4h-8.9a24.3,24.3,0,0,0-8-9,18.8,18.8,0,0,0-10.6-3.1,8.2,8.2,0,0,0-5.6,1.7,5.8,5.8,0,0,0-2,4.6c0,3.4,4.8,6.5,14.3,9.3l6.2,1.9c5.6,1.9,10,4.6,13.1,8.4a19.9,19.9,0,0,1,4.6,13.2,22.2,22.2,0,0,1-7.7,17.5c-5.1,4.5-11.7,6.7-20,6.7a32.1,32.1,0,0,1-10.2-1.7,50.9,50.9,0,0,1-10.8-5.3Z" fill="#fff"/>
        <path d="M316.3,200V188h3.4c2.4,0,3.9-.5,4.7-1.4s1.2-2.8,1.2-5.6V148.7c0-2.8-.4-4.7-1.2-5.6s-2.3-1.4-4.7-1.4h-3.4v-12h29.1v10.9a27.9,27.9,0,0,1,9-9.6,22.7,22.7,0,0,1,11.8-3.2c7.1,0,12.1,1.9,15.1,5.8s4.4,10.6,4.4,20.2V181c0,2.8.4,4.7,1.1,5.6s2.4,1.4,4.8,1.4h2.8v12H357.9V188h1.4c2.3,0,3.9-.5,4.6-1.4s1.2-2.8,1.2-5.6V153.8c0-4.2-.7-7.4-2.2-9.5a7.3,7.3,0,0,0-6.5-3.2,8.3,8.3,0,0,0-7.4,4.2c-1.7,2.7-2.6,6.7-2.6,11.8V181c0,2.8.4,4.7,1.1,5.6s2.3,1.4,4.7,1.4h1.2v12Z" fill="#fff"/>
        <path d="M393.2,164.9c0-11.7,3.1-21,9.1-27.7S416.7,127,427.2,127s18.9,3.4,25,10.2,9.1,16,9.1,27.7-3,20.9-9.1,27.6-14.4,10.1-25,10.1-18.9-3.4-24.9-10.1S393.2,176.6,393.2,164.9Zm22.5,0c0,9.4.8,15.9,2.5,19.5a9.3,9.3,0,0,0,9,5.4q6.4,0,9-5.4c1.8-3.6,2.6-10.1,2.6-19.5s-.8-16.1-2.6-19.7-4.7-5.3-9-5.3-7.2,1.7-9,5.3S415.7,155.4,415.7,164.9Z" fill="#fff"/>
        <path d="M52.1,407.2V382.5h8.7q9.2,0,11.7-2.7c1.7-1.9,2.5-6.4,2.5-13.6V259.9c0-7.3-.8-11.8-2.5-13.6s-5.6-2.7-11.7-2.7H52.1V218.9h91.8c20.5,0,35.6,3.6,45.1,10.7s14.4,18.3,14.4,33.5q0,15.6-8.4,27t-24.3,17.4c13.8,3.5,24,9.3,30.7,17.1s10,18.2,10,30.9c0,18.5-5.3,31.7-16.1,39.7s-28.7,12-54,12Zm67-110.2h10.5c10.4,0,18-2.1,22.8-6.5s7.1-11.3,7.1-20.9-2.3-15.7-6.8-19.8-11.9-6.2-22.2-6.2H119.1Zm0,85.5h12.3c11.7,0,20.2-2.4,25.5-7.3s8-12.5,8-23-2.7-18.9-8-23.8-13.9-7.5-25.7-7.5H119.1Z" fill="#fff"/>
        <path d="M307.2,362.6l27.9-.2c-3.5,16.4-10,28.8-19.4,37.1S294.1,412,279,412q-26.5,0-42.9-19.2t-16.3-50.3q0-33.3,15.7-52.5c10.5-12.8,24.7-19.3,42.6-19.3s33,6.3,43.3,18.8,15.5,30,15.5,52.5v5h-76v2.2c0,12.1,1.9,21.2,5.6,27.2s9.5,9.1,17,9.1,12.4-2,16.5-6S306.5,369.9,307.2,362.6Zm-45.9-38.5,36,.2v-1.1c0-9.3-1.5-16.4-4.6-21.2s-7.6-7.2-13.7-7.2-9.8,2.6-12.9,7.6S261.5,314.6,261.3,324.1Z" fill="#fff"/>
        <path d="M431.2,362.6l27.9-.2c-3.5,16.4-10,28.8-19.4,37.1S418.1,412,403.1,412q-26.7,0-43-19.2t-16.3-50.3q0-33.3,15.7-52.5c10.5-12.8,24.7-19.3,42.6-19.3s33,6.3,43.3,18.8,15.5,30,15.5,52.5v5h-76v2.2c0,12.1,1.9,21.2,5.7,27.2s9.4,9.1,16.9,9.1,12.5-2,16.5-6S430.5,369.9,431.2,362.6Zm-45.8-38.5,35.9.2v-1.1c0-9.3-1.5-16.4-4.6-21.2s-7.6-7.2-13.6-7.2-9.9,2.6-12.9,7.6S385.5,314.6,385.4,324.1Z" fill="#fff"/>
      </g>
    </g>
  </g>
</svg>
