<svg xmlns="http://www.w3.org/2000/svg" viewBox="0 0 512 512">
  <title>sierra-star</title>
  <g id="Layer_2" data-name="Layer 2">
    <g id="Art">
      <g>
        <path d="M107.5,251.7c18.1-9.4,39.2-23.6,60.9-35.3-46.4-85.3,67.3-164.2,168-111.3,3.1,15.3,5.3,42.9,4.2,66.6-22.9,11.2-8.1-51.9-54.5-62.4-42.9-12-87.5,14.3-79.6,62.4,1.6,9.8,6,17.9,12.2,25a72.9,72.9,0,0,1,15.2-1.4c26.6.4,60.8,16.3,89.5,27.2,26,9.9,54.9,30.3,83.6,35,22.5,3.7,46.7-6.4,68.1-3.9,13.1,1.6,24.5,8.7,36.9,15.4V0H0V296.1C34,282.1,70.5,271,107.5,251.7Z" fill="#446896"/>
        <path d="M407,257.5c-28.7-4.7-57.6-25.1-83.6-35-28.7-10.9-62.9-26.8-89.5-27.2a72.9,72.9,0,0,0-15.2,1.4c28.2,31.5,94.8,40.4,121.9,79,69.3,98.3-60.3,184.1-180.2,133.1-3.2-12.6-5.4-53.1-8.4-74.9,26.1-17,9.7,40.1,54.5,62.4,50.6,24,107.8-.5,100.6-58.2s-96.3-63-130-108.2a127.9,127.9,0,0,1-8.7-13.5c-21.7,11.7-42.8,25.9-60.9,35.3C70.5,271,34,282.1,0,296.1V512H512V269c-12.4-6.7-23.8-13.8-36.9-15.4C453.7,251.1,429.5,261.2,407,257.5Z" fill="#385c84"/>
        <path d="M307.1,338.1c7.2,57.7-50,82.2-100.6,58.2-44.8-22.3-28.4-79.4-54.5-62.4,3,21.8,5.2,62.3,8.4,74.9,119.9,51,249.5-34.8,180.2-133.1-27.1-38.6-93.7-47.5-121.9-79-6.2-7.1-10.6-15.2-12.2-25-7.9-48.1,36.7-74.4,79.6-62.4,46.4,10.5,31.6,73.6,54.5,62.4,1.1-23.7-1.1-51.3-4.2-66.6-100.7-52.9-214.4,26-168,111.3a127.9,127.9,0,0,0,8.7,13.5C210.8,275.1,299.9,280.4,307.1,338.1Z" fill="#fff"/>
      </g>
    </g>
  </g>
</svg>
