<?xml version="1.0" encoding="utf-8"?>
<!-- Generator: Adobe Illustrator 23.0.6, SVG Export Plug-In . SVG Version: 6.00 Build 0)  -->
<svg version="1.1" id="Art" xmlns="http://www.w3.org/2000/svg" xmlns:xlink="http://www.w3.org/1999/xlink" x="0px" y="0px"
	 viewBox="0 0 512 512" style="enable-background:new 0 0 512 512;" xml:space="preserve">
<style type="text/css">
	.st0{fill:#98002E;}
	.st1{fill:#FFFFFF;}
	.st2{fill:#0021A5;}
	.st3{fill:none;stroke:#FFFFFF;stroke-width:5.3333;stroke-miterlimit:10;}
	.st4{fill:#F04C24;stroke:#FFFFFF;stroke-width:5.3333;stroke-miterlimit:10;}
	.st5{fill:#FA4616;}
	.st6{fill:#782F40;}
	.st7{fill:none;stroke:#FFFFFF;stroke-width:5.3378;stroke-miterlimit:10;}
	.st8{fill:#F04C24;stroke:#FFFFFF;stroke-width:5.3378;stroke-miterlimit:10;}
	.st9{fill:#CEB888;}
	.st10{fill:#0077C8;}
	.st11{fill:none;stroke:#000000;stroke-width:10.6667;stroke-miterlimit:10;}
	.st12{fill-rule:evenodd;clip-rule:evenodd;}
	.st13{fill-rule:evenodd;clip-rule:evenodd;stroke:#000000;stroke-width:2.6667;stroke-miterlimit:10;}
	.st14{fill:#005030;}
	.st15{fill:#F47321;}
	.st16{fill:#FCEE21;}
	.st17{fill:#E8E7E7;}
	.st18{fill:#A21D3E;}
	.st19{fill:#D98227;}
	.st20{fill:#72BE44;}
	.st21{fill:#231F20;}
	.st22{fill:#CAC8C8;}
	.st23{fill:#0033A0;}
	.st24{fill:#3A578C;}
	.st25{fill:#69BE28;}
	.st26{fill:#80A27B;}
	.st27{fill:#F7C421;}
	.st28{fill:#0039A6;}
	.st29{fill:#F9461C;}
	.st30{fill:#F2F2F2;}
	.st31{fill:#0085CA;}
	.st32{fill:#008CA8;}
	.st33{fill:#FFFFFF;stroke:#FFFFFF;stroke-width:5.3378;stroke-miterlimit:10;}
	.st34{fill:#1D1160;}
	.st35{fill:#FF0000;}
	.st36{fill:#DA291C;}
	.st37{fill:#1E4971;}
	.st38{fill:#5DA423;}
	.st39{fill:#C41230;}
	.st40{fill:#004B8D;}
	.st41{fill:#E4E416;}
	.st42{fill:none;stroke:#FFFF00;stroke-width:10.6667;stroke-miterlimit:10;}
	.st43{fill:url(#SVGID_1_);}
	.st44{fill-rule:evenodd;clip-rule:evenodd;fill:#FCD6C2;}
	.st45{fill-rule:evenodd;clip-rule:evenodd;fill:#FFFFFF;}
	.st46{clip-path:url(#SVGID_3_);}
	.st47{fill-rule:evenodd;clip-rule:evenodd;fill:#231F20;}
	.st48{fill-rule:evenodd;clip-rule:evenodd;fill:none;}
	.st49{fill-rule:evenodd;clip-rule:evenodd;fill:url(#SVGID_4_);}
	.st50{fill:url(#SVGID_5_);}
	.st51{filter:url(#Adobe_OpacityMaskFilter);}
	.st52{fill-rule:evenodd;clip-rule:evenodd;fill:url(#SVGID_7_);}
	.st53{mask:url(#SVGID_6_);}
	.st54{fill-rule:evenodd;clip-rule:evenodd;fill:#FBE5D5;}
	.st55{fill:url(#SVGID_8_);}
	.st56{fill:url(#SVGID_9_);}
	.st57{fill:url(#SVGID_10_);}
	.st58{fill:url(#SVGID_11_);}
	.st59{opacity:0.55;fill:url(#SVGID_12_);}
	.st60{opacity:0.55;fill:url(#SVGID_13_);}
	.st61{opacity:0.55;fill:url(#SVGID_14_);}
	.st62{opacity:0.55;fill:url(#SVGID_15_);}
	.st63{clip-path:url(#SVGID_17_);fill:url(#SVGID_18_);}
	.st64{opacity:0.46;fill:#FFFFFF;}
	.st65{opacity:0.61;fill:url(#SVGID_19_);}
	.st66{filter:url(#Adobe_OpacityMaskFilter_1_);}
	.st67{opacity:0.49;mask:url(#SVGID_20_);}
	.st68{fill:url(#SVGID_21_);}
	.st69{fill:#007980;}
	.st70{fill:#219DA7;}
	.st71{fill:#F04C24;}
	.st72{fill:#7AB2DD;}
	.st73{fill:#004687;}
	.st74{fill:#002A5C;}
	.st75{fill:#93B1D7;}
	.st76{fill:#CA2430;}
	.st77{fill:#9E1721;}
	.st78{fill:#0050BA;}
	.st79{fill:#E8000D;}
	.st80{clip-path:url(#SVGID_23_);fill:#E4A710;}
	.st81{clip-path:url(#SVGID_25_);}
	.st82{fill:#FFDD15;}
	.st83{filter:url(#Adobe_OpacityMaskFilter_2_);}
	.st84{opacity:0.3;mask:url(#SVGID_26_);}
	.st85{fill:#FAAF40;}
	.st86{opacity:0.2;clip-path:url(#SVGID_25_);}
	.st87{opacity:0.5;clip-path:url(#SVGID_25_);fill:#FAAF40;}
	.st88{clip-path:url(#SVGID_25_);fill:#FFCA05;}
</style>
<g>
	<rect class="st37" width="512" height="512"/>
	<g>
		<g>
			<path class="st38" d="M264,279.8h25.3c10.3-6.3,19.8-13.8,28.4-22.3V187c0-1,0.8-1.8,1.8-1.8h39.8c0.5-1.8,0.8-3.6,1.2-5.4h-41
				c-1,0-1.8-0.8-1.8-1.8v-65.2c0-10.9,4.7-15.8,19-16.8c0.9-0.1,1.7-0.8,1.7-1.8v0c0-1-0.8-1.8-1.8-1.8H264c-1,0-1.8,0.8-1.8,1.8v0
				c0,1,0.8,1.7,1.7,1.8c16.7,1.1,20.5,6.4,20.5,16.8v146.3c0,10.7-3.8,15.8-20.5,16.9c-1,0.1-1.7,0.8-1.7,1.8v0.3
				C262.2,279,263,279.8,264,279.8z"/>
			<path class="st38" d="M411.6,115.5v-2.7c0-10.4,3.6-15.8,20.5-16.8c1-0.1,1.7-0.8,1.7-1.8c0-1-0.8-1.8-1.8-1.8h-33.4
				C403.6,99.7,408,107.4,411.6,115.5z"/>
			<path class="st38" d="M432.2,276c-16.9-1-20.5-6.2-20.5-16.9v-14.6c-5.8,12.8-13.2,24.6-22,35.3h42.4c1,0,1.8-0.8,1.8-1.8v-0.3
				C433.9,276.8,433.1,276,432.2,276z"/>
		</g>
		<path class="st38" d="M78.1,277.7c0-1,0.8-1.7,1.7-1.8c16.7-1,20.5-6.2,20.5-16.9V112.8c0-10.4-3.8-15.8-20.5-16.8
			c-1-0.1-1.7-0.8-1.7-1.8v0c0-1,0.8-1.8,1.8-1.8h72.5c1,0,1.8,0.8,1.8,1.8v0c0,0.9-0.7,1.7-1.7,1.8c-14.3,1.1-19,6-19,16.8V178
			c0,1,0.8,1.8,1.8,1.8h57.2c1,0,1.8-0.8,1.8-1.8v-65.2c0-10.9-5-15.8-19-16.8c-0.9-0.1-1.7-0.8-1.7-1.8v0c0-1,0.8-1.8,1.8-1.8H248
			c1,0,1.8,0.8,1.8,1.8v0c0,1-0.8,1.7-1.7,1.8c-16.9,1.1-20.5,6.4-20.5,16.8v146.3c0,10.7,3.6,15.8,20.5,16.9c1,0.1,1.7,0.8,1.7,1.8
			v0.3c0,1-0.8,1.8-1.8,1.8h-72.5c-1,0-1.8-0.8-1.8-1.8v-0.3c0-0.9,0.7-1.7,1.7-1.8c14-1.1,19-5.7,19-16.8V187c0-1-0.8-1.8-1.8-1.8
			h-57.2c-1,0-1.8,0.8-1.8,1.8v72.2c0,11.1,4.7,15.8,19,16.8c0.9,0.1,1.7,0.8,1.7,1.8v0.3c0,1-0.8,1.8-1.8,1.8H79.9
			c-1,0-1.8-0.8-1.8-1.8V277.7z"/>
		<path class="st37" d="M311.5,29.3c32.2,28.7,52.6,70.3,52.6,116.9c0,86.5-70.2,156.7-156.7,156.7c-14.8,0-29.1-2.2-42.7-6
			c27.7,24.7,64.1,39.8,104.1,39.8c86.5,0,156.7-70.2,156.7-156.7C425.5,108.3,377.3,47.9,311.5,29.3z"/>
		<path class="st38" d="M432.2,276c-16.9-1-20.5-6.2-20.5-16.9V112.8c0-10.4,3.6-15.8,20.5-16.8c1-0.1,1.7-0.8,1.7-1.8
			c0-1-0.8-1.8-1.8-1.8h-72.5c-1,0-1.8,0.8-1.8,1.8v0c0,0.9,0.7,1.7,1.7,1.8c14,1.1,19,6,19,16.8V178c0,1-0.8,1.8-1.8,1.8h-29.5v5.4
			h29.5c1,0,1.8,0.8,1.8,1.8v72.2c0,11.1-5,15.8-19,16.8c-0.9,0.1-1.7,0.8-1.7,1.8v0.3c0,1,0.8,1.8,1.8,1.8h72.5
			c1,0,1.8-0.8,1.8-1.8v-0.3C433.9,276.8,433.1,276,432.2,276z"/>
	</g>
	<g>
		<path class="st1" d="M92.1,361.4h24.6v5.8h-17v11.6h15.6v5.8H99.7v13h17.2v5.8H92.1V361.4z"/>
		<path class="st1" d="M121.7,403.3l13.7-22.1l-12.3-19.8h8.3l8.6,13.9l8.5-13.9h7.1l-12,19.7l13.7,22.3H149l-10.1-16.5l-10.1,16.5
			H121.7z"/>
		<path class="st1" d="M162.7,361.4H177c7.8,0,13.4,4.5,13.4,13.2c0,8.5-6.3,12.8-13.4,12.8h-6.8v16h-7.5V361.4z M170.2,367.2v14.7
			h5.7c4.5,0,7.3-2.5,7.3-7.4c0-4.9-2.7-7.3-7.3-7.3H170.2z"/>
		<path class="st1" d="M197.2,361.4h24.6v5.8h-17v11.6h15.6v5.8h-15.6v13H222v5.8h-24.8V361.4z"/>
		<path class="st1" d="M230.5,361.4h14.8c7.5,0,13,4.4,13,12.5c0,6.1-3.7,10.1-8.5,11.6l10.5,17.8h-8.1l-10.1-17h-4.1v17h-7.6V361.4
			z M238.2,367.1v14.3h5.8c4.4,0,7.1-2.7,7.1-7.3c0-4.6-2.7-6.9-7.1-6.9H238.2z"/>
		<path class="st1" d="M266.4,361.4h7.5v41.9h-7.5V361.4z"/>
		<path class="st1" d="M283.3,361.4h24.6v5.8h-17v11.6h15.6v5.8H291v13h17.2v5.8h-24.8V361.4z"/>
		<path class="st1" d="M316.7,403.3v-41.9h7.5l18.6,30.3v-30.3h6.4v41.9h-6.9L323.1,372v31.3H316.7z"/>
		<path class="st1" d="M388.7,401.4c-3.1,1.8-7,2.7-11.5,2.7c-11.1,0-20.8-7.2-20.7-21.4s9.5-22.1,21.1-22.1c4.8,0,8.1,0.8,10.9,2.1
			l-1.8,5.9c-2.3-1.3-5.3-1.9-8.2-1.9c-8.1,0-14.1,5.7-14.1,15.8c-0.1,10.2,6.1,15.3,13.4,15.3c4,0,6.7-0.9,9.1-2.2L388.7,401.4z"/>
		<path class="st1" d="M395.3,361.4h24.6v5.8h-17v11.6h15.6v5.8H403v13h17.2v5.8h-24.8V361.4z"/>
		<path class="st1" d="M71.3,425H79v17.4h17.5V425h7.6v41.9h-7.6v-18.8H79v18.8h-7.6V425z"/>
		<path class="st1" d="M113.4,425h7.5v41.9h-7.5V425z"/>
		<path class="st1" d="M130.4,425h7.6v36.2h17.3v5.8h-24.9V425z"/>
		<path class="st1" d="M171,430.7h-12V425h31.6v5.8h-12v36.2H171V430.7z"/>
		<path class="st1" d="M214.9,467.8c-10.4,0-20.4-7.6-20.3-21.7c0.1-14,10-22.1,20.3-22.1c10.4,0,20.4,8.1,20.3,22.1
			C235.1,460.2,225.3,467.8,214.9,467.8z M214.9,461.7c6.8,0,12.5-5.3,12.5-15.6c0.1-10.4-5.8-15.9-12.5-15.9
			c-6.8,0-12.5,5.5-12.5,15.9C202.3,456.5,208.1,461.7,214.9,461.7z"/>
		<path class="st1" d="M242.2,466.9V425h7.5l18.6,30.3V425h6.4v41.9h-6.9l-19.2-31.3v31.3H242.2z"/>
		<path class="st1" d="M295.8,425h7.6v17.4h17.5V425h7.6v41.9h-7.6v-18.8h-17.5v18.8h-7.6V425z"/>
		<path class="st1" d="M337.7,425h24.6v5.8h-17v11.6h15.6v5.8h-15.6v13h17.2v5.8h-24.8V425z"/>
		<path class="st1" d="M382.7,424.6h5.6l15.4,42.3h-7.6l-3.2-9h-15.8l-3.2,9h-6.6L382.7,424.6z M385,435.3l-6,17.2h12.1L385,435.3z"
			/>
		<path class="st1" d="M409.2,425h12.7c10.6,0,20.5,7.2,20.5,21.2c-0.1,14-9.8,20.7-20.5,20.7h-12.7V425z M416.8,430.7v30.4h4.7
			c7.2,0,13-4.7,13.1-15.1c0.1-10.3-5.9-15.3-13.2-15.3H416.8z"/>
	</g>
</g>
</svg>
