<svg xmlns="http://www.w3.org/2000/svg" viewBox="0 0 512 512">
  <title>island-packet</title>
  <g id="Layer_2" data-name="Layer 2">
    <g id="Art">
      <g>
        <path d="M200.9,0l31.4,42.1L161.5,78.6,113.8,15.1,141.7,0H0V512H149.2l-46.6-9.3L220.1,122.3l82,15.7-15.8,51.1,1.1.4c25-26.9,65.8-35.7,100.6-24.9,81.5,25.1,114.9,117.6,91.1,194.7S367.8,484.5,291.7,461.1c-27.7-8.6-57.6-25.6-65.1-55.3l-1.1-.3L192.6,512H512V0Zm-90,390.9L23.4,373.5,110,93l87.5,17.5Z" fill="#33679a"/>
        <path d="M303.8,381.4c39.6,12.3,80.2-15.1,91.5-51.5s-6.9-81.9-46.6-94.1-80.2,15.1-91.5,51.5S264.1,369.2,303.8,381.4Z" fill="#33679a"/>
        <polygon points="23.4 373.5 110.9 390.9 197.5 110.5 110 93 23.4 373.5" fill="#fff"/>
        <polygon points="161.5 78.6 232.3 42.1 200.9 0 141.7 0 113.8 15.1 161.5 78.6" fill="#fff"/>
        <path d="M226.6,405.8c7.5,29.7,37.4,46.7,65.1,55.3,76.1,23.4,163.9-25.7,187.4-101.8S469.5,189.7,388,164.6c-34.8-10.8-75.6-2-100.6,24.9l-1.1-.4L302.1,138l-82-15.7L102.6,502.7l46.6,9.3h43.4l32.9-106.5Zm30.6-118.5c11.3-36.4,51.9-63.8,91.5-51.5s57.8,57.7,46.6,94.1-51.9,63.8-91.5,51.5S246,323.7,257.2,287.3Z" fill="#fff"/>
      </g>
    </g>
  </g>
</svg>
