<svg xmlns="http://www.w3.org/2000/svg" viewBox="0 0 293.9 36.66"><defs><style>.cls-1{fill:#231f20;}.cls-2{fill:#eb2227;}</style></defs><title>news-observer</title><g id="Layer_2" data-name="Layer 2"><g id="ral"><path class="cls-1" d="M172.47,0c-3.52,0-6.77,2.7-8.92,7.84a29,29,0,0,0-2,11c0,5.24,1.14,9.59,3.43,13.08,2,3,4.79,4.7,7.51,4.7S178,35,179.94,32c2.29-3.49,3.43-7.84,3.43-13.08,0-6.09-1.5-11.24-4.26-15C177.26,1.35,174.89,0,172.47,0Zm0,35.71c-2.24,0-4.17-1.5-5.54-4.45-1.19-2.54-1.23-6.39-1.23-11.78V18.33c0-6.69,0-11.29,1.89-14.33a5.35,5.35,0,0,1,9.71,0c1.89,3,1.89,7.64,1.89,14.33,0,6,0,10.29-1.23,12.93C176.6,34.21,174.71,35.71,172.47,35.71Zm17-7.59V22.57c0-5.49,2.64-9.73,5.36-9.73,2.95,0,3.69,3.39,3.69,10.33,0,8.59-.83,12.64-3.87,12.64C192.12,35.81,189.48,32.41,189.48,28.12Zm-3.25,7.14h-3.08v.8h6.15l.18-4.15c1.19,3.05,3.16,4.75,5.27,4.75,3.7,0,7.43-5.45,7.43-13.19,0-6.39-3.6-11.43-7.21-11.43-2.41,0-4.3,2-5.49,5.94V.55h-6.33V1.4h3.08Zm18-8.79h-.49v9.69h.49l2-2.75c1.49,2.15,3.34,3.25,5.27,3.25,3.26,0,5.8-3,5.8-7.19s-2.11-5.8-6.15-8.09c-2.9-1.65-4.88-2.6-4.88-5.45a2.94,2.94,0,0,1,3-3c2.77,0,5.45,3,6.55,8.44h.48V12.58h-.09l-2.32,2.2c-1.5-1.84-3-2.74-4.62-2.74-2.85,0-5.1,2.44-5.1,5.89,0,3.6,2,4.79,5.19,6.69,3.78,2.2,6,3.45,6,6.64,0,2.55-1.67,4.55-3.91,4.55C208.38,35.81,205.57,32.52,204.25,26.47Zm29.05,2.4c-.75,4.39-3.08,6.89-5.76,6.89-3.69,0-5.19-3-5.19-9.44,0-.8.05-1.7.09-2.6h11.69C234,16.38,230.79,12,226.92,12A6.15,6.15,0,0,0,222,14.68a14.94,14.94,0,0,0-3.21,9.49c0,7.2,3.74,12.49,8.44,12.49,3.43,0,6-2.8,6.81-7.79Zm-10.82-5.95c.13-6.89,1.33-10.08,4.4-10.08s3.78,2.3,3.78,7.44c0,.8,0,1.69,0,2.64Zm17.63-4.59-.18-5.75h-6.11v.8h3V35.26h-3v.8h9.36v-.8h-3.07v-11c0-7,2.37-11.38,4.88-11.38a2.39,2.39,0,0,1,2.37,1.69,1.89,1.89,0,0,0-1.32-.65c-1,0-1.67.85-1.67,2.1a1.86,1.86,0,0,0,1.8,2.05c1.19,0,2-1.05,2-2.45,0-2.1-1.36-3.54-2.94-3.54C242.83,12,241.12,14.19,240.11,18.33Zm25.49-5.75h-6.37v.8a2.43,2.43,0,0,1,2.63,2.6,7,7,0,0,1-.26,1.75l-3.47,13.13-4.84-17.48H256v-.8h-8.35v.8h2.24l6.68,23.28h.79l5.06-19.33c.61-2.35,1.58-3.6,3.16-3.95Zm13.45,16.29c-.75,4.39-3.08,6.89-5.76,6.89-3.69,0-5.18-3-5.18-9.44,0-.8,0-1.7.08-2.6h11.69c-.17-7.34-3.34-11.68-7.2-11.68a6.15,6.15,0,0,0-4.93,2.64,14.93,14.93,0,0,0-3.2,9.49c0,7.2,3.73,12.49,8.43,12.49,3.43,0,6-2.8,6.82-7.79Zm-10.81-5.95c.13-6.89,1.31-10.08,4.39-10.08s3.78,2.3,3.78,7.44c0,.8,0,1.69,0,2.64Zm17.62-4.59-.18-5.75h-6.1v.8h3V35.26h-3v.8h9.36v-.8h-3.08v-11c0-7,2.37-11.38,4.88-11.38a2.39,2.39,0,0,1,2.37,1.69,1.87,1.87,0,0,0-1.32-.65c-1,0-1.67.85-1.67,2.1a1.86,1.86,0,0,0,1.8,2.05c1.19,0,2-1.05,2-2.45,0-2.1-1.36-3.54-2.94-3.54C288.58,12,286.87,14.19,285.86,18.33Z"/><path class="cls-2" d="M152.36,32.89c1.09,2.33,2.93,3.59,4.9,3.59,2.77,0,4.54-2.14,4.54-6h-.68c0,2.94-1.13,4.5-2.51,4.5s-2.48-1.68-4.24-5c.92-2,1-4.24,1.3-6.68s.63-3.89,2.22-4.23a1.92,1.92,0,0,0-.79,1.52,1.62,1.62,0,0,0,1.76,1.68,1.76,1.76,0,0,0,1.89-1.75c0-1.3-.93-2-2.44-2-1.93,0-3,1.26-3.27,3.93-.33,3-.33,5.26-1.09,6.75L149.17,20c3.35-1.22,5.2-3.62,5.2-6.71A4.54,4.54,0,0,0,150,8.52c-3.15,0-5.58,2.44-5.58,6.33a13,13,0,0,0,1.46,5.72c-4.24,1.72-6.41,4.43-6.41,7.82a8.75,8.75,0,0,0,4.19,7.4,5.12,5.12,0,0,0,2.56.65C148.37,36.44,150.34,35.26,152.36,32.89Zm-6.22-11.74L152,32.36c-1.47,1.64-2.73,2.44-3.9,2.44s-2.77-1-4-3a11.94,11.94,0,0,1-2-5.88C142.12,23.74,143.42,22.22,146.14,21.15Zm2.69-1.68c-1.43-2.71-2.22-4.85-2.22-6.56,0-2.33,1.42-3.77,3.31-3.77s3.74,1.67,3.74,4.23C153.66,16.23,151.93,18.44,148.83,19.47Z"/><path class="cls-1" d="M4.79,36.06H17v-1H12.74V1.5h.1c5.93,0,7.9,3.6,8.7,13.68h.53V.55H0V15.18H.48c.57-9.44,3-13.73,7.92-13.73.21,0,.43.05.65.05V35.11H4.79ZM37,18.13V35.26H33.89v.8h9.36v-.8h-3V19.83c0-5-2.15-7.79-5.14-7.79s-5.27,2.44-6.24,6.89V.55H22.5V1.4h3.08V35.26H22.5v.8h9.36v-.8h-3v-11c0-6.79,2.6-11,5.41-11C36,13.29,37,14.88,37,18.13ZM56.69,28.87c-.74,4.39-3.07,6.89-5.75,6.89-3.7,0-5.19-3-5.19-9.44,0-.8,0-1.7.09-2.6H57.53C57.35,16.38,54.19,12,50.32,12a6.15,6.15,0,0,0-4.92,2.64,14.94,14.94,0,0,0-3.21,9.49c0,7.2,3.74,12.49,8.44,12.49,3.43,0,6-2.8,6.81-7.79ZM45.88,22.92C46,16,47.2,12.84,50.28,12.84s3.78,2.3,3.78,7.44c0,.8,0,1.69-.05,2.64ZM68.62,4.49,83.34,36.66H84V8.14C84,3.7,85.14,1.5,87.78,1.5h.79V.55H78.5v1h.71c2.63,0,4,2.25,4,6.79V27.47L70.86.55H63.21v1h1.1c1.89,0,2.85.4,3.47,2.15V28.47c0,4.49-1.14,6.64-3.82,6.64h-.75v1h10v-1h-.7c-2.64,0-3.91-2.2-3.91-6.74Zm32,24.38c-.74,4.39-3.07,6.89-5.76,6.89-3.69,0-5.18-3-5.18-9.44,0-.8,0-1.7.09-2.6h11.69C101.31,16.38,98.15,12,94.28,12a6.14,6.14,0,0,0-4.92,2.64,14.94,14.94,0,0,0-3.21,9.49c0,7.2,3.74,12.49,8.44,12.49,3.43,0,6-2.8,6.81-7.79ZM89.84,22.92C90,16,91.16,12.84,94.24,12.84S98,15.14,98,20.28c0,.8,0,1.69,0,2.64Zm18.64,13.74h.7l3.43-17.38,4.3,17.38h.75l5.06-19.18c.61-2.39,1.45-3.65,3.34-4.1v-.8h-6.55v.8c1.8,0,2.68.81,2.68,2.3a7.18,7.18,0,0,1-.22,1.85l-3.51,13.28-4.4-17.43h3.16v-.8H109v.8h2.1l1.06,4.3-2.42,12.43-4.13-16.73h2.29v-.8h-8v.8h2.55Zm17-10.19H125v9.69h.48l2-2.75c1.5,2.15,3.34,3.25,5.28,3.25,3.25,0,5.8-3,5.8-7.19s-2.11-5.8-6.15-8.09c-2.91-1.65-4.89-2.6-4.89-5.45a3,3,0,0,1,3-3c2.76,0,5.45,3,6.55,8.44h.48V12.58h-.09l-2.33,2.2c-1.49-1.84-3-2.74-4.61-2.74-2.86,0-5.1,2.44-5.1,5.89,0,3.6,2,4.79,5.18,6.69,3.78,2.2,6,3.45,6,6.64,0,2.55-1.66,4.55-3.91,4.55C129.57,35.81,126.76,32.52,125.44,26.47Z"/></g></g></svg>