<svg xmlns="http://www.w3.org/2000/svg" xmlns:xlink="http://www.w3.org/1999/xlink" viewBox="0 0 512 512">
  <defs>
    <radialGradient id="radial-gradient" cx="84.97" cy="345.77" r="128.84" gradientUnits="userSpaceOnUse">
      <stop offset="0" stop-color="#b7d9f7"/>
      <stop offset="0.56" stop-color="#5297ce"/>
      <stop offset="1" stop-color="#0765b0"/>
    </radialGradient>
    <radialGradient id="radial-gradient-2" cx="141.7" cy="356.96" r="106.47" xlink:href="#radial-gradient"/>
    <linearGradient id="linear-gradient" x1="93.75" y1="356.29" x2="187.55" y2="220.5" gradientUnits="userSpaceOnUse">
      <stop offset="0" stop-color="#0781f4"/>
      <stop offset="0.05" stop-color="#118af5"/>
      <stop offset="0.44" stop-color="#5cc9ff"/>
      <stop offset="1" stop-color="#0a6796"/>
    </linearGradient>
    <radialGradient id="radial-gradient-3" cx="99.69" cy="355.56" r="79.17" gradientUnits="userSpaceOnUse">
      <stop offset="0" stop-color="#f7f7f7"/>
      <stop offset="0.32" stop-color="#fff"/>
      <stop offset="0.87" stop-color="#bbb"/>
      <stop offset="1" stop-color="#969696"/>
    </radialGradient>
    <radialGradient id="radial-gradient-4" cx="106.51" cy="348.74" r="115.91" xlink:href="#radial-gradient-3"/>
    <radialGradient id="radial-gradient-5" cx="30.92" cy="-517.53" r="1.05" gradientTransform="matrix(122.68, 0, 0, -122.68, -3708.06, -63146.99)" gradientUnits="userSpaceOnUse">
      <stop offset="0" stop-color="#b7d9f7"/>
      <stop offset="0.36" stop-color="#4bbefc"/>
      <stop offset="0.63" stop-color="#00abff"/>
      <stop offset="1" stop-color="#0765b0"/>
    </radialGradient>
    <radialGradient id="radial-gradient-6" cx="30.93" cy="-518.49" r="1.05" gradientTransform="matrix(101.38, 0, 0, -101.38, -2994.22, -52207.25)" xlink:href="#radial-gradient-5"/>
    <radialGradient id="radial-gradient-7" cx="30.82" cy="-524.47" r="1.05" gradientTransform="matrix(48.5, 0, 0, -48.5, -1391.43, -25077.43)" gradientUnits="userSpaceOnUse">
      <stop offset="0" stop-color="#f7f7f7"/>
      <stop offset="0.44" stop-color="#fff"/>
      <stop offset="0.96" stop-color="#bbb"/>
      <stop offset="1" stop-color="#969696"/>
    </radialGradient>
    <linearGradient id="linear-gradient-2" x1="28.81" y1="-514.42" x2="29.88" y2="-514.42" gradientTransform="matrix(89.33, -129.33, -129.33, -89.33, -69014.26, -41869.15)" gradientUnits="userSpaceOnUse">
      <stop offset="0" stop-color="#429ff7"/>
      <stop offset="0.48" stop-color="#83d6ff"/>
      <stop offset="1" stop-color="#458baf"/>
    </linearGradient>
    <radialGradient id="radial-gradient-8" cx="30.87" cy="-520.39" r="1.05" gradientTransform="matrix(75.38, 0, 0, -75.38, -2227.67, -38872.35)" gradientUnits="userSpaceOnUse">
      <stop offset="0" stop-color="#f7f7f7"/>
      <stop offset="0.44" stop-color="#fff"/>
      <stop offset="0.92" stop-color="#bbb"/>
      <stop offset="1" stop-color="#969696"/>
    </radialGradient>
    <radialGradient id="radial-gradient-9" cx="30.92" cy="-518.04" r="1.05" gradientTransform="matrix(110.37, 0, 0, -110.37, -3306.1, -56826.5)" gradientUnits="userSpaceOnUse">
      <stop offset="0" stop-color="#f7f7f7"/>
      <stop offset="0.44" stop-color="#fff"/>
      <stop offset="0.87" stop-color="#bbb"/>
      <stop offset="1" stop-color="#969696"/>
    </radialGradient>
  </defs>
  <title>myrtle-beach-online</title>
  <g id="Layer_2" data-name="Layer 2">
    <g id="Art">
      <rect width="512" height="512" fill="#174173"/>
      <g>
        <g>
          <path d="M154.6,77.3c-1.1,2.9-2.3,6.9-3.8,11.9s-2.8,10.3-4.1,15.9-2.3,11.2-3.2,16.8a83.9,83.9,0,0,0-1.4,14.7,67.8,67.8,0,0,0,.4,8.3,44.3,44.3,0,0,0,1.2,6.3,16.5,16.5,0,0,1-4.6,3.1,13.4,13.4,0,0,1-5.6,1.5l-1.6-1.4a15.4,15.4,0,0,1-1.8-2.3,30.3,30.3,0,0,1-.7-4.5,36.8,36.8,0,0,1,0-4.7,87.4,87.4,0,0,1,1.1-12.8c.7-4.7,1.5-9.4,2.5-14s2.1-9,3.2-13.2,2-7.7,2.7-10.7a.8.8,0,0,0-.5-.9,1.2,1.2,0,0,0-1.3.2c-7,7.2-12.9,13.7-17.7,19.4a167.7,167.7,0,0,0-11.6,15.2,71.5,71.5,0,0,0-6.5,11.4,28,28,0,0,0-2.2,7.7,24,24,0,0,1-8.6,4.4,5.6,5.6,0,0,1-2.3-1.8L85.9,145a56.7,56.7,0,0,0,.4-6v-3.8c0-3.1-.1-6.7-.3-11s-.4-8.6-.7-13-.6-8.5-1-12.4-.8-6.7-1.2-8.7a.6.6,0,0,0-.8-.5,1.6,1.6,0,0,0-.9.7,199.7,199.7,0,0,0-10.5,17.3c-3.1,5.7-5.8,11.2-8.1,16.6a114.8,114.8,0,0,0-5.4,15,71.8,71.8,0,0,0-2.6,12.3,12.7,12.7,0,0,1-2.6,2.6,16.2,16.2,0,0,1-3.6,2,10,10,0,0,1-3.2-1.5,8,8,0,0,1-2.7-2.4A44.1,44.1,0,0,1,45.5,142c1.5-3.9,3.2-8,5.2-12.2s3.9-8.2,6-12l5.5-9.7L74.1,87.5c3.4-6,5.4-10.5,5.9-13.6a21.3,21.3,0,0,1,3.5-2.7,12.7,12.7,0,0,1,4-1.8,17.7,17.7,0,0,1,5.8,3.8c.4,3.2.7,7,1.1,11.4s.7,9,1.1,13.7.6,9.4.9,14,.5,8.7.6,12.3c0,.6.3.9.7.9a1.2,1.2,0,0,0,1.1-.4,137.7,137.7,0,0,1,9.8-12l12.1-13.6c4.2-4.6,8.1-9.2,12-13.9a90.7,90.7,0,0,0,9.2-13.1,16.5,16.5,0,0,1,4.2-2.1,35.4,35.4,0,0,1,4.9-1,14,14,0,0,1,2.3,3.6A8.8,8.8,0,0,1,154.6,77.3Z" fill="#f9f9f9"/>
          <path d="M200.3,97.3a25.9,25.9,0,0,1,4-2.5l3.8-1.9,2.3.9a2.8,2.8,0,0,1,1.5,1.3c-3.5,7.6-7.8,16.4-13,26.3a372.4,372.4,0,0,1-20.2,33.5c-4.5,6.6-8.9,12.7-13.3,18.3s-8.7,10.7-12.8,15.3-8,8.6-11.7,12-7,6.3-9.9,8.6a15.4,15.4,0,0,1-5.3-.6,18.7,18.7,0,0,1-3.9-1.5,6,6,0,0,1-.8-2.1,16,16,0,0,0-.4-2.7c3.8-2.3,7.9-5.2,12.5-8.6A156.4,156.4,0,0,0,146.8,182c4.6-4.4,9-9.1,13.3-14.1a105.6,105.6,0,0,0,11.2-15.8c-.5-3.6-1.1-7.7-1.9-12.6s-1.7-9.7-2.8-14.4a127.6,127.6,0,0,0-3.6-12.5c-1.3-3.7-2.7-6.2-4.2-7.3a11.1,11.1,0,0,1,1-2.9,7,7,0,0,1,1.5-2.4,15.5,15.5,0,0,1,4.1-1.2,43.8,43.8,0,0,1,5.2-.4,37.5,37.5,0,0,1,2,6.2c.8,2.9,1.6,6.3,2.4,10.3s1.6,8.1,2.5,12.5,1.7,8.8,2.4,13.1c1.9-3.1,3.9-6.7,6.1-10.8s4.2-8.2,6-12.3,3.6-7.9,5.1-11.5S199.6,99.5,200.3,97.3Z" fill="#f9f9f9"/>
          <path d="M253.6,103.9c-1.9.5-5.4,3.7-10.7,9.5s-11.4,14.3-18.5,25.8l-3.2,5.7a66.2,66.2,0,0,0-3.8,8.2,14.1,14.1,0,0,1-3.1,1.8l-3.6,1.6a15.9,15.9,0,0,1-3.3-.8,8.7,8.7,0,0,1-2.5-1.5c1.7-4,3.4-8,4.9-12.1s2.9-7.9,4.1-11.5a94.6,94.6,0,0,0,3-9.8,26.4,26.4,0,0,0,1.2-6.7,36.5,36.5,0,0,0-.5-6.3,15,15,0,0,0-1.3-3.8,16.6,16.6,0,0,1,5-4.9,13.5,13.5,0,0,1,7.5-1.6,13.3,13.3,0,0,1,.8,3.5c.1,1,.1,2.2.1,3.7a44.1,44.1,0,0,1-.8,6.9,73.4,73.4,0,0,1-2.6,9.9c-.2.5-.1.9.4,1s.8.1,1.1-.2a182.3,182.3,0,0,1,19.1-22c5.5-5.3,9.5-7.9,12-7.9a25,25,0,0,1,4,1.7,17.5,17.5,0,0,1,3.9,2.5,35.8,35.8,0,0,1-.3,4,11.7,11.7,0,0,1-1.3,4,17.9,17.9,0,0,1-3.4,1.9,8.6,8.6,0,0,1-3.4.9,11,11,0,0,1-2.3-1.3A12.3,12.3,0,0,1,253.6,103.9Z" fill="#f9f9f9"/>
          <path d="M293,68.7a21.9,21.9,0,0,1,4.8-3,21.3,21.3,0,0,1,5.6-2.1,23.4,23.4,0,0,1,2.7,2,5.4,5.4,0,0,1,1.5,2.2c-1.1,2-2.4,4.2-3.7,6.8s-2.7,5.1-4.1,7.8-2.7,5.4-4,8.2l-3.5,7.6h9.5l5.6-.2,5.2-.4a7.6,7.6,0,0,1-1,2.7,16,16,0,0,1-1.9,2.6,93,93,0,0,1-10,2c-3.5.6-7.1,1-10.9,1.3-2.1,5.1-3.9,9.5-5.3,13.2s-2.5,7.1-3.4,9.8a70.3,70.3,0,0,0-1.9,7,23.3,23.3,0,0,0-.7,4.7q0,3.9,1.8,3.9c3.6-.3,9.8-3.7,18.5-10.4a12.2,12.2,0,0,1,1.6,6l-8.6,5.9c-2.8,1.9-5.6,3.6-8.2,5.1l-7.3,3.6a16.3,16.3,0,0,1-5.5,1.4,4,4,0,0,1-3.3-2,9.3,9.3,0,0,1-1.4-5.6q0-5.1,3.3-15.9a240.4,240.4,0,0,1,9.9-25.8H265.9a7.2,7.2,0,0,1,1.1-3.1,8.1,8.1,0,0,1,1.6-2.2,41.3,41.3,0,0,1,6.1-1.3c2.1-.3,4.4-.7,6.9-1.3,1.2-2.5,2.4-5.4,3.8-8.6l3.8-9.5,2.9-8A13.8,13.8,0,0,0,293,68.7Z" fill="#f9f9f9"/>
          <path d="M338.8,50.2a9.4,9.4,0,0,1,3.2-2.6l3.2-1.5,2.8-.6,2-.2a4.6,4.6,0,0,1,1.5,1.9l1.2,1.9c-1.6,3.3-3.4,7.3-5.6,12l-7,15.4c-2.5,5.6-5.1,11.4-7.6,17.5s-4.9,12.1-7.1,18.1c-1.5,4.1-2.7,7.7-3.6,10.6a64.2,64.2,0,0,0-2,7.8,40.3,40.3,0,0,0-.9,6.2c-.1,1.8-.2,3.5-.2,5.2a16.3,16.3,0,0,0,1.2,6.8,19.2,19.2,0,0,1-1.5,4.8,20.3,20.3,0,0,1-5.1,2.4l-5.1,1.6c-1.8-.9-2.7-2.7-2.7-5.3a66.4,66.4,0,0,1,.8-9.5A118.4,118.4,0,0,1,309,131c1.2-4.2,2.8-9,4.7-14.3s4.2-11.3,7-17.9c4.9-12.4,9.1-22.8,12.5-31.3S338.5,53.2,338.8,50.2Z" fill="#f9f9f9"/>
          <path d="M362.2,95.6l3.7-.9a21.8,21.8,0,0,1,4.2-.5,26.1,26.1,0,0,1,10.1,1.7,6.9,6.9,0,0,1,4.7,6.4,11.5,11.5,0,0,1-2.4,7.2,22.6,22.6,0,0,1-7.1,6.1,41.2,41.2,0,0,1-10.8,4.3,55.5,55.5,0,0,1-13.2,1.6c-2.9,6.6-4.4,12.6-4.4,17.9a19.3,19.3,0,0,0,.7,5.5c.4,1.6,1.6,2.4,3.5,2.4A14.6,14.6,0,0,0,357,146a55.8,55.8,0,0,0,6.4-3.3,69.1,69.1,0,0,0,6.2-4.4,64,64,0,0,0,5.4-4.4,6.2,6.2,0,0,1,1.3,2.9,16.9,16.9,0,0,1,.3,3.5,84.1,84.1,0,0,1-7,5.3,90.4,90.4,0,0,1-8.8,5.4,65.7,65.7,0,0,1-9.1,4.1,20.7,20.7,0,0,1-7.6,1.7c-6.9,0-10.3-3.4-10.3-10.2a40.4,40.4,0,0,1,2.4-13,82.6,82.6,0,0,1,6.3-14,87.3,87.3,0,0,1,8.9-13.2A68.9,68.9,0,0,1,362.2,95.6Zm3.3,4.6a55.8,55.8,0,0,0-5.8,6.4,59.4,59.4,0,0,0-5.8,8.9,43.4,43.4,0,0,0,7.1-.6,35.7,35.7,0,0,0,6.5-1.9,12.6,12.6,0,0,0,4.5-3.2,7.1,7.1,0,0,0,1.8-4.7,3.9,3.9,0,0,0-2.2-3.8A13.1,13.1,0,0,0,365.5,100.2Z" fill="#f9f9f9"/>
        </g>
        <g>
          <path d="M240.4,262.3c0,4-1.7,7.9-5.2,11.5s-8.5,7.1-15,10.5a62.3,62.3,0,0,1-14,4.9,59.2,59.2,0,0,1-14.6,1.9c-3,0-6.6-.2-10.8-.5a14.9,14.9,0,0,1-3.1-5.2l-3.6.2h-3.5a16.9,16.9,0,0,1-2.2-2.9,33,33,0,0,1-1.8-3.2c.4-1.7,1-3.8,1.7-6.1s1.7-5,2.8-8.1,2.4-6.6,4-10.8,3.4-8.9,5.5-14.2c1-2.6,2.3-5.5,3.8-8.7l4.5-9.7c1.6-3.2,3.1-6.4,4.6-9.5l4.3-8.3c-2-.3-4.3-.6-7-.8l-7.6-.7q0-1.9,2.4-4.5a14.9,14.9,0,0,1,4.4-3.4l7,.6,8.1,1q4.1.4,8.1,1.2l7,1.4a39.1,39.1,0,0,1,14,5.8c3.7,2.5,5.5,5.5,5.5,9a12.3,12.3,0,0,1-2.6,7.2,40.2,40.2,0,0,1-6.3,6.9,58.6,58.6,0,0,1-8.2,5.9,44.1,44.1,0,0,1-8.1,4.1c-.5.2-.6.5-.4.9a1,1,0,0,0,.8.7,82.7,82.7,0,0,1,12.3,5.2A31.2,31.2,0,0,1,235,250a15.8,15.8,0,0,1,4.2,5.8A18.2,18.2,0,0,1,240.4,262.3Zm-50.2-16.9a207,207,0,0,0-6.7,20.3,72.2,72.2,0,0,0-2.6,15.6c1.7,1.2,4.9,1.8,9.8,1.8a82.9,82.9,0,0,0,10.6-.7,42.5,42.5,0,0,0,10.5-2.7,34,34,0,0,0,5.4-2.7,34.8,34.8,0,0,0,4.8-3.8,20.5,20.5,0,0,0,3.4-4.5,9.7,9.7,0,0,0,1.4-4.7c0-3.2-1.6-6.2-4.6-9.1s-7.6-5.3-13.7-7.2c-2.1-.5-4.8-1-8.2-1.5S193.5,245.6,190.2,245.4ZM227.5,216c0-2.6-1.8-4.8-5.4-6.5a49.6,49.6,0,0,0-13.8-4c-2.7,5-5.4,10.3-8,16s-5,11.2-7.1,16.5a50.9,50.9,0,0,0,10.4-2,47.5,47.5,0,0,0,12-5.3,37.1,37.1,0,0,0,4.1-2.8,44,44,0,0,0,3.9-3.5,18,18,0,0,0,2.8-4A9.9,9.9,0,0,0,227.5,216Z" fill="#fcfcfc"/>
          <path d="M276.5,227.2l3.7-.9a17.1,17.1,0,0,1,4.3-.6,28.7,28.7,0,0,1,10.2,1.7c2.9,1.1,4.4,3.3,4.7,6.5a11.6,11.6,0,0,1-2.4,7.3,22.2,22.2,0,0,1-7.2,6.2,41.2,41.2,0,0,1-10.8,4.3,57.9,57.9,0,0,1-13.4,1.6c-2.9,6.7-4.4,12.7-4.4,18.1a23.8,23.8,0,0,0,.6,5.5c.4,1.6,1.6,2.5,3.6,2.5a15.7,15.7,0,0,0,5.9-1.4,55.8,55.8,0,0,0,6.4-3.3c2.2-1.4,4.3-2.9,6.3-4.4s3.8-3,5.4-4.4a7.4,7.4,0,0,1,1.4,2.8,33.6,33.6,0,0,1,.2,3.6c-1.9,1.6-4.2,3.4-7.1,5.4s-5.8,3.7-8.8,5.4a82.5,82.5,0,0,1-9.2,4.2,23.5,23.5,0,0,1-7.7,1.7c-6.9,0-10.3-3.5-10.3-10.3a41.6,41.6,0,0,1,2.4-13.2,87.2,87.2,0,0,1,6.3-14.1,91.4,91.4,0,0,1,9-13.3A74.8,74.8,0,0,1,276.5,227.2Zm3.3,4.6a57.9,57.9,0,0,0-5.8,6.5,59.7,59.7,0,0,0-5.9,8.9,43.7,43.7,0,0,0,7.2-.6,24.7,24.7,0,0,0,6.5-1.9,13.1,13.1,0,0,0,4.6-3.2,7.2,7.2,0,0,0,1.8-4.8,4,4,0,0,0-2.2-3.8A14.6,14.6,0,0,0,279.8,231.8Z" fill="#fcfcfc"/>
          <path d="M339.2,228a6.8,6.8,0,0,1,3.2,1.1l3.9,2.3,2.8-1.6,2.8-1.6,2.4.9a4.8,4.8,0,0,1,2.3,1.6c-1.5,3.1-3,6.5-4.7,10.4s-3.3,7.8-4.7,11.7-2.7,7.8-3.7,11.5A37.1,37.1,0,0,0,342,274q0,3.9,2.1,3.9a8.6,8.6,0,0,0,4.1-1.6,43,43,0,0,0,5.2-3.5,18.5,18.5,0,0,1,.9,2.3c.2,1,.4,1.8.5,2.7l-4.6,3.6a61.7,61.7,0,0,1-6,3.9,43.1,43.1,0,0,1-6,3.1,14,14,0,0,1-4.7,1.3,3.1,3.1,0,0,1-2.2-1.4,6.3,6.3,0,0,1-1.2-4.3c0-.7.1-1.8.2-3.3a29.3,29.3,0,0,1,.7-4.8c.3-1.7.8-3.5,1.2-5.3a51.4,51.4,0,0,1,1.6-5.1c.2-.2,0-.5-.4-.7s-.8-.1-1.2.4a91.4,91.4,0,0,1-8.8,8.8,86.9,86.9,0,0,1-8.7,7.2,52.9,52.9,0,0,1-8.1,4.9,16.5,16.5,0,0,1-6.9,1.8,3.6,3.6,0,0,1-2.7-1.6c-.9-1.1-1.3-2.8-1.3-5.2a39.8,39.8,0,0,1,1.6-10.8,61.4,61.4,0,0,1,5.2-12,68.1,68.1,0,0,1,9-12.2,76.5,76.5,0,0,1,12.9-11.5,64.7,64.7,0,0,1,7.7-4.5A16.7,16.7,0,0,1,339.2,228Zm-3.9,7.5q-2.6,0-6.9,3.6a55.5,55.5,0,0,0-8.6,8.8,67.2,67.2,0,0,0-7.4,11.8,28.1,28.1,0,0,0-3.1,12c0,2,.5,3,1.4,3s3.3-.7,5.6-2.2A41.5,41.5,0,0,0,324,266a95.1,95.1,0,0,0,8.7-10.7,104.2,104.2,0,0,0,8.6-14.6,14.2,14.2,0,0,0-2.9-3.4C337,236.1,336,235.5,335.3,235.5Z" fill="#fcfcfc"/>
          <path d="M393.5,235.1a65,65,0,0,0-7.1,7.4,87,87,0,0,0-7.1,9.9,57.3,57.3,0,0,0-5.1,10.6,31.3,31.3,0,0,0-1.8,9.4,6.8,6.8,0,0,0,1.7,4.7,6.1,6.1,0,0,0,4.3,1.7c2.6,0,5.8-1.4,9.5-4.1s8.4-7.4,13.9-13.6a6.1,6.1,0,0,1,1.6,2.1,8.3,8.3,0,0,1,.6,3.2,128.1,128.1,0,0,1-17.7,16.7c-5.7,4.4-11.1,6.6-16.1,6.6a10.3,10.3,0,0,1-7.1-2.7c-2-1.8-3-4.9-3-9.4a34.9,34.9,0,0,1,3.3-13.8A83.3,83.3,0,0,1,372,249a91.2,91.2,0,0,1,12.1-13.5,63.9,63.9,0,0,1,13.7-9.9,21.9,21.9,0,0,1,3.3.2l3.2.6a29.4,29.4,0,0,1,2.2,2.7c.4.7.9,1.6,1.4,2.7a17.4,17.4,0,0,1-1.4,4.8l-3.9,1.9a10.2,10.2,0,0,1-3.8,1.1,6.9,6.9,0,0,1-2.3-2.7A3.1,3.1,0,0,0,393.5,235.1Z" fill="#fcfcfc"/>
          <path d="M403.4,285.2c1.2-2.6,2.7-6.1,4.5-10.6s3.7-9.5,5.7-14.9,4.1-10.9,6.2-16.7,4.1-11.2,5.8-16.4c3.8-11.2,7-20.8,9.5-28.7s3.6-13.6,3.5-16.9a35.5,35.5,0,0,1,4.3-3.5,10,10,0,0,1,4.1-2,7.4,7.4,0,0,1,3.6.9c1.1.6,2.2,1,3.1,1.4-1.2,3.2-2.3,6.2-3.4,9s-2.1,5.8-3.3,8.8-2.3,6.3-3.6,9.8-2.8,7.5-4.4,12c-.7,1.8-1.7,4.3-2.9,7.6s-2.4,6.7-3.7,10.1-2.6,6.7-3.7,9.8l-2.7,6.8c-.1.6,0,.9.4,1.1s.8.2,1-.1l10.5-9c3.7-3.1,7.2-5.9,10.7-8.4a79,79,0,0,1,9.6-6.1c3.1-1.6,5.6-2.4,7.6-2.4a3.2,3.2,0,0,1,2.6,1.3,5.3,5.3,0,0,1,.9,3,31,31,0,0,1-1.8,9.9c-1.3,3.6-2.6,7.2-4.1,10.8s-2.8,7.3-4,10.8a26,26,0,0,0-1.6,9.3,4.8,4.8,0,0,0,1,2.9,5.8,5.8,0,0,0,2,2.1c-.2.6-.5,1.4-.8,2.6a11.6,11.6,0,0,1-1.1,2.7,23.4,23.4,0,0,1-5.5,2.7,25,25,0,0,1-6.3,1.4c-.6,0-1.2-.5-1.7-1.3a6.5,6.5,0,0,1-.9-3.7,35.8,35.8,0,0,1,1.7-10.4c1.2-3.6,2.5-7.1,3.9-10.4s2.6-6.6,3.8-9.5a19.8,19.8,0,0,0,1.8-7.1,6.5,6.5,0,0,0-.4-1.9,1.2,1.2,0,0,0-1.2-1c-1.5,0-3.4.8-6,2.5a67.9,67.9,0,0,0-8.3,6.6,91,91,0,0,0-17,20.4c-1.7,2.8-2.9,5.1-3.8,6.9l-3.5,6.9a20.7,20.7,0,0,1-5,2.1l-4,.8a2.8,2.8,0,0,1-1.5-.8A5.6,5.6,0,0,0,403.4,285.2Z" fill="#fcfcfc"/>
        </g>
        <g>
          <path d="M211.5,400.7c0-9.4-.6-17.6-.7-25.7h19.7l1.1,9.8h.3a24.7,24.7,0,0,1,20.8-11.2c16.3,0,22.8,13,22.8,32v55H252.6V407c0-7.1-1.8-14.1-8.4-14.1-3.9,0-7,2.6-8.6,7.6a23,23,0,0,0-1.2,7.9v52.2H211.5Z" fill="#fafbfc"/>
          <path d="M281.3,339.5h22.9V460.6H281.3Z" fill="#fafbfc"/>
          <path d="M333.3,352.3c.2,7.3-5.1,12.4-12.1,12.4s-11.5-5.1-11.4-12.4,5.5-12.5,11.8-12.5S333.3,344.6,333.3,352.3ZM310.4,460.6V375h22.9v85.6Z" fill="#fafbfc"/>
          <path d="M339.1,400.7c0-9.4-.5-17.6-.7-25.7h19.8l1,9.8h.4a24.5,24.5,0,0,1,20.8-11.2c16.2,0,22.7,13,22.7,32v55H380.2V407c0-7.1-1.8-14.1-8.4-14.1-3.8,0-7,2.6-8.6,7.6a23,23,0,0,0-1.2,7.9v52.2H339.1Z" fill="#fafbfc"/>
          <path d="M428,425.9c.3,13.3,8,18.2,18.2,18.2a50.9,50.9,0,0,0,16.3-2.8l3.1,16.5c-5.9,2.2-14.9,3.8-23.6,3.8-23.3,0-36.1-15.4-36.1-42.2,0-28.6,14.9-45.8,34.3-45.8s29.1,14.5,29.1,40.4c0,6.2-.2,9.5-.7,11.9Zm20.5-16.1c0-11-2.8-19.6-9.7-19.6s-10.5,11.1-10.6,19.6Z" fill="#fafbfc"/>
        </g>
        <g>
          <ellipse cx="126.3" cy="395.1" rx="73.2" ry="71.7" fill="#fcfcfc"/>
          <g>
            <path d="M194.7,394.7a65.9,65.9,0,0,0-1.2-12.7c-7.1-14.3-31.1-50-91.5-36.2,0,0,70.9,77.1,63.4,104.5A67.4,67.4,0,0,0,194.7,394.7Z" fill="url(#radial-gradient)"/>
            <path d="M102.1,345.8c-28.8,9.1-39.2,27.4-42.2,44.6-.1,1.4-.1,2.8-.1,4.3a67.5,67.5,0,0,0,56.7,66.6l-.6-.4C59.4,421.4,102.1,345.8,102.1,345.8Z" fill="url(#radial-gradient-2)"/>
            <path d="M130.3,327.3h-3.1A67.4,67.4,0,0,0,89.1,339c6.4.9,12.9,6.9,12.9,6.9C113.2,332.2,124.3,328.4,130.3,327.3Z" fill="url(#linear-gradient)"/>
            <path d="M131,327.4c-13.4,1.5-22.2,10.4-28.9,18.4,0,0,71.2-18.7,92.4,44.4A67.3,67.3,0,0,0,131,327.4Z" fill="url(#radial-gradient-3)"/>
            <path d="M144.4,398c-8.8-12.5-18.6-24.7-26.6-34.2s-15.8-18-15.8-18a145.2,145.2,0,0,0-11.4,28.9c-2.8,10.3-4.9,22.5-4.1,35,1.2,18.6,8.8,37.7,29.9,51.6a76.2,76.2,0,0,0,10.8.8,67.4,67.4,0,0,0,38.4-11.9C169.4,438.9,158.3,418.1,144.4,398Z" fill="url(#radial-gradient-4)"/>
            <path d="M125.4,343.2a99,99,0,0,0-23.3,2.6h0c.7.8,7.2,7.8,15.7,18s17.8,21.7,26.6,34.2a27.5,27.5,0,0,0,1.9,2.8c15.9-11.8,26.5-26.6,29.3-40.5-15.4-13.9-35-17.1-50.2-17.1Z" fill="url(#radial-gradient-5)"/>
            <path d="M101.9,345.8,98.5,347c-8.3,3.2-36,13.8-38.5,41.8a9.2,9.2,0,0,1-.1,1.6c-.1,1.4-.1,2.8-.1,4.3a65.9,65.9,0,0,0,5,25.5,62.1,62.1,0,0,0,18.9,2.7l4.8-.2a73.1,73.1,0,0,1-2-13c-.8-12.5,1.3-24.7,4.1-35a142.1,142.1,0,0,1,11.3-28.8Zm.2,0h0Z" fill="url(#radial-gradient-6)"/>
            <path d="M89.2,339h0A67.4,67.4,0,0,0,60,388.9c.2-.5.3-1,.5-1.5a65.1,65.1,0,0,1,38-40.4l3.4-1.2c-.8-.7-6.9-6-12.8-6.7a.1.1,0,0,1,.1-.1Z" fill="url(#radial-gradient-7)"/>
            <path d="M127.2,327.2a67.1,67.1,0,0,0-38,11.8.1.1,0,0,0-.1.1c5.9.7,12,6,12.8,6.7h.2l.3-.4,1.5-1.7c5.9-6.7,13.3-13.5,23.8-15.8.9-.3,2.6-.4,3.4-.6Z" fill="url(#linear-gradient-2)"/>
            <path d="M131,327.4l-3.3.5c-10.5,2.3-17.9,9.1-23.8,15.8l-1.5,1.7-.3.4h0a99,99,0,0,1,23.3-2.6c15.2,0,34.8,3.2,50.2,17.1a33.6,33.6,0,0,0,.4-12.2,66.9,66.9,0,0,0-45-20.7Z" fill="url(#radial-gradient-8)"/>
            <path d="M102,345.8h-.1a142.1,142.1,0,0,0-11.3,28.8c-2.8,10.3-4.9,22.5-4.1,35a73.1,73.1,0,0,0,2,13A103.8,103.8,0,0,0,128,411.9a109.9,109.9,0,0,0,18.3-11.1,27.5,27.5,0,0,1-1.9-2.8c-8.8-12.5-18.6-24.7-26.6-34.2s-15-17.2-15.7-18Z" fill="url(#radial-gradient-9)"/>
            <path d="M118.8,341.5c2.9,5.6-1.8,13.9-10.5,18.4s-18.2,3.6-21.1-2,1.8-13.8,10.6-18.3S115.9,335.9,118.8,341.5Z" fill="#fff"/>
            <path d="M98.1,340.3c-4.9,2.6-8.6,6.5-9.9,10.6a7.7,7.7,0,0,0,5.3,10.3c4.1,1.3,9.5.5,14.4-2,8-4.2,12.3-11.8,9.6-17h0a8.1,8.1,0,0,0-5-3.9C108.5,337,103.1,337.8,98.1,340.3Zm-4.4,20.3A7.7,7.7,0,0,1,89,357a8.4,8.4,0,0,1-.3-5.9c1.3-3.9,4.9-7.8,9.7-10.3s10-3.2,14-1.9a7.4,7.4,0,0,1,4.6,3.6,6.7,6.7,0,0,1,.7,3.1c0,4.5-3.9,9.8-10.1,13S97.6,361.9,93.7,360.6Z" fill="#4ca8e3"/>
          </g>
        </g>
      </g>
    </g>
  </g>
</svg>
