<svg xmlns="http://www.w3.org/2000/svg" viewBox="0 0 295.23 50.96"><defs><style>.cls-1{fill:#231f20;}</style></defs><title>tri-city-herald</title><g id="Layer_2" data-name="Layer 2"><g id="tcy"><path class="cls-1" d="M179.63,2.3a9.61,9.61,0,0,1-4,3.61c-3.74,2.32-7.87-3-11.14.6-.46-1,.3-2.53,1-3.35.88-1.37,2.85-2.1,4.15-2.56,4.07-.49,6,2.83,10,1.7m87.61,32.26s0-28.63,0-30.12a20.81,20.81,0,0,1,.87-4.36,67.94,67.94,0,0,1-6.81,3.47A10.73,10.73,0,0,1,262,6.69c0,1.72,0,28.44,0,28.44a4.77,4.77,0,0,0-2.66,3.95c3.72-1.58,6.42,1.15,8.29,2.76L272,36.45c-1.32.33-3.23-2-4.79-1.89M24.72,32.13c-2.23,3-6.87,3.7-10.4,3.48-3.59-.5-6.62-3.83-8.12-7C3.61,22.68,4.86,14.8,8.68,9.83c-.28-.16-.28-.31-.63-.5a25,25,0,0,0-6.71,10C-1.07,25.64-.32,33.71,4.87,38.47c3.15,3.15,7.86,4,12.22,2.94,6-1.59,9.85-7.68,11.2-13.2l-.47-.42a41.43,41.43,0,0,1-3.1,4.34m100-16.42c0-1.53,0-4.76,0-5.63,0-1.05.3-3.14.44-4.24A31.48,31.48,0,0,1,119.21,9a36.17,36.17,0,0,1,.29,6.67c-1.21,0-2,0-2.79,0l-1.43,4.65A8,8,0,0,1,116.7,20l2.8,0V35a4.49,4.49,0,0,0-2.7,4c4-1.45,6,.81,8.31,2.79l4.36-5.39a2.18,2.18,0,0,1-1.18-.24,13.24,13.24,0,0,0-3.6-1.61V20c.9,0,1.78,0,2.24,0a10.73,10.73,0,0,1,1.14.08l1-4.84a15.7,15.7,0,0,1-4.42.54M56.27,8a4.49,4.49,0,0,1-3.1-2.15L48.69,9.31c.33.1.37.09.57.16a2.49,2.49,0,0,1,.69.44c1.28,1,2.75,2,4.47,1.59,1.59-.69,3.43-2.26,3.27-4-.47.12-.89.52-1.42.52M19,27.06V8.59c-2.38,1.56-3.75,2.5-6.1,4a2.47,2.47,0,0,1,.89,1.55c0,5.33,0,12.22,0,17.73a4.25,4.25,0,0,1-.52,2A7.92,7.92,0,0,0,19,27.06M56.37,16.47c-1.53,0-2.63-1.85-3.39-2.86-1.72,1.93-3.49,3.57-5.09,5.2a2.43,2.43,0,0,1,.74.15,7.94,7.94,0,0,1,1.91,1.46c.06,5.31,0,10.53,0,15.24A6.08,6.08,0,0,0,53.12,41c.92.53,1.8.72,2.05.42s3.15-3.8,4.08-5.11l-1.2.13A2.43,2.43,0,0,1,55.74,35c0-4.9,0-9.81,0-15a4.57,4.57,0,0,0,2.57-4,3,3,0,0,1-2,.51m14.42,12.7c.4-2.07.75-3.54,1.15-5.5a19.82,19.82,0,0,1-4.36.39c.16,0-2.94,0-4.34,0L61.6,29.41a23,23,0,0,1,4.89-.26c.34,0,2.89,0,4.3,0M43.68,16.28c-1.76-.37-1.93-1.84-2.45-3.06a26.32,26.32,0,0,1-4.53,6.11c-.62-2.24-1.18-5.43-3.77-6a21.52,21.52,0,0,1-4,5.55s2.53.6,2.52,1.91l0,14.18a4.67,4.67,0,0,0-2.69,4s.43-.49,2.59-.56,4.08,1.93,5.75,3.29l4.4-5.43a2.33,2.33,0,0,1-1.2-.18c-1.65-.87-2.58-1.76-3.65-1.73,0-4.06,0-9.94,0-12.53l2.07-2.31a4.77,4.77,0,0,0,3,1.73,3.83,3.83,0,0,0,3.13-1.5,5.74,5.74,0,0,0,1-4.11,3.11,3.11,0,0,1-2.24.57M22.74,7.85c1.43-.19,5.83-3.68,6-5.39l-.45-.4a1.94,1.94,0,0,1-1.19.71C19.66,3.64,12.33.33,5,2a8.9,8.9,0,0,0-5,6.6c1.16-1.14,2.32-2.09,4-2,6.23.41,12.58,1.83,18.77,1.18M218.55,22.33A79.13,79.13,0,0,1,214,13.1a18.52,18.52,0,0,1-11,4s1.09,1.25,1.09,2c0,.92,0,16,0,16A4.69,4.69,0,0,0,201.36,39c4.31-.9,8.6.6,11.94,2.87l4.6-6.43-.79-.79c-.56.61-1,1.08-1.44,1.67-2.06-1.63-4.51-1.7-6.44-1.8V29.12c3.69-2.6,6.22-4.48,9.32-6.79m-5.27.94c-1.25,1-2.59,2-4,2.95V17.36a1.6,1.6,0,0,1,.43-.25,1.23,1.23,0,0,1,.43-.1Zm21.63-7c-1.76-.37-1.93-1.83-2.45-3.06a26.61,26.61,0,0,1-4.52,6.12c-.63-2.24-1.19-5.43-3.78-6-1.43,2.22-2.54,3.66-4,5.55,0,0,2.53.6,2.52,1.91l0,14.18a4.74,4.74,0,0,0-2.76,4s.43-.5,2.59-.57,4.08,1.93,5.75,3.3l4.4-5.44a2.21,2.21,0,0,1-1.2-.18c-1.65-.87-2.57-1.75-3.63-1.73.07-4.07-.06-7.74,0-12.56l2-2.28a4.74,4.74,0,0,0,3,1.74,3.84,3.84,0,0,0,3.13-1.5,5.79,5.79,0,0,0,1-4.11c-.72.33-1.37.81-2.25.56M184.48,36.49a3.07,3.07,0,0,1-.94-.15,30.38,30.38,0,0,1-2.73-1.51,2.9,2.9,0,0,0-1.08-.39V22.09h11.06l0,13a4.85,4.85,0,0,0-1.89,1.57,5.45,5.45,0,0,0-.85,2.43,5.32,5.32,0,0,1,4-.3,19.07,19.07,0,0,1,4.34,3.08c1.68-2.11,2.73-3.52,4.38-5.43a3.91,3.91,0,0,1-2.46-.92,4.46,4.46,0,0,0-2.33-1l0-27.75c1.46-.6,2.69-2.91,2.4-4-3,1.42-2.94-.58-4.37-2.26l-5.8,5.09c.72.19.87,0,2.55,1.61v9.65h-11V8.9c0-.67.25-3.13.32-3.4a7.15,7.15,0,0,0-5.54,7.27v4.06s-.73-.09-2.27,1.38A5.52,5.52,0,0,0,171,24a3.47,3.47,0,0,1,3.49-1.89V34.35c-4.35.8-8.54,5.27-8.56,6.23a3.82,3.82,0,0,0,.45.45,8.06,8.06,0,0,1,.88-.61,12.66,12.66,0,0,1,9-.62,26.07,26.07,0,0,1,3.75,2c2-2.44,2.41-2.89,4.38-5.33m-39.81,4.8s0,2.4,0,2.92a3.29,3.29,0,0,1-1.17,1.6c-.42.34-1.5,1-1.79.92s-2.93-1-5.43-1.67-4.69,1.44-5.69,3.14-.49,2.7-.49,2.7a3.87,3.87,0,0,1,3.29-1.22c.59,0,4.43,1.12,4.43,1.12a4.74,4.74,0,0,0,3.93-.75c.51-.37,6-4.39,6.88-5a2.48,2.48,0,0,1,1.73-.52,7,7,0,0,1-.61-2.33V19.91c2.26-1.17,2.61-4.07,2.61-4.07a3.22,3.22,0,0,1-2.88.28c-.92-.4-2.57-2.64-2.57-2.64-.06.29-5,5.13-5,5.13a9,9,0,0,1,2.61,1.62V36.51l-1.72.63-.29-.23a18,18,0,0,0-3-2.1,4.5,4.5,0,0,0-1.38-.31s0-8,0-14.14-3.65-6.72-3.65-6.72-3.36,4.89-3.73,5.18c0,0,2.18.32,2.18,2S133,35,133,35a4.6,4.6,0,0,0-2.78,4.09s2.82-1.35,5.16,0,4.46,2.78,4.46,2.78,4-2.67,4.8-3ZM111.88,8a4.49,4.49,0,0,1-3.1-2.15L104.3,9.34c.34.1.37.09.58.17a2.35,2.35,0,0,1,.68.43c1.28,1,2.75,2,4.47,1.59,1.59-.69,3.43-2.26,3.27-4-.47.12-.88.52-1.42.52m.1,8.48c-1.53,0-2.63-1.85-3.39-2.86-1.72,1.93-3.48,3.57-5.09,5.2a2.77,2.77,0,0,1,.74.15,8.48,8.48,0,0,1,1.92,1.46c0,5.31-.06,10.53,0,15.24A6.07,6.07,0,0,0,108.73,41c.93.53,1.81.72,2.06.43s3.15-3.81,4.07-5.12l-1.2.14A2.46,2.46,0,0,1,111.35,35c0-4.9,0-9.82,0-15a4.57,4.57,0,0,0,2.57-4,3,3,0,0,1-2,.51M87.2,2.27c-4.86,2.24-8.6,7.05-10.35,12.45C74.4,21.82,75.17,31.07,80,36.54c3.26,4,7.44,5.91,12.44,5.08,4.48-.72,8.68-5.06,10.79-9.45a8.89,8.89,0,0,0,.68-1.63c-.09-.07-.27-.27-.42-.41a13.82,13.82,0,0,1-5,4.68c-1.6,1.18-7.31.9-9.32.11-5-1.7-7.84-6.61-8.42-12S80.69,12.55,83,8.26a4.92,4.92,0,0,1,1.7-1.61,3.61,3.61,0,0,1,2.36-.43c5.54,1.17,4.24,2,9.86,2.12,1.3,0,5.62-2.65,6-4.32a6.26,6.26,0,0,0-.37-.75,1.65,1.65,0,0,1-1.14.56C94.63,3.78,95.26,1,88.51,1.74a6.42,6.42,0,0,0-1.31.53M286.62,7.7v6.59a3.31,3.31,0,0,1-1.58-1,20.85,20.85,0,0,1-3.69,2.47c-3.09,1.08-4.63,1.57-7.32,1.44a4.73,4.73,0,0,1,1.06,2.18c0,.92,0,15.55,0,15.55A4.59,4.59,0,0,0,272.3,39a4.58,4.58,0,0,1,1.58-.47,6.28,6.28,0,0,1,4.92,1.32c1.18.64,2,1.26,3.13,2l1.7-1.62a6.3,6.3,0,0,1,2.15-1.22c.34-.09.92-.25,1.28-.33a4.69,4.69,0,0,0,1.4,1.93c1.2,1,2.37,1.23,2.77.88.44-.76,3.54-4.31,4-5.1-1.33.46-3.44-.45-3.44-1.31,0-.46,0-7.51,0-15a4.53,4.53,0,0,0,2.55-4c-.7.67-2.55.46-2.55.42,0-4.9,0-11.06,0-12A14.27,14.27,0,0,1,292.56,0a53.46,53.46,0,0,1-6.77,3.42,8.81,8.81,0,0,1,.83,4.28M287,36.63c-1.61,1.81-2.37-.78-4.58-1.81a6,6,0,0,0-1.75-.46l.05-16,.73-.64a2.38,2.38,0,0,1,.87.13,20.66,20.66,0,0,0,2.4,2,8,8,0,0,0,2.27.63Zm-36.64-1.47a5.7,5.7,0,0,1-3,1.12c-1.74.19-4.45-2.1-3.7-5.3s5.67-5.73,5.67-5.73l-.29-.77c-2.12.57-2.74.74-6,3-6.84,4.73-4.31,9.16-3.21,10.86s4.84,3.27,6.63,3.27a1.06,1.06,0,0,0,.52-.29c.15-.14,3.58-4,3.58-4,.63,2.48,2.06,3.59,3.13,3.94a2.2,2.2,0,0,0,1.34.15l4-5.12c-1.85.53-3.43-.8-3.43-1.26V20a4.79,4.79,0,0,0,2.55-4,3.8,3.8,0,0,1-2.24.43c-1.2-.05-3.18-2.73-3.18-2.73-2.52,3.77-4,4-5.45,4s-2.87-3.77-2.87-3.77c-1.92,1.6-5.84,4.56-5.84,4.56a6.69,6.69,0,0,0,5.3,2.65,7.53,7.53,0,0,0,4.55-2.18s1,.94,1.27,1.24a2.66,2.66,0,0,0,.71.49Z"/></g></g></svg>