<svg xmlns="http://www.w3.org/2000/svg" viewBox="0 0 512 512">
  <title>el-nuevo-herald</title>
  <g id="Layer_2" data-name="Layer 2">
    <g id="Art">
      <g>
        <path d="M173.4,344.7v51.7a31.7,31.7,0,0,1-31.5,31.8H109.2a31.8,31.8,0,0,1-31.9-31.8V115.6a31.8,31.8,0,0,1,31.9-31.8h32.7a31.7,31.7,0,0,1,31.5,31.8v35.8H141.9V111.3H109.2V400.7h32.7v-56Z" fill="#fff"/>
        <path d="M211,83.8h64.2A31.8,31.8,0,0,1,307,115.6V396.4a31.8,31.8,0,0,1-31.8,31.8H211Zm31.4,316.9h32.8V111.3H242.4Z" fill="#fff"/>
        <path d="M371.4,111.3H339.5V83.8h95.2v27.5H402.8V428.2H371.4Z" fill="#fff"/>
      </g>
      <rect width="512" height="512" fill="#0779be"/>
      <g>
        <path d="M90.1,148.4h9.3V118.6c0-5.5-1.9-5.9-4.7-5.9s-4.6.4-4.6,5.9Zm216.8,0h9.2V118.6c0-5.5-1.8-5.9-4.6-5.9s-4.6.4-4.6,5.9Zm115.6,53.8a4.1,4.1,0,0,0,.1-1.2V118.6c0-5.5-1.8-5.9-4.6-5.9s-4.7.4-4.7,5.9V201c0,.5.1.9.1,1.2h0c.2,4.4,2,4.7,4.6,4.7s4.3-.4,4.5-4.7Zm19.3,0c-.3,12-9.5,19.5-23.8,19.5s-23.6-7.5-23.9-19.5v-84c0-12.5,9.2-20.3,23.9-20.3s23.8,7.8,23.8,20.3v84ZM392.6,99.4,379.1,202.2l-2.4,18H352.6l-2.2-18L337.8,99.4h19.3l4.6,42.1c2.2,19.8,2.2,36.9,2.6,55.3,1.8-14,1.6-28.1,3.2-42.1l6-55.3ZM316.1,201V172.7h19.3v29.5c-.4,12-9.5,19.5-23.9,19.5s-23.5-7.5-23.8-19.5v-84c0-12.5,9.2-20.3,23.8-20.3s23.9,7.8,23.9,20.3v44.4H306.9v39.6c.3,4.4,2.1,4.7,4.6,4.7s4.3-.4,4.6-4.7Zm-33.8,19.2H263v-6.9c-3.2,5.7-8.4,8.4-13.6,8.4-13.8,0-14.8-8.5-14.9-19.5V99.4h19.3V197a14.6,14.6,0,0,0,.7,5.2,3.5,3.5,0,0,0,3.5,2.2c2.3,0,3.5-.9,4.2-2.2a11.2,11.2,0,0,0,.8-5.2V99.4h19.3V220.2Zm-54.1.2H208.5l-4.7-18.2c-5.2-20.2-13-51.5-15.1-62.8l-.7-2.3v83.3H169.2V69.6h19.5l9.1,43.2c5.9,27.5,11.1,48.6,11.1,48.6.2-14.2-1.8-91.8-1.8-91.8h21.1Zm-85.5-.2H123.4V69.8h19.3ZM99.4,201V172.7h19.2v29.5c-.4,12-9.5,19.5-23.9,19.5s-23.5-7.5-23.8-19.5v-84c0-12.5,9.2-20.3,23.8-20.3s23.9,7.8,23.9,20.3v44.4H90.1v39.6c.2,4.4,1.9,4.7,4.5,4.7s4.3-.4,4.6-4.7Z" fill="#fff"/>
        <path d="M170.9,346.3h11.7v-39c0-7.2-2.3-7.8-5.9-7.8s-5.8.6-5.8,7.8Zm142,72c.6-.9,1.1-1.7,1.4-5V358.5c-6.8,4.4-11.7,7.7-11.7,16.1v38.7a18,18,0,0,0,.8,3.5s1.3,3.4,4.8,3.4,4.7-1.9,4.7-1.9m104.3-1.5a16.5,16.5,0,0,0,1.1-6.8V312.5c0-8.2-2.8-9.6-5.9-9.6s-5.9,1.4-5.9,9.6V410a18.3,18.3,0,0,0,1.1,6.8h0a5.4,5.4,0,0,0,9.6,0Zm25.5,23.7H418.3v-9.4h-.6c-3.8,5.8-10.1,11.3-17.5,11.3-9.4,0-18.1-5.5-18.1-18.5V298.7c0-13,8.7-18.5,18.1-18.5s14,5.8,17.5,11.9h.6V243.3h24.4Zm-69.1,0H349.2V243.3h24.4Zm-34.9,0H315.8c-1.5-3.4-1.5-7.3-1.5-10.9-5.6,9.2-9.4,12.8-19.5,12.8s-16.5-6.4-16.5-18.3V371c0-32.2,35.3-15.3,35.3-55.7,0-4.7,1-15.8-4.9-15.8s-5.8,12.8-5.8,18.3v20.8H278.3V306.7c0-16.3,11.6-26.5,30.2-26.5s30.2,10.2,30.2,26.5Zm-63.3-76H251V312.2c0-4.4-.2-9.7-5.3-9.7s-6.4,5.3-6.4,9.7V440.1H214.9V281.8h24.4v9.1h.5c3.6-7.5,10.2-11.1,16.8-11.1,19.3,0,18.8,13.6,18.8,30.2ZM207,415.8v1c-.5,15.8-12.1,25.6-30.3,25.6s-29.8-9.8-30.2-25.6h0V306.7c0-16.3,11.7-26.5,30.2-26.5S207,290.4,207,306.7v58.2H170.9v52c.4,5.6,2.6,6.1,5.8,6.1s5.5-.5,5.8-6.1V378.2H207Zm-68.8,24.7H111.3V344.7h-15v95.8h-27V243.3h27v75.6h15V243.3h26.9Z" fill="#fff"/>
      </g>
    </g>
  </g>
</svg>
