<?xml version="1.0" encoding="utf-8"?>
<!-- Generator: Adobe Illustrator 23.0.6, SVG Export Plug-In . SVG Version: 6.00 Build 0)  -->
<svg version="1.1" id="Art" xmlns="http://www.w3.org/2000/svg" xmlns:xlink="http://www.w3.org/1999/xlink" x="0px" y="0px"
	 viewBox="0 0 512 512" style="enable-background:new 0 0 512 512;" xml:space="preserve">
<style type="text/css">
	.st0{fill:#98002E;}
	.st1{fill:#FFFFFF;}
	.st2{fill:#0021A5;}
	.st3{fill:none;stroke:#FFFFFF;stroke-width:5.3333;stroke-miterlimit:10;}
	.st4{fill:#F04C24;stroke:#FFFFFF;stroke-width:5.3333;stroke-miterlimit:10;}
	.st5{fill:#FA4616;}
	.st6{fill:#782F40;}
	.st7{fill:none;stroke:#FFFFFF;stroke-width:5.3378;stroke-miterlimit:10;}
	.st8{fill:#F04C24;stroke:#FFFFFF;stroke-width:5.3378;stroke-miterlimit:10;}
	.st9{fill:#CEB888;}
	.st10{fill:#0077C8;}
	.st11{fill:none;stroke:#000000;stroke-width:10.6667;stroke-miterlimit:10;}
	.st12{fill-rule:evenodd;clip-rule:evenodd;}
	.st13{fill-rule:evenodd;clip-rule:evenodd;stroke:#000000;stroke-width:2.6667;stroke-miterlimit:10;}
	.st14{fill:#005030;}
	.st15{fill:#F47321;}
	.st16{fill:#FCEE21;}
	.st17{fill:#E8E7E7;}
	.st18{fill:#A21D3E;}
	.st19{fill:#D98227;}
	.st20{fill:#72BE44;}
	.st21{fill:#231F20;}
	.st22{fill:#CAC8C8;}
	.st23{fill:#0033A0;}
	.st24{fill:#3A578C;}
	.st25{fill:#69BE28;}
	.st26{fill:#80A27B;}
	.st27{fill:#F7C421;}
	.st28{fill:#0039A6;}
	.st29{fill:#F9461C;}
	.st30{fill:#F2F2F2;}
	.st31{fill:#0085CA;}
	.st32{fill:#008CA8;}
	.st33{fill:#FFFFFF;stroke:#FFFFFF;stroke-width:5.3378;stroke-miterlimit:10;}
	.st34{fill:#1D1160;}
	.st35{fill:#FF0000;}
	.st36{fill:#DA291C;}
	.st37{fill:#1E4971;}
	.st38{fill:#5DA423;}
	.st39{fill:#C41230;}
	.st40{fill:#004B8D;}
	.st41{fill:#E4E416;}
	.st42{fill:none;stroke:#FFFF00;stroke-width:10.6667;stroke-miterlimit:10;}
	.st43{fill:url(#SVGID_1_);}
	.st44{fill-rule:evenodd;clip-rule:evenodd;fill:#FCD6C2;}
	.st45{fill-rule:evenodd;clip-rule:evenodd;fill:#FFFFFF;}
	.st46{clip-path:url(#SVGID_3_);}
	.st47{fill-rule:evenodd;clip-rule:evenodd;fill:#231F20;}
	.st48{fill-rule:evenodd;clip-rule:evenodd;fill:none;}
	.st49{fill-rule:evenodd;clip-rule:evenodd;fill:url(#SVGID_4_);}
	.st50{fill:url(#SVGID_5_);}
	.st51{filter:url(#Adobe_OpacityMaskFilter);}
	.st52{fill-rule:evenodd;clip-rule:evenodd;fill:url(#SVGID_7_);}
	.st53{mask:url(#SVGID_6_);}
	.st54{fill-rule:evenodd;clip-rule:evenodd;fill:#FBE5D5;}
	.st55{fill:url(#SVGID_8_);}
	.st56{fill:url(#SVGID_9_);}
	.st57{fill:url(#SVGID_10_);}
	.st58{fill:url(#SVGID_11_);}
	.st59{opacity:0.55;fill:url(#SVGID_12_);}
	.st60{opacity:0.55;fill:url(#SVGID_13_);}
	.st61{opacity:0.55;fill:url(#SVGID_14_);}
	.st62{opacity:0.55;fill:url(#SVGID_15_);}
	.st63{clip-path:url(#SVGID_17_);fill:url(#SVGID_18_);}
	.st64{opacity:0.46;fill:#FFFFFF;}
	.st65{opacity:0.61;fill:url(#SVGID_19_);}
	.st66{filter:url(#Adobe_OpacityMaskFilter_1_);}
	.st67{opacity:0.49;mask:url(#SVGID_20_);}
	.st68{fill:url(#SVGID_21_);}
	.st69{fill:#007980;}
	.st70{fill:#219DA7;}
	.st71{fill:#F04C24;}
	.st72{fill:#7AB2DD;}
	.st73{fill:#004687;}
	.st74{fill:#002A5C;}
	.st75{fill:#93B1D7;}
	.st76{fill:#CA2430;}
	.st77{fill:#9E1721;}
	.st78{fill:#0050BA;}
	.st79{fill:#E8000D;}
	.st80{clip-path:url(#SVGID_23_);fill:#E4A710;}
	.st81{clip-path:url(#SVGID_25_);}
	.st82{fill:#FFDD15;}
	.st83{filter:url(#Adobe_OpacityMaskFilter_2_);}
	.st84{opacity:0.3;mask:url(#SVGID_26_);}
	.st85{fill:#FAAF40;}
	.st86{opacity:0.2;clip-path:url(#SVGID_25_);}
	.st87{opacity:0.5;clip-path:url(#SVGID_25_);fill:#FAAF40;}
	.st88{clip-path:url(#SVGID_25_);fill:#FFCA05;}
</style>
<g>
	<rect class="st69" width="512" height="512"/>
	<g>
		<line class="st3" x1="0" y1="111.4" x2="511.1" y2="111.4"/>
		<line class="st4" x1="0" y1="129.3" x2="511.1" y2="129.3"/>
		<line class="st3" x1="0.9" y1="147.2" x2="512" y2="147.2"/>
	</g>
	<path class="st69" d="M412.9,122.4c-6.2-39.1-22.4-77-48.8-113.2c-16.8-7.3-34.3-2.1-34.3-2.1S186.9,26.9,113.4,171
		c0,0-79.2,159,17.9,317.1c0,0,12.4,22.1,44.4,24c2.8-2,28-7.8,24.4-5.1c2.4-0.5,4.8-1,7.4-1.7C376.6,459,419.3,292.4,419.3,292.4
		C436.9,224.5,427.9,166,412.9,122.4z M230.2,483.2v-0.8c1.6-0.8,2.5-1.3,2.5-1.3C231.9,481.8,231,482.5,230.2,483.2z M303.1,414.5
		v-1c2-1.6,3.2-2.5,3.2-2.5C305.2,412.2,304.2,413.3,303.1,414.5z"/>
	<g>
		<path class="st70" d="M346,36.1c-14.8-6.4-30.2-1.9-30.2-1.9s-125.5,17.4-190.1,144c0,0-69.5,139.7,15.7,278.5
			c0,0,10.9,19.4,39,21.1c38.3-27.2,186.5-140.5,208.2-277.4C397.7,142.8,383.4,87.6,346,36.1z M201.4,142.7c2.6,1,3.7,3.7,2.7,5.7
			c-0.3,0.5-0.6,1.1-0.8,1.6c-1,1.9-3.5,2.7-5.6,1.8c-2.6-1.1-5.3-1.8-8-2.4c-2.5,4.2-5.1,8.8-7.9,13.8c2.2,0.6,4.3,1.3,6.5,2.1
			c2.6,1,3.7,3.7,2.7,5.7c-0.3,0.5-0.6,1.1-0.8,1.6c-1,1.9-3.5,2.7-5.6,1.8c-2.5-1-5-1.7-7.6-2.3c-2.4,4.5-4.8,9.2-7.3,14.1
			c1.8,0.5,3.5,1,5.2,1.7c2.6,1,3.7,3.7,2.7,5.7c-0.3,0.5-0.6,1.1-0.8,1.6c-1,1.9-3.5,2.7-5.6,1.8c-1.9-0.8-3.8-1.4-5.8-1.9
			c-2.1,4.4-4.2,8.9-6.2,13.6c2.6,0.7,5.2,1.5,7.7,2.5c2.6,1,3.7,3.7,2.7,5.7c-0.3,0.5-0.6,1.1-0.8,1.6c-1,1.9-3.5,2.7-5.6,1.8
			c-2.6-1.1-5.3-1.8-8-2.4c-1.9,4.6-3.7,9.3-5.5,14c2.3,0.6,4.5,1.3,6.7,2.2c2.6,1,3.7,3.7,2.7,5.7c-0.3,0.5-0.6,1.1-0.8,1.6
			c-1,1.9-3.5,2.7-5.6,1.8c-2.1-0.8-4.2-1.5-6.3-2.1c-1.8,5.3-3.5,10.7-5.1,16.1c3.4,0.7,6.8,1.6,10.1,2.9c2.6,1,3.7,3.7,2.7,5.7
			c-0.3,0.5-0.6,1.1-0.8,1.6c-1,1.9-3.5,2.7-5.6,1.8c-2.9-1.2-5.9-2-8.9-2.5c-1.1,4.4-2.1,8.9-2.9,13.3c3.1,0.7,6.2,1.6,9.2,2.8
			c2.6,1,3.7,3.7,2.7,5.7c-0.3,0.5-0.6,1.1-0.8,1.6c-1,1.9-3.5,2.7-5.6,1.8c-2.3-0.9-4.7-1.6-7.1-2.2c-1.4,9.4-2.2,18.7-2,27.7
			l-10,0.1c-0.1-9.5,0.7-19.3,2.1-29c-2.6,0-5.2,0.1-7.9,0.5c-2.2,0.3-4.4-0.9-5-3.1c-0.1-0.6-0.3-1.2-0.4-1.7
			c-0.6-2.1,1.2-4.5,3.9-4.9c3.7-0.6,7.3-0.7,11-0.5c0.8-4.3,1.7-8.6,2.8-12.9c-2,0.1-3.9,0.2-5.9,0.5c-2.2,0.3-4.4-0.9-5-3.1
			c-0.1-0.6-0.3-1.2-0.4-1.7c-0.6-2.1,1.2-4.5,3.9-4.9c3.3-0.5,6.6-0.6,9.9-0.6c1.5-5.5,3.2-10.9,5-16.3c-2.8-0.1-5.6,0-8.3,0.5
			c-2.2,0.3-4.4-0.9-5-3.1c-0.1-0.6-0.3-1.2-0.4-1.7c-0.6-2.1,1.2-4.5,3.9-4.9c4.4-0.7,8.9-0.8,13.3-0.4c1.7-4.5,3.4-9,5.2-13.4
			c-2.1,0-4.3,0.2-6.4,0.6c-2.2,0.3-4.4-0.9-5-3.1c-0.1-0.6-0.3-1.2-0.4-1.7c-0.6-2.1,1.2-4.5,3.9-4.9c4-0.6,8-0.7,12-0.5
			c2-4.6,4-9.1,6.1-13.5c-2.8-0.1-5.7,0-8.5,0.5c-2.2,0.3-4.4-0.9-5-3.1c-0.1-0.6-0.3-1.2-0.4-1.7c-0.6-2.1,1.2-4.5,3.9-4.9
			c4.9-0.8,9.8-0.9,14.7-0.3c2.2-4.5,4.5-8.9,6.7-13.1c-2.1,0-4.3,0.2-6.4,0.6c-2.2,0.3-4.4-0.9-5-3.1c-0.1-0.6-0.3-1.2-0.4-1.7
			c-0.6-2.1,1.2-4.5,3.9-4.9c4.4-0.7,8.8-0.8,13.1-0.4c2.5-4.6,5-9,7.4-13c-1.9,0.1-3.9,0.2-5.8,0.5c-2.2,0.3-4.4-0.9-5-3.1
			c-0.1-0.6-0.3-1.2-0.4-1.7c-0.6-2.1,1.2-4.5,3.9-4.9c4.3-0.7,8.7-0.8,13-0.4c8.3-13.6,14.2-22.1,15.1-23.3l8.2,5.8
			c-0.2,0.3-5.2,7.4-12.5,19.4C197.2,141.2,199.3,141.9,201.4,142.7z"/>
		<path class="st70" d="M393.6,110.9c9,30.7,10.9,62.5,5.8,94.9c-13.4,84.4-73,159-120.7,206.7c-30,30-59,53.3-78.2,67.7
			c2.2-0.4,4.5-0.9,6.8-1.5C364.4,435.8,404,280.9,404,280.9C422.1,211.3,410,152.3,393.6,110.9z"/>
	</g>
	<rect y="314.7" class="st71" width="512" height="96"/>
	<g>
		<path class="st1" d="M38.3,328.3h22.6c16.9,0,32.4,11.3,32.4,33.3c0,22.1-15.5,32.7-32.4,32.7H38.3V328.3z M55.3,341.1v40.4h4.6
			c9.4,0,16.1-6.3,16.1-20.1c0-13.6-6.7-20.3-16.1-20.3H55.3z"/>
		<path class="st1" d="M130.3,395.7c-16.5,0-32.4-11.8-32.4-34.1c0-22,15.9-34.8,32.4-34.8c16.5,0,32.5,12.8,32.5,34.8
			C162.8,383.8,146.9,395.7,130.3,395.7z M130.3,381.8c8.6,0,15.1-6.6,15.1-20.3s-6.5-20.7-15.1-20.7c-8.5,0-15.1,7-15.1,20.7
			C115.3,375.3,121.8,381.8,130.3,381.8z"/>
		<path class="st1" d="M170.5,328.3h17v53.2h23.9v12.8h-40.9V328.3z"/>
		<path class="st1" d="M218.6,328.3h24.9c12.8,0,22.3,7.3,22.3,21.8c0,14.3-11.1,20.9-22.3,20.9h-8.1v23.2h-16.8V328.3z
			 M235.5,341.2v17.6h5.7c5.2,0,8.4-3,8.4-8.8c0-5.7-3.3-8.8-8.4-8.8H235.5z"/>
		<path class="st1" d="M273.1,328.3h17V354h20.9v-25.7h17v65.9h-17v-27.5h-20.9v27.5h-17V328.3z"/>
		<path class="st1" d="M338.5,328.3h17v65.9h-17V328.3z"/>
		<path class="st1" d="M366.1,394.2v-65.9h16.8l22.2,38v-38h14.3v65.9h-15l-24-41.3v41.3H366.1z"/>
		<path class="st1" d="M452.9,340.9c-4.2,0-7.7,1.3-7.7,5.1c0,4.1,7.3,5.6,13.8,8.4c7.2,3.2,14.6,8.3,14.6,19.3
			c0,13.7-9.3,21.7-24.5,21.7c-10.4,0-16.2-2.4-20.9-5.7l4.5-13.4c4.4,2.9,8.8,5.2,16,5.2c6.3,0,9.2-2,9.2-5.5
			c0-5.5-5.8-6.5-12.8-9.5c-6.5-2.8-15.1-7.8-15.1-18.9c0-12.3,8.2-20.3,23.1-20.3c8.7,0,14.5,2.2,18.6,4.6l-4,13
			C464.7,342.9,458.8,340.9,452.9,340.9z"/>
	</g>
</g>
</svg>
