<?xml version="1.0" encoding="utf-8"?>
<!-- Generator: Adobe Illustrator 23.0.6, SVG Export Plug-In . SVG Version: 6.00 Build 0)  -->
<svg version="1.1" id="Art" xmlns="http://www.w3.org/2000/svg" xmlns:xlink="http://www.w3.org/1999/xlink" x="0px" y="0px"
	 viewBox="0 0 512 512" style="enable-background:new 0 0 512 512;" xml:space="preserve">
<style type="text/css">
	.st0{fill:#98002E;}
	.st1{fill:#FFFFFF;}
	.st2{fill:#0021A5;}
	.st3{fill:none;stroke:#FFFFFF;stroke-width:5.3333;stroke-miterlimit:10;}
	.st4{fill:#F04C24;stroke:#FFFFFF;stroke-width:5.3333;stroke-miterlimit:10;}
	.st5{fill:#FA4616;}
	.st6{fill:#782F40;}
	.st7{fill:none;stroke:#FFFFFF;stroke-width:5.3378;stroke-miterlimit:10;}
	.st8{fill:#F04C24;stroke:#FFFFFF;stroke-width:5.3378;stroke-miterlimit:10;}
	.st9{fill:#CEB888;}
	.st10{fill:#0077C8;}
	.st11{fill:none;stroke:#000000;stroke-width:10.6667;stroke-miterlimit:10;}
	.st12{fill-rule:evenodd;clip-rule:evenodd;}
	.st13{fill-rule:evenodd;clip-rule:evenodd;stroke:#000000;stroke-width:2.6667;stroke-miterlimit:10;}
	.st14{fill:#005030;}
	.st15{fill:#F47321;}
	.st16{fill:#FCEE21;}
	.st17{fill:#E8E7E7;}
	.st18{fill:#A21D3E;}
	.st19{fill:#D98227;}
	.st20{fill:#72BE44;}
	.st21{fill:#231F20;}
	.st22{fill:#CAC8C8;}
	.st23{fill:#0033A0;}
	.st24{fill:#3A578C;}
	.st25{fill:#69BE28;}
	.st26{fill:#80A27B;}
	.st27{fill:#F7C421;}
	.st28{fill:#0039A6;}
	.st29{fill:#F9461C;}
	.st30{fill:#F2F2F2;}
	.st31{fill:#0085CA;}
	.st32{fill:#008CA8;}
	.st33{fill:#FFFFFF;stroke:#FFFFFF;stroke-width:5.3378;stroke-miterlimit:10;}
	.st34{fill:#1D1160;}
	.st35{fill:#FF0000;}
	.st36{fill:#DA291C;}
	.st37{fill:#1E4971;}
	.st38{fill:#5DA423;}
	.st39{fill:#C41230;}
	.st40{fill:#004B8D;}
	.st41{fill:#E4E416;}
	.st42{fill:none;stroke:#FFFF00;stroke-width:10.6667;stroke-miterlimit:10;}
	.st43{fill:url(#SVGID_1_);}
	.st44{fill-rule:evenodd;clip-rule:evenodd;fill:#FCD6C2;}
	.st45{fill-rule:evenodd;clip-rule:evenodd;fill:#FFFFFF;}
	.st46{clip-path:url(#SVGID_3_);}
	.st47{fill-rule:evenodd;clip-rule:evenodd;fill:#231F20;}
	.st48{fill-rule:evenodd;clip-rule:evenodd;fill:none;}
	.st49{fill-rule:evenodd;clip-rule:evenodd;fill:url(#SVGID_4_);}
	.st50{fill:url(#SVGID_5_);}
	.st51{filter:url(#Adobe_OpacityMaskFilter);}
	.st52{fill-rule:evenodd;clip-rule:evenodd;fill:url(#SVGID_7_);}
	.st53{mask:url(#SVGID_6_);}
	.st54{fill-rule:evenodd;clip-rule:evenodd;fill:#FBE5D5;}
	.st55{fill:url(#SVGID_8_);}
	.st56{fill:url(#SVGID_9_);}
	.st57{fill:url(#SVGID_10_);}
	.st58{fill:url(#SVGID_11_);}
	.st59{opacity:0.55;fill:url(#SVGID_12_);}
	.st60{opacity:0.55;fill:url(#SVGID_13_);}
	.st61{opacity:0.55;fill:url(#SVGID_14_);}
	.st62{opacity:0.55;fill:url(#SVGID_15_);}
	.st63{clip-path:url(#SVGID_17_);fill:url(#SVGID_18_);}
	.st64{opacity:0.46;fill:#FFFFFF;}
	.st65{opacity:0.61;fill:url(#SVGID_19_);}
	.st66{filter:url(#Adobe_OpacityMaskFilter_1_);}
	.st67{opacity:0.49;mask:url(#SVGID_20_);}
	.st68{fill:url(#SVGID_21_);}
	.st69{fill:#007980;}
	.st70{fill:#219DA7;}
	.st71{fill:#F04C24;}
	.st72{fill:#7AB2DD;}
	.st73{fill:#004687;}
	.st74{fill:#002A5C;}
	.st75{fill:#93B1D7;}
	.st76{fill:#CA2430;}
	.st77{fill:#9E1721;}
	.st78{fill:#0050BA;}
	.st79{fill:#E8000D;}
	.st80{clip-path:url(#SVGID_23_);fill:#E4A710;}
	.st81{clip-path:url(#SVGID_25_);}
	.st82{fill:#FFDD15;}
	.st83{filter:url(#Adobe_OpacityMaskFilter_2_);}
	.st84{opacity:0.3;mask:url(#SVGID_26_);}
	.st85{fill:#FAAF40;}
	.st86{opacity:0.2;clip-path:url(#SVGID_25_);}
	.st87{opacity:0.5;clip-path:url(#SVGID_25_);fill:#FAAF40;}
	.st88{clip-path:url(#SVGID_25_);fill:#FFCA05;}
</style>
<g>
	<path d="M1.3,511.9H512c0-0.3-0.1-0.7-0.1-1V0H0v512C0.4,512,0.9,511.9,1.3,511.9z"/>
	<path class="st0" d="M225.3,0c-5.7,17.6-3.1,37.2,7.8,59.2c46.2-26,98.3-45.8,156-59.2H225.3z"/>
	<path class="st0" d="M164.7,511.9h297.9C263.7,428.4,151.4,331.1,88.1,246.1c-9.6,16-17.9,32.2-25.1,48.2
		C125.3,345.7,152.2,424.8,164.7,511.9z"/>
	<path class="st0" d="M38.2,162.9C9.1,99.7,2.3,44.8,2.2,7.1C1.5,7.9,0.8,8.7,0,9.5V266c11.3,0.4,22.6,3.4,33.9,8.8
		C43.1,255,54,235,66.8,215.2C55.2,196.9,45.8,179.3,38.2,162.9z"/>
	<path class="st0" d="M189.8,0h-153C36,34,41.1,88.1,70.5,150.9c5,10.7,11,22,17.8,33.6c6.8-8.9,13.9-17.7,21.5-26.3
		c27.4-31,58.7-58,93.7-81.1C189.6,49.9,185,24,189.8,0z"/>
	<path class="st0" d="M511.6,16c-101.5,8.1-188.6,32.3-260.4,72.4c57.8,75.2,172,105,260.4,116V16z"/>
	<path class="st0" d="M511.6,238.9c-98.2-12.3-226-47.2-289.9-132.6c-32.3,21.3-61,46.2-86.2,74.7c-9.9,11.2-19,22.8-27.3,34.5
		c61.6,87.6,179.3,191.8,403.4,279.4V238.9z"/>
	<path class="st0" d="M0,300.4V370c5.2-20.4,11.9-41.7,20.4-63.6C13.4,302.9,6.6,300.9,0,300.4z"/>
	<path class="st0" d="M130,511.9c-11.1-73.7-33.3-140-80.7-184c-29.1,79.8-33.2,152-33.4,184H130z"/>
	<g>
		<path class="st1" d="M157.1,238.7h27.4v34.8h24.6v-34.8h27.4v92.5h-27.4v-37.1h-24.6v37.1h-27.4V238.7z"/>
		<path class="st1" d="M252.1,238.7h59.2v20.5h-31.8v14.3h28.7v20.6h-28.7v16.6h32.2v20.5h-59.7V238.7z"/>
		<path class="st1" d="M352.9,238.7h24.6l31.3,92.5h-27.6l-3.7-12.1h-28.4l-3.6,12.1h-23.8L352.9,238.7z M363.3,272.2l-8.5,28.2h17
			L363.3,272.2z"/>
		<path class="st1" d="M420,259.2h-22v-20.5h71.4v20.5h-22v72H420V259.2z"/>
	</g>
</g>
</svg>
