<?xml version="1.0" encoding="utf-8"?>
<!-- Generator: Adobe Illustrator 23.0.6, SVG Export Plug-In . SVG Version: 6.00 Build 0)  -->
<svg version="1.1" id="Art" xmlns="http://www.w3.org/2000/svg" xmlns:xlink="http://www.w3.org/1999/xlink" x="0px" y="0px"
	 viewBox="0 0 512 512" style="enable-background:new 0 0 512 512;" xml:space="preserve">
<style type="text/css">
	.st0{fill:#98002E;}
	.st1{fill:#FFFFFF;}
	.st2{fill:#0021A5;}
	.st3{fill:none;stroke:#FFFFFF;stroke-width:5.3333;stroke-miterlimit:10;}
	.st4{fill:#F04C24;stroke:#FFFFFF;stroke-width:5.3333;stroke-miterlimit:10;}
	.st5{fill:#FA4616;}
	.st6{fill:#782F40;}
	.st7{fill:none;stroke:#FFFFFF;stroke-width:5.3378;stroke-miterlimit:10;}
	.st8{fill:#F04C24;stroke:#FFFFFF;stroke-width:5.3378;stroke-miterlimit:10;}
	.st9{fill:#CEB888;}
	.st10{fill:#0077C8;}
	.st11{fill:none;stroke:#000000;stroke-width:10.6667;stroke-miterlimit:10;}
	.st12{fill-rule:evenodd;clip-rule:evenodd;}
	.st13{fill-rule:evenodd;clip-rule:evenodd;stroke:#000000;stroke-width:2.6667;stroke-miterlimit:10;}
	.st14{fill:#005030;}
	.st15{fill:#F47321;}
	.st16{fill:#FCEE21;}
	.st17{fill:#E8E7E7;}
	.st18{fill:#A21D3E;}
	.st19{fill:#D98227;}
	.st20{fill:#72BE44;}
	.st21{fill:#231F20;}
	.st22{fill:#CAC8C8;}
	.st23{fill:#0033A0;}
	.st24{fill:#3A578C;}
	.st25{fill:#69BE28;}
	.st26{fill:#80A27B;}
	.st27{fill:#F7C421;}
	.st28{fill:#0039A6;}
	.st29{fill:#F9461C;}
	.st30{fill:#F2F2F2;}
	.st31{fill:#0085CA;}
	.st32{fill:#008CA8;}
	.st33{fill:#FFFFFF;stroke:#FFFFFF;stroke-width:5.3378;stroke-miterlimit:10;}
	.st34{fill:#1D1160;}
	.st35{fill:#FF0000;}
	.st36{fill:#DA291C;}
	.st37{fill:#1E4971;}
	.st38{fill:#5DA423;}
	.st39{fill:#C41230;}
	.st40{fill:#004B8D;}
	.st41{fill:#E4E416;}
	.st42{fill:none;stroke:#FFFF00;stroke-width:10.6667;stroke-miterlimit:10;}
	.st43{fill:url(#SVGID_1_);}
	.st44{fill-rule:evenodd;clip-rule:evenodd;fill:#FCD6C2;}
	.st45{fill-rule:evenodd;clip-rule:evenodd;fill:#FFFFFF;}
	.st46{clip-path:url(#SVGID_3_);}
	.st47{fill-rule:evenodd;clip-rule:evenodd;fill:#231F20;}
	.st48{fill-rule:evenodd;clip-rule:evenodd;fill:none;}
	.st49{fill-rule:evenodd;clip-rule:evenodd;fill:url(#SVGID_4_);}
	.st50{fill:url(#SVGID_5_);}
	.st51{filter:url(#Adobe_OpacityMaskFilter);}
	.st52{fill-rule:evenodd;clip-rule:evenodd;fill:url(#SVGID_7_);}
	.st53{mask:url(#SVGID_6_);}
	.st54{fill-rule:evenodd;clip-rule:evenodd;fill:#FBE5D5;}
	.st55{fill:url(#SVGID_8_);}
	.st56{fill:url(#SVGID_9_);}
	.st57{fill:url(#SVGID_10_);}
	.st58{fill:url(#SVGID_11_);}
	.st59{opacity:0.55;fill:url(#SVGID_12_);}
	.st60{opacity:0.55;fill:url(#SVGID_13_);}
	.st61{opacity:0.55;fill:url(#SVGID_14_);}
	.st62{opacity:0.55;fill:url(#SVGID_15_);}
	.st63{clip-path:url(#SVGID_17_);fill:url(#SVGID_18_);}
	.st64{opacity:0.46;fill:#FFFFFF;}
	.st65{opacity:0.61;fill:url(#SVGID_19_);}
	.st66{filter:url(#Adobe_OpacityMaskFilter_1_);}
	.st67{opacity:0.49;mask:url(#SVGID_20_);}
	.st68{fill:url(#SVGID_21_);}
	.st69{fill:#007980;}
	.st70{fill:#219DA7;}
	.st71{fill:#F04C24;}
	.st72{fill:#7AB2DD;}
	.st73{fill:#004687;}
	.st74{fill:#002A5C;}
	.st75{fill:#93B1D7;}
	.st76{fill:#CA2430;}
	.st77{fill:#9E1721;}
	.st78{fill:#0050BA;}
	.st79{fill:#E8000D;}
	.st80{clip-path:url(#SVGID_23_);fill:#E4A710;}
	.st81{clip-path:url(#SVGID_25_);}
	.st82{fill:#FFDD15;}
	.st83{filter:url(#Adobe_OpacityMaskFilter_2_);}
	.st84{opacity:0.3;mask:url(#SVGID_26_);}
	.st85{fill:#FAAF40;}
	.st86{opacity:0.2;clip-path:url(#SVGID_25_);}
	.st87{opacity:0.5;clip-path:url(#SVGID_25_);fill:#FAAF40;}
	.st88{clip-path:url(#SVGID_25_);fill:#FFCA05;}
</style>
<g>
	<rect width="512" height="512"/>
	<path class="st10" d="M439.2,362.7c22.8-34.6,36-76.1,36-120.6c0-62.8-26.3-119.4-68.5-159.4c0,0,0.1-0.1,0.1-0.1
		c-39.4-37.3-92.6-60.2-151.1-60.2c-58.5,0-111.7,22.9-151.1,60.2h0C62.3,122.6,36,179.2,36,242.1c0,44.5,13.3,86,36,120.6H439.2z"
		/>
	<path class="st11" d="M173.1,242.1c0,44.5-13.3,86-36,120.6h237.1c-22.8-34.6-36-76.1-36-120.6c0-62.8,26.4-119.5,68.6-159.5
		c-39.4-37.3-92.6-60.2-151.1-60.2S143.8,45.2,104.5,82.5C146.7,122.6,173.1,179.2,173.1,242.1z"/>
	<path class="st11" d="M137,362.7c22.8-34.6,36-76.1,36-120.6c0-62.8-26.4-119.5-68.6-159.5c-42.3,40-68.6,96.7-68.6,159.5
		c0,44.5,13.3,86,36,120.6H137z"/>
	<path class="st11" d="M439,362.7c22.8-34.6,36-76.1,36-120.6c0-62.8-26.4-119.5-68.6-159.5c-42.3,40-68.6,96.7-68.6,159.5
		c0,44.5,13.3,86,36,120.6H439z"/>
	<g>
		<path class="st12" d="M385.3,113.1l23,7c2.8,0.9,5.8-0.7,6.7-3.5c0.9-2.8-0.7-5.8-3.5-6.7l-23-7L385.3,113.1z"/>
		<path class="st12" d="M389.9,104.5l-4-23.7c-0.5-2.9-3.3-4.9-6.2-4.4c-2.9,0.5-4.9,3.3-4.4,6.2l4,23.7L389.9,104.5z"/>
	</g>
	<g>
		<path class="st12" d="M365.6,143.5l23.6,4.2c2.9,0.5,5.7-1.4,6.2-4.3c0.5-2.9-1.4-5.7-4.3-6.2l-23.6-4.2L365.6,143.5z"/>
		<path class="st12" d="M369.5,137l-6.8-23c-0.8-2.8-3.8-4.4-6.6-3.6c-2.8,0.8-4.4,3.8-3.6,6.6l6.8,23L369.5,137z"/>
	</g>
	<g>
		<path class="st12" d="M352.4,178l23.8-3c2.9-0.4,5-3,4.6-6c-0.4-2.9-3-5-6-4.6l-23.8,3L352.4,178z"/>
		<path class="st12" d="M356.7,169.6l-13.3-20c-1.6-2.4-5-3.1-7.4-1.5s-3.1,5-1.5,7.4l13.3,20L356.7,169.6z"/>
	</g>
	<g>
		<path class="st12" d="M342.8,216l22.7-7.8c2.8-1,4.3-4,3.3-6.8c-1-2.8-4-4.3-6.8-3.3l-22.7,7.8L342.8,216z"/>
		<path class="st12" d="M345.2,206.9l-17.1-16.8c-2.1-2.1-5.5-2-7.5,0.1s-2,5.5,0.1,7.5l17.1,16.8L345.2,206.9z"/>
	</g>
	<g>
		<path class="st12" d="M338.4,253.3l22.2-9.1c2.7-1.1,4-4.2,2.9-7c-1.1-2.7-4.2-4-7-2.9l-22.2,9.1L338.4,253.3z"/>
		<path class="st12" d="M340.3,244.1l-18.1-15.8c-2.2-1.9-5.6-1.7-7.5,0.5c-1.9,2.2-1.7,5.6,0.5,7.5l18.1,15.8L340.3,244.1z"/>
	</g>
	<g>
		<path class="st12" d="M342.9,293.5L364,282c2.6-1.4,3.5-4.7,2.1-7.2s-4.7-3.5-7.2-2.1l-21.1,11.5L342.9,293.5z"/>
		<path class="st12" d="M343.8,284.1l-19.7-13.7c-2.4-1.7-5.7-1.1-7.4,1.3c-1.7,2.4-1.1,5.7,1.3,7.4l19.7,13.7L343.8,284.1z"/>
	</g>
	<g>
		<path class="st12" d="M355.2,330.4l19.3-14.3c2.4-1.7,2.9-5.1,1.1-7.5s-5.1-2.9-7.5-1.1l-19.3,14.3L355.2,330.4z"/>
		<path class="st12" d="M354.8,321l-21.4-10.9c-2.6-1.3-5.8-0.3-7.2,2.3c-1.3,2.6-0.3,5.8,2.3,7.2l21.4,10.9L354.8,321z"/>
	</g>
	<g>
		<path class="st12" d="M377.4,362.7l13.9-18.1c1.8-2.3,1.3-5.7-1-7.5c-2.3-1.8-5.7-1.3-7.5,1l-14.6,19l7.2,5.5H377.4z"/>
		<path class="st12" d="M348.1,360.7l10.4,2h13.7l1.5-7.9l-23.6-4.5c-2.9-0.6-5.7,1.4-6.2,4.2C343.3,357.3,345.2,360.1,348.1,360.7z
			"/>
	</g>
	<polygon class="st13" points="154.5,362.7 150.6,349.2 140.3,352.2 143.4,362.7 	"/>
	<path class="st12" d="M155.8,322.4l13.3,20c1.6,2.4,5,3.1,7.4,1.5c2.4-1.6,3.1-5,1.5-7.4l-13.3-20L155.8,322.4z"/>
	<path class="st12" d="M167.3,285l17.1,16.8c2.1,2.1,5.5,2,7.5-0.1s2-5.5-0.1-7.5l-17.1-16.8L167.3,285z"/>
	<path class="st12" d="M169.5,247.8l18.1,15.8c2.2,1.9,5.6,1.7,7.5-0.5c1.9-2.2,1.7-5.6-0.5-7.5l-18.1-15.8L169.5,247.8z"/>
	<path class="st12" d="M168.7,207.8l19.7,13.7c2.4,1.7,5.7,1.1,7.4-1.3c1.7-2.4,1.1-5.7-1.3-7.4L174.8,199L168.7,207.8z"/>
	<path class="st12" d="M157.7,170.9l21.4,10.9c2.6,1.3,5.8,0.3,7.2-2.3s0.3-5.8-2.3-7.2l-21.4-10.9L157.7,170.9z"/>
	<path class="st12" d="M149.6,348.4l-23.6-4.2c-2.9-0.5-5.7,1.4-6.2,4.3c-0.5,2.9,1.4,5.7,4.3,6.2l23.6,4.2L149.6,348.4z"/>
	<path class="st12" d="M162.7,314l-23.8,3c-2.9,0.4-5,3-4.6,6c0.4,2.9,3,5,6,4.6l23.8-3L162.7,314z"/>
	<path class="st12" d="M172.4,275.9l-22.7,7.8c-2.8,1-4.3,4-3.3,6.8s4,4.3,6.8,3.3l22.7-7.8L172.4,275.9z"/>
	<path class="st12" d="M176.7,238.6l-22.2,9.1c-2.7,1.1-4,4.2-2.9,7c1.1,2.7,4.2,4,7,2.9l22.2-9.1L176.7,238.6z"/>
	<path class="st12" d="M172.3,198.4l-21.1,11.5c-2.6,1.4-3.5,4.7-2.1,7.2c1.4,2.6,4.7,3.5,7.2,2.1l21.1-11.5L172.3,198.4z"/>
	<path class="st12" d="M159.9,161.5l-19.3,14.3c-2.4,1.7-2.9,5.1-1.1,7.5s5.1,2.9,7.5,1.1l19.3-14.3L159.9,161.5z"/>
	<path class="st12" d="M138.5,128.3l-14.6,19c-1.8,2.3-1.3,5.7,1,7.5c2.3,1.8,5.7,1.3,7.5-1l14.6-19L138.5,128.3z"/>
	<path class="st12" d="M141.5,137.2l23.6,4.5c2.9,0.6,5.7-1.4,6.2-4.2c0.6-2.9-1.4-5.7-4.2-6.2l-23.6-4.5L141.5,137.2z"/>
	<path class="st12" d="M116.2,97l-13.1,20.1c-1.6,2.5-0.9,5.8,1.6,7.4c2.5,1.6,5.8,0.9,7.4-1.6l13.1-20.1L116.2,97z"/>
	<path class="st12" d="M119.9,105.6l23.8,2.7c2.9,0.3,5.6-1.8,5.9-4.7c0.3-2.9-1.8-5.6-4.7-5.9L121.1,95L119.9,105.6z"/>
	<g>
		<rect y="373.3" class="st1" width="512" height="96"/>
		<g>
			<path d="M91.6,449.7l5.6-56.8h11.8l13,35.6l13.6-35.6h4.3v0.1l0.1-0.1h6.2l5.6,56.8h-14l-2-28.5l-11.4,28.5h-7.5L106.3,421
				l-2.3,28.7H91.6z"/>
			<path d="M177.8,392.5h10.5l20.8,57.2h-14.7l-2.8-8.3h-19l-2.8,8.3h-12.7L177.8,392.5z M182.1,413.4l-6.1,17.9h12.1L182.1,413.4z"
				/>
			<path d="M215.2,392.9h23.3c10.2,0,18.6,5.9,18.6,17.8c0,8-4.7,13.1-10.5,15.7l13,23.3h-15.5l-12-21.4h-2.3v21.4h-14.6V392.9z
				 M229.8,403.8v15.2h5.8c4.4,0,7.2-2.9,7.2-7.9c0-4.9-2.8-7.4-7.2-7.4H229.8z"/>
			<path d="M265.8,392.9h14.6v45.8h20.6v11h-35.2V392.9z"/>
			<path d="M306.9,392.9h14.6v56.8h-14.6V392.9z"/>
			<path d="M330.4,449.7v-56.8h14.5l19.1,32.7v-32.7h12.4v56.8h-12.9l-20.7-35.5v35.5H330.4z"/>
			<path d="M402.5,403.7c-3.6,0-6.6,1.1-6.6,4.4c0,3.6,6.3,4.9,11.9,7.3c6.2,2.7,12.6,7.1,12.6,16.6c0,11.8-8,18.6-21.1,18.6
				c-8.9,0-13.9-2-18-4.9l3.9-11.5c3.8,2.5,7.6,4.5,13.8,4.5c5.5,0,8-1.7,8-4.7c0-4.7-5-5.6-11-8.2c-5.6-2.4-13-6.7-13-16.3
				c0-10.6,7.1-17.5,19.9-17.5c7.5,0,12.5,1.9,16,3.9l-3.5,11.2C412.6,405.5,407.6,403.7,402.5,403.7z"/>
		</g>
	</g>
</g>
</svg>
