<svg xmlns="http://www.w3.org/2000/svg" viewBox="0 0 512 512">
  <title>miami-herald</title>
  <g id="Layer_2" data-name="Layer 2">
    <g id="Art">
      <rect width="512" height="512" fill="#fff"/>
      <circle cx="256" cy="257.2" r="224" transform="translate(-106.9 256.4) rotate(-45)" fill="#0767b1"/>
      <g>
        <g>
          <path d="M229.1,119.5c-10.1,22.8-22.5,36.3-39,36.3-7.9,0-23.7-7.9-34.9-7.9s-22,3.9-29.1,16.6l-1.5-1.5c3.2-31.4,22-46.2,43.9-46.2,13.6,0,27.1,8.4,39,8.4a32,32,0,0,0,20.8-7.2Z" fill="#fff"/>
          <path d="M383.5,121.8c-2.8,14-13.9,26.6-25.3,32.5V362.2c11.1,2.9,16.7,5.3,24.9,11l-30.3,32.1a55.9,55.9,0,0,0-38.2-14.7,74.1,74.1,0,0,0-42.8,13.2l-.3-1.5c6.2-26.6,27.3-42,44.3-43.5V267.5H245.3V366a14.5,14.5,0,0,0,6.5,1.8c3.8,0,8.8-5,12.5-10.2l3,2.7c-9.2,11-25.2,29.4-36.7,45-17.6-11.7-32-16.2-54.9-16.2-19.6,0-36.6,4.8-48.9,12.4l-.7-1.9c11.3-27.6,32.1-45.8,68.9-45.8,16.5,0,29.3,3.4,45.4,10.3V112.7h4.9V231.9h70.5V156.2c-11.9-2.8-22.1-7.5-29.2-14.8,9.3-9.1,20.4-20.9,29.2-30.6a58.2,58.2,0,0,0,39,14.8,72,72,0,0,0,28-5.4Z" fill="#fff"/>
        </g>
        <path d="M227.2,155.8c-4,7.3-5.7,17.5-5.7,40.9v87.9c0,28.1-20.6,51.2-48.9,59.8l-1.9-1.2c5.4-4.7,8.8-12.8,8.8-21.9V267.5h-9.9c-15.1,0-20.7,7.6-22.3,15.9h-1.2c-4.3-3.6-9.1-10.1-9.1-21.9,0-17.3,13.7-29.6,33.4-29.6h9.1V212.6c0-32.4,19.8-49.6,46.5-57.5Z" fill="#fff"/>
      </g>
    </g>
  </g>
</svg>
