<?xml version="1.0" encoding="utf-8"?>
<!-- Generator: Adobe Illustrator 23.0.6, SVG Export Plug-In . SVG Version: 6.00 Build 0)  -->
<svg version="1.1" id="Art" xmlns="http://www.w3.org/2000/svg" xmlns:xlink="http://www.w3.org/1999/xlink" x="0px" y="0px"
	 viewBox="0 0 512 512" style="enable-background:new 0 0 512 512;" xml:space="preserve">
<style type="text/css">
	.st0{fill:#98002E;}
	.st1{fill:#FFFFFF;}
	.st2{fill:#0021A5;}
	.st3{fill:none;stroke:#FFFFFF;stroke-width:5.3333;stroke-miterlimit:10;}
	.st4{fill:#F04C24;stroke:#FFFFFF;stroke-width:5.3333;stroke-miterlimit:10;}
	.st5{fill:#FA4616;}
	.st6{fill:#782F40;}
	.st7{fill:none;stroke:#FFFFFF;stroke-width:5.3378;stroke-miterlimit:10;}
	.st8{fill:#F04C24;stroke:#FFFFFF;stroke-width:5.3378;stroke-miterlimit:10;}
	.st9{fill:#CEB888;}
	.st10{fill:#0077C8;}
	.st11{fill:none;stroke:#000000;stroke-width:10.6667;stroke-miterlimit:10;}
	.st12{fill-rule:evenodd;clip-rule:evenodd;}
	.st13{fill-rule:evenodd;clip-rule:evenodd;stroke:#000000;stroke-width:2.6667;stroke-miterlimit:10;}
	.st14{fill:#005030;}
	.st15{fill:#F47321;}
	.st16{fill:#FCEE21;}
	.st17{fill:#E8E7E7;}
	.st18{fill:#A21D3E;}
	.st19{fill:#D98227;}
	.st20{fill:#72BE44;}
	.st21{fill:#231F20;}
	.st22{fill:#CAC8C8;}
	.st23{fill:#0033A0;}
	.st24{fill:#3A578C;}
	.st25{fill:#69BE28;}
	.st26{fill:#80A27B;}
	.st27{fill:#F7C421;}
	.st28{fill:#0039A6;}
	.st29{fill:#F9461C;}
	.st30{fill:#F2F2F2;}
	.st31{fill:#0085CA;}
	.st32{fill:#008CA8;}
	.st33{fill:#FFFFFF;stroke:#FFFFFF;stroke-width:5.3378;stroke-miterlimit:10;}
	.st34{fill:#1D1160;}
	.st35{fill:#FF0000;}
	.st36{fill:#DA291C;}
	.st37{fill:#1E4971;}
	.st38{fill:#5DA423;}
	.st39{fill:#C41230;}
	.st40{fill:#004B8D;}
	.st41{fill:#E4E416;}
	.st42{fill:none;stroke:#FFFF00;stroke-width:10.6667;stroke-miterlimit:10;}
	.st43{fill:url(#SVGID_1_);}
	.st44{fill-rule:evenodd;clip-rule:evenodd;fill:#FCD6C2;}
	.st45{fill-rule:evenodd;clip-rule:evenodd;fill:#FFFFFF;}
	.st46{clip-path:url(#SVGID_3_);}
	.st47{fill-rule:evenodd;clip-rule:evenodd;fill:#231F20;}
	.st48{fill-rule:evenodd;clip-rule:evenodd;fill:none;}
	.st49{fill-rule:evenodd;clip-rule:evenodd;fill:url(#SVGID_4_);}
	.st50{fill:url(#SVGID_5_);}
	.st51{filter:url(#Adobe_OpacityMaskFilter);}
	.st52{fill-rule:evenodd;clip-rule:evenodd;fill:url(#SVGID_7_);}
	.st53{mask:url(#SVGID_6_);}
	.st54{fill-rule:evenodd;clip-rule:evenodd;fill:#FBE5D5;}
	.st55{fill:url(#SVGID_8_);}
	.st56{fill:url(#SVGID_9_);}
	.st57{fill:url(#SVGID_10_);}
	.st58{fill:url(#SVGID_11_);}
	.st59{opacity:0.55;fill:url(#SVGID_12_);}
	.st60{opacity:0.55;fill:url(#SVGID_13_);}
	.st61{opacity:0.55;fill:url(#SVGID_14_);}
	.st62{opacity:0.55;fill:url(#SVGID_15_);}
	.st63{clip-path:url(#SVGID_17_);fill:url(#SVGID_18_);}
	.st64{opacity:0.46;fill:#FFFFFF;}
	.st65{opacity:0.61;fill:url(#SVGID_19_);}
	.st66{filter:url(#Adobe_OpacityMaskFilter_1_);}
	.st67{opacity:0.49;mask:url(#SVGID_20_);}
	.st68{fill:url(#SVGID_21_);}
	.st69{fill:#007980;}
	.st70{fill:#219DA7;}
	.st71{fill:#F04C24;}
	.st72{fill:#7AB2DD;}
	.st73{fill:#004687;}
	.st74{fill:#002A5C;}
	.st75{fill:#93B1D7;}
	.st76{fill:#CA2430;}
	.st77{fill:#9E1721;}
	.st78{fill:#0050BA;}
	.st79{fill:#E8000D;}
	.st80{clip-path:url(#SVGID_23_);fill:#E4A710;}
	.st81{clip-path:url(#SVGID_25_);}
	.st82{fill:#FFDD15;}
	.st83{filter:url(#Adobe_OpacityMaskFilter_2_);}
	.st84{opacity:0.3;mask:url(#SVGID_26_);}
	.st85{fill:#FAAF40;}
	.st86{opacity:0.2;clip-path:url(#SVGID_25_);}
	.st87{opacity:0.5;clip-path:url(#SVGID_25_);fill:#FAAF40;}
	.st88{clip-path:url(#SVGID_25_);fill:#FFCA05;}
</style>
<g>
	<rect width="512" height="512"/>
	<g>
		<path class="st16" d="M43.2,327.1v-55.7h14.9V134.8H43.2v-56h97.9v56h-14.9v34h48.6v-34h-15.2v-56h98.2v56h-14.5v136.5h14.5v55.7
			h-98.2v-55.7h15.2v-41.5h-48.6v41.5h14.9v55.7H43.2z M135,321v-44h-14.9v-53.2h60.6v53.2h-14.9v44h86.2v-44h-15.2V128.8h15.2v-44
			h-86.2v44h14.9v46.1h-60.6v-46.1H135v-44H49.2v44h14.5v148.3H49.2v44H135z M57,313.2v-28.4h14.5V121H57V92.6h70.6V121h-14.9v61.4
			h75.5V121h-14.9V92.6h70.9V121h-14.9v163.9h14.9v28.4h-70.9v-28.4h14.9v-68.8h-75.5v68.8h14.9v28.4H57z"/>
		<path class="st16" d="M280.1,287.4v-47.5h68.1v23.4l8.5,8.2h35.5l8.2-7.8v-24.5l-7.8-7.4h-72.7l-39.7-39.7v-73.4l39.7-39.7h109.2
			l39.7,39.7v48.9h-68.4v-24.8l-7.8-7.8h-36.9l-7.4,7.8v25.2l7.8,7.8h73.1l39.7,39.7v72l-39.7,39.7H319.9L280.1,287.4z M321.6,321
			h105.7l35.5-35.1v-69.5l-35.1-34.8h-73.1l-12.1-12.4v-28l12.1-12.4H394l12.4,12.4v20.2h56.4v-41.5l-35.1-35.1H321.3l-35.1,35.1
			v70.6l35.1,35.1H394l12.4,12.1v27l-12.8,12.4H355l-12.4-12.4v-18.8h-56.4v40.1L321.6,321z M294,280.6v-27.3h40.8v16.3l15.2,15.2
			h48.9l15.2-15.6v-35.5l-15.6-16H327l-33-33v-59.6l32.6-32.6h95.8l33,33.3v28h-41.1v-17l-15.6-16H350l-15.2,15.2v37.6l15.2,15.2
			h72.4l33,33.3v58.2l-32.3,32.6h-96.8L294,280.6z"/>
	</g>
	<g>
		<path class="st16" d="M84,374.3c-5,0-9.2,1.6-9.2,6.1c0,4.9,8.7,6.7,16.5,10.1c8.6,3.8,17.5,9.9,17.5,23
			c0,16.4-11.1,25.9-29.2,25.9c-12.4,0-19.4-2.8-25-6.8l5.4-16c5.3,3.5,10.5,6.2,19.1,6.2c7.6,0,11-2.4,11-6.5
			c0-6.5-6.9-7.8-15.3-11.4c-7.8-3.4-18.1-9.4-18.1-22.6c0-14.7,9.8-24.3,27.7-24.3c10.4,0,17.4,2.6,22.2,5.5l-4.8,15.6
			C98.1,376.7,91,374.3,84,374.3z"/>
		<path class="st16" d="M120.6,359.3h29.8c15.3,0,26.6,8.7,26.6,26.1c0,17.1-13.3,24.9-26.6,24.9h-9.7v27.8h-20.1V359.3z
			 M140.7,374.6v21h6.8c6.2,0,10.1-3.6,10.1-10.5c0-6.8-3.9-10.5-10.1-10.5H140.7z"/>
		<path class="st16" d="M222.9,439.8c-19.7,0-38.7-14.1-38.7-40.7c0-26.3,19-41.5,38.7-41.5c19.8,0,38.8,15.3,38.8,41.5
			C261.7,425.5,242.7,439.8,222.9,439.8z M222.9,423.2c10.3,0,18.1-7.9,18.1-24.3s-7.8-24.7-18.1-24.7c-10.2,0-18,8.3-18,24.7
			C204.9,415.4,212.7,423.2,222.9,423.2z"/>
		<path class="st16" d="M274.1,359.3h32.3c14.2,0,25.8,8.2,25.8,24.7c0,11-6.5,18.2-14.5,21.8l18.1,32.3h-21.6l-16.6-29.7h-3.2v29.7
			h-20.3V359.3z M294.4,374.4v21.1h8.1c6.1,0,10-4,10-10.9c0-6.8-3.9-10.2-10-10.2H294.4z"/>
		<path class="st16" d="M358.6,374.5h-20v-15.3h60.3v15.3h-20v63.5h-20.3V374.5z"/>
		<path class="st16" d="M432.6,374.3c-5,0-9.2,1.6-9.2,6.1c0,4.9,8.7,6.7,16.5,10.1c8.6,3.8,17.5,9.9,17.5,23
			c0,16.4-11.1,25.9-29.2,25.9c-12.4,0-19.4-2.8-25-6.8l5.4-16c5.3,3.5,10.5,6.2,19.1,6.2c7.6,0,11-2.4,11-6.5
			c0-6.5-6.9-7.8-15.3-11.4c-7.8-3.4-18.1-9.4-18.1-22.6c0-14.7,9.8-24.3,27.7-24.3c10.4,0,17.4,2.6,22.2,5.5l-4.8,15.6
			C446.7,376.7,439.7,374.3,432.6,374.3z"/>
	</g>
</g>
</svg>
