<?xml version="1.0" encoding="utf-8"?>
<!-- Generator: Adobe Illustrator 23.0.6, SVG Export Plug-In . SVG Version: 6.00 Build 0)  -->
<svg version="1.1" id="Art" xmlns="http://www.w3.org/2000/svg" xmlns:xlink="http://www.w3.org/1999/xlink" x="0px" y="0px"
	 viewBox="0 0 512 512" style="enable-background:new 0 0 512 512;" xml:space="preserve">
<style type="text/css">
	.st0{fill:#98002E;}
	.st1{fill:#FFFFFF;}
	.st2{fill:#0021A5;}
	.st3{fill:none;stroke:#FFFFFF;stroke-width:5.3333;stroke-miterlimit:10;}
	.st4{fill:#F04C24;stroke:#FFFFFF;stroke-width:5.3333;stroke-miterlimit:10;}
	.st5{fill:#FA4616;}
	.st6{fill:#782F40;}
	.st7{fill:none;stroke:#FFFFFF;stroke-width:5.3378;stroke-miterlimit:10;}
	.st8{fill:#F04C24;stroke:#FFFFFF;stroke-width:5.3378;stroke-miterlimit:10;}
	.st9{fill:#CEB888;}
	.st10{fill:#0077C8;}
	.st11{fill:none;stroke:#000000;stroke-width:10.6667;stroke-miterlimit:10;}
	.st12{fill-rule:evenodd;clip-rule:evenodd;}
	.st13{fill-rule:evenodd;clip-rule:evenodd;stroke:#000000;stroke-width:2.6667;stroke-miterlimit:10;}
	.st14{fill:#005030;}
	.st15{fill:#F47321;}
	.st16{fill:#FCEE21;}
	.st17{fill:#E8E7E7;}
	.st18{fill:#A21D3E;}
	.st19{fill:#D98227;}
	.st20{fill:#72BE44;}
	.st21{fill:#231F20;}
	.st22{fill:#CAC8C8;}
	.st23{fill:#0033A0;}
	.st24{fill:#3A578C;}
	.st25{fill:#69BE28;}
	.st26{fill:#80A27B;}
	.st27{fill:#F7C421;}
	.st28{fill:#0039A6;}
	.st29{fill:#F9461C;}
	.st30{fill:#F2F2F2;}
	.st31{fill:#0085CA;}
	.st32{fill:#008CA8;}
	.st33{fill:#FFFFFF;stroke:#FFFFFF;stroke-width:5.3378;stroke-miterlimit:10;}
	.st34{fill:#1D1160;}
	.st35{fill:#FF0000;}
	.st36{fill:#DA291C;}
	.st37{fill:#1E4971;}
	.st38{fill:#5DA423;}
	.st39{fill:#C41230;}
	.st40{fill:#004B8D;}
	.st41{fill:#E4E416;}
	.st42{fill:none;stroke:#FFFF00;stroke-width:10.6667;stroke-miterlimit:10;}
	.st43{fill:url(#SVGID_1_);}
	.st44{fill-rule:evenodd;clip-rule:evenodd;fill:#FCD6C2;}
	.st45{fill-rule:evenodd;clip-rule:evenodd;fill:#FFFFFF;}
	.st46{clip-path:url(#SVGID_3_);}
	.st47{fill-rule:evenodd;clip-rule:evenodd;fill:#231F20;}
	.st48{fill-rule:evenodd;clip-rule:evenodd;fill:none;}
	.st49{fill-rule:evenodd;clip-rule:evenodd;fill:url(#SVGID_4_);}
	.st50{fill:url(#SVGID_5_);}
	.st51{filter:url(#Adobe_OpacityMaskFilter);}
	.st52{fill-rule:evenodd;clip-rule:evenodd;fill:url(#SVGID_7_);}
	.st53{mask:url(#SVGID_6_);}
	.st54{fill-rule:evenodd;clip-rule:evenodd;fill:#FBE5D5;}
	.st55{fill:url(#SVGID_8_);}
	.st56{fill:url(#SVGID_9_);}
	.st57{fill:url(#SVGID_10_);}
	.st58{fill:url(#SVGID_11_);}
	.st59{opacity:0.55;fill:url(#SVGID_12_);}
	.st60{opacity:0.55;fill:url(#SVGID_13_);}
	.st61{opacity:0.55;fill:url(#SVGID_14_);}
	.st62{opacity:0.55;fill:url(#SVGID_15_);}
	.st63{clip-path:url(#SVGID_17_);fill:url(#SVGID_18_);}
	.st64{opacity:0.46;fill:#FFFFFF;}
	.st65{opacity:0.61;fill:url(#SVGID_19_);}
	.st66{filter:url(#Adobe_OpacityMaskFilter_1_);}
	.st67{opacity:0.49;mask:url(#SVGID_20_);}
	.st68{fill:url(#SVGID_21_);}
	.st69{fill:#007980;}
	.st70{fill:#219DA7;}
	.st71{fill:#F04C24;}
	.st72{fill:#7AB2DD;}
	.st73{fill:#004687;}
	.st74{fill:#002A5C;}
	.st75{fill:#93B1D7;}
	.st76{fill:#CA2430;}
	.st77{fill:#9E1721;}
	.st78{fill:#0050BA;}
	.st79{fill:#E8000D;}
	.st80{clip-path:url(#SVGID_23_);fill:#E4A710;}
	.st81{clip-path:url(#SVGID_25_);}
	.st82{fill:#FFDD15;}
	.st83{filter:url(#Adobe_OpacityMaskFilter_2_);}
	.st84{opacity:0.3;mask:url(#SVGID_26_);}
	.st85{fill:#FAAF40;}
	.st86{opacity:0.2;clip-path:url(#SVGID_25_);}
	.st87{opacity:0.5;clip-path:url(#SVGID_25_);fill:#FAAF40;}
	.st88{clip-path:url(#SVGID_25_);fill:#FFCA05;}
</style>
<g>
	<rect class="st6" width="512" height="512"/>
	<line class="st7" x1="0" y1="119.4" x2="512" y2="119.4"/>
	<line class="st8" x1="0" y1="137.3" x2="512" y2="137.3"/>
	<line class="st7" x1="0" y1="155.2" x2="512" y2="155.2"/>
	<path class="st6" d="M412.9,122.4c-6.2-39.1-22.4-77-48.8-113.2c-16.8-7.3-34.3-2.1-34.3-2.1S186.9,26.9,113.4,171
		c0,0-79.2,159,17.9,317.1c0,0,12.4,22.1,44.4,24c2.8-2,28-7.8,24.4-5.1c2.4-0.5,4.8-1,7.4-1.7C376.6,459,419.3,292.4,419.3,292.4
		C436.9,224.5,427.9,166,412.9,122.4z M230.2,483.2v-0.8c1.6-0.8,2.5-1.3,2.5-1.3C231.9,481.8,231,482.5,230.2,483.2z M303.1,414.5
		v-1c2-1.6,3.2-2.5,3.2-2.5C305.2,412.2,304.2,413.3,303.1,414.5z"/>
	<g>
		<path class="st9" d="M348.1,29.6c-15.2-6.5-30.9-1.9-30.9-1.9S188.7,45.5,122.6,175c0,0-71.2,143,16.1,285.2
			c0,0,11.2,19.8,40,21.6c39.2-27.8,190.9-143.8,213.1-284C401.1,138.8,386.4,82.3,348.1,29.6z M200.1,138.7
			c2.6,1.1,3.8,3.8,2.8,5.8c-0.3,0.5-0.6,1.1-0.8,1.6c-1.1,2-3.6,2.7-5.7,1.9c-2.7-1.1-5.4-1.8-8.2-2.4c-2.5,4.3-5.3,9-8.1,14.1
			c2.2,0.6,4.4,1.3,6.6,2.2c2.6,1.1,3.8,3.8,2.8,5.8c-0.3,0.5-0.6,1.1-0.8,1.6c-1.1,2-3.6,2.7-5.7,1.9c-2.5-1-5.1-1.8-7.8-2.3
			c-2.5,4.6-4.9,9.4-7.4,14.4c1.8,0.5,3.6,1.1,5.3,1.8c2.6,1.1,3.8,3.8,2.8,5.8c-0.3,0.5-0.6,1.1-0.8,1.6c-1.1,2-3.6,2.7-5.7,1.9
			c-1.9-0.8-3.9-1.4-6-2c-2.1,4.5-4.3,9.1-6.4,13.9c2.7,0.7,5.3,1.5,7.9,2.6c2.6,1.1,3.8,3.8,2.8,5.8c-0.3,0.5-0.6,1.1-0.8,1.6
			c-1.1,2-3.6,2.7-5.7,1.9c-2.6-1.1-5.4-1.8-8.2-2.4c-1.9,4.7-3.8,9.5-5.6,14.3c2.3,0.6,4.6,1.4,6.9,2.3c2.6,1.1,3.8,3.8,2.8,5.8
			c-0.3,0.5-0.6,1.1-0.8,1.6c-1.1,2-3.6,2.7-5.7,1.9c-2.1-0.9-4.3-1.6-6.5-2.1c-1.9,5.5-3.6,11-5.2,16.5c3.5,0.7,7,1.6,10.3,3
			c2.6,1.1,3.8,3.8,2.8,5.8c-0.3,0.5-0.6,1.1-0.8,1.6c-1.1,2-3.6,2.7-5.7,1.9c-2.9-1.2-6-2-9.1-2.6c-1.1,4.5-2.1,9.1-3,13.6
			c3.2,0.7,6.3,1.6,9.4,2.8c2.6,1.1,3.8,3.8,2.8,5.8c-0.3,0.5-0.6,1.1-0.8,1.6c-1.1,2-3.6,2.7-5.7,1.9c-2.4-1-4.8-1.7-7.3-2.3
			c-1.4,9.6-2.2,19.1-2.1,28.4l-10.2,0.1c-0.1-9.7,0.7-19.7,2.1-29.7c-2.7,0-5.4,0.1-8,0.5c-2.2,0.4-4.5-1-5.1-3.1
			c-0.1-0.6-0.3-1.2-0.4-1.8c-0.6-2.2,1.2-4.6,4-5c3.7-0.6,7.5-0.7,11.3-0.5c0.8-4.4,1.8-8.8,2.8-13.2c-2,0.1-4,0.2-6,0.5
			c-2.2,0.4-4.5-1-5.1-3.1c-0.1-0.6-0.3-1.2-0.4-1.8c-0.6-2.2,1.2-4.6,4-5c3.4-0.5,6.8-0.7,10.2-0.6c1.6-5.6,3.3-11.2,5.1-16.7
			c-2.8-0.1-5.7,0-8.5,0.5c-2.2,0.4-4.5-1-5.1-3.1c-0.1-0.6-0.3-1.2-0.4-1.8c-0.6-2.2,1.2-4.6,4-5c4.5-0.7,9.1-0.8,13.6-0.4
			c1.7-4.6,3.5-9.2,5.3-13.7c-2.2,0-4.4,0.2-6.6,0.6c-2.2,0.4-4.5-1-5.1-3.1c-0.1-0.6-0.3-1.2-0.4-1.8c-0.6-2.2,1.2-4.6,4-5
			c4.1-0.6,8.2-0.7,12.2-0.5c2-4.7,4.1-9.3,6.2-13.8c-2.9-0.1-5.8,0-8.7,0.5c-2.2,0.4-4.5-1-5.1-3.1c-0.1-0.6-0.3-1.2-0.4-1.8
			c-0.6-2.2,1.2-4.6,4-5c5-0.8,10-0.9,15-0.4c2.3-4.6,4.6-9.1,6.8-13.4c-2.2,0-4.4,0.2-6.6,0.6c-2.2,0.4-4.5-1-5.1-3.1
			c-0.1-0.6-0.3-1.2-0.4-1.8c-0.6-2.2,1.2-4.6,4-5c4.5-0.7,9-0.8,13.4-0.4c2.6-4.7,5.1-9.2,7.6-13.3c-2,0.1-3.9,0.2-5.9,0.5
			c-2.2,0.4-4.5-1-5.1-3.1c-0.1-0.6-0.3-1.2-0.4-1.8c-0.6-2.2,1.2-4.6,4-5c4.4-0.7,8.9-0.8,13.3-0.4c8.5-13.9,14.6-22.7,15.5-23.9
			l8.4,5.9c-0.2,0.3-5.3,7.6-12.8,19.8C195.8,137.1,198,137.8,200.1,138.7z"/>
		<path class="st9" d="M396.9,108.8c9.2,31.5,11.2,63.9,5.9,97.2c-13.7,86.4-74.8,162.8-123.6,211.6c-30.7,30.7-60.4,54.6-80.1,69.3
			c2.3-0.4,4.6-0.9,7-1.6c160.9-44,201.4-202.5,201.4-202.5C426.1,211.6,413.6,151.2,396.9,108.8z"/>
	</g>
	<rect x="0" y="314.7" class="st1" width="512" height="96"/>
	<g>
		<path class="st6" d="M69.9,344.7c-3.7,0-6.7,1.2-6.7,4.5c0,3.6,6.4,5,12.1,7.4c6.3,2.8,12.8,7.3,12.8,16.9c0,12.1-8.2,19-21.5,19
			c-9.1,0-14.2-2.1-18.4-5l3.9-11.8c3.9,2.6,7.7,4.6,14.1,4.6c5.6,0,8.1-1.8,8.1-4.8c0-4.8-5.1-5.7-11.2-8.4
			c-5.7-2.5-13.3-6.9-13.3-16.6c0-10.8,7.2-17.9,20.3-17.9c7.7,0,12.8,1.9,16.3,4L83,348.2C80.3,346.5,75.1,344.7,69.9,344.7z"/>
		<path class="st6" d="M94.2,333.7h35.4v11.2h-20.4v11.4h18.5v11.2h-18.5v12.9h20.7v11.2H94.2V333.7z"/>
		<path class="st6" d="M134.3,391.6l5.7-57.9h12.1l13.3,36.4l13.9-36.4h4.4v0.1l0.1-0.1h6.3l5.7,57.9h-14.3l-2-29.1L168,391.6h-7.7
			l-11-29.2l-2.3,29.2H134.3z"/>
		<path class="st6" d="M201.3,333.7h14.9v57.9h-14.9V333.7z"/>
		<path class="st6" d="M225.2,391.6v-57.9H240l19.5,33.4v-33.4h12.6v57.9h-13.2l-21.1-36.3v36.3H225.2z"/>
		<path class="st6" d="M306.9,392.9c-14.5,0-28.5-10.4-28.5-29.9c0-19.3,14-30.6,28.5-30.6c14.5,0,28.5,11.2,28.5,30.6
			C335.5,382.4,321.5,392.9,306.9,392.9z M306.9,380.7c7.6,0,13.3-5.8,13.3-17.9s-5.7-18.2-13.3-18.2c-7.5,0-13.2,6.1-13.2,18.2
			C293.7,375,299.4,380.7,306.9,380.7z"/>
		<path class="st6" d="M341.9,333.7h14.9v46.7h21v11.2h-36V333.7z"/>
		<path class="st6" d="M383.9,333.7h35.3v11.2h-20.4v11.4h18.5v11.2h-18.5v12.9h20.7v11.2h-35.7V333.7z"/>
		<path class="st6" d="M445.5,344.7c-3.7,0-6.7,1.2-6.7,4.5c0,3.6,6.4,5,12.1,7.4c6.3,2.8,12.8,7.3,12.8,16.9c0,12.1-8.2,19-21.5,19
			c-9.1,0-14.2-2.1-18.4-5l3.9-11.8c3.9,2.6,7.7,4.6,14.1,4.6c5.6,0,8.1-1.8,8.1-4.8c0-4.8-5.1-5.7-11.2-8.4
			c-5.7-2.5-13.3-6.9-13.3-16.6c0-10.8,7.2-17.9,20.3-17.9c7.7,0,12.8,1.9,16.3,4l-3.6,11.4C455.8,346.5,450.7,344.7,445.5,344.7z"
			/>
	</g>
</g>
</svg>
