<svg xmlns="http://www.w3.org/2000/svg" viewBox="0 0 296.9 32.88"><defs><style>.cls-1{fill:#006db6;}</style></defs><title>charlotte-observer</title><g id="Layer_2" data-name="Layer 2"><g id="clt"><path class="cls-1" d="M21.76,19.06C19.2,24.33,17,27.28,10.89,27.28S.16,23.08.16,17c0-5.3,2.84-8.56,6.13-10.7l.29.23A11.09,11.09,0,0,0,4,13.59,8.8,8.8,0,0,0,7.24,20.8l.89-.49c.73-.41.92-.79.92-2V9.38l-1.45.79-.16-.43S11.76,7,12.8,6.48V6.42c-3.87-1.1-4.56-2.37-7-2.37s-4,1.64-5.39,5.1L0,9C.2,5.13,1.88,0,8.89,0c1.43,0,2.9.77,4.7,1.51a15.29,15.29,0,0,0,4.08,1.35A3.56,3.56,0,0,0,21.39.43l.27.16c-.32,2.33-2.28,5.53-5,6.09v15.5a8.36,8.36,0,0,0,4.74-3.45Zm-5.6,3.29V6.78a9.22,9.22,0,0,1-1.22.07,10.1,10.1,0,0,1-1.61-.24V15.9c0,1.44-.54,2-2,2.86l-3.68,2.3a9,9,0,0,0,5.56,1.71A12.28,12.28,0,0,0,16.16,22.35Z"/><path class="cls-1" d="M35.28,11.65c-.38.2-.65.66-.65,1.58v9.32A12,12,0,0,1,28,32.88l-.27-.3c1.62-1.53,2.54-4.15,2.54-7.5V12.93l-2.34-1.61-.69.56V22.74l1.71,1-3.12,3.06-3.76-2.47v0a1.92,1.92,0,0,0,.86-1.84V3L28,.2l.23.36c-.7.48-1,.82-1,2.2v8.63l3.33-3.13,4.7,3.29Z"/><path class="cls-1" d="M48.45,14.41l-7,4v3.32l3.29,2.14,1.75-1.61.36.36-4.74,4.18L36.27,22.9v-.06a1.89,1.89,0,0,0,.85-1.55V12.93l8-4.57ZM44.4,16.26l-2.83-5.33-.1,0V17.9Z"/><path class="cls-1" d="M159,22.83l-4,4.05-5.29-3.26v-.06a1.87,1.87,0,0,0,.85-1.68V12h-2.3l1-2.21h1.28V6.28l5.11-2.67.22.33a2.1,2.1,0,0,0-1,1.91V9.64h3.49L157.18,12h-2.37V22.34l2.63,1.32,1.19-1.15Z"/><path class="cls-1" d="M148.75,22.83l-4.08,4.05-5.3-3.26v-.06a1.86,1.86,0,0,0,.86-1.68V12h-2.3l1-2.21h1.28V6.28l5.13-2.67.23.33a2.1,2.1,0,0,0-1,1.91V9.64h3.48L147,12h-2.37V22.34l2.63,1.32,1.18-1.15Z"/><path class="cls-1" d="M125.15,22.87,121,26.75l-4.32-3v-.06a2,2,0,0,0,.86-1.78V3L122.59.39l.2.33c-.68.59-1,.82-1,2.4V22.34l1.84,1.15,1.16-.89Z"/><path class="cls-1" d="M116.8,9.37c-.1,2.36-1.12,3.82-3.46,3.82a3.51,3.51,0,0,1-2.73-1.64l-.56.59V22l2.3,1.64,1.42-1.38.33.33-4.28,4.25-5-3.43v-.07a2,2,0,0,0,.82-2V12.6l-1.09-.92-1.08,1.05-.39-.36,4.08-4L110,10.56v1.12l.07,0,3-3.26h.06a3.88,3.88,0,0,0,2.73,1.08,2.73,2.73,0,0,0,.92-.16Z"/><path class="cls-1" d="M89.05,11.65c-.38.19-.66.65-.66,1.57v9.32a11.93,11.93,0,0,1-6.61,10.33l-.26-.29c1.61-1.53,2.53-4.15,2.53-7.51V12.93l-2.31-1.61-.69.55V22.74l1.68,1-3.12,3.07-3.72-2.47v0a1.91,1.91,0,0,0,.85-1.84V3L81.81.19,82,.55c-.69.49-1,.83-1,2.21v8.62l3.3-3.12,4.7,3.29Z"/><path class="cls-1" d="M170.54,14.41l-7,4v3.32l3.29,2.15,1.75-1.62.36.36-4.74,4.19-5.86-3.89v-.07a1.87,1.87,0,0,0,.86-1.54V12.93l8-4.58Zm-4,1.84-2.83-5.33-.1,0v7Z"/><path class="cls-1" d="M137.37,11.41c-.48.34-.7.83-.7,1.81v9.32l-7.3,4.28-5.14-3.43v-.06a1.93,1.93,0,0,0,.89-1.62V12.8l7.51-4.48,4.74,3Zm-5,12.77V12.5l-2.83-1.78h-.07V22.41l2.8,1.81Z"/><path class="cls-1" d="M104.32,22.8l-3.95,3.95L97,24.31l-3.52,2.48a5.2,5.2,0,0,1-3.52-5.21c0-2.69,1.41-4.55,4.44-5.46-1.74-1.45-3.72-3.65-3.72-5.79a1.84,1.84,0,0,1,1.82-1.94A1.4,1.4,0,0,1,94,9.93a1.66,1.66,0,0,1-1.64,1.55v0a1.89,1.89,0,0,0,1.08.3c1.35,0,2.83-2.11,3.79-3.55l4.8,3.12v.07c-.64.34-.76,1-.76,2.33v8.59l1.65,1.16,1-1.09ZM97,15.5V12.7l-1.74-1.19a2.62,2.62,0,0,1-1.78.79,2.57,2.57,0,0,1-1.77-.56h-.07c.29,1.32,1.86,3.08,3.19,4.25A9.14,9.14,0,0,1,97,15.5Zm0,8.25V16c-1.91,0-2.63,1.94-2.63,4.21,0,1.94.66,3.41,1.94,4Z"/><path class="cls-1" d="M76,21.39c-3,4.51-6,6-11.26,6-6.58,0-11-5.72-11-12.67C53.74,7.35,59.1,3,62.62,2.13l.2.33c-2.68,1.61-4.47,5-4.47,10.73a10.6,10.6,0,0,0,2.4,7l.52-.32a1.88,1.88,0,0,0,1-1.91V5.39L61,6.12l-.27-.43L69.4.42a5.29,5.29,0,0,0,5.5,2.24l.07.1a4.06,4.06,0,0,1-4,3.52A5.32,5.32,0,0,1,69.11,6V23.59a11.19,11.19,0,0,0,6.68-2.47Zm-7.27,2.2V5.79a5.71,5.71,0,0,1-2.31-2.18l0,0V14.87c0,1.88,0,2.57-1.68,3.62l-3.59,2.27C62.94,22.53,65.26,23.41,68.75,23.59Z"/><path class="cls-1" d="M296.9,9.37c-.09,2.36-1.12,3.82-3.45,3.82a3.49,3.49,0,0,1-2.73-1.64l-.56.59V22l2.3,1.64,1.42-1.38.32.33-4.27,4.25-5-3.43v-.07a2,2,0,0,0,.82-2V12.6l-1.08-.92-1.09,1.05-.4-.36,4.09-4,2.79,2.21v1.12l.07,0,3-3.26h.07A3.88,3.88,0,0,0,296,9.47a2.73,2.73,0,0,0,.92-.16Z"/><path class="cls-1" d="M270.8,10.92a2,2,0,0,0-1,1.91v9.64l-7.27,4.28-5.3-3.49V23.2a1.93,1.93,0,0,0,.89-1.84V14.21c0-2.78-1.78-2.85-1.78-4.9,0-2.47,3-3.36,5-3.36l.23.5a1.41,1.41,0,0,0-1.65,1.34c0,1.8,2.54,1.67,2.54,5v9.38l2.83,2.07.13-.07V12.53l-1.74-1.18,3.09-3,4,2.54Z"/><path class="cls-1" d="M255.77,9.37c-.1,2.36-1.13,3.82-3.46,3.82a3.49,3.49,0,0,1-2.73-1.64l-.59.59V22l2.3,1.64,1.41-1.38.34.33-4.29,4.25-4.93-3.43v-.07a2,2,0,0,0,.82-2V12.6l-1.08-.92-1.09,1.05-.43-.36,4.12-4,2.76,2.21v1.12l.07,0,3-3.26h.07a3.94,3.94,0,0,0,2.76,1.08,2.6,2.6,0,0,0,.89-.16Z"/><path class="cls-1" d="M283.41,14.41l-7,4v3.32l3.3,2.15,1.74-1.62.36.36-4.74,4.19-5.86-3.89v-.07a1.87,1.87,0,0,0,.86-1.54V12.93l8-4.58Zm-4,1.84-2.84-5.33-.1,0v7Z"/><path class="cls-1" d="M242.24,14.41l-7,4v3.32l3.29,2.15,1.78-1.62.36.36L236,26.79l-5.89-3.89v-.07a1.87,1.87,0,0,0,.86-1.54V12.93l8-4.58Zm-4,1.84-2.86-5.33-.1,0v7Z"/><path class="cls-1" d="M228.84,22.64l-6.78,4.15a4.44,4.44,0,0,0-3.09-1,3.92,3.92,0,0,0-2.53.92l-.33-.2c1.31-1.87,4.61-6.84,4.61-6.84l-3.82-2.37V12.7l7.27-4.31a2.76,2.76,0,0,0,2.24,1.31c1.15,0,1.64-.49,1.64-1.18a1.23,1.23,0,0,0-.13-.66l.73-.33a2.35,2.35,0,0,1,.13.69,2.38,2.38,0,0,1-.49,1.45l-3.56,5.13,4.11,2.8Zm-3.25-10.11,0,0a3.09,3.09,0,0,1-1.51.3,4,4,0,0,1-2.77-1.42v4l1.65,1.12C224,15,224.57,14,225.59,12.53Zm-1.16,11.09V19.48l-2-1.42c-1.29,1.81-4,6-4,6a6.53,6.53,0,0,1,3.1-.95A8.81,8.81,0,0,1,224.43,23.62Z"/><path class="cls-1" d="M215.71,11.45c-.47.31-.72.79-.72,1.91v9.15l-7.24,4.24-5.33-3.65V23a2.16,2.16,0,0,0,.85-2.1V3l5.1-2.83.23.3a2.36,2.36,0,0,0-1,2.27v8.72l3.29-3.19,4.8,3.09Zm-5.07,12.8V12.93l-2.5-1.58-.52.69v10l3,2.2Z"/><path class="cls-1" d="M201.59,12c0,8.36-5.39,15.3-12.17,15.3-7.21,0-11.65-5.89-11.65-12.54a13.87,13.87,0,0,1,8.62-13.13l.36.23c-2.73,2.2-4.34,6-4.34,12a10,10,0,0,0,2.14,6.45l.72-.36a2,2,0,0,0,1-2V5.75L185,6.48,184.81,6l9.44-5.6C197.48,1.41,201.59,5,201.59,12ZM198,12.7a11.29,11.29,0,0,0-4.88-7.9v7.86a9.36,9.36,0,0,0,2.51.33A8.9,8.9,0,0,0,198,12.7Zm.06,1.35c0-.34,0-.67,0-1a9.54,9.54,0,0,1-2.4.3,10.76,10.76,0,0,1-2.51-.33v2.2a9.86,9.86,0,0,1,2.51-.33,8.93,8.93,0,0,1,2.4.3C198.06,14.82,198.07,14.44,198.07,14.05Zm0,1.51a9.39,9.39,0,0,0-2.4-.33,10.17,10.17,0,0,0-2.51.36v8C196.35,23,197.79,20.1,198,15.56Zm-5.27,8.13V4.54a10.56,10.56,0,0,0-2.23-1.12l-.07.1V15.1c0,2.32-.34,2.47-2.14,3.62L185,20.83a8.77,8.77,0,0,0,6.65,2.92A7.48,7.48,0,0,0,192.77,23.69Z"/></g></g></svg>