<svg xmlns="http://www.w3.org/2000/svg" viewBox="0 0 295.47 53.94"><defs><style>.cls-1{fill:#010101;}</style></defs><title>telegraph</title><g id="Layer_2" data-name="Layer 2"><g id="mac"><path class="cls-1" d="M68.65,18.63c2.29-1.13,4.37-2.48,6.55-3.72.12,0,.15.15.3.15,0,.13.06.14.15.15a2,2,0,0,0,.74.74h.15a3.05,3.05,0,0,0,.89.9h.15A5.59,5.59,0,0,0,78.77,18h.15q2.37,2.55,4.92,4.91c0,.18.65.62,0,.6a1.32,1.32,0,0,0-.6.59h-.15a1.37,1.37,0,0,0-.59.6h-.15a4,4,0,0,0-1,1h-.15a4.15,4.15,0,0,0-1,1H80A14.23,14.23,0,0,0,78,28.76h-.15q-1.95,1.77-3.72,3.72v.15A5.37,5.37,0,0,0,73,33.82V34a1.29,1.29,0,0,0-.6.6c0,.44-.39.5-.45.89-.14,0-.11.18-.14.3s-.12.18-.15.29c-.37.33,0,1.23.15,1.49,0,.18,0,.27.14.3a.68.68,0,0,1,.15.45,1.37,1.37,0,0,0,.6.59H73c0,.15.18.12.29.15s.28.13.45.15c1.33.68,3.27-.06,4.47-.45.21,0,.42,0,.44-.14a1.25,1.25,0,0,0,.9-.3.72.72,0,0,0,.74-.3,2.67,2.67,0,0,0,1.34-.59h.45c.22.75-1.2,1.05-1.34,1.93a4.11,4.11,0,0,0-1,1v.15a3.09,3.09,0,0,0-.9.9v.14a7.39,7.39,0,0,0-1.34,1.34,7.18,7.18,0,0,0-.74.6c0,.34-.43.17-.45.45-.45-.11-.43.25-.89.15A10.58,10.58,0,0,1,71.18,44c-.45.1-.44-.26-.89-.15v-.15c-.76,0-1-.53-1.64-.6-.1-.2-.32-.27-.6-.29-.06-.48-.58-.52-.89-.75a1.11,1.11,0,0,0-.45-.3c0-.12-.06-.14-.15-.14a2,2,0,0,0-.74-.75q-.5,0-.45-.45a1.3,1.3,0,0,0-.59-.59c0-.13-.06-.14-.15-.15s-.15-.15-.3-.15c.06-.36-.27-.32-.15-.75-.19-5.17.38-11.1-.3-15.78h-.14V22.8a.44.44,0,0,0-.3-.45.48.48,0,0,1,0-.89.42.42,0,0,1,.44-.3c.56-.18,1.16-.33,1.34-.89h.3c1-.18,1.41-.87,2.24-1.19A1.52,1.52,0,0,0,68.65,18.63Zm2.83,1.19a60.6,60.6,0,0,0,0,13.26Q73.73,31,75.8,28.76v-.15a8.75,8.75,0,0,0,1.49-1.49V27a3,3,0,0,0,.89-.89v-.3c.36,0,0-.49-.15-.45a12.05,12.05,0,0,0-1.79-1.78h-.15a4,4,0,0,0-1-1H74.9a2,2,0,0,0-.74-.75H74a2,2,0,0,0-.75-.74C72.53,20.76,72.14,20.16,71.48,19.82Z"/><path class="cls-1" d="M47.65,3.89q.26,0,.3.15c.1,4.86-.2,10.12.15,14.74.17,0,.26,0,.3-.15s.4-.08.44-.29c0-.39.58-.22.6-.6,1-.49,1.92-1,3-1.49a5.22,5.22,0,0,1,1.93,0c0,.17.27.13.45.15.05.2.37.12.59.15,0,.14.19.11.3.15.13.22.48.21.75.29a1.44,1.44,0,0,0,.89.45.66.66,0,0,0,.6.3v.15c.24,0,.25.14.44.15a1.11,1.11,0,0,0,.45.3c0,.12.06.14.15.14a5.17,5.17,0,0,0,1.19,1.19c0,.13.06.15.15.15,0,.18,0,.27.15.3-.19,8.36.37,17.45-.3,25.31-.29.46-.47,1-.75,1.49a8.45,8.45,0,0,0-.59.75,2.1,2.1,0,0,0-.74.74,6.36,6.36,0,0,0-.75.6.83.83,0,0,0-.6.59,2.79,2.79,0,0,0-1.19.6,4.93,4.93,0,0,0-1.63.6c-.46-.11-.44.25-.9.14-1.46.1-3,.89-4.32.6-.08-.33.29-.21.3-.45.17,0,.27,0,.3-.15.51.12.19-.6.74-.44a.69.69,0,0,1,.45-.15,5.17,5.17,0,0,0,1.19-1.19c0-.24.14-.26.15-.45a6.79,6.79,0,0,0,.9-2.08c.17,0,.12-.27.14-.45H53c.8-7.35.57-17.28.15-24.87V21a1.27,1.27,0,0,0-.6-.59h-.29c0-.22-.36-.14-.6-.15v-.15a7.91,7.91,0,0,0-3.57-.45c-.25,5.86-.25,12.76,0,18.62v.3a2.91,2.91,0,0,0,.89.89c.5,0,.51.48,1,.45,0,.21.25.25.3.44-.16,0-.23.17-.3.3a7.09,7.09,0,0,0-.74.59,1.23,1.23,0,0,0-.45.3,2.42,2.42,0,0,0-.59.45,1,1,0,0,0-.45.3,2.39,2.39,0,0,0-.59.44c-.62.48-1.08,1.11-2.09,1.2-.41.11-.3-.3-.6-.3h-.14A27.12,27.12,0,0,0,41.7,41v-.15a1.45,1.45,0,0,0-.6-.6c0-.12-.06-.14-.15-.15-.19-8.49.39-17.75-.3-25.75h-.14c0-.18,0-.27-.15-.3v-.3c.32-.1-.29-.5-.45-.6-.39,0-.74.05-.6-.44a6.8,6.8,0,0,0,1.34-1.34v-.15a33.52,33.52,0,0,0,3-3V8.06a29.08,29.08,0,0,0,2.83-2.83V5.08A5.17,5.17,0,0,0,47.65,3.89Z"/><path class="cls-1" d="M12.51,1.51a24.92,24.92,0,0,1,11.91.3,1.2,1.2,0,0,0,.9.29,1.16,1.16,0,0,0,.89.3v.15c1.28.21,2.19.78,3.42,1,0,.18.28.13.45.15a9.8,9.8,0,0,0,2.53.9c0,.17.27.12.45.15,0,.2.37.12.6.14v.15h.44c2.19.72,5.83,1.59,8.34.6.21,0,.42,0,.45-.15a1.49,1.49,0,0,0,.89-.45c.25,0,.28.12.3.3s-.4.29-.45.6v.15a4,4,0,0,0-1,1v.15a23.25,23.25,0,0,0-2.53,2.53,6.29,6.29,0,0,0-.75.59c.08.47-.68.11-.74.45s-.57,0-.6.3v.15c-.36-.06-.32.27-.74.15-1.48.45-2.84-.42-4-.15-.13.07-.27.13-.3.3-.35,9.43,0,19.5-.15,29.18.39.25,1.21-.11,1.64-.3.21,0,.42,0,.45-.15.23,0,.56.08.59-.15.21,0,.42,0,.45-.14a1.24,1.24,0,0,0,.89-.3c.36.06.32-.27.75-.15v-.15a5.94,5.94,0,0,0,1.78-.89c.76-.06.43,1-.14.89a4.15,4.15,0,0,0-1.05,1,7.18,7.18,0,0,0-.74.6c-.58.46-1.36.73-1.79,1.34-.35,0-.64.15-.74.45a2.94,2.94,0,0,0-1.64.74,2.86,2.86,0,0,0-1.05.45,20.29,20.29,0,0,1-2.08.59,32.89,32.89,0,0,1-15.78.15h-.45v-.15c0-.2-.37-.12-.6-.15-.45.11-.43-.25-.89-.14,0-.15-.18-.12-.3-.15A29.62,29.62,0,0,1,7.89,42c-.41-.38-.89-.69-1.34-1a18.79,18.79,0,0,0-2.23-2.23,6.36,6.36,0,0,0-.6-.75c-.12,0-.15-.15-.3-.15a2.94,2.94,0,0,0-.59-1,11.23,11.23,0,0,0-.89-2.09c.1-.45-.26-.43-.15-.89a18.58,18.58,0,0,1,0-7.89c-.11-.45.25-.44.15-.89.14-.36.55-.44.44-1.05.18,0,.13-.27.15-.44.53,0,.42-.67.6-1,.47-.07.51-.59.74-.9H4c0-.24.14-.25.15-.44a7.21,7.21,0,0,0,.59-.75,4.15,4.15,0,0,0,1-1v-.15A5.37,5.37,0,0,0,7,18h.15a2.94,2.94,0,0,0,.89-.9h.15a1.3,1.3,0,0,0,.59-.59c.45-.35.93-.66,1.34-1,0-.12.15-.15.15-.3a3.19,3.19,0,0,0,1.34-.89h.3a8.61,8.61,0,0,0,1.64-.9c0-.12.15-.15.15-.29a6.87,6.87,0,0,0,2.68-1.2c.21,0,.42,0,.44-.14a11.52,11.52,0,0,0,2.39-1c.17,0,.26,0,.29.15-.1.35-.49.4-.59.75h-.15a2.91,2.91,0,0,0-.89.89h-.15a9.79,9.79,0,0,0-1.64,1.64v.15a4,4,0,0,0-1,1v.15a1.32,1.32,0,0,0-.6.59v.15a1.32,1.32,0,0,0-.59.6c0,.44-.39.5-.45.89a2.91,2.91,0,0,0-.6.89h-.14c-.56,1.34-1.49,2.29-1.79,3.88-.14,0-.12.18-.15.29s-.12.27-.15.45a16.3,16.3,0,0,0,0,9.08c0,.22,0,.43.15.45.18,1.5,1.07,2.31,1.64,3.42,0,.3.4.19.3.6a9.43,9.43,0,0,0,1.64,1.64c.4-.11.29.29.59.3.22.17.36.43.74.44.23.18.37.43.75.45v.15c.77.17,1.22.66,2.08.74,0,.18.28.13.45.15,3.08,1.19,8.73,1.15,12.36.45V18c0-1.87.48-6.38-.45-7.15,0,0,0-.21-.14-.15a13.94,13.94,0,0,0-2.24-1c0-.16-.3-.1-.3-.3-.68,6.64-.11,16.29-.3,24-.17,0-.12.27-.14.44-.18,0-.13.27-.15.45-.15,0-.12.18-.15.3s-.12.18-.15.29-.14.06-.15.15a8.75,8.75,0,0,0-1.49,1.49c-.13,0-.14.06-.15.15s-.15.15-.15.3a3,3,0,0,0-1.63.74h-.3c-.24,0-.57-.07-.6.15V38h-.44c-1.32-.11-4,1.07-4.92.15.08.08.18-.1.15-.15.17,0,.26,0,.3-.15A10,10,0,0,0,20,37a2,2,0,0,0,.75-.75v-.29c.25-5.76.25-12.56,0-18.32h-.15v-.74a2.15,2.15,0,0,0-.75-.75h-.59V16a.45.45,0,0,1-.15-.74,2.42,2.42,0,0,0,.59-.45c0-.12.15-.15.15-.29a.42.42,0,0,0,.45-.3c.76,0,.91-.59,1.34-.9h.3c.12-.13.41-.09.45-.3a2.52,2.52,0,0,0,.59-.44,12.53,12.53,0,0,1,2.68-1.79,2.65,2.65,0,0,0,.6-.44,1.35,1.35,0,0,1,.89-.6c.22-.18.67-.13.6-.6A.84.84,0,0,0,27.1,9c-.61,0-.84-.46-1.49-.45a2.8,2.8,0,0,0-1.34-.45V7.91c-4.7-1.71-12.36-1.44-17,.15v.15H6.85c-.24,0-.57-.07-.6.15v.15A19.75,19.75,0,0,0,1.49,10.3a.64.64,0,0,0-.6.29c-.51-.12-.63.28-.89,0V10.3A4.15,4.15,0,0,0,1,9.25V9.1A18.07,18.07,0,0,0,3.27,6.87h.15A3.18,3.18,0,0,0,4.32,6h.15a1.37,1.37,0,0,0,.59-.6,8.45,8.45,0,0,0,.75-.59c.18-.46.85-.44,1-.9a8.15,8.15,0,0,0,1-.45c.34-.35,1-.42,1.34-.74A.73.73,0,0,0,10,2.4,15.69,15.69,0,0,0,12.51,1.51Z"/><path class="cls-1" d="M159.63.46c-.16-.37.5-.65.6-.29.1,12.61-.2,25.61.15,38,0,.11,0,.29.14.3v.29a2.07,2.07,0,0,0,.75.75c.49,0,.5.49,1,.45a1,1,0,0,0,.45.29c0,.15.18.12.3.15-.13.22-.23.47-.6.45a1.32,1.32,0,0,0-.59.6h-.15a2,2,0,0,0-.75.74h-.15a1.32,1.32,0,0,0-.59.6h-.15a1.37,1.37,0,0,0-.6.59h-.15a1.42,1.42,0,0,0-.59.6c-.13,0-.14.06-.15.15s-.12.17-.15.29h-.3c-.13.07-.26.13-.29.3h-.3a1.27,1.27,0,0,0-.6-.59h-.15a46.38,46.38,0,0,0-3.57-3.58c-.1-10,.2-20.45-.15-30.22,0-.1,0-.18-.15-.15.07-.25-.81-.25-.74,0a.42.42,0,0,1-.6,0V9.7c.1,0,.18,0,.15-.15a2.91,2.91,0,0,0,.89-.89V8.51a2.07,2.07,0,0,0,.75-.75V7.62a3.05,3.05,0,0,0,.89-.9V6.57a3.05,3.05,0,0,0,.9-.89V5.53a2.91,2.91,0,0,0,.89-.89V4.49a2.94,2.94,0,0,0,.89-.9V3.45a3.21,3.21,0,0,0,.9-.9V2.4a3,3,0,0,0,.89-.89V1.36A2.83,2.83,0,0,0,159.63.46Z"/><path class="cls-1" d="M184.35,23.55c-.35,0-.28.52-.74.44a2.24,2.24,0,0,0-.75.75h-.15a2,2,0,0,0-.74.74h-.15a5.42,5.42,0,0,0-1.19,1.2h-.15a10.11,10.11,0,0,0-1.64,1.63h-.15q-2.33,2.14-4.46,4.47v.15a4.32,4.32,0,0,0-1,1c-.1.54-.56.73-.74,1.19a.66.66,0,0,0-.3.6c-.15,0-.11.18-.15.3-.36.32,0,1.22.15,1.48,0,.18,0,.27.15.3v.3a2,2,0,0,0,.74.74c.27,0,.32.19.6.15,0,.15.18.12.3.15,1.38.64,3.38,0,4.61-.45.21,0,.42,0,.45-.14.21,0,.42,0,.45-.15a.73.73,0,0,0,.74-.3,5,5,0,0,0,2.09-.89.4.4,0,0,1,.29.44,12.55,12.55,0,0,0-1.78,1.79v.15a3.05,3.05,0,0,0-.9.89v.15a2.94,2.94,0,0,0-.89.9v.14a5.59,5.59,0,0,0-1.19,1.19,9,9,0,0,0-.75.6v.15c-.17,0-.26,0-.29.15a.66.66,0,0,0-.6.3h-.45a10.59,10.59,0,0,1-4.17-.15c-1.29-.14-2-.91-3.12-1.19,0-.15-.18-.12-.3-.15.1-.4-.31-.29-.45-.45s-.32-.17-.44-.3-.06-.14-.15-.15a1.37,1.37,0,0,0-.6-.59h-.15a3.05,3.05,0,0,0-.89-.9,7.09,7.09,0,0,0-.59-.74c.18-.48-.49-.11-.3-.6-.19-5.17.37-11.09-.3-15.78h-.15c0-.37,0-.72-.3-.75a.48.48,0,0,1,0-.89c.82-.27,1.32-.87,2.09-1.19.17,0,.26,0,.29-.15.77-.07.94-.74,1.64-.89a.66.66,0,0,0,.6-.3c.6-.24,1-.64,1.64-.89.17,0,.26,0,.29-.15A7.84,7.84,0,0,0,172,17c0-.11.15-.14.15-.29,1.34-.25,2-1.16,3.13-1.64.11.15.52-.06.74.3h.15a2.13,2.13,0,0,0,.75.74h.14a3.05,3.05,0,0,0,.9.89h.15a5.21,5.21,0,0,0,1.19,1.2h.15q2.13,2.32,4.46,4.46v.15C184,23.15,184.42,23.08,184.35,23.55ZM172,20c0-.11-.12-.17-.3-.15-.15,4-.44,9.48.15,13.26a46.51,46.51,0,0,0,3.58-3.58v-.14a17.11,17.11,0,0,0,2.08-2.09v-.15a2.91,2.91,0,0,0,.89-.89.73.73,0,0,1,.15-.45c.1-.69-1.11-1.36-1.64-1.93h-.14a5.69,5.69,0,0,0-1.2-1.2h-.14a3.18,3.18,0,0,0-.9-.89h-.14a1.37,1.37,0,0,0-.6-.59C173,20.91,172.65,20.31,172,20Z"/><path class="cls-1" d="M283.08,4.19c.19,4.42-.39,10.71.3,14.44.38,0,.52-.27.74-.44a11.52,11.52,0,0,1,2.38-1.49c.18,0,.27,0,.3-.15a.66.66,0,0,0,.6-.3,6.59,6.59,0,0,1,2.08,0,37.63,37.63,0,0,1,4,1.79,5.41,5.41,0,0,0,.75.59,3.05,3.05,0,0,0,.89.9c0,.12.06.14.15.14.25,8.2.24,17.42,0,25.62a5.86,5.86,0,0,0-.6,1.34,1.15,1.15,0,0,0-.3.44c-.12,0-.14.06-.14.15a8.41,8.41,0,0,0-1.49,1.49,7.3,7.3,0,0,0-.75.6c-.17,0-.26,0-.3.15-.4-.1-.28.31-.44.44s-.27,0-.3.15a1.39,1.39,0,0,0-1,.45c-.6,0-.75.34-1.34.3-.24,0-.57-.07-.6.15v.14h-.45c-1.33.11-2.38.5-3.72.6-.06-.31.11-.39.15-.6.17,0,.27,0,.3-.14.28,0,.5-.1.59-.3h.3a1.39,1.39,0,0,0,.6-.6c.13,0,.14,0,.15-.15s.26-.12.29-.3c.13,0,.15-.05.15-.14a1.39,1.39,0,0,0,.6-.6c.08-.26.08-.62.3-.74h.14c0-.35.26-.44.15-.9a.72.72,0,0,0,.3-.74c.18,0,.13-.27.15-.45h.15c.59-7.55.3-16.77.15-24.57v-.3a3.05,3.05,0,0,0-.9-.89h-.74c0-.17-.27-.12-.45-.15V20a5.31,5.31,0,0,0-3.12-.15c.1,6.16-.2,12.71.14,18.62.13.12.09.41.3.44a3.77,3.77,0,0,0,1.94,1.2c.34.48-.69.63-.89,1a.42.42,0,0,1-.45.3,2.65,2.65,0,0,0-.6.44.4.4,0,0,1-.44.3,2.69,2.69,0,0,0-.6.45c-.49,0-.35.64-.89.59a2.69,2.69,0,0,0-.6.45c-.09.3-.69.1-.74.45-.41.11-.3-.3-.6-.3a2.13,2.13,0,0,0-.74-.75h-.15a8.35,8.35,0,0,0-1.49-1.48v-.15a2.21,2.21,0,0,0-.74-.75,7.18,7.18,0,0,0-.6-.74c-.1-8.44.2-17.28-.15-25.46h-.15c0-.22,0-.43-.15-.45.2-.64-.42-.47-.59-.75-.55-.09-.54-.75-.15-1a29.08,29.08,0,0,0,2.83-2.83V9.25a33.52,33.52,0,0,0,3-3V6.13C281.49,5.66,282,4.05,283.08,4.19Z"/><path class="cls-1" d="M105,1.36a25.39,25.39,0,0,1,11.32.45c0,.17.27.12.44.15.05.2.38.12.6.14,0,.18.27.13.45.15,0,.18.27.13.44.15,0,.18.28.13.45.15V2.7c2,.46,3.49,1.37,5.51,1.79a2.91,2.91,0,0,0,1.34.44c0,.18.27.13.45.15,2.11.67,5.33,1.48,7.89.75.21,0,.42,0,.45-.15a1.24,1.24,0,0,0,.89-.3c.38.16.77-.51.74.15v.15a4.11,4.11,0,0,0-1,1v.15a6.8,6.8,0,0,0-1.34,1.34v.15a2.91,2.91,0,0,0-.89.89h-.15a2.15,2.15,0,0,0-.75.75,6,6,0,0,0-.74.59,3.1,3.1,0,0,1-1.94.89c-1.5.49-2.76-.48-4-.14a.4.4,0,0,0-.29.44c-.35,9.38-.05,19.41-.15,29,.39.25,1.21-.11,1.64-.3.21,0,.42,0,.44-.15a13,13,0,0,0,4.17-1.64s.29,0,.3,0c.51-1.46.15-4.54.15-7.59a82.88,82.88,0,0,0-.15-8.34,1.27,1.27,0,0,0-.6-.59c-.34,0-.08-.66,0-.75s.27,0,.3-.15a5.09,5.09,0,0,0,1.34-.74c.18,0,.27,0,.3-.15.65-.65,2-.58,2.38-1.49h.3c1.44-.55,2.53-1.44,3.87-2.09a5.6,5.6,0,0,1,1-.59c.82-.37,1.47-.91,2.23-1.34h.15c0,.12.05.14.14.15a2.13,2.13,0,0,0,.75.74h.15a2.13,2.13,0,0,0,.74.75h.15a4.32,4.32,0,0,0,1.05,1h.14a16.43,16.43,0,0,0,2.09,2.08h.15A6.55,6.55,0,0,0,149.21,21v.15c.6.83,1.47,1.4,2.08,2.24a.46.46,0,0,0-.3.29h-.15a1.37,1.37,0,0,0-.59.6h-.15a2.1,2.1,0,0,0-.74.74h-.15a3.21,3.21,0,0,0-.9.9h-.14a6.85,6.85,0,0,0-1.35,1.34h-.14a19.66,19.66,0,0,0-2.24,2.23h-.15a18.87,18.87,0,0,0-2.23,2.24v.14a10.6,10.6,0,0,0-1.64,1.64v.15a2,2,0,0,0-.74.75c0,.23-.14.25-.15.44a2.71,2.71,0,0,0-.74,1.34v.3c.08.26-.18.88.14.89,0,.18,0,.27.15.3A1.86,1.86,0,0,0,140.42,39c0,.18.28.13.45.15,1.15.59,2.94.08,4-.3.21,0,.42,0,.45-.15a8.57,8.57,0,0,0,2.83-1c.17,0,.26,0,.29-.15.28,0,.5-.09.6-.29.25-.06.28.11.3.29-.26.49-.79.71-1.05,1.19v.15a5.84,5.84,0,0,0-1.19,1.19v.15a2.94,2.94,0,0,0-.89.9v.14a12.62,12.62,0,0,0-1.79,1.79,7.18,7.18,0,0,0-.74.6v.15c-.17,0-.27,0-.3.15-.36-.07-.32.27-.75.14a10.91,10.91,0,0,1-4.31-.14c-.54,0-.72-.28-1.19-.3V43.5c-.63-.12-1-.49-1.64-.6v-.3c-.6,0-.76-.43-1.19-.59a5.41,5.41,0,0,0-.75-.59,8.14,8.14,0,0,0-1.49-1.5c-.22-.22-.26-.62-.59-.74a2.31,2.31,0,0,0-.75.74h-.15a2.21,2.21,0,0,0-.74.75,7.09,7.09,0,0,0-.74.59c0,.13-.15.15-.15.3A4.34,4.34,0,0,0,127,42.75c-.28,0-.5.1-.59.3-.39.21-1.18,0-1.2.6a1.37,1.37,0,0,0-1,.44c-.88.07-1.35.54-2.23.6-.24,0-.57-.07-.6.15V45h-.44a33.81,33.81,0,0,1-14.75-.15h-.44v-.15c0-.2-.38-.12-.6-.15-1.15-.19-1.89-.78-3-1a.64.64,0,0,0-.59-.3,11.13,11.13,0,0,0-1.94-1.34,7.18,7.18,0,0,0-.74-.6,1.37,1.37,0,0,0-.6-.59h-.15a8.41,8.41,0,0,0-1.49-1.49V39a1.3,1.3,0,0,0-.59-.59,6.36,6.36,0,0,0-.6-.75H95.3c0-.38-.27-.52-.44-.74q0-.26-.15-.3A8.47,8.47,0,0,0,94,35c.05-.59-.34-.75-.29-1.34a18.91,18.91,0,0,1,.15-8c0-.81.49-1.19.59-1.94.31,0,.14-.55.45-.59H95c.06-.78.69-1,.89-1.64a1.11,1.11,0,0,0,.3-.45c.13,0,.14-.05.14-.14a1.34,1.34,0,0,0,.6-.6v-.15a29.08,29.08,0,0,0,2.83-2.83h.15a1.3,1.3,0,0,0,.59-.59c.45-.35.93-.66,1.35-1,.5-.64,1.43-.84,1.93-1.49h.3c.6-.24,1-.64,1.64-.89a5,5,0,0,1,1-.59,2.9,2.9,0,0,0,1-.45.66.66,0,0,0,.6-.3,23.08,23.08,0,0,0,2.83-1.19c.43-.22.43.67,0,.45a1.37,1.37,0,0,0-.6.59h-.15a40.48,40.48,0,0,0-3.27,3.28v.15a2.13,2.13,0,0,0-.75.74c-.1.54-.56.73-.74,1.19A15.09,15.09,0,0,0,103.94,20a1.49,1.49,0,0,0-.45.9h-.15c0,.57-.5.68-.44,1.34a.72.72,0,0,0-.3.74c-.17,0-.13.27-.15.45a16,16,0,0,0,0,8.78c0,.22,0,.43.15.45a1.16,1.16,0,0,0,.3.89,2.22,2.22,0,0,0,.59,1.34.76.76,0,0,0,.6.75v.29a.76.76,0,0,1,.15.45,2,2,0,0,0,.74.74v.16a3.28,3.28,0,0,0,.89.89H106a1.37,1.37,0,0,0,.6.59c1.18.51,2,1.42,3.42,1.64a1.2,1.2,0,0,0,.9.3c0,.17.27.13.44.15,3,1,8.39,1,11.77.29-.1-10,.2-20.34-.15-30.07,0-.31-.4-.3-.6-.45-.61-.08-.86-.52-1.49-.6V9.85c-.26,0-.31-.19-.59-.15,0-.16-.3-.1-.3-.3-.68,6.73-.11,16.49-.3,24.27a3.28,3.28,0,0,0-.45,1,6.29,6.29,0,0,0-.59.75,2,2,0,0,0-.74.74,6.36,6.36,0,0,0-.75.6V37c-.17,0-.26,0-.3.14a3,3,0,0,0-1.63.75h-.45c-1.35-.05-4.52,1.3-5.51.3.08.08.18-.1.15-.15.17,0,.26,0,.3-.15a4.59,4.59,0,0,0,1.93-.89,2.69,2.69,0,0,0,.6-.45c.17,0,.12-.27.15-.45h.14c.27-2.55.15-5.95.15-9.53,0-3.26.72-7.44-.15-9.53-.31-.75-1.47-.86-1.63-1.63,0-.35.43-.17.44-.45.19-.46.86-.44,1.05-.89a1.41,1.41,0,0,0,.89-.6c.46.11.29-.41.74-.3a2.42,2.42,0,0,0,.6-.45c.19-.45.85-.43,1-.89a.4.4,0,0,0,.45-.3c.84-.25,1.24-.94,2.08-1.19.12-.13.41-.08.45-.29a2.42,2.42,0,0,0,.59-.45c.14-.07.27-.13.3-.3A.8.8,0,0,0,119,9.1c0-.14-.18-.12-.3-.14a6.83,6.83,0,0,0-2.08-.75c0-.18-.28-.13-.45-.15V7.91c-4.89-1.77-12.76-1.41-17.42.3v.15c-.46-.11-.44.25-.9.15-.23,0-.56-.08-.59.14V8.8a1.28,1.28,0,0,0-.9.3c-.51.18-1.15.23-1.48.6a3.28,3.28,0,0,0-1.79.74.66.66,0,0,0-.6.3h-.29a.4.4,0,0,1,0-.6V10a11.56,11.56,0,0,0,1.64-1.64.55.55,0,0,1,.59-.6A8.41,8.41,0,0,0,95.9,6.27h.15a2,2,0,0,0,.74-.74c.45-.35.93-.66,1.34-1a1.26,1.26,0,0,1,1.19-.59c0-.24.14-.26.15-.45h.3A2.62,2.62,0,0,0,101,2.85a6.32,6.32,0,0,0,1.64-.75,2.91,2.91,0,0,0,1.34-.44c.22,0,.55.05.59-.15C104.71,1.49,105,1.53,105,1.36Zm33.66,18.46c-.68,3.24-.11,9.17-.3,13.11.15,0,.18.12.3.15q2.54-2.37,4.91-4.92V28a5.17,5.17,0,0,0,1.19-1.19v-.15a2.13,2.13,0,0,0,.75-.74c.1-.75-.4-.89-.75-1.19h-.15a8.08,8.08,0,0,0-1.49-1.49H143a4.15,4.15,0,0,0-1.05-1h-.15a1.32,1.32,0,0,0-.59-.6H141a1.32,1.32,0,0,0-.6-.59h-.15a1.27,1.27,0,0,0-.59-.6c-.41.11-.3-.3-.6-.3C139,19.91,138.76,20,138.64,19.82Z"/><path class="cls-1" d="M255.53,15.36c.28-.07.37-.32.75-.3,0,.14.18.11.29.15s.06.14.15.15a16.43,16.43,0,0,0,2.09,2.08v.15c.36.34.86,1.32,1.34,1,.17,0,.26,0,.3-.15.17,0,.26,0,.29-.14.58-.62,1.54-.84,2.24-1.35a1.43,1.43,0,0,0,.89-.44,16,16,0,0,0,1.79-.75c.7-.1,1,.17,1.63.15.69.31,1.36.63,2.09.9a1,1,0,0,0,.45.29c0,.13.05.14.14.15a1.39,1.39,0,0,0,.6.6c.25-.06.28.12.3.29a1.27,1.27,0,0,0,.59.6c0,.13.06.14.15.15,0,.17,0,.26.15.3s0,.26.15.3c0,.21,0,.42.15.44V41.56a1.08,1.08,0,0,0-.3.45,3.46,3.46,0,0,1-.74.74c0,.13-.15.15-.15.3h-.6c.08.33-.28.22-.3.45-.45-.11-.43.26-.89.15-3,.56-5.41-.71-8.34-.75-.65,1.84-.13,4.84-.3,7.15-.12,0-.14.06-.14.15a2.94,2.94,0,0,0-.9.89c-.13,0-.14.06-.15.15s-.15.15-.15.3c-.23,0-.57-.07-.59.15v.15a.66.66,0,0,0-.6.3,13.8,13.8,0,0,0-1.93.74c-.46-.11-.44.26-.9.15-.66-.11-1.37.51-1.78.15-.1-10.43.19-21.24-.15-31.42H253c0-.21,0-.42-.15-.45V21c.25-.12-.27-.71-.74-.6-.18-.26-.78.31-1.05.45h-.3a.79.79,0,0,1-.44.15c-.06-.2-.26-.24-.3-.45s.26-.23.3-.45h.15a5.37,5.37,0,0,0,1.19-1.19h.15A18.79,18.79,0,0,0,254,16.7h.15a5.37,5.37,0,0,0,1.19-1.19C255.51,15.53,255.52,15.45,255.53,15.36Zm8.93,3.12a2.1,2.1,0,0,0-1.19.3v.15c-.17,0-.42,0-.44.15-.57.28-1.38.31-1.79.74a.44.44,0,0,0-.45.3c-.35,6.8,0,14.25-.14,21.3a12.39,12.39,0,0,0,4.17.44c.16,0,.22-.16.29-.3.35-7.19,0-15,.15-22.48A1.39,1.39,0,0,0,264.46,18.48Z"/><path class="cls-1" d="M203.11,15.36h1.2c.39.05.5.39.59.74a2.69,2.69,0,0,0,.45.6c.17,0,.23.16.29.29,0,.3.41.19.3.6a2.42,2.42,0,0,0,.45.59,1,1,0,0,0,.3.45,2.65,2.65,0,0,0,.44.6c.12,0,.15.15.3.15v.29a2.48,2.48,0,0,0,.45.6c0,.34-.43.17-.45.45s-.41.09-.44.3-.15.14-.15.29c-.18,0-.27,0-.3.15-.46-.11-.29.41-.74.3-.75.15-.45,2.75-.45,4.32,0,4.12-.12,9.39.15,13,0,.22,0,.43.14.45.36,1.83,1.84,2.53,2.39,4.17.2.09,0,.57.3.6,0,.21,0,.42.14.44v1.49c-.3.34-.3,1-.59,1.34a1,1,0,0,0-.3.45c-.13,0-.14.06-.15.15a2.91,2.91,0,0,0-.89.89v.15a1.39,1.39,0,0,0-.6.6h-.14a4,4,0,0,0-1.05,1c-.64.5-1.33,1-1.93,1.49-.28.52-1.24.34-1.35,1a.66.66,0,0,0-.59.3c-.46-.11-.44.26-.89.14a14.68,14.68,0,0,1-5.22-.14c-.59,0-.74-.35-1.33-.3v-.15c-.89-.06-1.36-.53-2.24-.6,0-.17-.27-.12-.45-.14v-.15c-1.09-.44-3.21-.95-4.46-.3v.15a2.47,2.47,0,0,0-1.49.59c-.27,0-.32.19-.6.15s-.1-.29-.3-.3v-.44c0-.42.45-.35.45-.75v-.3h.15a7.18,7.18,0,0,0,.6-.74,2,2,0,0,0,.74-.75c-.06-.25.12-.28.3-.29a3.05,3.05,0,0,0,.89-.9c.13,0,.14,0,.15-.14s.15-.15.15-.3a.41.41,0,0,0,.45-.3c.23,0,.56.07.59-.15a5.11,5.11,0,0,0,1.34-.6,10.42,10.42,0,0,1,3.87-.14,21.74,21.74,0,0,1,3.88,2.08c.09.2.31.28.59.3,0,.14.18.12.3.15s.27.12.44.15a2.23,2.23,0,0,0,1.79,0q.25,0,.3-.15h.3a4,4,0,0,0,1-1.05c.27-.51-.33-.65-.6-1C201,46.07,200.34,45,199.69,44c0-.18,0-.27-.15-.3-.17-1.08-.95-1.53-1-2.68.12-.31-.24-.82-.3-.45,0,.15-.18.12-.3.15A18.54,18.54,0,0,0,196.11,42c-1.33.65-2.2,1.77-3.72,2.23H190.6c-.53,0-.71-.27-1.18-.29a.67.67,0,0,0-.6-.3V43.5a1,1,0,0,0-.45-.3c0-.13-.06-.14-.15-.15A5.37,5.37,0,0,0,187,41.86c0-.13-.06-.14-.15-.15h-.15c.06-.36-.27-.32-.15-.74-.24-6.77-.24-14.53,0-21.3a.73.73,0,0,1,.3-.74,1,1,0,0,0,.3-.45c.13,0,.14-.06.15-.15a5.17,5.17,0,0,0,1.19-1.19c.13,0,.14-.06.15-.15s.15-.14.15-.29A6.32,6.32,0,0,0,190.9,16c.21,0,.43,0,.45-.15a10.1,10.1,0,0,1,3.57.15c1.12.57,2.25,1.13,3.28,1.79.14.3.57.32,1,.3a1.43,1.43,0,0,0,1-.45c.29,0,.19-.41.59-.3a2.13,2.13,0,0,0,.75-.74h.15a2.21,2.21,0,0,0,.74-.75c.13,0,.14-.06.15-.14A1.15,1.15,0,0,0,203.11,15.36Zm-8.34,3.57h-.59c-.17.1-.77.49-.45.6v.14c0,.09,0,.18-.14.15s-.18.13-.15.3c-.35,5.81-.05,12.26-.15,18.32.1.16.49.77.59.44h.45V39a10.87,10.87,0,0,0,4,0c-.1-6.05.2-12.51-.15-18.31v-.3a2.13,2.13,0,0,0-.74-.75h-.75c0-.11-.12-.17-.3-.14-.12-.23-.37-.32-.74-.3v-.15c0-.32-.53-.07-.75-.15C194.92,18.85,194.8,18.76,194.77,18.93Z"/><path class="cls-1" d="M214.43,15.36h1c0,.17.27.12.45.15,0,.14.18.11.3.15a7.09,7.09,0,0,0,.74.59,5.37,5.37,0,0,0,1.19,1.19v.3c.27.05.59.79.9.3.13-.07.26-.14.29-.3.13,0,.15-.06.15-.15a13.68,13.68,0,0,0,1.94-1.94c.13,0,.14-.06.15-.14.17,0,.26,0,.3-.15h.74a34.92,34.92,0,0,0,3,3h.3c0,.24,1,.24,1,0h.3a3.05,3.05,0,0,0,.89-.9c-.11-.4.3-.3.3-.59v-.3c.14,0,.11-.18.15-.3.24,0,.25-.14.45-.15v.15c.37,0,.76,0,.74.45-.81,1.37-1.55,2.82-2.38,4.17a6.06,6.06,0,0,0-.6.74A6.8,6.8,0,0,0,225.45,23c-.13,0-.14.06-.15.15v.15h-1.79V23.1c0-.13,0-.14-.14-.15a18.15,18.15,0,0,0-2.24-2.23h-.3c-.56.21-.28-.41-.74-.3-.16,0-.1.3-.3.3a.42.42,0,0,0-.45.3c-.15,5.62-.43,12.64.15,18,0,.22,0,.43.15.45v.3a2.94,2.94,0,0,0,.9.89h.29a1.57,1.57,0,0,0,1.49,0c.21,0,.42,0,.45-.15.17,0,.26,0,.3-.15h.3c.3,0,.29-.4.59-.44,0,.12.06.14.15.14v.45c.07.47-.4.39-.45.74a8.79,8.79,0,0,0-.74.6.83.83,0,0,0-.6.6.4.4,0,0,0-.44.29c-.38.18-1,.08-1,.6-.17,0-.26,0-.29.15-.6-.1-.6.39-1.2.3a9.86,9.86,0,0,1-3.72-.15h-.44a12.47,12.47,0,0,1-2.09-1.19c0-.13-.06-.14-.15-.15a2.91,2.91,0,0,0-.89-.89c-.2-7.2.39-15.19-.3-21.89a2,2,0,0,0-.74.74h-.15a4.32,4.32,0,0,0-1.05,1c-.3.05-.29.41-.59.45,0-.21,0-.42-.15-.45,0-.23.07-.57-.15-.59q0-.49.45-.45a26.08,26.08,0,0,0,2.68-2.68h.15a16.35,16.35,0,0,0,2.08-2.08C214.41,15.53,214.42,15.45,214.43,15.36Z"/><path class="cls-1" d="M237.36,15.8a13.69,13.69,0,0,1,5.81-.14,3.24,3.24,0,0,0,1.19.44,1,1,0,0,0,.45.3c0,.13.06.14.15.15a4,4,0,0,0,1,1c0,.13.06.14.15.15s.15.15.3.15a1.41,1.41,0,0,0,.44,1.19c-.1.45.26.44.15.89h.15c1,5.52.06,13,.6,18.91a1.1,1.1,0,0,0,.29.45v.3a3.05,3.05,0,0,0,.9.89h.3c.55.16.42-.37.89-.3a1.3,1.3,0,0,0,.59-.59h.15a2.07,2.07,0,0,0,.75-.75c.12,0,.14.15.3.15a.69.69,0,0,1,.14.45c-.75,1-1.77,1.7-2.53,2.68h-.15a5.37,5.37,0,0,0-1.19,1.19h-.15a1.37,1.37,0,0,0-.59.6c-.13,0-.14.06-.15.15v.14h-1a1.39,1.39,0,0,1-1.05-.44,1,1,0,0,0-.44-.3,1,1,0,0,0-.45-.3c0-.12-.06-.14-.15-.15a1.3,1.3,0,0,0-.59-.59h-.15a11.65,11.65,0,0,0-1.79-1.79.42.42,0,0,0-.45-.3,12.55,12.55,0,0,0-1.78,1.79,6.16,6.16,0,0,0-.75.6c-.25.58-1.2.48-1.48,1-.18,0-.27,0-.3.15-.42-.13-.39.21-.75.15a9,9,0,0,1-3.28,0c-.54.1-.57-.32-1-.3.1-.4-.3-.29-.44-.45a1.08,1.08,0,0,0-.45-.3c0-.12-.06-.14-.15-.15a3,3,0,0,0-.89-.89,7.18,7.18,0,0,0-.6-.74h-.14c0-.28-.1-.5-.3-.6v-.3c-.14-3.54-.46-8.46.15-11.76.17,0,.26,0,.29-.15.18,0,.27,0,.3-.15a10.65,10.65,0,0,0,2.53-1q.25,0,.3-.15a8.7,8.7,0,0,0,2.08-.89c.18,0,.27,0,.3-.15a6.56,6.56,0,0,0,1.79-.75,1.43,1.43,0,0,0,.89-.44,11.56,11.56,0,0,0,2.53-1,.42.42,0,0,0,.45-.3,4.26,4.26,0,0,0-.15-2.83h-.15v-.45c-.24-.35-.41-.78-.89-.89s-.5-.4-1-.3v-.15a3.83,3.83,0,0,0-2.68.3v.15c-.53,0-.67.43-1.19.44-.3,0-.19.41-.6.3A12.62,12.62,0,0,0,232,21.91v.15a1.3,1.3,0,0,0-.59.59c0,.24-.14.26-.15.45-.48.27-.41,1.09-1.19,1-.18,0-.27,0-.3-.15s-.06-.14-.15-.15c-.34-.49.6-1,.75-1.49a1,1,0,0,0,.29-.44q1.4-1.74,2.69-3.57h.14c0-.24.14-.26.15-.45a3.56,3.56,0,0,1,.75-.75c.12-.12.4-.08.44-.29C235.69,16.51,236.56,16.19,237.36,15.8Zm3,10c-.23,0-.51,0-.45.3a5.25,5.25,0,0,0-2.38,1.19c-.17,0-.42,0-.45.15-.42,0-.75,0-.89.3-.76.52-.45,3.34-.45,5.65,0,2.88-.19,5.4.3,6.56,0,.11,0,.29.15.29a.81.81,0,0,0,.75.75c0,.12.12.17.3.15s.76.17.74-.15c.53,0,.54-.45,1-.45a5.17,5.17,0,0,0,1.19-1.19c.09,0,.18,0,.15-.15s.18,0,.15-.15c.35-4.12,0-8.88.15-13.25C240.47,25.79,240.41,25.56,240.34,25.78Z"/></g></g></svg>