<?xml version="1.0" encoding="utf-8"?>
<!-- Generator: Adobe Illustrator 23.0.6, SVG Export Plug-In . SVG Version: 6.00 Build 0)  -->
<svg version="1.1" id="Layer_1" xmlns="http://www.w3.org/2000/svg" xmlns:xlink="http://www.w3.org/1999/xlink" x="0px" y="0px"
	 viewBox="0 0 254.2 30.2" style="enable-background:new 0 0 254.2 30.2;" xml:space="preserve">
<path id="slo" d="M147.6,0.5c0-0.3,0-0.3-1-0.3c-0.5,0-3.2,0.1-4.5,0.1s-3.9-0.1-4.4-0.1c-0.9,0-1,0-1,0.3s0,0.3,1,0.3
	c2.3,0,2.6,0.5,2.7,2.5c0,1.2,0.1,6,0.1,10.9c0,5.5-0.1,11.1-0.1,11.7c-0.1,1.7-0.5,2.5-2.8,2.5c-0.6,0-0.7,0.1-0.7,0.4
	s0.1,0.3,0.8,0.3c0.6,0,3.2-0.1,4.6-0.1s3.8,0.1,4.4,0.1s0.8,0,0.8-0.3s0-0.4-0.8-0.4c-2.3,0-2.7-0.9-2.7-2.5
	c0-0.3-0.1-6.1-0.1-11.7s0.1-10.9,0.1-11c0-1.9-0.1-2.5,2.7-2.5C147.6,0.9,147.6,0.9,147.6,0.5L147.6,0.5z M170.2,20.1
	c0.1-3.1-2.1-5.9-5.2-6.5c-0.9-0.1-0.9-0.3-0.3-0.6c2.3-1.3,3.6-3.8,3.6-6.4c0-2.9-2.8-6.5-5.8-6.5s-7.2,0.2-8.5,0.2
	s-3.8-0.1-4.4-0.1c-0.9,0-0.9,0-0.9,0.3s0,0.3,0.9,0.3c2.1,0,2.5,0.4,2.5,2.5v22.6c0,2.3-0.4,2.6-2.1,2.7c-0.8,0-0.9,0.1-0.9,0.3
	s0,0.4,0.9,0.4c0.5,0,3-0.1,4.3-0.1c2.7,0,4,0.2,5.8,0.2C166.8,29.4,170.2,25.5,170.2,20.1z M165.3,8.7c0,2.4-2.3,4.6-3.6,4.7
	s-4.5,0.2-5.6,0.2c-0.8,0-0.9-0.3-0.9-1.1c0-2.5,0-8.4,0-10.6c0-0.5,0.3-0.7,3.1-0.7C163.1,1.2,165.3,4.8,165.3,8.7L165.3,8.7z
	 M167.3,22.2c0,3.3-2.3,6.2-7.3,6.2c-4.3,0-4.7-0.2-4.7-1.3c0-0.5,0-7,0-11.9c0-0.5,0.1-0.7,1.1-0.7
	C163.7,14.5,167.4,17.4,167.3,22.2L167.3,22.2z M199.8,0.5c0-0.3-0.1-0.3-0.7-0.3s-2.7,0.1-4,0.1s-3.7-0.1-4.3-0.1s-0.7,0.2-0.7,0.4
	s0.2,0.3,0.8,0.3c2.3,0,3.6,0.4,3.6,3.1c0,2.2,0,11,0,13.5c-0.2,7.9-3.4,10.4-9,10.4c-6.6,0-8.6-4.4-8.6-8.2c0-2.5,0-14.1,0.1-16.3
	s0.4-2.6,2.7-2.5c1,0,1.1,0.1,1.1-0.4s0-0.4-0.8-0.4c-0.6,0-3.5,0.1-4.8,0.1s-4.2-0.1-4.7-0.1c-0.9,0-0.9,0-0.9,0.4s0,0.3,0.9,0.3
	c2.9,0,3.1,0.4,3.1,2.7c0,1.9,0,15.2,0,16.9c0,5.9,4.3,9.4,11.3,9.4c7.3,0,10.7-4.2,10.8-10.9c0.1-4.4,0.3-14.1,0.4-15.9
	s0.6-2.3,3-2.2C199.7,0.9,199.8,0.8,199.8,0.5L199.8,0.5z M231.4,0.6c0-0.3,0-0.4-0.9-0.4c-0.6,0-2.5,0.1-3.8,0.1s-3.6-0.1-4.2-0.1
	c-0.7,0-0.8,0-0.8,0.3s0.1,0.3,1,0.3c2.4,0,3.3,0.4,3.3,3v18.5c0,0.8-0.2,0.8-0.6,0.4c-1.8-2.1-18.1-20.6-19.4-22.1
	c-0.2-0.3-0.2-0.3-0.6-0.3c-0.6,0-1.3,0-2.3,0c-0.8,0-2.1-0.1-2.6-0.1s-0.6,0-0.6,0.4s0.3,0.3,0.8,0.3c1.1,0,3.6,2.9,3.6,3.3
	c0,0.8-0.1,20.9-0.1,21.2c0,2.9-0.8,3.2-2.9,3.2c-0.9,0-0.9,0-0.9,0.3s0,0.4,0.9,0.4c0.6,0,2.4-0.1,3.6-0.1s4,0.1,4.5,0.1
	s0.7,0,0.7-0.3s0-0.4-1-0.4c-2.7,0-3.4-0.5-3.4-3.1c0-1.3-0.2-17.2-0.2-19.5c0-0.8,0.1-0.6,1.1,0.4c4.8,5.3,12.7,14.2,16.7,19.4
	c1.1,1.2,2.1,2.5,2.9,3.9c0.3,0.6,0.4,0.6,0.7,0.6c0.4,0,0.4-0.1,0.4-1.7c0-6.3,0.4-24.4,0.4-25c0-2.3,0.2-2.7,2.9-2.7
	C231.4,0.8,231.4,0.8,231.4,0.6L231.4,0.6z M254.1,24.2c0.1-0.3,0-0.4-0.2-0.4s-0.5-0.1-0.6,0.4c-0.3,1-0.7,1.9-1.3,2.8
	c-1.3,1.2-3.7,1.2-9.2,1.2c-4.2,0-4.6-0.4-4.6-1.8c0-0.5,0-6.2,0-11.1c0-0.7,0-0.7,1.1-0.7c1.6,0,5,0,6.1,0c2.7,0.1,3.2,0.7,3.2,2.6
	v1.5c0,0.6,0.1,0.7,0.4,0.7s0.4,0,0.4-1c0-0.3,0.1-2.5,0.1-4.3c0-2.2-0.1-4.4-0.1-4.9c0-0.2,0-0.3-0.3-0.3s-0.4,0-0.4,0.5v1.6
	c0,1.6-0.4,1.9-2.9,2.2c-2.2,0.2-4.4,0.3-6.6,0.2c-0.9,0-0.9,0-0.9-0.8c0-2.5,0.2-8.1,0.2-10.3c0-1,0.2-1.1,4.4-1.1
	c4.7,0,6.6,0.6,7.9,1.2c1.1,0.5,1.4,1.8,1.5,3.3c0.1,1,0.2,1,0.5,1s0.4,0,0.3-0.7c-0.1-1.4-0.3-4.2-0.4-5s-0.1-0.8-0.7-0.8
	c-1.3,0-5.5-0.2-9.5-0.2c-4.8,0-9.9,0.2-10.1,0.2c-1.4,0-1.4,0-1.4,0.3s0.1,0.3,1.2,0.3c2.1,0,2.8,0.6,2.8,3.2
	c0,0.2,0.1,5.6,0.1,9.8c0,4.7-0.1,10.9-0.1,11.3c0,2.4-0.5,3.2-2.9,3.2c-0.9,0-1,0-1,0.4s0.1,0.3,1,0.3c0.5,0,5.9-0.1,9.7-0.1
	c5.1,0,9.5,0.3,9.8,0.3c0.9,0,1-0.1,1.3-0.9c0.2-0.6,1.2-3.8,1.4-4.4L254.1,24.2z M110.6,0.9c0-0.7,0-0.8-0.6-0.8s-6.5,0.2-10.7,0.2
	c-6.2,0-11.9-0.2-12-0.2c-0.5,0-0.6,0-0.6,0.8c-0.2,2-0.3,3.2-0.5,5.2c-0.1,0.7,0,0.7,0.2,0.7s0.2,0,0.4-1c0.6-3,0.8-3.8,3.9-4.1
	c1.7-0.1,3.5-0.2,5.7-0.2c0.2,0,0.2,0.1,0.2,0.4c0,0.9,0.1,7.6,0.1,13.2c0,5-0.1,9.7-0.1,10c0,3.1-0.5,3.6-3,3.6
	c-0.9,0-0.8,0-0.8,0.3s-0.1,0.3,0.8,0.3c0.6,0,3.4-0.1,4.7-0.1s4.4,0.1,5,0.1c0.8,0,0.8,0,0.8-0.3s0-0.4-0.8-0.4
	c-3.2,0-3.2-0.6-3.2-3.7c0-0.5,0-5.8,0-10.5c0-4.9,0-11.3,0-12.6c0-0.2,0-0.3,0.4-0.3c2.1,0,4.2,0.1,6.3,0.3
	c2.5,0.3,2.9,1.8,2.9,3.7c-0.1,1.2,0,1.2,0.2,1.2s0.3,0,0.4-1C110.5,3.8,110.5,2.9,110.6,0.9L110.6,0.9z M137.5,27.9
	c-0.1-0.3-0.2-0.3-0.6-0.1c-0.6,0.3-1.3,0.4-2,0.4c-1.7,0-3.6-3-5.5-6.6c-1.2-2.1-2.5-4.2-3.9-6.2c-0.2-0.2-0.2-0.4,0.4-0.6
	c3.1-1.1,5.1-3.9,5.1-7.2c0-4.8-3.1-7.5-6.2-7.5c-0.6,0-3.6,0.1-6.5,0.1s-5.6-0.1-6.8-0.1c-0.9,0-0.9,0-0.9,0.3s0.1,0.3,0.9,0.3
	c2.1,0,2.5,0.5,2.5,3.4c0,0.8,0.1,5.6,0.1,9.8c0,4.7-0.1,9.9-0.1,10.8c0,3.1-0.1,3.7-2.3,3.7c-0.6,0-0.7,0-0.7,0.4
	c0,0.2,0.1,0.3,0.7,0.3s2.1-0.1,4.2-0.1c1.9,0,3.2,0.1,4.3,0.1c0.6,0,0.7-0.1,0.7-0.4s0-0.3-0.6-0.3c-2,0-2.8-0.1-2.8-2.7v-9.6
	c0-0.6,0.1-0.7,0.7-0.6c1,0.1,2,0.2,3,0.2c0.6,0,1.2,0.3,1.6,0.9c0.5,0.8,2.1,3.5,2.8,4.9s2.9,5.2,3.6,6.2c1.1,1.5,2.9,2.2,4.8,2.1
	c1.3,0,2.5-0.5,3.4-1.4C137.7,28.2,137.7,28.1,137.5,27.9L137.5,27.9z M128.5,8.9c0,4.1-3.3,5.8-6.9,6c-1.1,0-2.2,0-3.3-0.2
	c-0.8-0.1-0.8-0.3-0.8-1.2c0-2.4-0.1-8.2,0-10.5c0-1.8,0.1-1.8,2.1-1.8C125,1.2,128.6,4.6,128.5,8.9L128.5,8.9z M24.1,1.2
	c0-0.7,0-0.8-0.5-0.7S17.1,0.7,13,0.7C6.8,0.8,1.2,0.5,1.1,0.5c-0.5,0-0.5,0-0.6,0.7C0.3,3.1,0.2,4.4,0,6.3C0,7,0,7,0.3,7
	s0.2,0,0.4-1c0.6-3,0.7-3.8,3.9-4C6.3,1.9,8,1.8,10.2,1.8c0.2,0,0.2,0.1,0.2,0.4c0,0.9,0.1,7.6,0.1,13c0,5-0.1,9.6-0.1,9.8
	c0,3.1-0.5,3.6-2.9,3.6c-0.9,0-0.8,0-0.8,0.3s-0.1,0.3,0.8,0.3c0.5,0,3.4-0.1,4.7-0.1s4.3,0.1,4.9,0.1c0.8,0,0.8,0,0.8-0.3
	s0-0.4-0.8-0.4C14,28.6,14,28,14,24.9c0-0.5,0-5.7,0-10.4c0-4.9,0-11.2,0-12.4c0-0.2,0-0.3,0.3-0.3c2.1,0,4.1,0.1,6.2,0.3
	c2.3,0.3,2.8,1.7,2.8,3.7c0,1.2,0.1,1.3,0.3,1.3s0.3,0,0.3-1C24,4.2,24,3.2,24.1,1.2L24.1,1.2z M53.8,0.8c0-0.3,0-0.3-0.9-0.3
	c-0.5,0-2.9,0.1-4.2,0.1s-3.9,0-4.5,0s-0.7,0-0.7,0.3s0,0.3,0.7,0.3c2.6,0,2.8,0.5,2.8,2.8V11c0,2,0,2.1-1.9,2.1
	c-4.3,0.1-9.6,0.1-13.9,0c-0.2,0-0.2,0-0.2-0.4V3.8c0-2.3,0.2-2.7,2.7-2.7c0.7,0,0.7,0,0.7-0.3s0-0.3-0.7-0.3s-3.2,0.1-4.5,0.1
	s-3.7,0-4.2,0c-0.9,0-0.9,0-0.9,0.3s0,0.3,0.9,0.3c2.2,0,2.5,0.3,2.5,2.7c0,0.1,0.1,5.5,0.1,10.9s-0.1,10.8-0.1,11.1
	c0,2.5-0.3,2.6-2,2.6c-0.9,0-0.9,0-0.9,0.4s0,0.3,0.9,0.3c0.6,0,3-0.1,4.2-0.1c1.2,0,3.7,0.1,4.2,0.1s0.6,0,0.6-0.3s0-0.4-0.9-0.4
	c-2.6,0-2.7-0.1-2.7-2.7V15.7c0-1.1,0.1-1.2,1.5-1.2h14.2c0.2,0,0.3,0,0.3,0.3v11.4c0,2-0.3,2.3-2.7,2.3c-0.6,0-0.5,0.1-0.5,0.4
	s0,0.3,0.6,0.3s2.5-0.1,3.8-0.1s3.6,0.1,4.2,0.1c0.8,0,0.9,0,0.9-0.3s0-0.4-0.9-0.4c-1.6,0-2-0.3-2-2.4c0-0.1-0.1-6.1-0.1-11.9
	c0-5.2,0.1-10.2,0.1-10.3c0-2.3,0.3-2.7,2.5-2.8C53.8,1.1,53.9,1.1,53.8,0.8L53.8,0.8z M77.4,24.2c0.1-0.3,0-0.4-0.2-0.4
	s-0.5-0.1-0.6,0.4c-0.3,1-0.7,1.9-1.3,2.7c-1.2,1.2-3.7,1.2-9.1,1.2c-4.2,0-4.6-0.4-4.6-1.7c0-0.5,0-6.1,0-10.9c0-0.7,0-0.7,1.1-0.7
	c1.6,0,4.9,0,6,0c2.7,0.1,3.1,0.7,3.1,2.5v1.5c0,0.6,0.1,0.7,0.4,0.7s0.4,0,0.4-1c0-0.3,0.1-2.5,0.1-4.2c0-2.2-0.1-4.4-0.1-4.8
	c0-0.2,0-0.3-0.3-0.3s-0.4,0-0.4,0.5v1.6c0,1.6-0.4,1.9-2.9,2.2c-1.4,0.1-3.5,0.2-6.5,0.2c-0.9,0-0.9,0-0.9-0.8
	c0-2.4,0.2-8,0.2-10.2c0-0.9,0.2-1.1,4.3-1.1c4.6,0,6.5,0.6,7.8,1.2C75,3.2,75.3,4.4,75.4,6c0.1,1,0.2,1,0.5,1s0.3,0,0.3-0.7
	c-0.1-1.4-0.3-4.1-0.3-4.9s-0.1-0.8-0.7-0.8c-1.3,0-5.4-0.1-9.4-0.1c-4.8,0-9.8,0.2-10,0.2c-1.3,0-1.4,0-1.4,0.3s0.1,0.3,1.2,0.3
	c2.1,0,2.7,0.6,2.7,3.2c0,0.2,0.1,5.5,0.1,9.7c0,4.7-0.1,10.8-0.1,11.1c0,2.4-0.5,3.2-2.8,3.2c-0.9,0-0.9,0-0.9,0.4s0.1,0.3,0.9,0.3
	c0.5,0,5.9-0.1,9.6-0.1c5.1,0,9.4,0.3,9.7,0.3c0.9,0,1-0.1,1.3-0.9C76.3,28,77.3,24.7,77.4,24.2L77.4,24.2z"/>
</svg>
