<svg xmlns="http://www.w3.org/2000/svg" viewBox="0 0 512 512">
  <title>belleville-news-democrat</title>
  <g id="Layer_2" data-name="Layer 2">
    <g id="Art">
      <g>
        <path d="M109.7,407.5c5.5-.4,9.4-2.2,11.8-5.3,4-5.1,6.1-14.9,6.1-29.4V133.6c0-14.5-1.9-24.2-5.7-29.2-2.2-3.1-6.3-5-12.2-5.8V86h62.6c12.1,0,22.1,3.4,30.1,10.2q22.5,19,22.5,69.5c0,20.4-3,36.7-9.2,48.7s-12.6,19.5-19.7,22.7v4.6c7.5,3.6,14,9.5,19.5,17.9,10.8,16.4,16.3,39.2,16.3,68.5q0,41.1-15.6,66.6t-41.3,25.4H109.7Zm75.4-186.6c4.3-9.9,6.4-27.6,6.4-53.1,0-18.8-1.4-34.6-4.2-47.5S179.1,101,171.1,101c-4.2,0-7.1,1.8-8.8,5.3s-2.4,9.6-2.4,18.6v111q18.8,0,25.2-15M161.5,393.5c1.6,7.1,4.8,10.7,9.4,10.7,9.6,0,16.3-6.4,20.1-19.1s5.8-30.8,5.9-54.3q0-52.7-12.8-70c-5.1-7.1-13.2-10.4-24.2-9.9V374.5c0,8.7.6,15,1.6,19" fill="#fff" fill-rule="evenodd"/>
        <path d="M253.9,407.5c5.4-.6,9.2-2.5,11.5-5.5,3.7-5.2,5.6-14.9,5.6-29.2V133.6q0-21-5.1-28.5c-2-2.9-6-5.1-12-6.5V86h68.5V98.6c-5.9.8-10.1,2.7-12.4,5.8-3.8,5.1-5.7,14.9-5.7,29.2V235.9h48.2V133.6c0-14.3-1.8-24-5.4-29-2.2-3-6.4-5.1-12.6-6V86h69V98.6c-6,1.1-10,3.2-12.2,6.2q-5.4,7.5-5.4,28.8V372.8q0,21.8,6,29.4c2.3,3.1,6.1,4.9,11.6,5.3v12.6h-69V407.5c5.9-.4,10-2.4,12.4-5.8,3.8-5.1,5.6-14.8,5.6-28.9v-114H304.3v114c0,14.6,2,24.5,6.1,29.7,2.4,2.9,6.4,4.6,12,5v12.6H253.9Z" fill="#fff"/>
      </g>
      <rect width="512" height="512" fill="#0078b1"/>
      <g>
        <path d="M120.5,409c-5.6,0-23.2.4-31.4.4-1.3,0-1.7-1.3-1.7-4.3s.8-4.3,1.7-4.3,8.2-1.7,8.2-8.2V119.4a8.2,8.2,0,0,0-8.2-8.2c-1.3,0-1.7-1.3-1.7-4.3s.4-4.3,2.1-4.3c8.2,0,25.8.5,34.8.5,37,0,62.8,23.2,62.8,64.8v8.6c0,34-15.1,53.7-31.8,61,26.2,9.9,33.9,44.3,33.9,66.2v29.2c0,48.5-19.8,76.1-68.7,76.1m37.3-239.8c0-27.5-8.1-41.7-31.3-41.7v99.3c18,0,31.3-10.8,31.3-49.4Zm.9,134.5c0-33.1-11.2-52.4-32.2-52.4V384c17.6,0,32.2-12.9,32.2-56.7Z" fill="#fff"/>
        <path d="M312.5,111.7c-2.2,0-8.2,1.2-8.2,7.7v290s-8.6-.4-12.8-.4-13,.4-13,.4L235.2,193.3V392.6c0,6.5,6,8.2,8.1,8.2s1.7,2.1,1.7,4.3,0,4.3-1.7,4.3c-8.1,0-7.7-.4-18.4-.4-9.1,0-12.5.4-20.7.4-1.7,0-1.7-2.2-1.7-4.3s0-4.3,1.7-4.3,8.2-1.7,8.2-8.2V119.4c0-6.5-6-8.2-8.2-8.2s-1.7-1.3-1.7-4.3,0-4.3,1.7-4.3c8.2,0,11.2.5,20.2.5,10.8,0,12.1,0,21.1-.5l36,192.5V119.4c0-6.5-6-7.7-8.1-7.7s-1.7-.9-1.7-4.3,0-4.8,1.7-4.8c8.1,0,7.7.5,18.5.5,9,0,12.4-.5,20.6-.5,1.7,0,1.7,2.6,1.7,4.8s0,4.3-1.7,4.3" fill="#fff"/>
        <path d="M355.5,409c-9.1,0-22.8.4-31,.4-1.7,0-1.7-2.2-1.7-4.3s0-4.3,1.7-4.3,8.2-1.7,8.2-8.2V119.4c0-6.5-6-8.2-8.2-8.2s-1.7-2.1-1.7-4.3,0-4.3,1.7-4.3c8.2,0,25.8.5,34.8.5,43.8,0,65.3,21,65.3,93.6V311.4c-.4,89.4-28.8,97.6-69.1,97.6m37.3-215.7c0-54.6-12.9-65.8-30.5-65.8V384c18.1,0,30.5-11.6,30.5-64.4Z" fill="#fff"/>
      </g>
    </g>
  </g>
</svg>
