<?xml version="1.0" encoding="utf-8"?>
<!-- Generator: Adobe Illustrator 23.0.6, SVG Export Plug-In . SVG Version: 6.00 Build 0)  -->
<svg version="1.1" id="Art" xmlns="http://www.w3.org/2000/svg" xmlns:xlink="http://www.w3.org/1999/xlink" x="0px" y="0px"
	 viewBox="0 0 512 512" style="enable-background:new 0 0 512 512;" xml:space="preserve">
<style type="text/css">
	.st0{fill:#DA291C;}
	.st1{fill-rule:evenodd;clip-rule:evenodd;}
	.st2{fill:#FFFFFF;}
</style>
<g>
	<rect class="st0" width="512" height="512"/>
	<g>
		<g>
			<path class="st1" d="M354.1,76.8c11.7-4.3,32.2-10,45.5-4.8c10.9,4.2,12,25.6,15.8,37.2c5.2,15.9,14.9,21.9,23.4,29.6
				c0.5,16.8-14.6,23.1-29.6,16.5c2.9,19.3,13.6,30.7,20,47.6c6.3,16.8,10.9,36.6,9.6,62.7c8.3,7.8,20.5,11.7,27.5,20.7
				c-10.2,3.6-20.7,6.9-32.4,9c-11.9,15.8,5.9,26.6,9,41.4c-10.5,1.9-19.3-2.4-26.2-0.7c-8.6,2.2-8.6,14.9-15.8,18.6
				c1.6,10.3,3.1,24.4,2.8,34.5c-10.4-2-18.3-6.5-27.5-9.7c-9.5,4.5-16.7,11.4-26.2,15.9c-0.5,11.9-2.1,22.7-3.4,33.8
				c-12.9-4.3-20.9-13.5-32.4-19.3c-8.9,2.4-17.9,4.6-28.2,5.5c-8.3,11.7-14.3,25.7-23.4,36.5c-11.2-9.3-18-22.9-25.5-35.9
				c-12,0.9-20.5-7.1-29.6-6.2c-5.3,0.5-11.1,7.1-15.8,10.3c-5.4,3.7-10.4,7.2-16.5,9c-3.9-10.9,0.1-22.7-3.4-31.7
				c-3.3-8.4-20.5-11-25.5-17.9c-10.5,2.4-17.1,8.6-28.9,9.7c-0.8-12.1,6.3-22.2,4.1-32.4c-1.8-8.3-12.6-11.9-14.5-20
				c-9.4-0.4-20.6,0.9-28.9-0.7c3.5-9.8,11-15.6,15.2-24.8c-1.1-4.6-2.9-8.6-4.1-13.1c-10.6-4.5-23.3-7.1-33.7-11.7
				c7.3-8.5,18.7-13,27.5-20c3.1-34.8,16.7-59.1,37.2-76.5c-8.5-6-15-23.1-4.8-32.4C99.9,167.7,80.9,158,83,138.2
				c17.5-3.9,19.2-18.7,23.4-37.2c2.6-11.5,9.1-26.8,17.2-29.6c12.6-4.5,32.3,1.4,42.7,5.5c17.1-10.6,40.7-14.7,66.8-13.1
				c9.3,0.6,18.2,3.9,26.9,4.1c9.7,0.2,20.4-3.5,31-4.1C317.6,62,338.4,65.7,354.1,76.8z"/>
		</g>
	</g>
	<g>
		<path class="st2" d="M142.7,160.5h58c28.7,0,52.1,13.1,52.1,43.1c0,16.1-8.7,26.6-22.4,32.5c17.5,5.7,28.9,17.5,28.9,36.5
			c0,29.6-26,46.1-54.6,46.1h-62L142.7,160.5L142.7,160.5z M183.3,187.5v36.8h13.1c11.4,0,18.6-6.3,18.6-18.8c0-12.3-7.2-18-18.6-18
			H183.3z M183.3,250.9v40.8h16.2c11.6,0,20.3-8,20.3-21.1c0-12.9-8.7-19.6-20.3-19.6L183.3,250.9L183.3,250.9z"/>
		<path class="st2" d="M276.1,160.5h58c28.7,0,52.1,13.1,52.1,43.1c0,16.1-8.7,26.6-22.4,32.5c17.5,5.7,28.9,17.5,28.9,36.5
			c0,29.6-26,46.1-54.6,46.1h-62V160.5z M316.6,187.5v36.8h13.1c11.4,0,18.6-6.3,18.6-18.8c0-12.3-7.2-18-18.6-18H316.6z
			 M316.6,250.9v40.8h16.2c11.6,0,20.3-8,20.3-21.1c0-12.9-8.7-19.6-20.3-19.6L316.6,250.9L316.6,250.9z"/>
	</g>
</g>
</svg>
