<svg xmlns="http://www.w3.org/2000/svg" viewBox="0 0 512 512">
  <title>the-telegraph</title>
  <g id="Layer_2" data-name="Layer 2">
    <g id="Art">
      <rect width="512" height="512" fill="#203466"/>
      <path d="M372.4,360.5c-30.3,30.1-75.4,44.2-117.5,44.2-64.5,0-136.3-32.4-136.3-106.2,0-64.8,67-105.5,120.5-126l1.6,2.1c-26.3,18.7-60.2,61.4-63.6,94.7a136,136,0,0,0-.9,15.6c0,64,41.1,91.5,102.5,91.5,16.3,0,22.6-1.1,37.3-2.3V174.8c-6.2-4.9-14.2-8.2-21.5-11.5V320.5c.1,3.7-3,9.8-5,12.6-13.4,19.4-42.9,23.2-64.5,23.2l-.4-2.8c3.5-1.1,22.5-8.7,22.5-14.4v-120c0-6.1-6.3-12.1-12.2-12.4v-3.5l59.3-40.1c-26.4-11.9-50.3-16.3-79.3-16.3-33.1,0-74.3,11.2-103.8,26.2l-1.8-2.4c32.1-37.4,68.8-63.3,119.7-63.3s96.7,34.5,146,34.5c8.9,0,18.3-1.9,25.8-6.8l1.9,3c-14.8,15.9-32,40.9-56,40.9-6,0-11.4-2.8-15.4-2.8s-4.3,3.2-4.3,5.5V372.3c13.4-3.2,32.3-9,43.2-15.7Z" fill="#fff"/>
    </g>
  </g>
</svg>
