<svg xmlns="http://www.w3.org/2000/svg" xmlns:xlink="http://www.w3.org/1999/xlink" viewBox="0 0 299.07 45.76"><defs><style>.cls-1{fill:url(#linear-gradient);}.cls-2{fill:url(#linear-gradient-2);}.cls-3{fill:url(#linear-gradient-3);}.cls-4{fill:url(#linear-gradient-4);}.cls-5{fill:url(#linear-gradient-5);}.cls-6{fill:url(#linear-gradient-6);}.cls-7{fill:url(#linear-gradient-7);}.cls-8{fill:url(#linear-gradient-8);}.cls-9{fill:url(#linear-gradient-9);}.cls-10{fill:url(#linear-gradient-10);}.cls-11{fill:url(#linear-gradient-11);}.cls-12{fill:url(#linear-gradient-12);}.cls-13{fill:url(#linear-gradient-13);}.cls-14{fill:url(#linear-gradient-14);}.cls-15{fill:url(#linear-gradient-15);}.cls-16{fill:url(#linear-gradient-16);}.cls-17{fill:url(#linear-gradient-17);}.cls-18{fill:url(#linear-gradient-18);}.cls-19{fill:url(#linear-gradient-19);}.cls-20{fill:url(#linear-gradient-20);}.cls-21{fill:url(#linear-gradient-21);}.cls-22{fill:url(#linear-gradient-22);}.cls-23{fill:url(#linear-gradient-23);}.cls-24{fill:url(#linear-gradient-24);}.cls-25{fill:url(#linear-gradient-25);}.cls-26{fill:url(#linear-gradient-26);}.cls-27{fill:url(#linear-gradient-27);}.cls-28{fill:url(#linear-gradient-28);}.cls-29{fill:url(#linear-gradient-29);}.cls-30{fill:url(#linear-gradient-30);}.cls-31{fill:url(#linear-gradient-31);}.cls-32{fill:url(#linear-gradient-32);}.cls-33{fill:url(#linear-gradient-33);}.cls-34{fill:url(#linear-gradient-34);}.cls-35{fill:none;}.cls-36{clip-rule:evenodd;}.cls-37{clip-path:url(#clip-path);}.cls-110,.cls-38{fill-rule:evenodd;}.cls-39{clip-path:url(#clip-path-2);}.cls-40{mask:url(#mask);}.cls-41{clip-path:url(#clip-path-3);}.cls-42{mask:url(#mask-2);}.cls-43{clip-path:url(#clip-path-4);}.cls-44{mask:url(#mask-3);}.cls-45{clip-path:url(#clip-path-5);}.cls-46{mask:url(#mask-4);}.cls-47{clip-path:url(#clip-path-6);}.cls-48{mask:url(#mask-5);}.cls-49{clip-path:url(#clip-path-7);}.cls-50{mask:url(#mask-6);}.cls-51{clip-path:url(#clip-path-8);}.cls-52{mask:url(#mask-7);}.cls-53{clip-path:url(#clip-path-9);}.cls-54{mask:url(#mask-8);}.cls-55{clip-path:url(#clip-path-10);}.cls-56{mask:url(#mask-9);}.cls-57{clip-path:url(#clip-path-11);}.cls-58{mask:url(#mask-10);}.cls-59{clip-path:url(#clip-path-12);}.cls-60{mask:url(#mask-11);}.cls-61{clip-path:url(#clip-path-13);}.cls-62{mask:url(#mask-12);}.cls-63{clip-path:url(#clip-path-14);}.cls-64{mask:url(#mask-13);}.cls-65{clip-path:url(#clip-path-15);}.cls-66{mask:url(#mask-14);}.cls-67{clip-path:url(#clip-path-16);}.cls-68{mask:url(#mask-15);}.cls-69{clip-path:url(#clip-path-17);}.cls-70{mask:url(#mask-16);}.cls-71{clip-path:url(#clip-path-18);}.cls-72{mask:url(#mask-17);}.cls-73{clip-path:url(#clip-path-19);}.cls-74{mask:url(#mask-18);}.cls-75{clip-path:url(#clip-path-20);}.cls-76{mask:url(#mask-19);}.cls-77{clip-path:url(#clip-path-21);}.cls-78{mask:url(#mask-20);}.cls-79{clip-path:url(#clip-path-22);}.cls-80{mask:url(#mask-21);}.cls-81{clip-path:url(#clip-path-23);}.cls-82{mask:url(#mask-22);}.cls-83{clip-path:url(#clip-path-24);}.cls-84{mask:url(#mask-23);}.cls-85{clip-path:url(#clip-path-25);}.cls-86{mask:url(#mask-24);}.cls-87{clip-path:url(#clip-path-26);}.cls-88{mask:url(#mask-25);}.cls-89{clip-path:url(#clip-path-27);}.cls-90{mask:url(#mask-26);}.cls-91{clip-path:url(#clip-path-28);}.cls-92{mask:url(#mask-27);}.cls-93{clip-path:url(#clip-path-29);}.cls-94{mask:url(#mask-28);}.cls-95{clip-path:url(#clip-path-30);}.cls-96{mask:url(#mask-29);}.cls-97{clip-path:url(#clip-path-31);}.cls-98{mask:url(#mask-30);}.cls-99{clip-path:url(#clip-path-32);}.cls-100{mask:url(#mask-31);}.cls-101{clip-path:url(#clip-path-33);}.cls-102{mask:url(#mask-32);}.cls-103{fill:url(#linear-gradient-35);}.cls-104{clip-path:url(#clip-path-34);}.cls-105{mask:url(#mask-33);}.cls-106{fill:url(#linear-gradient-36);}.cls-107{clip-path:url(#clip-path-35);}.cls-108{mask:url(#mask-34);}.cls-109{fill:url(#linear-gradient-37);}.cls-110{fill:#231f20;}</style><linearGradient id="linear-gradient" x1="-449.82" y1="137.26" x2="-449.39" y2="137.26" gradientTransform="matrix(0, -44.18, -44.18, 0, 6115.62, -19826.7)" gradientUnits="userSpaceOnUse"><stop offset="0"/><stop offset="1" stop-color="#fff"/></linearGradient><linearGradient id="linear-gradient-2" x1="-449.83" y1="137.2" x2="-449.4" y2="137.2" gradientTransform="matrix(0, -44.19, -44.19, 0, 6111.59, -19831.77)" xlink:href="#linear-gradient"/><linearGradient id="linear-gradient-3" x1="-449.8" y1="136.94" x2="-449.38" y2="136.94" gradientTransform="matrix(0, -44.18, -44.18, 0, 6089.32, -19825.21)" xlink:href="#linear-gradient"/><linearGradient id="linear-gradient-4" x1="-449.81" y1="137.14" x2="-449.39" y2="137.14" gradientTransform="matrix(0, -44.17, -44.17, 0, 6104.03, -19820.18)" xlink:href="#linear-gradient"/><linearGradient id="linear-gradient-5" x1="-449.81" y1="136.91" x2="-449.39" y2="136.91" gradientTransform="matrix(0, -44.18, -44.18, 0, 6087.85, -19827.56)" xlink:href="#linear-gradient"/><linearGradient id="linear-gradient-6" x1="-449.82" y1="136.85" x2="-449.39" y2="136.85" gradientTransform="matrix(0, -44.18, -44.18, 0, 6083.44, -19826.7)" xlink:href="#linear-gradient"/><linearGradient id="linear-gradient-7" x1="-449.8" y1="136.9" x2="-449.38" y2="136.9" gradientTransform="matrix(0, -44.19, -44.19, 0, 6087.5, -19829.07)" xlink:href="#linear-gradient"/><linearGradient id="linear-gradient-8" x1="-449.82" y1="137" x2="-449.39" y2="137" gradientTransform="matrix(0, -44.18, -44.18, 0, 6094.74, -19826.27)" xlink:href="#linear-gradient"/><linearGradient id="linear-gradient-9" x1="-449.82" y1="137.23" x2="-449.39" y2="137.23" gradientTransform="matrix(0, -44.18, -44.18, 0, 6112.33, -19826.35)" xlink:href="#linear-gradient"/><linearGradient id="linear-gradient-10" x1="-449.82" y1="137.26" x2="-449.39" y2="137.26" gradientTransform="matrix(0, -44.18, -44.18, 0, 6115.04, -19826.5)" xlink:href="#linear-gradient"/><linearGradient id="linear-gradient-11" x1="-449.81" y1="137.34" x2="-449.38" y2="137.34" gradientTransform="matrix(0, -44.17, -44.17, 0, 6119.6, -19820.29)" xlink:href="#linear-gradient"/><linearGradient id="linear-gradient-12" x1="-449.82" y1="136.83" x2="-449.39" y2="136.83" gradientTransform="matrix(0, -44.18, -44.18, 0, 6081.82, -19826.51)" xlink:href="#linear-gradient"/><linearGradient id="linear-gradient-13" x1="-449.81" y1="137.25" x2="-449.38" y2="137.25" gradientTransform="matrix(0, -44.19, -44.19, 0, 6114.5, -19827.81)" xlink:href="#linear-gradient"/><linearGradient id="linear-gradient-14" x1="-449.81" y1="137.34" x2="-449.38" y2="137.34" gradientTransform="matrix(0, -44.17, -44.17, 0, 6119.32, -19821.84)" xlink:href="#linear-gradient"/><linearGradient id="linear-gradient-15" x1="-449.81" y1="136.95" x2="-449.38" y2="136.95" gradientTransform="matrix(0, -44.19, -44.19, 0, 6091.27, -19828.62)" xlink:href="#linear-gradient"/><linearGradient id="linear-gradient-16" x1="-449.8" y1="136.86" x2="-449.38" y2="136.86" gradientTransform="matrix(0, -44.19, -44.19, 0, 6085, -19831.32)" xlink:href="#linear-gradient"/><linearGradient id="linear-gradient-17" x1="-449.81" y1="136.84" x2="-449.39" y2="136.84" gradientTransform="matrix(0, -44.2, -44.2, 0, 6084.25, -19833.03)" xlink:href="#linear-gradient"/><linearGradient id="linear-gradient-18" x1="-449.8" y1="136.93" x2="-449.38" y2="136.93" gradientTransform="matrix(0, -44.18, -44.18, 0, 6088.77, -19826.17)" xlink:href="#linear-gradient"/><linearGradient id="linear-gradient-19" x1="-449.82" y1="137.13" x2="-449.39" y2="137.13" gradientTransform="matrix(0, -44.18, -44.18, 0, 6104.9, -19826.81)" xlink:href="#linear-gradient"/><linearGradient id="linear-gradient-20" x1="-449.81" y1="137.16" x2="-449.38" y2="137.16" gradientTransform="matrix(0, -44.18, -44.18, 0, 6106.72, -19825.98)" xlink:href="#linear-gradient"/><linearGradient id="linear-gradient-21" x1="-449.81" y1="137.22" x2="-449.38" y2="137.22" gradientTransform="matrix(0, -44.18, -44.18, 0, 6110.97, -19825.7)" xlink:href="#linear-gradient"/><linearGradient id="linear-gradient-22" x1="-449.81" y1="137.11" x2="-449.38" y2="137.11" gradientTransform="matrix(0, -44.18, -44.18, 0, 6103.39, -19825.68)" xlink:href="#linear-gradient"/><linearGradient id="linear-gradient-23" x1="-449.81" y1="137.12" x2="-449.38" y2="137.12" gradientTransform="matrix(0, -44.18, -44.18, 0, 6103.69, -19826.57)" xlink:href="#linear-gradient"/><linearGradient id="linear-gradient-24" x1="-449.8" y1="137.25" x2="-449.38" y2="137.25" gradientTransform="matrix(0, -44.18, -44.18, 0, 6114.1, -19826.32)" xlink:href="#linear-gradient"/><linearGradient id="linear-gradient-25" x1="-449.81" y1="136.85" x2="-449.38" y2="136.85" gradientTransform="matrix(0, -44.18, -44.18, 0, 6082.11, -19824.16)" xlink:href="#linear-gradient"/><linearGradient id="linear-gradient-26" x1="-451.16" y1="146.62" x2="-450.66" y2="146.62" gradientTransform="matrix(600.41, 0, 0, -600.41, 270883.89, 88073.81)" gradientUnits="userSpaceOnUse"><stop offset="0"/><stop offset="0.5" stop-color="#fff"/><stop offset="1"/></linearGradient><linearGradient id="linear-gradient-27" x1="-451.14" y1="146.63" x2="-450.64" y2="146.63" gradientTransform="matrix(576.53, 0, 0, -576.53, 260100.17, 84578.53)" xlink:href="#linear-gradient-26"/><linearGradient id="linear-gradient-28" x1="-451.12" y1="146.64" x2="-450.62" y2="146.64" gradientTransform="matrix(552.64, 0, 0, -552.64, 249316.3, 81082.61)" xlink:href="#linear-gradient-26"/><linearGradient id="linear-gradient-29" x1="-449.82" y1="137.32" x2="-449.39" y2="137.32" gradientTransform="matrix(0, -44.18, -44.18, 0, 6119.34, -19826.27)" xlink:href="#linear-gradient"/><linearGradient id="linear-gradient-30" x1="-449.81" y1="137.26" x2="-449.38" y2="137.26" gradientTransform="matrix(0, -44.18, -44.18, 0, 6115.2, -19826.35)" xlink:href="#linear-gradient"/><linearGradient id="linear-gradient-31" x1="-449.81" y1="137.01" x2="-449.39" y2="137.01" gradientTransform="matrix(0, -44.18, -44.18, 0, 6095.6, -19825.6)" xlink:href="#linear-gradient"/><linearGradient id="linear-gradient-32" x1="-449.81" y1="137.07" x2="-449.38" y2="137.07" gradientTransform="matrix(0, -44.19, -44.19, 0, 6100.73, -19827.88)" xlink:href="#linear-gradient"/><linearGradient id="linear-gradient-33" x1="-449.8" y1="136.97" x2="-449.37" y2="136.97" gradientTransform="matrix(0, -44.18, -44.18, 0, 6092.08, -19825.75)" xlink:href="#linear-gradient"/><linearGradient id="linear-gradient-34" x1="-449.82" y1="137.01" x2="-449.39" y2="137.01" gradientTransform="matrix(0, -44.19, -44.19, 0, 6096.27, -19829.08)" xlink:href="#linear-gradient"/><clipPath id="clip-path" transform="translate(0 -4.25)"><rect class="cls-35" x="26.23" width="50.83" height="42.84"/></clipPath><clipPath id="clip-path-2" transform="translate(0 -4.25)"><path class="cls-36" d="M51.3,7.75c.26.65-.52.93-.71,1.37.08.25.36-.21.62-.11a.62.62,0,0,1-.88.34c0-.89.91-.72,1-1.6"/></clipPath><mask id="mask" x="50.33" y="3.5" width="1.23" height="1.82" maskUnits="userSpaceOnUse"><g transform="translate(0 -4.25)"><rect class="cls-1" x="50.33" y="7.75" width="1.23" height="1.82"/></g></mask><clipPath id="clip-path-3" transform="translate(0 -4.25)"><path class="cls-36" d="M48.66,17.12c0,.29-.33.27-.44.11s.33-.27.44-.11"/></clipPath><mask id="mask-2" x="48.22" y="12.69" width="0.44" height="0.47" maskUnits="userSpaceOnUse"><g transform="translate(0 -4.25)"><rect class="cls-2" x="48.22" y="16.94" width="0.44" height="0.47"/></g></mask><clipPath id="clip-path-4" transform="translate(0 -4.25)"><path class="cls-36" d="M50.59,17.69a2.46,2.46,0,0,1-1.4.45c.28-.39.86-.4,1.4-.45"/></clipPath><mask id="mask-3" x="49.19" y="13.44" width="1.41" height="0.46" maskUnits="userSpaceOnUse"><g transform="translate(0 -4.25)"><rect class="cls-13" x="49.19" y="17.69" width="1.41" height="0.46"/></g></mask><clipPath id="clip-path-5" transform="translate(0 -4.25)"><path class="cls-36" d="M50.07,18.49c.18.24-.16.77-.44.8,0-.45.35-.46.44-.8"/></clipPath><mask id="mask-4" x="49.63" y="14.24" width="0.62" height="0.8" maskUnits="userSpaceOnUse"><g transform="translate(0 -4.25)"><rect class="cls-24" x="49.63" y="18.49" width="0.62" height="0.8"/></g></mask><clipPath id="clip-path-6" transform="translate(0 -4.25)"><path class="cls-36" d="M51.91,18.6c0,2.22-.38,5.75.44,7.54.44.07,1.11-.15,1.41.11-.49.73-1.57.22-2.38.34a47.19,47.19,0,0,1,.53-8"/></clipPath><mask id="mask-5" x="51.21" y="14.35" width="2.55" height="8.38" maskUnits="userSpaceOnUse"><g transform="translate(0 -4.25)"><rect class="cls-29" x="51.21" y="18.6" width="2.55" height="8.38"/></g></mask><clipPath id="clip-path-7" transform="translate(0 -4.25)"><path class="cls-36" d="M50.42,25.22c.42.12-.07.76.09,1.26-.35-.13,0-.72-.09-1.26"/></clipPath><mask id="mask-6" x="50.16" y="20.98" width="0.69" height="1.26" maskUnits="userSpaceOnUse"><g transform="translate(0 -4.25)"><rect class="cls-30" x="50.16" y="25.22" width="0.69" height="1.26"/></g></mask><clipPath id="clip-path-8" transform="translate(0 -4.25)"><path class="cls-36" d="M42.51,26.14c.23.27-.52,1.53.09,1.6,0,.29-.29.22-.53.23a8.93,8.93,0,0,1,.44-1.83"/></clipPath><mask id="mask-7" x="41.99" y="21.89" width="0.75" height="1.89" maskUnits="userSpaceOnUse"><g transform="translate(0 -4.25)"><rect class="cls-31" x="41.99" y="26.14" width="0.75" height="1.89"/></g></mask><clipPath id="clip-path-9" transform="translate(0 -4.25)"><path class="cls-36" d="M44.09,26.82c.32-.1.12.65-.08.57-.08-.32.12-.29.08-.57"/></clipPath><mask id="mask-8" x="43.93" y="22.47" width="0.48" height="0.75" maskUnits="userSpaceOnUse"><g transform="translate(0 -4.25)"><rect class="cls-32" x="43.93" y="26.72" width="0.48" height="0.75"/></g></mask><clipPath id="clip-path-10" transform="translate(0 -4.25)"><path class="cls-36" d="M40.67,27.17a2.1,2.1,0,0,1-.35,1.59,6.54,6.54,0,0,1,.35-1.59"/></clipPath><mask id="mask-9" x="40.31" y="22.92" width="0.49" height="1.6" maskUnits="userSpaceOnUse"><g transform="translate(0 -4.25)"><rect class="cls-33" x="40.31" y="27.17" width="0.49" height="1.6"/></g></mask><clipPath id="clip-path-11" transform="translate(0 -4.25)"><path class="cls-36" d="M44,28.19c-.9.85-2.45.86-3.52,1.49A8.94,8.94,0,0,1,44,28.19"/></clipPath><mask id="mask-10" x="40.49" y="23.94" width="3.51" height="1.49" maskUnits="userSpaceOnUse"><g transform="translate(0 -4.25)"><rect class="cls-34" x="40.49" y="28.19" width="3.51" height="1.49"/></g></mask><clipPath id="clip-path-12" transform="translate(0 -4.25)"><path class="cls-36" d="M39.88,30a2,2,0,0,1-.88.69,1.42,1.42,0,0,1,.88-.69"/></clipPath><mask id="mask-11" x="39" y="25.77" width="0.88" height="0.69" maskUnits="userSpaceOnUse"><g transform="translate(0 -4.25)"><rect class="cls-3" x="39" y="30.02" width="0.88" height="0.69"/></g></mask><clipPath id="clip-path-13" transform="translate(0 -4.25)"><path class="cls-36" d="M46.64,30.93c.33.09.11.62-.17.57a.53.53,0,0,1,.17-.57"/></clipPath><mask id="mask-12" x="46.39" y="26.69" width="0.58" height="0.61" maskUnits="userSpaceOnUse"><g transform="translate(0 -4.25)"><rect class="cls-4" x="46.39" y="30.93" width="0.58" height="0.61"/></g></mask><clipPath id="clip-path-14" transform="translate(0 -4.25)"><path class="cls-36" d="M38.91,32.87a.34.34,0,0,1,.18.35,1.23,1.23,0,0,1-.71.23c0-.65.57.07.53-.58"/></clipPath><mask id="mask-13" x="38.38" y="28.55" width="0.71" height="0.72" maskUnits="userSpaceOnUse"><g transform="translate(0 -4.25)"><rect class="cls-5" x="38.38" y="32.8" width="0.71" height="0.72"/></g></mask><clipPath id="clip-path-15" transform="translate(0 -4.25)"><path class="cls-36" d="M36.8,33.1c.24.12.5.19.53.57-.08.06-.16.1-.18.23-.32,0-.38-.33-.35-.8"/></clipPath><mask id="mask-14" x="36.77" y="28.86" width="0.56" height="0.8" maskUnits="userSpaceOnUse"><g transform="translate(0 -4.25)"><rect class="cls-6" x="36.77" y="33.1" width="0.56" height="0.8"/></g></mask><clipPath id="clip-path-16" transform="translate(0 -4.25)"><path class="cls-36" d="M37.94,33.22c.19,0,.24.08.36.11,0,.2-.15.26-.36.23Z"/></clipPath><mask id="mask-15" x="37.94" y="28.92" width="0.35" height="0.42" maskUnits="userSpaceOnUse"><g transform="translate(0 -4.25)"><rect class="cls-7" x="37.94" y="33.17" width="0.35" height="0.42"/></g></mask><clipPath id="clip-path-17" transform="translate(0 -4.25)"><path class="cls-36" d="M42.25,42.12a28.72,28.72,0,0,1,.09,3.66c-.22.09-.35.31-.62.34.55-.84.34-2.68.53-4"/></clipPath><mask id="mask-16" x="41.72" y="37.88" width="0.73" height="4" maskUnits="userSpaceOnUse"><g transform="translate(0 -4.25)"><rect class="cls-8" x="41.72" y="42.12" width="0.73" height="4"/></g></mask><clipPath id="clip-path-18" transform="translate(0 -4.25)"><path class="cls-36" d="M49.54,42.81c.29.59.26,2.07-.18,2.4-.27-.78.17-1.61.18-2.4"/></clipPath><mask id="mask-17" x="49.09" y="38.56" width="0.74" height="2.4" maskUnits="userSpaceOnUse"><g transform="translate(0 -4.25)"><rect class="cls-9" x="49.09" y="42.81" width="0.74" height="2.4"/></g></mask><clipPath id="clip-path-19" transform="translate(0 -4.25)"><path class="cls-36" d="M50.59,42.92a4.16,4.16,0,0,1,.09,2.17c-.39-.44-.06-1.47-.09-2.17"/></clipPath><mask id="mask-18" x="50.29" y="38.68" width="0.57" height="2.17" maskUnits="userSpaceOnUse"><g transform="translate(0 -4.25)"><rect class="cls-10" x="50.29" y="42.92" width="0.57" height="2.17"/></g></mask><clipPath id="clip-path-20" transform="translate(0 -4.25)"><path class="cls-36" d="M53.4,45.32c.19.14,0,.7-.35.57a2.49,2.49,0,0,1,.35-.57"/></clipPath><mask id="mask-19" x="53.05" y="41.07" width="0.53" height="0.7" maskUnits="userSpaceOnUse"><g transform="translate(0 -4.25)"><rect class="cls-11" x="53.05" y="45.32" width="0.53" height="0.7"/></g></mask><clipPath id="clip-path-21" transform="translate(0 -4.25)"><path class="cls-36" d="M36.36,45.55c.27.37.35,2.31-.08,2.51a15.56,15.56,0,0,1,.08-2.51"/></clipPath><mask id="mask-20" x="36.22" y="41.3" width="0.49" height="2.51" maskUnits="userSpaceOnUse"><g transform="translate(0 -4.25)"><rect class="cls-12" x="36.22" y="45.55" width="0.49" height="2.51"/></g></mask><clipPath id="clip-path-22" transform="translate(0 -4.25)"><path class="cls-36" d="M52.7,46c.3-.15.36.58.18.68s-.12-.45-.18-.68"/></clipPath><mask id="mask-21" x="52.56" y="41.61" width="0.5" height="0.94" maskUnits="userSpaceOnUse"><g transform="translate(0 -4.25)"><rect class="cls-14" x="52.56" y="45.86" width="0.5" height="0.94"/></g></mask><clipPath id="clip-path-23" transform="translate(0 -4.25)"><path class="cls-36" d="M40.05,46.35c.16.1.2.36.18.69-.3.2-.48.05-.7-.12.18-.18.45-.25.52-.57"/></clipPath><mask id="mask-22" x="39.53" y="42.1" width="0.72" height="0.89" maskUnits="userSpaceOnUse"><g transform="translate(0 -4.25)"><rect class="cls-15" x="39.53" y="46.35" width="0.72" height="0.89"/></g></mask><clipPath id="clip-path-24" transform="translate(0 -4.25)"><path class="cls-36" d="M36.71,47.15c.13,0,.21.94-.08.8,0-.3,0-.65.08-.8"/></clipPath><mask id="mask-23" x="36.59" y="42.9" width="0.32" height="0.94" maskUnits="userSpaceOnUse"><g transform="translate(0 -4.25)"><rect class="cls-16" x="36.59" y="47.15" width="0.32" height="0.94"/></g></mask><clipPath id="clip-path-25" transform="translate(0 -4.25)"><path class="cls-36" d="M36.1,48.18c.23,0,.5,0,.61.11s-.72.27-.61-.11"/></clipPath><mask id="mask-24" x="35.99" y="43.89" width="0.72" height="0.42" maskUnits="userSpaceOnUse"><g transform="translate(0 -4.25)"><rect class="cls-17" x="35.99" y="48.13" width="0.72" height="0.42"/></g></mask><clipPath id="clip-path-26" transform="translate(0 -4.25)"><path class="cls-36" d="M38.3,31.39c.07.34.22-.15.43,0-.17.53-.72.86-1,.57,1.33-1.46,1.65-4.25,2.73-6.05-.61,1.05-1,4.37-2.11,5.48"/></clipPath><mask id="mask-25" x="37.68" y="21.66" width="2.72" height="6.34" maskUnits="userSpaceOnUse"><g transform="translate(0 -4.25)"><rect class="cls-18" x="37.68" y="25.91" width="2.72" height="6.34"/></g></mask><clipPath id="clip-path-27" transform="translate(0 -4.25)"><path class="cls-36" d="M49.36,15.75v-1.6c.42.18-.14,1.63.44,1.6-.6.43-1.19.88-1.75,1.37v1c-1.59,1.48-3.69,2.29-5.1,4-.2.23-.2-.05,0-.11a16.56,16.56,0,0,1,4.74-3.66c.07-.48.11-1,.18-1.48.68-.15.93-.85,1.49-1.14"/></clipPath><mask id="mask-26" x="42.75" y="9.9" width="7.06" height="8.22" maskUnits="userSpaceOnUse"><g transform="translate(0 -4.25)"><rect class="cls-19" x="42.75" y="14.15" width="7.06" height="8.22"/></g></mask><clipPath id="clip-path-28" transform="translate(0 -4.25)"><path class="cls-36" d="M45.94,22.83c.14-1.53,1.29-2.74,2.11-3.77-.55,1-1.69,2.22-2.11,3.77"/></clipPath><mask id="mask-27" x="45.94" y="14.81" width="2.11" height="3.77" maskUnits="userSpaceOnUse"><g transform="translate(0 -4.25)"><rect class="cls-20" x="45.94" y="19.06" width="2.11" height="3.77"/></g></mask><clipPath id="clip-path-29" transform="translate(0 -4.25)"><path class="cls-36" d="M48.31,26.25a2.07,2.07,0,0,0,1,.23c-.26.32-.77.3-1.23.34a11.27,11.27,0,0,1,.7-5.13v-.12c.07.56-.59,3-.44,4.68"/></clipPath><mask id="mask-28" x="47.9" y="17.32" width="1.38" height="5.25" maskUnits="userSpaceOnUse"><g transform="translate(0 -4.25)"><rect class="cls-21" x="47.9" y="21.57" width="1.38" height="5.25"/></g></mask><clipPath id="clip-path-30" transform="translate(0 -4.25)"><path class="cls-36" d="M45.67,23.28c.11.09.1.94-.26,1a1.84,1.84,0,0,1,.26-1"/></clipPath><mask id="mask-29" x="45.39" y="19.04" width="0.39" height="1.03" maskUnits="userSpaceOnUse"><g transform="translate(0 -4.25)"><rect class="cls-22" x="45.39" y="23.28" width="0.39" height="1.03"/></g></mask><clipPath id="clip-path-31" transform="translate(0 -4.25)"><path class="cls-36" d="M45.41,24.65a14.06,14.06,0,0,1-.17,2.06,1,1,0,0,0,1,.23,2.86,2.86,0,0,1-1.58.45,21.07,21.07,0,0,1,.7-2.74"/></clipPath><mask id="mask-30" x="44.71" y="20.41" width="1.58" height="2.78" maskUnits="userSpaceOnUse"><g transform="translate(0 -4.25)"><rect class="cls-23" x="44.71" y="24.65" width="1.58" height="2.78"/></g></mask><clipPath id="clip-path-32" transform="translate(0 -4.25)"><path class="cls-36" d="M35.49,48.75a.54.54,0,0,1,.7,0,3.21,3.21,0,0,1-.18.68c.54.11.13-.36.35-.57.39.43.64.23,1.23.12-.6.46-1.49.56-2.1,1a12.49,12.49,0,0,1,0-1.25"/></clipPath><mask id="mask-31" x="35.4" y="44.33" width="2.19" height="1.42" maskUnits="userSpaceOnUse"><g transform="translate(0 -4.25)"><rect class="cls-25" x="35.4" y="48.58" width="2.19" height="1.42"/></g></mask><clipPath id="clip-path-33" transform="translate(0 -4.25)"><rect class="cls-35" y="42.8" width="299.07" height="0.5"/></clipPath><mask id="mask-32" x="0" y="38.55" width="299.07" height="0.5" maskUnits="userSpaceOnUse"><g transform="translate(0 -4.25)"><rect class="cls-26" y="42.8" width="299.07" height="0.5"/></g></mask><linearGradient id="linear-gradient-35" x1="-451.16" y1="146.62" x2="-450.66" y2="146.62" gradientTransform="matrix(600.41, 0, 0, -600.41, 270883.89, 88069.56)" gradientUnits="userSpaceOnUse"><stop offset="0" stop-color="#231f20"/><stop offset="0.5" stop-color="#231f20"/><stop offset="1" stop-color="#231f20"/></linearGradient><clipPath id="clip-path-34" transform="translate(0 -4.25)"><rect class="cls-35" x="5.75" y="44.3" width="287.17" height="0.5"/></clipPath><mask id="mask-33" x="5.75" y="40.05" width="287.17" height="0.5" maskUnits="userSpaceOnUse"><g transform="translate(0 -4.25)"><rect class="cls-27" x="5.75" y="44.3" width="287.17" height="0.5"/></g></mask><linearGradient id="linear-gradient-36" x1="-451.14" y1="146.63" x2="-450.64" y2="146.63" gradientTransform="matrix(576.53, 0, 0, -576.53, 260100.5, 84573.95)" xlink:href="#linear-gradient-35"/><clipPath id="clip-path-35" transform="translate(0 -4.25)"><rect class="cls-35" x="11.49" y="45.79" width="275.27" height="0.5"/></clipPath><mask id="mask-34" x="11.49" y="41.54" width="275.27" height="0.5" maskUnits="userSpaceOnUse"><g transform="translate(0 -4.25)"><rect class="cls-28" x="11.49" y="45.79" width="275.27" height="0.5"/></g></mask><linearGradient id="linear-gradient-37" x1="-451.12" y1="146.63" x2="-450.62" y2="146.63" gradientTransform="matrix(552.64, 0, 0, -552.64, 249316.8, 81077.87)" xlink:href="#linear-gradient-35"/></defs><title>olympian</title><g id="Layer_2" data-name="Layer 2"><g id="oly"><g class="cls-37"><path class="cls-38" d="M51.3,7.75c.26.65-.52.93-.71,1.37.08.25.36-.21.62-.11a.62.62,0,0,1-.88.34c0-.89.91-.72,1-1.6" transform="translate(0 -4.25)"/><g class="cls-39"><g class="cls-40"><rect x="50.33" y="3.5" width="1.23" height="1.82"/></g></g><path class="cls-38" d="M48.66,17.12c0,.29-.33.27-.44.11s.33-.27.44-.11" transform="translate(0 -4.25)"/><g class="cls-41"><g class="cls-42"><rect x="48.22" y="12.69" width="0.44" height="0.47"/></g></g><path class="cls-38" d="M50.59,17.69a2.46,2.46,0,0,1-1.4.45c.28-.39.86-.4,1.4-.45" transform="translate(0 -4.25)"/><g class="cls-43"><g class="cls-44"><rect x="49.19" y="13.44" width="1.41" height="0.46"/></g></g><path class="cls-38" d="M50.07,18.49c.18.24-.16.77-.44.8,0-.45.35-.46.44-.8" transform="translate(0 -4.25)"/><g class="cls-45"><g class="cls-46"><rect x="49.63" y="14.24" width="0.62" height="0.8"/></g></g><path class="cls-38" d="M51.91,18.6c0,2.22-.38,5.75.44,7.54.44.07,1.11-.15,1.41.11-.49.73-1.57.22-2.38.34a47.19,47.19,0,0,1,.53-8" transform="translate(0 -4.25)"/><g class="cls-47"><g class="cls-48"><rect x="51.21" y="14.35" width="2.55" height="8.38"/></g></g><path class="cls-38" d="M50.42,25.22c.42.12-.07.76.09,1.26-.35-.13,0-.72-.09-1.26" transform="translate(0 -4.25)"/><g class="cls-49"><g class="cls-50"><rect x="50.16" y="20.98" width="0.69" height="1.26"/></g></g><path class="cls-38" d="M42.51,26.14c.23.27-.52,1.53.09,1.6,0,.29-.29.22-.53.23a8.93,8.93,0,0,1,.44-1.83" transform="translate(0 -4.25)"/><g class="cls-51"><g class="cls-52"><rect x="41.99" y="21.89" width="0.75" height="1.89"/></g></g><path class="cls-38" d="M44.09,26.82c.32-.1.12.65-.08.57-.08-.32.12-.29.08-.57" transform="translate(0 -4.25)"/><g class="cls-53"><g class="cls-54"><rect x="43.93" y="22.47" width="0.48" height="0.75"/></g></g><path class="cls-38" d="M40.67,27.17a2.1,2.1,0,0,1-.35,1.59,6.54,6.54,0,0,1,.35-1.59" transform="translate(0 -4.25)"/><g class="cls-55"><g class="cls-56"><rect x="40.31" y="22.92" width="0.49" height="1.6"/></g></g><path class="cls-38" d="M44,28.19c-.9.85-2.45.86-3.52,1.49A8.94,8.94,0,0,1,44,28.19" transform="translate(0 -4.25)"/><g class="cls-57"><g class="cls-58"><rect x="40.49" y="23.94" width="3.51" height="1.49"/></g></g><path class="cls-38" d="M39.88,30a2,2,0,0,1-.88.69,1.42,1.42,0,0,1,.88-.69" transform="translate(0 -4.25)"/><g class="cls-59"><g class="cls-60"><rect x="39" y="25.77" width="0.88" height="0.69"/></g></g><path class="cls-38" d="M46.64,30.93c.33.09.11.62-.17.57a.53.53,0,0,1,.17-.57" transform="translate(0 -4.25)"/><g class="cls-61"><g class="cls-62"><rect x="46.39" y="26.69" width="0.58" height="0.61"/></g></g><path class="cls-38" d="M38.91,32.87a.34.34,0,0,1,.18.35,1.23,1.23,0,0,1-.71.23c0-.65.57.07.53-.58" transform="translate(0 -4.25)"/><g class="cls-63"><g class="cls-64"><rect x="38.38" y="28.55" width="0.71" height="0.72"/></g></g><path class="cls-38" d="M36.8,33.1c.24.12.5.19.53.57-.08.06-.16.1-.18.23-.32,0-.38-.33-.35-.8" transform="translate(0 -4.25)"/><g class="cls-65"><g class="cls-66"><rect x="36.77" y="28.86" width="0.56" height="0.8"/></g></g><path class="cls-38" d="M37.94,33.22c.19,0,.24.08.36.11,0,.2-.15.26-.36.23Z" transform="translate(0 -4.25)"/><g class="cls-67"><g class="cls-68"><rect x="37.94" y="28.92" width="0.35" height="0.42"/></g></g><path class="cls-38" d="M42.25,42.12a28.72,28.72,0,0,1,.09,3.66c-.22.09-.35.31-.62.34.55-.84.34-2.68.53-4" transform="translate(0 -4.25)"/><g class="cls-69"><g class="cls-70"><rect x="41.72" y="37.88" width="0.73" height="4"/></g></g><path class="cls-38" d="M49.54,42.81c.29.59.26,2.07-.18,2.4-.27-.78.17-1.61.18-2.4" transform="translate(0 -4.25)"/><g class="cls-71"><g class="cls-72"><rect x="49.09" y="38.56" width="0.74" height="2.4"/></g></g><path class="cls-38" d="M50.59,42.92a4.16,4.16,0,0,1,.09,2.17c-.39-.44-.06-1.47-.09-2.17" transform="translate(0 -4.25)"/><g class="cls-73"><g class="cls-74"><rect x="50.29" y="38.68" width="0.57" height="2.17"/></g></g><path class="cls-38" d="M53.4,45.32c.19.14,0,.7-.35.57a2.49,2.49,0,0,1,.35-.57" transform="translate(0 -4.25)"/><g class="cls-75"><g class="cls-76"><rect x="53.05" y="41.07" width="0.53" height="0.7"/></g></g><path class="cls-38" d="M36.36,45.55c.27.37.35,2.31-.08,2.51a15.56,15.56,0,0,1,.08-2.51" transform="translate(0 -4.25)"/><g class="cls-77"><g class="cls-78"><rect x="36.22" y="41.3" width="0.49" height="2.51"/></g></g><path class="cls-38" d="M52.7,46c.3-.15.36.58.18.68s-.12-.45-.18-.68" transform="translate(0 -4.25)"/><g class="cls-79"><g class="cls-80"><rect x="52.56" y="41.61" width="0.5" height="0.94"/></g></g><path class="cls-38" d="M40.05,46.35c.16.1.2.36.18.69-.3.2-.48.05-.7-.12.18-.18.45-.25.52-.57" transform="translate(0 -4.25)"/><g class="cls-81"><g class="cls-82"><rect x="39.53" y="42.1" width="0.72" height="0.89"/></g></g><path class="cls-38" d="M36.71,47.15c.13,0,.21.94-.08.8,0-.3,0-.65.08-.8" transform="translate(0 -4.25)"/><g class="cls-83"><g class="cls-84"><rect x="36.59" y="42.9" width="0.32" height="0.94"/></g></g><path class="cls-38" d="M36.1,48.18c.23,0,.5,0,.61.11s-.72.27-.61-.11" transform="translate(0 -4.25)"/><g class="cls-85"><g class="cls-86"><rect x="35.99" y="43.89" width="0.72" height="0.42"/></g></g><path class="cls-38" d="M53.4,47.49c-.64-.26-1.7,0-2.37-.23,1.37-.22,3.09-.12,4.31-.22.06.21.26.07.08.34a7.32,7.32,0,0,1,1.85-.12c-.41-.7-1.42-.22-2.2-.34-.53-.08-.93-.4-1.31-.46,0-.38-.07-.92.08-1.14.33,0,.78-.1,1,.12-.13.32-.39.47-.44.91a.74.74,0,0,0,.88.11c0-.87-.41-1.21-.62-1.82.16.28.26-.45.27-.69.1-2-.34-5.39-.18-7.76-.16-.14-.56-.29-.7-.12-.5,2.46-.2,5.32-.44,8-.22-1,0-2.54-.18-3.54-1.12.95.4,4.6-1,5.48-.76-.29-2.66.37-3.52,0,.3.13,1.47-.45,2.38-.23,0-.34-.3-.37-.44-.57.41-1.56.06-3.68.08-5.26-.29,0-.14.5-.26.69-.3-1.33.17-3.65-.26-4.79-.18.11-.14.5-.44.45.06,1.91-.36,3.19-.35,5A28.9,28.9,0,0,1,49.36,36c-.15-.24-.81-.15-.87.11s.27.18.43.23c-.07.44-.74.1-1,.34,0,.69-.11,1.59.17,2-.18-.05-.23.07-.35.11s.37.21,0,.23c0,2.36,0,4,.09,6.16.1.29.47.23.79.23-1.12.9-2-.13-1.58-2,.34.31,0,1.56.35,1.82A23.26,23.26,0,0,0,47,38.24c-.27-.08-.26.2-.52.12-.13,2.34,0,5-.18,7.3-.62.22-1.1.59-1.85.35a2.15,2.15,0,0,0,.09,1.37,10.76,10.76,0,0,1-1.23.23c-.16-.4-.19-2,.27-1.6-.53-.24-.52-1.49-.35-2.29.21.37,0,1.35.26,1.6a45.75,45.75,0,0,0,.09-7.42,13.3,13.3,0,0,0-.27,3c-.4-1.08,0-3.2-.26-4.45-.89.3-.57,2.14-.62,3.53a10.56,10.56,0,0,0-.08,1.72,15.54,15.54,0,0,1-.27-3.2c-.15.83-.09,1.94-.17,2.86-.37-.94-.09-2.71-.27-3.89-.07-.44-.46-.66-.26-1.14-.36.23-.14.49-.18.91-.22,2.6-.26,6.09-.52,9-.48-1.39.19-3.73-.18-5.37a46.12,46.12,0,0,0-.44,5.37,37.07,37.07,0,0,1,0-5.6c0-.9.19-2-.26-2.51-.37.39-.32,1.13-.35,1.71-.11,2.15-.26,4.64-.27,7A4.17,4.17,0,0,1,37.77,48a2.69,2.69,0,0,0,.53-2.06c.22-.17-.11,1.35.35,1.26.47-.54-.19-1.61,0-2.4a.33.33,0,0,0-.18.34,35,35,0,0,1,0-5.71c-.11-.19-.18-.45-.44-.45a29.46,29.46,0,0,0-.44,5.82c0,1.11.09,2.51-.44,3.08.46-2,.05-5.5.18-8.22-1-.1-.48,2.65-.88,3.66-.27-1,.07-2.79-.09-3.66-.57.13-.34,1.31-.52,1.94-.08-.48-.35-2.19.26-2.17a2.2,2.2,0,0,1-.44-1.48c.3-.08.15.42.35.46.13-.47,0-.84.18-1.15,1.39-.45,2-1.23,3.34-1.82.09-.38,0-.39.08-.8-.17-.16-.37.68-.7.11-.21.23.15.55-.09.8-.91.15-1.47.93-2.46,1.26a.57.57,0,0,0,.09-.34c-.16.46-.34.21-.79.22-.19.46.35.4.18,1.15-.35-.31-.69-.63-1.06-.92.48-1,.14-2,.62-2.62.41.06.6.6,1,.11.32-.07.27.34.27.68.94-.71,2.09-1.16,3.07-1.82-.06-.61-.32,0-.53-.23.15-.56.5-.19.79-.23,1.12-.13,2.46-.53,3.61-.68.06-.5-.2-1.41.35-1.26.39.1-.27.65.26.8.37-.26-.07-.91.26-1.26-.68-.17-1.36.46-2.1.12a2.6,2.6,0,0,1-1.93.91c-.33.19,0,.58-.18.91-.46-.06-.09-.48-.27-.91-.07.07-.15.14-.17,0-.26-.12-.16.26-.18.46-.74-.34-1.45,1.88-2.1.57.27-.13.21.18.35.23,1.56-1.85,4.07-2.47,6.5-3.2a10,10,0,0,0-4.75,1.48c1-1.06,3.27-1.46,5-1.94.14-.6-.18-.6-.26-.91a43.11,43.11,0,0,1,11.06-.91.81.81,0,0,0-.79-.58,8.29,8.29,0,0,1,0-2.28c.3.12.08.9.27,1.14a21.35,21.35,0,0,0-.35-5.36c.71,1.28,1,3.16,1.84,4.22.35,0,.27-.5.62-.23,0-.44-.16-.55-.09-1,.7.72.3,2.88,1,3.53a15.76,15.76,0,0,0-1.23-6.28c.73.4,1.21,2.09,2.11,2.63.39-.17-.06-.59,0-1,.76.88.9,2.56,1.67,3.43a9.85,9.85,0,0,0-1.41-4c.36-.11,1.12,1.42,1.41,1,.56.3,1,1.78,1.67,2.28-1.87-4.72-5.68-6.92-11.25-6.85.65-.53,1.89-.28,2.9-.34-.64-.64-1.77,0-2.63-.34.24-.29.8-.18,1-.57-1.07-.69-1.41,0-2.45-.12-.4,0-.43.51-.88.46.65-1.05,1.92-.6,3-1-.6,0-.86-.48-1.49-.46,0-.37.49-.11.61-.34a14.45,14.45,0,0,0-.17-2.85c-.47.53,0,2.27-.18,2.85-.42-.05-.08-1.11-.44-1.25A4,4,0,0,0,50,15.52c-.39-1.1,0-3.13-.7-3.54.42-.62,1.07-.92.79-2.17.22-.29.27.22.44.34.39-.35,1-.64.87-1.37a8.65,8.65,0,0,0,1.41-.23,8.64,8.64,0,0,1-.26-2.62c-.57-.21-.48.44-.62.8-.26-.28.07-.75,0-1.15h.53c-.13-.4-.54-.43-.44-1.14.22-.16.34-.28.61-.11.18.73.07,1.65.27,2.51.25,1.11,1.26,1.62,1.67,2.74.32.89,0,1.65.79,1.94,0,.28-.17.36,0,.57-.07.31.41-.08.35.23-.55,1-.34,1.92-.35,3.77.62.52,1.43.81,1.4,2.17a17.38,17.38,0,0,1,8.43,11.88c1,1.09,1.24,3.11,2.73,3.53a6.29,6.29,0,0,0,.61,3c.31.1.34-.17.62-.11a2.21,2.21,0,0,0,.17,1.14,14,14,0,0,1-1.14,1.49,6.67,6.67,0,0,0,.26,1.37c-.57,1.23-.25,3.07-.17,5.25a20.75,20.75,0,0,0,.09,3.54m-33.21.34a19,19,0,0,1,.44-3.77c-.08,1.48-.1,2.41-.17,3.77M52.53,4.9c0-.3-.12-.38-.36-.34,0,.3.13.37.36.34m-2.11,5.94a4,4,0,0,0,1-.35c-.2-.85-.87,0-1,.35m2.19-.23c.17,0,.38,0,.36-.34h-.36Zm-.44.45c0-.32-.21-.32-.43-.34,0,.36.18.37.43.34M52.7,13c.54-.09.19-1.29,0-1.49-.21.39.11.88,0,1.49m-1.05,2.17c.12-.66-.31-.6-.35-1s.2-1.49-.18-1.6c.26.77-.24,2.52.53,2.63m1.23-.35c.1-.29.27-1.64-.18-1.6-.08.32-.28,1.63.18,1.6m-.35,1a1.07,1.07,0,0,0,.79-.23,2.6,2.6,0,0,0-.71-.45,1.23,1.23,0,0,0-.08.68M47.34,28.08c-1,.1-2.48-.3-2.54.8,2.76-.14,6.43-.44,9.13-.69a43.63,43.63,0,0,0-6.59-.11M53.23,32c.09-.43-.33-.18-.26-.57.44.05.19-.81.26-1.25-.44-.15-.12.67-.35.79.07-.36-.14-.35-.27-.45,0,1.73-2,.68-2.54.8,0-.2.08-.57-.18-.46-.51,0-.09.54-.44.57s0-.32-.17-.46c-.27,0-.3.3-.53.35,0-.22,0-.49-.26-.46h-.18c-.25.16-.17.77-.62.68-.1-.36.29-.08.18-.45-.39-.39-.42.52-.7.23a2.68,2.68,0,0,1,.26-.69,7.06,7.06,0,0,1-1.49-.11c-.26.26.56.92-.09,1,.26-.93-.63-.4-1.05-.34-.26.44.27.62,0,1,2-.1,3.86-.37,5.79-.46.32.89-.16,2.28.09,3.09a6.72,6.72,0,0,0,.18-2c.21,0,.42,0,.44-.22-.13-.07-.46.13-.44-.12s-.11-.75.08-.8c.9.15,1.83-.35,2.29.23m.44-1.25c.4-.13.55-.36.79.11,0-.15.12-.22.09-.46-.37,0-.84-.09-.88.35m-2.55.34c.13-.06.45.13.44-.12-.07,0-.1-.09-.09-.22-.22,0-.27.17-.35.34m14.23,2.51c.72.14.32-.71.35-1.26-.64.06-.46.65-.35,1.26m-17-.8c-.14.45.38,0,.35.34-.21.24-.45-.18-.44.23.41,0,.64,0,.79.12,0,.23-.39,0-.35.34s.52-.07.44.34a41.09,41.09,0,0,0-4.66.57c.18,1,1.65.54,2,.12.55.18.94-.28,1.4.22.75-.24,2.47.17,2.28-.91-.09.27-.78.16-.87-.23h1c-.05-.16.1-.59-.09-.57-.11.5-.41.25-.79.23a.73.73,0,0,1,.09-.34c-.26,0-.68.12-.7-.23.15,0,.52-.22.26-.34-.06.26-.49,0-.7.11m-1.49.11c-.32,0-.34.16-.62,0a.31.31,0,0,0,.62,0m8.87,0c-.27.11-.89-.24-.88.23.63-.2.58.47,1,.57.2-.54,1,.69,1-.45-.42-.34-1.19.44-1.05-.35m-1.85.8c.39,0,.72-.05.79-.45-.09-.27-.4-.24-.7-.23a1.23,1.23,0,0,0-.09.68m-6.32,0c-.26-.46-.79.12-1.05-.34-.12.37-.25.86-.62.57.45.41,1.83-.09,2.72,0,0-.62-.67-.41-1-.68,0,.17,0,.42-.09.45m4.13.12c.26-.11.89.24.88-.23-.29,0-.38.2-.71.11,0-.2.09-.57-.17-.45Zm-10.19.57c-.17-.17.15-.48-.18-.57-.2.23-.18.76-.35,1,.65-.54,2-.07,2.46-1a1.8,1.8,0,0,0-1.93.57m12.38-.11c1.17-.16,1.75.45,2.9,0-.13-.36-.71-.25-1-.12.24-.24-1.94-.66-1.94.12m5.19,0c.76,0,1.51.69,2,.11-.64-.23-1.46-.6-2-.11m-7.47.57c.59,0,1.13,0,1.32-.46-.3-.31-.63-.17-1.23-.23.06.35-.15.34-.09.69m6-.23c.12,1,1.89.62,2.55.34a6.13,6.13,0,0,0-2.55-.34m5.19.57V34.7c-.29,0-.38-.2-.71-.11a.54.54,0,0,0,.71.57M42,34.93c-.4.11-1.06.21-1.15.69.24.3.85,0,1.32-.12s1.17-.13,1.23-.68a2.38,2.38,0,0,0-1.4.11m18.44.34c.28.62,1.27.24,1.67.23-.45-.18-1.15-.64-1.58-.46.18.19.57.09.7.35-.36-.11-.43,0-.79-.12m5,.35c.47-.09.74.72,1,0-.28-.21-.69-.25-.87-.58a.9.9,0,0,0-.09.58m-28.9.23a.59.59,0,0,0,.44-.58c-.31,0-.46.17-.44.58m11.68-.35a1.61,1.61,0,0,0,1.06-.23,1.68,1.68,0,0,0-1.06.23m-9.13,1c.71.11,1.45.24,1.84-.46-.11-.34-.44-.41-.7-.57-.09.72-.81.62-1.14,1M42.25,36c.22-.22,1.15-.09,1-.46-.22.3-.93-.06-1,.46m21.08.23h.35c0-.37-.61-.57-.7-.46.15.14.6.14.35.46m3.07.34c-.15-.48-.51-.23-.87-.57.17.87,1.09.79,1.58,1.25.09-.54-.44-.26-.44-.68,0-.22.25-.21.17-.57-.09-.11,0-.42-.26-.34-.23.54.09.65-.18.91m-25.29-.46c.26-.11.7,0,.79-.34-.21.12-.91.18-.79.34m-3.6.8c.3.62-.36.48-.18,1.26.42-.68,1.44-.56,1.58-1.6-.2.06-.45.23-.61,0-.15.7-.46.17-.79.34m18.88.23c0,1.7-.06,3.51,0,5.14,0,.87-.23,2.22.26,2.51a53.94,53.94,0,0,0-.17-8c0,.13,0,.32-.09.34m-12.12,5c0,1-.2,2.13.17,2.75a37.73,37.73,0,0,0,0-7.88,48.49,48.49,0,0,0-.17,5.13m15.37-4.45c0-.22.12-.69-.17-.57s-.09.6.17.57m7.47.57c.28-.14.06.37.35.23V37.33a.34.34,0,0,1-.26-.12c-.17.37,0,.58-.09,1m-14.06.92c.33-.08.19-1.35.09-1.6-.09.53,0,.94-.09,1.6m3.08,5.48c-.06-2.31.14-4.26-.09-6.28,0,2-.47,5,.09,6.28m3.42-5.37c-.1-.36.14-.28.18-.46-.13,0-.15-.19-.26-.22,0,.25-.21.61.08.68m.09.91c0-.23.14-.79-.17-.68a.57.57,0,0,0,.17.68m5.71,1.37c.21.42-.1,1.51.35,1.6.27-.39.27-1.58-.09-1.82.14-.33.31-1.14,0-1.38-.18.52.21,1.42-.26,1.6M59.2,41c.12.42.12,1,.44,1.14,0-.45.27-1.57-.09-1.82-.31.08,0,.93-.35.68m7.47.69c0-.45.16-1.06-.09-1.37,0,.59-.17,1.14.09,1.37m.08,1.71c-.07-.42.16-1-.17-1.37,0,.59-.08,1.38.17,1.37m-7.11.46c-.1-.48.21-1.49-.17-1.6.14.5-.28,1.24.17,1.6m7,1.14c.34,0,.18-1.09,0-1.14.07.47-.12.95,0,1.14m-11.25.57c0,.12-.07.14-.08.23a2.32,2.32,0,0,0,1.58,0c-.47-.48-1.07.23-1.41-.34,0,.07,0,.13-.09.11m-11.24,1.6c-.15-.29.08-1.08-.26-1.37-.38.53.14,1,.26,1.37m11.42-.69c.25.18,1.42.37,1.58-.22-.48.13-1.39-.29-1.58.22m-2,1c.21-.07.64.15.7-.11-.37,0-.5-.3-.7.11" transform="translate(0 -4.25)"/><path class="cls-38" d="M38.3,31.39c.07.34.22-.15.43,0-.17.53-.72.86-1,.57,1.33-1.46,1.65-4.25,2.73-6.05-.61,1.05-1,4.37-2.11,5.48" transform="translate(0 -4.25)"/><g class="cls-87"><g class="cls-88"><rect x="37.68" y="21.66" width="2.72" height="6.34"/></g></g><path class="cls-38" d="M49.36,15.75v-1.6c.42.18-.14,1.63.44,1.6-.6.43-1.19.88-1.75,1.37v1c-1.59,1.48-3.69,2.29-5.1,4-.2.23-.2-.05,0-.11a16.56,16.56,0,0,1,4.74-3.66c.07-.48.11-1,.18-1.48.68-.15.93-.85,1.49-1.14" transform="translate(0 -4.25)"/><g class="cls-89"><g class="cls-90"><rect x="42.75" y="9.9" width="7.06" height="8.22"/></g></g><path class="cls-38" d="M45.94,22.83c.14-1.53,1.29-2.74,2.11-3.77-.55,1-1.69,2.22-2.11,3.77" transform="translate(0 -4.25)"/><g class="cls-91"><g class="cls-92"><rect x="45.94" y="14.81" width="2.11" height="3.77"/></g></g><path class="cls-38" d="M48.31,26.25a2.07,2.07,0,0,0,1,.23c-.26.32-.77.3-1.23.34a11.27,11.27,0,0,1,.7-5.13v-.12c.07.56-.59,3-.44,4.68" transform="translate(0 -4.25)"/><g class="cls-93"><g class="cls-94"><rect x="47.9" y="17.32" width="1.38" height="5.25"/></g></g><path class="cls-38" d="M45.67,23.28c.11.09.1.94-.26,1a1.84,1.84,0,0,1,.26-1" transform="translate(0 -4.25)"/><g class="cls-95"><g class="cls-96"><rect x="45.39" y="19.04" width="0.39" height="1.03"/></g></g><path class="cls-38" d="M45.41,24.65a14.06,14.06,0,0,1-.17,2.06,1,1,0,0,0,1,.23,2.86,2.86,0,0,1-1.58.45,21.07,21.07,0,0,1,.7-2.74" transform="translate(0 -4.25)"/><g class="cls-97"><g class="cls-98"><rect x="44.71" y="20.41" width="1.58" height="2.78"/></g></g><path class="cls-38" d="M35.49,48.75a.54.54,0,0,1,.7,0,3.21,3.21,0,0,1-.18.68c.54.11.13-.36.35-.57.39.43.64.23,1.23.12-.6.46-1.49.56-2.1,1a12.49,12.49,0,0,1,0-1.25" transform="translate(0 -4.25)"/><g class="cls-99"><g class="cls-100"><rect x="35.4" y="44.33" width="2.19" height="1.42"/></g></g></g><g class="cls-101"><g class="cls-102"><rect class="cls-103" y="38.55" width="299.07" height="0.5"/></g></g><g class="cls-104"><g class="cls-105"><rect class="cls-106" x="5.75" y="40.05" width="287.17" height="0.5"/></g></g><g class="cls-107"><g class="cls-108"><rect class="cls-109" x="11.49" y="41.54" width="275.27" height="0.5"/></g></g><path class="cls-110" d="M162.53,36.77a2.1,2.1,0,0,1-.47,0,1.14,1.14,0,0,1-.4-.3l-2.28-2.29,0-17.41a5.09,5.09,0,0,1,1-2.23,4.48,4.48,0,0,0-2.81,2.32s-2-2.6-4.21-2.65A34.77,34.77,0,0,1,154,20c0,2.35.06,17.12.06,17.12l4.45,4,4.59-4.45Zm-4,3.65-3.94-3.63,0-17.19s-.05-1.08-.12-1.79-.35-2.24-.35-2.24c1.22,1.63,1.26,5,1.26,5V36.52l3.7,3.39Z" transform="translate(0 -4.25)"/><path class="cls-110" d="M170.74,38.92c-.42.08-3.78.64-4.37.61s-1.87,0-2-.84c-.17-1.54,4-1.67,4.47-1.61a31,31,0,0,0,5.21.39,4.58,4.58,0,0,0,4.15-3.1V24.52l-4.55-3.39-4,3.45L165.6,21l-4.07,3.15,2.54,2.41a.56.56,0,0,1,.1.22,2.15,2.15,0,0,1,0,.34V37.39a5.86,5.86,0,0,0-1.78,3.47c0,4.75,5.81,3.75,6.42,3.67s5.45-.69,6.62-.75.66.78.66.78C171.32,48,167.38,46,167.24,46s-.87-.59-1.14-.11.69.85.78.88c5.19,2,10-1.57,10.22-1.77,2.09-1.61,1.14-4.47,1.11-4.56-1-3-7.05-1.56-7.47-1.47m1.23-15,2.31,2.27s.05,4.8,0,6.84a3.69,3.69,0,0,1-1.48,2.83,6.6,6.6,0,0,0,.64-2.55V26.54l-2.11-1.91Zm-2.25,1.2s.5-.47.58-.41A27.14,27.14,0,0,1,172.77,27v6.72s-.28,4.06-3.06,2.39ZM163,24.61l.81-.6,2.18,2.2v6.46c0,3-.87,3.91-.87,3.91v-10ZM176.9,43.42c-.51-.33-.27-.63-6.52.37s-7-1.37-7-1.37c1.66,2.37,10.5,0,11.85-.13s2.27,1.53,1.68,1.13" transform="translate(0 -4.25)"/><path class="cls-110" d="M232.76,24.32l-3.9-3.21-4.2,3.12,2.46,2.31V37L231.47,41l3.61-3.41L232.76,35Zm-1.24,15.79-3.85-3.61V26.29l-1.88-2,.59-.4,2,2V36.33l3.55,3.31Z" transform="translate(0 -4.25)"/><path class="cls-110" d="M232.55,16.51l-3.29-3.29L226,16.5l3.29,3.29Zm-5.23-.7,2.58,2.58-.5.51-2.59-2.58Z" transform="translate(0 -4.25)"/><path class="cls-110" d="M269.37,36.1V25L264.78,21l-4.39,3.37L256.56,21l-5.12,3.86s-.11.33.56.33a2.82,2.82,0,0,1,2.17,2.69v9.79l3.5,3.44,3.84-3.44L260,36.11V25.83l1.37-1.09,2.19,2.14V37.79l3.49,3.35,3.74-3.52Zm-11.49,4.28s-2.67-2.71-2.67-2.71V26.54L253.4,24.7l.63-.57,2,2.08s0,9.06,0,11.1c0,0,2.41,2.52,2.38,2.52Zm9.19,0-2.75-2.75V26.54l-1.95-1.78.77-.63,2.05,2.08s0,9.07,0,11.11c0,0,2.48,2.52,2.45,2.52Z" transform="translate(0 -4.25)"/><path class="cls-110" d="M250,33V24.52l-4.09-3.33s-4.75,2.39-7.44,1.83l-1.05-1.43a1.15,1.15,0,0,0-1.71-.44c-.44.38-.46,1.06.21,1.72l1.33,1.44s2.64-1.14,4.36-.1L243.52,26a2.05,2.05,0,0,1,.61,1.67V36.5l-.66.58s-5.94-4.75-1.93-7.52a9.75,9.75,0,0,1,2-.94l-1.33-.48a13.94,13.94,0,0,0-2.42,1.18c-.91.59-7.91,5.56-1,11.85,0,0,.5.25,1.16-.27l4.48-3.57,4.48,3.73L252.78,37l-2.17-1.78S250,34.75,250,33m-10.7,7.42a8,8,0,0,1-2.63-3.5,4.08,4.08,0,0,1,.13-3.3,8.72,8.72,0,0,0,.7,3.4,10.52,10.52,0,0,0,2.33,3Zm9.46-.38-4-3.29V26.22l-2.56-2.56.81-.31,2.66,2.48V36.39l3.68,3.09Z" transform="translate(0 -4.25)"/><path class="cls-110" d="M205.68,36.07l0-11.09-4.6-4-5,3.82L191.72,21l-4.39,3.37L183.5,21l-5.12,3.86s-.11.33.56.33a2.83,2.83,0,0,1,2.17,2.69v9.79l3.5,3.44,3.83-3.44-1.5-1.56V25.83l1.36-1.09,2.2,2.14V37.67l3.5,3.47,3.8-3.47-1.48-1.57V25.87l1.37-1.09,2.19,2.09V37.78l3.51,3.36,3.72-3.52Zm-21,4.34s-2.7-2.74-2.7-2.74V26.54l-1.84-1.83.66-.58,2,2.08s0,9,0,11.07c0,0,2.5,2.51,2.47,2.51Zm9.26,0s-2.69-2.74-2.69-2.74V26.53l-1.84-1.83.66-.58,2.05,2.08s0,9,0,11.07c0,0,2.5,2.52,2.48,2.52Zm9.38,0s-2.7-2.74-2.7-2.74V26.53l-1.84-1.83.66-.58,2.05,2.08s0,9,0,11.07c0,0,2.51,2.52,2.48,2.52Z" transform="translate(0 -4.25)"/><path class="cls-110" d="M215,24l-3.9-2.92-3.95,3.26,2.67,2.27v8.75S207,38.64,207,40.52c0,0,2-1.62,2.87-1.47v2.72s-.09,4-.74,4.59a6.35,6.35,0,0,0,3.66-2.23s1.51,1.64,2.61,1.49l-.64-6.28,2.42,1.58s3.36-3.56,7.36-4.45V25l-5.1-4.14ZM211.11,41.8a7.09,7.09,0,0,1-1.06,3.45s.15-1,.21-1.62.08-1.66.08-1.66V26.4l-2.13-1.87.53-.45,2.38,2.07s0,14.42,0,15.65m6-1.65-2-1.37v-1l2.52,1.8Zm-2.06-6V24.72l.69-.49,3.41,2.85.1,8.7c-1.39-1.47-4.2-1.68-4.2-1.68m5.49,2.72-.69-.54V27l-3.44-3,.52-.48,3.61,3.25Z" transform="translate(0 -4.25)"/><path class="cls-110" d="M120,21.92a23.27,23.27,0,0,1-8.17,2.94A1.9,1.9,0,0,1,112,26V36.27l-.41,1.57,5.69,3.86s6.7-5.56,6.7-5.58c.29-.66-.3-.4-.3-.4l-3,2.25S118,36,117.19,35.4s-.13-1.79-.13-1.79,7.13-5.84,7.47-6.16a.52.52,0,0,0,.11-.67Zm-2,18.51-.68.58-4.75-3.39V25.3l.82-.19v12Zm-1-7.89V25.7l3.63,4Zm4.32-3.3-4.45-4.74.92-.38,4.18,4.51Z" transform="translate(0 -4.25)"/><path class="cls-110" d="M110,24.89,106.43,22l-4.35,3.1V16.78a5.14,5.14,0,0,1,1-2.23,4.51,4.51,0,0,0-2.82,2.32s-1.95-2.6-4.2-2.65A34.77,34.77,0,0,1,96.78,20V34.75s-.28,2.35-1.63,2.77l4.21,4.07L102.13,39V26.2s.14-.52.93.14a22.38,22.38,0,0,1,1.84,1.81v9.6s-.12,6.4-1.24,7.39A9.08,9.08,0,0,0,108.41,42c1.86-2.51,1.58-6.67,1.58-6.67ZM99.27,40.8s-3.1-3.13-3.09-3.14a5.29,5.29,0,0,0,1-3.19V19.94s0-.59,0-1.06-.28-3.25-.28-3.25a13.75,13.75,0,0,1,1,4.91V35a9.7,9.7,0,0,1-.17,1.63,7.08,7.08,0,0,1-.41,1l2.51,2.6Zm6.9.16a3.75,3.75,0,0,1-1.16,2.3,16.27,16.27,0,0,0,.31-2.06c.07-.94.1-2.76.1-2.76l0-10.51-2.29-2.43.73-.52,2.33,2.46Z" transform="translate(0 -4.25)"/><path class="cls-110" d="M82,36l5.6-4.13V22.07a.56.56,0,0,1,.62-.56,7,7,0,0,0,3.24-.72,7.17,7.17,0,0,0,3.86-6.21,7,7,0,0,1-4.24,1.82c-1.81.23-5.87-1.37-8.32-1.89s-4-.94-6.59,0a5.56,5.56,0,0,0-3.94,5.3,1.91,1.91,0,0,1,1-1.48c.93-.49,4,.35,5.7,1,1.09.41,3.18,1,4.74,1.5h0s.13.06.14.15a.3.3,0,0,1,0,.17L80.41,24.8s-.21.25,0,.43.39,0,.39,0L81.88,24V35.28a.28.28,0,0,1-.2.14,1.09,1.09,0,0,1-.77-.14,12.5,12.5,0,0,1-2.06-1.8,13.49,13.49,0,0,1-2.46-3.91,10.41,10.41,0,0,1-.53-4.85,35.81,35.81,0,0,1,1.19-4.54c-5.17,2.61-5.56,8.05-5.45,10.09a12.73,12.73,0,0,0,5,9.39s4.39,3.47,9.73,1.92a11.33,11.33,0,0,0,7.11-6.39A13.49,13.49,0,0,1,86.52,37,11.16,11.16,0,0,1,82,36m-3.88-17.7a13.19,13.19,0,0,0-4.26-.66,7.27,7.27,0,0,1,4.42.15C90.26,21.72,93.38,19,93.38,19c-4.21,4-12.78,0-15.22-.7m4.55,5.3.82-.87v11.4l-.82.6ZM74.81,37.3a11,11,0,0,1-.68-13.83S70,31.09,75.88,37c4.84,4.92,11.3,3.63,14.63,1.54,0,0-8.64,6.67-15.7-1.26" transform="translate(0 -4.25)"/><path class="cls-110" d="M141.71,14.46l-7,7.41a.26.26,0,0,0,0,.38c.17.16.39,0,.39,0l1.1-1.16V37.17s-.22.43-.75-.15-7.92-9.59,2.07-21.81c0,0-10.8,3.8-10.29,14.28.5,10.2,9.1,12,12.23,12,1.48,0,11-.6,12.64-12.15.62-4.33-1.61-13.68-10.45-14.86m-3.8,5.27V36l-.82.6v-16Zm1.23,21.13A11.28,11.28,0,0,1,128,29.41,11.64,11.64,0,0,1,128.9,25l0,0a12.06,12.06,0,0,0-.53,3.53A11.56,11.56,0,0,0,139.86,40.2a11.33,11.33,0,0,0,6.28-1.89,10.91,10.91,0,0,1-7,2.55M140.27,39a7,7,0,0,1-3.85-1.17L142,33.64V19c3.75,1,6.53,5,6.53,9.92,0,5.59-3.7,10.13-8.27,10.13" transform="translate(0 -4.25)"/></g></g></svg>