<svg xmlns="http://www.w3.org/2000/svg" viewBox="0 0 293.81 29.4"><defs><style>.cls-1{fill:#231f20;}.cls-2{fill:none;}</style></defs><title>beaufort-gazette</title><g id="Layer_2" data-name="Layer 2"><g id="hhi_beaufort" data-name="hhi beaufort"><path class="cls-1" d="M51.78,21.31A10.41,10.41,0,0,0,58.29,16l.53.14a11.08,11.08,0,0,1-10.71,8.43c-6,0-10.78-4.41-10.78-10.14A12,12,0,0,1,40.1,6.86a15.33,15.33,0,0,1,3.7-3.15,9.52,9.52,0,0,0-1.57-.14c-3,0-5.07,1.47-6.44,4.51l-.52-.24C36.35,3.25,39.5.59,43.88.59a26.79,26.79,0,0,1,4,.39l2.38.39,1.79.27a21.4,21.4,0,0,0,2.66.25A3.9,3.9,0,0,0,58.29,0l.53.17C58.57,3.15,56.4,5,53.08,5c-.21,0-.81-.07-1.3-.1ZM42.58,5.84a11.82,11.82,0,0,0-2.13,6.62,9.22,9.22,0,0,0,3.22,7c1.4-1,1.54-1.47,1.54-5.11V3.71A6.41,6.41,0,0,0,42.58,5.84Zm6.12-1.5v8.82c0,3.15-.28,3.57-4,6.58L44.4,20a8.54,8.54,0,0,0,5,1.54A10.29,10.29,0,0,0,51,21.41V4.79C50,4.62,49.72,4.55,48.7,4.34Z"/><path class="cls-1" d="M59.62,22.32,61,21.14V4.79a3.7,3.7,0,0,0-1.5-3.49L59.8.84a7.6,7.6,0,0,1,2.55,1.75A6,6,0,0,1,66.41.49l.21.42c-1.68,1-2.07,1.75-2.07,3.81V11l4.87-4c2.1,1.54,2.45,2.31,2.45,5.22v7c0,3.53-.81,5.42-3,7a26.93,26.93,0,0,1-6.37,3.12l-.21-.63.42-.21c4.86-2.21,5.6-3.22,5.6-7.74V12.35c0-1.5-.18-1.92-1.12-2.69l-2.63,2.13v9.35l1.09,1.29-3.08,2.31Z"/><path class="cls-1" d="M79.39,24.74A15.69,15.69,0,0,0,74,22.5v-.35C75,21.62,75.19,21,75.19,19V12.81c0-1.72-.14-2-1-2H74l-.18-.39.42-.17A51.93,51.93,0,0,0,80.69,7L85,12.49l-6.34,5.29V21c1.3.63,1.72.84,3,1.54l2.52-1.72.35.49Zm2.77-11.06L78.62,9.13v7.49Z"/><path class="cls-1" d="M116.73,6.93,113,9.69l4.2,2v.49c-.53.32-.6.53-.6,1.82v6.65a18.45,18.45,0,0,0-9.52,4.06,10.68,10.68,0,0,0-6.5-2.07c-3.08,0-5.53,1.12-5.53,2.56,0,.38.63,1.19.63,1.61a1,1,0,0,1-1,1c-.7,0-1.19-.67-1.19-1.54,0-1.36.63-2.07,2.28-3.64s2.31-2.59,2.31-3.5a1.57,1.57,0,0,0-1.54-1.5c-.88,0-1.44.52-1.72,1.57h-.63A3.4,3.4,0,0,1,98,15.61c.14-2.56-1.4-3.29-2.48-3.29a2.24,2.24,0,0,0-2.14,1.43l-.66-.14c.35-2.27,1.57-3.53,3.43-3.53a6.28,6.28,0,0,1,1.61.21c.17-3.5,1-4.83,4.34-7a11.22,11.22,0,0,1-3.22.59c-1.47,0-2.84-.63-3.57-.63-1,0-1.75.81-1.93,2.14h-.8c.35-3,2-4.76,4.34-4.76,1.92,0,3.78.88,5.74.88a7.91,7.91,0,0,0,3.74-.95l.56.81c-5.36,2.51-5.74,4.33-5.74,7.66v6.12c0,3-.42,4.1-2.52,6.09,3.36-1.26,4.48-2.94,4.48-6.58V9.59c0-5.46.88-6.34,8.75-9.1Zm-8,.77v4.16l5-3.67-4.3-5.88c-2.21.77-2.77,1.64-2.77,4.37v6.41c0,4.13-.91,5.39-5,7.56a10.44,10.44,0,0,1,6.37.1V7.7Zm4.38,6.37V13.4l-3.08-1.54-1.3,1v1.33A5.92,5.92,0,0,0,113.16,14.07Zm0,3.29V14.91a6.94,6.94,0,0,1-4.38,0v2.45A7.4,7.4,0,0,1,113.16,17.36Zm-2.91,4.3a16.07,16.07,0,0,1,2.91-1.08V18.2a6.32,6.32,0,0,0-4.38,0V21A13.56,13.56,0,0,1,110.25,21.66Z"/><path class="cls-1" d="M124.39,24.74A15.69,15.69,0,0,0,119,22.5v-.35c.91-.53,1.15-1.15,1.15-3.15V12.81c0-1.72-.14-2-1-2H119l-.18-.39.42-.17A51.78,51.78,0,0,0,125.68,7L130,12.49l-6.33,5.29V21c1.29.63,1.71.84,3,1.54l2.52-1.72.35.49Zm2.76-11.06-3.53-4.55v7.49Z"/><path class="cls-1" d="M139.68,24.74a5.17,5.17,0,0,1-2.1-3.74L133,24.74a7.19,7.19,0,0,1-1.47-1.37,5.52,5.52,0,0,1-1.22-3.25c0-1.75.91-3.57,2.9-5.84l.39-.46-3-5.35c.35,0,.73,0,.91,0A6.27,6.27,0,0,0,135.55,7a11.41,11.41,0,0,0,4.73,1.54,2.1,2.1,0,0,0,1.61-.8l.42.31c-1.09,1.68-1.26,2.31-1.26,5.15v6a5,5,0,0,0,.24,2.13.91.91,0,0,0,.73.46c.25,0,.43-.11,1-.46l.35.46Zm-8-15.64,2.59,4.65,3.32,1.44V11Zm2.27,5.25a10,10,0,0,0-.77,3.67c0,1.47.6,2.52,2.17,3.92l2.24-1.79V15.89Z"/><path class="cls-1" d="M146.85,7l2.91,2.56-1.19,1v10l1.57,1.25,2.42-2.27v-9l-1.19-1L154.2,7l2.94,2.56-1.15,1v9.24a2.89,2.89,0,0,0,.17,1.4.85.85,0,0,0,.74.56,1.25,1.25,0,0,0,.8-.35l.49.59-3.46,2.7-.42-.32a3.61,3.61,0,0,1-1.75-3.5v-.38L148,24.74a11.52,11.52,0,0,0-3.81-2.66v-.49c.91-.35,1-.56,1-2.41V10.71l-.73-.53-.7.53-.49-.53Z"/><path class="cls-1" d="M163,24.74a10.55,10.55,0,0,0-4.19-2.56v-.42c.91-.49,1.12-1.08,1.12-3.11V9.59h-1.37V7.73h1.37V3.36c.63-.42,1-.7,1.82-1.33s1.12-.91,1.75-1.44l3.39.88-.6,2.69-2.9-.73v4.3h2.31V9.59h-2.31V20.82c.77.56,1,.74,1.75,1.36l1.08-.83.46.41Z"/><path class="cls-1" d="M178.31,21.1V22a18.14,18.14,0,0,0-5.07,2.77,11.35,11.35,0,0,0-6.37-2.66v-.42c.84-.59,1-1.08,1-3.85V9.87A13.14,13.14,0,0,0,172.78,7a14.84,14.84,0,0,0,5.53,2.52Zm-7.07-.77,3.64,1.61V11.34l-3.64-1.58Z"/><path class="cls-1" d="M183.14,7a4.85,4.85,0,0,1,2.48,2.77l3.19-2.87,2.52,3.15-2.42,2.17-2.06-2.56-1.37,1.23v9.83L187.16,22l1.65-1.29.45.56-4.2,3.43a8.29,8.29,0,0,0-4.3-2.56v-.34C181.7,21.2,182,20.61,182,19V12c0-1.44-.13-1.75-.87-2.35l-1,.84-.38-.49Z"/><path class="cls-1" d="M196.61,2.48V7.73h2.91V9.62h-2.91V20.75A13.49,13.49,0,0,1,198.26,22l1.08-.9.52.59-3.7,3.08a9.05,9.05,0,0,0-4.1-2.49V21.8c1-.7,1.12-1.08,1.12-3.32V9.62h-1.54V9Z"/><path class="cls-1" d="M224,7.24c4.94.39,6.62,3.75,6.62,6.58,0,5.49-6.41,10.81-13,10.81-5.49,0-9.55-3.74-9.55-8.81,0-2.28.52-5.43,5.11-9.49,2-1.71,4.09-3.5,7.06-5.84a15.55,15.55,0,0,0,7.35,2.31,6.28,6.28,0,0,0,1.51-.18l.21.42Zm-12.66,6.41a9.93,9.93,0,0,0,1.85,5.81c1.05-1.19,1.16-1.51,1.16-4v-9A9.74,9.74,0,0,0,211.31,13.65Zm6.44-1.4v2.62c0,2-.08,2.07-2.52,4l-1.51,1.18a8.26,8.26,0,0,0,6,3v-12A9.78,9.78,0,0,0,217.75,12.25Zm6.85-6.62a53,53,0,0,1-6.85-2.3v7.76Zm3.15,8.93a5,5,0,0,0-5-4.2,5.88,5.88,0,0,0-2.24.45v3.75A6,6,0,0,0,227.75,14.56Zm-.7,4.16a7.52,7.52,0,0,0,.77-3.25c-2.83,1.71-5.25,1-7.31,0v3.25A6.48,6.48,0,0,1,227.05,18.72Zm-.35.7a5.72,5.72,0,0,0-6.19.28v3.39A7.16,7.16,0,0,0,226.7,19.42Z"/><path class="cls-1" d="M241.15,24.74a5.17,5.17,0,0,1-2.1-3.74l-4.61,3.74A6.93,6.93,0,0,1,233,23.37a5.47,5.47,0,0,1-1.23-3.25c0-1.75.91-3.57,2.91-5.84l.38-.46-3-5.35c.35,0,.74,0,.91,0A6.25,6.25,0,0,0,237,7a11.41,11.41,0,0,0,4.73,1.54,2.1,2.1,0,0,0,1.61-.8l.42.31c-1.09,1.68-1.26,2.31-1.26,5.15v6a5,5,0,0,0,.24,2.13.92.92,0,0,0,.74.46c.24,0,.42-.11,1-.46l.35.46Zm-8-15.64,2.59,4.65,3.32,1.44V11Zm2.28,5.25a10,10,0,0,0-.77,3.67c0,1.47.59,2.52,2.16,3.92l2.24-1.79V15.89Z"/><path class="cls-1" d="M248.57,7l1.58,1.26c.94.81,1.47,1.12,1.89,1.12a2.63,2.63,0,0,0,.48-.07l.29.39-4.48,4.69c.38,0,.7-.07.84-.07a4.37,4.37,0,0,1,4.48,4.37,4.66,4.66,0,0,1-1.37,3.22,11.26,11.26,0,0,1-3.15,2.24c-2.06,1.19-2.55,1.68-2.55,2.59a1.21,1.21,0,0,0,1.19,1.29c.1,0,.21,0,.28,0l.45-.14a1.5,1.5,0,0,1,.42,0c.35,0,.6.18.6.46,0,.45-.46.77-1.19.77a2.46,2.46,0,0,1-2.56-2.42,2.94,2.94,0,0,1,.74-1.89,10.79,10.79,0,0,1,1.29-1.26c1.54-1.36,2.1-2.41,2.1-3.77a2.56,2.56,0,0,0-2.52-2.8,4,4,0,0,0-2.2.7l-.46-.39,4.9-5.14-3.18-2.56-1.72,1.23-.42-.56Z"/><path class="cls-1" d="M260.19,24.74a15.65,15.65,0,0,0-5.36-2.24v-.35C255.75,21.62,256,21,256,19V12.81c0-1.72-.14-2-1.05-2h-.11l-.17-.39.42-.17A52.5,52.5,0,0,0,261.48,7l4.27,5.46-6.33,5.29V21c1.29.63,1.71.84,3,1.54L265,20.78l.35.49ZM263,13.68l-3.53-4.55v7.49Z"/><path class="cls-1" d="M271,2.48V7.73h2.9V9.62H271V20.75A14.21,14.21,0,0,1,272.68,22l1.08-.9.53.59-3.71,3.08a9.07,9.07,0,0,0-4.09-2.49V21.8c1-.7,1.12-1.08,1.12-3.32V9.62h-1.54V9Z"/><path class="cls-1" d="M279.36,2.48V7.73h2.91V9.62h-2.91V20.75A13.49,13.49,0,0,1,281,22l1.08-.9.53.59-3.71,3.08a9.05,9.05,0,0,0-4.1-2.49V21.8c1-.7,1.12-1.08,1.12-3.32V9.62H274.4V9Z"/><path class="cls-1" d="M288.25,24.74a15.69,15.69,0,0,0-5.35-2.24v-.35c.91-.53,1.15-1.15,1.15-3.15V12.81c0-1.72-.14-2-1.05-2h-.1l-.18-.39.42-.17A51.93,51.93,0,0,0,289.55,7l4.26,5.46-6.33,5.29V21c1.3.63,1.72.84,3,1.54L293,20.78l.35.49ZM291,13.68l-3.54-4.55v7.49Z"/><path class="cls-2" d="M22.19,12a2.93,2.93,0,1,0,2,3.61A2.93,2.93,0,0,0,22.19,12Z"/><path class="cls-2" d="M28.69,14.42V13.36l-.29-.06C28.44,13.62,28.59,14,28.69,14.42Z"/><path d="M10.63,24.58l3.46-2a5.86,5.86,0,0,0,3.53,2.89c1.55.44,3.65.31,4.16-1.48s-1-3-2.64-3.47a11.2,11.2,0,0,0-3.86-.37l.77-1.33a6.1,6.1,0,0,1-1.49-2,8.41,8.41,0,0,1-9.64,3.78A9.24,9.24,0,0,1,0,17.46V29.4H16.86l-.21-.06A9.51,9.51,0,0,1,10.63,24.58Z"/><path d="M5.52,4.71A5.28,5.28,0,0,1,10,4.31a7.9,7.9,0,0,1,5.53,5.94,7,7,0,0,1,7.6-2.15c.87.24,2,.86,3.33,1.31a10.47,10.47,0,0,0,2.27.44V.69H6.61l-1.15,4Z"/><path d="M28.52,17a4.69,4.69,0,0,1-3.73,3.44c1.53,1.73,2.11,3.22,1.44,5.51a5,5,0,0,1-3.46,3.43H28.7V16.3A6.13,6.13,0,0,1,28.52,17Z"/><polygon points="0 0.69 0 6.17 1.58 0.69 0 0.69"/><path d="M2.93,11.13A4,4,0,0,1,8,8.42,4,4,0,1,1,5.75,16.1,4,4,0,0,1,2.93,11.13Z"/><path d="M24.18,15.64a2.91,2.91,0,1,1-2-3.61A2.95,2.95,0,0,1,24.18,15.64Z"/></g></g></svg>