<?xml version="1.0" encoding="utf-8"?>
<!-- Generator: Adobe Illustrator 23.0.6, SVG Export Plug-In . SVG Version: 6.00 Build 0)  -->
<svg version="1.1" id="Art" xmlns="http://www.w3.org/2000/svg" xmlns:xlink="http://www.w3.org/1999/xlink" x="0px" y="0px"
	 viewBox="0 0 512 512" style="enable-background:new 0 0 512 512;" xml:space="preserve">
<style type="text/css">
	.st0{fill:#80A27B;}
	.st1{fill:#FFFFFF;}
	.st2{fill:#F7C421;}
</style>
<g>
	<rect class="st0" width="512" height="512"/>
	<g>
		<path class="st1" d="M256,34.7C173.3,32,34.7,253.3,34.7,253.3h442.7C477.3,253.3,338.7,32,256,34.7z"/>
		<path class="st0" d="M198.7,149.3C157.3,148,88,258.7,88,258.7h221.3C309.3,258.7,240,148,198.7,149.3z"/>
		<path class="st0" d="M334,205.3c-20.2-0.7-54,53.3-54,53.3h108C388,258.7,354.1,204.7,334,205.3z"/>
	</g>
	<g>
		<path class="st2" d="M37.6,293h14.9v57.9H37.6V293z"/>
		<path class="st2" d="M64.3,293h19.9c14.9,0,28.5,9.9,28.5,29.2c0,19.4-13.6,28.7-28.5,28.7H64.3V293z M79.3,304.2v35.5h4
			c8.3,0,14.2-5.6,14.2-17.6c0-11.9-5.9-17.9-14.2-17.9H79.3z"/>
		<path class="st2" d="M134.7,292.6h10.8l21.2,58.3h-15l-2.9-8.5h-19.4l-2.9,8.5h-13L134.7,292.6z M139,313.9l-6.2,18.3h12.4
			L139,313.9z"/>
		<path class="st2" d="M172.8,293h14.9v22.6H206V293h15v57.9h-14.9v-24.1h-18.3v24.1h-14.9V293H172.8z"/>
		<path class="st2" d="M258.5,352.2c-14.5,0-28.5-10.4-28.5-29.9c0-19.3,14-30.6,28.5-30.6s28.5,11.2,28.5,30.6
			C287.1,341.7,273.1,352.2,258.5,352.2z M258.5,340c7.6,0,13.3-5.8,13.3-17.9s-5.7-18.2-13.3-18.2c-7.5,0-13.2,6.1-13.2,18.2
			C245.3,334.3,251,340,258.5,340z"/>
		<path class="st1" d="M63.5,432.2C49,432.2,35,421.9,35,402.3c0-19.3,14-30.6,28.5-30.6S92,382.9,92,402.3
			C92,421.7,78,432.2,63.5,432.2z M63.5,420c7.6,0,13.3-5.8,13.3-17.9s-5.7-18.2-13.3-18.2c-7.5,0-13.2,6.1-13.2,18.2
			C50.3,414.3,56,420,63.5,420z"/>
		<path class="st1" d="M123.6,420.3c5,0,8.7-2.6,8.7-10.1V373h13.6v36c0,14.9-8.7,23.1-23.1,23.1c-13.9,0-23.1-7.5-23.1-23.1v-36
			h14.9v37.3C114.8,418.1,118.6,420.3,123.6,420.3z"/>
		<path class="st1" d="M167.5,384.2h-14.7V373h44.3v11.2h-14.7v46.7h-14.9L167.5,384.2L167.5,384.2z"/>
		<path class="st1" d="M204.6,373h19.9c14.9,0,28.5,9.9,28.5,29.2c0,19.4-13.6,28.7-28.5,28.7h-19.9V373z M219.5,384.2v35.5h4
			c8.3,0,14.2-5.6,14.2-17.6c0-11.9-5.9-17.9-14.2-17.9H219.5z"/>
		<path class="st1" d="M287.8,432.2c-14.5,0-28.5-10.4-28.5-29.9c0-19.3,14-30.6,28.5-30.6s28.5,11.2,28.5,30.6
			C316.4,421.7,302.4,432.2,287.8,432.2z M287.8,420c7.6,0,13.3-5.8,13.3-17.9s-5.7-18.2-13.3-18.2c-7.5,0-13.2,6.1-13.2,18.2
			C274.6,414.3,280.3,420,287.8,420z"/>
		<path class="st1" d="M351.3,432.2c-14.5,0-28.5-10.4-28.5-29.9c0-19.3,14-30.6,28.5-30.6s28.5,11.2,28.5,30.6
			C379.9,421.7,365.9,432.2,351.3,432.2z M351.3,420c7.6,0,13.3-5.8,13.3-17.9s-5.7-18.2-13.3-18.2c-7.5,0-13.2,6.1-13.2,18.2
			C338.1,414.3,343.8,420,351.3,420z"/>
		<path class="st1" d="M389,373h23.7c10.4,0,19,6,19,18.2c0,8.1-4.8,13.4-10.7,16l13.3,23.7h-15.9l-12.2-21.8h-2.3v21.8H389V373z
			 M403.9,384.1v15.5h6c4.5,0,7.3-2.9,7.3-8c0-5-2.9-7.5-7.3-7.5H403.9z"/>
		<path class="st1" d="M458.7,384c-3.7,0-6.7,1.2-6.7,4.5c0,3.6,6.4,5,12.1,7.4c6.3,2.8,12.8,7.3,12.8,16.9c0,12.1-8.2,19-21.5,19
			c-9.1,0-14.2-2.1-18.4-5l3.9-11.8c3.9,2.6,7.7,4.6,14.1,4.6c5.6,0,8.1-1.8,8.1-4.8c0-4.8-5.1-5.7-11.2-8.4
			c-5.7-2.5-13.3-6.9-13.3-16.6c0-10.8,7.2-17.9,20.3-17.9c7.7,0,12.8,1.9,16.3,4l-3.6,11.5C469.1,385.8,463.9,384,458.7,384z"/>
	</g>
</g>
</svg>
