<svg xmlns="http://www.w3.org/2000/svg" viewBox="0 0 512 512">
  <title>idaho-statesman</title>
  <g id="Layer_2" data-name="Layer 2">
    <g id="Art">
      <g>
        <path d="M50.7,200V187h4.6c3.2,0,5.3-.5,6.2-1.5s1.4-3.4,1.4-7.2V121.8c0-3.9-.5-6.4-1.4-7.3s-3-1.4-6.2-1.4H50.7V100h78.2v40.9H118a85.4,85.4,0,0,0-2-14.9,20.2,20.2,0,0,0-4.1-8.3,11.2,11.2,0,0,0-5.7-3.6c-2.3-.7-6.8-1-13.3-1H86.3v28.5h.9c3.9,0,6.6-1.1,8.1-3.2s2.3-6.2,2.3-11.9v-.7H108v45.6H97.6c-.1-6.5-.8-10.9-2.2-13.3s-3.8-3.6-7.2-3.6H86.3v23.6c0,3.8.5,6.2,1.4,7.2s3,1.5,6.3,1.5h5.3v13Z" fill="#fff"/>
        <path d="M132,200V188h3.7c2.4,0,4-.5,4.8-1.4s1.2-2.8,1.2-5.6V148.7c0-2.8-.4-4.7-1.2-5.6s-2.4-1.4-4.8-1.4H132v-12h29.5v7a23.6,23.6,0,0,1,7-6.8,15.6,15.6,0,0,1,7.9-2.3,13.4,13.4,0,0,1,10.5,4.4c2.5,3,3.8,7,3.8,12s-1,7.8-3,10.4a9.8,9.8,0,0,1-8.1,3.9,8,8,0,0,1-6.4-3,11.2,11.2,0,0,1-2.6-7.6,9.4,9.4,0,0,1,1.6-5.7,8.3,8.3,0,0,1,4.5-3.4l-2-.9a4.7,4.7,0,0,0-1.6-.2c-3.1,0-5.6,1.9-7.6,5.9s-3,9-3,15.2V181c0,2.8.4,4.7,1.1,5.6s2.3,1.4,4.7,1.4h5v12Z" fill="#fff"/>
        <path d="M236.3,176.3h14.8c-1.8,8.8-5.3,15.3-10.3,19.8s-10,6.6-18,6.6-18.5-3.4-24.3-10.2-8.6-15.7-8.6-26.8,2.8-21.1,8.3-27.9,13.1-10.2,22.7-10.2,17.5,3.3,23,10,8.2,15.9,8.2,27.8V168H211.7v1.2c0,6.5,1,11.3,3,14.5a10,10,0,0,0,9,4.9,12.2,12.2,0,0,0,8.8-3.2C234.7,183.2,235.9,180.2,236.3,176.3ZM212,155.9h19.1v-.6c0-5-.8-8.7-2.5-11.2a7.9,7.9,0,0,0-7.2-3.9,7.7,7.7,0,0,0-6.9,4C212.9,147,212.1,150.9,212,155.9Z" fill="#fff"/>
        <path d="M264.1,200.8h-8.8V174.6h9.8a23.2,23.2,0,0,0,7,11.2,17.3,17.3,0,0,0,11.2,4,11.6,11.6,0,0,0,6.7-1.7,5.8,5.8,0,0,0,2.4-4.9,4.7,4.7,0,0,0-1.6-3.7c-1-.9-3.7-2.1-7.9-3.4l-2.9-.9c-9.5-3-15.8-5.9-19-8.7a17.2,17.2,0,0,1-4.8-6.7,23.9,23.9,0,0,1-1.7-8.9c0-7.2,2.5-13,7.3-17.3s11.4-6.6,19.5-6.6a34,34,0,0,1,10.2,1.5,35.7,35.7,0,0,1,9.8,4.5l1.3-4h8.9v22.4h-8.9a24.3,24.3,0,0,0-8-9,18.8,18.8,0,0,0-10.6-3.1,8.2,8.2,0,0,0-5.6,1.7,5.8,5.8,0,0,0-2,4.6c0,3.4,4.8,6.5,14.3,9.3l6.2,1.9c5.6,1.9,10,4.6,13.1,8.4a19.9,19.9,0,0,1,4.6,13.2,22.2,22.2,0,0,1-7.7,17.5c-5.1,4.5-11.7,6.7-20,6.7a32.1,32.1,0,0,1-10.2-1.7,50.9,50.9,0,0,1-10.8-5.3Z" fill="#fff"/>
        <path d="M316.3,200V188h3.4c2.4,0,3.9-.5,4.7-1.4s1.2-2.8,1.2-5.6V148.7c0-2.8-.4-4.7-1.2-5.6s-2.3-1.4-4.7-1.4h-3.4v-12h29.1v10.9a27.9,27.9,0,0,1,9-9.6,22.7,22.7,0,0,1,11.8-3.2c7.1,0,12.1,1.9,15.1,5.8s4.4,10.6,4.4,20.2V181c0,2.8.4,4.7,1.1,5.6s2.4,1.4,4.8,1.4h2.8v12H357.9V188h1.4c2.3,0,3.9-.5,4.6-1.4s1.2-2.8,1.2-5.6V153.8c0-4.2-.7-7.4-2.2-9.5a7.3,7.3,0,0,0-6.5-3.2,8.3,8.3,0,0,0-7.4,4.2c-1.7,2.7-2.6,6.7-2.6,11.8V181c0,2.8.4,4.7,1.1,5.6s2.3,1.4,4.7,1.4h1.2v12Z" fill="#fff"/>
        <path d="M393.2,164.9c0-11.7,3.1-21,9.1-27.7S416.7,127,427.2,127s18.9,3.4,25,10.2,9.1,16,9.1,27.7-3,20.9-9.1,27.6-14.4,10.1-25,10.1-18.9-3.4-24.9-10.1S393.2,176.6,393.2,164.9Zm22.5,0c0,9.4.8,15.9,2.5,19.5a9.3,9.3,0,0,0,9,5.4q6.4,0,9-5.4c1.8-3.6,2.6-10.1,2.6-19.5s-.8-16.1-2.6-19.7-4.7-5.3-9-5.3-7.2,1.7-9,5.3S415.7,155.4,415.7,164.9Z" fill="#fff"/>
        <path d="M52.1,407.2V382.5h8.7q9.2,0,11.7-2.7c1.7-1.9,2.5-6.4,2.5-13.6V259.9c0-7.3-.8-11.8-2.5-13.6s-5.6-2.7-11.7-2.7H52.1V218.9h91.8c20.5,0,35.6,3.6,45.1,10.7s14.4,18.3,14.4,33.5q0,15.6-8.4,27t-24.3,17.4c13.8,3.5,24,9.3,30.7,17.1s10,18.2,10,30.9c0,18.5-5.3,31.7-16.1,39.7s-28.7,12-54,12Zm67-110.2h10.5c10.4,0,18-2.1,22.8-6.5s7.1-11.3,7.1-20.9-2.3-15.7-6.8-19.8-11.9-6.2-22.2-6.2H119.1Zm0,85.5h12.3c11.7,0,20.2-2.4,25.5-7.3s8-12.5,8-23-2.7-18.9-8-23.8-13.9-7.5-25.7-7.5H119.1Z" fill="#fff"/>
        <path d="M307.2,362.6l27.9-.2c-3.5,16.4-10,28.8-19.4,37.1S294.1,412,279,412q-26.5,0-42.9-19.2t-16.3-50.3q0-33.3,15.7-52.5c10.5-12.8,24.7-19.3,42.6-19.3s33,6.3,43.3,18.8,15.5,30,15.5,52.5v5h-76v2.2c0,12.1,1.9,21.2,5.6,27.2s9.5,9.1,17,9.1,12.4-2,16.5-6S306.5,369.9,307.2,362.6Zm-45.9-38.5,36,.2v-1.1c0-9.3-1.5-16.4-4.6-21.2s-7.6-7.2-13.7-7.2-9.8,2.6-12.9,7.6S261.5,314.6,261.3,324.1Z" fill="#fff"/>
        <path d="M431.2,362.6l27.9-.2c-3.5,16.4-10,28.8-19.4,37.1S418.1,412,403.1,412q-26.7,0-43-19.2t-16.3-50.3q0-33.3,15.7-52.5c10.5-12.8,24.7-19.3,42.6-19.3s33,6.3,43.3,18.8,15.5,30,15.5,52.5v5h-76v2.2c0,12.1,1.9,21.2,5.7,27.2s9.4,9.1,16.9,9.1,12.5-2,16.5-6S430.5,369.9,431.2,362.6Zm-45.8-38.5,35.9.2v-1.1c0-9.3-1.5-16.4-4.6-21.2s-7.6-7.2-13.6-7.2-9.9,2.6-12.9,7.6S385.5,314.6,385.4,324.1Z" fill="#fff"/>
      </g>
      <g>
        <rect width="512" height="512" fill="#1e415f"/>
        <path d="M109.5,249.6v-111h26.6v111Z" fill="#fff"/>
        <path d="M191.6,249.6l-1.1-7.6c-5,5-11,9.2-19.2,9.2-14.6,0-24.6-12.2-24.6-37.2,0-30.7,14.5-43.7,33.3-43.7a29,29,0,0,1,8.1,1V137l23.3-3.5V249.6Zm-3.5-59.4a10.1,10.1,0,0,0-4.7-1.1c-8.4,0-13.7,6.8-13.7,22.5s4.2,18.7,10.3,18.7c2.6,0,5.5-1.5,8.1-3.9Z" fill="#fff"/>
        <path d="M258.2,249.6l-1.3-8.1c-5.5,5.7-11.6,9.5-19.5,9.5-10.6,0-18.1-6.9-18.1-21.2,0-17.5,13.3-26.4,35.7-29.9V197c0-7.1-2.9-9.6-9.7-9.6-4.7,0-10.8,1.9-18.6,5.9l-2.9-18c8.6-3.5,16.7-5.8,27.9-5.8,18.4,0,26.4,7.6,26.4,26.4v53.7ZM255,211.9c-10.5,3.3-14.2,8.4-14.2,14.8s2.4,7.6,5.8,7.6,5.5-1.5,8.4-4.2Z" fill="#fff"/>
        <path d="M326,249.6V195.7c0-3.4-1.8-5.8-5.1-5.8s-6.3,1.8-9.4,4.2v55.5H288.2V137l23.3-3.5v43.7c5.3-4.5,11.6-8,18.9-8,13,0,18.9,7.2,18.9,20.1v60.3Z" fill="#fff"/>
        <path d="M390.3,251.2c-19.8,0-33.1-14.2-33.1-40.9s13.5-41.1,33.3-41.1,33.1,14.5,33.1,41S410.1,251.2,390.3,251.2Zm0-62.7c-6.9,0-10.1,8.2-10.1,21.7s3.4,21.7,10.3,21.7,10.1-8.1,10.1-21.6S397.4,188.5,390.3,188.5Z" fill="#fff"/>
        <path d="M52.9,351.2a56.7,56.7,0,0,1-24.5-5.3l2.7-17c7.5,3.9,13.7,6.1,19.8,6.1s8.2-2.6,8.2-6.6-3.1-7.7-12.2-13.7S29.5,302,29.5,289.6c0-14.4,9.8-24,25-24a45.6,45.6,0,0,1,20,4.1l-2.6,17.1c-6.2-3.6-11-5-15.9-5s-6.6,2.7-6.6,5.9,2.9,6.6,11.5,12.1S79,313.4,79,326.6C79,342.3,68.4,351.2,52.9,351.2Z" fill="#fff"/>
        <path d="M107.3,351.2c-13.1,0-19-4.6-19-19.3V305.7H81.5V290.8h6.8v-18l16.9-2.8v20.8h9.4l2.4,14.9H105.2v24.1c0,4.2,1.5,6.1,5.5,6.1a29.4,29.4,0,0,0,4.4-.3l2.3,14.4A42.1,42.1,0,0,1,107.3,351.2Z" fill="#fff"/>
        <path d="M150,350.3l-.9-6.1c-4.2,4.2-8.8,7.1-14.7,7.1-8,0-13.7-5.2-13.7-16,0-13.2,10.1-19.8,26.9-22.5v-2.2c0-5.3-2.2-7.3-7.3-7.3-3.5,0-8.1,1.5-14,4.5l-2.2-13.6a52.9,52.9,0,0,1,21.1-4.3c13.8,0,19.9,5.7,19.9,19.8v40.6Zm-2.4-28.4c-7.9,2.4-10.7,6.3-10.7,11.1s1.9,5.7,4.4,5.7,4.1-1.1,6.3-3.1Z" fill="#fff"/>
        <path d="M195.3,351.2c-13.1,0-19.1-4.6-19.1-19.3V305.7h-6.8V290.8h6.8v-18l16.9-2.8v20.8h9.4l2.5,14.9H193.1v24.1c0,4.2,1.6,6.1,5.6,6.1a29,29,0,0,0,4.3-.3l2.3,14.4A41.9,41.9,0,0,1,195.3,351.2Z" fill="#fff"/>
        <path d="M254.6,325.8H225.4c1,8.4,5,12.5,11.8,12.5s10.2-1.5,15.7-4.5l1.9,12.5a41.6,41.6,0,0,1-20.7,5.2c-17,0-26.2-10.6-26.2-30.8,0-17.5,8.6-31.1,24.2-31.1s22.8,12.5,22.8,29.7C254.9,321.3,254.7,324.7,254.6,325.8Zm-22.7-24.3c-3.6,0-6.2,4-6.8,13.7h13.5C238.4,306.1,235.8,301.5,231.9,301.5Z" fill="#fff"/>
        <path d="M279.3,351.5a40.5,40.5,0,0,1-20.1-5.4l2.3-14.2c7.5,4,12.7,6,17.6,6s5.2-1.7,5.2-4-3.2-5-8.9-7.7c-8-3.6-15.2-8.3-15.2-18.8s7.1-17.8,19.5-17.8a38.2,38.2,0,0,1,17.5,4l-2.4,14.1c-7-3.3-10.8-4.4-14.3-4.4s-4.1,1.4-4.1,3.4,2.9,4.5,8.3,6.9c8.1,3.9,15.7,9,15.7,19.2S292.4,351.5,279.3,351.5Z" fill="#fff"/>
        <path d="M361.6,350.3V309.5c0-2.5-1.3-4.2-3.9-4.2s-4.4,1-6.7,3v42H333.7V309.5c0-2.5-1.3-4.2-3.9-4.2s-4.3,1-6.6,3v42H305.8V290.8h14.8l1.1,6.2c4.1-4,9.3-7.4,15.5-7.4s10.5,2.6,12.5,7c4.1-3.7,9.2-7,15.2-7,9.8,0,14.1,5.5,14.1,15.2v45.5Z" fill="#fff"/>
        <path d="M413.9,350.3l-.9-6.1c-4.1,4.2-8.8,7.1-14.7,7.1-8,0-13.7-5.2-13.7-16,0-13.2,10.1-19.8,26.9-22.5v-2.2c0-5.3-2.2-7.3-7.3-7.3-3.5,0-8.1,1.5-14,4.5L388,294.2a52.9,52.9,0,0,1,21.1-4.3c13.8,0,19.9,5.7,19.9,19.8v40.6Zm-2.4-28.4c-7.9,2.4-10.6,6.3-10.6,11.1s1.8,5.7,4.3,5.7,4.1-1.1,6.3-3.1Z" fill="#fff"/>
        <path d="M465.1,350.3V309.6c0-2.5-1.3-4.3-3.8-4.3s-4.8,1.3-7.1,3.1v41.9H436.6V290.8h14.9l1.1,6.3c4.3-4,9.5-7.5,15.8-7.5,9.8,0,14.3,5.5,14.3,15.2v45.5Z" fill="#fff"/>
      </g>
    </g>
  </g>
</svg>
