<svg xmlns="http://www.w3.org/2000/svg" viewBox="0 0 512 512">
  <title>herald-sun</title>
  <g id="Layer_2" data-name="Layer 2">
    <g id="Art">
      <rect width="512" height="512" fill="#333"/>
      <g>
        <path d="M170.7,147.7c-.5,14.9-14.2,20.1-23.6,12.2s-14-15.9-26.5-23-28.8-5.9-41.4.6C56.6,149.2,55.3,171.4,63,183.7s26.5,15,35.4,4.9l-.5-1.5c-6.3,6.2-15.9,8.6-23.7,4-9.6-5.7-12.8-25.7,1-30.7,20-7.2,31.4,17.2,48.5,25s29.5,1.5,38.4-10a49.9,49.9,0,0,0,10.3-27.3Z" fill="#fff"/>
        <path d="M129.9,201.7c12.7-10.4,23-10.9,36.4-22.5V312c0,9.6,10.6,13,9.6,13.4-22.3,7.7-32.6,14.8-50.4,34-9.2-7.9-46.1-45.3-67.5-20.2-6.9,8.1-6.6,25.4,8.2,35.5,12.4,8.4,27.2,11.7,51.5,11.2,27.7-.6,42.7-9.3,49.1-19.2a27.3,27.3,0,0,0,4.2-18.5,10.1,10.1,0,0,0,1.7-.3c2.8,20.2-7.7,34.2-24.1,43.6-23.2,13.3-52,13.8-75.2-1.9-8-5.5-14.3-11.9-18.7-20.3-11-21.1-1.6-47,20.7-56.9,20.5-9.1,34.8-5.3,54.5,5.3Z" fill="#fff"/>
        <path d="M254.7,137.4c-26.1-4.1-44.5,10-57.9,31.6-2.1-8.5-7.3-19.8-12.3-25.3l-.8,2.2c8.8,14.1,9.3,37.3,9.2,49.7,0,5.9.1,100.4,0,105.2-.1,12.1-1.9,18.7-13.2,24.5,15.7,5.3,24.9,15.2,35.9,27,12.4-11.7,24-18.8,38.3-27.8l-.3-1.3c-5,2.1-23,7.8-23-14.3V163c0-11.8,3.2-23.8,24.1-23.8Z" fill="#fff"/>
        <rect x="159.3" y="238.5" width="42.3" height="13.54" fill="#fff"/>
        <path d="M117.3,311.6V258.9c-17.9-.4-31.7.6-34.4,17.1H81.6c-.5-10.4.4-16.8,2.4-27.4,3.4-17.4,20.5-16.1,33.4-16.5v-29H121V313.3Z" fill="#fff"/>
      </g>
      <path d="M268.4,229.4a96.9,96.9,0,0,0,25.4,26.9,104.9,104.9,0,0,0-24.5,26.3c-6.5-11.1-16-21.2-24.4-26.5,6.3-3.9,19.1-17.9,23.5-26.7" fill="#fff"/>
      <g>
        <polygon points="370 140.5 370 335.6 366.5 336.2 366.5 143.6 370 140.5" fill="#fff"/>
        <path d="M325.9,357.7c-11.2-1.1-27.9-7.7-31.4-29.7-2.9-18.6,5.5-42.4,31.8-49.3,14.9-4,29.1,2,36.7,8.3,9.5,7.8,26,22.4,36,43.7,15.7-18.1,19.3-59.4,1.9-76.5-24.8-24.3-55.2-3.8-71.6,19.7-10.1-16.4-25.6-25.7-33.1-50.9-18.2-61.7,46.2-73.6,74.5-97.7,5.7,11.9,8.9,22,20,30.5s26.6-1.3,26.2-13.7c-.4-15.4-13.1-19-20.5-18.4l-.3-2.2c8.2-.9,14.9.3,20.6,4.5s11.6,11,13.6,23.9-3.2,33.3-26.8,44.6c-11.1,5.3-24.9,3.2-36.8-2.7-13.8-6.7-23.2-25.7-31.4-38.8-10.2,14.8-7.9,41.9-2.6,56.5,3.6,10,11.9,20.3,27.1,25.9,6.6,2.5,20-1.4,25.6-5.9,8.3-6.7,17.2-16.8,25.2-33.3,10.1,17.2,27.5,22.1,36.1,45.8,5.4,14.7,6,29.8,1.8,46.2-10.9,42.2-48.6,45.7-81.5,69.1-12.5-16.4-25.4-44.4-49.2-40.2C307.2,319,302.4,329,304.7,340s14.4,15.1,21.2,15.1Z" fill="#fff"/>
      </g>
    </g>
  </g>
</svg>
