<svg xmlns="http://www.w3.org/2000/svg" xmlns:xlink="http://www.w3.org/1999/xlink" viewBox="0 0 298.86 44.26"><defs><style>.cls-1,.cls-5{fill:none;}.cls-1{stroke:#fff;stroke-miterlimit:10;stroke-width:2.03px;}.cls-2,.cls-3{fill:#231f20;}.cls-3{fill-rule:evenodd;}.cls-4{fill:#0074ae;}.cls-6{clip-path:url(#clip-path);}.cls-7{fill:url(#linear-gradient);}.cls-8{fill:url(#linear-gradient-2);}.cls-9{fill:url(#linear-gradient-3);}.cls-10{fill:#fff;}</style><clipPath id="clip-path"><path class="cls-1" d="M164.73,24.06a11.44,11.44,0,1,1-11.44-11.45A11.44,11.44,0,0,1,164.73,24.06Z"/></clipPath><linearGradient id="linear-gradient" x1="172.39" y1="29.68" x2="163.75" y2="35.48" gradientUnits="userSpaceOnUse"><stop offset="0" stop-color="#228e45"/><stop offset="0.74" stop-color="#035c30"/></linearGradient><linearGradient id="linear-gradient-2" x1="147.35" y1="26.98" x2="146.65" y2="29.79" xlink:href="#linear-gradient"/><linearGradient id="linear-gradient-3" x1="152.91" y1="31.19" x2="157.96" y2="36.8" xlink:href="#linear-gradient"/></defs><title>herald-leader</title><g id="Layer_2" data-name="Layer 2"><g id="lex"><path class="cls-2" d="M93.91,36.24a4.15,4.15,0,0,0,1.94-.41,2.45,2.45,0,0,0,1-2.28V15a2.48,2.48,0,0,0-.94-2.27,4.59,4.59,0,0,0-2-.44v-1h11.57v1a4.69,4.69,0,0,0-2.7.65c-.44.39-.66,1.34-.66,2.86V33.9a2,2,0,0,0,.57,1.69,4.25,4.25,0,0,0,2.24.41,8.14,8.14,0,0,0,5-1.52q2-1.53,3.5-5.95h1l-1.34,8.68H93.91Z"/><path class="cls-3" d="M114.86,36.24a4.44,4.44,0,0,0,1.79-.41,2.25,2.25,0,0,0,1-2.11V14.82a2.26,2.26,0,0,0-.92-2.06,4.52,4.52,0,0,0-1.84-.46v-1H125q6.12,0,9.34,3.78,2.93,3.45,2.93,9.24a13.48,13.48,0,0,1-2.95,8.82,11,11,0,0,1-9,4.06H114.86Zm8.48-.86a1.6,1.6,0,0,0,1.43.53,5.89,5.89,0,0,0,4.83-2.4q1.89-2.41,1.89-9.24a21.24,21.24,0,0,0-1-7c-1.1-3.13-3-4.69-5.56-4.7a1.85,1.85,0,0,0-1.68.64,3.37,3.37,0,0,0-.26,1.59V33.68a3.69,3.69,0,0,0,.37,1.7"/><path class="cls-2" d="M28.23,37.22v-1a4,4,0,0,0,2-.45,2.46,2.46,0,0,0,.93-2.24V15a2.45,2.45,0,0,0-1-2.27,4.55,4.55,0,0,0-2-.44v-1H47.31v7.73H46.5q-.63-3.71-2.15-5.07t-5.49-1.37a3.28,3.28,0,0,0-2,.38,2,2,0,0,0-.4,1.44V23.3c1.89,0,3.16-.37,3.83-1.18a10.11,10.11,0,0,0,1.54-4.49h.84V30.57h-.84A8.88,8.88,0,0,0,40.42,26c-.72-.9-2-1.35-3.91-1.35V33.9A2.14,2.14,0,0,0,37,35.57a3.93,3.93,0,0,0,2.24.43,8.73,8.73,0,0,0,5.17-1.42q2-1.42,3.56-5.33h.92l-1.35,8Z"/><path class="cls-3" d="M70.89,35.63c.61.06,1-.64,1-.64a18.73,18.73,0,0,0,1.35-3.22l7.35-21h.92l7.39,20.13a29.55,29.55,0,0,0,1.86,4.38,1.86,1.86,0,0,0,1.75.93v1H81.82v-1a6.32,6.32,0,0,0,2.12-.32q.51-.24.51-1.23a5.36,5.36,0,0,0-.26-1.37c-.1-.36-.25-.79-.43-1.31l-.84-2.31H75.48c-.48,1.52-.8,2.51-.94,3a8.57,8.57,0,0,0-.43,2.15,1.26,1.26,0,0,0,1,1.2,5.72,5.72,0,0,0,1.7.22v1H65l-6.87-12h-.88v7.5a4.56,4.56,0,0,0,.59,2.74,3.16,3.16,0,0,0,2.32.76v1H49v-1a3.4,3.4,0,0,0,2.29-.73,4.21,4.21,0,0,0,.62-2.77V15.81c0-1.48-.25-2.45-.73-2.9A4.09,4.09,0,0,0,49,12.3v-1H59.65a14.88,14.88,0,0,1,5.37.81A5.85,5.85,0,0,1,69,18a6.29,6.29,0,0,1-2,4.92,7.11,7.11,0,0,1-3.22,1.72L70,35a.93.93,0,0,0,.86.66m11.53-7.45-3.17-8.87H79l-3,8.87ZM61.91,23q1.41-1,1.41-4.64a9.58,9.58,0,0,0-.53-3.52,3.37,3.37,0,0,0-3.37-2.19,2.62,2.62,0,0,0-1.74.4,1.63,1.63,0,0,0-.41,1.25V24A8.49,8.49,0,0,0,61.91,23"/><path class="cls-2" d="M0,36.12a4.39,4.39,0,0,0,2.06-.48,2.73,2.73,0,0,0,1-2.48V12.79a2.78,2.78,0,0,0-.9-2.42A5.49,5.49,0,0,0,0,9.81V8.75H12.31V9.81a5.09,5.09,0,0,0-2.22.5,2.71,2.71,0,0,0-1,2.48v8.72h8.66V12.79a2.72,2.72,0,0,0-1-2.46,5.43,5.43,0,0,0-2.26-.52V8.75H26.87V9.81a5.17,5.17,0,0,0-2.19.54,2.7,2.7,0,0,0-1,2.44V33.16a2.71,2.71,0,0,0,1.08,2.51,4.45,4.45,0,0,0,2.08.45v1.07H14.49V36.12a4.53,4.53,0,0,0,2.22-.5,2.72,2.72,0,0,0,1-2.46v-9.7H9.06v9.7a2.69,2.69,0,0,0,1.1,2.53,5,5,0,0,0,2.15.43v1.07H0Z"/><path class="cls-2" d="M190.05,37.22v-1a4,4,0,0,0,2-.45,2.45,2.45,0,0,0,.92-2.24V15a2.44,2.44,0,0,0-1-2.27,4.59,4.59,0,0,0-2-.44v-1h19.08v7.73h-.81q-.63-3.71-2.15-5.07t-5.5-1.37a3.24,3.24,0,0,0-1.94.38,1.92,1.92,0,0,0-.4,1.44V23.3c1.89,0,3.16-.37,3.83-1.18a10.11,10.11,0,0,0,1.54-4.49h.84V30.57h-.84a9,9,0,0,0-1.46-4.6c-.72-.9-2-1.35-3.91-1.35V33.9a2.14,2.14,0,0,0,.53,1.67,3.91,3.91,0,0,0,2.23.43,8.74,8.74,0,0,0,5.18-1.42c1.33-.95,2.52-2.73,3.55-5.33h.93l-1.35,8Z"/><path class="cls-2" d="M254.79,37.22v-1a4,4,0,0,0,2-.45,2.48,2.48,0,0,0,.92-2.24V15a2.47,2.47,0,0,0-1-2.27,4.59,4.59,0,0,0-2-.44v-1h19.07v7.73h-.81c-.42-2.47-1.13-4.16-2.15-5.07s-2.83-1.37-5.49-1.37a3.22,3.22,0,0,0-1.94.38,1.92,1.92,0,0,0-.41,1.44V23.3c1.89,0,3.17-.37,3.84-1.18a10.26,10.26,0,0,0,1.53-4.49h.84V30.57h-.84A9,9,0,0,0,267,26c-.73-.9-2-1.35-3.92-1.35V33.9a2.1,2.1,0,0,0,.54,1.67,3.89,3.89,0,0,0,2.23.43A8.73,8.73,0,0,0,271,34.58c1.34-.95,2.52-2.73,3.56-5.33h.92l-1.34,8Z"/><path class="cls-3" d="M276.07,36.26a3.43,3.43,0,0,0,2.3-.73,4.31,4.31,0,0,0,.61-2.77V15.83c0-1.48-.24-2.45-.73-2.9a4.17,4.17,0,0,0-2.18-.62v-1h10.65a14.88,14.88,0,0,1,5.37.81,5.86,5.86,0,0,1,4,5.85,6.32,6.32,0,0,1-2,4.92,7.21,7.21,0,0,1-3.22,1.72l6.66,10.91a1.52,1.52,0,0,0,.58.6,2.59,2.59,0,0,0,.76.17v.91h-6.77l-6.87-12h-.87v7.5a4.51,4.51,0,0,0,.58,2.73,3.14,3.14,0,0,0,2.33.77v1H276.07ZM289,23c.93-.68,1.4-2.22,1.4-4.64a9.55,9.55,0,0,0-.53-3.52,3.36,3.36,0,0,0-3.36-2.19,2.71,2.71,0,0,0-1.75.39,1.66,1.66,0,0,0-.4,1.26V24A8.54,8.54,0,0,0,289,23"/><path class="cls-3" d="M240.82,35.38a1.59,1.59,0,0,0,1.42.53,5.9,5.9,0,0,0,4.84-2.4Q249,31.1,249,24.27a21.24,21.24,0,0,0-1-7q-1.65-4.69-5.56-4.69-1.29,0-1.68.63a3.37,3.37,0,0,0-.26,1.59V33.68a3.69,3.69,0,0,0,.37,1.7m-17.52-7.2-3.17-8.87h-.28l-3,8.87ZM233.45,36c.83,0,.73,0,1-.17a2.48,2.48,0,0,0,1.3-2.11V14.82a2.26,2.26,0,0,0-.92-2.06A4.53,4.53,0,0,0,233,12.3v-1h10.12q6.13,0,9.35,3.78,2.92,3.45,2.92,9.24a13.53,13.53,0,0,1-2.94,8.82,11,11,0,0,1-9,4.06H222.7v-1a6.32,6.32,0,0,0,2.12-.32q.51-.24.51-1.23a5.36,5.36,0,0,0-.26-1.37c-.1-.36-.25-.79-.43-1.31l-.84-2.32h-7.44c-.48,1.53-.8,2.52-.94,3a8.57,8.57,0,0,0-.43,2.15,1.26,1.26,0,0,0,.95,1.2,5.41,5.41,0,0,0,1.7.22v1h-6.76v-1A2.41,2.41,0,0,0,212.8,35a18.73,18.73,0,0,0,1.35-3.22l7.35-21h.92l7.39,20.13c.83,2.26,1.31,3.85,1.86,4.38a1.92,1.92,0,0,0,1.78.69"/><path class="cls-2" d="M167.49,36.21a4.69,4.69,0,0,0,2.14-.46,2.68,2.68,0,0,0,1.08-2.5V12.88a2.67,2.67,0,0,0-1-2.48,4.93,4.93,0,0,0-2.19-.5V8.83h12.72V9.9a5.24,5.24,0,0,0-3,.72c-.48.43-.72,1.47-.72,3.15V33.64a2.17,2.17,0,0,0,.62,1.85,4.63,4.63,0,0,0,2.46.45,8.93,8.93,0,0,0,5.51-1.67c1.49-1.12,2.78-3.3,3.85-6.53H190l-1.48,9.54H167.49Z"/><path class="cls-2" d="M33,7c0-2.32,0-5.78,0-5.78,0-.44.12-.62.83-.62.09,0,.09-.23,0-.22s-1,0-1.58,0-1.14,0-1.3,0-.11.22,0,.22c.71,0,.8.18.8.62V6.9c0,.44-.09.62-.8.62-.09,0-.09.22,0,.22s.81,0,1.39,0l3.85,0s.52-1.1.73-1.57c0-.09-.11-.22-.21-.09a2.63,2.63,0,0,1-1.84,1.26c-.6,0-1,.06-1.46.06S33,7.22,33,7Z"/><path class="cls-2" d="M39.69,7.71H43.8s.48-.89.76-1.39c0-.07-.14-.17-.19-.09a2.79,2.79,0,0,1-2.09,1.12c-.25,0-.63,0-1,0-.64,0-.83-.22-.83-.69V4h1.66c.73,0,.91,0,1,.24a7,7,0,0,1,.11.77c0,.15.27.09.26,0,0-.36,0-.81,0-1.24s0-.88,0-1.12-.23-.19-.25,0a4,4,0,0,1-.08.55c-.05.27-.26.41-1,.41H40.78c-.33,0-.35-.06-.35-.24V.7h1.82a1.69,1.69,0,0,1,1.67,1c.09.16.23.09.2-.07C44,1.09,43.85.32,43.85.32c-1.45,0-3,0-4.16.06a11.44,11.44,0,0,1-1.32,0c-.09,0-.14.24,0,.24.8,0,.79.19.79.63V6.9c0,.49-.18.61-.79.62a.11.11,0,1,0,0,.22C38.82,7.72,39.12,7.71,39.69,7.71Z"/><path class="cls-2" d="M49.72,3.17l-1.28-2c-.2-.33-.12-.57.6-.57.15,0,.17-.23,0-.22s-1.08,0-1.66,0-1.25,0-1.42,0a.11.11,0,1,0,0,.22,1.12,1.12,0,0,1,1.09.62l1.89,3L47.19,6.82a1.67,1.67,0,0,1-1.28.7c-.13,0-.13.25,0,.24s.74-.06,1-.06l1.42,0c.17,0,.15-.22,0-.22-.85,0-.89-.35-.61-.77l1.46-2.19L50.67,7c.21.34.06.57-.63.57-.15,0-.17.24,0,.22s1.06,0,1.63,0,1.26,0,1.42,0a.11.11,0,1,0,0-.22A1.15,1.15,0,0,1,52,6.9L50,3.56s1.52-2.31,1.52-2.31a1.53,1.53,0,0,1,1.21-.7c.13,0,.13-.23,0-.22s-.74,0-1,0-1.19,0-1.42,0-.15.22,0,.22c.85,0,1,.35.68.77Z"/><path class="cls-2" d="M56.91,6.89V1.18c0-.44.14-.62.85-.62.09,0,.09-.23,0-.22s-.94,0-1.47,0-1.29,0-1.45,0-.11.22,0,.22c.71,0,.84.18.84.62V6.9c0,.44-.13.62-.84.62-.09,0-.09.22,0,.22s.86,0,1.43,0,1.34,0,1.49,0,.12-.22,0-.22C57.05,7.52,56.91,7.3,56.91,6.89Z"/><path class="cls-2" d="M66,5.93,62,.77a1.16,1.16,0,0,0-1-.44h-1.5a.12.12,0,0,0,0,.24,1.94,1.94,0,0,1,1,.39V6.73c0,.49-.13.73-1,.79-.12,0-.14.25,0,.22l1.24,0,1.29,0a.11.11,0,1,0,0-.22c-.89,0-1-.39-1-.86V1.46s3.13,3.94,5,6.39c.14.19.29.21.36-.16s.12-1.62.12-2.4V1.41c0-.59.28-.82.94-.82.11,0,.08-.23,0-.23l-1.2,0c-.29,0-.86,0-1.17,0a.13.13,0,1,0,0,.25c.51,0,.92.17.92.82Z"/><path class="cls-2" d="M73,.63a2.07,2.07,0,0,1,2,1.15c0,.27.18.35.24,0,0-.18.13-.89.13-1s-.25-.21-.45-.24A5.92,5.92,0,0,0,73,.21a4.25,4.25,0,0,0-4.09,4A3.81,3.81,0,0,0,72.83,7.8a8.06,8.06,0,0,0,2.71-.56V5c0-.32.33-.35.61-.38s.09-.25,0-.25c-.25,0-.39,0-1,0s-1.48,0-1.8,0c-.09,0-.18.22,0,.25.45,0,1,0,1,.44V7.11A3.18,3.18,0,0,1,73,7.42c-1.29,0-2.71-1.18-2.71-3.5S71.68.63,73,.63Z"/><path class="cls-2" d="M79.32.78h1.21l0,6.12c0,.4-.12.6-.87.62-.13,0-.15.22,0,.22.49,0,1,0,1.57,0s1,0,1.52,0c.15,0,.13-.22,0-.22-.64,0-.91-.06-.91-.63l0-6.11h2c.42,0,.52.21.54.43a2.69,2.69,0,0,1,0,.49c0,.22.25.18.27,0,.09-.61.14-1,.25-1.62,0-.12-.18-.18-.27,0s-.26.22-.53.22c-.51,0-1.85.08-3,.08-1,0-2-.07-2.61-.08A.5.5,0,0,1,77.9.09c-.06-.13-.22-.11-.24,0-.06.33-.16,1-.26,1.6,0,.21.18.23.24.05C77.88,1,78.51.78,79.32.78Z"/><path class="cls-2" d="M90,.57C91.8.57,92.52,2.09,92.52,4S91.74,7.5,90,7.5,87.55,6,87.55,4,88.24.57,90,.57Zm0-.32A3.79,3.79,0,0,0,86.13,4,3.68,3.68,0,0,0,90,7.8,3.8,3.8,0,0,0,93.9,4,3.69,3.69,0,0,0,90,.25Z"/><path class="cls-2" d="M102.16,5.93l-4-5.16a1.14,1.14,0,0,0-1-.44h-1.5a.12.12,0,1,0,0,.24,1.94,1.94,0,0,1,1,.39V6.73c0,.49-.12.73-1,.79-.13,0-.15.25,0,.22l1.24,0,1.29,0a.11.11,0,0,0,0-.22c-.9,0-1-.39-1-.86V1.46s3.13,3.94,5,6.39c.15.19.29.21.36-.16a22.76,22.76,0,0,0,.13-2.4V1.41c0-.59.28-.82.93-.82.12,0,.08-.23,0-.23l-1.19,0c-.3,0-.86,0-1.18,0a.13.13,0,1,0,0,.25c.51,0,.93.17.93.82Z"/><path class="cls-4" d="M164.73,24.06a11.44,11.44,0,1,1-11.44-11.45A11.44,11.44,0,0,1,164.73,24.06Z"/><path class="cls-5" d="M164.73,24.06a11.44,11.44,0,1,1-11.44-11.45A11.44,11.44,0,0,1,164.73,24.06Z"/><path class="cls-5" d="M164.73,24.06a11.44,11.44,0,1,1-11.44-11.45A11.44,11.44,0,0,1,164.73,24.06Z"/><path class="cls-5" d="M164.73,24.06a11.44,11.44,0,1,1-11.44-11.45A11.44,11.44,0,0,1,164.73,24.06Z"/><g class="cls-6"><path class="cls-7" d="M187.05,33.67c.22,5.09-5.21,4.47-12.78,4.8s-28.39,1.16-28.61-3.93,11.82-11.31,19.39-11.63S186.83,28.58,187.05,33.67Z"/><path class="cls-8" d="M162.72,33.14c1.2,5-2,5-9.35,6.74s-25.79,6.87-27,1.93,8.82-13.37,16.18-15.15S161.52,28.19,162.72,33.14Z"/><path class="cls-9" d="M180.13,39c.22,5.09-5.22,4.47-12.78,4.8s-26.64,1.77-26.86-3.32,11.24-11.42,18.8-11.74S179.91,33.93,180.13,39Z"/></g><path class="cls-1" d="M164.73,24.06a11.44,11.44,0,1,1-11.44-11.45A11.44,11.44,0,0,1,164.73,24.06Z"/><polygon class="cls-10" points="150.18 26.54 151.32 26.54 152.72 26.66 159.76 26.66 160.45 26.3 161.51 25.9 161.74 25.4 162.32 25.27 162.32 24.91 162.67 24.51 162.91 24.13 163.12 23.88 163.94 23.5 164.98 22.48 164.52 22.37 163.94 21.87 163.81 21.61 163.25 20.85 163.25 20.72 162.78 19.96 162.91 19.58 163.01 19.58 162.91 18.83 162.54 18.57 162.32 18.31 161.96 18.19 161.74 17.56 161.27 17.82 161.03 18.19 160.58 18.31 160.34 17.94 159.89 17.82 159.66 17.94 159.53 18.19 159.18 18.07 158.84 17.56 158.26 17.56 157.68 17.18 157.46 16.55 156.99 16.17 156.88 16.29 156.53 16.29 156.19 16.17 155.84 16.43 155.95 16.8 155.84 17.06 156.06 17.3 155.95 17.56 155.37 17.7 155.03 18.07 154.68 17.82 154.44 17.82 154.1 17.94 154.21 18.69 153.75 19.09 153.52 19.33 153.3 19.72 153.07 19.72 152.83 20.22 152.72 20.85 152.6 20.96 152.03 20.85 151.67 20.6 151.67 20.22 151.32 20.08 151.1 20.72 150.52 21.61 150.52 21.23 150.29 21.35 149.59 21.23 149.36 21.35 149.12 21.87 148.89 21.47 148.43 21.35 148.09 21.11 147.62 21.11 147.4 21.35 146.71 21.11 146.58 21.23 146.71 21.73 146.47 21.87 146.24 21.73 145.89 22.25 145.89 22.62 146.13 23 145.44 23.26 145.31 23.38 144.97 23.38 144.73 23.88 145.09 24.65 144.73 24.77 143.59 24.13 143.24 24.01 142.77 24.77 143 25.27 142.77 25.66 142.88 25.9 142.66 26.16 142.66 26.42 142.53 26.79 142.32 26.79 142.08 26.54 141.97 27.05 144.86 27.05 144.89 27.03 145.47 26.48 146.13 26.42 146.82 26.42 147.02 26.5 148.32 26.54 149.12 26.54 150.18 26.54"/></g></g></svg>