<svg xmlns="http://www.w3.org/2000/svg" viewBox="0 0 512 512">
  <title>centre-daily-times</title>
  <g id="Layer_2" data-name="Layer 2">
    <g id="Art">
      <rect width="512" height="512" fill="#1b5595"/>
      <g>
        <path d="M173.4,344.7v51.7a31.7,31.7,0,0,1-31.5,31.8H109.2a31.8,31.8,0,0,1-31.9-31.8V115.6a31.8,31.8,0,0,1,31.9-31.8h32.7a31.7,31.7,0,0,1,31.5,31.8v35.8H141.9V111.3H109.2V400.7h32.7v-56Z" fill="#fff"/>
        <path d="M211,83.8h64.2A31.8,31.8,0,0,1,307,115.6V396.4a31.8,31.8,0,0,1-31.8,31.8H211Zm31.4,316.9h32.8V111.3H242.4Z" fill="#fff"/>
        <path d="M371.4,111.3H339.5V83.8h95.2v27.5H402.8V428.2H371.4Z" fill="#fff"/>
      </g>
    </g>
  </g>
</svg>
