<svg xmlns="http://www.w3.org/2000/svg" viewBox="0 0 392.1 39.9"><title>kentucky-sports</title><path d="M57.6,109H50.9V71.5h6.7V89.4L71.2,71.5h7l-13.8,18,15,19.5H71.6l-14-18.5Z" transform="translate(-50.9 -70)" style="fill:#18569e"/><path d="M81.7,109V79h22v4.1H88.5v8.4h13.9v4.1H88.5v9.3h15.4V109Z" transform="translate(-50.9 -70)" style="fill:#18569e"/><path d="M114.7,109h-5.6V79h6.5l15.9,21.7V79H137v30h-5.9L114.7,86.6Z" transform="translate(-50.9 -70)" style="fill:#18569e"/><path d="M149.1,109V83.1H140V79h24v4.1h-9.1V109Z" transform="translate(-50.9 -70)" style="fill:#18569e"/><path d="M173.4,79V98.6a7.1,7.1,0,0,0,1.7,5.1,6.5,6.5,0,0,0,4.8,1.7,6.1,6.1,0,0,0,4.5-1.7c1.1-1.1,1.6-2.8,1.6-5.1V79h5V98.1c0,3.7-1,6.6-3,8.6a11.7,11.7,0,0,1-8.4,3.1,11.9,11.9,0,0,1-8.6-3.1c-2-2-3.1-4.9-3.1-8.6V79Z" transform="translate(-50.9 -70)" style="fill:#18569e"/><path d="M220.4,103.8l1.6,4a19.3,19.3,0,0,1-9.2,1.9,19.1,19.1,0,0,1-6.4-1,17.3,17.3,0,0,1-5.4-2.8,13.1,13.1,0,0,1-3.6-4.7,15.9,15.9,0,0,1-1.4-6.6c.1-4.9,1.7-8.7,5-11.4A17.8,17.8,0,0,1,213.1,79a21.9,21.9,0,0,1,8.7,1.5l-1.5,4.2a15.9,15.9,0,0,0-6.8-1.3,11.1,11.1,0,0,0-8,2.9,11.2,11.2,0,0,0-3.1,8.2c-.1,3.5.9,6.1,3,8a10.9,10.9,0,0,0,7.7,2.8A17,17,0,0,0,220.4,103.8Z" transform="translate(-50.9 -70)" style="fill:#18569e"/><path d="M233.3,109h-5.9V79h5.9V93.3L245,79h6L239.1,93.4,252,109h-6.6L233.3,94.2Z" transform="translate(-50.9 -70)" style="fill:#18569e"/><path d="M263.1,109V96.7L253,79h6.2l7.2,12.8L273.6,79H279l-9.9,17.3V109Z" transform="translate(-50.9 -70)" style="fill:#18569e"/><path d="M296.6,73a8.1,8.1,0,0,0-5.4,1.7,5.6,5.6,0,0,0-2,4.5,5.2,5.2,0,0,0,1.9,4.2,32.1,32.1,0,0,0,6.2,3.4,43.4,43.4,0,0,1,4.2,2,13.7,13.7,0,0,1,3,2.1,6.8,6.8,0,0,1,2.2,2.9,12,12,0,0,1,.6,4,10.1,10.1,0,0,1-3.2,8c-2.2,1.9-5.1,2.8-8.7,2.8a20.3,20.3,0,0,1-11.1-2.8l1.2-3a18.8,18.8,0,0,0,9.8,2.7,9.4,9.4,0,0,0,6.1-1.8,6.8,6.8,0,0,0,2.3-5.6,7.8,7.8,0,0,0-.5-2.8,4.8,4.8,0,0,0-1.7-2.1,19.2,19.2,0,0,0-2.6-1.7L295,89.8a23.6,23.6,0,0,1-7.1-4.3,9.2,9.2,0,0,1,.8-13,12,12,0,0,1,8-2.5,19.6,19.6,0,0,1,9.5,2l-1.1,3A15.9,15.9,0,0,0,296.6,73Z" transform="translate(-50.9 -70)" style="fill:#18569e"/><path d="M315,109V79h10.1a10.9,10.9,0,0,1,7.2,2.3,8.4,8.4,0,0,1,2.7,6.6,7.9,7.9,0,0,1-2.8,6.5,10.3,10.3,0,0,1-7.1,2.3h-6.7V109Zm9.6-27.6h-6.2v13h6.2a7.4,7.4,0,0,0,5.3-1.7,6.4,6.4,0,0,0,1.8-4.9,6.2,6.2,0,0,0-1.8-4.8A7.8,7.8,0,0,0,324.6,81.4Z" transform="translate(-50.9 -70)" style="fill:#18569e"/><path d="M370,93.6a16.7,16.7,0,0,1-2.3,8.8,14.8,14.8,0,0,1-5.8,5.6,16.7,16.7,0,0,1-13.7.8,18.3,18.3,0,0,1-5-3.1,15.1,15.1,0,0,1-3.6-5.2,17,17,0,0,1-1.3-6.9c0-5,1.6-9.1,4.7-12.1A15.6,15.6,0,0,1,354.1,77a17.3,17.3,0,0,1,6,1.1,19.1,19.1,0,0,1,5.1,3.2,15.8,15.8,0,0,1,3.5,5.3A17.5,17.5,0,0,1,370,93.6Zm-28.1,0c0,4.3,1.2,7.6,3.6,10a11.8,11.8,0,0,0,8.6,3.6,11.9,11.9,0,0,0,8.8-3.6c2.3-2.4,3.5-5.7,3.5-10s-1.1-7.7-3.5-10.2a11.9,11.9,0,0,0-17.4,0Q341.9,87.2,341.9,93.6Z" transform="translate(-50.9 -70)" style="fill:#18569e"/><path d="M375.7,109V79h10.1a10,10,0,0,1,6.9,2.2,8.8,8.8,0,0,1,.7,11.7,8.9,8.9,0,0,1-5.2,2.8L397,109h-3.6l-8.7-13.1H379V109Zm9.6-27.6H379V93.7h6.3a7.2,7.2,0,0,0,5-1.6,5.9,5.9,0,0,0,1.8-4.6,5.6,5.6,0,0,0-1.8-4.6A7.3,7.3,0,0,0,385.3,81.4Z" transform="translate(-50.9 -70)" style="fill:#18569e"/><path d="M407.9,109V81.4H398V79h23v2.4h-9.9V109Z" transform="translate(-50.9 -70)" style="fill:#18569e"/><path d="M433.3,81.5a8.7,8.7,0,0,0-4.9,1.2,4.3,4.3,0,0,0-1.8,3.6,3.9,3.9,0,0,0,1.7,3.3,26.6,26.6,0,0,0,5.6,2.7l3.8,1.6a13.4,13.4,0,0,1,2.7,1.7,4.9,4.9,0,0,1,2,2.3,8.3,8.3,0,0,1-2.4,9.5,12.6,12.6,0,0,1-7.8,2.2,20.4,20.4,0,0,1-10.1-2.2l1.1-2.4a18.1,18.1,0,0,0,8.9,2.2,9,9,0,0,0,5.5-1.5,4.9,4.9,0,0,0,2.1-4.4,7.2,7.2,0,0,0-.4-2.2,5.1,5.1,0,0,0-1.6-1.7l-2.4-1.3-3.5-1.4a21.9,21.9,0,0,1-6.4-3.4,6.2,6.2,0,0,1-2.1-4.9,6.4,6.4,0,0,1,2.8-5.4,12,12,0,0,1,7.2-2,20.5,20.5,0,0,1,8.7,1.6L441,83A16.7,16.7,0,0,0,433.3,81.5Z" transform="translate(-50.9 -70)" style="fill:#18569e"/></svg>