<svg xmlns="http://www.w3.org/2000/svg" viewBox="0 0 250.95 37.5"><title>wichita-eagle</title><g id="Layer_2" data-name="Layer 2"><g id="wch"><path d="M85.54,22.85c0,1.19.15,3.84-1.42,3.84a2.76,2.76,0,0,1-1.54-.77c-2.9-2.35-3.75-2.81-3.75-5.33V6.1c0-2.55-2.51-4.47-3.58-5.11s-1.32-.6-2.35.47a75.81,75.81,0,0,1-6.34,4.6v.77l2.81-1.92a2.21,2.21,0,0,1,2-.47c1.92.77,2.49,3.11,2.49,5.07V22.85c0,2-1.34,3.84-2.45,3-3.49-2.56-4.34-3.5-4.34-4.9V2.86A2.19,2.19,0,0,0,64.77.52c-2,0-3,2-4.39,2A1.23,1.23,0,0,1,59.31.6a2.86,2.86,0,0,0-1.53,2.78c0,1.32,1.06,3.87,4.64,3.23V21.44c-1.61,0-3.79,1.84-3.23,4a1.51,1.51,0,0,1,1.66-.86c.38,0,4,.82,7.62,5.37.6.74.84.45,1.15.26A15.42,15.42,0,0,0,73.72,26c.41-.69.75-.45,1.4-.17a12.71,12.71,0,0,1,4.82,4.26c.26.37.45.68,1.36.13a19.6,19.6,0,0,0,4.9-4c1.92-2.6,4.31-5.37,4.31-13.26V6.1C90.51,3.55,88,1.63,86.93,1s-1.33-.6-2.35.47a77.35,77.35,0,0,1-6.35,4.6v.77l2.82-1.92a2.21,2.21,0,0,1,2-.47c1.92.77,2.49,3.11,2.49,5.07V22.85Z"/><path d="M69.92,12.92a9.77,9.77,0,0,0-7-2.69c-2.65,0-5.16,1.16-3.8,4.35.39-1.15,1.79-2.51,4.35-.29l3.24,1.61a16.45,16.45,0,0,1,3.19-3Z"/><path d="M9.47.91C7.1.91,3,3.59.89,5.68l.23.22C3.49,3.74,5.51,4.68,9.2,5.33s5.08,2.06,7.91,2.06C19.52,7.39,20,6,20.91,6s2.48,1.09,2.48,2.17V24.58c-.93,1-5,2.13-8.45,2.13-5.09,0-10.67-2.91-10.67-10.13S8.88,5.29,10.52,5.14L9.43,5C6.48,6.22,0,10.88,0,18.1S6,30.28,13.77,30.28c5.51,0,7.49-3.1,9.08-3.1s3.65,2.79,4,3.14.66.58,1.09,0a17.1,17.1,0,0,1,3.33-3.7L31,26.34a3.1,3.1,0,0,1-1.74.68c-1,0-1.6-.93-1.6-2.35V7.19A2.5,2.5,0,0,0,27,5.37,9.62,9.62,0,0,0,24,3.28a1,1,0,0,0-1.17.23,2.56,2.56,0,0,1-1.86.8c-2.83,0-7.76-3.4-11.52-3.4Z"/><path d="M114.3,25.39c.88-.51.85-.83.85-1.16v-17c0-.69-1.82-1.62-2.5-1.62a2,2,0,0,0-1.43.74L110.9,6l3.35-2.68c1-.8,1-.5,1.52-.34a10.19,10.19,0,0,1,3,2.1,2.55,2.55,0,0,1,.72,1.82V24.33c0,1.42.62,2.35,1.59,2.35a3.07,3.07,0,0,0,1.74-.68l.22.23a17.71,17.71,0,0,0-3.34,3.71c-.43.62-.78.39-1.08,0s-2.33-3.39-3.92-3.39a1,1,0,0,0-.91.42l-.45-.59,1-1Z"/><path d="M14.2,21.63c-1.63.87-5.65,3.05-6.17,3.29l-.12-.28A9.3,9.3,0,0,0,10.24,23,6.46,6.46,0,0,0,10.71,20V10.8a1.21,1.21,0,0,0-.47-1.08c-.21-.24-.44-.58,0-.82s5-2.21,5-2.21l.27,0V19.3a2.26,2.26,0,0,1-1.28,2.33Z"/><path d="M27.55,14.57A37.26,37.26,0,0,0,31,12.05c.85-.82,1-.43,1.43-.28a11.91,11.91,0,0,1,3.34,2.41,2.85,2.85,0,0,1,.47,1.94V27.76A8.12,8.12,0,0,1,28.13,36c.77,0,3.69-2.48,3.69-6.52V17.24c0-1.24-.74-2.17-3.19-2.75l-1.08.7v-.62Z"/><path d="M38.82,15.54a34.71,34.71,0,0,0,6.23-3.82c.88-.78,1.41-.45,2.17-.17a8.89,8.89,0,0,1,4.09,3.39c.12.15.27.31-.13.56l-9.61,6,0-.76,5.73-3.57c.4-.25.26-.42.13-.56a9.27,9.27,0,0,0-4.24-2.83l-.67.39a.71.71,0,0,0-.29.66v8c0,2.73,1.77,3.86,4,3.86a8.2,8.2,0,0,0,4.71-1.46l.28.24a18.22,18.22,0,0,1-5.28,4.85,1.14,1.14,0,0,1-1.5-.18c-.58-.54-4.84-3.47-6.4-3.47a1.49,1.49,0,0,0-1,.65l-.31-.26a2.89,2.89,0,0,0,1.2-2.33v-8c0-.62.25-.82,1-1.15Z"/><polygon points="18.08 6.87 18.55 6.87 18.55 26.62 18.08 26.62 18.08 6.87 18.08 6.87"/><polygon points="69.65 4.25 70.11 4.25 70.11 25.66 69.65 25.66 69.65 4.25 69.65 4.25"/><polygon points="81.32 4.25 81.79 4.25 81.79 25.66 81.32 25.66 81.32 4.25 81.32 4.25"/><path d="M75.17,14.29,78.4,15.9a16.22,16.22,0,0,1,3.2-3,9.78,9.78,0,0,0-7-2.69l.56,4.06Z"/><path d="M96.77,5.78c.49.34,1.54,1.06,1.83,1.28s.88.55.18,1a24,24,0,0,0-2,1.51c-.3.28-.62.49-1.32,0a20.53,20.53,0,0,0-2-1.32c-.51-.28-.66-.7,0-1.09a20.09,20.09,0,0,0,2-1.51c.3-.24.66-.32,1.3.13Z"/><path d="M95.2,11a15.62,15.62,0,0,1,2.3,1.56,1.63,1.63,0,0,0,2,0l.25.29A3.09,3.09,0,0,0,98,15.62v7.63a3.21,3.21,0,0,0,2.77,3.09,2.61,2.61,0,0,0,1.55-1l.39.34a33.7,33.7,0,0,1-3.88,4c-.51.34-.86.38-1.43-.2s-2.34-3-3.81-3a1.22,1.22,0,0,0-1,.42l-.28-.29a2.37,2.37,0,0,0,1.26-2V15a.86.86,0,0,0-.28-.7,2.53,2.53,0,0,0-1.68-.75,2.06,2.06,0,0,0-1.46.86l-.23-.32c.75-.71,3.26-2.65,3.56-2.86A1.34,1.34,0,0,1,95.2,11Z"/><path d="M106.53,13.92a.72.72,0,0,0-.29.66v8c0,2.74,1.77,3.86,4,3.86A8.19,8.19,0,0,0,115,25l.27.23A18,18,0,0,1,110,30a1.14,1.14,0,0,1-1.5-.18c-.58-.54-4.26-3.52-5.71-3.52-.77,0-.9.41-1.37.87l-.67-.43c.57-.57,1.19-.65,1.19-1.66v-8.7c0-.62.26-.81,1-1.14a34.06,34.06,0,0,0,6.22-3.83c.88-.78,1.42-.93,2.11-.15a12.48,12.48,0,0,0,2.59,2.79,2.39,2.39,0,0,0,1.09.17c-.19.85-2,2-3.45,2s-2.62-.64-4-2.21a.63.63,0,0,0-.85-.11Z"/><path d="M123.57,24.62V16.78c0-1.24-.74-2.18-3.18-2.76l-1.34.85v-.62a41.07,41.07,0,0,0,3.74-2.67c.86-.82,1-.43,1.44-.27a11.62,11.62,0,0,1,3.34,2.4,2.9,2.9,0,0,1,.46,1.94v7.9c0,1.09,0,1.55,1.36,3.2.21.24.54.36.16.81s-2,2.32-2.16,2.55-.53.3-.94,0a7.2,7.2,0,0,1-2.88-5.47Z"/><path d="M135.38,6l1.84,1.28c.29.21.87.55.16,1a22.81,22.81,0,0,0-2,1.52c-.3.27-.62.49-1.32,0a21.74,21.74,0,0,0-2-1.32c-.52-.27-.67-.7,0-1.08a20.8,20.8,0,0,0,2.05-1.51c.3-.24.66-.32,1.3.12Z"/><path d="M133.8,11.26a15.16,15.16,0,0,1,2.31,1.56,1.62,1.62,0,0,0,2,0l.25.3a3.09,3.09,0,0,0-1.72,2.77v7.63a3.21,3.21,0,0,0,2.77,3.08,2.59,2.59,0,0,0,1.55-1l.39.34a33.45,33.45,0,0,1-3.88,4c-.51.34-.85.38-1.43-.19s-2.34-3-3.82-3a1.23,1.23,0,0,0-1,.43l-.28-.3a2.33,2.33,0,0,0,1.25-2V15.23a.88.88,0,0,0-.27-.71,2.56,2.56,0,0,0-1.68-.74,2,2,0,0,0-1.45.85l-.24-.32c.75-.7,3.26-2.64,3.56-2.86a1.33,1.33,0,0,1,1.7-.19Z"/><path d="M141.31,24.41V9.07c1.28,0,3.45-1.45,4.41-3V23.52c0,1.78.83,3,2.11,3a2.28,2.28,0,0,0,1.87-.94l.43.51a16.59,16.59,0,0,0-3.8,3.67c-.25.34-.76.68-1.27,0s-2.47-3.07-3.58-3.07a1.65,1.65,0,0,0-1.22.51l-.32-.66a3,3,0,0,0,1.37-2.11Z"/><polygon points="140.03 11.2 150.17 11.2 149.62 12.18 139.69 12.18 140.03 11.2 140.03 11.2"/><path d="M149.57,15.13a4.43,4.43,0,0,0,.15.59c1.22-.82,3.39-2.21,4.37-2.21s2.78,1.35,3.86,2.79c.38.51.21,1.79.21,2.26v7.05a2,2,0,0,1-1.64,2c-1.19.35-3.07-.12-3.07-3.88,0-2.08-.1-4.43,2.56-5.32.25-.09,1.23-.41,1.51-.49s.72-.3.7.71h.27a4,4,0,0,0,0-2.46c-.49-.92-.53-.08-.53-.08.17.42.38,1.06-.54,1.23S149,18.84,149,24.38a6.2,6.2,0,0,0,2.64,5.45c.47.3.87.64,1.92-.08a9,9,0,0,1,4.52-1.84c1.28,0,2.77,1.88,3,2.15a.42.42,0,0,0,.76,0c.26-.36,2.56-3.49,3.91-4.26l-.3-.34a1.85,1.85,0,0,1-1.56.72,1.4,1.4,0,0,1-1.47-1.55V15.28c0-.51.17-1,1.13-1.49l-.3-.41a3,3,0,0,1-1.24.7c-.31,0-2.39-2.24-4.38-2.77a1.92,1.92,0,0,0-1.45.13,63.42,63.42,0,0,0-6.59,3.69Z"/><path d="M186.5,4V17.39a2.26,2.26,0,0,1-1.28,2.33c-1.64.87-5.78,3.5-6.29,3.74l-.13-.28a9.82,9.82,0,0,0,2.34-1.67,6.52,6.52,0,0,0,.46-2.93V7.91c0-.7-.66-.9-.88-1.14s-.45-.6,0-.81A28.92,28.92,0,0,0,188.87.45,1.21,1.21,0,0,1,190.49.2c1.79.93,4,3.86,5.15,3.86a1,1,0,0,0,1-.7c.35.63-.52,3.41-4.23,3.41-2.56,0-4.76-2.92-5-3.16s-.29-.34-.52-.34-.41.25-.41.71Z"/><polygon points="189.34 5.47 189.8 5.47 189.8 26.96 189.34 26.96 189.34 5.47 189.34 5.47"/><path d="M181.13,2.51c-5.88,3.17-8.64,8.23-8.64,13.71,0,7.05,6.33,14,14,14,3.37,0,9.12-2.88,10.9-6.81l-.15-1.29a14.84,14.84,0,0,1-9.29,3.76c-5.8,0-11.15-5-11.15-12.4a16.62,16.62,0,0,1,4.34-11Z"/><path d="M192.93,11.64a4.36,4.36,0,0,1,3.3,1.94.78.78,0,0,1-.16,1.12c-.19.16-1.95,2.06-2.11,2.25a.56.56,0,0,1-.91,0c-.33-.45-1.82-2.64-2.64-2.64s-.77,1-.77,1h-.12a3.21,3.21,0,0,1,.18-1.43,3.78,3.78,0,0,1,3.23-2.23Z"/><path d="M197.29,15.2a3.46,3.46,0,0,0,.15.6c1.21-.83,3.39-2.22,4.36-2.22s2.78,1.35,3.86,2.79c.39.51.21,1.79.21,2.26v7.06a2,2,0,0,1-1.63,2c-1.2.34-3.07-.13-3.07-3.88,0-2.09-.11-4.44,2.55-5.33l1.52-.49c.27-.08.72-.3.7.71h.27a4,4,0,0,0,0-2.45c-.49-.92-.53-.09-.53-.09.17.42.38,1.06-.53,1.24s-8.38,1.51-8.38,7.05a6.18,6.18,0,0,0,2.65,5.45c.46.3.87.64,1.91-.08A9.05,9.05,0,0,1,205.81,28c1.28,0,2.77,1.87,3,2.15a.43.43,0,0,0,.77,0c.25-.36,2.56-3.5,3.9-4.27l-.3-.34c-.47.5-.81.91-1.55.91a1.57,1.57,0,0,1-1.47-1.73V15.35c0-.51.17-1,1.12-1.49l-.29-.41a3,3,0,0,1-1.24.71c-.32,0-2.39-2.25-4.39-2.77a1.91,1.91,0,0,0-1.45.12,64.62,64.62,0,0,0-6.58,3.69Z"/><path d="M222,25.69V18.63a3.61,3.61,0,0,0-.48-2.56,4.89,4.89,0,0,0-3.35-2c-.7,0-.8.73-.8,1.14,0,.87,0,6.43,0,7.72,0,1.72,3.47,3.71,4.06,3.71s.59-.9.59-.9l.4,2.08a6.94,6.94,0,0,0-3.14,2.38c-.37.53-.75.25-.95,0-2.19-2.39-3.92-3.2-5.4-3.2a2,2,0,0,0-1.38.55l-.3-1.08,1-.2c1-.32.85-1.66.85-2V18.09c0-2.19.09-2.2.74-2.56,3.66-2.07,4.94-2.64,6.44-4.06a1.18,1.18,0,0,1,1.34-.2c2,.53,3.9,2.89,4.21,2.89a3,3,0,0,0,1.24-.71l.3.41c-1,.45-1.13,1-1.13,1.49V25.1c0,1.94,1.7,2.87,1.7,5.47,0,3.16-2.79,6.93-6.81,6.93-3.16,0-3.48-2.59-6.24-2.59-1.64,0-1.7,2.19-1.6,2.35-1-.95-.26-5.37,4.13-5.37,3.47,0,4.71,3.5,6.79,3.5a1.58,1.58,0,0,0,1.61-1.76c0-1.74-3.62-3.79-3.63-5.9,0-1.46-.19-.15-.19-2Z"/><path d="M233.41,5.6V23.44a3.21,3.21,0,0,0,2.77,3.09c.49,0,.85-.12,1.27-1l.67.39a32.92,32.92,0,0,1-3.88,4c-.51.34-.85.38-1.43-.19s-2.34-3-3.81-3a1.25,1.25,0,0,0-1,.43l-.28-.3a2.34,2.34,0,0,0,1.26-2v-18a.87.87,0,0,0-.28-.7A2.56,2.56,0,0,0,227,5.36a2,2,0,0,0-1.45.86l-.24-.32c.75-.71,3.26-2.65,3.56-2.86a1.33,1.33,0,0,1,1.7-.19,9.4,9.4,0,0,1,2.31,1.56c.32.32.49.29.49,1.19Z"/><path d="M238.33,15.54a34.36,34.36,0,0,0,6.23-3.83c.88-.78,1.41-.45,2.17-.17a8.93,8.93,0,0,1,4.1,3.4c.11.15.27.31-.14.56l-9.6,6,0-.76,5.72-3.57c.41-.25.26-.41.14-.56a9.34,9.34,0,0,0-4.25-2.83l-.66.39a.71.71,0,0,0-.29.66v8c0,2.74,1.76,3.86,4,3.86a8.13,8.13,0,0,0,4.72-1.46l.27.24a18.1,18.1,0,0,1-5.28,4.85,1.12,1.12,0,0,1-1.49-.18c-.58-.54-4.66-3.41-6.2-3.41-.36,0-.58.27-.88.65l-.68-.42c.75-.64,1.2-.73,1.2-2.23v-8c0-.62.26-.81,1-1.14Z"/></g></g></svg>