<svg xmlns="http://www.w3.org/2000/svg" viewBox="0 0 514.7 135.3">
  <title>Wine Press Northwest</title>
  <g id="Layer_2" data-name="Layer 2">
    <g id="Art">
      <path id="text" d="M57.7,54.7l1.5-7.6L65.5,15c.1-.3.1-.6.2-.9.9-5.7-.5-7.9-6.3-9.1V1.3H76.1c.4,1.8.8,3.3-1.4,4.7a8.2,8.2,0,0,0-3,4.7c-1.8,7.3-3.3,14.6-4.8,21.9-3.8,18.6-7.5,37.3-11.2,55.9-.4,2-1.6,1.8-3,1.8s-2.8.2-3.2-2Q44.1,62.1,38.6,35.8a2.7,2.7,0,0,0-.8-1.6l-.6,2C33.3,53.5,29.3,70.7,25.4,88c-.5,2.3-1.7,2.3-3.5,2.4s-2.2-1-2.5-2.5Q12.2,50.2,4.9,12.4C4.4,9.6,3.6,7,.9,5.2.1,4.7.3,2.7,0,1.2H24.2V4.9c-4.4,1.3-5.4,2.7-4.6,7.2l7.8,41.4c0,.1.1.2.4.5a8.4,8.4,0,0,0,.6-1.4l6.9-30.3a8.6,8.6,0,0,0,0-3.2c-.4-2.4-1-4.7-1.4-7.1s-2-6.4-6-6.9V1.2H52.4V4.8c-4.2,1.6-4.8,2.3-4,6.2,2.8,14.6,5.8,29.1,8.7,43.6ZM340.1,39.9C345.9,38,351,35,353.6,29.1c4.2-10-.1-21-10.1-25.2a29.7,29.7,0,0,0-9.3-2.4c-9.9-.3-19.8-.3-29.7-.4l-.4.3V4.9c4.3,1.4,4.9,2.3,4.9,6.9V80.3a4.5,4.5,0,0,1-3.3,4c-2.9,1-2.9,1.1-2.2,4.4H330c.4-2.3.6-4.1-2.5-4.5s-2.8-1.9-3-3.8a17.7,17.7,0,0,1-.2-3.2V45.1c0-.7.1-1.5.1-2.3s1-.2,1.3-.1c5.1.2,8.3,2.8,9,8.4s.9,13.2,1.6,19.8c.5,4,.9,8.3,2.3,12,2.4,6.3,9.6,8.8,15.7,6.5s8.4-9.9,7.2-15.3H359a41.2,41.2,0,0,1-1.6,6.5c-.4,1-1.7,1.7-2.6,2.4a21.6,21.6,0,0,1-2.1-2.9,9.9,9.9,0,0,1-.2-1.8c-.5-6.1-.8-12.3-1.7-18.4-1.3-8.9-5.7-15.6-15-17.9l-.8-.5ZM324.3,27.5c0-5.9,0-11.9.1-17.8.1-3.3,1.4-4.4,4.8-4.5s7.6,2.3,8.8,7.1a37,37,0,0,1,0,18.1c-1.5,6.1-6.9,9.2-13.7,8Zm66.3,23a46.2,46.2,0,0,1,3.6,9.6c.9,3.2.6,3.3,4.2,2.6V25.4h-1.9l-1.8.2c-1.6,6.8-3,13.7-11.4,15.5-.1-.4-.3-.6-.3-.8,0-10.5,0-20.9.1-31.4,0-2.5,1.3-3.5,3.8-3.7,6.9-.4,11.7,2.9,14.6,8.8a62.5,62.5,0,0,1,3.8,10.5c.5,1.8,1.3,2.3,3,2.1s1.3-1.7,1.3-2.7c.1-4.5,0-9-.1-13.5V1.2H362.7V4.8c4.4,1.7,4.9,2.4,4.9,7.1V78.3a6.7,6.7,0,0,1-.1,2.5,8.4,8.4,0,0,1-2.7,3.4c-2.5,1.4-2.7,1.4-1.9,4.5h47.2v-28c-3.3-.4-3.3-.4-4.2,2.7-1.7,5.5-3.6,10.9-7.2,15.4s-6.2,5.7-10.8,5.7-4.8-1-4.8-4.7c-.1-9.3-.1-18.5-.1-27.8V45.3C386.6,46,389.2,47.7,390.6,50.5ZM174,11.8c0,22.1,0,44.3-.1,66.4a8.3,8.3,0,0,1-.3,3.2c-.5,1-1.4,2.5-2.4,2.7-2.9.7-2.7,2.4-2.2,4.6h47.4v-28c-3.4-.4-3.4-.4-4.2,2.5-1.7,5.6-3.6,11.1-7.3,15.7s-6.2,5.6-10.8,5.6-4.7-.8-4.7-4.3c-.2-11.4-.2-22.8-.2-34.2,0-.1.1-.2.4-.7,8.9,2.5,9.9,10.2,11.4,17.5h3.6V25.5c-3.6-.4-3.4-.3-4.3,2.7a36.7,36.7,0,0,1-3.6,8.4,8.7,8.7,0,0,1-7.3,4.3V8.4c.1-2.2,1.5-3.1,3.7-3.3,6.1-.3,10.9,2.1,13.7,7.3a69.7,69.7,0,0,1,4.6,11.4c1.1,3.1.9,3.1,4.2,2.4V1.2H168.9V4.9C173.1,6.3,174,7.4,174,11.8Zm-59.7,1.6c0,20.6.1,41.2,0,61.8a23.2,23.2,0,0,1-.4,4.6c-.4,2.1-1.6,4-3.8,4.4s-2.8,2.2-2.3,4.5h18.3c.7-2.4.5-4-2.2-4.5a4.6,4.6,0,0,1-3.6-4.1,49,49,0,0,1-.7-7.7c-.1-16.8,0-33.6,0-50.4,0-.7,0-1.3.1-2.6l1.2,2.2,10.5,24.1,18.9,43c.3.6,1,1.5,1.6,1.5a57.1,57.1,0,0,0,5.9.1V87.4c0-24.3.1-48.6.1-72.9,0-4.8,1.1-8.7,6.7-9.4v-4H147.1c-.5,0-1.3.9-1.2,1.2s.4,2.7.9,2.8c4.7,1.2,5.7,4.6,5.7,8.7V53.5c0,.5-.1,1.1-.2,2.3l-1.6-3.5c-7.2-16.4-14.3-32.7-21.4-49.1A3,3,0,0,0,126.1,1c-5.5.2-10.9.1-16.3.1h-2.3V4.9C114.1,6.4,114.3,6.7,114.3,13.4ZM279.9,47.2c14.4-2.1,22.5-13.4,20-27.6-1.5-9.1-8.5-15.8-19-17.6s-21.8-.6-32.7-.8l-.9.5c.4,1.1.6,3.1,1.3,3.4,3.5,1.1,4.2,3.5,4.2,6.7q-.2,32.4-.1,64.8a26.2,26.2,0,0,1,0,2.8c-.1,2.9-1.2,4.3-3.9,5.1L247,85v3.6h26.6c.3-2.2.5-4-2.4-4.4s-3-2.2-3.1-4.3c0-7.6-.1-15.2-.1-22.7V48.3C272.2,47.9,276.1,47.8,279.9,47.2ZM268.2,9.1c.1-3,1.3-3.9,4.3-4a8.6,8.6,0,0,1,8.3,5,17.3,17.3,0,0,1,1.9,6.1c.1,6.1.4,12.2-.4,18.2s-6,9.8-12.8,9.4c-1.6-.1-1.5-1.1-1.5-2.2v-16h.1C268.1,20.1,268.1,14.6,268.2,9.1ZM458.6.4c-2.1-.3-3.8-.4-5.2,1.5s-3.1,2.1-5.1,1.3l-4.7-2a15.8,15.8,0,0,0-15.8,2.1,20,20,0,0,0-8,13.9c-1.5,9.7,1.8,17.9,8.3,24.9s12.5,12.4,18.3,19a35.9,35.9,0,0,1,6.5,10.3c2.1,5,.5,10.1-3.1,12.6s-8.9,2.2-13-1.1a21.6,21.6,0,0,1-4-4c-3.8-5-5.9-10.7-7.4-16.6-.5-1.8-1.3-2.3-2.9-2.1h-2.7V90.7c1.7-.5,3.6-.4,4.6-1.3,4.4-4,4.5-4.2,9.9-1.7l3.2,1.3c9.8,3.4,19.4-.7,23.5-10.2s2.8-16.9-1-25.1c-3.1-6.6-8.2-11.6-13.2-16.6s-10-9.9-14.5-15.2c-1.9-2.2-2.8-5.4-3.4-8.3a7.4,7.4,0,0,1,3.7-8,8.3,8.3,0,0,1,9.4.2c2,1.4,4.2,3.3,5.2,5.5a111.3,111.3,0,0,1,5.9,14.8c.7,2.3,1.5,3.3,3.9,2.8h1.6Zm18.5,87.8c1.7-2.3,3.6-2.6,6.3-1.5s3.3,1.5,5.1,2.1c10.1,3.8,20-.4,24-10.4,3.4-8.3,2.6-16.6-1.1-24.7-2.5-5.4-6.4-9.8-10.6-14s-9.9-9.5-14.5-14.6a30.2,30.2,0,0,1-5.6-9,8.4,8.4,0,0,1,2.9-10.2,8.6,8.6,0,0,1,10.5.3,20.5,20.5,0,0,1,5.5,6.6,115.7,115.7,0,0,1,5.1,13.9c.5,1.8,1.2,2.5,2.9,2.3a17.9,17.9,0,0,1,2.3-.2V.5c-2.2-.5-3.8-.3-5.2,1.6s-3.1,1.8-5,1.1l-4.4-1.9a16,16,0,0,0-16.4,2.2c-7.3,5.7-10,16.9-6.6,26.8C475,38,480.7,43.4,486.2,49s10.4,11,15.3,16.7a14.8,14.8,0,0,1,3.6,11.1,9,9,0,0,1-9.5,8.8c-4.4,0-7.8-2.4-10.5-5.6s-6.1-10-7.7-15.7-1.3-4.3-5.7-4l-.5.2V90.1C473.7,90.6,475.5,90.4,477.1,88.2ZM82.8,11.8V75.7c0,1.5,0,3.1-.1,4.6s-.8,3.5-2.7,3.9-2.5,2.4-2.1,4.5h24.9c.4-2.1.7-3.8-2.1-4.7-1.1-.3-1.9-2.3-2.4-3.7a13.8,13.8,0,0,1-.2-4.1V13.7a13.8,13.8,0,0,1,.2-4.1c.5-1.4,1.4-3.4,2.5-3.7,2.8-.9,2.4-2.6,2-4.7h-25V4.9C82.1,6.3,82.8,7.2,82.8,11.8ZM325.9,114.3c1.3,6.3,2.6,12.6,4,18.9a6.9,6.9,0,0,0,1.3,2c.5-.7,1.4-1.3,1.5-2,1.7-7.9,3.2-15.9,4.9-23.8.6-2.6.4-5.6,2.7-7.6.2-.1-.4-1.4-.7-1.4a38.5,38.5,0,0,0-4.8-.1c-.3.1-.8.4-.8.6a1.4,1.4,0,0,0,.5,1c2.2.8,2.2,2.3,1.8,4.1-.8,3.9-1.5,7.8-2.3,11.7l-.6,2.7-.5-.4c-1.1-5.3-2.2-10.6-3.2-16-.1-.5.5-1.2.8-1.9a7.5,7.5,0,0,1,.7-1.2c-.4-.2-.8-.6-1.2-.6h-7.3a1.2,1.2,0,0,0-1,.6c-.1.3.2.8.5,1.1s1.5,2,1.8,3.2c1.5,5.3-1.6,9.9-2.4,14.9-1.3-5.4-2.3-10.7-3.2-16.1-.1-.6.8-1.3,1.2-2s.6-.8.5-1.1a1.4,1.4,0,0,0-1.1-.6c-2.3,0-4.7-.1-7.1.1-.3,0-1,1.2-.9,1.3,2.5,2.6,2.1,6,2.7,9.1,1.7,7.6,3,15.2,4.6,22.9.1.5.7,1,1.1,1.5s1.1-.9,1.3-1.4a20.9,20.9,0,0,0,.8-3.4c1.3-5.4,2.5-10.8,3.8-16.2ZM273.3,133c-.4-1-1.2-1.9-1.2-2.9q-.2-12.6,0-25.2a7.5,7.5,0,0,1,1.1-2.8l.6-1.3c-.4-.2-.7-.5-1.1-.5h-7.4a1.9,1.9,0,0,0-1.1.5c-.1.3.2.8.4,1.2a11.7,11.7,0,0,1,1.4,3.3c.2,2.8-.1,5.6.1,8.5s-.5,2.5-2.4,2.3h-1.3c-1.6.2-2.2-.5-2.1-2.1s-.1-5.8.1-8.7c0-1.1.8-2.2,1.3-3.3a2.8,2.8,0,0,0,.4-1.2c0-.2-.6-.5-.9-.5h-7.8a2.3,2.3,0,0,0-1,.7c-.1.2.2.8.4.9s1.5,2.2,1.5,3.6v23.1c0,1.8.4,3.8-1.8,4.8a6.1,6.1,0,0,0,0,1.4h8.4a3.5,3.5,0,0,0,1.3-.5,7.5,7.5,0,0,0-.7-1.2c-.4-.7-1.1-1.4-1.1-2.1q-.1-5.7,0-11.4a1.9,1.9,0,0,1,1-1.4H266v10.5c0,1.8.5,3.9-1.8,4.9-.1.1,0,.7-.1,1.2h10.1Zm-117-.6L156,129c-.5-5-.2-10.3-6.4-12.8l1.6-.7c4.3-1.5,6-3.9,5.7-8s-2.6-6.2-6.7-6.7a119.9,119.9,0,0,0-12.1-.5,1.7,1.7,0,0,0-1,.6c-.1.3.4.8.5,1.1s1.3,2.1,1.3,3.2c.1,8.1.1,16.3.1,24.5,0,1.5-.1,2.9-1.9,3.5-.2.1-.3.8-.5,1.6h9.2c.4,0,.9-.4,1.3-.6l-.8-1.2c-.4-.5-1.2-1-1.2-1.5-.1-4.8,0-9.7,0-14.7.7.1,1.5,0,1.7.3s2.1,2.5,2.3,3.9c.6,3.3.5,6.8,1,10.2s2.9,4.7,5.4,4a7.3,7.3,0,0,0,3.5-2.8c.6-.8.4-2.2.5-3.3h-.7l-1.5,3.6Zm-11.2-28.7c0-1.7,1.9-2.4,3.4-1.2a5.3,5.3,0,0,1,1.9,3.1,16.3,16.3,0,0,1,.1,5.4c-.4,2.9-2,4-5.5,3.9C145,111.1,145,107.4,145.1,103.7Zm-50.4.1c-3.9-5.4-9.5-5.4-13.4,0-5.1,7.1-5,20.5.1,27.5,3.9,5.3,9.4,5.3,13.2,0s3.8-8.9,4-14.1S97.2,107.2,94.7,103.8ZM85,105.4a4.6,4.6,0,0,1,.8-2.4,3.7,3.7,0,0,1,2.3-1.5,3.1,3.1,0,0,1,2.2,1.6,9.6,9.6,0,0,1,1.1,4.1q.1,10.2,0,20.4a9.6,9.6,0,0,1-1.2,4.3,2.8,2.8,0,0,1-2.2,1.6,3.3,3.3,0,0,1-2.2-1.6,15.2,15.2,0,0,1-1.2-5.1c-.2-3.7-.1-7.5-.1-11.2H84C84.3,112.2,84.6,108.8,85,105.4Zm-62.5,3.2a8.3,8.3,0,0,1,.7,1.3c3.4,7.8,6.9,15.5,10.2,23.3.7,1.7,1.6,2.5,3.7,1.7V106c0-1.6.1-3.1,1.8-3.9s.5-.8.7-1.2-.8-.6-1.3-.6H33.7c-.4,0-.9.4-1.3.6s.4,1,.7,1.2,1.9,2.2,1.9,3.8V119c0,.5-.1,1.1-.2,2.2a23.4,23.4,0,0,1-1.1-2.1c-2.5-5.6-4.9-11.3-7.4-17-.4-.7-1.1-1.6-1.8-1.7s-4.1-.1-6.2-.1c-.3.1-.6.5-1,.7s.5.9.8,1c1.9.4,1.9,1.8,1.9,3.3v23.2c0,2,0,3.8-2.2,4.8-.2.1-.2.7-.3,1.2h7.9c-.8-.8-1.3-1.1-1.5-1.6s-1.7-1.9-1.7-3c-.2-7.1-.1-14.1-.1-21.2Zm373.3,17.1a14.2,14.2,0,0,0-.4-2,20.9,20.9,0,0,0-1.4,1.7c-1.4,2.2-2.6,4.6-4.2,6.7s-2.5.9-3.6.6-.8-1.9-.9-2.9,0-3.4,0-5.1v-7c2.9,1,3.6,3,4.2,5.2a16.2,16.2,0,0,0,1,1.8l.7-.3V109.2c-2.7,2-1.9,6.4-5.9,6.5,0-3.6-.1-7,0-10.4,0-1.1.3-2.9.8-3a5.3,5.3,0,0,1,3.9.5,14.4,14.4,0,0,1,3,3.8,23.1,23.1,0,0,1,1,2.8c.1.4.6.6.9.8s.7-.7.7-1.1c.1-2.8.1-5.7.1-8.8H378.3c-.4,0-.9.3-.9.5a2.8,2.8,0,0,0,.4,1.2c.5,1.1,1.4,2.3,1.4,3.5q.3,12.1,0,24.3c0,1.1-.9,2.1-1.4,3.2s-.6.8-.5,1.2a1.6,1.6,0,0,0,1.1.5h17.5C395.9,131.5,395.9,128.6,395.8,125.7ZM196.6,112.8c.5-1.8,1-3.7,1.6-5.5s1.2-4,3.7-5.3v27.3c0,1.7.1,3.3-1.9,4-.2.1-.3.7-.5,1.2h10.9c-.2-.5-.2-1-.4-1.1-2.3-.9-2.1-2.8-2.1-4.8V104.4a21.8,21.8,0,0,1,.1-2.4c4.3,2.6,3.5,7.5,5.9,10.7.3-3.6.3-6.9.3-10.3.1-1.6-.4-2.2-2-2.1H197.5l-1.9.3v11.9ZM505,133.3c-2.2-.8-2-2.5-2-4.2V104.6a17.9,17.9,0,0,1,.2-2.3,4,4,0,0,1,2.3,2.1c.9,2.2,1.5,4.4,2.3,6.7a14,14,0,0,0,.9,1.7l.5-.3V100.3H492c-.5,0-1.2.9-1.2,1.4-.2,3.2-.2,6.4-.2,9.6a3.5,3.5,0,0,0,.5,1.3h.6c1.5-3.6,1.2-8.1,5-10.8a2.9,2.9,0,0,1,.3.9c0,9.2.1,18.3,0,27.5,0,.9-1.1,1.8-1.6,2.7l-.8,1c.4.2.7.6,1,.6h9.8C505.2,134,505.2,133.4,505,133.3Zm-67.8,1.8c1.8-2.1,3.7-1,5.7-.3,4.6,1.5,8.8-1.1,9.6-6a12.1,12.1,0,0,0-2.7-10.5c-2.3-2.7-5-5.2-7.4-7.8a17,17,0,0,1-2.7-3.9,3.1,3.1,0,0,1,1.2-4.4,3.1,3.1,0,0,1,4.3.6,19.2,19.2,0,0,1,2.5,3.8c.5,1.1.7,2.5,1.2,3.7s.8.7,1.3,1,.9-.8.9-1.2v-8.8c0-1.1-.8-1.7-1.5-1s-2.9.7-4.4.1-6-.4-7.5,2.2a14,14,0,0,0-1.9,6.6c0,4.3,3.1,7.1,5.8,10a62.4,62.4,0,0,1,7,8.4,3.6,3.6,0,0,1-1.2,5.2c-1.9,1.3-3.7.7-5.2-.7a15.2,15.2,0,0,1-2.6-3.5c-.6-1.2-1-2.7-1.6-4s-.9-.7-1.4-1.1-.8.9-.8,1.4c-.1,3.3-.1,6.7-.1,10.3C436.4,135.2,437,135.3,437.2,135.1Z" fill="#48152a"/>
    </g>
  </g>
</svg>
