<?xml version="1.0" encoding="utf-8"?>
<!-- Generator: Adobe Illustrator 23.0.6, SVG Export Plug-In . SVG Version: 6.00 Build 0)  -->
<svg version="1.1" id="Art" xmlns="http://www.w3.org/2000/svg" xmlns:xlink="http://www.w3.org/1999/xlink" x="0px" y="0px"
	 viewBox="0 0 512 512" style="enable-background:new 0 0 512 512;" xml:space="preserve">
<style type="text/css">
	.st0{fill:#3A578C;}
	.st1{fill:none;stroke:#FFFFFF;stroke-width:5.3378;stroke-miterlimit:10;}
	.st2{fill:#69BE28;}
	.st3{fill:#FFFFFF;}
</style>
<g>
	<rect class="st0" width="512" height="512"/>
	<g>
		<line class="st1" x1="0" y1="114" x2="512" y2="114"/>
		<line class="st1" x1="0" y1="132" x2="512" y2="132"/>
		<line class="st1" x1="0" y1="149.9" x2="512" y2="149.9"/>
	</g>
	<path class="st0" d="M415.6,117.1c-6.2-39.1-22.4-77-48.8-113.2c-16.8-7.3-34.3-2.1-34.3-2.1S189.6,21.6,116.1,165.6
		c0,0-79.2,159,17.9,317.1c0,0,12.4,22.1,44.4,24c2.8-2,28-7.8,24.4-5.1c2.4-0.5,4.8-1,7.4-1.7C379.3,453.7,422,287,422,287
		C439.6,219.2,430.6,160.6,415.6,117.1z M232.9,477.9v-0.8c1.6-0.8,2.5-1.3,2.5-1.3C234.5,476.5,233.7,477.2,232.9,477.9z
		 M305.8,409.1v-1c2-1.6,3.2-2.5,3.2-2.5C307.9,406.9,306.8,408,305.8,409.1z"/>
	<g>
		<path class="st2" d="M352.4,29.6c-15.2-6.5-30.9-1.9-30.9-1.9S193,45.5,126.9,175c0,0-71.2,143,16.1,285.2c0,0,11.2,19.8,40,21.6
			c39.2-27.8,190.9-143.8,213.1-284C405.4,138.8,390.7,82.3,352.4,29.6z M204.4,138.7c2.6,1.1,3.8,3.8,2.8,5.8
			c-0.3,0.5-0.6,1.1-0.8,1.6c-1.1,2-3.6,2.7-5.7,1.9c-2.7-1.1-5.4-1.8-8.2-2.4c-2.5,4.3-5.3,9-8.1,14.1c2.2,0.6,4.4,1.3,6.6,2.2
			c2.6,1.1,3.8,3.8,2.8,5.8c-0.3,0.5-0.6,1.1-0.8,1.6c-1.1,2-3.6,2.7-5.7,1.9c-2.5-1-5.1-1.8-7.8-2.3c-2.5,4.6-4.9,9.4-7.4,14.4
			c1.8,0.5,3.6,1.1,5.3,1.8c2.6,1.1,3.8,3.8,2.8,5.8c-0.3,0.5-0.6,1.1-0.8,1.6c-1.1,2-3.6,2.7-5.7,1.9c-1.9-0.8-3.9-1.4-6-2
			c-2.1,4.5-4.3,9.1-6.4,13.9c2.7,0.7,5.3,1.5,7.9,2.6c2.6,1.1,3.8,3.8,2.8,5.8c-0.3,0.5-0.6,1.1-0.8,1.6c-1.1,2-3.6,2.7-5.7,1.9
			c-2.6-1.1-5.4-1.8-8.2-2.4c-1.9,4.7-3.8,9.5-5.6,14.3c2.3,0.6,4.6,1.4,6.9,2.3c2.6,1.1,3.8,3.8,2.8,5.8c-0.3,0.5-0.6,1.1-0.8,1.6
			c-1.1,2-3.6,2.7-5.7,1.9c-2.1-0.9-4.3-1.6-6.5-2.1c-1.9,5.5-3.6,11-5.2,16.5c3.5,0.7,7,1.6,10.3,3c2.6,1.1,3.8,3.8,2.8,5.8
			c-0.3,0.5-0.6,1.1-0.8,1.6c-1.1,2-3.6,2.7-5.7,1.9c-2.9-1.2-6-2-9.1-2.6c-1.1,4.5-2.1,9.1-3,13.6c3.2,0.7,6.3,1.6,9.4,2.8
			c2.6,1.1,3.8,3.8,2.8,5.8c-0.3,0.5-0.6,1.1-0.8,1.6c-1.1,2-3.6,2.7-5.7,1.9c-2.4-1-4.8-1.7-7.3-2.3c-1.4,9.6-2.2,19.1-2.1,28.4
			l-10.2,0.1c-0.1-9.8,0.7-19.7,2.1-29.7c-2.7,0-5.4,0.1-8,0.5c-2.2,0.4-4.5-1-5.1-3.1c-0.1-0.6-0.3-1.2-0.4-1.8
			c-0.6-2.2,1.2-4.6,4-5c3.7-0.6,7.5-0.7,11.3-0.5c0.8-4.4,1.8-8.8,2.8-13.2c-2,0.1-4,0.2-6,0.5c-2.2,0.4-4.5-1-5.1-3.1
			c-0.1-0.6-0.3-1.2-0.4-1.8c-0.6-2.2,1.2-4.6,4-5c3.4-0.5,6.8-0.7,10.2-0.6c1.6-5.6,3.3-11.2,5.1-16.7c-2.8-0.1-5.7,0-8.5,0.5
			c-2.2,0.4-4.5-1-5.1-3.1c-0.1-0.6-0.3-1.2-0.4-1.8c-0.6-2.2,1.2-4.6,4-5c4.5-0.7,9.1-0.8,13.6-0.4c1.7-4.6,3.5-9.2,5.3-13.7
			c-2.2,0-4.4,0.2-6.6,0.6c-2.2,0.4-4.5-1-5.1-3.1c-0.1-0.6-0.3-1.2-0.4-1.8c-0.6-2.2,1.2-4.6,4-5c4.1-0.6,8.2-0.7,12.2-0.5
			c2-4.7,4.1-9.3,6.2-13.8c-2.9-0.1-5.8,0-8.7,0.5c-2.2,0.4-4.5-1-5.1-3.1c-0.1-0.6-0.3-1.2-0.4-1.8c-0.6-2.2,1.2-4.6,4-5
			c5-0.8,10-0.9,15-0.4c2.3-4.6,4.6-9.1,6.8-13.4c-2.2,0-4.4,0.2-6.6,0.6c-2.2,0.4-4.5-1-5.1-3.1c-0.1-0.6-0.3-1.2-0.4-1.8
			c-0.6-2.2,1.2-4.6,4-5c4.5-0.7,9-0.8,13.4-0.4c2.6-4.7,5.1-9.2,7.6-13.3c-2,0.1-3.9,0.2-5.9,0.5c-2.2,0.4-4.5-1-5.1-3.1
			c-0.1-0.6-0.3-1.2-0.4-1.8c-0.6-2.2,1.2-4.6,4-5c4.4-0.7,8.9-0.8,13.3-0.4c8.5-13.9,14.6-22.7,15.5-23.9l8.4,5.9
			c-0.2,0.3-5.3,7.6-12.8,19.8C200.1,137.1,202.3,137.8,204.4,138.7z"/>
		<path class="st2" d="M401.2,108.8c9.2,31.5,11.2,63.9,5.9,97.2c-13.7,86.4-74.8,162.8-123.6,211.6c-30.7,30.7-60.4,54.6-80.1,69.3
			c2.3-0.4,4.6-0.9,7-1.6c160.9-44,201.4-202.5,201.4-202.5C430.4,211.6,417.9,151.2,401.2,108.8z"/>
	</g>
	<g>
		<rect y="315.5" class="st3" width="512" height="94.7"/>
		<g>
			<path class="st0" d="M57.4,343.1c-4,0-7.2,1.2-7.2,4.8c0,3.9,6.9,5.3,13,7.9c6.8,3,13.7,7.8,13.7,18.1c0,12.9-8.8,20.3-23,20.3
				c-9.8,0-15.2-2.2-19.7-5.4l4.2-12.6c4.1,2.7,8.3,4.9,15,4.9c6,0,8.7-1.9,8.7-5.1c0-5.1-5.5-6.1-12-8.9
				c-6.1-2.6-14.2-7.4-14.2-17.8c0-11.6,7.7-19.1,21.7-19.1c8.2,0,13.6,2.1,17.4,4.3l-3.8,12.2C68.5,345,63,343.1,57.4,343.1z"/>
			<path class="st0" d="M83.5,331.3h37.8v12H99.5v12.2h19.8v12H99.5v13.8h22.2v12H83.5V331.3z"/>
			<path class="st0" d="M150.9,330.8h11.5l22.7,62.3h-16L166,384h-20.8l-3.1,9.1h-13.9L150.9,330.8z M155.5,353.6l-6.6,19.5h13.2
				L155.5,353.6z"/>
			<path class="st0" d="M191.7,331.3h16v24.1h19.6v-24.1h16v61.9h-16v-25.8h-19.6v25.8h-16V331.3z"/>
			<path class="st0" d="M272.4,330.8h11.5l22.7,62.3h-16l-3.1-9.1h-20.8l-3.1,9.1h-13.9L272.4,330.8z M277,353.6l-6.6,19.5h13.2
				L277,353.6z"/>
			<path class="st0" d="M299.6,331.3h15.9l7.9,35.9L334,331h9.7l10.6,35.8l7.9-35.5h13.6l-16.1,62.4H349l-11.2-36.1l-11.3,36.1
				h-10.7L299.6,331.3z"/>
			<path class="st0" d="M380.9,393.2v-61.9h16v27l17.7-27h16l-19.4,29.3l21.3,32.7h-17.9l-17.7-27.8v27.8h-16V393.2z"/>
			<path class="st0" d="M458.2,343.1c-4,0-7.2,1.2-7.2,4.8c0,3.9,6.9,5.3,13,7.9c6.8,3,13.7,7.8,13.7,18.1c0,12.9-8.8,20.3-23,20.3
				c-9.8,0-15.2-2.2-19.7-5.4l4.2-12.6c4.1,2.7,8.3,4.9,15,4.9c6,0,8.7-1.9,8.7-5.1c0-5.1-5.5-6.1-12-8.9
				c-6.1-2.6-14.2-7.4-14.2-17.8c0-11.6,7.7-19.1,21.7-19.1c8.2,0,13.6,2.1,17.4,4.3l-3.8,12.2C469.3,345,463.8,343.1,458.2,343.1z"
				/>
		</g>
	</g>
</g>
</svg>
