<svg xmlns="http://www.w3.org/2000/svg" viewBox="0 0 512 512">
  <title>the-olympian</title>
  <g id="Layer_2" data-name="Layer 2">
    <g id="Art">
      <rect width="512" height="512" fill="#2f6e36"/>
      <path d="M284.3,326.6V144.3c47.2,12.1,82.3,62.7,82.3,123.4,0,69.6-46.7,126.1-104.2,126.1a89.3,89.3,0,0,1-48.5-14.5ZM228.4,97.3S92.5,144.6,98.9,274.9C105.1,401.8,213.5,424,252.9,424c18.7,0,138.4-7.4,159.2-151.1C419.9,219,391.8,102.6,280.5,88l-87.7,92.1a3.2,3.2,0,0,0,.2,4.7c2.2,2.1,4.9-.4,4.9-.4L211.8,170V370.6s-2.8,5.3-9.5-1.9S102.6,249.3,228.4,97.3Zm-6.1,266.1,10.3-7.4V153.6l-10.3,10.7ZM119.1,218.7A145,145,0,0,0,108.2,274c0,78.7,62.6,142.5,139.9,142.5a138,138,0,0,0,88.2-31.8,144,144,0,0,1-79.1,23.6c-79.8,0-144.5-65-144.5-145.2a148.3,148.3,0,0,1,6.7-44Z" fill="#fff" fill-rule="evenodd"/>
    </g>
  </g>
</svg>
