<svg xmlns="http://www.w3.org/2000/svg" viewBox="0 0 512 512">
  <title>beaufort-gazette</title>
  <g id="Layer_2" data-name="Layer 2">
    <g id="Art">
      <g>
        <path d="M512,238v-8.7l-2.3-.4A63.9,63.9,0,0,0,512,238Z" fill="#1b4a72"/>
        <path d="M50.5,0H0V175.8q1-4.5,2.4-9Z" fill="#1b4a72"/>
        <path d="M447.5,352.3c26.4,29.9,36.3,55.5,24.9,95.1s-45.9,59.3-84.3,64.6H512V292.4a4.3,4.3,0,0,1-.1.5C503,323.8,480.5,345.7,447.5,352.3Z" fill="#1b4a72"/>
        <path d="M115.1,80.7c20.4-14.7,50.3-14.4,76.6-6.9,51,14.7,84.3,55.1,95.4,102.4,30.3-37.6,80.7-51.6,131.1-37.1,14.9,4.3,34.1,14.8,57.5,22.7a181.1,181.1,0,0,0,36.3,7.3V0H137.3L114.1,80.4Z" fill="#1b4a72"/>
        <path d="M119.2,277.2a69.5,69.5,0,0,0,86.4-46.9c10.2-35.5-9.7-74.6-48.3-85.7s-76.6,11.3-86.9,46.8S80.1,265.9,119.2,277.2Z" fill="#1b4a72"/>
        <path d="M203.3,423.3,263,388.2c14,24.6,33.5,41.9,60.8,49.8s63,5.3,71.8-25.5-16.8-51.6-45.6-59.9c-24.1-7-41.9-7.1-66.6-6.4l13.3-22.9a105.5,105.5,0,0,1-25.6-34.8c-32.8,56.6-101.1,84-166.2,65.2C49,337.6,13.3,305.5,0,262.1V512H339.1a213.2,213.2,0,0,1-32-6.5C261.9,492.5,225.2,465.2,203.3,423.3Z" fill="#1b4a72"/>
        <path d="M402.6,206.9c-24.7-7.1-54.1,6.2-62.3,34.4a50.3,50.3,0,1,0,96.6,27.8C445.1,240.9,427.2,214,402.6,206.9Z" fill="#1b4a72"/>
        <path d="M104.9,353.7c65.1,18.8,133.4-8.6,166.2-65.2-9.8-21.3-12.9-45.9-6.4-68.4a124.8,124.8,0,0,1,22.4-43.9C276,128.9,242.7,88.5,191.7,73.8c-26.3-7.5-56.2-7.8-76.6,6.9l-1-.3L137.3,0H50.5L2.4,166.8q-1.3,4.5-2.4,9v86.3C13.3,305.5,49,337.6,104.9,353.7ZM70.4,191.4c10.3-35.5,47.9-58,86.9-46.8s58.5,50.2,48.3,85.7a69.5,69.5,0,0,1-86.4,46.9C80.1,265.9,60.2,226.8,70.4,191.4Z" fill="#fff"/>
        <path d="M475.7,161.8c-23.4-7.9-42.6-18.4-57.5-22.7-50.4-14.5-100.8-.5-131.1,37.1a124.8,124.8,0,0,0-22.4,43.9c-6.5,22.5-3.4,47.1,6.4,68.4a105.5,105.5,0,0,0,25.6,34.8l-13.3,22.9c24.7-.7,42.5-.6,66.6,6.4,28.8,8.3,54.4,29.6,45.6,59.9s-45.1,33.2-71.8,25.5S277,412.8,263,388.2l-59.7,35.1c21.9,41.9,58.6,69.2,103.8,82.2a213.2,213.2,0,0,0,32,6.5h49c38.4-5.3,72.6-24.2,84.3-64.6s1.5-65.2-24.9-95.1c33-6.6,55.5-28.5,64.4-59.4a4.3,4.3,0,0,0,.1-.5V238a63.9,63.9,0,0,1-2.3-9.1l2.3.4V169.1A181.1,181.1,0,0,1,475.7,161.8ZM436.9,269.1a50.3,50.3,0,1,1-96.6-27.8c8.2-28.2,37.6-41.5,62.3-34.4S445.1,240.9,436.9,269.1Z" fill="#fff"/>
      </g>
    </g>
  </g>
</svg>
