<?xml version="1.0" encoding="utf-8"?>
<!-- Generator: Adobe Illustrator 23.0.6, SVG Export Plug-In . SVG Version: 6.00 Build 0)  -->
<svg version="1.1" id="Art" xmlns="http://www.w3.org/2000/svg" xmlns:xlink="http://www.w3.org/1999/xlink" x="0px" y="0px"
	 viewBox="0 0 512 512" style="enable-background:new 0 0 512 512;" xml:space="preserve">
<style type="text/css">
	.st0{fill:#98002E;}
	.st1{fill:#FFFFFF;}
	.st2{fill:#0021A5;}
	.st3{fill:none;stroke:#FFFFFF;stroke-width:5.3333;stroke-miterlimit:10;}
	.st4{fill:#F04C24;stroke:#FFFFFF;stroke-width:5.3333;stroke-miterlimit:10;}
	.st5{fill:#FA4616;}
	.st6{fill:#782F40;}
	.st7{fill:none;stroke:#FFFFFF;stroke-width:5.3378;stroke-miterlimit:10;}
	.st8{fill:#F04C24;stroke:#FFFFFF;stroke-width:5.3378;stroke-miterlimit:10;}
	.st9{fill:#CEB888;}
	.st10{fill:#0077C8;}
	.st11{fill:none;stroke:#000000;stroke-width:10.6667;stroke-miterlimit:10;}
	.st12{fill-rule:evenodd;clip-rule:evenodd;}
	.st13{fill-rule:evenodd;clip-rule:evenodd;stroke:#000000;stroke-width:2.6667;stroke-miterlimit:10;}
	.st14{fill:#005030;}
	.st15{fill:#F47321;}
	.st16{fill:#FCEE21;}
	.st17{fill:#E8E7E7;}
	.st18{fill:#A21D3E;}
	.st19{fill:#D98227;}
	.st20{fill:#72BE44;}
	.st21{fill:#231F20;}
	.st22{fill:#CAC8C8;}
	.st23{fill:#0033A0;}
	.st24{fill:#3A578C;}
	.st25{fill:#69BE28;}
	.st26{fill:#80A27B;}
	.st27{fill:#F7C421;}
	.st28{fill:#0039A6;}
	.st29{fill:#F9461C;}
	.st30{fill:#F2F2F2;}
	.st31{fill:#0085CA;}
	.st32{fill:#008CA8;}
	.st33{fill:#FFFFFF;stroke:#FFFFFF;stroke-width:5.3378;stroke-miterlimit:10;}
	.st34{fill:#1D1160;}
	.st35{fill:#FF0000;}
	.st36{fill:#DA291C;}
	.st37{fill:#1E4971;}
	.st38{fill:#5DA423;}
	.st39{fill:#C41230;}
	.st40{fill:#004B8D;}
	.st41{fill:#E4E416;}
	.st42{fill:none;stroke:#FFFF00;stroke-width:10.6667;stroke-miterlimit:10;}
	.st43{fill:url(#SVGID_1_);}
	.st44{fill-rule:evenodd;clip-rule:evenodd;fill:#FCD6C2;}
	.st45{fill-rule:evenodd;clip-rule:evenodd;fill:#FFFFFF;}
	.st46{clip-path:url(#SVGID_3_);}
	.st47{fill-rule:evenodd;clip-rule:evenodd;fill:#231F20;}
	.st48{fill-rule:evenodd;clip-rule:evenodd;fill:none;}
	.st49{fill-rule:evenodd;clip-rule:evenodd;fill:url(#SVGID_4_);}
	.st50{fill:url(#SVGID_5_);}
	.st51{filter:url(#Adobe_OpacityMaskFilter);}
	.st52{fill-rule:evenodd;clip-rule:evenodd;fill:url(#SVGID_7_);}
	.st53{mask:url(#SVGID_6_);}
	.st54{fill-rule:evenodd;clip-rule:evenodd;fill:#FBE5D5;}
	.st55{fill:url(#SVGID_8_);}
	.st56{fill:url(#SVGID_9_);}
	.st57{fill:url(#SVGID_10_);}
	.st58{fill:url(#SVGID_11_);}
	.st59{opacity:0.55;fill:url(#SVGID_12_);}
	.st60{opacity:0.55;fill:url(#SVGID_13_);}
	.st61{opacity:0.55;fill:url(#SVGID_14_);}
	.st62{opacity:0.55;fill:url(#SVGID_15_);}
	.st63{clip-path:url(#SVGID_17_);fill:url(#SVGID_18_);}
	.st64{opacity:0.46;fill:#FFFFFF;}
	.st65{opacity:0.61;fill:url(#SVGID_19_);}
	.st66{filter:url(#Adobe_OpacityMaskFilter_1_);}
	.st67{opacity:0.49;mask:url(#SVGID_20_);}
	.st68{fill:url(#SVGID_21_);}
	.st69{fill:#007980;}
	.st70{fill:#219DA7;}
	.st71{fill:#F04C24;}
	.st72{fill:#7AB2DD;}
	.st73{fill:#004687;}
	.st74{fill:#002A5C;}
	.st75{fill:#93B1D7;}
	.st76{fill:#CA2430;}
	.st77{fill:#9E1721;}
	.st78{fill:#0050BA;}
	.st79{fill:#E8000D;}
	.st80{clip-path:url(#SVGID_23_);fill:#E4A710;}
	.st81{clip-path:url(#SVGID_25_);}
	.st82{fill:#FFDD15;}
	.st83{filter:url(#Adobe_OpacityMaskFilter_2_);}
	.st84{opacity:0.3;mask:url(#SVGID_26_);}
	.st85{fill:#FAAF40;}
	.st86{opacity:0.2;clip-path:url(#SVGID_25_);}
	.st87{opacity:0.5;clip-path:url(#SVGID_25_);fill:#FAAF40;}
	.st88{clip-path:url(#SVGID_25_);fill:#FFCA05;}
</style>
<g>
	<rect class="st17" width="512" height="512"/>
	<g>
		<path class="st18" d="M176.4,154.5c-10.5-6.9-21.9-10.3-33.9-10.3c-15.9,0-29.5,5.6-40.7,16.9C90.6,172.3,85,187.9,85,207.8
			c0,22.8,5.7,40.2,17.1,52.1c11.4,11.9,25.3,17.9,41.7,17.9c12.1,0,22.1-2.9,30.1-8.8c8-5.8,13.5-14,16.5-24.4h-35.2v-33.8h93.8
			c0,24.3-4.4,43.5-13.2,57.7c-8.8,14.2-21.5,25.3-38.3,33.5c-16.7,8.2-35.5,12.2-56.3,12.2c-36.1,0-63.9-9.7-83.2-29
			c-19.3-19.4-29-43.9-29-73.8c0-20.7,4.8-39,14.4-54.9c9.6-15.9,22.5-27.8,38.7-35.9c16.2-8.1,33.8-12.1,52.8-12.1
			c26.8,0,47.7,6.5,62.7,19.6v-16.4h33.9v71h-33.9C194,170.8,186.9,161.4,176.4,154.5"/>
		<path d="M406.5,154.5c-10.5-6.9-21.9-10.3-33.9-10.3c-15.9,0-29.5,5.6-40.7,16.9c-11.2,11.3-16.8,26.9-16.8,46.8
			c0,22.8,5.7,40.2,17.1,52.1c11.4,11.9,25.3,17.9,41.7,17.9c12.1,0,22.1-2.9,30.1-8.8c8-5.8,13.5-14,16.5-24.4h-35.2v-33.8h93.8
			c0,24.3-4.4,43.5-13.2,57.7c-8.8,14.2-21.5,25.3-38.2,33.5c-16.7,8.2-35.5,12.2-56.3,12.2c-36.1,0-63.9-9.7-83.2-29
			c-19.3-19.4-29-43.9-29-73.8c0-20.7,4.8-39,14.4-54.9c9.6-15.9,22.5-27.8,38.7-35.9c16.2-8.1,33.8-12.1,52.8-12.1
			c26.8,0,47.7,6.5,62.7,19.6v-16.4h33.9v71h-33.9C424.1,170.8,417,161.4,406.5,154.5"/>
	</g>
	<g>
		<path class="st18" d="M57.6,390.5c-11.2,0-20.7-7.3-20.7-21.7c0-14.5,10.4-22.3,22.5-22.3c4.8,0,9,0.8,11.6,1.9l-2.6,8.6
			c-1.7-0.7-5.5-1.5-8.2-1.5c-6.8,0-12.2,4.1-12.2,13.3c0,8.8,4.5,13.2,10,13.2c1.3,0,2.5-0.1,3.7-0.3v-8.1h-5.3v-8.2h15.5v21.2
			C69.5,388.5,64.4,390.5,57.6,390.5z"/>
		<path class="st18" d="M95.8,390.5c-10.5,0-20.7-7.5-20.7-21.8c0-14.1,10.2-22.2,20.7-22.2c10.6,0,20.8,8.2,20.8,22.2
			C116.6,382.9,106.4,390.5,95.8,390.5z M95.8,381.6c5.5,0,9.7-4.2,9.7-13c0-8.8-4.2-13.2-9.7-13.2c-5.5,0-9.6,4.4-9.6,13.2
			C86.2,377.5,90.4,381.6,95.8,381.6z"/>
		<path d="M141.7,390.5c-11.2,0-20.7-7.3-20.7-21.7c0-14.5,10.4-22.3,22.5-22.3c4.8,0,9,0.8,11.6,1.9l-2.6,8.6
			c-1.7-0.7-5.5-1.5-8.2-1.5c-6.8,0-12.2,4.1-12.2,13.3c0,8.8,4.5,13.2,10,13.2c1.3,0,2.5-0.1,3.7-0.3v-8.1h-5.3v-8.2h15.5v21.2
			C153.6,388.5,148.5,390.5,141.7,390.5z"/>
		<path d="M174.7,347.1h7.8l15.4,42.4H187l-2.1-6.2h-14.1l-2.1,6.2h-9.5L174.7,347.1z M177.8,362.6l-4.5,13.3h9L177.8,362.6z"/>
		<path d="M202.4,389.6l4.2-42.2h8.8l9.7,26.5l10.1-26.5h3.2v0.1l0.1-0.1h4.6l4.2,42.2h-10.4l-1.5-21.2l-8.4,21.2h-5.6l-8-21.3
			l-1.7,21.3H202.4z"/>
		<path d="M253.1,347.4h25.7v8.2h-14.9v8.3h13.5v8.2h-13.5v9.4H279v8.2h-25.9V347.4z"/>
		<path d="M318.3,387.3c-3,2-7.4,2.9-11.9,2.9c-11.5,0-21.3-6.9-21.3-21.3c0-14.4,9.6-22.2,21.4-22.2c5.3,0,8.9,0.8,11.4,2.1
			l-2.6,8.6c-1.9-1.1-4.9-1.7-7.3-1.7c-7.2,0-11.8,4.7-11.8,13.2c0,8.5,4.9,12.5,11.2,12.5c3.4,0,6.2-1,8.2-2.1L318.3,387.3z"/>
		<path d="M342.1,390.5c-10.5,0-20.7-7.5-20.7-21.8c0-14.1,10.2-22.2,20.7-22.2c10.6,0,20.8,8.2,20.8,22.2
			C362.9,382.9,352.7,390.5,342.1,390.5z M342.1,381.6c5.5,0,9.7-4.2,9.7-13c0-8.8-4.2-13.2-9.7-13.2c-5.5,0-9.6,4.4-9.6,13.2
			C332.5,377.5,336.7,381.6,342.1,381.6z"/>
		<path d="M400.8,387.3c-3,2-7.4,2.9-11.9,2.9c-11.5,0-21.3-6.9-21.3-21.3c0-14.4,9.6-22.2,21.4-22.2c5.3,0,8.9,0.8,11.4,2.1
			l-2.6,8.6c-1.9-1.1-4.9-1.7-7.3-1.7c-7.2,0-11.8,4.7-11.8,13.2c0,8.5,4.9,12.5,11.2,12.5c3.4,0,6.2-1,8.2-2.1L400.8,387.3z"/>
		<path d="M406.5,389.6v-42.2h10.9v18.3l12-18.3h10.9L427,367.4l14.5,22.2h-12.2l-12-18.9v18.9H406.5z"/>
		<path d="M461.8,355.5c-2.7,0-4.9,0.8-4.9,3.3c0,2.6,4.7,3.6,8.8,5.4c4.6,2,9.3,5.3,9.3,12.3c0,8.8-6,13.8-15.6,13.8
			c-6.6,0-10.4-1.5-13.4-3.7l2.9-8.6c2.8,1.9,5.6,3.3,10.2,3.3c4.1,0,5.9-1.3,5.9-3.5c0-3.5-3.7-4.2-8.2-6.1
			c-4.2-1.8-9.7-5-9.7-12.1c0-7.9,5.2-13,14.8-13c5.6,0,9.3,1.4,11.9,2.9l-2.6,8.3C469.3,356.8,465.6,355.5,461.8,355.5z"/>
	</g>
</g>
</svg>
