<svg xmlns="http://www.w3.org/2000/svg" viewBox="0 0 513.2 513.2">
  <title>the-state</title>
  <g id="Layer_2" data-name="Layer 2">
    <g id="Art">
      <rect x="0.6" y="0.6" width="512" height="512" transform="translate(-0.6 0.6) rotate(-0.1)" fill="#3c4858"/>
      <g>
        <g>
          <path d="M233.6,118.2a51.6,51.6,0,0,1-27,1.6c13.5,9.6,37.5,75.1-48.7,75.3,31.2-6.9,48.4-37.2,23.9-77.9-16-6.7-45.6-5.3-53.7,2.2-5.6-12.5,12.9-24.3,28.4-24.7a140.6,140.6,0,0,1,28.1,2.5s-.4-3.1,7.1-6.8a13.2,13.2,0,0,0,3.3,8.3c15.6,3.8,46.6,1.8,53.7-5.7,1.7,9.6-4.6,21.5-15.1,25.2" fill="#fff"/>
          <path d="M217.1,236.4c-24.4,1.4-93-11.7-93.1-58.3s46.1-58,56.5-59.6c-23.3,12.4-34,29.5-32.8,58.2s36.6,39.6,58.8,39.3c16.1-.2,17.1-4.6,19.2-8.9l4-8.1,4.4,1.7-17,35.7" fill="#fff"/>
          <path d="M263.4,138.9l.3,27.5c11.1-7.7,15-10,24-27,66.1,46.4,10.2,86-9.2,98.8l-1.6-2c43-42,11.8-69.1,4.3-76l-17.7,13v28.6c0,13.1,11,11,19.2,0l3.9,2.7c-4.4,4.2-18.8,20.8-25.9,28.5-4.9-10.6-18.3-19.6-25.9-20.9,3.7-1,7.2-5.8,7.1-10.8V139.5c-.1-46.1,42.2-51.2,50.9-51.8l.3,1.3c-23.8,5.3-29.7,30.5-29.7,49.9" fill="#fff"/>
          <path d="M365.6,231.1c-13.4,1.4-41.5-10.9-41.6-36.3s27-51.2,38.5-56.6c7.6,10.1,17.2,20.3,25.5,25.9-7.7,6.9-34.2,31-42.2,37.4a33.8,33.8,0,0,0,23.5,10.7c5.1,0,12.6-6.9,15.3-12.1l4.2,2.3c-6.1,7.3-16.4,20-23.2,28.7m-14.9-76.2c-18.3,21.4-13.8,38.3-8.6,42.2,22.3-19.3,28-24.1,28-24.1C363,169.1,353.7,159.4,350.7,154.9Z" fill="#fff"/>
        </g>
        <g>
          <path d="M214.3,390.8c-4.8-10.5-22.5-20.3-30-21.6,3.6-2.5,6.3-4.9,6.7-8.7V312.6s.1-4.8-12.4-6.3c24.8-6.1,45.4-33.2,46.9-37.1l4,1.6c-7.6,9.6-11.8,27.3-12.6,34.2h18.3v6.3H216.8v47.5c.1,13.1,11.2,11.5,19.5.5l3.8,2.9c-4.4,4.3-18.8,20.8-25.9,28.5" fill="#fff"/>
          <path d="M306,389.7c-10.8-4.1-20.8-11.3-21.6-22.1L262.7,390c-31.9-16.5-23-67.7,5.4-93,13.5,7.9,33.3,9.9,44.1,5.7l.9,1.5c-5,2.5-5.9,5.8-5.9,11.2v43.1c0,12.5,10,13.1,19.4.7l4.1,2.7c-10.6,11.2-17.1,17.5-24.8,27.8m-21.9-71.4s-12.1-.5-19.6-6.3c-22.5,30.9,2.2,52.9,14.9,54.8l4.8-3.6Z" fill="#fff"/>
          <path d="M359.6,390.5c-4.9-10.6-22.6-20.3-30.1-21.7,3.7-2.5,6.3-4.8,6.7-8.6V312.3s.2-4.9-12.3-6.4c24.8-6,45.3-33.2,46.8-37l4.1,1.5c-7.7,9.6-11.9,27.4-12.6,34.3h18.2V311H362.1v47.6c0,13,11.2,11.5,19.4.5l3.9,2.9c-4.4,4.2-18.8,20.8-25.9,28.5" fill="#fff"/>
          <path d="M429,389.2c-13.5,1.4-41.6-10.9-41.6-36.3s27-51.2,38.5-56.6c7.5,10.1,17.2,20.3,25.4,25.9-7.6,6.9-34.1,31-42.2,37.4a33.9,33.9,0,0,0,23.5,10.7c5.2,0,12.7-6.9,15.4-12.1l4.2,2.3c-6.1,7.3-16.5,20-23.2,28.7M414,313c-18.2,21.4-13.8,38.3-8.6,42.2,22.3-19.3,28.1-24.1,28.1-24.1C426.4,327.2,417.1,317.5,414,313Z" fill="#fff"/>
          <path d="M163.8,279.2a48.6,48.6,0,0,1-5.4,0l-9.9,21.9c15.4.2,26.9,5.8,31.6,18.8,9.7,27.3-18.4,60.3-29.1,69.4-7.7-8.5-15.8-18.7-47.6-21.3-15.6-1.3-31.1-.1-35.9,13.9-4,12,8.7,24.1,26,24.4a55.1,55.1,0,0,0,14.8-1.2l-.2,1.6c-23.8,5.2-46-3.8-46.6-24.5-.2-8.5,3.6-19.3,13-25.3,11.8-7.5,28.1-9.3,45.4-6.8l10.6-22.7c-11.8.2-25.4-.4-36-6.7C66.1,304,80.1,275.9,89,269.3c7.1-5.2,18.4-13.1,21.1-18.7,48.5,10.5,62.9,2,69.6-4.9l2.9,1.7-18.8,31.8m-46.9-6.8c-20.3-5.6-29.3,5.4-29.2,16.2,0,15.6,27.9,12.4,43.5,12.6h11.3l10.4-22.8C144,277.5,126.7,275,116.9,272.4ZM156.6,329c-4.4-1.5-13.1-1.7-20.4-1.5L125.3,351c13.1,2.1,29.3,10.3,36,16.1C171.5,353.8,172.4,334.6,156.6,329Z" fill="#fff"/>
        </g>
      </g>
    </g>
  </g>
</svg>
