<svg xmlns="http://www.w3.org/2000/svg" viewBox="0 0 512 512">
  <title>ledger-enquirer</title>
  <g id="Layer_2" data-name="Layer 2">
    <g id="Art">
      <rect width="512" height="512" fill="#164674"/>
      <g>
        <path d="M148.1,122c-9.9,12.5-25.7,30.4-45.5,30.4-9.7,0-22.2-5.4-29.3-5.4-12.1,0-17.6,4.6-21.9,15.5L48,160.8c3.8-27,16.8-41.8,38.1-41.8,16.4,0,20.8,8.8,34,8.8,11.3,0,19.6-2.7,25.3-8.5Z" fill="#fff"/>
        <path d="M260,339.4l-35.4,54.9c-18.2-12.8-43.5-19.8-72.1-19.8-40.4,0-58,6.7-82.3,19.2l-4.3-5.4c22.2-16.5,32.7-35.2,32.7-60.7V270.3H90.5c-12.2,0-22.9,4.1-23.3,20.6h-.7c-4.5-3.8-9.1-14.5-9.1-28,0-19.2,15.2-31.7,35.4-31.7h5.8V218.4c0-48.2,31.3-66.1,80.2-96.1,13.5,7.8,22.9,12.2,47.5,16.5L199,169.5a111.5,111.5,0,0,1-35.4-17.9V335.7a77.2,77.2,0,0,1,16.9-2c24.9,0,49,6.2,64.7,15.1l8.4-13.8Zm-103.8-1.7V148.6c-9.1,8.8-13.1,17.5-13.1,44.2v99.1c0,29.1-6.7,46.5-30.7,64v1a196.9,196.9,0,0,1,43.8-19.2" fill="#fff"/>
        <path d="M354.4,121c-11.6,13.2-29.9,31.7-53.2,31.7-11.5,0-26.3-5.7-34.7-5.7-14.2,0-20.5,5-25.6,16.5l-4.1-1.7c4.5-28.4,19.8-44.1,44.8-44.1,19.4,0,24.5,9.1,40.2,9.1,13.2,0,22.9-2.4,29.6-8.5Z" fill="#fff"/>
        <path d="M464,339.4l-35.4,54.9c-18.2-12.8-43.5-19.8-72.1-19.8-40.5,0-58,6.7-82.3,19.2l-4.7-5.4c22.3-16.5,33-35.2,33-60.7V270.3h-8c-12.2,0-23,4.1-23.3,20.6h-.7c-4.5-3.8-9.1-14.5-9.1-28,0-19.2,15.2-31.7,35.4-31.7h5.7V218.4c0-48.2,37.8-68.8,80.3-96.1,13.5,7.8,34.4,16.5,72.1,18.9l-37.1,39.4a175.2,175.2,0,0,1-50.2-25.9v76.5h50.6l-19.3,38.1H367.6v66.4a77.1,77.1,0,0,1,16.8-2c25,0,49.1,6.2,64.8,15.1l8.4-13.8ZM359.8,231.9V148.6h-.6c-9.1,8.8-12.2,17.5-12.2,44.2v62Zm0,105.8V269.3H347c-.3,5.8,0,22.6,0,22.6,0,29.1-6.6,46.5-30.6,64v1a196.3,196.3,0,0,1,43.4-19.2" fill="#fff"/>
      </g>
    </g>
  </g>
</svg>
