<svg xmlns="http://www.w3.org/2000/svg" viewBox="0 0 512 512">
  <title>sun-herald</title>
  <g id="Layer_2" data-name="Layer 2">
    <g id="Art">
      <rect width="512" height="512" fill="#fff"/>
      <g>
        <circle cx="256.3" cy="254.6" r="217.9" fill="#fff"/>
        <circle cx="256.9" cy="255.1" r="188.7" transform="translate(-105.2 256.4) rotate(-45)" fill="#008ed3"/>
        <path d="M256.9,31.1c-123.8,0-224,100.3-224,224s100.2,224,224,224,224-100.3,224-224S380.6,31.1,256.9,31.1Zm0,429.7c-113.4,0-205.7-92.3-205.7-205.7S143.5,49.5,256.9,49.5s205.6,92.2,205.6,205.6S370.3,460.8,256.9,460.8Z" fill="#fbc550"/>
        <path d="M256.9,31.1c-123.8,0-224,100.3-224,224s100.2,224,224,224,224-100.3,224-224S380.6,31.1,256.9,31.1Zm0,429.7c-113.4,0-205.7-92.3-205.7-205.7S143.5,49.5,256.9,49.5s205.6,92.2,205.6,205.6S370.3,460.8,256.9,460.8Z" fill="#fdc140"/>
        <path d="M227.5,222.4l-7.7,2.7c-9.9-16.2-30.1-37.1-50.6-37.1-13.9,0-25.2,7.5-25.2,22.1,0,16.6,17.4,21,30.3,25.1l11.9,3.8c24.9,8.1,49.2,19.6,49.2,49.6,0,27.7-23.1,46.9-49.6,46.9a85.4,85.4,0,0,1-25.5-4.4c-3.8-1.2-6.2-2.3-10.3-2.3s-5.2.5-18,6.5l-13.1-46.7,7.9-2.6c11.9,19.2,31.5,41.6,56,41.6,14.6,0,29.5-10.3,29.5-25.9s-16.1-21.6-29.1-25.7c-26.9-8.7-60.7-18.8-60.7-53.2,0-25.6,20.4-42.6,45.3-42.6,8.3,0,14.6,1.4,22.3,4,2.8,1,5.4,2,8.5,2,5,0,11.9-4,15.6-7.5Z" fill="#fff"/>
        <path d="M289.4,250.4V208.3c0-14.2,4.9-18.6,19.1-18.6V183H238.2v6.7c14.1,0,19,4.4,19,18.6V306c0,14.1-4.9,18.6-19,18.6v6.7h70.3v-6.7c-14.2,0-19.1-4.5-19.1-18.6V260h52.7v46c0,14.1-4.9,18.6-19.1,18.6v6.7h70.4v-6.7c-14.2,0-19.1-4.5-19.1-18.6V208.3c0-14.2,4.9-18.6,19.1-18.6V183H323v6.7c14.2,0,19.1,4.4,19.1,18.6v42.1Z" fill="#fff"/>
      </g>
    </g>
  </g>
</svg>
