<svg xmlns="http://www.w3.org/2000/svg" viewBox="0 0 296.77 41.28"><defs><style>.cls-1{fill:#231f20;}.cls-1,.cls-2{fill-rule:evenodd;}.cls-2{fill:#6c7b34;}</style></defs><title>merced-sun-star</title><g id="Layer_2" data-name="Layer 2"><g id="mer"><path class="cls-1" d="M148.23,13.15c-.53-1.27-2.87-7.42-1.88-9a3.38,3.38,0,0,1,.42-.83,5.15,5.15,0,0,1,3.76.42c.54,2.79.23,6.66.21,9.81h4.8c0-3.28.65-10.6-.21-13.16-1.85,0-2.07.22-2.92,1-.63.21-2.79-1-4-1.25-2.38-.56-5.66.76-6.89,1.67-2.66,2-1.38,7.81-.21,10.65,1.43,3.46,3,6.76,4.59,10.24,2,4.41,4.55,7.44,4.39,14.2a3.77,3.77,0,0,0-.63.84,3.59,3.59,0,0,0-.83.42,9.54,9.54,0,0,1-2.93-.42c-.66-2.63-.45-6.74-.41-10h-4.81v13c1.78.1,2.79.16,3.14-1.25,1.34.46,2.46,1.31,4.17,1.67,4.65,1,9.93-3.23,8.78-8.15C155.06,25.53,151,19.71,148.23,13.15Zm78.76,0c-.54-1.27-2.87-7.42-1.88-9a3.07,3.07,0,0,1,.42-.83,5.16,5.16,0,0,1,3.76.42c.54,2.79.23,6.66.21,9.81h4.8c0-3.28.64-10.6-.21-13.16-1.85,0-2.07.22-2.92,1-.64.21-2.79-1-4-1.25-2.38-.56-5.67.76-6.9,1.67-2.66,2-1.38,7.81-.2,10.65,1.43,3.46,3.05,6.76,4.59,10.24,2,4.41,4.55,7.44,4.39,14.2a3.77,3.77,0,0,0-.63.84,3.59,3.59,0,0,0-.83.42,9.49,9.49,0,0,1-2.93-.42c-.67-2.63-.45-6.74-.42-10h-4.8v13c1.78.1,2.79.16,3.13-1.25,1.34.46,2.47,1.31,4.18,1.67,4.65,1,9.92-3.23,8.77-8.15C233.81,25.53,229.77,19.71,227,13.15ZM168.71.61v2.3H170V37.8a1.21,1.21,0,0,0-.42.42c-.73.19-1.92.75-2.72.2a5.09,5.09,0,0,1-1.46-.41c-.67-3.51-.21-8.24-.21-12.12v-23a4.45,4.45,0,0,0,1.47-.21,7.87,7.87,0,0,0-.21-2.3c-3,0-7.47-.64-10,.21a7.87,7.87,0,0,0,.21,2.3h2.09V28.4c0,3.28-.6,8.22.83,10.23s6.68,3.15,10.45,2.3c1.84-.41,3.83-1,4.59-2.51,1.17-2.24.42-7.4.42-10.44V2.91h2.3A8.68,8.68,0,0,0,177.06.4C174.54.39,170.82-.09,168.71.61Zm23,0v2.3h2.09V24.43c-.85-1.18-.59-3.51-1-5-1.21-4.05-2-8.68-3.13-12.74-.54-1.87-.31-4.14-1.26-5.64L188.13.4c-3,0-7.62-.66-10.23.21v2.3h2.3V38.42h-2.3v2.3h9.4v-2.3H185V10.85c.88,1.31.94,5,1.46,6.68,1.51,5,2.66,10.47,4.18,15.46.71,2.33.62,5.41,1.88,7.31v.42h6.06V2.91h2.3A8.68,8.68,0,0,0,200.67.4C198,.39,194-.15,191.68.61Zm65.18,12.75c0-3.24.63-10.43-.21-13H242c-2.13,0-5.15-.36-6.89.21V13.36h4.8V2.91h2.72V38.42h-2.3v2.3h11.28a7.87,7.87,0,0,0-.21-2.3h-2.09V2.91h2.72V13.36Zm15.46,25.06q-2.08-18.9-4.18-37.81h-.21V.4c-1.58,0-6.57-.39-7.52.21-1.17,1.64-.7,6.41-1.25,8.78-1.53,6.6-1.39,14.09-2.92,20.68-.53,2.25,0,6.24-1.05,7.94-.33.54-.8.46-1.67.41v.21h-.21v2.09h7.94v-2.3h-1.67c.28-2.16.55-4.31.83-6.47H265c.54,1.62-.05,4.6.83,6.06v.41H264v2.3H274.2a7.54,7.54,0,0,0-.21-2.3ZM261,29.23a89,89,0,0,1,1.46-14c.45-2.06-.35-4.88.63-6.48V8.55h.21q.72,10.33,1.46,20.68Zm35.51,9.4a2.7,2.7,0,0,0-1.46-.21v-.2h-.21V26.93c0-1.69.17-3.68-.62-4.59-.4-1.05-1.82-1.57-3.14-1.67,1.25-1,2.76-.64,3.34-2.3.62-.94.42-2.9.42-4.39,0-3.55,0-7.42-.21-10.65A8,8,0,0,0,290.91.82c-1.18-.35-3.37.19-4.38-.42-3.15,0-8.92-.65-11.49.21v2.3h2.29V38.42H275v2.3H285.9v-2.3h-2.09V22.13c1.29,0,2.84-.14,3.55.42a4.1,4.1,0,0,1,1.05.62V34.66c0,1.53-.26,3.71.41,4.6.83,2.14,5.13,1.72,7.73,1.46v-.21h.21A3.85,3.85,0,0,0,296.55,38.63ZM287.78,19a15.23,15.23,0,0,1-4,.41V2.91a9.37,9.37,0,0,1,4.18.63C288.89,5.79,288.84,17.15,287.78,19Zm-85.23,1.25a5.27,5.27,0,0,0,0,2.92c3.41,0,11.12.68,13.78-.21a9.41,9.41,0,0,0-.2-2.71Z"/><path class="cls-2" d="M88.57.4V13.56h-4.8c0-3.21.35-7.17-.21-10a6.07,6.07,0,0,0-3.13-.63c-.28.27-1.09.5-1.26.84V37.59c.17.21.08.06.21.42a5.55,5.55,0,0,0,2.93.62,11.3,11.3,0,0,1,1.25-1c1.1-2.69.47-6.11.21-9.4h4.8c.4,4.36,1.58,9.86-1.88,11.91-2.94,1.74-12.53,1.3-13.57-1.68-.67-.76-.42-2.77-.42-4.17V9.39c0-1.81-.41-4.64.21-6.06C73.8,1.25,78.13-.62,81.68.2c1.5.34,2.46,1.18,3.76,1.46C85.83.29,86.77.31,88.57.4Z"/><path class="cls-2" d="M0,.4H11.7V.82c1,1.6.54,5.4,1,7.52.68,2.9.53,6.06,1.26,9.19a47.21,47.21,0,0,1,1.25,10.24h.21v-.21c.8-1.36.41-4.89.83-6.68,1.1-4.64,1.22-10,2.3-14.63C19,4.46,18.51,2,19.43.61,20.66-.16,28,.38,30.08.4V2.91h-2.3V38.42h2.3v2.3H19.43v-2.3h2.09V17.33c0-1.71.44-6.9-.21-7.94a56.45,56.45,0,0,1-1.88,12.32L19,25.89c-1.14,4.71-1.49,10-2.51,14.83H11.07Q9.2,25.17,7.31,9.6H7.1v.2c-.4.85,0,6.33,0,8.15V38.42H9.19v2.3H0v-2.3H2.3V2.91H0Z"/><path class="cls-2" d="M30.5.4H48.05V13.15H43.24V2.91h-4V19.2H44.5v2.51H39.27V38.42h4.6V28h4.8V40.72H30.5v-2.3h2.3V2.91H30.5Z"/><path class="cls-2" d="M88.78.4h17.55V13.15h-4.8V2.91h-4V19.2h5.22v2.51H97.56V38.42h4.59V28H107V40.72H88.78v-2.3h2.3V2.91h-2.3Z"/><path class="cls-2" d="M70,38.22V27.14c0-1.55.23-3.63-.42-4.59-.39-1.19-1.9-1.77-3.34-1.88,1.32-.91,2.76-.63,3.34-2.3.56-.81.42-2.41.42-3.76,0-2.72.59-10.36-.62-11.7C68.74,1.24,66.88,1.28,65,.82c-4.13-1-10-.51-14.83-.42V2.91h2.29V38.42H50.14v2.3H61v-2.3H58.91V22.13c1.29,0,2.85-.14,3.55.42,1.43.55,1,2.47,1,4.38,0,2.62-.64,10.88.41,12.33.81,2.24,5.3,1.72,7.94,1.46v-2.3A6,6,0,0,1,70,38.22ZM63.51,14.61c0,1.39.19,3.18-.42,4-.75.94-2.43.9-4.18.83V2.91a9.34,9.34,0,0,1,4.18.63C64.15,6.17,63.51,11.23,63.51,14.61Z"/><path class="cls-2" d="M128.06,12.1c0-2.87.6-7.55-.63-9.4C125.37-.38,113.72.35,108.21.4V2.91h2.3V38.42h-2.3v2.3c7.91,0,14,1,19.22-2.3.72-2.74.63-7,.63-10.65Zm-6.69,24.44c-.07,2.23-2.11,2-4.38,1.88V2.91c.89,0,2.37-.16,2.92.21a2.17,2.17,0,0,1,1.25.42c.55,2.54.42,6.23.42,9.4V28C121.58,29.77,122.06,35.45,121.37,36.54Z"/></g></g></svg>