<?xml version="1.0" encoding="utf-8"?>
<!-- Generator: Adobe Illustrator 23.0.6, SVG Export Plug-In . SVG Version: 6.00 Build 0)  -->
<svg version="1.1" id="Art" xmlns="http://www.w3.org/2000/svg" xmlns:xlink="http://www.w3.org/1999/xlink" x="0px" y="0px"
	 viewBox="0 0 512 512" style="enable-background:new 0 0 512 512;" xml:space="preserve">
<style type="text/css">
	.st0{fill:#98002E;}
	.st1{fill:#FFFFFF;}
	.st2{fill:#0021A5;}
	.st3{fill:none;stroke:#FFFFFF;stroke-width:5.3333;stroke-miterlimit:10;}
	.st4{fill:#F04C24;stroke:#FFFFFF;stroke-width:5.3333;stroke-miterlimit:10;}
	.st5{fill:#FA4616;}
	.st6{fill:#782F40;}
	.st7{fill:none;stroke:#FFFFFF;stroke-width:5.3378;stroke-miterlimit:10;}
	.st8{fill:#F04C24;stroke:#FFFFFF;stroke-width:5.3378;stroke-miterlimit:10;}
	.st9{fill:#CEB888;}
	.st10{fill:#0077C8;}
	.st11{fill:none;stroke:#000000;stroke-width:10.6667;stroke-miterlimit:10;}
	.st12{fill-rule:evenodd;clip-rule:evenodd;}
	.st13{fill-rule:evenodd;clip-rule:evenodd;stroke:#000000;stroke-width:2.6667;stroke-miterlimit:10;}
	.st14{fill:#005030;}
	.st15{fill:#F47321;}
	.st16{fill:#FCEE21;}
	.st17{fill:#E8E7E7;}
	.st18{fill:#A21D3E;}
	.st19{fill:#D98227;}
	.st20{fill:#72BE44;}
	.st21{fill:#231F20;}
	.st22{fill:#CAC8C8;}
	.st23{fill:#0033A0;}
	.st24{fill:#3A578C;}
	.st25{fill:#69BE28;}
	.st26{fill:#80A27B;}
	.st27{fill:#F7C421;}
	.st28{fill:#0039A6;}
	.st29{fill:#F9461C;}
	.st30{fill:#F2F2F2;}
	.st31{fill:#0085CA;}
	.st32{fill:#008CA8;}
	.st33{fill:#FFFFFF;stroke:#FFFFFF;stroke-width:5.3378;stroke-miterlimit:10;}
	.st34{fill:#1D1160;}
	.st35{fill:#FF0000;}
	.st36{fill:#DA291C;}
	.st37{fill:#1E4971;}
	.st38{fill:#5DA423;}
	.st39{fill:#C41230;}
	.st40{fill:#004B8D;}
	.st41{fill:#E4E416;}
	.st42{fill:none;stroke:#FFFF00;stroke-width:10.6667;stroke-miterlimit:10;}
	.st43{fill:url(#SVGID_1_);}
	.st44{fill-rule:evenodd;clip-rule:evenodd;fill:#FCD6C2;}
	.st45{fill-rule:evenodd;clip-rule:evenodd;fill:#FFFFFF;}
	.st46{clip-path:url(#SVGID_3_);}
	.st47{fill-rule:evenodd;clip-rule:evenodd;fill:#231F20;}
	.st48{fill-rule:evenodd;clip-rule:evenodd;fill:none;}
	.st49{fill-rule:evenodd;clip-rule:evenodd;fill:url(#SVGID_4_);}
	.st50{fill:url(#SVGID_5_);}
	.st51{filter:url(#Adobe_OpacityMaskFilter);}
	.st52{fill-rule:evenodd;clip-rule:evenodd;fill:url(#SVGID_7_);}
	.st53{mask:url(#SVGID_6_);}
	.st54{fill-rule:evenodd;clip-rule:evenodd;fill:#FBE5D5;}
	.st55{fill:url(#SVGID_8_);}
	.st56{fill:url(#SVGID_9_);}
	.st57{fill:url(#SVGID_10_);}
	.st58{fill:url(#SVGID_11_);}
	.st59{opacity:0.55;fill:url(#SVGID_12_);}
	.st60{opacity:0.55;fill:url(#SVGID_13_);}
	.st61{opacity:0.55;fill:url(#SVGID_14_);}
	.st62{opacity:0.55;fill:url(#SVGID_15_);}
	.st63{clip-path:url(#SVGID_17_);fill:url(#SVGID_18_);}
	.st64{opacity:0.46;fill:#FFFFFF;}
	.st65{opacity:0.61;fill:url(#SVGID_19_);}
	.st66{filter:url(#Adobe_OpacityMaskFilter_1_);}
	.st67{opacity:0.49;mask:url(#SVGID_20_);}
	.st68{fill:url(#SVGID_21_);}
	.st69{fill:#007980;}
	.st70{fill:#219DA7;}
	.st71{fill:#F04C24;}
	.st72{fill:#7AB2DD;}
	.st73{fill:#004687;}
	.st74{fill:#002A5C;}
	.st75{fill:#93B1D7;}
	.st76{fill:#CA2430;}
	.st77{fill:#9E1721;}
	.st78{fill:#0050BA;}
	.st79{fill:#E8000D;}
	.st80{clip-path:url(#SVGID_23_);fill:#E4A710;}
	.st81{clip-path:url(#SVGID_25_);}
	.st82{fill:#FFDD15;}
	.st83{filter:url(#Adobe_OpacityMaskFilter_2_);}
	.st84{opacity:0.3;mask:url(#SVGID_26_);}
	.st85{fill:#FAAF40;}
	.st86{opacity:0.2;clip-path:url(#SVGID_25_);}
	.st87{opacity:0.5;clip-path:url(#SVGID_25_);fill:#FAAF40;}
	.st88{clip-path:url(#SVGID_25_);fill:#FFCA05;}
</style>
<g>
	<rect class="st19" width="512" height="512"/>
	<path class="st20" d="M357.9,289.9c-8.2,2.7-21.9,6.2-35.8,6.3c-13.9,0.1-26.4-3.3-35.6-10.7c-8.9-7.2-14-18.3-14.1-32
		c-0.1-17.7,7.5-32.4,20.2-42.5c12-9.5,28.2-14.7,46.9-14.8c14.2-0.1,25.3,2.7,29.3,4.7l-6.3,18.2c-5.1-2.3-14-4.6-24.1-4.5
		c-10.7,0.1-20.6,3.2-27.8,8.4c-8.7,6.4-14.1,16.6-14,28.4c0.1,17.8,11.8,26.3,29.8,26.2c5.8,0,9.7-0.9,12.5-2.1l3.7-19.3l-17.4,0.1
		l3.4-17.4l38.9-0.2L357.9,289.9z"/>
	<path class="st20" d="M417.8,296.4c-26.7,0.2-44.9-16.7-45.1-43.4c-0.1-17,6.3-31.7,17.1-42c10.1-9.9,24.4-15.8,40.2-15.9
		c27.4-0.2,44.9,16.4,45.1,43.8c0.1,16.7-5.9,31.2-16.6,41.6c-9.9,9.9-24.1,15.8-40.7,15.9L417.8,296.4z M420.9,278.4
		c7.5,0,14.5-3.3,19.7-8.7c7.1-7,11.2-17.9,11.1-29.4c-0.1-14.2-5.7-27.4-24-27.3c-8,0.1-14.8,3.4-20.1,8.8
		c-7.4,7.4-11.5,18.5-11.4,29.4c0.1,16.5,8.1,27.2,24.5,27.1L420.9,278.4z"/>
	<polygon class="st21" points="187.1,255.3 141.8,255.6 142,277.6 187.2,277.4 187.3,296.1 119,296.5 118.4,198.8 186.7,198.3 
		186.8,217 141.6,217.3 141.7,236.9 187,236.6 	"/>
	<g>
		<path class="st21" d="M226.7,286.5c-1.6-2.6-3.1-5.4-4.4-8.4l-0.4,0c-1.6,3.2-3,5.9-4.3,8.5l-4.8,9.3l-18.8,0.1l-13.3,21.5
			l33.2-0.2l7.5-16.9c2.1-4.8,4.1-8.8,5.7-12.9L226.7,286.5z"/>
		<path class="st21" d="M246.9,265.3l30-48.8l-33.2,0.2l-6.9,16c-0.5,1.3-1,2.5-1.5,3.6l22.4-0.1l-21.1,27.9l21.5,31.5l-22.7,0.1
			c0.8,1.5,1.6,3.1,2.5,4.9l8.3,16.5l33.5-0.2L246.9,265.3z"/>
		<path class="st21" d="M212.9,236.5l5.4,8.4c1.7,2.6,3.4,5.3,5,8.1l0.4,0c1.5-3.1,2.8-5.6,4.2-8.2c-1.8-4-3.5-7.7-5.7-12.2
			l-7.7-15.8l-33.2,0.2l12.2,19.5L212.9,236.5z"/>
		<polygon class="st20" points="142,277.6 141.8,255.6 187.1,255.3 187,236.6 209.1,265.4 187.3,296.1 187.2,277.4 		"/>
	</g>
	<polygon class="st21" points="41.5,199.2 64.6,199.1 65.1,277.5 108.6,277.3 108.7,296.6 42.2,297 	"/>
</g>
</svg>
