<svg xmlns="http://www.w3.org/2000/svg" viewBox="0 0 512 512">
  <title>mcclatchy-dc</title>
  <g id="Layer_2" data-name="Layer 2">
    <g id="Art">
      <g>
        <rect width="512" height="512"/>
        <g>
          <g>
            <g>
              <path d="M109,139.5h52.7c46.9,0,90.4,31.7,90.1,93.1s-43,90.9-89.9,90.9H109Zm27.2,20.6V302.8h24.2c34.6,0,63.3-22.1,63.5-70.4s-28.9-72.3-64-72.3Z" fill="#fff"/>
              <path d="M406.5,315.6c-13.6,7.9-30.2,11.6-50.4,11.6-48.2,0-90.7-32.5-90.5-94.4s42.3-96.7,93.2-96.7c19.7,0,34.3,3.2,46.7,9.3l-6.7,21.1c-10.9-5.9-23.7-8.6-38.3-8.6-37.5,0-66.4,27-66.7,74.7s29.4,72.7,63.5,72.7c18.8,0,30.6-3.7,42-9.8Z" fill="#fff"/>
            </g>
            <rect x="109" y="347.5" width="297.4" height="18.28" fill="#b20009"/>
            <path d="M109.1,390.4h19.4c10.7,0,17.9,5.2,17.9,15.7,0,6.8-3.4,11.1-9.1,13.3,7.2,2.1,11.8,6.9,11.8,14.7,0,10.6-8.3,17.2-19.6,17.2H109.1Zm8.9,6.3v20h9.6c6.5,0,10.4-3,10.4-10.3s-3.7-9.7-10.4-9.7Zm0,26.2V445h10.5c7.3,0,11.8-4.1,11.8-11.4s-4.4-10.7-11.5-10.7Z" fill="#fff"/>
            <path d="M181,445.3c8.3,0,13.8-4.7,13.8-15V390.4h8.1v39c0,14.9-8.5,23.1-22.4,23.1s-22.9-8.6-22.9-23.1v-39h8.9v39.7C166.5,440.1,171.6,445.3,181,445.3Z" fill="#fff"/>
            <path d="M214.9,390.4h20c10.8,0,18.5,6.3,18.5,17.7,0,9-5.5,14.8-12.8,16.8l15.9,26.4h-9.7l-15.4-25.5h-7.6v25.5h-8.9Zm8.9,6.8v22.6h9.4c7.3,0,11.5-4.2,11.5-11.6s-4.2-11-11.5-11Z" fill="#fff"/>
            <path d="M264.8,390.4h35v6.8H273.7v19.2h24.1v6.8H273.7v21.3h26.4v6.8H264.8Z" fill="#fff"/>
            <path d="M329.3,389.9h6.8l22.3,61.4h-8.9l-5.4-15H320l-5.3,15h-7.8Zm2.8,12.6-9.8,27.4h19.5Z" fill="#fff"/>
            <path d="M385.3,445.3c8.3,0,13.7-4.7,13.7-15V390.4h8.2v39c0,14.9-8.6,23.1-22.5,23.1s-22.9-8.6-22.9-23.1v-39h9v39.7C370.8,440.1,375.9,445.3,385.3,445.3Z" fill="#fff"/>
          </g>
          <g>
            <path d="M119,108.3H104.8v-1.5l2.9-.5c1.8-.2,2.1-.3,2.1-1.3l.9-35.9c-.9-2-2.9-2.3-5.8-2.4V65h11.9l14.6,33,14.3-33h12.2v1.7c-3,.1-4.7.4-5.8,2.4V105c0,1,.3,1.1,2,1.3l3.5.5v1.5H138.5v-1.5l3.9-.5c1.8-.2,2.2-.3,2.2-1.3V73.4l-15.2,34.3h-1.2L112.3,72l.8,33c0,1,.2,1.1,2,1.3l3.9.5Z" fill="#fff"/>
            <path d="M158.7,94.3c0-10.4,7.7-18.4,17.7-18.4,6.9,0,10.5,3.7,10.5,6a3.1,3.1,0,0,1-3.2,3.1c-5.8,0-4.3-7.2-9.6-7.2s-8.3,4-8.3,13.8c0,7.5,3.6,13.2,10.7,13.2a11.9,11.9,0,0,0,9-4l1,1a15.5,15.5,0,0,1-13.4,7.3C165,109.1,158.7,103.4,158.7,94.3Z" fill="#fff"/>
            <path d="M229.7,66.8l1.1,10h-1.6c-2.3-7.9-6.6-11-13.1-11-8.6,0-15.8,6.2-15.8,18.8,0,15.2,7.7,22.4,16.5,22.4,5.8,0,10.1-3.2,12.4-11h1.6l-1.1,10a25.5,25.5,0,0,1-12.8,3.1c-13.7,0-24.5-9.1-24.5-22S203,63.6,216.6,63.6C222.5,63.6,226.4,64.8,229.7,66.8Z" fill="#fff"/>
            <path d="M235.3,108.3v-1.7l1.3-.2c2-.3,2.2-.4,2.2-1.7V66.6l-3.3-1.7V63.8c3.6-1,5.9-2.5,9.4-4.3h.8V105c0,1,.4,1,2.3,1.3l1.1.3v1.7Z" fill="#fff"/>
            <path d="M270.2,104.6h-.3c-3.9,3-6.1,4.5-9.7,4.5s-7.8-2-7.8-5.6c0-6.3,9.1-9.5,17.9-12.2.1-2.7.2-5,.2-6.5,0-4.7-2.6-5.9-6.8-5.9-2.5,0-3.9.4-4.3,2.4s-.1,2-.1,3-6,2-6,0,7.6-8.4,15-8.4c5.9,0,9,2.5,9,6.9,0,8.4-.4,16-.4,19.1s.8,2.9,2.5,2.9a8.4,8.4,0,0,0,3.8-.8l.3,1a11.5,11.5,0,0,1-8.1,4.1C272.5,109.1,270.6,107.9,270.2,104.6Zm-.4-2.9c0-1.4.2-5,.4-8.6-5.8,2.1-7.9,3-9.2,4a4.6,4.6,0,0,0-2.1,4c0,2.5,1.7,4.2,4.8,4.2S269.8,103.3,269.8,101.7Z" fill="#fff"/>
            <path d="M288.4,79.4H284V78.2a22.2,22.2,0,0,0,10.3-8.4h1.2V77H306v2.3H295.4V100c0,4.8,2.2,5.2,4.2,5.2a7.5,7.5,0,0,0,4.5-1.2l.7,1.2a11.9,11.9,0,0,1-9,3.9c-5.2,0-7.4-2.8-7.4-8Z" fill="#fff"/>
            <path d="M307.3,94.3c0-10.4,7.7-18.4,17.7-18.4,6.9,0,10.5,3.7,10.5,6a3.1,3.1,0,0,1-3.2,3.1c-5.8,0-4.3-7.2-9.6-7.2s-8.3,4-8.3,13.8c0,7.5,3.6,13.2,10.7,13.2a11.9,11.9,0,0,0,9-4l1,1a15.5,15.5,0,0,1-13.4,7.3C313.6,109.1,307.3,103.4,307.3,94.3Z" fill="#fff"/>
            <path d="M337.4,108.3v-1.7l1.9-.3c2.1-.4,2.2-.5,2.2-1.6V66.6l-3.3-1.7V63.8c3.6-1,6-2.5,9.4-4.3h.9V80.6h.4a17,17,0,0,1,11.8-4.7c5.4,0,8.8,2.7,8.8,8.5v20.3c0,1.3.2,1.3,2.2,1.6l1.9.3v1.7H357.5v-1.7l2.8-.3c1.8-.2,2.2-.2,2.2-1.3V86.1c0-4.5-1.7-6-5.9-6a17.5,17.5,0,0,0-6.4,1.1c-1.5.7-1.7,1.9-1.7,4.7V105c0,1.1.4,1.1,2.2,1.3l2.8.3v1.7Z" fill="#fff"/>
            <path d="M378.2,119.3a2.6,2.6,0,0,1,2.9-2.8,2.8,2.8,0,0,1,2.9,2.2,16.5,16.5,0,0,0,2.7-4.8l2.3-5.5L377.2,81.3c-.6-1.2-.7-1.9-2.5-2.3l-1.5-.4V77h15.5v1.9l-2.8.3c-1.4.1-1.6,1.1-1.1,2.4l7.8,18.4,6.1-16.4c1.4-3.8,1.2-4.4-1.3-4.5l-2.8-.2V77h12.6v1.6l-1.8.4c-1.9.5-2,.8-3.8,5l-13.2,31.3c-2.2,5.2-4.5,6.7-6.8,6.7S378.2,121,378.2,119.3Z" fill="#fff"/>
          </g>
        </g>
      </g>
    </g>
  </g>
</svg>
