<svg xmlns="http://www.w3.org/2000/svg" viewBox="0 0 472.8 271">
  <title>lexgo-eat</title>
  <g>
    <path d="M384.1,85.8c-2.5-10-8.5-17.1-18-21.5s-18.2-5.6-26.3-3.8-13.5,5.7-16.3,11.6a16.5,16.5,0,0,0-1.3,7.8,47.9,47.9,0,0,0-15,18.8,53.3,53.3,0,0,0-3.6,9.8,106.9,106.9,0,0,1-19.5,17.9c.6-14.1,1.8-25.5,3.6-34s4.5-15.2,7.8-20a11.2,11.2,0,0,0,1.7-2.9c.2-1.5-.3-2.3-1.6-2.6a28.5,28.5,0,0,0-4.7-.6,42.2,42.2,0,0,0,2-6,18.2,18.2,0,0,0-14.2-22.5c-10.5-2.3-21.3,1.3-32.7,10.9s-18.9,23.4-22.7,41.5c-1.7,7.8-1.7,14.6,0,20.2-4-.3-7.6-2.2-10.9-5.5S204,94.2,199,85c14.1-34,29.3-56.8,35.3-62.7,7.6-7.6,10.6-9.1,16.6-10.6,1.9-.5,2.2-1.8,2.1-3.6s-1.8-3.6-4.9-5.5S242.3-.1,239.9,0a17.4,17.4,0,0,0-8.7,4.1c-4.7,4.5-22.7,16.6-37.7,70.2l-9.4-20.2c-4.6-9.7-10.6-14.3-17.8-13.8q-4.5.2-4.5,3.9c-.5,17.1-7.6,56.1-8.3,58.3q-5.4,18-21.6,22.8c-4.5,1.4-9.5.7-14.9-2s-9.9-7.8-13.5-15.5a57.4,57.4,0,0,0,12.2-2.3c7.9-2.3,13.7-6.6,17.4-12.8s4.2-13.7,1.5-22.8S127.3,54.6,120.8,51s-13.4-4.2-21-1.9S86.1,58,81.7,68.9s-4.2,24.5.7,40.8A50.6,50.6,0,0,0,87,120.8V122a51.1,51.1,0,0,1-1.5,16.2q-2.1,8.7-7.2,11.1c-5.5,2.6-13-3.7-22.7-19q-4.7-65-22.4-101.8c-3-6.3-6.6-10.9-10.7-13.6a12.2,12.2,0,0,0-13-.9C.9,18.3-1.8,29.3,1.1,47.2s11.4,41.1,25.2,69.7,26.5,44.7,37.5,48c3.6,1.1,6.6,1.5,9,1a36.2,36.2,0,0,0,8.2-3c3.1-1.5,5.5-4.2,7.4-8.1a40.6,40.6,0,0,0,3.7-12,100.2,100.2,0,0,0,.9-13.5,33.8,33.8,0,0,0,9.8,7c9.9,4.7,19.9,5.6,30,2.5a29.5,29.5,0,0,0,12.9-7.8,43,43,0,0,0,8.2-11,77.4,77.4,0,0,0,4.8-13c1.3-4.9,5.7-29.2,7.1-40.4,1.4,2.6,3.9,8,7.7,16s6.8,14.1,9.1,18.2c-10.3,21.5-21.2,32.7-32.9,33.5-1.5.2-2.1,1.1-2,2.7s1.2,3.4,3.2,5.2a8.9,8.9,0,0,0,7,2.5c5.5-.4,10.6-3.2,15.3-8.6s9.7-14,15.2-26c9.2,13.8,19.5,20.2,31,19.5a21.1,21.1,0,0,0,12.1-5l1-.9a20.6,20.6,0,0,0,8.3,3.6,20.1,20.1,0,0,0,12.5-1.8c4.3-1.9,7.3-3.7,8.8-5.1a45.4,45.4,0,0,0,3.4-3.8l.2,2.5a102.7,102.7,0,0,1-.3,19c-15.1,8.4-25.8,16.2-32.3,23.5a31.7,31.7,0,0,0-7.7,14.2,15.7,15.7,0,0,0,2.9,13.4c3,4.1,7.3,6.7,12.9,8,8.4,1.8,16.3-.5,23.8-7.2s12.9-17.8,16.3-33.4a112,112,0,0,0,2.2-21,117.1,117.1,0,0,0,18-15.5,35.8,35.8,0,0,0,1.4,10.4c2.8,9.4,9,16.4,18.7,21s19.6,4.6,29.9.1,18.9-14.1,25.7-28.9S386.6,95.8,384.1,85.8ZM43.4,108.6C28.1,76.7,19,52.7,15.9,36.5c-1.3-7.1-1.1-11,.7-11.9s6.2.8,9.1,6.9q14.9,30.9,21.8,85.6Zm57.2-8.5A77.1,77.1,0,0,1,96.8,78c.1-6.6.8-11.4,2.2-14.4s2.9-4.8,4.4-5.3c5.2-1.6,9.7,3.9,13.4,16.3a26.3,26.3,0,0,1,.3,14.7c-1.4,4.7-3.9,7.7-7.6,8.8A55.3,55.3,0,0,1,100.6,100.1Zm162.3,57.3c-2.1,10-5.1,17.4-9,22s-8,6.4-12.2,5.6-6.7-4-5.8-8.6,3.8-8.9,8.3-13a179.8,179.8,0,0,1,20.2-14.5A70.3,70.3,0,0,1,262.9,157.4Zm19.6-89.3c-6.3,3.1-11.1,12.7-14.5,28.6-1.1,5.1-3.9,10-8.6,14.9s-8.4,6.9-11.3,6.3-4.5-2.6-5.5-6.1l-.3-1.2c-.7-3.2-.6-7.4.1-12.4.2-1.6.5-3.4.9-5.2,2.8-13.5,7.8-24.6,15-33.4S272.1,47.1,278,48.4s8.1,5.6,6.5,12.9A25.7,25.7,0,0,1,282.5,68.1Zm80.4,42c-6.6,14.3-13,23.7-19,28.4s-11.6,5.8-16.4,3.5-7.5-6.6-8.1-13.1S321,113.8,326,103c2-4.2,3.4-7.1,4.3-8.7a18.3,18.3,0,0,0,3.1,1.7c2.8,1.4,4.8,1.1,5.7-1q.4-.7-.6-4.8c-.7-2.8-.2-5.9,1.5-9.6a16.7,16.7,0,0,1,8.9-8.2,14.9,14.9,0,0,1,12.4,0Q377.2,79.6,362.9,110.1ZM467.6,35a54,54,0,0,0-9.3-8.2q-2.9-1.8-3.6,1.5c-2.5,7.5-10.2,22.6-23.3,45.2s-26.8,45.2-41.5,67.9c-1,1.6-.9,2.7.4,3.5a9.9,9.9,0,0,0,5.2,1c2.2-.1,3.7-.7,4.6-1.9q4.6-5.7,30.3-40t39.9-55.3a20,20,0,0,0,2.4-5.7C473,41.5,471.3,38.9,467.6,35ZM389.3,154.8c-2.9-1.9-6.3-2.1-10.2-.7a17.2,17.2,0,0,0-8.9,6.8,12.3,12.3,0,0,0-2.2,8.9,10.9,10.9,0,0,0,4.9,6.7c2.6,1.7,5.9,1.9,9.8.8a15.3,15.3,0,0,0,8.9-6.5c2-3.2,2.9-6.2,2.6-9S392.3,156.6,389.3,154.8Z" fill="#e87545"/>
    <path d="M130,270.9h28.4V260.8H140.7V248.4h13.5V238.3H140.7v-22h18.6V206.1H130Zm83-65.7a18.1,18.1,0,0,0-14.1,6c-3.6,4-5.4,9.2-5.4,15.7V271h10.7V251.9h17.6V271h10.6V226.9c0-6.5-1.8-11.7-5.4-15.7S218.8,205.2,213,205.2Zm8.8,36.5H204.2V227.1c0-7.5,2.9-11.2,8.8-11.2s8.8,3.7,8.8,11.2Zm44.8-25.4h12.3v54.6h10.7V216.3h12.2V206.1H266.6Z" fill="#e87545"/>
  </g>
</svg>
