<svg xmlns="http://www.w3.org/2000/svg" viewBox="0 0 512 512">
  <title>bellingham-herald</title>
  <g id="Layer_2" data-name="Layer 2">
    <g id="Art">
      <rect width="512" height="512" fill="#103c61"/>
      <g>
        <path d="M115.3,404c5.3-.5,9-2.2,11.3-5.1,3.9-4.9,5.8-14.3,5.8-28.2V141.6c0-13.9-1.8-23.2-5.4-28-2.2-3-6-4.8-11.7-5.6V96h60c11.5,0,21.1,3.2,28.8,9.7q21.6,18.3,21.6,66.6c0,19.6-3,35.2-8.9,46.7s-12.1,18.7-18.9,21.7v4.4c7.2,3.4,13.4,9.1,18.8,17.1q15.5,23.7,15.5,65.7,0,39.3-14.9,63.8T177.7,416H115.3Zm72.2-178.7c4.1-9.6,6.1-26.6,6.1-50.9,0-18-1.3-33.2-4-45.6s-7.8-18.5-15.5-18.5q-6,0-8.4,5.1c-1.6,3.3-2.4,9.2-2.4,17.8V239.6c12,0,20.1-4.8,24.2-14.3M164.9,390.6c1.5,6.8,4.6,10.2,9,10.2,9.2,0,15.6-6.1,19.3-18.3s5.6-29.5,5.6-52.1c0-33.5-4.1-55.9-12.3-67-4.9-6.8-12.6-9.9-23.2-9.5V372.3c.1,8.3.6,14.4,1.6,18.3" fill="#fff" fill-rule="evenodd"/>
        <path d="M253.4,404c5.2-.6,8.8-2.4,11-5.3,3.6-5,5.4-14.3,5.4-28V141.6c0-13.5-1.6-22.5-4.9-27.3-1.9-2.8-5.8-4.9-11.5-6.3V96H319v12c-5.7.8-9.6,2.6-11.8,5.6-3.7,4.9-5.5,14.2-5.5,28v98h46.2v-98c0-13.8-1.7-23-5.2-27.8-2.1-2.9-6.2-4.8-12-5.8V96h66v12q-8.6,1.6-11.7,6c-3.5,4.8-5.2,14-5.2,27.6V370.7c0,13.9,1.9,23.3,5.8,28.2q3.3,4.4,11.1,5.1v12h-66V404c5.5-.5,9.5-2.3,11.8-5.6,3.6-4.9,5.4-14.1,5.4-27.7V261.6H301.7V370.7c0,14,1.9,23.5,5.9,28.4,2.2,2.8,6.1,4.4,11.4,4.9v12H253.4Z" fill="#fff"/>
      </g>
    </g>
  </g>
</svg>
