<svg xmlns="http://www.w3.org/2000/svg" viewBox="0 0 680 736"><title>arrows-dark</title><rect width="680" height="736" fill="none"/><rect y="23" width="192.2" height="3" fill="#585858"/><rect x="216.2" y="23" width="143.7" height="3" fill="#585858"/><rect x="384" y="23" width="23.5" height="3" fill="#585858"/><rect x="431.4" y="23" width="248.6" height="3" fill="#585858"/><rect y="47.6" width="37.2" height="3" fill="#585858"/><rect x="61.2" y="47.6" width="202.3" height="3" fill="#585858"/><polygon points="261.7 55 272.1 49.1 261.7 43.1 261.7 55" fill="#585858"/><rect x="296.1" y="47.6" width="94.6" height="3" fill="#585858"/><rect x="414.8" y="47.6" width="115.7" height="3" fill="#585858"/><polygon points="528.7 55 539 49.1 528.7 43.1 528.7 55" fill="#585858"/><rect x="563" y="47.6" width="117" height="3" fill="#585858"/><rect y="72.1" width="476.9" height="3" fill="#585858"/><rect x="500.9" y="72.1" width="179.1" height="3" fill="#585858"/><rect y="96.6" width="137.5" height="3" fill="#585858"/><rect x="161.5" y="96.6" width="264.8" height="3" fill="#585858"/><rect x="450.2" y="96.6" width="37.8" height="3" fill="#585858"/><rect x="512" y="96.6" width="46.2" height="3" fill="#585858"/><polygon points="556.5 104.1 566.9 98.1 556.5 92.2 556.5 104.1" fill="#585858"/><rect x="590.9" y="96.6" width="89.1" height="3" fill="#585858"/><rect y="243.8" width="113.5" height="3" fill="#585858"/><rect x="137.5" y="243.8" width="93.7" height="3" fill="#585858"/><rect x="255.2" y="243.8" width="21.9" height="3" fill="#585858"/><rect x="301" y="243.8" width="292.9" height="3" fill="#585858"/><rect x="617.9" y="243.8" width="62.1" height="3" fill="#585858"/><rect y="268.4" width="192.2" height="3" fill="#585858"/><rect x="216.2" y="268.4" width="143.7" height="3" fill="#585858"/><rect x="384" y="268.4" width="23.5" height="3" fill="#585858"/><rect x="431.4" y="268.4" width="248.6" height="3" fill="#585858"/><rect y="292.9" width="37.2" height="3" fill="#585858"/><rect x="61.2" y="292.9" width="202.3" height="3" fill="#585858"/><polygon points="261.7 300.4 272.1 294.4 261.7 288.4 261.7 300.4" fill="#585858"/><rect x="296.1" y="292.9" width="94.6" height="3" fill="#585858"/><rect x="414.8" y="292.9" width="124.3" height="3" fill="#585858"/><rect x="563" y="292.9" width="117" height="3" fill="#585858"/><rect y="317.4" width="468.3" height="3" fill="#585858"/><polygon points="466.5 324.9 476.9 318.9 466.5 312.9 466.5 324.9" fill="#585858"/><rect x="500.9" y="317.4" width="179.1" height="3" fill="#585858"/><rect y="342" width="137.5" height="3" fill="#585858"/><rect x="161.5" y="342" width="264.8" height="3" fill="#585858"/><rect x="450.2" y="342" width="37.8" height="3" fill="#585858"/><rect x="512" y="342" width="54.8" height="3" fill="#585858"/><rect x="590.9" y="342" width="89.1" height="3" fill="#585858"/><rect x="566.5" y="219.3" width="113.5" height="3" fill="#585858"/><rect x="448.8" y="219.3" width="93.7" height="3" fill="#585858"/><rect x="403" y="219.3" width="21.9" height="3" fill="#585858"/><rect x="86.1" y="219.3" width="284.3" height="3" fill="#585858"/><polygon points="368.6 214.8 379 220.8 368.6 226.8 368.6 214.8" fill="#585858"/><rect y="219.3" width="62.1" height="3" fill="#585858"/><rect x="487.8" y="194.8" width="192.2" height="3" fill="#585858"/><rect x="320" y="194.8" width="143.7" height="3" fill="#585858"/><rect x="272.6" y="194.8" width="23.5" height="3" fill="#585858"/><rect y="194.8" width="240" height="3" fill="#585858"/><polygon points="238.2 190.3 248.6 196.3 238.2 202.3 238.2 190.3" fill="#585858"/><rect x="642.8" y="170.2" width="37.2" height="3" fill="#585858"/><rect x="407.9" y="170.2" width="202.3" height="3" fill="#585858"/><polygon points="608.5 165.8 618.8 171.7 608.5 177.7 608.5 165.8" fill="#585858"/><rect x="289.3" y="170.2" width="94.6" height="3" fill="#585858"/><rect x="140.9" y="170.2" width="124.3" height="3" fill="#585858"/><rect y="170.2" width="116.9" height="3" fill="#585858"/><rect x="203.1" y="145.7" width="476.9" height="3" fill="#585858"/><rect y="145.7" width="179.1" height="3" fill="#585858"/><rect x="542.5" y="121.2" width="137.5" height="3" fill="#585858"/><rect x="253.8" y="121.2" width="264.8" height="3" fill="#585858"/><rect x="191.9" y="121.2" width="37.8" height="3" fill="#585858"/><rect x="113.1" y="121.2" width="46.2" height="3" fill="#585858"/><polygon points="157.6 116.7 167.9 122.7 157.6 128.7 157.6 116.7" fill="#585858"/><rect y="121.2" width="89.1" height="3" fill="#585858"/><rect x="566.5" y="464.6" width="113.5" height="3" fill="#585858"/><rect x="448.8" y="464.6" width="93.7" height="3" fill="#585858"/><rect x="403" y="464.6" width="21.9" height="3" fill="#585858"/><rect x="86.1" y="464.6" width="292.9" height="3" fill="#585858"/><rect y="464.6" width="62.1" height="3" fill="#585858"/><rect x="487.8" y="440.1" width="192.2" height="3" fill="#585858"/><rect x="320" y="440.1" width="135.1" height="3" fill="#585858"/><polygon points="453.4 435.6 463.8 441.6 453.4 447.6 453.4 435.6" fill="#585858"/><rect x="272.6" y="440.1" width="23.5" height="3" fill="#585858"/><rect y="440.1" width="248.6" height="3" fill="#585858"/><rect x="642.8" y="415.6" width="37.2" height="3" fill="#585858"/><rect x="407.9" y="415.6" width="210.9" height="3" fill="#585858"/><rect x="289.3" y="415.6" width="94.6" height="3" fill="#585858"/><rect x="140.9" y="415.6" width="124.3" height="3" fill="#585858"/><rect y="415.6" width="116.9" height="3" fill="#585858"/><rect x="203.1" y="391" width="476.9" height="3" fill="#585858"/><rect y="391" width="170.5" height="3" fill="#585858"/><polygon points="168.7 386.6 179.1 392.5 168.7 398.5 168.7 386.6" fill="#585858"/><rect x="542.5" y="366.5" width="137.5" height="3" fill="#585858"/><rect x="253.8" y="366.5" width="264.8" height="3" fill="#585858"/><rect x="191.9" y="366.5" width="37.8" height="3" fill="#585858"/><rect x="113.1" y="366.5" width="54.9" height="3" fill="#585858"/><rect y="366.5" width="89.1" height="3" fill="#585858"/><rect y="611.8" width="113.5" height="3" fill="#585858"/><rect x="137.5" y="611.8" width="93.7" height="3" fill="#585858"/><rect x="255.2" y="611.8" width="21.9" height="3" fill="#585858"/><rect x="301" y="611.8" width="284.3" height="3" fill="#585858"/><polygon points="583.5 619.3 593.9 613.3 583.5 607.4 583.5 619.3" fill="#585858"/><rect x="617.9" y="611.8" width="62.1" height="3" fill="#585858"/><rect y="636.4" width="192.2" height="3" fill="#585858"/><rect x="216.2" y="636.4" width="143.7" height="3" fill="#585858"/><rect x="384" y="636.4" width="23.5" height="3" fill="#585858"/><rect x="431.4" y="636.4" width="248.6" height="3" fill="#585858"/><rect y="660.9" width="37.2" height="3" fill="#585858"/><rect x="61.2" y="660.9" width="202.3" height="3" fill="#585858"/><polygon points="261.7 668.4 272.1 662.4 261.7 656.4 261.7 668.4" fill="#585858"/><rect x="296.1" y="660.9" width="94.6" height="3" fill="#585858"/><rect x="414.8" y="660.9" width="124.3" height="3" fill="#585858"/><rect x="563" y="660.9" width="117" height="3" fill="#585858"/><rect y="685.4" width="476.9" height="3" fill="#585858"/><rect x="500.9" y="685.4" width="179.1" height="3" fill="#585858"/><rect y="710" width="137.5" height="3" fill="#585858"/><rect x="161.5" y="710" width="264.8" height="3" fill="#585858"/><rect x="450.2" y="710" width="37.8" height="3" fill="#585858"/><rect x="512" y="710" width="54.8" height="3" fill="#585858"/><rect x="590.9" y="710" width="89.1" height="3" fill="#585858"/><rect y="489.2" width="113.5" height="3" fill="#585858"/><rect x="137.5" y="489.2" width="85.1" height="3" fill="#585858"/><polygon points="220.8 496.6 231.2 490.7 220.8 484.7 220.8 496.6" fill="#585858"/><rect x="255.2" y="489.2" width="21.9" height="3" fill="#585858"/><rect x="301" y="489.2" width="284.3" height="3" fill="#585858"/><polygon points="583.5 496.6 593.9 490.7 583.5 484.7 583.5 496.6" fill="#585858"/><rect x="617.9" y="489.2" width="62.1" height="3" fill="#585858"/><rect y="513.7" width="192.2" height="3" fill="#585858"/><rect x="216.2" y="513.7" width="143.7" height="3" fill="#585858"/><rect x="384" y="513.7" width="23.5" height="3" fill="#585858"/><rect x="431.4" y="513.7" width="248.6" height="3" fill="#585858"/><rect y="538.2" width="37.2" height="3" fill="#585858"/><rect x="61.2" y="538.2" width="202.3" height="3" fill="#585858"/><polygon points="261.7 545.7 272.1 539.7 261.7 533.8 261.7 545.7" fill="#585858"/><rect x="296.1" y="538.2" width="94.6" height="3" fill="#585858"/><rect x="414.8" y="538.2" width="124.3" height="3" fill="#585858"/><rect x="563" y="538.2" width="117" height="3" fill="#585858"/><rect y="562.8" width="476.9" height="3" fill="#585858"/><rect x="500.9" y="562.8" width="179.1" height="3" fill="#585858"/><rect y="587.3" width="137.5" height="3" fill="#585858"/><rect x="161.5" y="587.3" width="264.8" height="3" fill="#585858"/><rect x="450.2" y="587.3" width="37.8" height="3" fill="#585858"/><rect x="512" y="587.3" width="54.8" height="3" fill="#585858"/><rect x="590.9" y="587.3" width="89.1" height="3" fill="#585858"/></svg>