<svg id="Layer_1" data-name="Layer 1" xmlns="http://www.w3.org/2000/svg" viewBox="0 0 720 144">
  <defs>
    <style>
      .cls-1 {
        fill: #008169;
      }

      .cls-2 {
        fill: #394e5d;
      }

      .cls-3 {
        fill: #52b3bb;
      }

      .cls-4 {
        fill: #e9ead6;
      }
    </style>
  </defs>
  <title>squadbadges</title>
  <g>
    <path class="cls-1" d="M417.55,130.89h33.2l35.06-60.73L450.74,9.41H380.58L345.51,70.16l35.07,60.76h36.8A.47.47,0,0,1,417.55,130.89Z"/>
    <path class="cls-2" d="M417.38,134.64H378.44L341.21,70.16,378.44,5.69h74.44l37.23,64.47L452.9,134.61H418.07l-.08,0Zm-34.65-7.44h34.34a3.87,3.87,0,0,1,.48,0h31.06l32.91-57-32.93-57H382.73l-32.93,57Z"/>
  </g>
  <g>
    <path class="cls-2" d="M9.7,88.44l3.18-32.17h6.7L27,76.45,34.7,56.27h2.45v0l0,0h3.53l3.17,32.17H36L34.83,72.29,28.39,88.44H24.14L18,72.2,16.75,88.44Z"/>
    <path class="cls-2" d="M78.78,86.72C76.46,88.27,73.15,89,69.72,89c-8.81,0-16.28-5.28-16.28-16.23s7.3-16.93,16.32-16.93a19.86,19.86,0,0,1,8.72,1.59l-2,6.53a12.5,12.5,0,0,0-5.54-1.33c-5.5,0-9,3.61-9,10s3.73,9.54,8.55,9.54a12.57,12.57,0,0,0,6.22-1.63Z"/>
    <path class="cls-2" d="M113.28,86.72C111,88.27,107.65,89,104.21,89c-8.8,0-16.28-5.28-16.28-16.23s7.3-16.93,16.33-16.93A19.81,19.81,0,0,1,113,57.38l-2,6.53a12.51,12.51,0,0,0-5.55-1.33c-5.49,0-9,3.61-9,10s3.74,9.54,8.55,9.54a12.58,12.58,0,0,0,6.23-1.63Z"/>
    <path class="cls-2" d="M124.32,56.27h8.29V82.21h11.68v6.23h-20Z"/>
    <path class="cls-2" d="M165,56.05h6l11.77,32.39h-8.33l-1.59-4.73H162l-1.59,4.73h-7.22Zm2.41,11.81L164,78h6.87Z"/>
    <path class="cls-2" d="M196.15,62.49H188V56.27H212.6v6.22h-8.16V88.44h-8.29Z"/>
    <path class="cls-2" d="M246.54,86.72c-2.32,1.55-5.63,2.23-9.07,2.23-8.8,0-16.28-5.28-16.28-16.23s7.31-16.93,16.33-16.93a19.89,19.89,0,0,1,8.72,1.59l-2,6.53a12.5,12.5,0,0,0-5.54-1.33c-5.5,0-9,3.61-9,10s3.73,9.54,8.54,9.54a12.58,12.58,0,0,0,6.23-1.63Z"/>
    <path class="cls-2" d="M257.58,56.27h8.29V68.81h10.18V56.27h8.29V88.44h-8.29V75H265.87v13.4h-8.29Z"/>
    <path class="cls-2" d="M304,75.51l-9.54-19.24H303l5.58,11.64,5.55-11.64h7.26L312.27,75V88.44H304Z"/>
  </g>
  <g>
    <path class="cls-2" d="M512.5,56.27h11c8.24,0,15.8,5.49,15.8,16.23s-7.56,15.94-15.8,15.94h-11Zm8.29,6.22V82.21H523c4.6,0,7.86-3.09,7.86-9.79s-3.26-9.93-7.86-9.93Z"/>
    <path class="cls-2" d="M551.12,56.27h19.63v6.22H559.41v6.32h10.27V75H559.41v7.17h11.51v6.23h-19.8Z"/>
    <path class="cls-2" d="M593.56,62.41c-2.06,0-3.74.64-3.74,2.49,0,2,3.57,2.75,6.75,4.12,3.52,1.55,7.13,4,7.13,9.41,0,6.7-4.55,10.57-11.94,10.57-5.07,0-7.91-1.16-10.23-2.79l2.2-6.53a13,13,0,0,0,7.81,2.53c3.1,0,4.51-1,4.51-2.66,0-2.67-2.83-3.18-6.23-4.64-3.17-1.38-7.38-3.83-7.38-9.24,0-6,4-9.92,11.29-9.92A17.31,17.31,0,0,1,602.8,58l-2,6.36A15,15,0,0,0,593.56,62.41Z"/>
    <path class="cls-2" d="M615.26,56.27h8.29V88.44h-8.29Z"/>
    <path class="cls-2" d="M650.91,89.17c-8.55,0-15.76-5.54-15.76-16.54s7.9-17,17.18-17A25.48,25.48,0,0,1,661.18,57l-2,6.53a19.64,19.64,0,0,0-6.27-1.16c-5.16,0-9.28,3.09-9.28,10.18,0,6.7,3.44,10,7.65,10a14.53,14.53,0,0,0,2.79-.26V76.15h-4V69.93h11.86V86.12C660,87.62,656.11,89.17,650.91,89.17Z"/>
    <path class="cls-2" d="M674.5,88.44V56.27h8.2l10.83,18.55V56.27h7V88.44h-7.3L681.5,68.29V88.44Z"/>
  </g>
  <g>
    <polygon class="cls-2" points="367.71 86.94 403.14 35.26 416.09 46.13 388.23 86.94 367.71 86.94"/>
    <polygon class="cls-3" points="390.8 87.06 417.19 47.36 429.65 57.62 409.73 87.06 390.8 87.06"/>
    <polygon class="cls-4" points="460.31 87.06 441.62 71.06 430.5 87.06 412.06 87.06 430.75 58.72 463.61 87.06 460.31 87.06"/>
  </g>
</svg>
