<svg xmlns="http://www.w3.org/2000/svg" viewBox="0 0 1226 1226">
  <defs>
    <style>
      .cls-1 {
        fill: #52b3bb;
      }

      .cls-2 {
        fill: #394e5d;
      }

      .cls-3 {
        fill: #e06450;
      }

      .cls-4 {
        fill: #d87e75;
      }

      .cls-5, .cls-8 {
        fill: #e3bc5b;
      }

      .cls-6 {
        fill: #e9ead6;
      }

      .cls-7 {
        fill: #008169;
      }

      .cls-10, .cls-8 {
        stroke: #e3bc5b;
      }

      .cls-10, .cls-11, .cls-12, .cls-13, .cls-8, .cls-9 {
        stroke-miterlimit: 10;
      }

      .cls-8 {
        stroke-width: 3px;
      }

      .cls-10, .cls-11, .cls-12, .cls-13, .cls-9 {
        fill: none;
      }

      .cls-9 {
        stroke: #000;
      }

      .cls-10, .cls-11, .cls-12, .cls-13 {
        stroke-width: 4px;
      }

      .cls-11 {
        stroke: #394e5d;
      }

      .cls-12 {
        stroke: #52b3bb;
      }

      .cls-13 {
        stroke: #e06450;
      }
    </style>
  </defs>
  <title>squadbadges</title>
  <g id="design">
    <g>
      <path class="cls-1" d="M607,808.91H712.47l111.43-193L712.42,422.84H489.47L378,615.92,489.47,809H606.42A1.53,1.53,0,0,1,607,808.91Z"/>
      <path class="cls-2" d="M607.82,817.5H484.57L368.19,615.92,484.57,414.34H717.33L833.71,615.92,717.38,817.41H608.08Zm-113.44-17H605.62a9.94,9.94,0,0,1,1.34-.09H707.57L814.08,615.92,707.52,431.34H494.38L387.81,615.92Z"/>
    </g>
    <g>
      <path class="cls-3" d="M711.07,718.61c4.86-22.76,5.61-63.75-4.47-86.68a114.84,114.84,0,0,0-217.45,70.13Z"/>
      <path class="cls-4" d="M686.92,702.06a88.72,88.72,0,1,0-170.88,0Z"/>
      <path class="cls-5" d="M660,702.06a63.19,63.19,0,1,0-117,0Z"/>
    </g>
    <g>
      <path class="cls-6" d="M481.1,500.28l2.86-29h6l6.65,18.17,7-18.17h2.21v0l0,0H509l2.87,29h-7.16l-1-14.54-5.8,14.54h-3.83l-5.49-14.62-1.16,14.62Z"/>
      <path class="cls-6" d="M538.16,498.73a15,15,0,0,1-8.15,2c-7.93,0-14.66-4.75-14.66-14.61s6.58-15.24,14.7-15.24a17.78,17.78,0,0,1,7.84,1.43l-1.81,5.88a11.27,11.27,0,0,0-5-1.2c-5,0-8.12,3.25-8.12,9.05s3.36,8.58,7.69,8.58a11.17,11.17,0,0,0,5.61-1.47Z"/>
      <path class="cls-6" d="M564.11,498.73a15.07,15.07,0,0,1-8.16,2c-7.93,0-14.66-4.75-14.66-14.61s6.58-15.24,14.7-15.24a17.83,17.83,0,0,1,7.85,1.43L562,478.2a11.27,11.27,0,0,0-5-1.2c-4.95,0-8.12,3.25-8.12,9.05s3.37,8.58,7.7,8.58a11.13,11.13,0,0,0,5.6-1.47Z"/>
      <path class="cls-6" d="M568.94,471.32h7.46v23.35h10.52v5.61h-18Z"/>
      <path class="cls-6" d="M600.45,471.12h5.37l10.59,29.16h-7.5L607.48,496h-9.7l-1.43,4.26h-6.5Zm2.16,10.64-3.09,9.12h6.18Z"/>
      <path class="cls-6" d="M623.37,476.92H616v-5.6h22.15v5.6h-7.35v23.36h-7.46Z"/>
      <path class="cls-6" d="M663.62,498.73a15,15,0,0,1-8.16,2c-7.92,0-14.65-4.75-14.65-14.61s6.57-15.24,14.69-15.24a17.83,17.83,0,0,1,7.85,1.43l-1.82,5.88a11.2,11.2,0,0,0-5-1.2c-4.94,0-8.12,3.25-8.12,9.05s3.37,8.58,7.7,8.58a11.2,11.2,0,0,0,5.61-1.47Z"/>
      <path class="cls-6" d="M668.45,471.32h7.46v11.29h9.17V471.32h7.46v29h-7.46V488.21h-9.17v12.07h-7.46Z"/>
      <path class="cls-6" d="M705.1,488.64l-8.58-17.32h7.73l5,10.48,5-10.48h6.53l-8.24,16.82v12.14H705.1Z"/>
      <path class="cls-6" d="M528.63,517.71h9.94c7.42,0,14.23,4.95,14.23,14.62s-6.81,14.34-14.23,14.34h-9.94Zm7.47,5.61v17.75h2c4.13,0,7.07-2.79,7.07-8.82s-2.94-8.93-7.07-8.93Z"/>
      <path class="cls-6" d="M558.29,517.71H576v5.61H565.75V529H575v5.61h-9.24v6.46h10.36v5.6H558.29Z"/>
      <path class="cls-6" d="M591.38,523.24c-1.86,0-3.36.58-3.36,2.24,0,1.82,3.21,2.48,6.07,3.71,3.17,1.4,6.41,3.64,6.41,8.47,0,6-4.09,9.51-10.74,9.51-4.57,0-7.12-1-9.21-2.51l2-5.88a11.61,11.61,0,0,0,7,2.29c2.79,0,4.06-.89,4.06-2.4,0-2.4-2.55-2.86-5.6-4.18-2.86-1.24-6.65-3.44-6.65-8.31,0-5.41,3.59-8.93,10.16-8.93a15.51,15.51,0,0,1,8.16,2L597.91,525A13.41,13.41,0,0,0,591.38,523.24Z"/>
      <path class="cls-6" d="M605.8,517.71h7.46v29H605.8Z"/>
      <path class="cls-6" d="M632.79,547.33c-7.7,0-14.19-5-14.19-14.89s7.11-15.35,15.46-15.35a23,23,0,0,1,8,1.28l-1.82,5.88a17.51,17.51,0,0,0-5.65-1c-4.63,0-8.35,2.79-8.35,9.17,0,6,3.1,9,6.89,9a12.53,12.53,0,0,0,2.51-.23v-5.57H632V530h10.68v14.57C641,545.94,637.46,547.33,632.79,547.33Z"/>
      <path class="cls-6" d="M648.91,546.67v-29h7.38L666,534.42V517.71h6.31v29h-6.58l-10.55-18.13v18.13Z"/>
    </g>
    <path class="cls-2" d="M607.77,808.91H713.28l40.09-69.44c6.71.1-24.08-6.66-18.74-4.26-44-19.73-63-81.39-80.23-86.21-11.29-3.17-12.61,12.42-26.16,6.06-21.29-10-31.37-31.64-45.16-30.54-24.49,2-49.57,30.6-49.57,30.6S487,693.91,444,728.82L490.28,809H607.22A1.55,1.55,0,0,1,607.77,808.91Z"/>
    <g>
      <g>
        <path class="cls-6" d="M692.27,717.06a8.87,8.87,0,0,0-1.11-1.91c-6.42-5.78-12.83-11.58-19.39-17.2-.84-.73-2.5-.52-3.78-.75.26,1.48,0,3.39.86,4.36a146.81,146.81,0,0,0,12.76,13.38c1.94,1.73,5.09,2.19,7.77,3C690.15,718.12,691.2,717.4,692.27,717.06Z"/>
        <path class="cls-6" d="M547.47,676.53c-.15.28-.48,1.43-.81,1.43a2.82,2.82,0,0,1-2.15-1c-3.76-6.53-8-4-12.8-1.2-5.1,3-10.57,5.32-16,7.79-.87.39-2.1,0-3.16,0,.4-.93.57-2.12,1.26-2.74,6.17-5.62,12.27-11.35,18.75-16.59,3.24-2.61,8-3.57,10.72-6.55,3.81-4.21,11.89-8.79,15.88-6.9,7.28,3.45,8.58,26.24,4.22,31.52-1.18,1.42-3,2.28-4.57,3.39-.59-1.69-1.33-3.36-1.76-5.1-1-3.86-1.18-8-2.81-11.56-1.09-2.38-4.07-3.89-6.21-5.78-1.05,2.81-2.48,5.56-3,8.47C544.87,673,546.47,674.64,547.47,676.53Z"/>
        <path class="cls-6" d="M547.27,731.64c-.23,2,0,4.23-.81,6a20,20,0,0,1-4.45,5.76c-1,1-2.74,1.18-4.14,1.73a17,17,0,0,1,1.85-3.75,137.06,137.06,0,0,1,9.85-10.85,6.33,6.33,0,0,1,5.08-1.12c.77.18,1.78,3.23,1.25,4.21-.72,1.33-2.8,1.94-4.3,2.86Z"/>
      </g>
      <path class="cls-6" d="M637.53,803.85c-11-12-23.16-17.89-34.81-29.31a7.64,7.64,0,0,0-1.2-1.21c-2.14-1.33-4.32-2.6-6.48-3.88,1.86-.57,3.79-1.75,5.58-1.58,3.1.29,8,.54,8.83,2.34,3.09,6.72,7.22,5.82,12.65,3.88,3.69-1.31,7.75-1.7,11.69-2.14,6.08-.67,13.84,1.81,14-8.71,0-1,2.87-2.55,4.59-2.9.85-.17,2,2,3.24,2.83a79,79,0,0,0,7.22,4.63c1.18.66,3,.4,3.93,1.24,8.82,8.13,19.41,4.3,29.38,4.5,1.19,0,2.4-.88,3.61-1.35a19.1,19.1,0,0,0-2.77-2.9c-15.23-10.41-30.35-21-45.8-31.07C635.44,728,621.86,716,613.7,698.64a24.79,24.79,0,0,0-5.26-6.72c-5.13-5-8.07-10.39-4.16-17.58.23-.42-1.19-2.08-2.14-2.76-3.26-2.34-8.58-8.77-11.31-12.72l-13.4-14.15c.66,17.06,13.05,38.26,19.2,52.89a58.55,58.55,0,0,0,10.87,17.23c4.71,5,11.37,8.18,16.71,12.7,6.47,5.49,12.39,11.63,18.68,17.34a16.78,16.78,0,0,0,5.48,3.27,39,39,0,0,0,6.63,1.22c-2.26,2.46-4.46,5-6.84,7.31-.37.37-2.25-.33-2.3-.18-3.64,11.77-9.26,2.89-12.68.54-13.06-9-25.55-18.77-38.35-28.12a63.08,63.08,0,0,0-10.92-6.67c-5.7-2.58-9.58.83-9.7,7.16-.19,9.2,9.41,35.15,17.39,46.38.59.82,1.69,1.89,2.51,1.85,12.34-.56,15.88,5.13,17.23,12.64a39.14,39.14,0,0,0,5.3,13.58Z"/>
      <path class="cls-6" d="M614.37,674.45c2,4.63,4,9.25,6.26,13.75.58,1.13,3,1.48,4.64,1.91,4.31,1.12,9.58.87,12.85,3.32,14.49,10.87,28.37,22.53,42.54,33.83,4.8,3.83,9.38,7.68,16.57,6.52,2.26-.37,6.11,2.56,7.58,5,7.53,12.36,21.33,14.67,32.58,21C744.5,763.72,614.37,674.45,614.37,674.45Z"/>
      <path class="cls-6" d="M610.46,664.61c3.3.13,9.21-.5,9.5.5,2.39,8.27,10.92,7.3,15.93,11.38,1.71,1.39,4.75,1.14,7.18,1.65-.78-2.48-1.46-5-2.37-7.42-.8-2.12-2-4.09-2.79-6.21-1.51-3.94-20.64-15.31-23.53-13-7.9,6.36-19.07.13-27.83-.75-.47,0,2.93,6.13,4.28,8.08l23.54,15.59-2-4.54C611.67,668.18,611.1,666.38,610.46,664.61Z"/>
      <path class="cls-6" d="M681.31,717.54a9.49,9.49,0,0,0-1.11-1.92c-6.43-5.77-12.83-11.57-19.39-17.2-.85-.73-2.5-.52-3.78-.75.26,1.48,0,3.4.86,4.37a146.68,146.68,0,0,0,12.76,13.38c1.94,1.73,5.09,2.19,7.76,3C679.19,718.59,680.23,717.87,681.31,717.54Z"/>
    </g>
    <path class="cls-6" d="M661.89,789.2l6.14,5.24a32.44,32.44,0,0,0,4.52,3.82c1.38.79,3.16.88,4.77,1.27-.56-1.33-1.14-2.65-1.66-4-.35-.9-.62-1.82-.93-2.73,2.48.94,5.24,1.49,7.32,3,1.11.79,1.87,4.39,1.36,4.75s-.94.73-1.34,1.08h20c-8.19-4.2-16.24-8.7-24.45-12.86"/>
  </g>
  <g id="engage">
    <g>
      <g>
        <polygon class="cls-5" points="1060.69 222 838.39 222 727.25 414.51 838.39 607.03 1060.69 607.03 1171.84 414.51 1060.69 222"/>
        <path class="cls-3" d="M1065.6,615.53H833.49l-116.06-201,116.06-201H1065.6l116.06,201Zm-222.3-17h212.48l106.25-184-106.25-184H843.3l-106.24,184Z"/>
      </g>
      <g>
        <path class="cls-2" d="M894.85,253.21h12.34v3.92h-7.13v4h6.45V265h-6.45v4.51h7.24v3.91H894.85Z"/>
        <path class="cls-2" d="M911.76,273.43V253.21h5.15l6.8,11.67V253.21h4.4v20.22h-4.59l-7.36-12.66v12.66Z"/>
        <path class="cls-2" d="M941.72,273.89c-5.37,0-9.9-3.48-9.9-10.39s5-10.72,10.79-10.72a16.19,16.19,0,0,1,5.56.89l-1.26,4.11a12.42,12.42,0,0,0-3.95-.73c-3.23,0-5.83,1.94-5.83,6.4,0,4.21,2.16,6.31,4.81,6.31a8.83,8.83,0,0,0,1.75-.16v-3.89h-2.53V261.8h7.45V272A11.41,11.41,0,0,1,941.72,273.89Z"/>
        <path class="cls-2" d="M958.22,253.08H962l7.4,20.35h-5.24l-1-3h-6.77l-1,3h-4.53Zm1.51,7.42-2.16,6.37h4.32Z"/>
        <path class="cls-2" d="M980.12,273.89c-5.37,0-9.91-3.48-9.91-10.39s5-10.72,10.8-10.72a16.23,16.23,0,0,1,5.56.89l-1.27,4.11a12.41,12.41,0,0,0-3.94-.73c-3.24,0-5.83,1.94-5.83,6.4,0,4.21,2.16,6.31,4.8,6.31a8.93,8.93,0,0,0,1.76-.16v-3.89h-2.54V261.8H987V272A11.4,11.4,0,0,1,980.12,273.89Z"/>
        <path class="cls-2" d="M991.41,253.21h12.33v3.92h-7.13v4h6.46V265h-6.46v4.51h7.24v3.91H991.41Z"/>
      </g>
      <g>
        <path class="cls-6" d="M952.5,480.8q15.38-16.19,30.74-32.39c8.25-8.72,16.45-17.5,24.9-26.5,4.57,2.9,9.06,5.8,13.6,8.62,6.73,4.18,13,3.27,18.44-2.57q4.85-5.25,9.71-10.46a4.62,4.62,0,0,1,.93-.53c8.87,5.51,17.87,11.13,26.89,16.71q20.76,12.82,41.52,25.6l.1.76a26.89,26.89,0,0,1-3.87,1.09q-79.41,10.31-158.84,20.5a25.78,25.78,0,0,1-4-.08Z"/>
        <path class="cls-6" d="M939.26,378.16c7,4.33,14,8.59,21,13,13.82,8.78,27.59,17.65,41.83,26.76-5,5.37-9.85,10.53-14.68,15.66q-18,19.1-36,38.16Z"/>
        <path class="cls-6" d="M1118.06,450.23l-55.57-34.42c-2.22-1.38-4.43-2.78-7-4.41,5.08-5.53,9.94-10.84,14.83-16.13Q1088.13,376,1106,356.65Z"/>
        <path class="cls-6" d="M1104.62,347.33c-6.77,7.38-13,14.19-19.24,21q-24.3,26.42-48.6,52.84c-5.34,5.81-7.06,6-13.7,1.77q-40.82-26.18-81.65-52.32c-.73-.46-1.43-1-2.71-1.86Z"/>
      </g>
      <path class="cls-3" d="M740.68,406.84l-4.44,7.68,17.44,30.2c68,2,118-66.48,189.52-37.22q-2.4-18.64-4.81-37.29C864,339.79,812.21,415,740.68,406.84Z"/>
      <path class="cls-1" d="M754.68,444.72l21.06,36.48c61.34-7.6,106.48-63.32,172.27-36.41q-2.4-18.65-4.81-37.29C871.65,378.24,822.71,446.7,754.68,444.72Z"/>
      <path class="cls-7" d="M773.74,478.2l19.92,34.49c55.43-13.45,98.81-55.29,159.16-30.61q-2.4-18.65-4.81-37.29C882.22,417.88,835.08,470.6,773.74,478.2Z"/>
    </g>
  </g>
  <g id="saratoga">
    <g>
      <g>
        <polygon class="cls-2" points="712.46 21 490.16 21 379.01 213.51 490.16 406.03 712.46 406.03 823.61 213.51 712.46 21"/>
        <path class="cls-6" d="M717.37,414.53H485.26l-116.06-201,116.06-201H717.37l116.06,201Zm-222.3-17H707.55l106.25-184L707.55,29.5H495.07l-106.24,184Z"/>
      </g>
      <path class="cls-6" d="M522.08,225.39c.24-1.56.45-7,.71-8.68h35.94V200.14H560v-6.86h4.69V155.06h36.11q.35-7.67.7-15.42c-2.39,0-4.27,0-6.14,0s-4.17.5-3-3.72h9.9V115l1.7,0v21.51c3.47,0,6.07-.1,8.67.07.7,0,1.35.95,2,1.45-.68.52-1.33,1.44-2,1.49-2.57.18-5.16.07-8.15.07q.36,7.77.71,15.43h20.45v38.22h3.51v7.87h2.23V216l5.73.45v12.3h157s-28.21,7.16-27.67,8.32c0,0-28.77,64.13-31.36,64.13-112-.12-181.82-.1-293.83,0-2,0-3.88-29.71-5.07-31.59-8.73-13.75-17.59-27.4-26.38-41.1-.6-.93-1.08-2-1.69-3.1Z"/>
      <g>
        <path class="cls-1" d="M533.68,56.33c-1.3,0-2.35.41-2.35,1.57s2.24,1.73,4.24,2.59c2.21,1,4.48,2.54,4.48,5.91,0,4.21-2.86,6.64-7.51,6.64a10.31,10.31,0,0,1-6.42-1.75l1.37-4.11a8.09,8.09,0,0,0,4.92,1.6c1.94,0,2.83-.62,2.83-1.68,0-1.67-1.78-2-3.91-2.91s-4.64-2.4-4.64-5.81c0-3.77,2.51-6.23,7.09-6.23a10.85,10.85,0,0,1,5.7,1.4l-1.24,4A9.45,9.45,0,0,0,533.68,56.33Z"/>
        <path class="cls-1" d="M549.23,52.34H553l7.4,20.35h-5.24l-1-3h-6.77l-1,3h-4.54Zm1.51,7.42-2.16,6.37h4.32Z"/>
        <path class="cls-1" d="M563.22,52.47h8.28c3.65,0,6.62,2.11,6.62,6.35a5.93,5.93,0,0,1-3.73,5.58L579,72.69H573.5l-4.27-7.61h-.8v7.61h-5.21Zm5.21,3.89v5.43h2.07A2.49,2.49,0,0,0,573.07,59a2.35,2.35,0,0,0-2.57-2.62Z"/>
        <path class="cls-1" d="M587.68,52.34h3.75l7.39,20.35h-5.23l-1-3h-6.78l-1,3h-4.53Zm1.51,7.42L587,66.13h4.32Z"/>
        <path class="cls-1" d="M603.69,56.39h-5.13V52.47H614v3.92H608.9v16.3h-5.21Z"/>
        <path class="cls-1" d="M625.8,73.15c-5,0-9.93-3.62-9.93-10.45S620.75,52,625.8,52s10,3.92,10,10.66S630.87,73.15,625.8,73.15Zm0-4.26c2.64,0,4.64-2,4.64-6.24s-2-6.34-4.64-6.34-4.62,2.13-4.62,6.34S623.18,68.89,625.8,68.89Z"/>
        <path class="cls-1" d="M648.48,73.15c-5.37,0-9.91-3.48-9.91-10.39s5-10.72,10.8-10.72a16.23,16.23,0,0,1,5.56.89L653.66,57a12.09,12.09,0,0,0-3.94-.73c-3.24,0-5.83,1.94-5.83,6.39,0,4.22,2.16,6.32,4.81,6.32a8.83,8.83,0,0,0,1.75-.16V65h-2.54V61.06h7.45V71.23A11.37,11.37,0,0,1,648.48,73.15Z"/>
        <path class="cls-1" d="M665,52.34h3.75l7.39,20.35h-5.23l-1-3h-6.78l-1,3h-4.54Zm1.51,7.42-2.16,6.37h4.32Z"/>
      </g>
      <path class="cls-1" d="M769.86,288.44,721.33,372.5C625,374.63,549.57,305.36,453.2,323.8L416,259.37C541,202.78,644.91,328.11,769.86,288.44Z"/>
    </g>
  </g>
  <g id="editorial">
    <g>
      <g>
        <polygon class="cls-4" points="364.24 221.96 141.94 221.96 30.79 414.48 141.94 606.99 364.24 606.99 475.39 414.48 364.24 221.96"/>
        <path class="cls-3" d="M369.15,615.49H137l-116-201L137,213.46H369.15l116.05,201Zm-222.3-17H359.33l106.24-184-106.24-184H146.85l-106.24,184Z"/>
      </g>
      <g>
        <path class="cls-2" d="M179.33,253.47h12.33v3.92h-7.13v4H191v3.91h-6.46v4.51h7.24v3.91H179.33Z"/>
        <path class="cls-2" d="M196.25,253.47h6.94c5.18,0,9.93,3.46,9.93,10.21s-4.75,10-9.93,10h-6.94Zm5.21,3.92v12.39h1.41c2.89,0,4.94-1.95,4.94-6.16s-2.05-6.23-4.94-6.23Z"/>
        <path class="cls-2" d="M217,253.47h5.21v20.22H217Z"/>
        <path class="cls-2" d="M230.6,257.39h-5.13v-3.92h15.46v3.92h-5.12v16.3H230.6Z"/>
        <path class="cls-2" d="M252.71,274.15c-5.05,0-9.94-3.62-9.94-10.45S247.66,253,252.71,253s10,3.92,10,10.66S257.78,274.15,252.71,274.15Zm0-4.26c2.64,0,4.64-2,4.64-6.24s-2-6.34-4.64-6.34-4.62,2.13-4.62,6.34S250.09,269.89,252.71,269.89Z"/>
        <path class="cls-2" d="M266.53,253.47h8.29c3.64,0,6.61,2.11,6.61,6.35a5.92,5.92,0,0,1-3.72,5.58l4.64,8.29h-5.53l-4.27-7.61h-.81v7.61h-5.21Zm5.21,3.89v5.43h2.08a2.49,2.49,0,0,0,2.57-2.81,2.35,2.35,0,0,0-2.57-2.62Z"/>
        <path class="cls-2" d="M285.25,253.47h5.2v20.22h-5.2Z"/>
        <path class="cls-2" d="M300.71,253.34h3.76l7.39,20.35h-5.23l-1-3h-6.78l-1,3h-4.53Zm1.52,7.42-2.16,6.37h4.32Z"/>
        <path class="cls-2" d="M314.7,253.47h5.21v16.31h7.34v3.91H314.7Z"/>
      </g>
      <g>
        <polygon class="cls-6" points="75.59 419.05 193.99 485.08 193.66 462.82 114.14 418.47 192.31 371.78 191.98 349.52 75.59 419.05"/>
        <polygon class="cls-6" points="430.59 414.46 312.19 348.42 312.52 370.68 392.03 415.03 313.87 461.72 314.2 483.98 430.59 414.46"/>
        <g>
          <path class="cls-5" d="M208.71,535.25l.26.18,67.84-125.36-15.33-1.56c11.4-26.58,22.67-52.88,34-79.24a2.61,2.61,0,0,0-.61-.24c-11.35-1.16-22.7-2.3-34-3.5-.91-.1-1.22.44-1.53,1.45q-5.49,17.64-11,35.27-10.83,34.59-21.66,69.17c-.39,1.24-.73,2.51-1.17,4l14.44,1.47Z"/>
          <path class="cls-5" d="M208.71,535.25l31.16-98.34-14.44-1.47c.44-1.51.78-2.78,1.17-4q10.82-34.59,21.66-69.17,5.52-17.64,11-35.27c.31-1,.62-1.55,1.53-1.45,11.34,1.2,22.69,2.34,34,3.5a2.61,2.61,0,0,1,.61.24c-11.31,26.36-22.58,52.66-34,79.24l15.33,1.56L209,535.43Z"/>
        </g>
      </g>
    </g>
  </g>
  <g id="ux">
    <g>
      <polygon class="cls-7" points="362.76 624.53 140.46 624.53 29.31 817.05 140.46 1009.57 362.76 1009.57 473.91 817.05 362.76 624.53"/>
      <path class="cls-6" d="M367.67,1018.07H135.55l-116-201L135.55,616H367.67l116.05,201Zm-222.3-17H357.85l106.24-184L357.85,633H145.37l-106.24,184Z"/>
    </g>
    <polygon class="cls-2" points="144.91 1001.57 357.88 1001.51 464.91 817.21 357.76 632.7 144.91 1001.57"/>
    <g>
      <path class="cls-1" d="M236.49,673c1.76,0,3-.91,3-3.51v-13h4.75V669c0,5.18-3.05,8.07-8.05,8.07s-8-2.62-8-8.07V656.47h5.21v13C233.39,672.21,234.74,673,236.49,673Z"/>
      <path class="cls-1" d="M246.94,676.69l6.27-10.58-5.7-9.64h5.64l3.24,5.48,3.13-5.48h4.7l-5.48,9.45,6.34,10.77h-5.64l-3.91-6.64-3.89,6.64Z"/>
    </g>
    <path class="cls-1" d="M322,634,130,974l15,28L358,633S325.37,631.8,322,634Z"/>
    <path class="cls-6" d="M322.63,906.25,284.14,826a62.64,62.64,0,1,0-22.77,12.58l38.06,79.4Q311,912,322.63,906.25Zm-95.28-78.8a51.22,51.22,0,1,1,64.52-32.93A51.22,51.22,0,0,1,227.35,827.45Z"/>
  </g>
  <g id="next">
    <g>
      <polygon class="cls-2" points="711.24 824 488.94 824 377.79 1016.51 488.94 1209.03 711.24 1209.03 822.39 1016.51 711.24 824"/>
      <path class="cls-7" d="M716.15,1217.53H484l-116-201,116-201H716.15l116.05,201Zm-222.3-17H706.33l106.24-184-106.24-184H493.85l-106.24,184Z"/>
    </g>
    <polygon class="cls-1" points="680.33 1176.37 639.92 1107.25 559.8 1107.47 520.24 1177.24 680.33 1176.37"/>
    <g>
      <path class="cls-1" d="M564.69,876.69V856.47h5.16l6.8,11.66V856.47h4.4v20.22h-4.59L569.09,864v12.66Z"/>
      <path class="cls-1" d="M585.81,856.47h12.33v3.92H591v4h6.45v3.91H591v4.51h7.23v3.91H585.81Z"/>
      <path class="cls-1" d="M601,876.69l6.26-10.58-5.69-9.64h5.64l3.24,5.48,3.13-5.48h4.7l-5.48,9.45,6.34,10.77h-5.64l-3.92-6.64-3.88,6.64Z"/>
      <path class="cls-1" d="M625.93,860.39H620.8v-3.92h15.46v3.92h-5.12v16.3h-5.21Z"/>
    </g>
    <circle class="cls-6" cx="596.5" cy="1041.5" r="89.5"/>
    <path class="cls-2" d="M603.5,982.13c24.21,2.22,41.41,16.22,48,31.21a8.54,8.54,0,0,0,8.65,4.88h0c3.65-.36,6.48-3.31,5.25-7.33-5.45-17.67-21.92-35.35-47-42.36-5.56-1.69-14.4.84-18.36,5.26h0C596.11,978.21,598.18,981.73,603.5,982.13Z"/>
    <g>
      <g>
        <path class="cls-8" d="M505.28,923.88a30.49,30.49,0,0,0,21.47,20.18,1,1,0,0,0,.53-1.95,28.44,28.44,0,0,1-20.06-18.77c-.4-1.23-2.35-.7-1.94.54Z"/>
        <path class="cls-8" d="M507.22,963.56a28.44,28.44,0,0,1,20.06-18.77,1,1,0,0,0-.53-1.95A30.49,30.49,0,0,0,505.28,963c-.4,1.24,1.54,1.77,1.94.54Z"/>
      </g>
      <g>
        <path class="cls-8" d="M504.52,923.34a28.44,28.44,0,0,1-20.06,18.77,1,1,0,0,0,.54,1.95,30.49,30.49,0,0,0,21.46-20.18c.41-1.24-1.54-1.77-1.94-.54Z"/>
        <path class="cls-8" d="M506.46,963A30.49,30.49,0,0,0,485,942.84a1,1,0,0,0-.54,1.95,28.44,28.44,0,0,1,20.06,18.77c.4,1.23,2.35.7,1.94-.54Z"/>
      </g>
    </g>
    <g>
      <g>
        <path class="cls-8" d="M685.63,891.18a38.07,38.07,0,0,0,26.8,25.2,1.26,1.26,0,0,0,.67-2.43,35.48,35.48,0,0,1-25-23.44c-.5-1.53-2.93-.87-2.43.67Z"/>
        <path class="cls-8" d="M688.06,940.73a35.5,35.5,0,0,1,25-23.44,1.26,1.26,0,0,0-.67-2.43,38.07,38.07,0,0,0-26.8,25.2c-.5,1.54,1.93,2.21,2.43.67Z"/>
      </g>
      <g>
        <path class="cls-8" d="M684.68,890.51a35.46,35.46,0,0,1-25,23.44,1.26,1.26,0,0,0,.67,2.43,38.07,38.07,0,0,0,26.8-25.2c.5-1.54-1.93-2.2-2.43-.67Z"/>
        <path class="cls-8" d="M687.11,940.06a38.07,38.07,0,0,0-26.8-25.2,1.26,1.26,0,0,0-.67,2.43,35.48,35.48,0,0,1,25,23.44c.5,1.53,2.93.88,2.43-.67Z"/>
      </g>
    </g>
    <g>
      <g>
        <path class="cls-8" d="M714.28,953.88a30.49,30.49,0,0,0,21.47,20.18,1,1,0,0,0,.53-1.95,28.44,28.44,0,0,1-20.06-18.77c-.4-1.23-2.35-.7-1.94.54Z"/>
        <path class="cls-8" d="M716.22,993.56a28.44,28.44,0,0,1,20.06-18.77,1,1,0,0,0-.53-1.95A30.49,30.49,0,0,0,714.28,993c-.4,1.24,1.54,1.77,1.94.54Z"/>
      </g>
      <g>
        <path class="cls-8" d="M713.52,953.34a28.44,28.44,0,0,1-20.06,18.77,1,1,0,0,0,.54,1.95,30.49,30.49,0,0,0,21.46-20.18c.41-1.24-1.54-1.77-1.94-.54Z"/>
        <path class="cls-8" d="M715.46,993A30.49,30.49,0,0,0,694,972.84a1,1,0,0,0-.54,1.95,28.44,28.44,0,0,1,20.06,18.77c.4,1.23,2.35.7,1.94-.54Z"/>
      </g>
    </g>
  </g>
  <g id="apps">
    <g>
      <polygon class="cls-4" points="1061.31 624.34 839.01 624.34 727.86 816.85 839.01 1009.37 1061.31 1009.37 1172.46 816.85 1061.31 624.34"/>
      <path class="cls-6" d="M1066.22,1017.87H834.1l-116.05-201,116.05-201h232.12l116,201Zm-222.3-17H1056.4l106.24-184-106.24-184H843.92l-106.24,184Z"/>
    </g>
    <polygon class="cls-3" points="1162.64 816.85 1056.4 632.84 843.92 632.84 737.68 816.85 738.34 818 1161.98 818 1162.64 816.85"/>
    <g>
      <path class="cls-2" d="M921,656.34h3.75l7.4,20.35H927l-1-3h-6.77l-1,3h-4.53Zm1.51,7.42-2.16,6.37h4.32Z"/>
      <path class="cls-2" d="M935,656.47h7.64c3.91,0,6.83,2.24,6.83,6.7s-3.4,6.4-6.83,6.4h-2.49v7.12H935Zm5.15,3.95v5.39h1.76a2.7,2.7,0,0,0,0-5.39Z"/>
      <path class="cls-2" d="M953.23,656.47h7.64c3.91,0,6.83,2.24,6.83,6.7s-3.41,6.4-6.83,6.4h-2.49v7.12h-5.15Zm5.15,3.95v5.39h1.76a2.7,2.7,0,0,0,0-5.39Z"/>
      <path class="cls-2" d="M977.61,660.33c-1.3,0-2.35.41-2.35,1.57s2.24,1.73,4.24,2.59c2.21,1,4.48,2.54,4.48,5.91,0,4.21-2.86,6.64-7.51,6.64a10.31,10.31,0,0,1-6.42-1.75l1.37-4.11a8.09,8.09,0,0,0,4.92,1.6c1.94,0,2.83-.62,2.83-1.68,0-1.67-1.78-2-3.91-2.91s-4.65-2.4-4.65-5.81c0-3.77,2.51-6.23,7.1-6.23a10.85,10.85,0,0,1,5.7,1.4l-1.24,4A9.45,9.45,0,0,0,977.61,660.33Z"/>
    </g>
    <rect class="cls-6" x="887.94" y="720.67" width="124.99" height="211.38" rx="12" transform="translate(13.52 -15.3) rotate(0.93)"/>
    <rect class="cls-7" x="897.82" y="734.46" width="105.43" height="171.86" rx="12" transform="translate(13.43 -15.3) rotate(0.93)"/>
    <circle class="cls-9" cx="949.89" cy="918.93" r="9.03"/>
    <ellipse class="cls-10" cx="951.71" cy="819.61" rx="7.69" ry="42.29"/>
    <ellipse class="cls-11" cx="951.71" cy="819.61" rx="42.29" ry="7.69"/>
    <ellipse class="cls-12" cx="951.71" cy="819.61" rx="7.69" ry="42.29" transform="translate(-300.8 913.02) rotate(-45)"/>
    <ellipse class="cls-13" cx="951.71" cy="819.61" rx="42.29" ry="7.69" transform="translate(-300.8 913.02) rotate(-45)"/>
  </g>
</svg>
