<svg xmlns="http://www.w3.org/2000/svg" viewBox="0 0 2550 1113"><title>miami-logo</title><path d="M427,0c9.6,2,19.3,3.5,28.7,6,17.4,4.6,33.5,12.1,47.5,23.6s21,24.9,21.8,42.6q2.7,58.2,6,116.3c2.5,43.2,4.9,86.5,7.8,129.7,2.5,36.7,5.1,73.5,8.4,110.1,3.8,42.3,7.9,84.6,12.6,126.8,4.6,40.5,10.1,81,15.3,121.4,1.2,9.6,2.7,19.2,4.2,28.7a20.6,20.6,0,0,0,1.2,3.5c4.3-26.9,8.3-52.9,12.5-78.8,8.7-52.7,17.3-105.4,26.5-158.1,9.5-54.7,19.7-109.4,29.6-164.1,1.5-8.5,3.8-16.9,4.8-25.5,1.7-14.7,2.9-29.4,4.1-44.2,4.3-49.7,11.7-98.9,30.3-145.6,4.3-10.9,10.5-21.1,16.8-31S719.2,48.1,730,46.6c29.6-4,59.3-6.3,89.2-5.6,14,.4,27.9,2.1,40.9,8s19.4,14.8,19.1,28.9c-.2,9.3,0,18.6-.6,28-2.8,50.7-6.1,101.4-8.6,152.2-2.7,53.7-3.2,107.5-2.1,161.4C870,527.2,884,633.2,911.5,737.4c10.7,40.7,22.2,81.2,37.5,120.5l1.7,4.2,5.9-2.5c69.6-30.6,140-59.5,212.3-83.1,39.8-12.9,79.9-24.3,121.3-31,29.5-4.8,59.2-7.7,89-2.4a114.8,114.8,0,0,1,20.1,5.5c29.4,11.1,43.6,33.4,44.3,63.8.7,35-.4,70-6.7,104.6a58.7,58.7,0,0,1-3.9,12.3c-2.9,6.1-7.2,6.6-10.7.7s-5.8-12.2-8.8-18.3c-1.4-2.8-2.7-5.8-4.7-8.1-16.7-19.6-38.8-28-63.9-29.6-32.1-2-63.4,3.8-94.3,11.5-64,15.9-125.2,39.7-185.9,64.9-22.6,9.4-45,19.4-67.4,29.1a18.7,18.7,0,0,0-4,2c-35.7,28.9-91.4,27.6-130.3-1.3-19.5-14.6-34.8-32.9-47.8-53.3-20.6-32.4-34.3-67.9-45.5-104.4-15.5-50.4-27.9-101.5-36.2-153.4-2.9-17.7-3.7-35.8-4.3-53.8-2.6-74.3-4.7-148.6-7-222.9a3.9,3.9,0,0,0-.9-2.6c-1.8,8.8-3.6,17.5-5.2,26.2-12.6,66.1-25.6,132-37.5,198.2-9.3,51.8-17.5,103.7-25.5,155.7-5.9,38.7-11,77.5-15.6,116.4-3.6,29.7-6,59.6-8.9,89.5a11.6,11.6,0,0,0,1.1,5.2c4.4,9.9,9,19.7,13.4,29.5,2.2,4.7,4.2,9.4,6,14.3,5.1,15.5,1.2,28.5-11.6,38.7a74.8,74.8,0,0,1-33.4,14.8c-22,4.1-43.7,4.2-65.1-3.1s-39-22-52.8-40.3c-18.4-24.4-30.2-52-40.2-80.6-15.9-45.3-27.2-91.9-35.8-139.1-9.4-51.7-18.1-103.6-25.6-155.6-5.5-38.4-9-77.1-12.5-115.8-4.1-44.1-7.5-88.3-10.7-132.5-2.8-39.7-4.9-79.5-7.4-119.2a180.5,180.5,0,0,0-2.6-24.3c-1.4,5.1-2.9,10.2-4.2,15.4-24,91.3-45.1,183.3-61.7,276.2q-14.7,83.1-26,166.7c-7.6,56.5-11.9,113.4-11.4,170.5.3,29.8,3.6,59.4,8.3,88.9,1.7,10.5,2.4,21.2,3.8,31.8.3,2.9.7,6.1,2.1,8.6,6.6,11.4,12.9,22.9,20.4,33.7,10.4,14.8,8.8,28.8-6.1,39.3-10.5,7.4-22.6,11-35.2,13.1a31.3,31.3,0,0,0-4.4,1H217l-1.2-.8c-20.6-2.6-37.3-12.6-51.5-27.3s-26-34.1-35.3-53.5C109.7,991,96.8,948.3,85,905.3,58.9,809.8,38.1,713.2,25,615.1c-8.3-62-14.8-124.3-22.1-186.5C2,420.7,1,412.9,0,405V390l2.1-7.7c5.4-19.6,19.5-33.9,44.4-33.1,18.1.5,36.2,3.1,54,6s32,8,45.7,17.9c8.2,6,14.4,13.6,15.5,24a152.5,152.5,0,0,1,.6,23.4c-.9,13.5-3.8,26.7-1.7,40.3,4.5,30.6,8.4,61.4,12.6,92.1,1.7,11.9,3.5,23.8,5.3,35.7,1.6-5.2,2-10.4,2.8-15.6,7.2-47.2,13.7-94.6,21.8-141.7,12.5-72.5,28.7-144.2,50-214.7,13.8-45.8,29.7-90.8,52.1-133.2,11.7-22,24.8-43,43.2-60.2,12.4-11.7,26.4-20.3,43.9-21.9L408,0ZM2550,656c-7,14.1-13.4,28.5-21.1,42.3a291.5,291.5,0,0,1-45.2,61.3c-21.8,22.7-46.8,25.2-74.5,13.8-17.8-7.2-31-19.8-41.4-35.7-13.7-21.1-20.9-44.8-25.7-69.2-6.1-30.7-7.7-61.8-7.2-93v-6.6c-1.5,2.4-2.2,3.7-3.1,4.9-9.4,13.7-18.5,27.7-28.5,40.9-16.4,21.7-38.4,27.4-64.4,21.9s-45.2-18.9-60.1-39.9-24.6-48.2-30.7-74.8c-8.6-37.7-11.4-76-13-114.5-.3-6.6-.1-13.3-.1-19.9l-1.7-.4c-.5,1.4-.9,2.8-1.3,4.2-17.6,57.9-35.5,115.8-59,171.7-6.3,15-14.2,29.3-21.5,43.9-6.1,12.1-15.3,18-29.8,16.3-19-2.1-37.7-4.8-55-13.4-28.5-14.1-42.4-40.1-37.1-71.6,7-41.9,10.6-84,9.4-126.4-.9-29.8-3.1-59.6-9-88.9-.5-2.3-2.7-5.7-4.6-6.1s-5.7,1.7-6.7,3.7c-4.9,10.5-10.6,20.9-13.5,32q-14.4,56.8-27,114.1c-10.4,46.6-20,93.4-29.9,140.1a20.4,20.4,0,0,0-.2,7.4c3.9,21.2-7.3,36.7-28.8,38.6a83.6,83.6,0,0,1-23.4-1.3c-20.2-4.1-30.3-18.4-34.8-37.4s-4.1-36.2-2.5-54.3c3.3-34.9,7.7-69.8,10.9-104.8,1.7-18.2,1.7-36.6,2.5-54.9a2.2,2.2,0,0,0-1-1.8c-.7,1.9-1.4,3.9-2,5.9-17.6,54.8-36.5,109.2-61.8,161.1-12.1,24.9-25.4,49.1-43.7,70.1a133.3,133.3,0,0,1-9.9,10c-20.8,19.4-45,20.4-69.2,7.9-17.5-9.1-29.8-23.7-40.3-40-18.1-28-29.3-58.9-38.9-90.5-3.3-10.7-6.2-21.5-9.2-32.2-.6-2-1.3-4-2.3-7-4.8,12.2-9.2,23.5-13.7,34.7-9.5,23.1-20.2,45.7-35,66a130.8,130.8,0,0,1-27.3,28.3c-18.2,13.9-38.9,15.6-60.4,13.1-39.8-4.7-70.9-23.5-92.6-57.5L1263,566l-2.1,5.3c-15.4,39.8-31.9,79-54.8,115.2-8.8,14-18.8,27.1-31,38.5s-29,16.3-46.9,14.6c-39.1-3.7-67.2-24.3-88-56.2-16.9-25.9-26.8-54.6-34-84.4a542.6,542.6,0,0,1-15-119.7c-.5-37.8.1-75.6,1.1-113.4.5-18.8,2.7-37.6,4.2-56.3.3-4,.4-8,.4-12,0-9.7,4.8-16,13.4-19.7s18-3.8,27.1-2.8c25.7,2.8,49.1,11.7,69.5,27.9,13.6,10.7,20.9,24.3,20.3,42.3-1.3,35.3-2.5,70.6-2.6,105.9-.1,67.9,7.4,134.6,32.4,198.5,2,5,4.2,10,6.8,16.1,4.6-5.3,8.9-9.7,12.6-14.5,16-21.1,28.2-44.4,39.5-68.2,9.3-19.7,17.9-39.7,26.6-59.7a9.8,9.8,0,0,0,.7-6.1c-11.1-43.2-11.9-86.9-7.4-131a479.8,479.8,0,0,1,43.3-157.1c16.8-35.8,38.6-68.1,70.1-93,27.4-21.6,58.5-33.4,93.6-33.2,23.4.1,46.7-.1,70,1.2,20.3,1.1,39.8,6.4,56.9,18.2,21.8,15.1,32.1,37.5,38.2,62.4,4.6,18.7,6.1,37.7,6.8,56.9a15.7,15.7,0,0,1-5.9,13.2,31.7,31.7,0,0,1-20.5,8c-9.7.3-15.8-5.7-16.3-15.5-1.2-22.9-4.4-45.4-12.9-66.9a86.5,86.5,0,0,0-6.5-12.9c-7.6-12.3-15.7-15.6-29.9-13.2-20,3.4-36.5,13.3-51.2,26.6-23.3,21.1-39.9,47.2-53.6,75.2-21,42.7-34,88-41.8,134.9a555.5,555.5,0,0,0-7,121.5c.9,17.2,2.3,34.3,8.1,50.6a57.8,57.8,0,0,0,10,18.2c6.4,7.6,13.6,6.9,19.4-1.2,11.1-15.4,18-33,24.5-50.6a873.3,873.3,0,0,0,43.6-165.3c1.4-9.4,1.4-18.9,2-28.4.4-5,.1-10,.8-14.9,3-20.9,15.8-33.1,35.6-37.7,25.6-5.9,51.1-4.8,75.6,4.8a85,85,0,0,1,22,13.3c9.4,7.6,13.6,18.1,14.1,30.3,2,47.6,3.8,95.2,6.5,142.8,1.7,30.6,3.9,61.2,11.9,91a79.3,79.3,0,0,0,7.8,18.2c2.5,4.4,4.8,4.2,7.3-.2a215.5,215.5,0,0,0,12.7-24.3c22.1-50.7,40.1-102.9,57.9-155.2,13-37.7,25.3-75.7,37.7-113.7a26.4,26.4,0,0,0,.8-9.7c-.3-8.5,1.2-16.5,5.7-23.9s9.9-7.8,16.7-8.1c12.1-.6,23.7.8,33.6,8.4s13.3,15.2,16.6,25c1.1,3.1,2,6.2,3.1,9.6,6.5-21.7,12.3-43,19.1-64.1,10-31.1,21.4-61.6,39.1-89.3,3.5-5.5,7.5-10.6,11.5-15.7,15.2-19.4,34.9-24.7,58.4-19,21.8,5.2,37.9,18,50,36.4,13.8,20.9,21,44.4,25.8,68.7,8.6,43.3,10.4,87,8.4,130.9-1.8,41.1-5.3,82.1-8,123.2-.4,6.3-.4,12.6-.5,18.9,0,.8.3,1.5,1.7,2.7,1.5-3,3.3-5.8,4.3-8.9,6.1-19.2,12.3-38.4,18.1-57.6,14.8-48.4,28.8-97,48.1-143.8,5.7-13.7,12.4-26.9,19.1-40.1,2.5-5.1,6-9.6,9.2-14.2,7.3-10.7,17.1-16,30.3-14.3,10.2,1.2,20.7,1.2,30.7,3.4,31.8,6.8,47.5,26,47.4,58.6-.1,18.9-2,37.9-3.3,56.8-2.3,34.8-5.5,69.5-6.7,104.3-.5,13.7,2.9,27.7,5.3,41.5,5.8,33.7,15,66.5,29,97.8.9,2,1.8,3.9,3.5,7.3,6.2-6.8,12.3-12.5,17.2-19,16.6-21.7,29.1-45.8,40.5-70.4,2.6-5.7,2.5-12.7,3.4-19.1,5.6-38.4,13.4-76.4,22.6-114.1,2.6-10.6,4.6-21.5,6.5-32.3s7.3-18.1,15.4-24.2c14.9-11.4,32.2-16.4,50.4-19,12.6-1.8,25.2-2,37.7,1a55.7,55.7,0,0,1,11.2,4.1c8.4,4.5,11,10.5,9.6,19.8-3.4,23.9-6.2,47.9-10,71.8-6.9,42-15.1,83.9-21.4,126-8.9,58.8-12.8,117.9-8.4,177.4a182.1,182.1,0,0,0,6,32.8c3.1,11.4,9.5,13.9,18.9,6.6a100.3,100.3,0,0,0,21.6-22.5c8.4-12.3,15-25.8,22.3-38.9,1.4-2.4,2.4-5.2,3.9-7.5,6.1-9.8,13.4-9.7,19,.4ZM1815.9,895.3c-5.3,11.1-9.8,21-14.8,30.7-9.4,18-20.5,34.7-35.9,48.3-32.2,28.3-72.2,25-99.2-8.3-15.6-19.2-24.2-41.6-29.4-65.5-12.5-58.1-2.7-112.2,30.1-161.8,16.5-24.9,44.4-35.3,73.6-28.7,7,1.6,12.7,4.8,16.3,11.3,9.5,17,16.4,34.9,18.8,54.4a26.6,26.6,0,0,1-.1,6.9c-1.1,8.4-7.8,11.3-14.2,5.7a39.5,39.5,0,0,1-9-12.4c-4-8.4-6.9-17.3-10.7-25.8s-6.9-8-11.5-1.7a84.7,84.7,0,0,0-10.8,20.1c-8.9,24.2-12.2,49.7-13.9,75.3-1.7,23.5-1.8,47,3,70.2a106.7,106.7,0,0,0,8.7,25.3c4.7,9.5,11.1,11.8,21.6,10.1,13.3-2,23.8-9,32.7-18.7,14.6-15.9,23.2-35.2,30.7-55,2.6-6.8,4.5-13.9,7.2-20.7,2-5.1,5-9.7,7.2-14.7a35,35,0,0,0,1.7-7.1c2.2-15.9,5.4-31.5,12.1-46.2s16.2-27.2,32.9-31.9a5.5,5.5,0,0,0,2.8-3c9.3-21.7,26.7-31.5,49.1-34,5.5-.7,11-.8,16.5-1,18.2-.4,31.5,7.7,40.8,23.1,7.8,12.8,11.7,26.9,13.5,41.5,6.1,50.7,2.2,100.5-15.9,148.5-7.5,20-18.3,38-35.1,52-27.3,22.6-79,23.9-102.4-20.7-10.1-19.3-14.2-40.1-16.2-61.4C1816,898.9,1816,897.8,1815.9,895.3Zm79.9,12h.3c0,8-.6,16.1.2,24a182.5,182.5,0,0,0,4.7,26.4c1.7,6.4,6.2,11.2,13.3,12.1s11.1-3.7,13.8-8.8c4.8-8.9,9.5-18,12.7-27.6,10.9-31.3,16.1-63.8,18-96.9,1.1-18.4,1.2-37-2.8-55.2-2-9.3-4.6-18.5-11.4-25.7-8.6-9.2-19.4-8.6-26.7,1.5-2.3,3.2-4.7,6.8-5.8,10.5-3.6,12.9-8.5,25.8-9.7,39-3.1,33.5-4.5,67.2-6.6,100.7Zm350.4-49.7c-3.1,7.4-5.8,15.1-9.2,22.4-12.8,27.8-25.6,55.6-38.9,83.1-3.1,6.4-7.8,12-12,17.8-2.4,3.3-5.7,4.5-10,4.3-23.7-1.2-40.7-17.2-41.8-42-.9-18.9.9-37.9,1.2-56.9s.5-39.3.5-58.9a28.6,28.6,0,0,0-2-9.2c-2.4-6.8-7.3-9-13.2-4.9-4.1,2.8-8.5,6.7-10.3,11.1-5.8,13.6-11.7,27.3-15.2,41.6-8.2,32.4-15,65.1-22.2,97.8-1.4,6.6-2.2,13.3-3,20s-3.6,9.6-9.8,11.2c-13.6,3.3-32.8.5-43.2-18.1-7-12.4-9.2-26-10-39.8-1.8-28.8,1.8-57.2,5.4-85.7,2.4-18.2,4.5-36.3,6.5-54.5a15.3,15.3,0,0,1,8.3-12.3c14-8.1,40.5-5.4,52.4,5.6,2.6,2.4,4.5,5.6,7,8.7,1.7-3.6,3.2-7.6,5.2-11.2,4.6-8.1,9.1-16.3,14.4-24,18.8-27.3,47.6-19.5,63.7-6.4,12.2,10,17.7,24,21,38.8,5.6,24.6,4.7,49.3,2.5,74.1-1,11.3-2.4,22.6-3.5,33.8a8.8,8.8,0,0,0,.9,5.3c1.1-2.1,2.4-4,3.3-6.2,10-23.9,19.6-48.1,30.1-71.8,5-11.3,11.5-22.1,17.7-32.9s16.2-18.3,30.6-14.6c5.9,1.5,12.2,1.9,18.1,3.6,20.9,6.2,28.9,19.4,25.9,41.3-2.4,17.8-5,35.6-6.7,53.5-2.5,27.3-.3,54.6,3.6,81.7a227.6,227.6,0,0,1,2.7,23.3c.5,7.3-2.4,9.8-9.9,9.8-13.5-.1-24.4-5.7-33.1-15.9-11.3-13.4-16.4-29.6-20.1-46.3-5.1-23.4-6.3-47.1-5.9-71v-6ZM1080.4,17.5c28.5-.7,49.7,7.4,69.2,20.4,26,17.4,47,39.3,59,68.7,4.9,12,6.3,24.5,3.3,37.2-4.1,17-15.9,26.4-32,31.1-17.9,5.1-36,4.2-54,1-42.8-7.7-82.6-23.3-117.8-49.2-8.1-5.9-15.1-13.5-21.9-21-16-17.7-11.5-59.1,14.9-73.2,12.3-6.6,25.5-9.7,39.1-11.3S1070,18.4,1080.4,17.5Zm1379,201.2c-26.6-2.1-51.5-12.6-69.9-35.9-10.6-13.6-15.4-29.1-11.5-46.4,3.2-13.6,11.7-23.4,22.8-31.1,16.2-11.1,34.2-15,53.3-11.1,22.4,4.5,43.5,12.5,61.8,26.6,12.1,9.4,20.8,21.1,22.3,37s-3.1,27.5-14.6,37.4C2505.9,210.6,2485.1,217.8,2459.4,218.7Zm-856,729.9c.4,27.2-19.7,45.4-44.2,42.8-11-1.1-21.3-4.2-30.3-10.6-15.6-10.9-20.8-26.6-18.5-44.6s13.1-31.5,30.9-37,34.4-2.8,47.4,11.1C1599.3,921.6,1602.2,936.3,1603.4,948.6Z"/></svg>