<svg xmlns="http://www.w3.org/2000/svg" viewBox="0 0 299.83 49.78"><defs><style>.cls-1{fill:#0b67b2;}</style></defs><title>miami-herald</title><g id="Layer_2" data-name="Layer 2"><g id="mia"><path class="cls-1" d="M277.44,43.46c-1.29,1.29-3,3.23-4.55,5-2.22-1.7-4.4-3.22-5.67-4.18V10.78a2.7,2.7,0,0,0-1.56-2.73V7.86l7.73-5.68.12.13V41.65c1.86,1.13,2.62,1.54,3.87,1.69Z"/><path class="cls-1" d="M241.41,19.14c-1.26,2.73-3.25,4.49-5.8,4.49s-3.42-.69-5.3-2.49l-.57.56V40.78c2.88,1.64,4,2.24,4.87,2.24.74,0,1.32-.38,2.18-1.25l.44.44c-2.22,2.18-4.28,4.36-6,6.3-2.58-1.87-5.1-3.6-7.73-5.36V23.07a9.49,9.49,0,0,0-3.56-2.31l-.06-.12,4.24-4.74c2.1,1.74,3.66,3.07,5.86,4.68,1.85-1.66,3.15-2.92,4.8-4.62a9.29,9.29,0,0,0,6.61,3Z"/><path class="cls-1" d="M175.06,1.43c-1.65,3.76-3.7,6-6.42,6-1.29,0-3.9-1.31-5.74-1.31a4.92,4.92,0,0,0-4.8,2.74l-.25-.25c.53-5.18,3.63-7.6,7.24-7.6,2.24,0,4.46,1.37,6.42,1.37a5.29,5.29,0,0,0,3.43-1.19Z"/><path class="cls-1" d="M200.5,1.81a8.25,8.25,0,0,1-4.18,5.36V41.4a11.5,11.5,0,0,1,4.12,1.81l-5,5.3a9.2,9.2,0,0,0-6.3-2.43,12.16,12.16,0,0,0-7,2.18L182,48c1-4.38,4.5-6.92,7.3-7.17v-15h-11.6V42a2.28,2.28,0,0,0,1.06.32c.63,0,1.46-.83,2.06-1.69l.5.44c-1.51,1.82-4.16,4.85-6.05,7.42a14.48,14.48,0,0,0-9-2.68,15.2,15.2,0,0,0-8,2.06l-.13-.32C160,43,163.38,40,169.45,40a17.76,17.76,0,0,1,7.48,1.68V.31h.81V20h11.6V7.48a9.61,9.61,0,0,1-4.8-2.43c1.54-1.5,3.36-3.45,4.8-5a9.62,9.62,0,0,0,6.42,2.43,12,12,0,0,0,4.62-.87Z"/><path class="cls-1" d="M174.75,7.42c-.66,1.19-.93,2.87-.93,6.73V28.62c0,4.63-3.4,8.44-8,9.85l-.31-.18a4.88,4.88,0,0,0,1.43-3.62V25.81h-1.62c-2.49,0-3.42,1.25-3.68,2.62h-.18a4.38,4.38,0,0,1-1.5-3.61c0-2.85,2.25-4.87,5.49-4.87h1.49V16.77c0-5.34,3.27-8.16,7.67-9.47Z"/><path class="cls-1" d="M293.53,42.77V20.83l-4.18-4.06c-1.4.9-2.43,1.42-3.49,2.06V39.41a65.69,65.69,0,0,0,6.55,4.24Zm6.3-3.11A57.89,57.89,0,0,0,288,48.51c-2.63-2-5.86-4.2-8.42-5.92V21.45c2.76-1.5,5.82-3.16,9.36-5.24L281.74,9a9.22,9.22,0,0,0-3.43-2.49l-.06-.13c2.18-1.56,4-3,5.43-4.24,2.77,2.86,9,9.21,16.15,16.52Z"/><path class="cls-1" d="M254.25,42.21V31.86a12,12,0,0,0-3.62-.5c-3.12,0-4.18,2.43-4.18,5.68,0,3.51,1.21,6.12,3.56,7.66Zm0-11.28V24.38c-2.39-1.72-4-2.88-6.8-4.74l-.37.25v11a15.3,15.3,0,0,1,3.3-.5,14.27,14.27,0,0,1,3.87.5m9.6,12.9-3.93,4.62c-2.11-1.63-3.72-2.86-6.42-4.87-2.72,1.57-4.16,2.6-7.86,4.93a10.45,10.45,0,0,1-5.48-9.42c0-3.52,2.22-6.49,6.61-8.1a25.21,25.21,0,0,0-4.43-2.68v-6.8A71.85,71.85,0,0,0,251.88,16c2.9,1.94,5.08,3.33,8.67,5.74V42.09c1.73,1.23,2.54,1.57,3.24,1.62Z"/><path class="cls-1" d="M214.34,28.31c-1.63-2.68-3.61-6.13-4.92-8.48l-.5.31V31.67ZM220,25.69l-11.1,6.86v8c2.93,1.79,4,2.5,4.92,2.5s1.51-.77,3-2.25l.5.5c-2.36,2.27-4.74,4.58-7.05,7.17-2.43-1.77-5.25-3.77-7.67-5.36V23.32c3.23-1.93,8.53-5.46,11.16-7.36,1.73,2.89,3.78,6,6.24,9.73"/><path class="cls-1" d="M147.94,8c-1,1.05-2.08,2.25-3.49,3.92-1.18-1-2.76-2.13-4.37-3.36,1.14-1.21,2.33-2.47,3.62-4.06,1.37,1.19,2.82,2.4,4.24,3.5"/><path class="cls-1" d="M151.62,43.86S150,45.72,147.25,49c-1.71-1.35-3.93-3-5.67-4.17V22.73a6.21,6.21,0,0,0-2.56-1.5L139,21.1l4.18-4.67c1.63,1.26,3,2.29,4.73,3.49v22.2a10.84,10.84,0,0,0,3.68,1.62Z"/><path class="cls-1" d="M138.84,43.8s-1.23,1.32-4.37,5.17c-1.88-1.48-3.67-2.79-5.67-4.17v-21l-5-3.06-2.56,2.06V43.67l1.81,1.13c-1.14,1.07-3.33,3.15-4.36,4.17C117.12,47.72,115,46,115,46V23.6l-4.43-3.05L107.41,23V43.67a18.6,18.6,0,0,0,1.75,1.06c-1.47,1.39-3,2.86-4.3,4.24-1.32-1.07-2.79-2.24-3.74-2.93V23.6c-2.06-1.81-2.74-2.2-3.8-2.31l-.07-.12c1.49-1.49,3.13-3.18,4.43-4.74,2,1.56,4.13,3.3,6.42,5.05,1.84-1.43,3.91-3,6.36-5,2,1.45,4.75,3.37,7,5,2.13-1.68,4.12-3.29,6.17-5.11,1.81,1.26,5.82,3.66,7.48,4.74v21a8.79,8.79,0,0,0,3.68,1.56Z"/><path class="cls-1" d="M69.57,8c-1,1.05-2.07,2.25-3.49,3.92-1.17-1-2.75-2.13-4.36-3.36,1.14-1.21,2.33-2.47,3.61-4.06,1.37,1.19,2.83,2.4,4.24,3.5"/><path class="cls-1" d="M73.25,43.86S71.61,45.72,68.89,49c-1.72-1.35-3.93-3-5.67-4.17V22.73a6.27,6.27,0,0,0-2.56-1.5l-.06-.13,4.17-4.67c1.63,1.26,3,2.29,4.74,3.49v22.2a10.76,10.76,0,0,0,3.68,1.62Z"/><path class="cls-1" d="M20.2,1.72c-1.65,3.75-3.77,6-6.49,6C12.42,7.7,9.82,6.39,8,6.39a4.92,4.92,0,0,0-4.8,2.75L2.87,9c.53-5.18,3.69-7.67,7.29-7.67,2.25,0,4.47,1.37,6.42,1.37a5.5,5.5,0,0,0,3.24-1.12Z"/><path class="cls-1" d="M88.15,42.68V32.33a12,12,0,0,0-3.61-.5c-3.13,0-4.18,2.43-4.18,5.67,0,3.52,1.2,6.13,3.55,7.67Zm0-11.29V24.85c-2.38-1.72-4.08-2.88-6.86-4.74l-.31.25v11a15.38,15.38,0,0,1,3.31-.5,14.2,14.2,0,0,1,3.86.5m9.6,12.91-3.92,4.61c-2.11-1.63-3.72-2.86-6.43-4.86-2.72,1.57-4.15,2.59-7.85,4.92a10.43,10.43,0,0,1-5.49-9.41c0-3.52,2.22-6.5,6.61-8.11a24.46,24.46,0,0,0-4.42-2.67V22a72.86,72.86,0,0,0,9.53-5.55c2.9,1.93,5.08,3.33,8.67,5.74V42.55c1.73,1.24,2.54,1.57,3.24,1.62Z"/><path class="cls-1" d="M48.81,41.18V26.28H40.89V42.05c2,1.12,3,1.69,4.12,1.69a3.46,3.46,0,0,0,1.87-1s1.23-1,1.93-1.56M30.23,20.42v-12s-3.58-2.58-5.42-3.93L22.07,6.08V20.42ZM40.09,41.8V6L37.22,7.7V40.93a17.92,17.92,0,0,1,2.87.87m8.72-21.38V8.51a10.59,10.59,0,0,1-6.11-4L40.89,5.65V20.42ZM60.6,43.49S57.09,46.78,54.86,49c-2-1.82-4.88-4-7.29-5.92-1.83,1.37-6.37,4.68-7.92,6a14.93,14.93,0,0,0-9-2.8,10.5,10.5,0,0,0-6.23,2l-.13-.32a12.37,12.37,0,0,1,6-6.61v-15H22.07v16c0,4.24-2.74,6.8-7.17,6.8-3.11,0-6-1.56-9-1.56s-4.34.85-5.49,2.24L0,49.66c.25-4.82,2.81-7.79,7.54-7.79,3.06,0,6.39,1.49,9.67,1.49,2.9,0,4.05-1,4.05-3.92V6.52c-1.43.8-2,1.19-3,1.74V31.58c0,5-4.31,7.5-9.23,8L9,39.44c1.3-.81,2.3-2.83,2.3-5.49V26.28H10.22c-2.49,0-3.41,1.3-3.67,2.68l-.19-.06A4.4,4.4,0,0,1,4.8,25.28c0-2.84,2.31-4.86,5.55-4.86h.93V16.93c0-4.42,2.81-7.1,6.8-9.41L30.67.22C33.12,2,36.23,4.26,38.78,6L48.5.41c1.7,2,3.49,3.43,6.67,3.43a11.59,11.59,0,0,0,4-.63l.13.19a7.19,7.19,0,0,1-3.56,5.3V41.05c2.05,1.33,3.58,2.29,4.8,2.31Z"/></g></g></svg>