<?xml version="1.0" encoding="utf-8"?>
<svg class="sub-progress" version="1.1" xmlns="http://www.w3.org/2000/svg" xmlns:xlink="http://www.w3.org/1999/xlink" x="0px" y="0px"
	 viewBox="0 0 248 37" enable-background="new 0 0 248 37" xml:space="preserve">
<g class="lines">
	<path class="left" stroke="#989898" d="M107,8.5H47"/>
	<path class="right" stroke="#989898" d="M203,8.5h-60"/>
</g>
<g class="review">
	<path class="circle" fill="#989898" d="M221,0.2c1.4,0,2.7,0.3,3.9,1s2.1,1.6,2.8,2.8s1,2.5,1,3.9s-0.3,2.7-1,3.9s-1.6,2.1-2.8,2.8
		s-2.5,1-3.9,1s-2.7-0.3-3.9-1s-2.1-1.6-2.8-2.8s-1-2.5-1-3.9s0.3-2.7,1-3.9s1.6-2.1,2.8-2.8S219.6,0.2,221,0.2z M221,14.2
		c1.1,0,2.2-0.3,3.1-0.8s1.7-1.3,2.3-2.3s0.8-2,0.8-3.1s-0.3-2.2-0.8-3.1s-1.3-1.7-2.3-2.3s-2-0.8-3.1-0.8s-2.2,0.3-3.1,0.8
		s-1.7,1.3-2.3,2.3s-0.8,2-0.8,3.1s0.3,2.2,0.8,3.1s1.3,1.7,2.3,2.3S219.9,14.2,221,14.2z"/>
	<path class="check" fill="#707070" d="M227.7,11.9c-0.7,1.2-1.6,2.1-2.8,2.8s-2.5,1-3.9,1c-1.4,0-2.7-0.3-3.9-1s-2.1-1.6-2.8-2.8
		c-0.7-1.2-1-2.5-1-3.9s0.3-2.7,1-3.9c0.7-1.2,1.6-2.1,2.8-2.8s2.5-1,3.9-1c1.4,0,2.7,0.3,3.9,1s2.1,1.6,2.8,2.8
		c0.7,1.2,1,2.5,1,3.9S228.4,10.7,227.7,11.9z M225.8,6.3c0.1-0.1,0.2-0.2,0.2-0.3s-0.1-0.3-0.2-0.3l-0.7-0.7
		c-0.1-0.1-0.2-0.2-0.4-0.2c-0.1,0-0.3,0.1-0.4,0.2l-4.7,4.7l-2.2-2.2c-0.1-0.1-0.2-0.2-0.4-0.2c-0.1,0-0.3,0.1-0.4,0.2l-0.7,0.7
		c-0.1,0.1-0.2,0.2-0.2,0.3s0.1,0.3,0.2,0.3l3.2,3.2c0.1,0.1,0.2,0.2,0.3,0.2c0.1,0,0.3-0.1,0.3-0.2L225.8,6.3z"/>
	<path class="text" fill="#707070" enable-background="new    " d="M195.2,36V25.5h3.4c1,0,1.7,0.3,2.3,0.8c0.6,0.5,0.9,1.3,0.9,2.2
		c0,0.7-0.2,1.4-0.6,1.9s-0.9,0.8-1.6,1l2.7,4.5h-1.7l-2.6-4.4h-1.3V36H195.2z M198.4,26.7h-1.6v3.9h1.6c0.6,0,1.1-0.2,1.5-0.5
		c0.3-0.3,0.5-0.8,0.5-1.5c0-0.6-0.2-1.1-0.5-1.4C199.5,26.8,199,26.7,198.4,26.7z M203.9,36V25.5h6v1.2h-4.5V30h4.1v1.2h-4.1v3.7
		h4.5V36H203.9z M215.1,36.1l-3.8-10.6h1.6l2.9,8.3l2.9-8.3h1.4l-3.8,10.6H215.1z M221.6,36V25.5h1.5V36H221.6z M225.5,36V25.5h6
		v1.2h-4.5V30h4.1v1.2h-4.1v3.7h4.5V36H225.5z M235.7,36.1L233,25.5h1.5l2,8l2.5-8h1l2.5,8l2-7.9h1.3L243,36.1h-1.1l-2.5-7.9
		l-2.5,7.9H235.7z"/>
</g>
<g class="billing">
	<path class="circle" fill="#989898" d="M125,0.2c1.4,0,2.7,0.3,3.9,1s2.1,1.6,2.8,2.8s1,2.5,1,3.9s-0.3,2.7-1,3.9s-1.6,2.1-2.8,2.8
		s-2.5,1-3.9,1c-1.4,0-2.7-0.3-3.9-1s-2.1-1.6-2.8-2.8s-1-2.5-1-3.9s0.3-2.7,1-3.9s1.6-2.1,2.8-2.8S123.6,0.2,125,0.2z M125,14.2
		c1.1,0,2.2-0.3,3.1-0.8s1.7-1.3,2.3-2.3s0.8-2,0.8-3.1s-0.3-2.2-0.8-3.1s-1.3-1.7-2.3-2.3s-2-0.8-3.1-0.8s-2.2,0.3-3.1,0.8
		s-1.7,1.3-2.3,2.3s-0.8,2-0.8,3.1s0.3,2.2,0.8,3.1s1.3,1.7,2.3,2.3S123.9,14.2,125,14.2z"/>
	<path class="check" fill="#707070" d="M131.7,11.9c-0.7,1.2-1.6,2.1-2.8,2.8s-2.5,1-3.9,1c-1.4,0-2.7-0.3-3.9-1s-2.1-1.6-2.8-2.8
		s-1-2.5-1-3.9s0.3-2.7,1-3.9s1.6-2.1,2.8-2.8s2.5-1,3.9-1c1.4,0,2.7,0.3,3.9,1s2.1,1.6,2.8,2.8s1,2.5,1,3.9S132.4,10.7,131.7,11.9z
		 M129.8,6.3c0.1-0.1,0.2-0.2,0.2-0.3s-0.1-0.3-0.2-0.3l-0.7-0.7c-0.1-0.1-0.2-0.2-0.4-0.2s-0.3,0.1-0.4,0.2l-4.7,4.7l-2.2-2.2
		c-0.1-0.1-0.2-0.2-0.4-0.2s-0.3,0.1-0.4,0.2l-0.7,0.7c-0.1,0.1-0.2,0.2-0.2,0.3s0.1,0.3,0.2,0.3l3.2,3.2c0.1,0.1,0.2,0.2,0.3,0.2
		s0.3-0.1,0.3-0.2L129.8,6.3z"/>
	<path class="text" fill="#707070" d="M98.2,36V25.5h3.3c1,0,1.7,0.2,2.3,0.7c0.6,0.5,0.8,1.1,0.8,2
		c0,1.1-0.5,1.9-1.6,2.3c1.4,0.4,2,1.2,2,2.5c0,0.9-0.3,1.6-0.9,2.2c-0.6,0.5-1.4,0.8-2.4,0.8H98.2z M101.4,26.6h-1.7V30h1.7
		c1.2,0,1.8-0.6,1.8-1.8c0-0.6-0.2-1-0.5-1.3C102.4,26.7,102,26.6,101.4,26.6z M101.6,31.1h-1.9v3.8h1.8c0.6,0,1.1-0.2,1.5-0.5
		c0.4-0.3,0.5-0.8,0.5-1.4c0-0.6-0.2-1.1-0.5-1.4S102.2,31.1,101.6,31.1z M107,36V25.5h1.5V36H107z M111,36V25.5h1.5v9.3h4.4V36H111
		z M118.9,36V25.5h1.5v9.3h4.4V36H118.9z M126.8,36V25.5h1.5V36H126.8z M132.1,36h-1.3V25.5h1.5l5.2,8.2v-8.2h1.3V36h-1.4l-5.2-8.3
		V36z M149.4,35.4c-1,0.5-2.1,0.8-3.3,0.8c-1.6,0-2.9-0.5-3.9-1.4s-1.5-2.3-1.5-4c0-1.7,0.5-3.1,1.6-4c1.1-1,2.4-1.5,3.9-1.5
		c1.2,0,2.2,0.2,2.9,0.5l-0.4,1.2c-0.6-0.3-1.4-0.5-2.4-0.5c-1.2,0-2.1,0.4-2.9,1.1c-0.8,0.7-1.1,1.8-1.1,3.1c0,1.4,0.3,2.4,1,3.1
		c0.7,0.7,1.6,1.1,2.8,1.1c0.7,0,1.3-0.1,1.8-0.3v-3.2h-1.9v-1.2h3.4V35.4z"/>
</g>
<g class="signup">
	<path class="circle" fill="#989898" d="M29,0.2c1.4,0,2.7,0.3,3.9,1s2.1,1.6,2.8,2.8s1,2.5,1,3.9s-0.3,2.7-1,3.9s-1.6,2.1-2.8,2.8
		s-2.5,1-3.9,1s-2.7-0.3-3.9-1s-2.1-1.6-2.8-2.8s-1-2.5-1-3.9s0.3-2.7,1-3.9s1.6-2.1,2.8-2.8S27.6,0.2,29,0.2z M29,14.2
		c1.1,0,2.2-0.3,3.1-0.8s1.7-1.3,2.3-2.3s0.8-2,0.8-3.1S35,5.8,34.4,4.9s-1.3-1.7-2.3-2.3s-2-0.8-3.1-0.8S26.8,2,25.9,2.6
		s-1.7,1.3-2.3,2.3s-0.8,2-0.8,3.1s0.3,2.2,0.8,3.1s1.3,1.7,2.3,2.3S27.9,14.2,29,14.2z"/>
	<path class="check" fill="#707070" d="M35.7,11.9c-0.7,1.2-1.6,2.1-2.8,2.8s-2.5,1-3.9,1s-2.7-0.3-3.9-1s-2.1-1.6-2.8-2.8
		s-1-2.5-1-3.9s0.3-2.7,1-3.9s1.6-2.1,2.8-2.8s2.5-1,3.9-1s2.7,0.3,3.9,1s2.1,1.6,2.8,2.8s1,2.5,1,3.9S36.4,10.7,35.7,11.9z
		 M33.8,6.3C33.9,6.3,34,6.1,34,6s-0.1-0.3-0.2-0.3l-0.7-0.7c-0.1-0.1-0.2-0.2-0.4-0.2s-0.3,0.1-0.4,0.2l-4.7,4.7l-2.2-2.2
		c-0.1-0.1-0.2-0.2-0.4-0.2s-0.3,0.1-0.4,0.2l-0.7,0.7C24.1,8.2,24,8.4,24,8.5s0.1,0.3,0.2,0.3l3.2,3.2c0.1,0.1,0.2,0.2,0.3,0.2
		s0.3-0.1,0.3-0.2L33.8,6.3z"/>
	<path class="text" fill="#707070" enable-background="new    " d="M3.9,26.6c-0.6,0-1,0.1-1.3,0.4c-0.3,0.3-0.5,0.6-0.5,1.1
		c0,0.2,0,0.3,0.1,0.4s0.1,0.2,0.3,0.4c0.1,0.1,0.2,0.2,0.3,0.3c0.1,0.1,0.2,0.2,0.5,0.3c0.2,0.1,0.4,0.2,0.5,0.2S4,29.8,4.3,30
		c0.4,0.2,0.8,0.4,1.1,0.5c0.3,0.2,0.5,0.4,0.8,0.6c0.3,0.2,0.5,0.5,0.6,0.8C6.9,32.2,7,32.6,7,33c0,1-0.3,1.8-1,2.3
		c-0.6,0.6-1.5,0.8-2.5,0.8c-1.3,0-2.3-0.3-3.2-0.8l0.4-1.2c0.8,0.5,1.7,0.8,2.7,0.8c0.7,0,1.2-0.1,1.6-0.4c0.4-0.3,0.6-0.7,0.6-1.3
		c0-0.3,0-0.5-0.1-0.7c-0.1-0.2-0.2-0.4-0.5-0.5c-0.3-0.2-0.5-0.3-0.6-0.4c-0.2-0.1-0.5-0.2-1-0.4c-0.1,0-0.1-0.1-0.2-0.1
		c-0.8-0.4-1.5-0.8-1.9-1.2s-0.7-1-0.7-1.8c0-0.8,0.3-1.5,0.9-2c0.6-0.5,1.4-0.8,2.4-0.8c1.1,0,2,0.2,2.7,0.6l-0.4,1.2
		C5.6,26.8,4.8,26.6,3.9,26.6z M8.8,36V25.5h1.5V36H8.8z M21,35.4c-1,0.5-2.1,0.8-3.3,0.8c-1.6,0-2.9-0.5-3.9-1.4s-1.5-2.3-1.5-4
		c0-1.7,0.5-3.1,1.6-4c1.1-1,2.4-1.5,3.9-1.5c1.2,0,2.2,0.2,2.9,0.5L20.3,27c-0.6-0.3-1.4-0.5-2.4-0.5c-1.2,0-2.1,0.4-2.9,1.1
		c-0.8,0.7-1.1,1.8-1.1,3.1c0,1.4,0.3,2.4,1,3.1c0.7,0.7,1.6,1.1,2.8,1.1c0.7,0,1.3-0.1,1.8-0.3v-3.2h-1.9v-1.2H21V35.4z M24.5,36
		h-1.3V25.5h1.5l5.2,8.2v-8.2h1.3V36h-1.4l-5.2-8.3V36z M37.8,25.5v6.8c0,0.9,0.2,1.5,0.6,2c0.4,0.4,1,0.7,1.9,0.7
		c0.7,0,1.3-0.2,1.7-0.6c0.4-0.4,0.6-1.1,0.6-1.9v-6.9h1.4v6.7c0,1.3-0.3,2.2-1,2.9c-0.7,0.7-1.6,1-2.8,1c-1.3,0-2.2-0.3-2.9-1
		c-0.7-0.7-1-1.7-1-2.9v-6.7H37.8z M46.3,36V25.5h3.4c1,0,1.8,0.3,2.4,0.8c0.6,0.6,0.9,1.3,0.9,2.4c0,1-0.3,1.8-0.9,2.3
		c-0.6,0.6-1.4,0.8-2.3,0.8h-1.9V36H46.3z M49.5,26.7h-1.6v4.1h1.6c0.6,0,1.1-0.2,1.5-0.5c0.4-0.4,0.5-0.9,0.5-1.5
		c0-0.7-0.2-1.2-0.5-1.5C50.6,26.9,50.1,26.7,49.5,26.7z"/>
</g>
</svg>
