<?xml version="1.0" encoding="utf-8"?>
<!-- Generator: Adobe Illustrator 23.0.6, SVG Export Plug-In . SVG Version: 6.00 Build 0)  -->
<svg version="1.1" id="Layer_1" xmlns="http://www.w3.org/2000/svg" xmlns:xlink="http://www.w3.org/1999/xlink" x="0px" y="0px"
	 viewBox="0 0 512 512" style="enable-background:new 0 0 512 512;" xml:space="preserve">
<style type="text/css">
	.st0{clip-path:url(#SVGID_2_);}
	.st1{fill:#2757A2;}
	.st2{fill:#3F6CB3;}
	.st3{fill:none;stroke:#5680C0;stroke-width:1.02;stroke-miterlimit:2;}
	.st4{fill:#FFFFFF;}
</style>
<g>
	<g id="Art">
		<g>
			<defs>
				<rect id="SVGID_1_" width="512" height="512"/>
			</defs>
			<clipPath id="SVGID_2_">
				<use xlink:href="#SVGID_1_"  style="overflow:visible;"/>
			</clipPath>
			<g class="st0">
				<rect class="st1" width="512" height="512"/>
				<polygon class="st2" points="291.8,390.1 292.6,60.3 293,44.6 301,41.2 307.3,44.9 316.8,386.7 304,390.1 				"/>
				<path class="st3" d="M293.4,44.8L-19.8,200.5"/>
				<path class="st3" d="M260.9,315.4L293.1,45"/>
				<line class="st3" x1="218.1" y1="315.3" x2="292.8" y2="46.5"/>
				<line class="st3" x1="292.8" y1="46.4" x2="186.1" y2="320.8"/>
				<line class="st3" x1="292.9" y1="46.5" x2="149.1" y2="325.1"/>
				<line class="st3" x1="292.9" y1="46.5" x2="111.3" y2="325.1"/>
				<line class="st3" x1="292.9" y1="45.9" x2="73" y2="327.4"/>
				<line class="st3" x1="306.9" y1="45.1" x2="544.5" y2="186.2"/>
				<path class="st3" d="M306.9,45.5c-0.1-0.2,28.9,272.5,28.9,272.5"/>
				<line class="st3" x1="307" y1="45.8" x2="365.6" y2="315.6"/>
				<line class="st3" x1="307" y1="45.7" x2="377.5" y2="264.1"/>
				<line class="st3" x1="307" y1="45.7" x2="425.7" y2="315.5"/>
				<line class="st3" x1="307" y1="45.7" x2="452.7" y2="310.4"/>
				<line class="st3" x1="307" y1="45.7" x2="480.3" y2="310.4"/>
				<line class="st3" x1="307" y1="45.7" x2="514.7" y2="310.4"/>
				<line class="st3" x1="307" y1="45.7" x2="527.9" y2="295.6"/>
				<line class="st3" x1="307" y1="45.8" x2="535.5" y2="278.6"/>
				<line class="st3" x1="307" y1="45.8" x2="527.9" y2="251.1"/>
				<line class="st3" x1="307" y1="45.8" x2="527.9" y2="234"/>
				<line class="st3" x1="307" y1="45.8" x2="532.1" y2="223.8"/>
				<line class="st3" x1="307" y1="45.8" x2="535.5" y2="214"/>
				<line class="st3" x1="307" y1="45.8" x2="532.1" y2="200.7"/>
				<line class="st3" x1="307.1" y1="45.5" x2="544.5" y2="198.3"/>
				<line class="st3" x1="292.9" y1="45.9" x2="33.7" y2="327.4"/>
				<line class="st3" x1="292.9" y1="46" x2="-4.1" y2="325.6"/>
				<line class="st3" x1="292.9" y1="45.9" x2="-35.1" y2="318.3"/>
				<line class="st3" x1="293.1" y1="45.6" x2="-42.3" y2="297.8"/>
				<line class="st3" x1="293" y1="45.4" x2="-49.5" y2="278.9"/>
				<line class="st3" x1="293" y1="45.4" x2="-52.8" y2="262.2"/>
				<line class="st3" x1="293" y1="45.1" x2="-44.9" y2="238.5"/>
				<polygon class="st2" points="369,52.7 370.2,65.8 306.6,78.2 306.1,67.8 				"/>
				<line class="st3" x1="368.7" y1="28.8" x2="-39.2" y2="230.5"/>
				<line class="st3" x1="335.5" y1="312.9" x2="368.7" y2="28.8"/>
				<line class="st3" x1="288.7" y1="316.6" x2="368.7" y2="29.9"/>
				<line class="st3" x1="368.7" y1="29.9" x2="257.4" y2="315.6"/>
				<line class="st3" x1="368.7" y1="29.9" x2="220.8" y2="316.5"/>
				<line class="st3" x1="368.7" y1="29.9" x2="181.3" y2="317.5"/>
				<line class="st3" x1="368.7" y1="28.8" x2="140.5" y2="321"/>
				<line class="st3" x1="382.7" y1="28.8" x2="620.3" y2="169.1"/>
				<line class="st3" x1="382.7" y1="28.8" x2="412.6" y2="309.8"/>
				<line class="st3" x1="382.7" y1="28.8" x2="443.5" y2="308.5"/>
				<line class="st3" x1="382.7" y1="28.8" x2="472.8" y2="307.9"/>
				<line class="st3" x1="382.7" y1="28.8" x2="505.9" y2="308.5"/>
				<line class="st3" x1="382.7" y1="28.8" x2="528.5" y2="293.5"/>
				<line class="st3" x1="382.7" y1="28.8" x2="556.1" y2="293.5"/>
				<line class="st3" x1="382.7" y1="28.8" x2="590.5" y2="293.5"/>
				<line class="st3" x1="382.7" y1="28.8" x2="603.7" y2="278.6"/>
				<line class="st3" x1="382.7" y1="28.8" x2="611.3" y2="261.6"/>
				<line class="st3" x1="382.7" y1="28.8" x2="603.7" y2="234"/>
				<line class="st3" x1="382.7" y1="28.8" x2="603.7" y2="217"/>
				<line class="st3" x1="382.7" y1="28.8" x2="607.9" y2="206.8"/>
				<line class="st3" x1="382.7" y1="28.8" x2="611.3" y2="197.1"/>
				<line class="st3" x1="382.7" y1="28.8" x2="607.9" y2="183.7"/>
				<line class="st3" x1="382.7" y1="28.8" x2="620.3" y2="181.3"/>
				<line class="st3" x1="368.7" y1="28.8" x2="97.8" y2="323.5"/>
				<line class="st3" x1="368.7" y1="28.8" x2="54.1" y2="325.1"/>
				<line class="st3" x1="368.7" y1="28.8" x2="11.1" y2="325.4"/>
				<line class="st3" x1="368.7" y1="28.8" x2="-19.8" y2="321"/>
				<line class="st3" x1="368.7" y1="28.8" x2="-21.4" y2="294.5"/>
				<line class="st3" x1="368.7" y1="28.8" x2="-26.5" y2="275.4"/>
				<line class="st3" x1="368.7" y1="28.8" x2="-31.9" y2="257.6"/>
				<polygon class="st2" points="372.4,386.4 367.8,29.1 376.7,24.9 383.5,27.8 399.2,386.4 386.6,388 				"/>
				<polygon class="st2" points="-13,320.4 530.9,305.1 530.9,316.6 -13,333.8 				"/>
				<g>
					<path class="st4" d="M150,353.4c-1.8,3.3-5.7,6.4-9.1,8.1c-8.4,5.3-17.8-6.6-25.1,1.4c-1.1-2.2,0.6-5.7,2.3-7.6
						s6.4-4.7,9.3-5.7C136.6,348.5,140.9,355.9,150,353.4L150,353.4z"/>
					<path class="st4" d="M347.5,426.1c3.5-0.2,7.9,5,10.8,4.3l-9.9,12.2c-4.2-3.7-10.3-9.8-18.7-6.3c0-2.6,2.3-7.4,6-8.9
						c0,0,0.1-60.2,0-64.1s-1.5-6.6-1.6-7.1c5.2-2.3,10.4-4.9,15.3-7.8c0,0-1.9,6.4-1.9,9.8L347.5,426.1L347.5,426.1z"/>
					<path class="st4" d="M145.9,300.7c2.5-3.1,4.8-6.4,7-9.8l1,0.9c-3,12.5-11.8,26.2-25.2,29.8c-9.9,2.3-20.5,0.5-27.6-6.6
						c-11.7-10.8-13.4-29-7.9-43.1c2.5-6.8,7.6-16.3,15.1-22.6c0.8,0.4,0.8,0.7,1.4,1.1c-8.6,11.2-11.4,28.9-5.6,42.3
						c3.4,7.2,10.2,14.7,18.3,15.8S140.9,307.4,145.9,300.7L145.9,300.7z"/>
					<path class="st4" d="M371.3,263.6c3.4,0.1,6.7-0.3,10-1.2l-2.4,10.9c-0.8-0.1-1.7-0.2-2.5-0.1h-5.1v32.9
						c2.7,0.3,6.9,2.9,8.1,3.6c0.8,0.4,1.8,0.6,2.7,0.6l-9.8,12.1c-5.2-4.5-9.7-9.6-18.8-6.3c0.1-3.9,2.5-7.4,6.1-9v-33.8h-6.3
						c-1.1,0.1-2.2,0.3-3.2,0.6l3.2-10.5h6.3c0.1-4.4,0.2-11.2-0.6-15c5-2.3,8.9-4,13.3-7.2c-0.3,2.5-1,7.2-1,9.5s0.1,9.3,0,12.7
						L371.3,263.6z"/>
					<path class="st4" d="M217,246.2c1.2,0,2.2-0.9,3.2-1.1c0.4,3.9-3.8,7.5-7.4,9.1s-7.1-1.4-10-3.6c-0.5-0.4-1-0.8-1.6-1l-1.3-0.4
						l10.1-7.8C211.6,243.7,214.1,246.1,217,246.2z"/>
					<path class="st4" d="M132.9,289.2c-0.7,7.3-5.8,13.4-12.8,15.4c0.8-1.4,1.2-2.9,1.2-4.5c-0.1-12.4,0-28-0.1-40
						c-0.3-1.5-0.6-2-2-3.5l13.7-9V289.2L132.9,289.2z"/>
					<path class="st4" d="M217.3,265.3c2,0,2.6,0,4.3-1.1c-0.1,3.9-2.3,7.4-5.8,9.1c0.1,11.6,0,22.7,0,33.8c0.1,1.2,2.5,3.3,5.2,3.3
						l2.8-0.3c-2.1,3-8.8,11-9.2,11.5s-2.6,0.3-4.7-0.9c-4.2-2.6-5.8-7.4-5.8-12.1c-0.1-10.6,0.1-22.4,0-34.3
						c-1.2-1-2.8-2.9-4.3-3.3c-0.5-0.2-1.1-0.4-1.7-0.4c3.6-3.7,7.6-7.4,11.5-11.7C211.3,261.2,213.8,265.3,217.3,265.3z"/>
					<path class="st4" d="M249.8,294h-9.7c-0.8,0-7.7-0.3-11,0.6l3.7-12h9.7c-0.3,0,6.7,0.1,9.9-0.9c-0.9,4.4-1.7,7.7-2.6,12.4V294z
						"/>
					<path class="st4" d="M188.6,264.9c2,0.6,3.5-0.5,5.1-1.3c0.4,3.3-0.4,6.6-2.3,9.3c-1.7,2.2-4.3,3.4-7.1,3.4
						c-2.8-0.2-4.9-1.9-6.9-3.9l-4.7,5.2c0.1,5.8,0,19.1,0.1,28.3c2.3-0.1,4.5,1.9,8.2,3.8c0.8,0.4,1.8,0.6,2.7,0.5l-9.9,12.2
						c-3.8-3.1-8.1-7.6-13-7.4s-5.8,1.3-5.8,1.3c-0.1-3.5,2.7-8,6-9.2v-32c0-2.9-5.7-4.3-5.7-4.3c3.7-3.6,6.7-7.9,9-12.5
						c5.8,1.3,7.1,8.4,8.5,13.5c4.1-4,7.6-8.7,10.3-13.8C184.3,260.8,184.7,264.1,188.6,264.9z"/>
					<path class="st4" d="M141.4,245.9c-13.9,1.5-28.3-1.7-42.3-2.6c-3.7-0.3-6.3,1.8-9,4.4c1.1-6.5,5.3-12.1,11.3-14.9
						c16.5-3.8,33.1,3.6,50,1.7c1.1-0.2,2-0.8,2.6-1.7l1,1C154.6,237.6,144.6,245.5,141.4,245.9z"/>
					<path class="st4" d="M231.2,430.1c-4.6-3.6-10.1-3.8-14.5-4v-12.2c8.3-5.9,14-10.1,21-15.3c-4-6.7-7.1-13.8-10.3-20.8
						c-7.3,5.3-15.4,8.8-24.9,8.9c0,0,2.5,2.8,2.5,4.5v36.1c-3.5,1.6-5.8,5.1-6,8.9c9.7-2,19.4,1.4,26.9,6.5l10.4-14.5l-1.8-1.8
						L231.2,430.1z M217.7,386.8l1-0.2l7.1,14.1c-2.8,2.2-5.8,4.5-9,6.6v-19.9C217.1,387.1,217.4,386.9,217.7,386.8L217.7,386.8z"/>
					<path class="st4" d="M274.6,384.9c2,0.6,3.5-0.5,5.1-1.3c0.4,3.3-0.4,6.6-2.4,9.3c-1.6,2.2-4.3,3.5-7,3.4
						c-2.8-0.2-4.9-1.9-6.9-3.9l-4.6,5.1c-0.2,10.9,0.1,19.2,0,28.4c2.4-0.1,4.4,1.9,8.2,3.9c0.8,0.4,1.8,0.5,2.7,0.4l-10,12.2
						c-3.7-3.1-8-7.6-12.9-7.4s-5.9,1.3-5.9,1.3c-0.1-3.5,2.9-8,6.3-9.2l-0.2-32c0.1-2.9-5.6-4.3-5.6-4.3c3.2-4,6.2-8.2,9-12.5
						c5.8,1.3,7.1,8.5,8.5,13.5c4.1-4.1,7.5-8.7,10.2-13.8C270.3,380.8,270.7,384.1,274.6,384.9z"/>
					<path class="st4" d="M160.9,430.5c-4.4,5.5-5.3,6.5-9.9,12c-2.8-2.2-6.1-3.2-8.4-4.6s-13.1-2.4-20.4,1.4
						c-0.5,0.2-1.6,1.2-2,1.4s-1-0.8-1-1c0-2.2,9.5-12.2,19.3-14v-27.6c-6.3,0-7.9,4.3-7.9,4.3s-3.1-7.6,2.7-13.1
						c3.5-3.4,5.1-3.1,5.1-3.1V377c0-14,12.5-16.4,12.5-16.4s-0.7,6.2-0.7,7.7v17.9h24.9v-21.8c-3.8-3.7-4.2-3.2-5.8-3.6l13.1-11.5
						c3.2,3.8,3,8.3,9.9,5.1c0.6,2.5-2.2,7.7-5.5,9.1v62.6c1.5-0.2,3.5,1,5.2,2.2c1.7,1.2,3.6,2.4,5.6,2c-3.7,4.3-6.1,7.5-9.9,12.3
						c0,0-5.4-5.2-9.8-7c-4.4-1.8-9,0.7-9,0.7c0.2-2,0.8-3.8,1.9-5.5c1.1-1.5,2.6-2.7,4.3-3.5V398h-24.9v27.9
						c0.8,0.1,1.7,0.4,2.4,0.8c2,1.2,4.1,2.4,6.2,3.4C159.5,430.4,160.2,430.5,160.9,430.5L160.9,430.5z"/>
					<path class="st4" d="M416.4,321.3v6.6c-0.1,1.1-1.7,2.8-2.7,3.6s-3.4,2.3-4,2.1s-6.6-2.3-12.3-3.8s-10.5,3.3-12.8,7.1
						s-1.1,6.1-1.1,6.1c1.9-2.1,4.6-3.1,7.4-2.8c1.4,0.2,10,2.6,10,2.6c4.1,1.2,7.7-0.9,8.9-1.7l15.5-11.4c1.1-0.9,2.5-1.3,3.9-1.2
						c-0.6-0.6-1.3-4-1.4-5.2v-50.2c5.1-2.6,5.9-9.2,5.9-9.2c-1.9,1.2-4.3,1.5-6.5,0.7c-2.1-0.9-5.8-6-5.8-6l-11.3,11.6
						c2,0.3,5.9,3.6,5.9,3.6v36.7l-3.8,1.5l-0.7-0.6c-2.1-1.8-4.3-3.4-6.7-4.7c-1-0.4-2-0.6-3.1-0.7c0,0,0.1-18.1,0-31.9
						s-8.2-15.1-8.2-15.1s-7.6,11-8.4,11.6s4.9,0.8,4.9,4.6v32c-3.7,1.6-6.2,5.2-6.2,9.2c0,0,6.3-3.1,11.6,0s10.1,6.2,10.1,6.2
						s9-6,10.8-6.7v5.4L416.4,321.3z"/>
					<path class="st4" d="M342.4,246.3c1.2,0,2.2-0.9,3.2-1.2c0.4,4-3.8,7.6-7.4,9.1s-7.1-1.3-10-3.6c-0.5-0.4-1-0.7-1.6-0.9
						l-1.3-0.4l10.1-7.8C337,243.7,339.5,246.1,342.4,246.3L342.4,246.3z"/>
					<path class="st4" d="M342.7,265.4c2,0,2.6,0,4.3-1.1c0,3.9-2.2,7.4-5.7,9.1c0,11.6-0.1,22.7-0.1,33.7c0.1,1.3,2.5,3.4,5.3,3.4
						l2.7-0.3c-2.1,2.9-8.8,11-9.2,11.5s-2.6,0.3-4.7-0.9c-4.2-2.6-5.8-7.5-5.8-12.1c-0.1-10.6,0.2-22.4,0-34.4
						c-1.2-0.9-2.8-2.8-4.3-3.3l-1.7-0.3c3.6-3.7,7.6-7.4,11.5-11.7C336.7,261.2,339.2,265.4,342.7,265.4L342.7,265.4z"/>
					<path class="st4" d="M286.8,233.3c0.9-0.5,2-0.8,2.9-1.2c15.2-1.7,13.8,4.6,29.2,4.8c1-0.1,1.9-0.6,2.5-1.3
						c0.4,0.5,0.7,1.1,0.9,1.7c-0.9,3.8-10.7,9.7-13.6,9.7c-12.7-0.2-9.7-2.1-22.2-4.8c-1.8-0.3-3.7,0.1-5.3,1
						c-1.6,0.8-2.9,2.1-3.9,3.6c-5.2,9.7-6.1,21.1-5,33.2s7.7,23.1,19,27c4.5,1.7,17.4,2.4,21-0.3s8.1-5.7,11.2-10.5l1,0.9
						c-0.4,1.3-1,2.5-1.6,3.7c-4.7,9.9-14.2,19.6-24.3,21.3s-20.7-2.5-28-11.5c-11-12.3-12.7-33.2-7.2-49.2
						C267.4,249.2,275.8,238.4,286.8,233.3L286.8,233.3z"/>
					<path class="st4" d="M402.9,427.1c0-1,0-16.9-0.1-33.9c3.5-1.7,5.7-5.2,5.8-9.1c-1.6,1.5-5.8,1.1-5.8,1c0-11.1,0-25-0.1-27.2
						c0.2-3.3,0.8-6.6,1.9-9.7c-4.9,2.9-9.9,5.5-15.2,7.7c1.2,3.9,1.9,4.1,1.8,9.7v14.8c-1.4-0.4-2.6-1.2-3.5-2.3
						c-2,1.5-6.2,4.8-8.4,5.6c-6.9,2.4-10.4,3.5-16.5,3.2c0,0,2.4,2.9,2.4,4.9v35.1c-2.8,1.7-5.8,3.5-6.3,9.1c1.1-0.5,2.4-0.9,3.6-1
						c4.2-0.8,7.9,0.7,11.1,2.9s4.5,2.9,7.1,4.5l3.8-3.7c1.4-1.2,3.1-2.1,4.8-2.7l2.9-0.8c0.7,1.7,1.8,3.2,3.2,4.4
						c2.7,2.1,5.3,2.7,6.2,2s8-9.8,9-11.5C407.7,431.1,402.9,429.1,402.9,427.1z M380.9,426.7c-1.3-0.5-2.6-0.8-4-1v-36l1.7-1.5
						c0.6,0,1.3,0.1,1.9,0.3c0.6,0.3,3.4,3.4,5.5,4.6c1.6,0.7,3.3,1.2,5.1,1.4v36.3C387.6,434.9,385.9,429.1,380.9,426.7z"/>
					<path class="st4" d="M309.5,427.5v-32.9c-0.6-0.3-1.1-0.6-1.6-1.1l-2.9-2.8c0,0-4.2,4.6-10.3,4.9s-10.4-4-11.9-5.9
						c0,0,8.8-6.7,13.2-10.3c0,0,3.2,8.4,6.4,8.5s6.6-0.4,12.3-8.9c0,0,4.5,6,7.2,6.1s4.7-0.6,5-0.9c-0.2,3.8-2.3,7.2-5.7,9v34.1
						c0,1,3.6,4,7.7,2.8l-9,11.6c-1,0.2-2.1,0-3-0.4c-2.5-0.8-5.7-3.3-7.1-8.8l-8.1,9c-0.3,0.3-0.7,0.5-1.1,0.6
						c-4.1,0-12.5-3.5-15-7.4s-8.2-13.8,7.2-24.4c7.5-5.2,8.9-5.6,13.7-6.9l0.6,1.7c0,0-11.1,6-12.7,13s4.4,12.3,8.3,11.9
						C305.2,429.8,307.5,428.9,309.5,427.5L309.5,427.5z"/>
				</g>
			</g>
		</g>
	</g>
</g>
</svg>
