<svg xmlns="http://www.w3.org/2000/svg" viewBox="0 0 300.65 22.12"><defs><style>.cls-1{fill:#231f20;}</style></defs><title>bradenton-herald</title><g id="Layer_2" data-name="Layer 2"><g id="brd"><path class="cls-1" d="M201.94,10.29V5.45c0-3.55-.26-3.95-2.9-4.31V.68h8.57v.46c-2.77.36-3,.76-3,4.31V17.3c0,3.56.26,3.95,3,4.32v.46h-8.78v-.46c2.91-.37,3.17-.76,3.17-4.32v-6H190.36v6c0,3.56.27,3.95,3,4.32v.46h-8.57v-.46c2.7-.37,3-.76,3-4.32V5.45c0-3.55-.26-3.95-3.1-4.31V.68h8.58v.46c-2.57.36-2.84.76-2.84,4.31v4.84Z"/><path class="cls-1" d="M211.68,5.45c0-3.55-.26-3.95-2.9-4.31V.68h14.29c0,.56.2,3,.36,4.81l-.49.1a7.36,7.36,0,0,0-1.48-3c-.5-.56-1.48-1.15-4-1.15H215.3c-.92,0-1,.06-1,1v8h3.32c2.83,0,2.93-.32,3.59-2.76h.49v6.52h-.49c-.33-1.25-.53-1.94-1-2.31s-1.19-.46-2.6-.46h-3.32v6.32c0,1.88.19,2.67.75,3.1s1.88.52,3.42.52A5.81,5.81,0,0,0,222.64,20a15.68,15.68,0,0,0,1.91-3.23l.49.1c-.16.92-.88,4.28-1.15,5.17H208.46v-.46c3-.37,3.22-.76,3.22-4.32V5.45Z"/><path class="cls-1" d="M229.86,11.69h1.49a5.75,5.75,0,0,0,3.6-.86,5.54,5.54,0,0,0,1.83-4.54c0-3.62-2.3-5.14-4.92-5.14a5.08,5.08,0,0,0-1.71.17c-.19.06-.29.23-.29.89v9.48Zm0,5.43c0,3.55.26,3.95,2.85,4.31v.46h-8.22v-.46c2.66-.36,2.91-.76,2.91-4.31V5.27c0-3.56-.25-3.95-2.78-4.31V.49h7.87a9,9,0,0,1,5,1.12,4.87,4.87,0,0,1,2.08,4.22c0,2.63-1.61,4.67-4.26,5.79.54,1,1.83,3.23,2.78,4.67a43.26,43.26,0,0,0,2.84,3.86,3.7,3.7,0,0,0,2.34,1.58l0,.39c-.38,0-.92,0-1.9-.13a5.42,5.42,0,0,1-4.45-2.8c-1.27-1.87-2.37-4-3.32-5.63a2.17,2.17,0,0,0-2.27-1.21h-1.4v4.77Z"/><path class="cls-1" d="M250,12.71h6l-3-8.46H253L250,12.71Zm-6.26,9.37v-.47c2-.53,2.38-.76,3.56-4L253.68.14l.4-.14,2.3,6.34c1.52,4.18,2.88,8.4,4.12,11.79,1,2.72,1.4,3,3.32,3.48v.47h-7.41v-.47l1-.29c1.12-.3,1.21-.64.93-1.67-.22-.79-1.12-3.38-2-5.94h-6.63c-.37,1-1.15,3.62-1.46,4.95-.46,2-.19,2.39,1.49,2.79l.65.16v.47Z"/><path class="cls-1" d="M269.79,17.73c0,1.88.17,2.67.73,3.1s1.77.52,3.25.52a5.37,5.37,0,0,0,3.83-1.28,19.91,19.91,0,0,0,1.87-3.26l.49.1c-.16.92-.88,4.28-1.15,5.17H264.13v-.46c2.77-.37,3-.76,3-4.32V5.45c0-3.55-.26-3.95-3-4.31V.68h8.76v.46c-2.84.36-3.1.76-3.1,4.31V17.73Z"/><path class="cls-1" d="M285,17.86c0,2.93.43,3.46,2.8,3.46,7.08,0,9.71-5.1,9.71-10,0-3.49-.72-7.11-4-8.89a12.4,12.4,0,0,0-5.8-1,8.49,8.49,0,0,0-2.4.16c-.2.11-.3.24-.3.89V17.86ZM288.6.68c3.92,0,7.08.79,9.18,2.77a9.41,9.41,0,0,1,2.87,7c0,8.13-6.22,11.66-14,11.66h-7.4v-.46c2.83-.37,3.09-.76,3.09-4.32V5.45c0-3.55-.26-3.95-2.83-4.31V.68Z"/><path class="cls-1" d="M5.64,11.05v7c0,2.16.42,2.9,2.76,2.87,2.7,0,5-1.36,5-4.78s-2.57-5.13-5.88-5.13Zm0-.94h2c3.08,0,4.62-1.45,4.62-4.1,0-1.94-.81-4.1-4.59-4.1a5.13,5.13,0,0,0-1.77.19c-.19.07-.29.19-.29.84v7.17ZM8.79,1A7.61,7.61,0,0,1,13.47,2.1a4.07,4.07,0,0,1,1.67,3.55c0,2.85-2.66,4.23-4.2,4.62v.07c2.92.42,5.55,2.16,5.55,5.42a5.44,5.44,0,0,1-3,5A12.55,12.55,0,0,1,7.38,22H0v-.74c2.69-.2,3-.42,3-3.94V5.65c0-3.52-.23-3.74-2.76-3.94V1Z"/><path class="cls-1" d="M21.53,11.53h1.86a4.78,4.78,0,0,0,3.21-.86,5.21,5.21,0,0,0,1.86-4.25C28.46,3,26,1.69,23.62,1.69a5.6,5.6,0,0,0-1.8.16c-.19.06-.29.22-.29.87v8.81Zm0,5.48c0,3.5.26,3.73,2.89,3.92v.74H15.89v-.74c2.69-.19,2.95-.42,2.95-3.92V5.42c0-3.51-.26-3.73-2.82-3.93V.75h8.14a9.27,9.27,0,0,1,5.07,1.1A4.67,4.67,0,0,1,31.35,6c0,2.67-1.64,4.57-4.23,5.63.57,1,1.89,3.19,2.85,4.6a29,29,0,0,0,2.7,3.54,4.11,4.11,0,0,0,2.4,1.61L35,22h-.45c-3.69-.09-4.81-1.22-6-3-1-1.45-2.34-3.83-3.24-5.34a2.06,2.06,0,0,0-2-1.16H21.53V17Z"/><path class="cls-1" d="M42.35,12.67h5.36L45,4.64H45l-2.63,8Zm5.78,8.54,1-.13c1.12-.13,1.24-.49.94-1.5-.21-.78-1.09-3.33-1.94-5.68H42c-.31.85-1.1,3.4-1.52,4.77-.57,1.89-.3,2.31,1.06,2.44l.91.1V22H35.93v-.75c2-.23,2.21-.42,3.27-3.32L45.44.56l.69-.29,2.15,6.2c1.43,4.14,2.76,8.28,3.94,11.61,1,2.74,1.36,3,3.24,3.13V22H48.13v-.75Z"/><path class="cls-1" d="M61.9,17.83c0,1.49.1,2.13.54,2.52a3.66,3.66,0,0,0,2.28.55c6.74,0,9.34-4.69,9.34-9.53,0-3.26-.71-6.72-3.92-8.4A11.93,11.93,0,0,0,64.5,1.91a6.93,6.93,0,0,0-2.31.19c-.19.07-.29.26-.29.9V17.83ZM65.43,1c3.82,0,6.89.77,8.95,2.71a9.32,9.32,0,0,1,2.79,6.85c0,8-6.06,11.43-13.6,11.43H56.19v-.74c2.76-.2,3-.42,3-3.94V5.65c0-3.52-.25-3.74-2.75-3.94V1Z"/><path class="cls-1" d="M79.24,5.65c0-3.52-.25-3.74-2.82-3.94V1h14c0,.55.2,2.91.36,4.72L90,5.78a6,6,0,0,0-1.15-3C88.36,2.26,87.3,2,85.34,2H82.9c-.9,0-1,.06-1,1V10.4h3.24c2.76,0,2.85-.19,3.18-2.58h.8v6.39h-.8c-.17-1.19-.26-1.84-.68-2.19s-1.12-.42-2.5-.42H81.94v5.71c0,1.84.19,2.81.8,3.2A7.17,7.17,0,0,0,86,20.9c1.83,0,3.34-.17,4-.94a9.17,9.17,0,0,0,1.54-3.17l.8.1c-.16.91-.87,4.2-1.12,5.07H76.1v-.74c2.89-.2,3.14-.42,3.14-3.94V5.65Z"/><path class="cls-1" d="M111.52,22h-.83L96.76,4.77H96.7v8.32a54.2,54.2,0,0,0,.25,6.2c.16,1.14,1,1.6,3.15,1.69v.75H92.4V21c1.76-.06,2.6-.55,2.76-1.69a51.82,51.82,0,0,0,.25-6.2V6c0-2.35,0-2.88-.61-3.63s-1.47-1-2.82-1.1V.52h4.68L110.17,17h.06V9.17A51.82,51.82,0,0,0,110,3c-.16-1.14-1-1.6-3.15-1.69V.52h7.7v.76c-1.76.06-2.6.55-2.76,1.69a54.2,54.2,0,0,0-.25,6.2V22Z"/><path class="cls-1" d="M125.08,17.28c0,3.52.25,3.74,3.39,3.94V22h-9.36v-.74c3-.2,3.27-.42,3.27-3.94V2h-1.51c-2.85,0-3.72.42-4.2,1a8.45,8.45,0,0,0-1.12,2.78h-.8c.13-2,.32-4,.38-5.69h.45c.48.74.8.81,1.67.81H130.4c.84,0,1-.19,1.51-.81h.45c0,1.36.19,3.72.35,5.59l-.8.1a6.14,6.14,0,0,0-1.16-3c-.54-.62-1.53-.84-3.52-.84h-2.15V17.28Z"/><path class="cls-1" d="M142.78,1.07c-3.78,0-7,3.13-7,9.2,0,6.23,3.24,10.63,7.92,10.63,3.85,0,7-3,7-9,0-7-3.34-10.82-7.93-10.82Zm11,9.62C153.82,17.41,149.16,22,143,22s-10.37-4.65-10.37-10.75C132.67,5.78,136.46,0,143.61,0c5.55,0,10.21,4.33,10.21,10.69Z"/><path class="cls-1" d="M172.87,22H172l-13.92-17H158v8.24a50.07,50.07,0,0,0,.26,6.14c.16,1.12,1,1.58,3.15,1.67v.75h-7.71V21c1.77-.06,2.61-.55,2.76-1.67a50.07,50.07,0,0,0,.26-6.14v-7c0-2.32,0-2.84-.61-3.59a3.51,3.51,0,0,0-2.82-1.09V.74H158L171.52,17h.06V9.3a52.89,52.89,0,0,0-.25-6.13c-.16-1.13-1-1.59-3.14-1.68V.74h7.69v.75c-1.76.06-2.6.55-2.76,1.68a52.89,52.89,0,0,0-.25,6.13V22Z"/></g></g></svg>