<svg xmlns="http://www.w3.org/2000/svg" xmlns:xlink="http://www.w3.org/1999/xlink" viewBox="0 0 297.28 23.34"><defs><style>.cls-1{fill:url(#linear-gradient);}.cls-2{fill:url(#linear-gradient-2);}.cls-3{fill:url(#linear-gradient-3);}.cls-4{fill:url(#linear-gradient-4);}.cls-5{fill:url(#linear-gradient-5);}.cls-6{fill:#010101;fill-rule:evenodd;}</style><linearGradient id="linear-gradient" x1="60.17" y1="11.72" x2="60.37" y2="5.41" gradientUnits="userSpaceOnUse"><stop offset="0" stop-color="#05a1d7" stop-opacity="0"/><stop offset="1" stop-color="#05a1d7"/></linearGradient><linearGradient id="linear-gradient-2" x1="68.41" y1="18.02" x2="68.5" y2="15.2" gradientUnits="userSpaceOnUse"><stop offset="0" stop-color="#05a1d7" stop-opacity="0"/><stop offset="1" stop-color="#05a1d7" stop-opacity="0.65"/></linearGradient><linearGradient id="linear-gradient-3" x1="53.31" y1="11.83" x2="53.58" y2="3.38" gradientUnits="userSpaceOnUse"><stop offset="0" stop-color="#05a1d7" stop-opacity="0.2"/><stop offset="1" stop-color="#05a1d7"/></linearGradient><linearGradient id="linear-gradient-4" x1="41.18" y1="13.74" x2="41.32" y2="9.37" xlink:href="#linear-gradient"/><linearGradient id="linear-gradient-5" x1="53.43" y1="22.52" x2="54.2" y2="-1.91" xlink:href="#linear-gradient"/></defs><title>news-tribune</title><g id="Layer_2" data-name="Layer 2"><g id="tac"><path class="cls-1" d="M66.33,12.42a7.92,7.92,0,0,0-4.5-2l-1.18-.5c-.63-.49-1-1.35-1.74-1.65a7.63,7.63,0,0,0-3.55-1.93c-.43-.09-.73-.5-1.18-.51v.1c.71.6,1,1.51,1.58,2.11.65.45,1.42.29,2.19.5.85.69,1.9.91,2.7,1.72a17.48,17.48,0,0,1,3.25,1.78c.6.5,1.5.32,2.22.51C66.2,12.52,66.35,12.53,66.33,12.42Z"/><path class="cls-2" d="M66.27,17.32v.11c.45.12,1-.1,1.51,0,.3.09.53.37.85.37.51.49,1.37.18,1.93.43v-.11c-.89-.6-1.65-1.52-2.74-1.63Z"/><path class="cls-3" d="M56.66,10.38c-.91-.06-1.31-1.08-2-1.61-1-.21-2.15-.08-2.81-1a6.55,6.55,0,0,1-1.77-2.4c-.81-.43-1.47-.9-2.27-1.32l0,.11c.36.63,1.06,1,1.33,1.65s.33,2,1.47,2.07A5,5,0,0,1,53.2,9.41a3.7,3.7,0,0,0,2.35,1.77c.91,1.11,2.34.93,3.39,1.7L59,12.8l-1-1.13A2.66,2.66,0,0,0,56.66,10.38Z"/><path class="cls-4" d="M41.41,12.23c-.67,0-1.21-.62-1.89-.42.42.45.66,1.13,1.11,1.59.75.13,1.43.46,2.19.61l.07-.08-.23-.27C42.25,13.19,41.78,12.72,41.41,12.23Z"/><path class="cls-5" d="M104.37,21.64a21.62,21.62,0,0,1-4.3-2l-2.91.15c-1-.37-1.94-1.38-3-.75-1.23.47-2.06-.52-3.07-.83-.72-.53-1.71-.27-2.55-.22a7.05,7.05,0,0,1-2-.8c-1-.19-2.31.14-3.11-.67a6.41,6.41,0,0,1-3.7-.87c-.52-.15-1,.16-1.54,0-1.51-1.11-3.62-.72-4.88-2.41-1.47-.6-3.12-.71-4.36-1.81-1-.06-1.35-1.13-2.19-1.47L63,8.42l-1-.7c-1.45-1.68-3.71-1.48-5-3.28-.44-.19-.77-.88-1.29-1L52.8,1.73l-.74-.65a14.55,14.55,0,0,1-7.5-.67c-.6.26-1.19.53-1.77.8-1.5-.08-2.71-1-4.2-1.21-1,.91-2.09,1.33-3,2.4a16.73,16.73,0,0,0-4.25,2.76l-.29,0c-1.67.65-2.7,2.2-4,3.47-.74.45-1.17,1.6-2.22,1.35-1.54,0-2.51,1.88-4.23,1.36-1.47.39-2.68,1.43-4.09,2a2.44,2.44,0,0,0-2.19,1.13c-.79.08-1.07,1-1.81,1.16a36.69,36.69,0,0,0-3.93,1.7c-1,.09-1.52,1.3-2.51,1.55-.91.88-2.28.64-3.14,1.69-.68.6-1.43,1.07-2.11,1.62L0,23.34H106.8C106,22.38,105.1,22.69,104.37,21.64ZM72,18.26l2.26.45c.73.41,1.47.83,2.22,1.19-1.54.38-3,1.35-4.74.76a12,12,0,0,0-4.58-.94,17,17,0,0,0-2.85,0c.4-.74.49-1.73,1.33-2.29-.13-.29-.54-.07-.77-.19-.42-.18-.95-.11-1.33-.35a10.64,10.64,0,0,0-2-1.72L59.8,15c-.63-.36-1.06-1.18-1.82-1.24-1.15-.24-2.48-.06-3.4-.86-1.22-.41-1.91-1.77-2.67-2.72-.6-.78-1.57-.62-2.33-1a.14.14,0,0,0,0,.22c.76.68,2,1.16,2,2.34a7.86,7.86,0,0,0,1.93,2.07,5.86,5.86,0,0,0,2.69.3,8,8,0,0,1,1.59.53c-.51,1-1.56,1-2.25,1.59.06.26.39.18.55.33l2,1c.08.61.16,1.25.23,1.8v.05a11.22,11.22,0,0,0-2.45-1c-.64.09-.84.84-1.21,1.28-.42-.34-1-.54-1.25-1-.25-1-.31-2.15-1.48-2.41-.3-.15-.48-.54-.82-.45,0,.86,1.12,1.52.63,2.53l0,1a8.81,8.81,0,0,1-1.7,1.13c-.35-.58-.32-1.43-.89-1.92-.39-.4-1.06-.59-1.19-1.2a17.7,17.7,0,0,1,.34-2l-.11-.08A14.37,14.37,0,0,0,45.93,18a4,4,0,0,1,.14,1.37l-.77,1.08c-.57-.28-1.36,0-1.9-.38s-.92-1.11-1.58-1.35c-.11-.06-.19-.31-.33-.18-.24.53,0,1.12-.08,1.72l-1.26,1.18c-.85-.18-2,.06-2.7-.49l-1.26-.42c.09-.79.42-1.56.52-2.37a15.23,15.23,0,0,0,1.88-1.54l.37-.27c.2.54.19,1.15.34,1.7a7.82,7.82,0,0,0,1.11-.83c.37-.16.68-.55,1.11-.46a2.09,2.09,0,0,0,1,.49,4.38,4.38,0,0,0,1.63.61c.16-.08,0-.2,0-.3-.64-.58-1-1.53-1.81-1.77a3.12,3.12,0,0,1-1.3-.27c-.32-.48-.56-1-.84-1.5-.94-.29-1.73.45-2.59.67s-1.13,1.13-1.9,1.55c.2-.65.06-1.45.26-2.11.65-.44,1.7-.55,1.88-1.51.44-.49,1-.63,1.42-1.08-.51-1-.63-2.23-1.15-3.25a1.64,1.64,0,0,0-.3-.83,6.21,6.21,0,0,1,.59-2.32c0,.68.61,1,.79,1.61.63.77.26,1.87.77,2.64.52.6,1.32,1,1.71,1.77.06,0,.09,0,.14-.08-.37-1.27.53-2.29.23-3.54A9.46,9.46,0,0,1,43.4,9.44c.45.57.63,1.23,1.08,1.77.79.28,1.73.38,2,1.35a2.56,2.56,0,0,0,1.67,1.63c.48.33,1,.46,1.51.76l.12-.16c-.75-1-.63-2.73-2.15-3s-1.24-2.17-2.28-3c-.05-.73-.36-1.33-.45-2-.32-.35-.77-.4-1.11-.68-.28-.56-.32-1.25-.82-1.69-.66-.39-1.48-.74-1.66-1.58-.14,0-.16-.15-.22-.23-.55-.51-1.62-.47-1.71-1.39L39.12.78c.86.27,1.68.66,2.51,1,.09.25.37.2.52.38A5.13,5.13,0,0,0,44.56,3.2a10.61,10.61,0,0,1,1.22.14.38.38,0,0,0,.07-.25c-.32-.39-1-.57-1-1.1-.18-.22-.05-.56-.18-.78a6.7,6.7,0,0,1,2.14.52c.89.32,2.42-.34,2.66,1s2,1.58,2.89,2.55c.32,0,.44.58.78.38-.06-.28-.31-.49-.41-.76-.19-.7-1.11-1.12-1.07-1.91a3.28,3.28,0,0,1-.18-.61.76.76,0,0,1,.29-.57,29.63,29.63,0,0,1,2.62,1.51c.62.66,1.5.82,2,1.55a7.71,7.71,0,0,0,3.28,2c1.37.93,2.77,1.9,4.14,2.91,1.61.37,2.54,2.35,4.3,2.33A15.56,15.56,0,0,0,70,13.32c-1.06.3-2.2-.22-3.25,0a9.35,9.35,0,0,0-1.8.87l.11.11a6.44,6.44,0,0,1,3.84.57l.7.45c1.31-.26,2.53-.12,3.89-.26.43,0,.81.31,1.21.45a25.85,25.85,0,0,1,3.15,1.19c-.59.58-1.26,1.23-2.14,1.07a7,7,0,0,0-3.81.22C71.88,18.1,71.82,18.18,72,18.26Zm12.21,2.58-1,.62a21,21,0,0,0-2.74-1.24c-.23-.54-.14-1.21-.37-1.74l-1-1.27c.91.51,2,.67,2.7,1.72a6.65,6.65,0,0,0,1,1.1c.14-.35,0-.75.26-1.1,0-.63-.45-1-.74-1.5a5.18,5.18,0,0,1,3,1.58c.18,0,.32.19.36.33a8.94,8.94,0,0,0,1.08,1.39C85.88,21,85,20.28,84.17,20.84Zm4.25-.48a7.39,7.39,0,0,1-1.62-1.73c.76,0,1.38.32,2.14.3a3.91,3.91,0,0,1,1.33,1.35C89.76,20.37,89,20.28,88.42,20.36Z"/><path class="cls-6" d="M288.38,12.29l1.41,0c1.79,0,2.06.49,2.52,3.94h.54V7.62h-.54c-.54,2.9-.76,3.88-2.5,3.91l-1.43,0V4.26c0-.74.16-1,1.32-1h2.07c1.22,0,2.87,2,4.34,5.7l.51-.11-.86-6.32H283v.73h.3c1.51,0,1.87.24,1.87,1.22V19c0,1.24-.22,1.49-1.87,1.49H283v.73h13.4l.9-6.19-.55-.05c-1.19,2.66-3.61,5.4-4.26,5.43l-1.87.08c-1.82.08-2.22-.25-2.22-1.25ZM268.24,4.5V17.85c0,1.76.11,2.52-1.71,2.63l-.43,0v.73h5.64v-.73c-2.57-.25-2.6-.54-2.6-2.5V5.86l10.55,15.87h.63V5.94c0-2,0-2.55,2.06-2.66V2.55h-5.73v.73l.41,0c2.39.16,2.36.67,2.36,2.47v9.63L270.76,2.55h-4.88v.73a2.25,2.25,0,0,1,2.36,1.22m-10.79,17c4.39,0,6-2.66,6-6.21V5.94c0-2.25,0-2.5,1.74-2.63V2.55H259.7v.73h.4c2.36,0,2.42.62,2.42,2.63v9.25c0,3.91-1.66,5.08-4.45,5.08s-3.83-1.87-3.83-4.15V4.69c0-1,.36-1.36,1.58-1.38l1,0V2.55H249v.73h.33c1.38,0,1.71.33,1.71,1.3V15.81c0,4.1,2.93,5.73,6.46,5.73m-14.68-1c-1.55,0-1.9-.25-1.9-1.25V12h1.3a3.34,3.34,0,0,1,2.63.68c.62.6,1,1.63,1.06,3.47.08,2.82-.57,4.4-3.09,4.4m-1.9-9.25V4.12c0-.54,0-.87,1-.87h1c1.63,0,2.45,1.41,2.53,3.86.08,3.17-1.14,4.15-3.37,4.15Zm-5.38,10h8.74a5,5,0,0,0,5.21-4.91c0-2.69-1.66-3.93-4.67-4.83,2.31-.46,4-2.06,4-4.18,0-3.44-2.8-4.77-5.21-4.77h-8.12v.73h.3c1.52,0,1.87.24,1.87,1.22V19c0,1.24-.21,1.49-1.87,1.49h-.3Zm-8.72,0h8.06v-.73h-.65c-1.44,0-1.76-.25-1.76-1.25V4.53c0-1,.29-1.25,1.76-1.25h.65V2.55h-8.06v.73h.55c1.52,0,1.87.24,1.87,1.22V19.29c0,1-.22,1.22-1.87,1.22h-.55Zm-11.1-9.63V4.12c0-.54.19-.87,1.19-.87h.58c1.73,0,3.44,1.38,3.44,4.21,0,3.47-1.52,4.15-4,4.15Zm0,.65h2.06c1.28,0,1.82.22,1.9,2l.22,4.75c.08,1.74,1.38,2.63,3.28,2.63s3.5-.81,3.59-4.42h-.63c-.08,1.54-.38,3-1.46,3s-1.25-.6-1.55-3.66c-.25-2.69-1.09-3.86-3.56-4.67,3-.6,4.83-2.23,4.83-4.4,0-3.2-3.25-4.93-6.07-4.93h-8v.73h.3c1.52,0,1.87.24,1.87,1.22V19c0,1.24-.22,1.49-1.87,1.49h-.3v.73h7.43v-.73h-.56c-1,0-1.5-.25-1.5-1.25Zm-17,9h8.08v-.73h-.65c-1.43,0-1.76-.25-1.76-1.25V4.17c0-.73.11-.89.68-.89.32,0,.65,0,.65,0,1.52,0,2.69,2.27,4.1,5.69l.51-.1-.84-6.35H195.85L195,8.9l.51.1c1.2-2.87,2.61-5.58,3.91-5.67,0,0,.65-.05.92-.05.54,0,.65.24.65.92V19.29c0,1-.19,1.22-1.9,1.22h-.51Zm-14.83.33a5.12,5.12,0,0,0,5.27-5.35c0-3.25-2.39-4.61-5.05-6.1-2.12-1.2-4.07-2.28-4.07-4.37A2.57,2.57,0,0,1,182.68,3c2.2,0,3.8,2.36,4.83,5h.54V2.44h-.4c-.49.81-.9,1.14-1.31,1.14-.73,0-1.6-1.39-3.79-1.39a4.88,4.88,0,0,0-5.13,5c0,3.09,1.9,4.36,4.85,6,2.2,1.22,4.26,2.33,4.26,4.56a2.72,2.72,0,0,1-2.87,3c-2,0-4.48-2.25-5.89-5.64h-.54v6.1h.54c.24-.41.92-1.44,1.63-1.44s1.87,1.77,4.39,1.77m-21.8.1,4.07-13.81,4.26,13.81h.57l4.72-16.11c.54-1.82.65-2.06,2.28-2.28V2.55h-5.1v.73l.59.05c1.88.17,1.77.57,1.31,2.15l-3,10.28-2.95-9.9c-.63-2.07-.63-2.39,1.84-2.58V2.55H163.1v.73c1.6.14,1.66.33,2.47,3l-2.66,9.25-3-9.71c-.62-2-.54-2.39,1.52-2.55V2.55h-7.49v.73c1.85.16,1.93.27,2.33,1.57l5.19,16.82Zm-16.71-9.38,1.41,0c1.79,0,2.07.49,2.53,3.94h.54V7.62h-.54c-.54,2.9-.76,3.88-2.5,3.91l-1.44,0V4.26c0-.74.17-1,1.33-1h2.07c1.22,0,2.87,2,4.34,5.7l.51-.11-.87-6.32H139.88v.73h.3c1.52,0,1.87.24,1.87,1.22V19c0,1.24-.21,1.49-1.87,1.49h-.3v.73h13.41l.89-6.19-.54-.05c-1.19,2.66-3.61,5.4-4.26,5.43l-1.87.08c-1.82.08-2.23-.25-2.23-1.25ZM124.83,4.5V17.85c0,1.76.11,2.52-1.71,2.63l-.44,0v.73h5.65v-.73c-2.58-.25-2.61-.54-2.61-2.5V5.86l10.56,15.87h.62V5.94c0-2,0-2.55,2.06-2.66V2.55h-5.72v.73l.4,0C136,3.47,136,4,136,5.78v9.63L127.35,2.55h-4.88v.73a2.27,2.27,0,0,1,2.36,1.22m-17,7.79,1.42,0c1.79,0,2.06.49,2.52,3.94h.54V7.62h-.54c-.54,2.9-.76,3.88-2.5,3.91l-1.44,0V4.26c0-.74.17-1,1.33-1h2.07c1.22,0,2.87,2,4.34,5.7l.51-.11-.87-6.32H102.41v.73h.3c1.52,0,1.88.24,1.88,1.22V19c0,1.24-.22,1.49-1.88,1.49h-.3v.73h13.41l.89-6.19-.54-.05c-1.19,2.66-3.61,5.4-4.26,5.43l-1.87.08c-1.82.08-2.23-.25-2.23-1.25Zm-23.16,9h7.54v-.73h-.38c-1.52,0-1.76-.25-1.76-1.25V12.34h6.43v6.92c0,1-.08,1.25-1.74,1.25h-.41v.73h7.55v-.73h-.3c-1.71,0-1.84-.25-1.84-1.22V4.5c0-1,.48-1.22,1.84-1.22h.3V2.55H94.33v.73h.41c1.47,0,1.74.24,1.74,1.25v7H90.05v-7c0-1,.22-1.25,1.76-1.25h.38V2.55H84.65v.73H85c1.52,0,1.87.24,1.87,1.22V19.29c0,1-.22,1.22-1.87,1.22h-.3ZM73,21.24h8.08v-.73H80.4c-1.44,0-1.76-.25-1.76-1.25V4.17c0-.73.11-.89.68-.89.32,0,.65,0,.65,0,1.52,0,2.68,2.27,4.09,5.69l.52-.1-.84-6.35H70.2L69.39,8.9l.51.1c1.2-2.87,2.61-5.58,3.91-5.67,0,0,.65-.05.92-.05.54,0,.65.24.65.92V19.29c0,1-.19,1.22-1.9,1.22H73Z"/></g></g></svg>