<svg xmlns="http://www.w3.org/2000/svg" viewBox="0 0 512 512">
  <title>sacramento-bee</title>
  <g id="Layer_2" data-name="Layer 2">
    <g id="Art">
      <rect width="512" height="512" fill="#145288"/>
      <g>
        <g>
          <path d="M216.2,178.1H192.3v-2.2l4.1-.7c2.2-.3,2.5-.4,2.5-1.8V122.6l-7.3.3c-2.8.1-3.6,1.2-4.8,3.7l-2.9,6.5h-2.2l1.6-13.1h41.6l1.7,13.1h-2.1l-3-6.5c-1.2-2.7-1.9-3.6-4.7-3.7l-7.4-.3v50.8c0,1.4.3,1.6,2.2,1.8l4.6.7Z" fill="#fff"/>
          <path d="M252.7,178.1H229.3v-2.3l3.2-.7c2.2-.4,2.5-.4,2.5-1.8V125c0-1.6-.3-1.6-2.5-2l-3.2-.6V120h23.4v2.4l-5.2.6c-1.9.3-2.2.4-2.2,2v21.5h20.9V125c0-1.6-.3-1.7-2.2-2l-5.2-.6V120h23.4v2.4l-3.3.6c-2.1.4-2.4.4-2.4,2v48.3c0,1.4.3,1.4,2.4,1.8l3.3.7v2.3H258.8v-2.3l5.2-.7c1.9-.3,2.2-.4,2.2-1.8V149.4H245.3v23.9c0,1.4.3,1.5,2.2,1.8l5.2.7Z" fill="#fff"/>
          <path d="M324.6,178.1H285.9v-2.3l3.2-.7c2-.4,2.4-.4,2.4-1.8V125c0-1.6-.4-1.6-2.4-2l-3.2-.6V120h37.4l2.8,12.9h-1.9l-3.4-5.9c-1.5-2.5-2-3.1-4.8-3.3l-14-1.1v24.2l12.4-.5c2.1-.1,2.6-.1,3.3-2.6l1.4-5.7h2.1v20.3h-2l-1.5-5.8c-.8-2.6-1.2-2.6-3.5-2.7l-12.2-.4v26.1l14.3-1.1c3-.2,4.3-1,5.7-3.7l3.5-7.8h2.1Z" fill="#fff"/>
        </g>
        <g>
          <path d="M59.1,368.4l11-2.3c6.9-1.4,8.1-1.4,8.1-6.2v-163c0-5.1-1.2-5.1-8.1-6.5l-11-2.3v-7.9h72.6c35.7,0,60.4,11.3,60.4,42.7,0,23.5-14.5,37.1-38.2,42.7,32.1,3.7,50.9,23.5,50.9,53.2,0,38-30,57.2-67.2,57.2H59.1Zm54-180v76.1h14c20.9,0,30.1-12.2,30.1-39.6s-12-36.5-30.3-36.5Zm0,84v95.7h21.4c23.5,0,34.4-19.3,34.4-48.4,0-31.1-12.5-47.3-40-47.3Z" fill="#fff"/>
          <path d="M318.3,376H206.7v-6.5l9.3-2c5.9-1.2,7-1.2,7-5.3V223.1c0-4.4-1.1-4.4-7-5.6l-9.3-1.9v-6.8H314.6l8,37.2h-5.7l-9.7-16.9c-4.2-7.2-5.7-9.2-13.7-9.7L253,216.3v69.6l35.9-1.5c5.9-.2,7.4-.2,9.3-7.2l4.2-16.7h6.1V319l-5.9.5-4.4-16.7c-2.1-7.5-3.4-7.7-10-8L253,293.6V369l41.3-3.1c8.7-.8,12.4-3.2,16.3-10.9l10.3-22.2h5.8Z" fill="#fff"/>
          <path d="M444.4,376H332.8v-6.5l9.4-2c5.8-1.2,6.9-1.2,6.9-5.3V223.1c0-4.4-1.1-4.4-6.9-5.6l-9.4-1.9v-6.8H440.7l8,37.2h-5.6l-9.8-16.9c-4.1-7.2-5.7-9.2-13.7-9.7l-40.5-3.1v69.6l35.9-1.5c5.9-.2,7.4-.2,9.4-7.2l4.1-16.7h6.1V319l-5.9.5-4.3-16.7c-2.2-7.5-3.5-7.7-10-8l-35.3-1.2V369l41.4-3.1c8.7-.8,12.3-3.2,16.3-10.9L447,332.8h5.9Z" fill="#fff"/>
        </g>
      </g>
    </g>
  </g>
</svg>
