<svg xmlns="http://www.w3.org/2000/svg" viewBox="0 0 512 512">
  <title>star-telegram</title>
  <g id="Layer_2" data-name="Layer 2">
    <g id="Art">
      <g>
        <path d="M131.5,396.1l79.4-1.3,24.5,85c22.2,10.4,58.7,19.7,98.4,19.1,60.1-1,95.1-28.2,94.1-76.2-.6-35.9-17.9-58.8-86.4-96.3l-90.6-49.6C182.6,239.3,129.2,191,127.8,119.4,126.8,65.8,150.3,26,190,0H0V512H133.7Z" fill="#231f20"/>
        <path d="M416.9,65.2c-16.2-6.6-33.4-17-79.8-16.3-51.6.8-79,26.5-78.4,58.5.6,33.5,26.5,49.6,74.2,75l88.8,47.4c38.4,20.5,68.4,42.8,90.3,68.1V143l-70.8,1.1Z" fill="#231f20"/>
        <path d="M127.8,119.4c1.4,71.6,54.8,119.9,123.1,157.4l90.6,49.6c68.5,37.5,85.8,60.4,86.4,96.3,1,48-34,75.2-94.1,76.2-39.7.6-76.2-8.7-98.4-19.1l-24.5-85-79.4,1.3L133.7,512H512V297.9c-21.9-25.3-51.9-47.6-90.3-68.1l-88.8-47.4c-47.7-25.4-73.6-41.5-74.2-75-.6-32,26.8-57.7,78.4-58.5,46.4-.7,63.6,9.7,79.8,16.3l24.3,78.9L512,143V0H190C150.3,26,126.8,65.8,127.8,119.4Z" fill="#bacfdb"/>
      </g>
    </g>
  </g>
</svg>
